<svg width="137" height="41" viewBox="0 0 137 41" fill="none" xmlns="http://www.w3.org/2000/svg">
<g clip-path="url(#clip0_2544_3223)">
<path d="M44.9189 36.536H48.4673V37.1419C48.4673 38.195 48.136 39.0414 47.4782 39.681C46.8252 40.3061 45.9945 40.6235 44.9814 40.6235C43.8818 40.6235 42.9695 40.2676 42.2444 39.5607C41.5242 38.8538 41.1641 37.9834 41.1641 36.9495C41.1641 35.9156 41.5194 35.0452 42.2348 34.3287C42.9503 33.6122 43.829 33.2563 44.8709 33.2563C45.5239 33.2563 46.1241 33.4054 46.6763 33.6988C47.2237 33.9921 47.6559 34.3864 47.9632 34.8769L46.5899 35.6656C46.4266 35.4155 46.1962 35.2135 45.8889 35.0645C45.5816 34.9106 45.2406 34.8385 44.8613 34.8385C44.2611 34.8385 43.7617 35.0356 43.368 35.4348C42.9743 35.8339 42.7822 36.334 42.7822 36.964C42.7822 37.5939 42.9839 38.0748 43.3872 38.4739C43.7906 38.8587 44.3283 39.051 45.0054 39.051C45.9369 39.051 46.5371 38.6855 46.8156 37.9594H44.9237V36.5408L44.9189 36.536Z" fill="white"/>
<path d="M66.6133 40.4794H64.8463L64.491 39.3686H61.8645L61.5092 40.4794H59.7422L62.1478 33.396H64.2077L66.6133 40.4794ZM63.1802 35.2522L62.3495 37.8538H64.006L63.1754 35.2522H63.1802Z" fill="white"/>
<path d="M83.8989 33.4004H85.5171V40.4838H83.8989V36.3674L82.0695 39.373H81.887L80.0576 36.3674V40.4838H78.4395V33.4004H80.0576L81.9782 36.5454L83.8989 33.4004Z" fill="white"/>
<path d="M97.9531 40.4794V33.396H99.5713V40.4794H97.9531Z" fill="white"/>
<path d="M115.945 37.2431V33.396H117.563V40.4794H116.353L113.626 36.6323V40.4794H112.008V33.396H113.218L115.945 37.2431Z" fill="white"/>
<path d="M133.457 36.536H137.001V37.1419C137.001 38.195 136.669 39.0414 136.011 39.681C135.358 40.3061 134.528 40.6235 133.515 40.6235C132.415 40.6235 131.503 40.2676 130.778 39.5607C130.057 38.8538 129.697 37.9834 129.697 36.9495C129.697 35.9156 130.053 35.0452 130.768 34.3287C131.483 33.6122 132.362 33.2563 133.404 33.2563C134.057 33.2563 134.657 33.4054 135.21 33.6988C135.757 33.9921 136.189 34.3864 136.496 34.8769L135.123 35.6656C134.96 35.4155 134.729 35.2135 134.422 35.0645C134.115 34.9106 133.774 34.8385 133.395 34.8385C132.794 34.8385 132.295 35.0356 131.901 35.4348C131.512 35.8243 131.315 36.334 131.315 36.964C131.315 37.5939 131.517 38.0748 131.92 38.4739C132.324 38.8587 132.862 39.051 133.539 39.051C134.47 39.051 135.07 38.6855 135.349 37.9594H133.462V36.5408L133.457 36.536Z" fill="white"/>
<path d="M30.2671 28.6127L26.2038 25.2558C25.7763 24.9026 25.1438 24.9633 24.7911 25.3915L16.3976 35.5817C16.0449 36.0098 16.1056 36.6433 16.5332 36.9965L20.5964 40.3534C21.024 40.7067 21.6565 40.6459 22.0092 40.2177L30.4026 30.0276C30.7553 29.5994 30.6946 28.9659 30.2671 28.6127Z" fill="white"/>
<path d="M14.9915 34.5257L23.0103 24.6772C23.0103 24.6772 21.4737 17.2139 25.5071 13.8669C29.5405 10.5199 23.8986 8.80799 22.2708 10.6065C20.6431 12.405 17.9926 15.8962 17.4068 18.1323C15.6302 17.6515 2.88664 9.62068 2.88664 9.62068C2.88664 9.62068 0.101697 9.39947 0.00566427 11.3759C-0.0903682 13.3523 3.76534 15.5788 7.30414 17.4591C7.40017 18.5892 4.26471 18.9018 5.45551 21.412C5.96928 22.3545 2.63215 22.4459 4.05824 25.3456C4.30792 25.9563 1.10044 27.7741 4.45197 29.8467C7.8035 31.9193 15.0011 34.5209 15.0011 34.5209L14.9915 34.5257Z" fill="white"/>
<path d="M7.16927 2.52834L7.16479 2.53008C6.90766 2.62997 6.78007 2.9197 6.8798 3.17721L9.07807 8.8532C9.1778 9.11072 9.4671 9.2385 9.72423 9.13862L9.7287 9.13688C9.98583 9.037 10.1134 8.74727 10.0137 8.48975L7.81543 2.81376C7.71569 2.55624 7.4264 2.42846 7.16927 2.52834Z" fill="white"/>
<path d="M17.7135 9.13235L17.718 9.13409C17.9751 9.23397 18.2644 9.10618 18.3642 8.84867L20.5624 3.17268C20.6622 2.91516 20.5346 2.62543 20.2775 2.52555L20.273 2.52381C20.0158 2.42393 19.7266 2.55171 19.6268 2.80923L17.4286 8.48522C17.3288 8.74273 17.4564 9.03246 17.7135 9.13235Z" fill="white"/>
<path d="M13.7229 1.03223H13.7181C13.4423 1.03223 13.2188 1.25614 13.2188 1.53235V7.62035C13.2188 7.89656 13.4423 8.12047 13.7181 8.12047H13.7229C13.9987 8.12047 14.2223 7.89656 14.2223 7.62035V1.53235C14.2223 1.25614 13.9987 1.03223 13.7229 1.03223Z" fill="white"/>
<path d="M48.152 7.82715H40.9688V28.4427H48.152V7.82715Z" fill="white"/>
<path d="M55.3924 0.623535H33.7227V6.38454H55.3924V0.623535Z" fill="white"/>
<path d="M71.5308 8.74577H78.714V28.4428H71.5308V27.3752C69.9799 28.4813 68.1169 29.1305 66.1146 29.1305C60.7031 29.1305 56.3145 24.413 56.3145 18.5943C56.3145 12.7756 60.7031 8.05811 66.1146 8.05811C66.7196 8.05811 67.3102 8.11581 67.8816 8.23122L69.8887 15.3291C69.2164 14.8338 68.3857 14.5356 67.483 14.5356C65.2407 14.5356 63.4257 16.3534 63.4257 18.5943C63.4257 20.8352 65.2407 22.6578 67.483 22.6578C69.7254 22.6578 71.4924 20.8785 71.5308 18.6664V8.74577Z" fill="white"/>
<path d="M93.9929 0.623535H86.8145V28.4427H93.9929V0.623535Z" fill="white"/>
<path d="M109.483 6.38454C111.077 8.7024 112.008 11.506 112.008 14.5355C112.008 17.5651 111.077 20.3639 109.483 22.6817C108.513 24.1051 107.293 25.341 105.882 26.3364C103.894 27.7358 101.498 28.4427 99.068 28.4427H95.1211V22.6384H97.157C101.349 22.6384 104.748 19.0126 104.748 14.5307C104.748 10.0489 101.349 6.42781 97.157 6.42781H95.1211V0.623535H98.343C102.549 0.623535 106.592 2.50379 109.118 5.86999C109.243 6.0383 109.363 6.21142 109.483 6.38454Z" fill="white"/>
<path d="M137.001 8.74577V28.4428H129.818V27.3752C128.267 28.4813 126.404 29.1305 124.402 29.1305C118.99 29.1305 114.602 24.413 114.602 18.5943C114.602 12.7756 118.99 8.05811 124.402 8.05811C125.007 8.05811 125.597 8.11581 126.169 8.23122L128.176 15.3291C127.504 14.8338 126.673 14.5356 125.77 14.5356C123.528 14.5356 121.713 16.3534 121.713 18.5943C121.713 20.8352 123.528 22.6578 125.77 22.6578C128.013 22.6578 129.779 20.8785 129.818 18.6664V8.74577H137.001Z" fill="white"/>
</g>
<defs>
<clipPath id="clip0_2544_3223">
<rect width="137" height="40" fill="white" transform="translate(0 0.623535)"/>
</clipPath>
</defs>
</svg>
