<svg width="64" height="25" viewBox="0 0 64 25" fill="none" xmlns="http://www.w3.org/2000/svg">
<g clip-path="url(#clip0_2344_7447)">
<path d="M60.0661 23.2283C59.0281 22.2924 57.4277 22.3773 56.4922 23.4155C57.5303 24.3513 59.1298 24.2666 60.0661 23.2283Z" fill="url(#paint0_linear_2344_7447)"/>
<path d="M56.4799 23.3981C57.4154 22.36 57.3307 20.7601 56.2925 19.8242C55.357 20.8625 55.4419 22.4623 56.4799 23.3981Z" fill="url(#paint1_linear_2344_7447)"/>
<path d="M61.8824 20.2576C60.6716 19.5587 59.1245 19.973 58.4258 21.1835C59.6357 21.8824 61.1829 21.4679 61.8824 20.2576Z" fill="url(#paint2_linear_2344_7447)"/>
<path d="M58.4255 21.1714C59.125 19.9609 58.7104 18.4135 57.4996 17.7148C56.8009 18.9252 57.2155 20.4726 58.4255 21.1714Z" fill="url(#paint3_linear_2344_7447)"/>
<path d="M63.0487 16.9606C61.7206 16.5287 60.293 17.255 59.8613 18.5852C61.1894 19.0171 62.617 18.2908 63.0487 16.9606Z" fill="url(#paint4_linear_2344_7447)"/>
<path d="M59.8529 18.6167C60.2846 17.2891 59.5586 15.8615 58.2284 15.4297C57.7959 16.7575 58.5227 18.185 59.8529 18.6167Z" fill="url(#paint5_linear_2344_7447)"/>
<path d="M63.5035 13.5221C62.1135 13.3748 60.868 14.3831 60.7227 15.7733C62.1135 15.9205 63.3589 14.9123 63.5035 13.5221Z" fill="url(#paint6_linear_2344_7447)"/>
<path d="M60.7322 15.7957C60.8796 14.4057 59.8712 13.1604 58.4811 13.0156C58.3335 14.4057 59.3421 15.651 60.7322 15.7957Z" fill="url(#paint7_linear_2344_7447)"/>
<path d="M63.2399 10.0742C61.8498 10.2215 60.842 11.4644 60.9888 12.8546C62.3787 12.7073 63.3873 11.4644 63.2399 10.0742Z" fill="url(#paint8_linear_2344_7447)"/>
<path d="M61.0007 12.8435C60.8538 11.4534 59.6106 10.4451 58.2207 10.5924C58.3674 11.9825 59.6106 12.9908 61.0007 12.8435Z" fill="url(#paint9_linear_2344_7447)"/>
<path d="M62.2671 6.71094C60.9392 7.14279 60.2102 8.57034 60.6419 9.89799C61.9698 9.46629 62.6988 8.03874 62.2671 6.71094Z" fill="url(#paint10_linear_2344_7447)"/>
<path d="M60.6462 9.91325C60.2146 8.58545 58.7869 7.8566 57.459 8.28845C57.8905 9.6161 59.3182 10.345 60.6462 9.91325Z" fill="url(#paint11_linear_2344_7447)"/>
<path d="M60.6116 3.65234C59.4008 4.35119 58.9862 5.89844 59.6856 7.10894C60.8955 6.41009 61.3103 4.86284 60.6116 3.65234Z" fill="url(#paint12_linear_2344_7447)"/>
<path d="M59.6967 7.10914C58.998 5.89879 57.4509 5.48449 56.2402 6.18334C56.9389 7.39384 58.4868 7.80799 59.6967 7.10914Z" fill="url(#paint13_linear_2344_7447)"/>
<path d="M58.6371 5.15019C58.7094 3.75504 57.6388 2.56464 56.2437 2.49219C56.1714 3.88734 57.2418 5.07789 58.6371 5.15019Z" fill="url(#paint14_linear_2344_7447)"/>
<path d="M3.95117 23.2283C4.98941 22.2924 6.58921 22.3773 7.52512 23.4155C6.48688 24.3513 4.88708 24.2666 3.95117 23.2283Z" fill="url(#paint15_linear_2344_7447)"/>
<path d="M7.52522 23.3981C6.58931 22.36 6.67418 20.7601 7.71242 19.8242C8.64833 20.8625 8.56347 22.4623 7.52522 23.3981Z" fill="url(#paint16_linear_2344_7447)"/>
<path d="M2.12305 20.2576C3.3335 19.5587 4.88087 19.973 5.57969 21.1835C4.36924 21.8824 2.82187 21.4679 2.12305 20.2576Z" fill="url(#paint17_linear_2344_7447)"/>
<path d="M5.59152 21.1714C4.8927 19.9609 5.30699 18.4135 6.51744 17.7148C7.21626 18.9252 6.80196 20.4726 5.59152 21.1714Z" fill="url(#paint18_linear_2344_7447)"/>
<path d="M0.96875 16.9606C2.2965 16.5287 3.72409 17.255 4.15585 18.5852C2.82811 19.0171 1.40052 18.2908 0.96875 16.9606Z" fill="url(#paint19_linear_2344_7447)"/>
<path d="M4.15193 18.6167C3.72017 17.2891 4.44644 15.8615 5.77669 15.4297C6.20845 16.7575 5.48219 18.185 4.15193 18.6167Z" fill="url(#paint20_linear_2344_7447)"/>
<path d="M0.5 13.5221C1.89015 13.3748 3.13553 14.3831 3.2803 15.7733C1.89015 15.9205 0.647251 14.9123 0.5 13.5221Z" fill="url(#paint21_linear_2344_7447)"/>
<path d="M3.29162 15.7957C3.14438 14.4057 4.15267 13.1604 5.54281 13.0156C5.69006 14.4057 4.68178 15.651 3.29162 15.7957Z" fill="url(#paint22_linear_2344_7447)"/>
<path d="M0.772092 10.0742C2.16224 10.2215 3.17053 11.4644 3.02327 12.8546C1.63314 12.7073 0.624842 11.4644 0.772092 10.0742Z" fill="url(#paint23_linear_2344_7447)"/>
<path d="M3.01953 12.8435C3.16677 11.4534 4.40967 10.4451 5.79981 10.5924C5.65256 11.9825 4.40967 12.9908 3.01953 12.8435Z" fill="url(#paint24_linear_2344_7447)"/>
<path d="M1.73764 6.71094C3.06539 7.14279 3.79416 8.57034 3.36239 9.89799C2.03463 9.46629 1.30587 8.03874 1.73764 6.71094Z" fill="url(#paint25_linear_2344_7447)"/>
<path d="M3.35938 9.91325C3.79114 8.58545 5.21872 7.8566 6.54647 8.28845C6.11471 9.6161 4.68713 10.345 3.35938 9.91325Z" fill="url(#paint26_linear_2344_7447)"/>
<path d="M3.39426 3.65234C4.60471 4.35119 5.01899 5.89844 4.32019 7.10894C3.10973 6.41009 2.69544 4.86284 3.39426 3.65234Z" fill="url(#paint27_linear_2344_7447)"/>
<path d="M4.32617 7.10914C5.02499 5.89879 6.57236 5.48449 7.78282 6.18334C7.084 7.39384 5.53663 7.80799 4.32617 7.10914Z" fill="url(#paint28_linear_2344_7447)"/>
<path d="M5.37846 5.15019C5.30609 3.75504 6.37677 2.56464 7.77191 2.49219C7.84428 3.88734 6.7736 5.07789 5.37846 5.15019Z" fill="url(#paint29_linear_2344_7447)"/>
<path d="M18.447 22.5205H17.1218C16.9934 22.5277 16.867 22.4916 16.762 22.4175C16.6716 22.3488 16.6012 22.2583 16.5577 22.1535L16.122 20.8698H13.3142L12.8875 22.1535C12.846 22.2547 12.7772 22.3434 12.6887 22.4083C12.5856 22.4862 12.4608 22.5259 12.3325 22.5205H11L13.8494 15.1602H15.5976L18.447 22.5205ZM13.7174 19.7127H15.7351L15.0498 17.6914C14.9992 17.563 14.9468 17.4112 14.8907 17.2357C14.8311 17.0641 14.7751 16.876 14.7172 16.6735C14.6648 16.8778 14.6105 17.0695 14.5545 17.2357C14.4984 17.4021 14.4442 17.5648 14.3954 17.6914L13.7192 19.7127H13.7174Z" fill="url(#paint30_linear_2344_7447)"/>
<path d="M17.0938 15.162H18.5456C18.6758 15.1584 18.8059 15.1928 18.9163 15.2633C19.0139 15.3302 19.0824 15.4296 19.1096 15.5435L20.1203 19.3836C20.1511 19.5102 20.1818 19.6422 20.2125 19.7814C20.2431 19.9206 20.2721 20.0616 20.3028 20.228C20.3571 19.9424 20.4312 19.6602 20.5253 19.3854L21.7041 15.5291C21.7421 15.426 21.809 15.3374 21.8975 15.2741C22.0024 15.1982 22.1289 15.1584 22.2591 15.162H22.7562C22.8846 15.1548 23.0113 15.191 23.1161 15.2651C23.2066 15.3338 23.2788 15.4242 23.324 15.5291L24.5064 19.3692C24.6005 19.6314 24.6746 19.8989 24.7288 20.1719C24.7577 20.0255 24.7812 19.8917 24.8138 19.7489C24.8445 19.6061 24.8699 19.4885 24.9006 19.3692L25.9112 15.5291C25.9509 15.4206 26.027 15.3284 26.1281 15.2705C26.2331 15.1964 26.3614 15.1584 26.4897 15.1602H27.8114L25.5369 22.5204H23.9912L22.608 17.9589C22.5575 17.8125 22.5104 17.648 22.4616 17.46C22.4145 17.648 22.3658 17.8143 22.3151 17.9589L20.9121 22.5204H19.3718L17.0974 15.1602L17.0938 15.162Z" fill="url(#paint31_linear_2344_7447)"/>
<path d="M33.8942 22.5205H32.5743C32.4459 22.5277 32.3193 22.4916 32.2145 22.4175C32.1224 22.3488 32.0517 22.2583 32.0066 22.1535L31.5708 20.8698H28.7631L28.3328 22.1535C28.2912 22.2547 28.2225 22.3434 28.1339 22.4083C28.0308 22.4862 27.9062 22.5259 27.7778 22.5205H26.4453L29.2947 15.1602H31.043L33.8924 22.5205H33.8942ZM29.1645 19.7127H31.1712L30.497 17.6914C30.4463 17.563 30.3939 17.4112 30.3378 17.2357C30.2817 17.0641 30.2222 16.876 30.1661 16.6735C30.11 16.8778 30.0558 17.0695 29.9997 17.2357C29.9438 17.4021 29.8931 17.5648 29.8406 17.6914L29.1645 19.7127Z" fill="url(#paint32_linear_2344_7447)"/>
<path d="M36.1831 19.7967V22.5195H34.4727V15.1611H36.8665C37.3257 15.1521 37.783 15.2063 38.2276 15.3239C38.5623 15.4142 38.8749 15.5697 39.148 15.7812C39.3778 15.9675 39.5569 16.2098 39.667 16.4828C39.7755 16.7594 39.8299 17.0541 39.8263 17.3507C39.8278 17.5802 39.7953 17.8098 39.7306 18.0305C39.6691 18.2402 39.573 18.4371 39.45 18.6162C39.3217 18.7988 39.1645 18.9633 38.9871 19.0989C38.7937 19.2453 38.5804 19.3628 38.3527 19.4478C38.4666 19.5057 38.5735 19.578 38.6691 19.6649C38.7702 19.7534 38.8588 19.8564 38.9332 19.9703L40.4986 22.5305H38.9529C38.7018 22.5503 38.4628 22.4237 38.3346 22.2068L37.1142 20.0715C37.0672 19.9902 37.0003 19.9215 36.9207 19.8728C36.8266 19.8239 36.7218 19.8023 36.6169 19.8077L36.1795 19.7985L36.1831 19.7967ZM36.1831 18.6198H36.8683C37.0708 18.6234 37.2715 18.5945 37.4631 18.5294C37.6132 18.4788 37.7503 18.3956 37.8648 18.2853C37.9674 18.1823 38.0454 18.0575 38.0925 17.9201C38.1411 17.7737 38.1646 17.6199 38.163 17.4645C38.179 17.177 38.0635 16.8986 37.8481 16.7069C37.5643 16.5009 37.2172 16.4013 36.8683 16.4267H36.1831V18.6198Z" fill="url(#paint33_linear_2344_7447)"/>
<path d="M47.6042 18.8361C47.608 19.3406 47.5123 19.8413 47.3242 20.3096C47.1472 20.7471 46.8832 21.1449 46.547 21.4776C46.2013 21.812 45.7928 22.0742 45.3428 22.2441C44.8436 22.4358 44.314 22.5317 43.7789 22.5243H40.9238V15.1605H43.7843C44.3177 15.1533 44.849 15.2492 45.3482 15.4407C45.7966 15.6107 46.205 15.8693 46.5524 16.202C46.8886 16.5327 47.1526 16.9287 47.3294 17.3663C47.516 17.8346 47.6101 18.3335 47.6042 18.8379V18.8361ZM45.856 18.8361C45.8597 18.5016 45.8126 18.1689 45.7132 17.8508C45.632 17.5778 45.4925 17.3229 45.3065 17.1077C45.1295 16.9016 44.9051 16.7406 44.6518 16.6358C44.3755 16.5255 44.081 16.4732 43.7843 16.4822H42.6416V21.2064H43.7843C44.0825 21.2118 44.3809 21.1557 44.6576 21.0437C44.9068 20.9388 45.1295 20.7779 45.3065 20.5718C45.4925 20.3549 45.632 20.1017 45.7132 19.8287C45.8126 19.5087 45.8618 19.1742 45.856 18.8379V18.8361Z" fill="url(#paint34_linear_2344_7447)"/>
<path d="M52.4777 16.6616C52.4366 16.7303 52.382 16.7917 52.319 16.8406C52.2554 16.8839 52.1795 16.9057 52.1019 16.9021C52.0133 16.8985 51.9282 16.8731 51.8523 16.8296L51.5487 16.6634C51.4259 16.5983 51.297 16.544 51.1634 16.5007C51.0026 16.45 50.8341 16.4248 50.6663 16.4284C50.4114 16.4084 50.1581 16.4807 49.9539 16.6327C49.793 16.7737 49.7064 16.9798 49.7187 17.1949C49.7156 17.3305 49.7658 17.4643 49.8599 17.5619C49.9667 17.6686 50.0934 17.7536 50.2307 17.815C50.4023 17.891 50.5776 17.9561 50.7582 18.0085C50.9555 18.0682 51.1565 18.1351 51.3623 18.2074C51.5685 18.2797 51.771 18.3647 51.9662 18.4622C52.1597 18.5581 52.3371 18.6829 52.4904 18.8348C52.6497 18.9956 52.7765 19.1855 52.8614 19.397C52.9625 19.6465 53.0111 19.9141 53.0042 20.1835C53.0057 20.5108 52.9464 20.8343 52.8267 21.1381C52.7129 21.4292 52.5375 21.695 52.3136 21.9137C52.0731 22.1452 51.7856 22.3223 51.4707 22.4362C51.111 22.5682 50.7315 22.6315 50.3483 22.6243C50.1132 22.6243 49.8797 22.6007 49.6482 22.5538C49.4135 22.5067 49.1822 22.4399 48.9576 22.3549C48.7406 22.27 48.5312 22.1687 48.3323 22.0493C48.1479 21.9391 47.9759 21.8071 47.8203 21.6569L48.3248 20.8579C48.3681 20.8 48.4226 20.7512 48.4841 20.7151C48.5493 20.6753 48.6215 20.6554 48.6974 20.6554C48.8058 20.659 48.9128 20.6915 49.0031 20.7512L49.3536 20.9645C49.4964 21.0494 49.6449 21.1201 49.8005 21.1778C49.9919 21.2447 50.1929 21.2773 50.3948 21.2737C50.6519 21.2882 50.9085 21.2159 51.1202 21.0694C51.3029 20.9048 51.3969 20.6644 51.375 20.4203C51.3819 20.2667 51.3318 20.1166 51.2339 19.9991C51.1308 19.8815 51.0041 19.7857 50.8635 19.7188C50.6936 19.6429 50.5178 19.5797 50.3393 19.5308C50.1458 19.4783 49.9433 19.4188 49.739 19.3519C49.5327 19.2868 49.3317 19.2053 49.1382 19.1096C48.9507 19.0156 48.7785 18.889 48.6342 18.7372C48.4734 18.5672 48.3467 18.3683 48.2618 18.1513C48.1602 17.8729 48.1131 17.5801 48.1206 17.2835C48.1206 16.7104 48.359 16.1644 48.777 15.7739C49.0068 15.5569 49.2762 15.3869 49.5707 15.2749C49.9143 15.1465 50.2794 15.0832 50.6466 15.0904C50.8668 15.0904 51.0875 15.1067 51.3062 15.1429C51.5141 15.1754 51.7187 15.2278 51.9155 15.3002C52.1019 15.3652 52.281 15.4484 52.4525 15.5479C52.6134 15.6383 52.7652 15.7486 52.901 15.8734L52.4777 16.667V16.6616Z" fill="url(#paint35_linear_2344_7447)"/>
<path d="M26.9096 6.09339C26.8628 6.17394 26.7993 6.24594 26.7251 6.30324C26.6508 6.35409 26.5617 6.37959 26.4705 6.37539C26.3667 6.37119 26.267 6.34134 26.178 6.29049L25.8218 6.09549C25.6754 6.01914 25.5249 5.95554 25.368 5.90469C25.1814 5.84529 24.9842 5.81559 24.7892 5.81979C24.4901 5.79639 24.1911 5.88129 23.9495 6.05934C23.7629 6.22479 23.661 6.46869 23.6759 6.71889C23.6717 6.87579 23.7311 7.02624 23.8413 7.14084C23.9664 7.26594 24.1148 7.36554 24.276 7.43769C24.4775 7.52679 24.6831 7.60299 24.8952 7.66449C25.1262 7.73454 25.3595 7.81299 25.6034 7.89774C25.845 7.98054 26.0826 8.08014 26.3115 8.19459C26.5385 8.30709 26.7462 8.45334 26.9265 8.63154C27.1131 8.82009 27.2615 9.04284 27.3612 9.29094C27.4799 9.58344 27.5372 9.89739 27.5286 10.2133C27.5307 10.5971 27.4608 10.9766 27.3209 11.3329C27.1872 11.6743 26.9816 11.986 26.7186 12.2425C26.441 12.5096 26.1122 12.7153 25.7517 12.8489C25.3298 13.0037 24.8846 13.078 24.435 13.0694C24.1593 13.0694 23.8859 13.0418 23.6144 12.9868C23.3388 12.9316 23.0673 12.8531 22.8044 12.7535C22.55 12.6559 22.304 12.5351 22.0707 12.3952C21.8544 12.2659 21.653 12.1111 21.4707 11.935L22.0623 10.9978C22.1132 10.93 22.1768 10.8748 22.2489 10.8325C22.3253 10.7857 22.41 10.7624 22.4991 10.7624C22.6263 10.7666 22.7514 10.8049 22.8575 10.8748L23.2667 11.125C23.4342 11.2247 23.6102 11.3074 23.7926 11.3752C24.0173 11.4536 24.2526 11.494 24.4901 11.4898C24.7913 11.5067 25.0902 11.422 25.3362 11.2502C25.5525 11.0593 25.6649 10.7773 25.6394 10.489C25.6457 10.3087 25.5885 10.1348 25.4739 9.99489C25.3532 9.85704 25.2047 9.74469 25.0394 9.66624C24.8421 9.57924 24.6386 9.50934 24.4307 9.45624C24.2039 9.39489 23.9664 9.32484 23.7269 9.24639C23.4851 9.17004 23.2497 9.07464 23.0228 8.96229C22.7918 8.85414 22.5818 8.70774 22.4015 8.52759C22.215 8.32824 22.0665 8.09499 21.9669 7.84059C21.846 7.51194 21.7887 7.16409 21.7994 6.81429C21.7994 6.14214 22.0814 5.50164 22.5732 5.04369C22.8426 4.79349 23.1564 4.59639 23.502 4.46694C23.9049 4.31649 24.3332 4.24224 24.7637 4.25064C25.0223 4.25064 25.281 4.26984 25.5377 4.31214C25.7814 4.35039 26.0211 4.41189 26.2521 4.49664C26.4705 4.57299 26.6805 4.67049 26.882 4.78719C27.0686 4.89534 27.2403 5.02254 27.3993 5.16894L26.9117 6.09969L26.9096 6.09339Z" fill="#2E2E2E"/>
<path d="M26.9096 6.09339C26.8628 6.17394 26.7993 6.24594 26.7251 6.30324C26.6508 6.35409 26.5617 6.37959 26.4705 6.37539C26.3667 6.37119 26.267 6.34134 26.178 6.29049L25.8218 6.09549C25.6754 6.01914 25.5249 5.95554 25.368 5.90469C25.1814 5.84529 24.9842 5.81559 24.7892 5.81979C24.4901 5.79639 24.1911 5.88129 23.9495 6.05934C23.7629 6.22479 23.661 6.46869 23.6759 6.71889C23.6717 6.87579 23.7311 7.02624 23.8413 7.14084C23.9664 7.26594 24.1148 7.36554 24.276 7.43769C24.4775 7.52679 24.6831 7.60299 24.8952 7.66449C25.1262 7.73454 25.3595 7.81299 25.6034 7.89774C25.845 7.98054 26.0826 8.08014 26.3115 8.19459C26.5385 8.30709 26.7462 8.45334 26.9265 8.63154C27.1131 8.82009 27.2615 9.04284 27.3612 9.29094C27.4799 9.58344 27.5372 9.89739 27.5286 10.2133C27.5307 10.5971 27.4608 10.9766 27.3209 11.3329C27.1872 11.6743 26.9816 11.986 26.7186 12.2425C26.441 12.5096 26.1122 12.7153 25.7517 12.8489C25.3298 13.0037 24.8846 13.078 24.435 13.0694C24.1593 13.0694 23.8859 13.0418 23.6144 12.9868C23.3388 12.9316 23.0673 12.8531 22.8044 12.7535C22.55 12.6559 22.304 12.5351 22.0707 12.3952C21.8544 12.2659 21.653 12.1111 21.4707 11.935L22.0623 10.9978C22.1132 10.93 22.1768 10.8748 22.2489 10.8325C22.3253 10.7857 22.41 10.7624 22.4991 10.7624C22.6263 10.7666 22.7514 10.8049 22.8575 10.8748L23.2667 11.125C23.4342 11.2247 23.6102 11.3074 23.7926 11.3752C24.0173 11.4536 24.2526 11.494 24.4901 11.4898C24.7913 11.5067 25.0902 11.422 25.3362 11.2502C25.5525 11.0593 25.6649 10.7773 25.6394 10.489C25.6457 10.3087 25.5885 10.1348 25.4739 9.99489C25.3532 9.85704 25.2047 9.74469 25.0394 9.66624C24.8421 9.57924 24.6386 9.50934 24.4307 9.45624C24.2039 9.39489 23.9664 9.32484 23.7269 9.24639C23.4851 9.17004 23.2497 9.07464 23.0228 8.96229C22.7918 8.85414 22.5818 8.70774 22.4015 8.52759C22.215 8.32824 22.0665 8.09499 21.9669 7.84059C21.846 7.51194 21.7887 7.16409 21.7994 6.81429C21.7994 6.14214 22.0814 5.50164 22.5732 5.04369C22.8426 4.79349 23.1564 4.59639 23.502 4.46694C23.9049 4.31649 24.3332 4.24224 24.7637 4.25064C25.0223 4.25064 25.281 4.26984 25.5377 4.31214C25.7814 4.35039 26.0211 4.41189 26.2521 4.49664C26.4705 4.57299 26.6805 4.67049 26.882 4.78719C27.0686 4.89534 27.2403 5.02254 27.3993 5.16894L26.9117 6.09969L26.9096 6.09339Z" fill="url(#paint36_linear_2344_7447)"/>
<path d="M28.2345 12.9746V4.34461H31.4109C31.922 4.33606 32.4329 4.39126 32.9312 4.50991C33.3002 4.59901 33.65 4.75801 33.9575 4.97641C34.2119 5.16721 34.4091 5.42176 34.5342 5.71441C34.6593 6.01966 34.7208 6.34831 34.7144 6.67906C34.7187 6.86791 34.6932 7.05661 34.6382 7.23886C34.5809 7.42126 34.4939 7.59301 34.3773 7.74571C34.2501 7.91326 34.0953 8.05741 33.9192 8.17396C33.7136 8.31181 33.4931 8.42206 33.2598 8.50261C33.737 8.58961 34.178 8.81866 34.5215 9.16216C34.8014 9.49501 34.9476 9.92116 34.9307 10.358C34.935 10.7121 34.8629 11.0621 34.7166 11.3843C34.5723 11.7024 34.3581 11.9865 34.091 12.2112C33.7922 12.4593 33.4485 12.6459 33.0776 12.7604C32.6301 12.8982 32.1636 12.9662 31.695 12.9576L28.2324 12.9767L28.2345 12.9746ZM30.2361 7.97476H31.2794C31.4808 7.97476 31.6802 7.95991 31.8795 7.92811C32.0406 7.90261 32.1975 7.84531 32.3375 7.76056C32.4626 7.68001 32.5623 7.56541 32.6238 7.43191C32.6958 7.26856 32.7276 7.09051 32.7234 6.91231C32.7276 6.73846 32.7021 6.56461 32.645 6.39916C32.5983 6.26986 32.5155 6.15541 32.4074 6.07066C32.2887 5.98366 32.153 5.92426 32.0088 5.89666C31.8158 5.86066 31.6208 5.84161 31.4258 5.84371H30.2384V7.97686L30.2361 7.97476ZM30.2361 9.31486V11.4648H31.6484C31.871 11.4734 32.0958 11.4395 32.3078 11.3652C32.4563 11.31 32.5898 11.2211 32.7 11.1044C32.7933 11.0006 32.8613 10.8776 32.8973 10.7418C32.9333 10.6083 32.9502 10.4705 32.9502 10.3326C32.9525 10.1885 32.9312 10.0421 32.8887 9.90421C32.8506 9.77701 32.7764 9.66256 32.6747 9.57556C32.558 9.48016 32.4224 9.41026 32.276 9.37411C32.0703 9.32116 31.8582 9.29566 31.6463 9.30211L30.2384 9.31261L30.2361 9.31486Z" fill="#2E2E2E"/>
<path d="M28.2345 12.9746V4.34461H31.4109C31.922 4.33606 32.4329 4.39126 32.9312 4.50991C33.3002 4.59901 33.65 4.75801 33.9575 4.97641C34.2119 5.16721 34.4091 5.42176 34.5342 5.71441C34.6593 6.01966 34.7208 6.34831 34.7144 6.67906C34.7187 6.86791 34.6932 7.05661 34.6382 7.23886C34.5809 7.42126 34.4939 7.59301 34.3773 7.74571C34.2501 7.91326 34.0953 8.05741 33.9192 8.17396C33.7136 8.31181 33.4931 8.42206 33.2598 8.50261C33.737 8.58961 34.178 8.81866 34.5215 9.16216C34.8014 9.49501 34.9476 9.92116 34.9307 10.358C34.935 10.7121 34.8629 11.0621 34.7166 11.3843C34.5723 11.7024 34.3581 11.9865 34.091 12.2112C33.7922 12.4593 33.4485 12.6459 33.0776 12.7604C32.6301 12.8982 32.1636 12.9662 31.695 12.9576L28.2324 12.9767L28.2345 12.9746ZM30.2361 7.97476H31.2794C31.4808 7.97476 31.6802 7.95991 31.8795 7.92811C32.0406 7.90261 32.1975 7.84531 32.3375 7.76056C32.4626 7.68001 32.5623 7.56541 32.6238 7.43191C32.6958 7.26856 32.7276 7.09051 32.7234 6.91231C32.7276 6.73846 32.7021 6.56461 32.645 6.39916C32.5983 6.26986 32.5155 6.15541 32.4074 6.07066C32.2887 5.98366 32.153 5.92426 32.0088 5.89666C31.8158 5.86066 31.6208 5.84161 31.4258 5.84371H30.2384V7.97686L30.2361 7.97476ZM30.2361 9.31486V11.4648H31.6484C31.871 11.4734 32.0958 11.4395 32.3078 11.3652C32.4563 11.31 32.5898 11.2211 32.7 11.1044C32.7933 11.0006 32.8613 10.8776 32.8973 10.7418C32.9333 10.6083 32.9502 10.4705 32.9502 10.3326C32.9525 10.1885 32.9312 10.0421 32.8887 9.90421C32.8506 9.77701 32.7764 9.66256 32.6747 9.57556C32.558 9.48016 32.4224 9.41026 32.276 9.37411C32.0703 9.32116 31.8582 9.29566 31.6463 9.30211L30.2384 9.31261L30.2361 9.31486Z" fill="url(#paint37_linear_2344_7447)"/>
<path d="M41.7495 10.7492C41.7983 10.7492 41.8491 10.7577 41.8937 10.7747C41.9445 10.796 41.9912 10.8278 42.0294 10.8659L42.8223 11.7014C42.4788 12.1508 42.0251 12.5049 41.5056 12.7275C40.9182 12.9714 40.2843 13.0881 39.6482 13.0733C39.0438 13.0838 38.4459 12.9714 37.8861 12.7446C37.3878 12.5325 36.9383 12.2166 36.5694 11.82C36.2004 11.415 35.9184 10.938 35.736 10.4207C35.5388 9.8565 35.4392 9.26071 35.4456 8.66281C35.4434 8.05636 35.5559 7.45425 35.7743 6.888C35.9651 6.36645 36.264 5.8914 36.6458 5.4885C37.0316 5.09415 37.496 4.78456 38.0091 4.57891C38.5647 4.35421 39.1584 4.24396 39.7563 4.25026C40.0638 4.25026 40.3691 4.27785 40.6724 4.335C40.9479 4.3902 41.2173 4.47076 41.4759 4.57891C41.7156 4.67641 41.9468 4.79941 42.1608 4.94356C42.3623 5.07931 42.5489 5.23201 42.7206 5.40376L42.0422 6.30496C41.9976 6.36001 41.9468 6.41101 41.8916 6.45541C41.8173 6.50206 41.7305 6.52546 41.6414 6.52126C41.5713 6.52126 41.5035 6.5064 41.4399 6.47445L41.2385 6.36001L41.0052 6.22216C40.9098 6.16291 40.808 6.11191 40.7021 6.07381C40.5705 6.02296 40.4327 5.9847 40.2927 5.9592C40.1126 5.919 39.9281 5.8956 39.7436 5.8935C39.4319 5.8893 39.1224 5.95291 38.834 6.07801C38.5583 6.20101 38.3166 6.38341 38.1236 6.61456C37.9116 6.86896 37.7547 7.1637 37.6593 7.4796C37.5468 7.8591 37.4918 8.2536 37.4981 8.64795C37.4895 9.05295 37.5491 9.45795 37.6784 9.8439C37.7823 10.164 37.9497 10.4588 38.1681 10.7132C38.3675 10.9443 38.6156 11.1267 38.8955 11.2497C39.1754 11.3727 39.4785 11.4363 39.7839 11.4342C39.9492 11.4342 40.1168 11.4257 40.2801 11.4087C40.4222 11.3897 40.5642 11.36 40.7021 11.3196C40.8293 11.2772 40.9523 11.22 41.0667 11.1522C41.1918 11.0759 41.3085 10.9889 41.4167 10.8893C41.4632 10.851 41.5163 10.8171 41.5713 10.7895C41.6244 10.7642 41.6838 10.7472 41.7431 10.7429L41.7495 10.7492Z" fill="#2E2E2E"/>
<path d="M41.7495 10.7492C41.7983 10.7492 41.8491 10.7577 41.8937 10.7747C41.9445 10.796 41.9912 10.8278 42.0294 10.8659L42.8223 11.7014C42.4788 12.1508 42.0251 12.5049 41.5056 12.7275C40.9182 12.9714 40.2843 13.0881 39.6482 13.0733C39.0438 13.0838 38.4459 12.9714 37.8861 12.7446C37.3878 12.5325 36.9383 12.2166 36.5694 11.82C36.2004 11.415 35.9184 10.938 35.736 10.4207C35.5388 9.8565 35.4392 9.26071 35.4456 8.66281C35.4434 8.05636 35.5559 7.45425 35.7743 6.888C35.9651 6.36645 36.264 5.8914 36.6458 5.4885C37.0316 5.09415 37.496 4.78456 38.0091 4.57891C38.5647 4.35421 39.1584 4.24396 39.7563 4.25026C40.0638 4.25026 40.3691 4.27785 40.6724 4.335C40.9479 4.3902 41.2173 4.47076 41.4759 4.57891C41.7156 4.67641 41.9468 4.79941 42.1608 4.94356C42.3623 5.07931 42.5489 5.23201 42.7206 5.40376L42.0422 6.30496C41.9976 6.36001 41.9468 6.41101 41.8916 6.45541C41.8173 6.50206 41.7305 6.52546 41.6414 6.52126C41.5713 6.52126 41.5035 6.5064 41.4399 6.47445L41.2385 6.36001L41.0052 6.22216C40.9098 6.16291 40.808 6.11191 40.7021 6.07381C40.5705 6.02296 40.4327 5.9847 40.2927 5.9592C40.1126 5.919 39.9281 5.8956 39.7436 5.8935C39.4319 5.8893 39.1224 5.95291 38.834 6.07801C38.5583 6.20101 38.3166 6.38341 38.1236 6.61456C37.9116 6.86896 37.7547 7.1637 37.6593 7.4796C37.5468 7.8591 37.4918 8.2536 37.4981 8.64795C37.4895 9.05295 37.5491 9.45795 37.6784 9.8439C37.7823 10.164 37.9497 10.4588 38.1681 10.7132C38.3675 10.9443 38.6156 11.1267 38.8955 11.2497C39.1754 11.3727 39.4785 11.4363 39.7839 11.4342C39.9492 11.4342 40.1168 11.4257 40.2801 11.4087C40.4222 11.3897 40.5642 11.36 40.7021 11.3196C40.8293 11.2772 40.9523 11.22 41.0667 11.1522C41.1918 11.0759 41.3085 10.9889 41.4167 10.8893C41.4632 10.851 41.5163 10.8171 41.5713 10.7895C41.6244 10.7642 41.6838 10.7472 41.7431 10.7429L41.7495 10.7492Z" fill="url(#paint38_linear_2344_7447)"/>
</g>
<defs>
<linearGradient id="paint0_linear_2344_7447" x1="58.2791" y1="24.2915" x2="58.2791" y2="-5.23846" gradientUnits="userSpaceOnUse">
<stop stop-color="#D28B0F"/>
<stop offset="0.14" stop-color="#D38E13"/>
<stop offset="0.3" stop-color="#D79722"/>
<stop offset="0.47" stop-color="#DEA739"/>
<stop offset="0.66" stop-color="#E7BC5B"/>
<stop offset="0.84" stop-color="#F3D885"/>
<stop offset="1" stop-color="#FFF3AE"/>
</linearGradient>
<linearGradient id="paint1_linear_2344_7447" x1="56.3876" y1="2.48616" x2="56.3876" y2="-5.25579" gradientUnits="userSpaceOnUse">
<stop stop-color="#D28B0F"/>
<stop offset="0.14" stop-color="#D38E13"/>
<stop offset="0.3" stop-color="#D79722"/>
<stop offset="0.47" stop-color="#DEA739"/>
<stop offset="0.66" stop-color="#E7BC5B"/>
<stop offset="0.84" stop-color="#F3D885"/>
<stop offset="1" stop-color="#FFF3AE"/>
</linearGradient>
<linearGradient id="paint2_linear_2344_7447" x1="60.1551" y1="24.2833" x2="60.1551" y2="-5.24678" gradientUnits="userSpaceOnUse">
<stop stop-color="#D28B0F"/>
<stop offset="0.14" stop-color="#D38E13"/>
<stop offset="0.3" stop-color="#D79722"/>
<stop offset="0.47" stop-color="#DEA739"/>
<stop offset="0.66" stop-color="#E7BC5B"/>
<stop offset="0.84" stop-color="#F3D885"/>
<stop offset="1" stop-color="#FFF3AE"/>
</linearGradient>
<linearGradient id="paint3_linear_2344_7447" x1="57.9644" y1="24.2712" x2="57.9644" y2="-5.25882" gradientUnits="userSpaceOnUse">
<stop stop-color="#D28B0F"/>
<stop offset="0.14" stop-color="#D38E13"/>
<stop offset="0.3" stop-color="#D79722"/>
<stop offset="0.47" stop-color="#DEA739"/>
<stop offset="0.66" stop-color="#E7BC5B"/>
<stop offset="0.84" stop-color="#F3D885"/>
<stop offset="1" stop-color="#FFF3AE"/>
</linearGradient>
<linearGradient id="paint4_linear_2344_7447" x1="61.4536" y1="24.2632" x2="61.4536" y2="-5.26683" gradientUnits="userSpaceOnUse">
<stop stop-color="#D28B0F"/>
<stop offset="0.14" stop-color="#D38E13"/>
<stop offset="0.3" stop-color="#D79722"/>
<stop offset="0.47" stop-color="#DEA739"/>
<stop offset="0.66" stop-color="#E7BC5B"/>
<stop offset="0.84" stop-color="#F3D885"/>
<stop offset="1" stop-color="#FFF3AE"/>
</linearGradient>
<linearGradient id="paint5_linear_2344_7447" x1="59.0414" y1="24.2947" x2="59.0414" y2="-5.23534" gradientUnits="userSpaceOnUse">
<stop stop-color="#D28B0F"/>
<stop offset="0.14" stop-color="#D38E13"/>
<stop offset="0.3" stop-color="#D79722"/>
<stop offset="0.47" stop-color="#DEA739"/>
<stop offset="0.66" stop-color="#E7BC5B"/>
<stop offset="0.84" stop-color="#F3D885"/>
<stop offset="1" stop-color="#FFF3AE"/>
</linearGradient>
<linearGradient id="paint6_linear_2344_7447" x1="62.1135" y1="24.2738" x2="62.1135" y2="-5.25612" gradientUnits="userSpaceOnUse">
<stop stop-color="#D28B0F"/>
<stop offset="0.14" stop-color="#D38E13"/>
<stop offset="0.3" stop-color="#D79722"/>
<stop offset="0.47" stop-color="#DEA739"/>
<stop offset="0.66" stop-color="#E7BC5B"/>
<stop offset="0.84" stop-color="#F3D885"/>
<stop offset="1" stop-color="#FFF3AE"/>
</linearGradient>
<linearGradient id="paint7_linear_2344_7447" x1="59.607" y1="24.2964" x2="59.607" y2="-5.2336" gradientUnits="userSpaceOnUse">
<stop stop-color="#D28B0F"/>
<stop offset="0.14" stop-color="#D38E13"/>
<stop offset="0.3" stop-color="#D79722"/>
<stop offset="0.47" stop-color="#DEA739"/>
<stop offset="0.66" stop-color="#E7BC5B"/>
<stop offset="0.84" stop-color="#F3D885"/>
<stop offset="1" stop-color="#FFF3AE"/>
</linearGradient>
<linearGradient id="paint8_linear_2344_7447" x1="62.1147" y1="24.2951" x2="62.1147" y2="-5.23488" gradientUnits="userSpaceOnUse">
<stop stop-color="#D28B0F"/>
<stop offset="0.14" stop-color="#D38E13"/>
<stop offset="0.3" stop-color="#D79722"/>
<stop offset="0.47" stop-color="#DEA739"/>
<stop offset="0.66" stop-color="#E7BC5B"/>
<stop offset="0.84" stop-color="#F3D885"/>
<stop offset="1" stop-color="#FFF3AE"/>
</linearGradient>
<linearGradient id="paint9_linear_2344_7447" x1="59.6106" y1="24.2841" x2="59.6106" y2="-5.24579" gradientUnits="userSpaceOnUse">
<stop stop-color="#D28B0F"/>
<stop offset="0.14" stop-color="#D38E13"/>
<stop offset="0.3" stop-color="#D79722"/>
<stop offset="0.47" stop-color="#DEA739"/>
<stop offset="0.66" stop-color="#E7BC5B"/>
<stop offset="0.84" stop-color="#F3D885"/>
<stop offset="1" stop-color="#FFF3AE"/>
</linearGradient>
<linearGradient id="paint10_linear_2344_7447" x1="61.4556" y1="24.2711" x2="61.4556" y2="-5.25879" gradientUnits="userSpaceOnUse">
<stop stop-color="#D28B0F"/>
<stop offset="0.14" stop-color="#D38E13"/>
<stop offset="0.3" stop-color="#D79722"/>
<stop offset="0.47" stop-color="#DEA739"/>
<stop offset="0.66" stop-color="#E7BC5B"/>
<stop offset="0.84" stop-color="#F3D885"/>
<stop offset="1" stop-color="#FFF3AE"/>
</linearGradient>
<linearGradient id="paint11_linear_2344_7447" x1="59.0511" y1="24.2864" x2="59.0511" y2="-5.24362" gradientUnits="userSpaceOnUse">
<stop stop-color="#D28B0F"/>
<stop offset="0.14" stop-color="#D38E13"/>
<stop offset="0.3" stop-color="#D79722"/>
<stop offset="0.47" stop-color="#DEA739"/>
<stop offset="0.66" stop-color="#E7BC5B"/>
<stop offset="0.84" stop-color="#F3D885"/>
<stop offset="1" stop-color="#FFF3AE"/>
</linearGradient>
<linearGradient id="paint12_linear_2344_7447" x1="60.1496" y1="24.2748" x2="60.1496" y2="-5.25512" gradientUnits="userSpaceOnUse">
<stop stop-color="#D28B0F"/>
<stop offset="0.14" stop-color="#D38E13"/>
<stop offset="0.3" stop-color="#D79722"/>
<stop offset="0.47" stop-color="#DEA739"/>
<stop offset="0.66" stop-color="#E7BC5B"/>
<stop offset="0.84" stop-color="#F3D885"/>
<stop offset="1" stop-color="#FFF3AE"/>
</linearGradient>
<linearGradient id="paint13_linear_2344_7447" x1="57.9703" y1="24.2777" x2="57.9703" y2="-5.25232" gradientUnits="userSpaceOnUse">
<stop stop-color="#D28B0F"/>
<stop offset="0.14" stop-color="#D38E13"/>
<stop offset="0.3" stop-color="#D79722"/>
<stop offset="0.47" stop-color="#DEA739"/>
<stop offset="0.66" stop-color="#E7BC5B"/>
<stop offset="0.84" stop-color="#F3D885"/>
<stop offset="1" stop-color="#FFF3AE"/>
</linearGradient>
<linearGradient id="paint14_linear_2344_7447" x1="57.4417" y1="24.2803" x2="57.4417" y2="-5.24969" gradientUnits="userSpaceOnUse">
<stop stop-color="#D28B0F"/>
<stop offset="0.14" stop-color="#D38E13"/>
<stop offset="0.3" stop-color="#D79722"/>
<stop offset="0.47" stop-color="#DEA739"/>
<stop offset="0.66" stop-color="#E7BC5B"/>
<stop offset="0.84" stop-color="#F3D885"/>
<stop offset="1" stop-color="#FFF3AE"/>
</linearGradient>
<linearGradient id="paint15_linear_2344_7447" x1="5.73565" y1="24.2915" x2="5.73565" y2="-5.23846" gradientUnits="userSpaceOnUse">
<stop stop-color="#D28B0F"/>
<stop offset="0.14" stop-color="#D38E13"/>
<stop offset="0.3" stop-color="#D79722"/>
<stop offset="0.47" stop-color="#DEA739"/>
<stop offset="0.66" stop-color="#E7BC5B"/>
<stop offset="0.84" stop-color="#F3D885"/>
<stop offset="1" stop-color="#FFF3AE"/>
</linearGradient>
<linearGradient id="paint16_linear_2344_7447" x1="7.62006" y1="24.2741" x2="7.62006" y2="-5.25579" gradientUnits="userSpaceOnUse">
<stop stop-color="#D28B0F"/>
<stop offset="0.14" stop-color="#D38E13"/>
<stop offset="0.3" stop-color="#D79722"/>
<stop offset="0.47" stop-color="#DEA739"/>
<stop offset="0.66" stop-color="#E7BC5B"/>
<stop offset="0.84" stop-color="#F3D885"/>
<stop offset="1" stop-color="#FFF3AE"/>
</linearGradient>
<linearGradient id="paint17_linear_2344_7447" x1="3.85012" y1="24.2833" x2="3.85012" y2="-5.24678" gradientUnits="userSpaceOnUse">
<stop stop-color="#D28B0F"/>
<stop offset="0.14" stop-color="#D38E13"/>
<stop offset="0.3" stop-color="#D79722"/>
<stop offset="0.47" stop-color="#DEA739"/>
<stop offset="0.66" stop-color="#E7BC5B"/>
<stop offset="0.84" stop-color="#F3D885"/>
<stop offset="1" stop-color="#FFF3AE"/>
</linearGradient>
<linearGradient id="paint18_linear_2344_7447" x1="6.05324" y1="24.2712" x2="6.05324" y2="-5.25882" gradientUnits="userSpaceOnUse">
<stop stop-color="#D28B0F"/>
<stop offset="0.14" stop-color="#D38E13"/>
<stop offset="0.3" stop-color="#D79722"/>
<stop offset="0.47" stop-color="#DEA739"/>
<stop offset="0.66" stop-color="#E7BC5B"/>
<stop offset="0.84" stop-color="#F3D885"/>
<stop offset="1" stop-color="#FFF3AE"/>
</linearGradient>
<linearGradient id="paint19_linear_2344_7447" x1="2.56355" y1="24.2632" x2="2.56355" y2="-5.26683" gradientUnits="userSpaceOnUse">
<stop stop-color="#D28B0F"/>
<stop offset="0.14" stop-color="#D38E13"/>
<stop offset="0.3" stop-color="#D79722"/>
<stop offset="0.47" stop-color="#DEA739"/>
<stop offset="0.66" stop-color="#E7BC5B"/>
<stop offset="0.84" stop-color="#F3D885"/>
<stop offset="1" stop-color="#FFF3AE"/>
</linearGradient>
<linearGradient id="paint20_linear_2344_7447" x1="4.96307" y1="24.2947" x2="4.96307" y2="-5.23534" gradientUnits="userSpaceOnUse">
<stop stop-color="#D28B0F"/>
<stop offset="0.14" stop-color="#D38E13"/>
<stop offset="0.3" stop-color="#D79722"/>
<stop offset="0.47" stop-color="#DEA739"/>
<stop offset="0.66" stop-color="#E7BC5B"/>
<stop offset="0.84" stop-color="#F3D885"/>
<stop offset="1" stop-color="#FFF3AE"/>
</linearGradient>
<linearGradient id="paint21_linear_2344_7447" x1="1.89015" y1="24.2738" x2="1.89015" y2="-5.25612" gradientUnits="userSpaceOnUse">
<stop stop-color="#D28B0F"/>
<stop offset="0.14" stop-color="#D38E13"/>
<stop offset="0.3" stop-color="#D79722"/>
<stop offset="0.47" stop-color="#DEA739"/>
<stop offset="0.66" stop-color="#E7BC5B"/>
<stop offset="0.84" stop-color="#F3D885"/>
<stop offset="1" stop-color="#FFF3AE"/>
</linearGradient>
<linearGradient id="paint22_linear_2344_7447" x1="4.41721" y1="24.2964" x2="4.41721" y2="-5.2336" gradientUnits="userSpaceOnUse">
<stop stop-color="#D28B0F"/>
<stop offset="0.14" stop-color="#D38E13"/>
<stop offset="0.3" stop-color="#D79722"/>
<stop offset="0.47" stop-color="#DEA739"/>
<stop offset="0.66" stop-color="#E7BC5B"/>
<stop offset="0.84" stop-color="#F3D885"/>
<stop offset="1" stop-color="#FFF3AE"/>
</linearGradient>
<linearGradient id="paint23_linear_2344_7447" x1="1.89769" y1="24.2951" x2="1.89769" y2="-5.23488" gradientUnits="userSpaceOnUse">
<stop stop-color="#D28B0F"/>
<stop offset="0.14" stop-color="#D38E13"/>
<stop offset="0.3" stop-color="#D79722"/>
<stop offset="0.47" stop-color="#DEA739"/>
<stop offset="0.66" stop-color="#E7BC5B"/>
<stop offset="0.84" stop-color="#F3D885"/>
<stop offset="1" stop-color="#FFF3AE"/>
</linearGradient>
<linearGradient id="paint24_linear_2344_7447" x1="4.40967" y1="24.2841" x2="4.40967" y2="-5.24579" gradientUnits="userSpaceOnUse">
<stop stop-color="#D28B0F"/>
<stop offset="0.14" stop-color="#D38E13"/>
<stop offset="0.3" stop-color="#D79722"/>
<stop offset="0.47" stop-color="#DEA739"/>
<stop offset="0.66" stop-color="#E7BC5B"/>
<stop offset="0.84" stop-color="#F3D885"/>
<stop offset="1" stop-color="#FFF3AE"/>
</linearGradient>
<linearGradient id="paint25_linear_2344_7447" x1="2.54877" y1="24.2711" x2="2.54877" y2="-5.25879" gradientUnits="userSpaceOnUse">
<stop stop-color="#D28B0F"/>
<stop offset="0.14" stop-color="#D38E13"/>
<stop offset="0.3" stop-color="#D79722"/>
<stop offset="0.47" stop-color="#DEA739"/>
<stop offset="0.66" stop-color="#E7BC5B"/>
<stop offset="0.84" stop-color="#F3D885"/>
<stop offset="1" stop-color="#FFF3AE"/>
</linearGradient>
<linearGradient id="paint26_linear_2344_7447" x1="4.95418" y1="24.2864" x2="4.95418" y2="-5.24362" gradientUnits="userSpaceOnUse">
<stop stop-color="#D28B0F"/>
<stop offset="0.14" stop-color="#D38E13"/>
<stop offset="0.3" stop-color="#D79722"/>
<stop offset="0.47" stop-color="#DEA739"/>
<stop offset="0.66" stop-color="#E7BC5B"/>
<stop offset="0.84" stop-color="#F3D885"/>
<stop offset="1" stop-color="#FFF3AE"/>
</linearGradient>
<linearGradient id="paint27_linear_2344_7447" x1="3.85598" y1="24.2748" x2="3.85598" y2="-5.25512" gradientUnits="userSpaceOnUse">
<stop stop-color="#D28B0F"/>
<stop offset="0.14" stop-color="#D38E13"/>
<stop offset="0.3" stop-color="#D79722"/>
<stop offset="0.47" stop-color="#DEA739"/>
<stop offset="0.66" stop-color="#E7BC5B"/>
<stop offset="0.84" stop-color="#F3D885"/>
<stop offset="1" stop-color="#FFF3AE"/>
</linearGradient>
<linearGradient id="paint28_linear_2344_7447" x1="6.05324" y1="24.2777" x2="6.05324" y2="-5.25232" gradientUnits="userSpaceOnUse">
<stop stop-color="#D28B0F"/>
<stop offset="0.14" stop-color="#D38E13"/>
<stop offset="0.3" stop-color="#D79722"/>
<stop offset="0.47" stop-color="#DEA739"/>
<stop offset="0.66" stop-color="#E7BC5B"/>
<stop offset="0.84" stop-color="#F3D885"/>
<stop offset="1" stop-color="#FFF3AE"/>
</linearGradient>
<linearGradient id="paint29_linear_2344_7447" x1="6.57644" y1="24.2803" x2="6.57644" y2="-5.24969" gradientUnits="userSpaceOnUse">
<stop stop-color="#D28B0F"/>
<stop offset="0.14" stop-color="#D38E13"/>
<stop offset="0.3" stop-color="#D79722"/>
<stop offset="0.47" stop-color="#DEA739"/>
<stop offset="0.66" stop-color="#E7BC5B"/>
<stop offset="0.84" stop-color="#F3D885"/>
<stop offset="1" stop-color="#FFF3AE"/>
</linearGradient>
<linearGradient id="paint30_linear_2344_7447" x1="14.7244" y1="26.8234" x2="14.7244" y2="5.43146" gradientUnits="userSpaceOnUse">
<stop stop-color="#D28B0F"/>
<stop offset="0.14" stop-color="#D38E13"/>
<stop offset="0.3" stop-color="#D79722"/>
<stop offset="0.47" stop-color="#DEA739"/>
<stop offset="0.66" stop-color="#E7BC5B"/>
<stop offset="0.84" stop-color="#F3D885"/>
<stop offset="1" stop-color="#FFF3AE"/>
</linearGradient>
<linearGradient id="paint31_linear_2344_7447" x1="22.4507" y1="26.8235" x2="22.4507" y2="5.43152" gradientUnits="userSpaceOnUse">
<stop stop-color="#D28B0F"/>
<stop offset="0.14" stop-color="#D38E13"/>
<stop offset="0.3" stop-color="#D79722"/>
<stop offset="0.47" stop-color="#DEA739"/>
<stop offset="0.66" stop-color="#E7BC5B"/>
<stop offset="0.84" stop-color="#F3D885"/>
<stop offset="1" stop-color="#FFF3AE"/>
</linearGradient>
<linearGradient id="paint32_linear_2344_7447" x1="30.1697" y1="26.8234" x2="30.1697" y2="5.43146" gradientUnits="userSpaceOnUse">
<stop stop-color="#D28B0F"/>
<stop offset="0.14" stop-color="#D38E13"/>
<stop offset="0.3" stop-color="#D79722"/>
<stop offset="0.47" stop-color="#DEA739"/>
<stop offset="0.66" stop-color="#E7BC5B"/>
<stop offset="0.84" stop-color="#F3D885"/>
<stop offset="1" stop-color="#FFF3AE"/>
</linearGradient>
<linearGradient id="paint33_linear_2344_7447" x1="37.4866" y1="26.8226" x2="37.4866" y2="5.43062" gradientUnits="userSpaceOnUse">
<stop stop-color="#D28B0F"/>
<stop offset="0.14" stop-color="#D38E13"/>
<stop offset="0.3" stop-color="#D79722"/>
<stop offset="0.47" stop-color="#DEA739"/>
<stop offset="0.66" stop-color="#E7BC5B"/>
<stop offset="0.84" stop-color="#F3D885"/>
<stop offset="1" stop-color="#FFF3AE"/>
</linearGradient>
<linearGradient id="paint34_linear_2344_7447" x1="44.2654" y1="26.822" x2="44.2654" y2="5.43004" gradientUnits="userSpaceOnUse">
<stop stop-color="#D28B0F"/>
<stop offset="0.14" stop-color="#D38E13"/>
<stop offset="0.3" stop-color="#D79722"/>
<stop offset="0.47" stop-color="#DEA739"/>
<stop offset="0.66" stop-color="#E7BC5B"/>
<stop offset="0.84" stop-color="#F3D885"/>
<stop offset="1" stop-color="#FFF3AE"/>
</linearGradient>
<linearGradient id="paint35_linear_2344_7447" x1="50.4114" y1="11.0441" x2="50.4114" y2="5.43595" gradientUnits="userSpaceOnUse">
<stop stop-color="#D28B0F"/>
<stop offset="0.14" stop-color="#D38E13"/>
<stop offset="0.3" stop-color="#D79722"/>
<stop offset="0.47" stop-color="#DEA739"/>
<stop offset="0.66" stop-color="#E7BC5B"/>
<stop offset="0.84" stop-color="#F3D885"/>
<stop offset="1" stop-color="#FFF3AE"/>
</linearGradient>
<linearGradient id="paint36_linear_2344_7447" x1="24.499" y1="18.2266" x2="24.499" y2="-7.40823" gradientUnits="userSpaceOnUse">
<stop stop-color="#D28B0F"/>
<stop offset="0.14" stop-color="#D38E13"/>
<stop offset="0.3" stop-color="#D79722"/>
<stop offset="0.47" stop-color="#DEA739"/>
<stop offset="0.66" stop-color="#E7BC5B"/>
<stop offset="0.84" stop-color="#F3D885"/>
<stop offset="1" stop-color="#FFF3AE"/>
</linearGradient>
<linearGradient id="paint37_linear_2344_7447" x1="31.581" y1="18.0237" x2="31.581" y2="-7.06705" gradientUnits="userSpaceOnUse">
<stop stop-color="#D28B0F"/>
<stop offset="0.14" stop-color="#D38E13"/>
<stop offset="0.3" stop-color="#D79722"/>
<stop offset="0.47" stop-color="#DEA739"/>
<stop offset="0.66" stop-color="#E7BC5B"/>
<stop offset="0.84" stop-color="#F3D885"/>
<stop offset="1" stop-color="#FFF3AE"/>
</linearGradient>
<linearGradient id="paint38_linear_2344_7447" x1="39.1325" y1="18.2336" x2="39.1325" y2="-7.41406" gradientUnits="userSpaceOnUse">
<stop stop-color="#D28B0F"/>
<stop offset="0.14" stop-color="#D38E13"/>
<stop offset="0.3" stop-color="#D79722"/>
<stop offset="0.47" stop-color="#DEA739"/>
<stop offset="0.66" stop-color="#E7BC5B"/>
<stop offset="0.84" stop-color="#F3D885"/>
<stop offset="1" stop-color="#FFF3AE"/>
</linearGradient>
<clipPath id="clip0_2344_7447">
<rect width="63" height="24" fill="white" transform="translate(0.5 0.737793)"/>
</clipPath>
</defs>
</svg>
