<svg width="148" height="49" viewBox="0 0 148 49" fill="none" xmlns="http://www.w3.org/2000/svg">
<path d="M71.8241 16.0344C67.4081 16.0344 63.8241 19.6184 63.8241 24.0344C63.8241 28.4504 67.4081 32.0344 71.8241 32.0344C76.2401 32.0344 79.8241 28.4504 79.8241 24.0344C79.8241 19.6184 76.2401 16.0344 71.8241 16.0344ZM75.5041 25.6344C75.6961 25.8264 75.6961 26.1464 75.5041 26.3384L74.0961 27.7464C73.9041 27.9384 73.5841 27.9384 73.3921 27.7464L71.8241 26.1784L70.2561 27.7464C70.0641 27.9384 69.7441 27.9384 69.5521 27.7464L68.1441 26.3384C67.9521 26.1464 67.9521 25.8264 68.1441 25.6344L69.7121 24.0664L68.1441 22.4984C67.9521 22.3064 67.9521 21.9864 68.1441 21.7944L69.5521 20.3864C69.7441 20.1944 70.0641 20.1944 70.2561 20.3864L71.8241 21.9544L73.3921 20.3864C73.5841 20.1944 73.9041 20.1944 74.0961 20.3864L75.5041 21.7944C75.6961 21.9864 75.6961 22.3064 75.5041 22.4984L73.9361 24.0664L75.5041 25.6344Z" fill="black"/>
<path d="M42.5762 31.6824L39.8882 27.2024C39.7602 27.0104 39.5682 26.8824 39.3442 26.8824H37.9042C37.5522 26.8824 37.2642 27.1704 37.2642 27.5224V31.3304C37.2642 31.6824 36.9762 31.9704 36.6242 31.9704H32.9442C32.5922 31.9704 32.3042 31.6824 32.3042 31.3304V16.7064C32.3042 16.3544 32.5922 16.0664 32.9442 16.0664H42.0962C45.7762 16.0664 47.6322 18.7864 47.6322 21.4744C47.6322 23.3304 46.7682 25.1864 45.0402 26.1784C45.0082 26.2104 44.9762 26.2744 45.0082 26.3064L47.7282 31.0424C47.9842 31.4584 47.6642 32.0024 47.1522 32.0024H43.1202C42.8962 32.0024 42.7042 31.9064 42.5762 31.6824ZM37.2642 23.1384C37.2642 23.1704 37.2962 23.2024 37.3282 23.2024H40.9442C42.1602 23.2024 42.7682 22.3384 42.7682 21.4744C42.7682 20.6104 42.1602 19.7464 40.9442 19.7464H37.9042C37.5522 19.7464 37.2642 20.0344 37.2642 20.3864V23.1384Z" fill="black"/>
<path d="M61.3922 23.8104C61.3602 23.7784 61.3602 23.7784 61.3602 23.7464C61.3602 23.7144 61.3602 23.7144 61.3922 23.6824C62.1602 22.8824 62.6082 21.6024 62.6082 20.3224C62.6082 17.3464 60.6882 16.0344 58.7682 16.0344H49.9682C49.5202 16.0344 49.1682 16.3864 49.1682 16.8344V31.2344C49.1682 31.6824 49.5202 32.0344 49.9682 32.0344H58.7682C61.6802 32.0344 62.9922 29.6664 62.9922 27.4904C62.9922 25.9864 62.3842 24.6424 61.3922 23.8104ZM57.0402 22.7544H53.5842V20.1624C53.5842 19.9064 53.8082 19.6824 54.0642 19.6824H57.0402C58.1602 19.6824 58.6722 20.4504 58.6722 21.2184C58.6722 21.9864 58.1602 22.7544 57.0402 22.7544ZM54.0642 25.5704H57.0402C58.1602 25.5704 58.6722 26.3384 58.6722 27.1064C58.6722 27.8424 58.1602 28.6424 57.0402 28.6424H53.5842V26.0504C53.5842 25.7944 53.8082 25.5704 54.0642 25.5704Z" fill="black"/>
<path d="M12.9442 16.0344H0.752183C0.400183 16.0344 0.112183 16.3224 0.112183 16.6744V20.3224C0.112183 20.6744 0.400183 20.9624 0.752183 20.9624H3.72818C4.08018 20.9624 4.36818 21.2504 4.36818 21.6024V31.3944C4.36818 31.7464 4.65618 32.0344 5.00818 32.0344H8.65618C9.00818 32.0344 9.29618 31.7464 9.29618 31.3944V21.6344C9.29618 21.2824 9.58418 20.9944 9.93618 20.9944H12.9122C13.2642 20.9944 13.5522 20.7064 13.5522 20.3544V16.6744C13.5842 16.3224 13.2962 16.0344 12.9442 16.0344Z" fill="black"/>
<path d="M26.2882 16.0664C25.9362 16.0664 25.6482 16.3544 25.6482 16.7064V26.4984C25.6482 27.1704 25.3922 27.4264 24.6882 27.4264H21.2002C20.4962 27.4264 20.2402 27.1704 20.2402 26.4984V16.7064C20.2402 16.3544 19.9522 16.0664 19.6002 16.0664H15.8242C15.4722 16.0664 15.1842 16.3544 15.1842 16.7064V27.1384C15.1842 28.8344 15.6002 30.0824 16.4002 30.8504C17.2002 31.6504 18.5122 32.0344 20.2402 32.0344H25.5842C27.3122 32.0344 28.6242 31.6184 29.4242 30.8504C30.2242 30.0504 30.6402 28.8024 30.6402 27.1384V16.7064C30.6402 16.3544 30.3522 16.0664 30.0002 16.0664H26.2882Z" fill="black"/>
<path d="M94.6772 25.4425L98.8644 26.7081C98.5832 27.8824 98.1402 28.8633 97.5355 29.6508C96.9308 30.4383 96.1784 31.0324 95.2784 31.4332C94.3854 31.834 93.2463 32.0344 91.8611 32.0344C90.1806 32.0344 88.806 31.7918 87.7372 31.3067C86.6755 30.8145 85.7579 29.9531 84.9844 28.7226C84.2109 27.4921 83.8242 25.9171 83.8242 23.9975C83.8242 21.4381 84.5028 19.4728 85.8598 18.1017C87.2239 16.7235 89.1505 16.0344 91.6396 16.0344C93.5873 16.0344 95.1167 16.4282 96.2276 17.2157C97.3456 18.0032 98.1754 19.2126 98.7168 20.8439L94.4979 21.7826C94.3503 21.3115 94.1956 20.967 94.0338 20.749C93.7666 20.3834 93.4397 20.1021 93.053 19.9052C92.6662 19.7083 92.2338 19.6099 91.7557 19.6099C90.6728 19.6099 89.8431 20.0458 89.2665 20.9177C88.8306 21.5646 88.6126 22.5807 88.6126 23.9659C88.6126 25.6815 88.8728 26.8593 89.3931 27.4992C89.9134 28.132 90.6447 28.4484 91.5869 28.4484C92.501 28.4484 93.1901 28.1918 93.6541 27.6785C94.1253 27.1652 94.4663 26.4198 94.6772 25.4425Z" fill="black"/>
<path d="M101.195 16.2981H105.973V27.9527H113.43V31.7602H101.195V16.2981Z" fill="black"/>
<path d="M125.095 16.2981H129.862V25.5163C129.862 26.4304 129.718 27.2952 129.43 28.1109C129.149 28.9195 128.702 29.6297 128.091 30.2414C127.486 30.8461 126.849 31.2715 126.182 31.5176C125.253 31.8622 124.139 32.0344 122.838 32.0344C122.086 32.0344 121.263 31.9817 120.37 31.8762C119.484 31.7707 118.742 31.5633 118.145 31.2539C117.547 30.9375 116.998 30.491 116.499 29.9145C116.007 29.3379 115.67 28.7437 115.487 28.132C115.191 27.1476 115.044 26.2757 115.044 25.5163V16.2981H119.811V25.7378C119.811 26.5816 120.043 27.2425 120.507 27.7206C120.978 28.1918 121.629 28.4273 122.458 28.4273C123.281 28.4273 123.924 28.1953 124.388 27.7312C124.86 27.2601 125.095 26.5956 125.095 25.7378V16.2981Z" fill="black"/>
<path d="M133.037 16.2981H141.981C143.472 16.2981 144.614 16.6673 145.409 17.4056C146.211 18.1439 146.611 19.0579 146.611 20.1478C146.611 21.0619 146.327 21.8459 145.757 22.4998C145.377 22.9358 144.822 23.2803 144.091 23.5334C145.201 23.8006 146.017 24.2612 146.537 24.9151C147.065 25.562 147.329 26.3776 147.329 27.362C147.329 28.1636 147.142 28.8843 146.77 29.5242C146.397 30.1641 145.887 30.6703 145.24 31.043C144.839 31.275 144.235 31.4438 143.426 31.5493C142.35 31.6899 141.637 31.7602 141.285 31.7602H133.037V16.2981ZM137.857 22.3627H139.935C140.68 22.3627 141.197 22.2361 141.485 21.983C141.781 21.7228 141.928 21.3502 141.928 20.865C141.928 20.415 141.781 20.0634 141.485 19.8103C141.197 19.5572 140.691 19.4306 139.967 19.4306H137.857V22.3627ZM137.857 28.4379H140.294C141.116 28.4379 141.696 28.2937 142.034 28.0054C142.371 27.7101 142.54 27.3163 142.54 26.8241C142.54 26.3671 142.371 26.0015 142.034 25.7272C141.703 25.446 141.12 25.3054 140.283 25.3054H137.857V28.4379Z" fill="black"/>
</svg>
