<svg width="221" height="65" viewBox="0 0 221 65" fill="none" xmlns="http://www.w3.org/2000/svg">
<g clip-path="url(#clip0_3814_5478)">
<mask id="mask0_3814_5478" style="mask-type:luminance" maskUnits="userSpaceOnUse" x="0" y="0" width="221" height="65">
<path d="M220.112 0.0344238H0V64.0344H220.112V0.0344238Z" fill="white"/>
</mask>
<g mask="url(#mask0_3814_5478)">
<path d="M31.4019 62.8382C48.7446 62.8382 62.8037 48.779 62.8037 31.4363C62.8037 14.0935 48.7446 0.0344238 31.4019 0.0344238C14.0591 0.0344238 0 14.0935 0 31.4363C0 48.779 14.0591 62.8382 31.4019 62.8382Z" fill="black"/>
<path d="M54.7289 41.1859L44.6803 31.1373L54.7289 21.0887C55.985 19.8326 55.985 17.8588 54.7289 16.6027L45.8168 7.69059C44.5607 6.43452 42.5869 6.43452 41.3308 7.69059L31.2822 17.7392L21.2336 7.69059C19.9775 6.43452 18.0037 6.43452 16.7476 7.69059L7.83549 16.6027C6.57941 17.8588 6.57941 19.8326 7.83549 21.0887L17.8841 31.1373L7.83549 41.1859C6.57941 42.442 6.57941 44.4158 7.83549 45.6719L16.7476 54.5841C18.0037 55.8401 19.9775 55.8401 21.2336 54.5841L31.2822 44.5354L41.3308 54.5841C42.5869 55.8401 44.5607 55.8401 45.8168 54.5841L54.7289 45.6719C55.985 44.4158 55.985 42.442 54.7289 41.1859Z" fill="#FF003A"/>
<path d="M205.159 0.0344238C196.905 0.0344238 190.206 6.73349 190.206 14.9877C190.206 23.2419 196.905 29.941 205.159 29.941C213.413 29.941 220.112 23.2419 220.112 14.9877C220.112 6.73349 213.413 0.0344238 205.159 0.0344238ZM212.037 17.9783C212.396 18.3372 212.396 18.9354 212.037 19.2942L209.406 21.926C209.047 22.2849 208.449 22.2849 208.09 21.926L205.159 18.9952L202.228 21.926C201.869 22.2849 201.271 22.2849 200.912 21.926L198.28 19.2942C197.922 18.9354 197.922 18.3372 198.28 17.9783L201.211 15.0475L198.28 12.1167C197.922 11.7578 197.922 11.1597 198.28 10.8008L200.912 8.169C201.271 7.81012 201.869 7.81012 202.228 8.169L205.159 11.0998L208.09 8.169C208.449 7.81012 209.047 7.81012 209.406 8.169L212.037 10.8008C212.396 11.1597 212.396 11.7578 212.037 12.1167L209.107 15.0475L212.037 17.9783Z" fill="black"/>
<path d="M111.492 37.1187H119.865C120.224 37.1187 120.583 37.3579 120.703 37.7168L130.034 62.6588C130.273 63.257 129.794 63.8551 129.196 63.8551H121.421C121.062 63.8551 120.703 63.6158 120.583 63.257L119.806 61.1037C119.686 60.7448 119.327 60.5056 118.968 60.5056H112.389C112.03 60.5056 111.671 60.7448 111.551 61.1037L110.774 63.257C110.654 63.6158 110.295 63.8551 109.936 63.8551H102.221C101.622 63.8551 101.144 63.257 101.383 62.6588L110.654 37.657C110.774 37.3579 111.133 37.1187 111.492 37.1187ZM117.473 54.4046C118.071 54.4046 118.49 53.8065 118.31 53.2682L115.738 45.313H115.559L113.047 53.2682C112.867 53.8663 113.286 54.4046 113.884 54.4046H117.473Z" fill="black"/>
<path d="M133.981 37.1187H140.142C140.441 37.1187 140.68 37.2383 140.86 37.4775L148.217 47.4065C148.576 47.885 149.293 47.885 149.652 47.4065L157.009 37.4775C157.189 37.2383 157.428 37.1187 157.727 37.1187H163.828C164.307 37.1187 164.725 37.5373 164.725 38.0158V62.9579C164.725 63.4364 164.307 63.8551 163.828 63.8551H156.591C156.112 63.8551 155.693 63.4364 155.693 62.9579V57.6944L155.753 52.1915H155.634L151.686 57.5747C151.507 57.814 151.267 57.9336 150.968 57.9336H146.781C146.482 57.9336 146.243 57.814 146.064 57.5747L142.116 52.1317L141.996 52.1915L142.056 57.6944V62.9579C142.056 63.4364 141.637 63.8551 141.159 63.8551H133.981C133.503 63.8551 133.084 63.4364 133.084 62.9579V38.0158C133.084 37.4775 133.443 37.1187 133.981 37.1187Z" fill="black"/>
<path d="M211.32 47.7053H202.766C202.766 47.7053 200.912 47.8249 200.912 46.21C200.912 44.595 202.766 44.595 202.766 44.595H219.215C219.693 44.595 220.112 44.1764 220.112 43.6978V37.9558C220.112 37.4773 219.693 37.0586 219.215 37.0586H202.228C197.862 37.0586 193.376 37.0586 193.376 45.9109C193.376 53.9259 197.682 53.2081 202.108 53.2081H210.662C210.662 53.2081 212.576 53.2081 212.576 54.7035C212.576 56.1988 210.721 56.2586 210.721 56.2586H189.249C189.249 56.2586 189.249 56.2586 189.189 56.2586H175.252V54.1053C175.252 53.6268 175.671 53.2081 176.15 53.2081H184.763C185.241 53.2081 185.66 52.7894 185.66 52.3109V48.4829C185.66 48.0044 185.241 47.5857 184.763 47.5857H175.252V45.4922C175.252 45.0137 175.671 44.595 176.15 44.595H189.189C189.667 44.595 190.086 44.1764 190.086 43.6978V37.9558C190.086 37.4773 189.667 37.0586 189.189 37.0586H168.673C168.194 37.0586 167.776 37.4773 167.776 37.9558V62.8979C167.776 63.3764 168.194 63.7951 168.673 63.7951H187.634H189.249H211.26C215.806 63.7951 220.052 63.7951 220.052 54.9427C220.112 46.9876 215.566 47.7053 211.32 47.7053Z" fill="black"/>
<path d="M150.49 29.283L145.465 20.9092C145.226 20.5503 144.867 20.3111 144.449 20.3111H141.757C141.099 20.3111 140.561 20.8494 140.561 21.5073V28.6251C140.561 29.283 140.022 29.8213 139.365 29.8213H132.486C131.828 29.8213 131.29 29.283 131.29 28.6251V1.2905C131.29 0.632557 131.828 0.0942383 132.486 0.0942383H149.593C156.471 0.0942383 159.94 5.17835 159.94 10.2027C159.94 13.6718 158.325 17.141 155.095 18.9952C155.036 19.055 154.976 19.1746 155.036 19.2344L160.12 28.0868C160.598 28.8643 160 29.8812 159.043 29.8812H151.507C151.088 29.8812 150.729 29.7017 150.49 29.283ZM140.561 13.3129C140.561 13.3727 140.621 13.4326 140.68 13.4326H147.439C149.712 13.4326 150.849 11.8176 150.849 10.2027C150.849 8.5877 149.712 6.97274 147.439 6.97274H141.757C141.099 6.97274 140.561 7.51106 140.561 8.16901V13.3129Z" fill="black"/>
<path d="M185.66 14.569C185.6 14.5092 185.6 14.5092 185.6 14.4494C185.6 14.3896 185.6 14.3896 185.66 14.3298C187.095 12.8344 187.933 10.4419 187.933 8.04938C187.933 2.48676 184.344 0.0344238 180.755 0.0344238H164.307C163.469 0.0344238 162.811 0.692368 162.811 1.52975V28.4456C162.811 29.283 163.469 29.941 164.307 29.941H180.755C186.198 29.941 188.65 25.5148 188.65 21.4475C188.65 18.6363 187.514 16.1241 185.66 14.569ZM177.525 12.5952H171.065V7.75031C171.065 7.27181 171.484 6.85312 171.963 6.85312H177.525C179.619 6.85312 180.576 8.28863 180.576 9.72414C180.576 11.1597 179.619 12.5952 177.525 12.5952ZM171.963 17.8587H177.525C179.619 17.8587 180.576 19.2942 180.576 20.7297C180.576 22.1054 179.619 23.6008 177.525 23.6008H171.065V18.7559C171.065 18.2774 171.484 17.8587 171.963 17.8587Z" fill="black"/>
<path d="M98.8112 47.8252H89.1215C88.344 47.8252 87.7458 48.4233 87.7458 49.2009V52.5504C87.7458 53.328 88.344 53.9261 89.1215 53.9261H92.3514C92.4711 53.9261 92.5907 54.0458 92.5907 54.1654V55.9C92.5907 55.9598 92.5309 56.0794 92.4711 56.1392C91.5739 56.6177 90.557 56.857 89.2411 56.857H89.0617C86.2505 56.857 84.815 56.7972 83.4991 56.7373C80.7477 56.5579 78.7141 53.9859 78.7141 50.6364V50.5766C78.7141 47.7056 80.5084 45.313 83.2598 44.5355C83.9178 44.356 94.5047 44.2962 98.5122 44.356C99.1701 44.356 99.6486 43.8177 99.6486 43.2196C99.6486 41.485 99.6486 38.3747 99.6486 38.3747C99.6486 37.7168 99.1103 37.2383 98.5122 37.2383C94.4449 37.2383 83.4393 37.2383 83.2 37.2981C75.9028 37.8364 70.6393 43.4588 70.6393 50.5766V50.6364C70.6393 58.4719 74.5869 63.3167 81.4654 63.855C81.7645 63.855 84.0374 63.9148 87.5066 63.9148C88.8823 63.9148 89.9589 63.9148 90.1383 63.9148C90.258 63.9148 90.3776 63.9148 90.557 63.9148C94.2056 63.9148 99.8281 60.2662 100.247 59.1897C100.307 59.0701 100.247 49.3205 100.247 49.3205C100.187 48.4233 99.5888 47.8252 98.8112 47.8252Z" fill="black"/>
<path d="M95.1028 0.0344238H72.314C71.6561 0.0344238 71.1177 0.572742 71.1177 1.23069V8.04938C71.1177 8.70732 71.6561 9.24564 72.314 9.24564H77.8766C78.5346 9.24564 79.0729 9.78396 79.0729 10.4419V28.7447C79.0729 29.4026 79.6112 29.941 80.2691 29.941H87.0878C87.7458 29.941 88.2841 29.4026 88.2841 28.7447V10.5017C88.2841 9.84377 88.8224 9.30545 89.4804 9.30545H95.043C95.7009 9.30545 96.2392 8.76713 96.2392 8.10919V1.23069C96.299 0.572742 95.7607 0.0344238 95.1028 0.0344238Z" fill="black"/>
<path d="M120.045 0.0942383C119.387 0.0942383 118.849 0.632557 118.849 1.2905V19.5933C118.849 20.8494 118.37 21.3279 117.054 21.3279H110.535C109.219 21.3279 108.74 20.8494 108.74 19.5933V1.2905C108.74 0.632557 108.202 0.0942383 107.544 0.0942383H100.486C99.8281 0.0942383 99.2897 0.632557 99.2897 1.2905V20.7896C99.2897 23.9597 100.067 26.2924 101.563 27.7279C103.058 29.2232 105.51 29.941 108.74 29.941H118.729C121.959 29.941 124.411 29.1634 125.907 27.7279C127.402 26.2326 128.179 23.8998 128.179 20.7896V1.2905C128.179 0.632557 127.641 0.0942383 126.983 0.0942383H120.045Z" fill="black"/>
</g>
</g>
<defs>
<clipPath id="clip0_3814_5478">
<rect width="220.112" height="64" fill="white" transform="translate(0 0.0344238)"/>
</clipPath>
</defs>
</svg>
