<?xml version="1.0" encoding="utf-8"?><svg viewBox="0 0 17 17" xmlns="http://www.w3.org/2000/svg" xmlns:xlink="http://www.w3.org/1999/xlink"><style>:root>svg{display:none}:root>svg:target{display:block}</style><svg fill="none" viewBox="0 0 17 17" id="pin-up" xmlns="http://www.w3.org/2000/svg"><g clip-path="url(#aclip0_1334_8291)" fill-rule="evenodd" clip-rule="evenodd"><path d="M8.4 14.883a6.75 6.75 0 100-13.5 6.75 6.75 0 000 13.5zm0 1.25a8 8 0 100-16 8 8 0 000 16z" fill="#00CFA6"/><path d="M7.065 16.022a7.961 7.961 0 01-3.492-1.508V8.276c0-2.745 2.161-4.97 4.827-4.97 2.665 0 4.826 2.225 4.826 4.97 0 2.744-2.16 4.969-4.826 4.969-.104 0-.206-.004-.308-.01V9.613c.099.024.202.037.308.037.737 0 1.335-.615 1.335-1.374 0-.76-.598-1.375-1.335-1.375-.738 0-1.335.615-1.335 1.375v7.746z" fill="#FF2400"/></g><defs><clipPath id="aclip0_1334_8291"><path fill="#fff" transform="translate(.4 .133)" d="M0 0h16v16H0z"/></clipPath></defs></svg><svg fill="none" viewBox="0 0 16 17" id="spribe" xmlns="http://www.w3.org/2000/svg"><path d="M0 3.085A2.952 2.952 0 012.952.133h10.096A2.952 2.952 0 0116 3.085V13.18a2.952 2.952 0 01-2.952 2.953H2.952A2.952 2.952 0 010 13.18V3.085z" fill="#EEE"/><path d="M5.587 12.828c.025.003.05.008.076.008H10.39v1.395H5.587v-1.404zM8.795 2.168c.727.214 1.199.677 1.397 1.384.117.419.133.865.2 1.337H8.878c-.024-.245-.035-.5-.079-.75-.072-.412-.313-.607-.723-.617-.44-.009-.681.178-.778.603-.143.635.047 1.195.456 1.662.402.458.855.873 1.298 1.294.967.913 1.484 1.986 1.25 3.344-.202 1.188-.933 1.835-2.124 1.87-1.333.04-2.188-.563-2.47-1.734-.03-.13-.124-1.06-.124-1.4h1.627c.035.426.04.802.104 1.168.063.367.326.546.7.546.374 0 .615-.181.704-.545.14-.58.027-1.125-.354-1.57-.513-.602-1.085-1.154-1.61-1.745-.265-.299-.531-.612-.718-.96-.92-1.71-.256-3.453 1.57-3.958.17-.047.732-.062 1.187.071z" fill="#030303"/></svg></svg>