<?xml version="1.0" encoding="utf-8"?><svg viewBox="0 0 30 25" xmlns="http://www.w3.org/2000/svg" xmlns:xlink="http://www.w3.org/1999/xlink"><style>:root>svg{display:none}:root>svg:target{display:block}</style><svg fill="none" viewBox="0 0 30 24" id="android" xmlns="http://www.w3.org/2000/svg"><path d="M2.878 19.846c-.968 0-1.965.758-1.965 2.084 0 1.212.877 2.068 1.965 2.068.898 0 1.299-.588 1.299-.588v.256c0 .121.118.257.263.257h.65v-3.986h-.913v.506s-.404-.597-1.3-.597zm.163.815c.797 0 1.215.684 1.215 1.268 0 .65-.496 1.268-1.214 1.269-.6 0-1.2-.475-1.2-1.278 0-.724.516-1.259 1.199-1.259zm3.317 3.263c-.141 0-.263-.098-.263-.257v-3.73h.913v.494c.207-.303.61-.585 1.231-.585 1.014 0 1.553.789 1.553 1.527v2.55h-.633a.276.276 0 01-.279-.27v-2.084c0-.41-.257-.906-.85-.906-.641 0-1.023.59-1.023 1.148v2.113h-.65zm6.098-4.075c-.968 0-1.965.758-1.965 2.083 0 1.212.877 2.07 1.965 2.07.898 0 1.3-.59 1.3-.59v.256c0 .122.117.257.262.257h.65v-5.98h-.913v2.5s-.404-.596-1.299-.596zm.163.814c.797 0 1.215.686 1.215 1.269 0 .65-.496 1.268-1.214 1.268-.6 0-1.2-.474-1.2-1.276 0-.725.516-1.261 1.199-1.261zm3.316 3.258c-.14 0-.263-.098-.263-.257v-3.73h.912v.665c.157-.372.497-.71 1.099-.71.167 0 .324.031.324.031v.92s-.196-.075-.433-.075c-.64 0-.99.59-.99 1.147v2.009h-.649zm7.611.004c-.14 0-.264-.098-.264-.257v-3.73h.913v3.987h-.649zm3.329-4.076c-.97 0-1.965.758-1.965 2.083 0 1.212.876 2.07 1.965 2.07.898 0 1.299-.59 1.299-.59v.256c0 .122.118.257.263.257h.65v-5.98h-.913v2.5s-.404-.596-1.3-.596zm.163.814c.797 0 1.215.686 1.215 1.269 0 .65-.497 1.268-1.214 1.268-.6 0-1.2-.474-1.2-1.276 0-.725.516-1.261 1.199-1.261zm-3.304-1.586a.596.596 0 00.603-.589.595.595 0 00-.604-.59.597.597 0 00-.603.59c0 .326.27.589.603.589zm-3.318.769c-1.014 0-2.129.739-2.129 2.078 0 1.22.95 2.076 2.128 2.076 1.45 0 2.16-1.138 2.16-2.068 0-1.14-.915-2.086-2.16-2.086zm.004.832c.701 0 1.225.553 1.225 1.249 0 .708-.555 1.255-1.223 1.255-.62 0-1.221-.491-1.221-1.244 0-.764.572-1.26 1.219-1.26zm1.452-16.035L24.21.694a.456.456 0 00-.172-.631.475.475 0 00-.644.167l-2.366 4c-1.805-.804-3.838-1.253-6.023-1.253-2.185 0-4.218.449-6.023 1.252L6.616.231a.478.478 0 00-.866.112.455.455 0 00.048.351l2.335 3.95A13.597 13.597 0 00.927 15.407h28.155a13.59 13.59 0 00-7.21-10.764zM8.541 11.549c-.652 0-1.18-.517-1.18-1.152 0-.636.53-1.152 1.18-1.152.653 0 1.18.518 1.18 1.152.003.635-.528 1.152-1.18 1.152zm12.925 0c-.653 0-1.18-.517-1.18-1.152 0-.636.53-1.152 1.18-1.152.653 0 1.18.518 1.18 1.152.003.635-.527 1.152-1.18 1.152z" fill="#fff"/></svg><svg fill="none" viewBox="0 0 29 25" id="android-green" xmlns="http://www.w3.org/2000/svg"><g clip-path="url(#bclip0_55_3719)"><path d="M1.965 20.207C.997 20.207 0 20.964 0 22.29c0 1.212.877 2.068 1.965 2.068.898 0 1.299-.589 1.299-.589v.257c0 .121.118.257.263.257h.65v-3.986h-.913v.506s-.404-.597-1.3-.597zm.163.815c.797 0 1.215.684 1.215 1.268 0 .65-.496 1.267-1.214 1.268-.6 0-1.2-.474-1.2-1.277 0-.724.516-1.26 1.199-1.26zm3.317 3.263c-.141 0-.263-.098-.263-.257v-3.73h.913v.494c.207-.303.61-.585 1.231-.585 1.013 0 1.553.789 1.553 1.526v2.552h-.633a.276.276 0 01-.279-.272V21.93c0-.41-.257-.906-.85-.906-.641 0-1.023.59-1.023 1.148v2.113h-.65zm6.098-4.075c-.968 0-1.965.758-1.965 2.083 0 1.212.877 2.069 1.965 2.069.898 0 1.3-.59 1.3-.59v.257c0 .122.117.257.262.257h.65v-5.98h-.913v2.5s-.404-.596-1.299-.596zm.163.814c.797 0 1.215.685 1.215 1.269 0 .65-.496 1.268-1.214 1.268-.6 0-1.2-.474-1.2-1.277 0-.724.516-1.26 1.199-1.26zm3.316 3.258c-.141 0-.263-.099-.263-.257v-3.73h.912v.665c.157-.372.497-.71 1.099-.71.167 0 .324.03.324.03v.921s-.196-.075-.433-.075c-.64 0-.99.59-.99 1.147v2.009h-.65zm7.611.004c-.14 0-.264-.098-.264-.257V20.3h.913v3.987h-.649zm3.329-4.076c-.97 0-1.965.758-1.965 2.083 0 1.212.876 2.069 1.965 2.069.898 0 1.299-.59 1.299-.59v.257c0 .122.118.257.263.257h.65v-5.98h-.913v2.5s-.404-.596-1.3-.596zm.163.814c.797 0 1.215.685 1.215 1.269 0 .65-.497 1.268-1.214 1.268-.6 0-1.2-.474-1.2-1.277 0-.724.516-1.26 1.199-1.26zm-3.304-1.586a.596.596 0 00.603-.589.598.598 0 00-.604-.59.597.597 0 00-.603.59c0 .326.27.589.603.589zm-3.318.769c-1.014 0-2.13.739-2.13 2.077 0 1.221.95 2.077 2.129 2.077 1.45 0 2.16-1.139 2.16-2.068 0-1.14-.915-2.086-2.16-2.086zm.004.831c.701 0 1.225.553 1.225 1.25 0 .708-.555 1.255-1.223 1.255-.62 0-1.221-.492-1.221-1.244 0-.764.572-1.26 1.219-1.26zm1.452-16.035l2.337-3.948a.458.458 0 00-.172-.631.475.475 0 00-.644.166l-2.366 4c-1.805-.803-3.838-1.252-6.023-1.252-2.185 0-4.218.449-6.023 1.252L5.703.592a.478.478 0 00-.866.112.455.455 0 00.048.35l2.335 3.95A13.597 13.597 0 00.014 15.768h28.155a13.593 13.593 0 00-7.21-10.765zM7.628 11.91c-.652 0-1.18-.517-1.18-1.152 0-.636.53-1.152 1.18-1.152.653 0 1.18.518 1.18 1.152.003.635-.528 1.152-1.18 1.152zm12.925 0c-.653 0-1.18-.517-1.18-1.152 0-.636.53-1.152 1.18-1.152.653 0 1.18.518 1.18 1.152.003.635-.527 1.152-1.18 1.152z" fill="#61DA84"/></g><defs><clipPath id="bclip0_55_3719"><path fill="#fff" transform="translate(0 .36)" d="M0 0h28.174v24H0z"/></clipPath></defs></svg><svg fill="none" viewBox="0 0 22 24" id="apple" xmlns="http://www.w3.org/2000/svg"><path d="M17.778 12.684c-.01-1.967.879-3.451 2.679-4.545-1.007-1.441-2.53-2.234-4.539-2.39-1.902-.15-3.98 1.11-4.741 1.11-.804 0-2.648-1.056-4.094-1.056C4.093 5.85.916 8.187.916 12.94c0 1.403.257 2.856.772 4.35.685 1.967 3.16 6.79 5.743 6.709 1.35-.032 2.304-.959 4.061-.959 1.704 0 2.59.959 4.093.959 2.605-.037 4.845-4.42 5.5-6.392-3.494-1.644-3.307-4.822-3.307-4.924zm-3.032-8.8C16.209 2.149 16.075.569 16.032 0c-1.292.074-2.787.88-3.64 1.87-.937 1.061-1.488 2.374-1.37 3.852 1.397.107 2.673-.61 3.724-1.837z" fill="#fff"/></svg><svg fill="none" viewBox="0 0 24 24" id="arrow" xmlns="http://www.w3.org/2000/svg"><g clip-path="url(#dclip0_137_1760)"><path d="M8.902 9.5c-.802 0-1.203 1.015-.601 1.523l3.108 3.249c.301.304.903.304 1.204 0l3.108-3.25c.602-.507.201-1.522-.601-1.522H8.902z" fill="#fff" fill-opacity=".3"/></g><defs><clipPath id="dclip0_137_1760"><path fill="#fff" transform="translate(8 9.5)" d="M0 0h8v5H0z"/></clipPath></defs></svg><svg fill="none" viewBox="0 0 24 24" id="chevron" xmlns="http://www.w3.org/2000/svg"><path d="M16.7 10.3c-.4-.4-1-.4-1.4 0L12 13.6l-3.3-3.3c-.4-.4-1-.4-1.4 0-.4.4-.4 1 0 1.4l4 4c.2.2.4.3.7.3.3 0 .5-.1.7-.3l4-4c.4-.4.4-1 0-1.4z" fill="#fff" fill-opacity=".3"/></svg><svg fill="none" viewBox="0 0 24 24" id="close" xmlns="http://www.w3.org/2000/svg"><path d="M13.4 12l4.3-4.3c.4-.4.4-1 0-1.4-.4-.4-1-.4-1.4 0L12 10.6 7.7 6.3c-.4-.4-1-.4-1.4 0-.4.4-.4 1 0 1.4l4.3 4.3-4.3 4.3c-.4.4-.4 1 0 1.4.2.2.4.3.7.3.3 0 .5-.1.7-.3l4.3-4.3 4.3 4.3c.2.2.5.3.7.3.2 0 .5-.1.7-.3.4-.4.4-1 0-1.4L13.4 12z" fill="#fff" fill-opacity=".3"/></svg><svg fill="none" viewBox="0 0 24 24" id="close-fill" xmlns="http://www.w3.org/2000/svg"><path fill-rule="evenodd" clip-rule="evenodd" d="M12 20a8 8 0 100-16 8 8 0 000 16zm3.544-11.544a.753.753 0 010 1.065L13.064 12l2.48 2.48a.753.753 0 01-1.065 1.064L12 13.064l-2.48 2.48a.753.753 0 11-1.064-1.065L10.936 12l-2.48-2.48A.753.753 0 019.52 8.457L12 10.936l2.48-2.48a.753.753 0 011.064 0z" fill="#fff" fill-opacity=".3"/></svg><svg fill="none" viewBox="0 0 24 25" id="copy" xmlns="http://www.w3.org/2000/svg"><path fill-rule="evenodd" clip-rule="evenodd" d="M13.497 19.86a2 2 0 002-2h-5c-1.943 0-3-1.188-3-2.984V7.86a2 2 0 00-2 2v8a2 2 0 002 2h6zm3.006-3h-6.006a2 2 0 01-2-2v-8a2 2 0 012-2h6.006a2 2 0 012 2v8a2 2 0 01-2 2z" fill="#fff"/></svg><svg fill="none" viewBox="0 0 24 24" id="download" xmlns="http://www.w3.org/2000/svg"><path fill-rule="evenodd" clip-rule="evenodd" d="M6.75 12.568l4.27-4.599c.229-.224.571-.448 1.028-.448.331 0 .589.177.793.317.077.053.146.1.209.131l4.34 4.659.114.112c.114.224.228.448.228.672 0 .56-.456 1.01-1.027 1.01h-2.397l.015 4.428c0 .56-.571 1.121-1.142 1.121L10.825 20c-.57 0-1.141-.56-1.141-1.121v-4.458l-2.364-.06c-.57 0-1.027-.448-1.027-1.008 0-.224.228-.56.457-.785zm10.964-6.282a1.143 1.143 0 000-2.286H6.286a1.143 1.143 0 100 2.286h11.428z" fill="#232325"/></svg><svg fill="none" viewBox="0 0 24 24" id="gift" xmlns="http://www.w3.org/2000/svg"><mask id="ja" style="mask-type:luminance" maskUnits="userSpaceOnUse" x="4" y="4" width="16" height="16"><path d="M4 4h16v16H4V4z" fill="#fff"/></mask><g mask="url(#ja)"><path fill-rule="evenodd" clip-rule="evenodd" d="M6.914 4.78A2.666 2.666 0 018.8 4 3.731 3.731 0 0112 5.81 3.732 3.732 0 0115.2 4a2.666 2.666 0 012.666 2.666v.305c0 .478-.141.924-.385 1.295h.919a1.6 1.6 0 011.6 1.6v1.068a1.6 1.6 0 01-1.6 1.6h-5.866V8.266h2.971c.714 0 1.295-.58 1.295-1.295v-.305a1.6 1.6 0 00-1.6-1.6 2.667 2.667 0 00-2.666 2.668v.532h-1.068v-.532A2.668 2.668 0 008.8 5.066a1.6 1.6 0 00-1.6 1.6v.305c0 .716.58 1.295 1.295 1.295h2.971v4.268H5.6a1.6 1.6 0 01-1.6-1.6V9.866a1.6 1.6 0 011.6-1.6h.92a2.352 2.352 0 01-.386-1.295v-.305c0-.707.28-1.385.78-1.885zM5.066 13.6h6.4V20H7.734a2.666 2.666 0 01-2.668-2.666V13.6zm11.2 6.4h-3.732v-6.4h6.4v3.734A2.665 2.665 0 0116.266 20z" fill="#fff"/></g></svg><svg fill="none" viewBox="0 0 24 25" id="information" xmlns="http://www.w3.org/2000/svg"><path fill-rule="evenodd" clip-rule="evenodd" d="M12 4.922c4.415 0 8 3.585 8 8s-3.585 8-8 8-8-3.585-8-8 3.585-8 8-8zm1.331 12a.996.996 0 000-1.993h-.333v-3.25c0-.443-.239-.757-.68-.757h-1.635a1.006 1.006 0 000 2.01h.312v1.997h-.341a.997.997 0 100 1.993h2.677zM12 7.58a1.342 1.342 0 110 2.684 1.342 1.342 0 010-2.684z" fill="#fff" fill-opacity=".3"/></svg><svg fill="none" viewBox="0 0 17 17" id="instagram" xmlns="http://www.w3.org/2000/svg"><g clip-path="url(#lclip0_45_7374)"><path fill-rule="evenodd" clip-rule="evenodd" d="M5.535.409C6.388.369 6.66.36 8.833.36s2.446.009 3.298.048c.852.038 1.434.175 1.943.372a3.926 3.926 0 011.417.923c.407.4.721.883.922 1.416.198.51.334 1.09.372 1.942.04.855.048 1.127.048 3.299 0 2.173-.009 2.446-.048 3.298-.038.851-.175 1.432-.372 1.942a3.924 3.924 0 01-.922 1.417c-.4.407-.883.722-1.417.922-.51.198-1.09.334-1.942.373-.853.039-1.126.048-3.299.048s-2.445-.01-3.298-.048c-.851-.038-1.432-.175-1.942-.373a3.926 3.926 0 01-1.417-.922 3.922 3.922 0 01-.923-1.417c-.197-.509-.332-1.09-.372-1.941-.04-.855-.048-1.128-.048-3.3 0-2.172.01-2.445.048-3.297.038-.852.176-1.434.372-1.943a3.924 3.924 0 01.924-1.417c.399-.407.882-.721 1.416-.922C4.102.583 4.684.448 5.535.409zm6.531 1.44c-.843-.038-1.097-.047-3.233-.047-2.135 0-2.389.008-3.232.047-.78.036-1.204.166-1.486.276-.373.144-.64.317-.92.597-.266.258-.47.573-.598.92-.11.282-.24.706-.276 1.486-.038.844-.046 1.097-.046 3.233 0 2.135.008 2.39.046 3.233.036.78.166 1.203.276 1.485.128.347.332.662.598.92.258.266.572.47.92.598.282.11.705.24 1.486.276.843.038 1.096.046 3.232.046 2.137 0 2.39-.007 3.233-.046.78-.036 1.204-.166 1.486-.276.373-.145.64-.318.92-.597.266-.259.47-.573.598-.92.11-.283.24-.706.275-1.486.038-.844.047-1.098.047-3.233 0-2.136-.008-2.39-.047-3.233-.035-.78-.166-1.204-.275-1.486a2.483 2.483 0 00-.598-.92 2.482 2.482 0 00-.92-.597c-.282-.11-.706-.24-1.486-.276zm-4.254 8.978a2.67 2.67 0 102.027-4.94 2.67 2.67 0 00-2.027 4.94zM5.926 5.453a4.112 4.112 0 115.882 5.748 4.112 4.112 0 01-5.882-5.748zm7.931-.592a.973.973 0 10-1.296-1.451.973.973 0 001.296 1.451z" fill="#fff"/></g><defs><clipPath id="lclip0_45_7374"><path fill="#fff" transform="translate(.833 .36)" d="M0 0h16v16H0z"/></clipPath></defs></svg><svg fill="none" viewBox="0 0 24 24" id="menu" xmlns="http://www.w3.org/2000/svg"><path fill-rule="evenodd" clip-rule="evenodd" d="M18 16a1 1 0 010 2H6a1 1 0 010-2h12zm0-5a1 1 0 010 2H6a1 1 0 010-2h12zm0-5a1 1 0 010 2H6a1 1 0 010-2h12z" fill="#fff"/></svg><svg fill="none" viewBox="0 0 24 24" id="search" xmlns="http://www.w3.org/2000/svg"><path fill-rule="evenodd" clip-rule="evenodd" d="M15.245 17.15a6.964 6.964 0 01-3.91 1.194c-3.863 0-7-3.137-7-7s3.137-7 7-7 7 3.137 7 7a6.97 6.97 0 01-1.18 3.889l2.114 2.113a1.354 1.354 0 01-1.914 1.914l-2.11-2.11zm-3.91-10.329a4.524 4.524 0 014.523 4.523 4.524 4.524 0 01-4.523 4.523 4.524 4.524 0 01-4.523-4.523 4.524 4.524 0 014.523-4.523z" fill="#fff" fill-opacity=".3"/></svg><svg fill="none" viewBox="0 0 24 24" id="selected" xmlns="http://www.w3.org/2000/svg"><path fill-rule="evenodd" clip-rule="evenodd" d="M16.4 8.95c-.4-.4-1-.4-1.4 0l-4 4-2-2c-.4-.4-1-.4-1.4 0-.4.4-.4 1 0 1.4l2.7 2.7c.2.2.4.3.7.3.3 0 .5-.1.7-.3l4.7-4.7c.4-.4.4-1 0-1.4z" fill="#fff"/></svg><svg fill="none" viewBox="0 0 21 17" id="telegram" xmlns="http://www.w3.org/2000/svg"><path fill-rule="evenodd" clip-rule="evenodd" d="M2.166 7.262C7.35 5.01 10.8 3.515 12.532 2.789 17.463.731 18.5.376 19.166.361c.148 0 .474.03.696.207.178.148.222.34.252.489.03.148.06.459.03.696-.267 2.813-1.422 9.64-2.014 12.78-.252 1.332-.74 1.776-1.214 1.82-1.037.09-1.822-.68-2.814-1.332-1.57-1.022-2.444-1.659-3.969-2.665-1.762-1.155-.622-1.792.385-2.829.267-.266 4.813-4.413 4.902-4.783.015-.044.015-.222-.089-.31-.104-.09-.252-.06-.37-.03-.163.03-2.65 1.688-7.493 4.96-.711.489-1.348.726-1.925.711-.637-.015-1.851-.355-2.77-.651-1.11-.356-1.999-.548-1.925-1.17.045-.326.49-.652 1.318-.992z" fill="#fff"/></svg><svg fill="none" viewBox="0 0 24 25" id="verified" xmlns="http://www.w3.org/2000/svg"><path d="M20 12.922a2.97 2.97 0 00-1.71-2.607 2.957 2.957 0 00-.631-3.052 2.957 2.957 0 00-3.051-.632A2.953 2.953 0 0012 4.922a2.948 2.948 0 00-2.6 1.71 2.956 2.956 0 00-1.619-.119 2.95 2.95 0 00-1.439.751 2.947 2.947 0 00-.625 3.052A2.971 2.971 0 004 12.922a2.976 2.976 0 001.717 2.607 2.956 2.956 0 00.624 3.052 2.973 2.973 0 003.052.631A2.969 2.969 0 0012 20.922a2.959 2.959 0 002.607-1.709 2.839 2.839 0 003.683-3.684A2.967 2.967 0 0020 12.922zM10.86 16.2L7.942 13.28l1.101-1.108 1.764 1.764 3.747-4.082 1.146 1.06-4.838 5.285z" fill="#1D9BF0"/></svg><svg fill="none" viewBox="0 0 24 25" id="x" xmlns="http://www.w3.org/2000/svg"><path d="M16.6 5.561h2.454l-5.36 6.126L20 20.024h-4.937l-3.867-5.056-4.425 5.056H4.316l5.733-6.553L4 5.56h5.063l3.495 4.621 4.043-4.621zm-.86 12.994h1.36L8.323 6.952H6.865l8.875 11.603z" fill="#fff"/></svg></svg>