<?xml version="1.0" encoding="utf-8"?><svg viewBox="0 0 30 25" xmlns="http://www.w3.org/2000/svg" xmlns:xlink="http://www.w3.org/1999/xlink"><style>:root>svg{display:none}:root>svg:target{display:block}</style><svg fill="none" viewBox="0 0 30 24" id="android" xmlns="http://www.w3.org/2000/svg"><path d="M2.878 19.846c-.968 0-1.965.758-1.965 2.084 0 1.212.877 2.068 1.965 2.068.898 0 1.299-.588 1.299-.588v.256c0 .121.118.257.263.257h.65v-3.986h-.913v.506s-.404-.597-1.3-.597zm.163.815c.797 0 1.215.684 1.215 1.268 0 .65-.496 1.268-1.214 1.269-.6 0-1.2-.475-1.2-1.278 0-.724.516-1.259 1.199-1.259zm3.317 3.263c-.141 0-.263-.098-.263-.257v-3.73h.913v.494c.207-.303.61-.585 1.231-.585 1.014 0 1.553.789 1.553 1.527v2.55h-.633a.276.276 0 01-.279-.27v-2.084c0-.41-.257-.906-.85-.906-.641 0-1.023.59-1.023 1.148v2.113h-.65zm6.098-4.075c-.968 0-1.965.758-1.965 2.083 0 1.212.877 2.07 1.965 2.07.898 0 1.3-.59 1.3-.59v.256c0 .122.117.257.262.257h.65v-5.98h-.913v2.5s-.404-.596-1.299-.596zm.163.814c.797 0 1.215.686 1.215 1.269 0 .65-.496 1.268-1.214 1.268-.6 0-1.2-.474-1.2-1.276 0-.725.516-1.261 1.199-1.261zm3.316 3.258c-.14 0-.263-.098-.263-.257v-3.73h.912v.665c.157-.372.497-.71 1.099-.71.167 0 .324.031.324.031v.92s-.196-.075-.433-.075c-.64 0-.99.59-.99 1.147v2.009h-.649zm7.611.004c-.14 0-.264-.098-.264-.257v-3.73h.913v3.987h-.649zm3.329-4.076c-.97 0-1.965.758-1.965 2.083 0 1.212.876 2.07 1.965 2.07.898 0 1.299-.59 1.299-.59v.256c0 .122.118.257.263.257h.65v-5.98h-.913v2.5s-.404-.596-1.3-.596zm.163.814c.797 0 1.215.686 1.215 1.269 0 .65-.497 1.268-1.214 1.268-.6 0-1.2-.474-1.2-1.276 0-.725.516-1.261 1.199-1.261zm-3.304-1.586a.596.596 0 00.603-.589.595.595 0 00-.604-.59.597.597 0 00-.603.59c0 .326.27.589.603.589zm-3.318.769c-1.014 0-2.129.739-2.129 2.078 0 1.22.95 2.076 2.128 2.076 1.45 0 2.16-1.138 2.16-2.068 0-1.14-.915-2.086-2.16-2.086zm.004.832c.701 0 1.225.553 1.225 1.249 0 .708-.555 1.255-1.223 1.255-.62 0-1.221-.491-1.221-1.244 0-.764.572-1.26 1.219-1.26zm1.452-16.035L24.21.694a.456.456 0 00-.172-.631.475.475 0 00-.644.167l-2.366 4c-1.805-.804-3.838-1.253-6.023-1.253-2.185 0-4.218.449-6.023 1.252L6.616.231a.478.478 0 00-.866.112.455.455 0 00.048.351l2.335 3.95A13.597 13.597 0 00.927 15.407h28.155a13.59 13.59 0 00-7.21-10.764zM8.541 11.549c-.652 0-1.18-.517-1.18-1.152 0-.636.53-1.152 1.18-1.152.653 0 1.18.518 1.18 1.152.003.635-.528 1.152-1.18 1.152zm12.925 0c-.653 0-1.18-.517-1.18-1.152 0-.636.53-1.152 1.18-1.152.653 0 1.18.518 1.18 1.152.003.635-.527 1.152-1.18 1.152z" fill="#fff"/></svg><svg fill="none" viewBox="0 0 29 25" id="android-green" xmlns="http://www.w3.org/2000/svg"><g clip-path="url(#abclip0_55_3719)"><path d="M1.965 20.207C.997 20.207 0 20.964 0 22.29c0 1.212.877 2.068 1.965 2.068.898 0 1.299-.589 1.299-.589v.257c0 .121.118.257.263.257h.65v-3.986h-.913v.506s-.404-.597-1.3-.597zm.163.815c.797 0 1.215.684 1.215 1.268 0 .65-.496 1.267-1.214 1.268-.6 0-1.2-.474-1.2-1.277 0-.724.516-1.26 1.199-1.26zm3.317 3.263c-.141 0-.263-.098-.263-.257v-3.73h.913v.494c.207-.303.61-.585 1.231-.585 1.013 0 1.553.789 1.553 1.526v2.552h-.633a.276.276 0 01-.279-.272V21.93c0-.41-.257-.906-.85-.906-.641 0-1.023.59-1.023 1.148v2.113h-.65zm6.098-4.075c-.968 0-1.965.758-1.965 2.083 0 1.212.877 2.069 1.965 2.069.898 0 1.3-.59 1.3-.59v.257c0 .122.117.257.262.257h.65v-5.98h-.913v2.5s-.404-.596-1.299-.596zm.163.814c.797 0 1.215.685 1.215 1.269 0 .65-.496 1.268-1.214 1.268-.6 0-1.2-.474-1.2-1.277 0-.724.516-1.26 1.199-1.26zm3.316 3.258c-.141 0-.263-.099-.263-.257v-3.73h.912v.665c.157-.372.497-.71 1.099-.71.167 0 .324.03.324.03v.921s-.196-.075-.433-.075c-.64 0-.99.59-.99 1.147v2.009h-.65zm7.611.004c-.14 0-.264-.098-.264-.257V20.3h.913v3.987h-.649zm3.329-4.076c-.97 0-1.965.758-1.965 2.083 0 1.212.876 2.069 1.965 2.069.898 0 1.299-.59 1.299-.59v.257c0 .122.118.257.263.257h.65v-5.98h-.913v2.5s-.404-.596-1.3-.596zm.163.814c.797 0 1.215.685 1.215 1.269 0 .65-.497 1.268-1.214 1.268-.6 0-1.2-.474-1.2-1.277 0-.724.516-1.26 1.199-1.26zm-3.304-1.586a.596.596 0 00.603-.589.598.598 0 00-.604-.59.597.597 0 00-.603.59c0 .326.27.589.603.589zm-3.318.769c-1.014 0-2.13.739-2.13 2.077 0 1.221.95 2.077 2.129 2.077 1.45 0 2.16-1.139 2.16-2.068 0-1.14-.915-2.086-2.16-2.086zm.004.831c.701 0 1.225.553 1.225 1.25 0 .708-.555 1.255-1.223 1.255-.62 0-1.221-.492-1.221-1.244 0-.764.572-1.26 1.219-1.26zm1.452-16.035l2.337-3.948a.458.458 0 00-.172-.631.475.475 0 00-.644.166l-2.366 4c-1.805-.803-3.838-1.252-6.023-1.252-2.185 0-4.218.449-6.023 1.252L5.703.592a.478.478 0 00-.866.112.455.455 0 00.048.35l2.335 3.95A13.597 13.597 0 00.014 15.768h28.155a13.593 13.593 0 00-7.21-10.765zM7.628 11.91c-.652 0-1.18-.517-1.18-1.152 0-.636.53-1.152 1.18-1.152.653 0 1.18.518 1.18 1.152.003.635-.528 1.152-1.18 1.152zm12.925 0c-.653 0-1.18-.517-1.18-1.152 0-.636.53-1.152 1.18-1.152.653 0 1.18.518 1.18 1.152.003.635-.527 1.152-1.18 1.152z" fill="#61DA84"/></g><defs><clipPath id="abclip0_55_3719"><path fill="#fff" transform="translate(0 .36)" d="M0 0h28.174v24H0z"/></clipPath></defs></svg><svg fill="none" viewBox="0 0 22 24" id="apple" xmlns="http://www.w3.org/2000/svg"><path d="M17.778 12.684c-.01-1.967.879-3.451 2.679-4.545-1.007-1.441-2.53-2.234-4.539-2.39-1.902-.15-3.98 1.11-4.741 1.11-.804 0-2.648-1.056-4.094-1.056C4.093 5.85.916 8.187.916 12.94c0 1.403.257 2.856.772 4.35.685 1.967 3.16 6.79 5.743 6.709 1.35-.032 2.304-.959 4.061-.959 1.704 0 2.59.959 4.093.959 2.605-.037 4.845-4.42 5.5-6.392-3.494-1.644-3.307-4.822-3.307-4.924zm-3.032-8.8C16.209 2.149 16.075.569 16.032 0c-1.292.074-2.787.88-3.64 1.87-.937 1.061-1.488 2.374-1.37 3.852 1.397.107 2.673-.61 3.724-1.837z" fill="#fff"/></svg><svg fill="none" viewBox="0 0 24 24" id="arrow" xmlns="http://www.w3.org/2000/svg"><g clip-path="url(#adclip0_137_1760)"><path d="M8.902 9.5c-.802 0-1.203 1.015-.601 1.523l3.108 3.249c.301.304.903.304 1.204 0l3.108-3.25c.602-.507.201-1.522-.601-1.522H8.902z" fill="#fff" fill-opacity=".3"/></g><defs><clipPath id="adclip0_137_1760"><path fill="#fff" transform="translate(8 9.5)" d="M0 0h8v5H0z"/></clipPath></defs></svg><svg viewBox="0 0 24 25" id="attention" xmlns="http://www.w3.org/2000/svg"><path fill-rule="evenodd" clip-rule="evenodd" d="M18.5 19.72h-13a1.5 1.5 0 01-1.281-2.28l6.683-11.075a1.26 1.26 0 012.256.122l6.618 10.945A1.5 1.5 0 0118.5 19.72zm-5.5-3a1 1 0 10-2 .001 1 1 0 002 0zm0-6a1 1 0 00-2 0v3a1 1 0 002 0v-3z"/></svg><svg viewBox="0 0 24 25" id="back" xmlns="http://www.w3.org/2000/svg"><path d="M5 13.616h8.7v2c0 .4.2.7.5.9.4.2.8.1 1.1-.1l4.3-3c.2-.2.4-.5.4-.8 0-.3-.2-.6-.4-.8l-4.3-3c-.2-.1-.4-.2-.6-.2-.2 0-.3 0-.5.1-.3.2-.5.5-.5.9v2H5c-.6 0-1 .4-1 1s.4 1 1 1z"/></svg><svg viewBox="0 0 16 17" id="card" xmlns="http://www.w3.org/2000/svg"><path fill-rule="evenodd" clip-rule="evenodd" d="M14 2.5a2 2 0 012 2v8a2 2 0 01-2 2H3a2 2 0 01-2-2v-8a2 2 0 012-2h11zM8 12a.5.5 0 00-.5-.5h-4a.5.5 0 000 1h4A.5.5 0 008 12zm-2-2a.5.5 0 00-.5-.5h-2a.5.5 0 000 1h2A.5.5 0 006 10zm3.5-.5h-2a.5.5 0 000 1h2a.5.5 0 000-1zm4 0h-2a.5.5 0 000 1h2a.5.5 0 000-1zm-7.25-5h-2.5a.75.75 0 00-.75.75v1.5c0 .414.336.75.75.75h2.5A.75.75 0 007 6.75v-1.5a.75.75 0 00-.75-.75z"/></svg><svg viewBox="0 0 24 25" id="checkbox" xmlns="http://www.w3.org/2000/svg"><path d="M18.2 2.533H6.3c-2.3 0-4.3 1.9-4.3 4.3v11.8c0 2.4 2 4.3 4.3 4.3h11.8c2.4 0 4.3-2 4.3-4.3v-11.8c.1-2.4-1.8-4.3-4.2-4.3zm2.3 16.2c0 1.3-1 2.3-2.3 2.3H6.3c-1.3 0-2.3-1-2.3-2.3v-11.9c0-1.3 1-2.3 2.3-2.3h11.8c1.3 0 2.3 1 2.3 2.3v11.9h.1z"/></svg><svg viewBox="0 0 24 25" id="checkbox-active" xmlns="http://www.w3.org/2000/svg"><path d="M18.2 2.533H6.3c-2.4 0-4.3 1.9-4.3 4.3v11.8c0 2.4 1.9 4.3 4.3 4.3h11.8c2.4 0 4.3-2 4.3-4.3v-11.8c.1-2.4-1.8-4.3-4.2-4.3zm-.7 7.8l-6.4 6.4c-.4.4-1 .4-1.4 0l-2.8-2.8c-.4-.4-.4-1 0-1.4.4-.4 1-.4 1.4 0l2.2 2 5.7-5.7c.4-.4 1-.4 1.4 0 .3.5.3 1.1-.1 1.5z"/></svg><svg fill="none" viewBox="0 0 24 25" id="checkmark" xmlns="http://www.w3.org/2000/svg"><path d="M12 .57c6.629 0 12 5.372 12 12l-.004.304C23.834 19.362 18.526 24.57 12 24.57l-.305-.004C5.207 24.403 0 19.095 0 12.57l.004-.305C.166 5.776 5.474.57 12 .57zm6.292 7.664c-.381-.366-1-.369-1.38-.004L10 14.877l-2.906-2.794a1.004 1.004 0 00-1.386-.003l-.016.016a.918.918 0 00.003 1.334l3.61 3.47a1.01 1.01 0 001.386.004L18.31 9.58a.915.915 0 000-1.33l-.017-.016z" fill="#fff"/></svg><svg fill="none" viewBox="0 0 24 25" id="checks_24" xmlns="http://www.w3.org/2000/svg"><path d="M18.236 7.598a.9.9 0 00-1.272-1.273L6.5 16.79l-4.464-4.464a.9.9 0 00-1.272 1.273l5.1 5.1a.9.9 0 001.272 0l11.1-11.1zM23.236 7.598a.9.9 0 10-1.272-1.273l-11.1 11.1a.9.9 0 101.272 1.273l11.1-11.1z" fill="#34C759"/></svg><svg viewBox="0 0 24 24" id="chevron" xmlns="http://www.w3.org/2000/svg"><path d="M16.7 10.3c-.4-.4-1-.4-1.4 0L12 13.6l-3.3-3.3c-.4-.4-1-.4-1.4 0-.4.4-.4 1 0 1.4l4 4c.2.2.4.3.7.3.3 0 .5-.1.7-.3l4-4c.4-.4.4-1 0-1.4z"/></svg><svg viewBox="0 0 24 24" id="chevron-big" xmlns="http://www.w3.org/2000/svg"><path d="M9.768 12l6.116 6.116a1.25 1.25 0 01-1.768 1.768l-7-7a1.25 1.25 0 010-1.768l7-7a1.25 1.25 0 011.768 1.768L9.768 12z"/></svg><svg viewBox="0 0 24 24" id="close" xmlns="http://www.w3.org/2000/svg"><path d="M13.4 12l4.3-4.3c.4-.4.4-1 0-1.4-.4-.4-1-.4-1.4 0L12 10.6 7.7 6.3c-.4-.4-1-.4-1.4 0-.4.4-.4 1 0 1.4l4.3 4.3-4.3 4.3c-.4.4-.4 1 0 1.4.2.2.4.3.7.3.3 0 .5-.1.7-.3l4.3-4.3 4.3 4.3c.2.2.5.3.7.3.2 0 .5-.1.7-.3.4-.4.4-1 0-1.4L13.4 12z"/></svg><svg viewBox="0 0 24 24" id="close-fill" xmlns="http://www.w3.org/2000/svg"><path fill-rule="evenodd" clip-rule="evenodd" d="M12 20a8 8 0 100-16 8 8 0 000 16zm3.544-11.544a.753.753 0 010 1.065L13.064 12l2.48 2.48a.753.753 0 01-1.065 1.064L12 13.064l-2.48 2.48a.753.753 0 11-1.064-1.065L10.936 12l-2.48-2.48A.753.753 0 019.52 8.457L12 10.936l2.48-2.48a.753.753 0 011.064 0z"/></svg><svg viewBox="0 0 17 17" id="comment" xmlns="http://www.w3.org/2000/svg"><path fill-rule="evenodd" clip-rule="evenodd" d="M8.34.748c4.33 0 7.839 3.159 7.839 7.056 0 3.896-3.51 7.055-7.84 7.055a8.65 8.65 0 01-2.278-.303c-.746.651-1.558 1.231-2.421 1.73-.134.078-.287.161-.46.248l-.272.136a.784.784 0 01-1.07-.997c.124-.308.222-.578.295-.81.224-.714.4-1.45.52-2.205C1.317 11.392.5 9.684.5 7.804.5 3.907 4.01.748 8.34.748z"/></svg><svg viewBox="0 0 24 25" id="copy" xmlns="http://www.w3.org/2000/svg"><path fill-rule="evenodd" clip-rule="evenodd" d="M13.497 19.86a2 2 0 002-2h-5c-1.943 0-3-1.188-3-2.984V7.86a2 2 0 00-2 2v8a2 2 0 002 2h6zm3.006-3h-6.006a2 2 0 01-2-2v-8a2 2 0 012-2h6.006a2 2 0 012 2v8a2 2 0 01-2 2z"/></svg><svg viewBox="0 0 17 17" id="cup" xmlns="http://www.w3.org/2000/svg"><path d="M11.5 15.748h-6a1 1 0 010-2h.636c0-.675.548-1.224 1.224-1.224h.14v-.876a5.014 5.014 0 01-3.603-2.945A4.003 4.003 0 01.5 4.748v-.1a1.9 1.9 0 011.9-1.9h1.1a2 2 0 012-2h6a2 2 0 012 2h1.1a1.9 1.9 0 011.9 1.9v.1a4.003 4.003 0 01-3.397 3.955A5.014 5.014 0 019.5 11.648v.876h.14c.676 0 1.224.549 1.224 1.224h.636a1 1 0 010 2zm-7.617-11H2.864a.364.364 0 00-.364.364c0 .805.653 1.458 1.457 1.458a.254.254 0 00.254-.254V5.077a.328.328 0 00-.328-.329zm8.903.329c0-.182.147-.329.328-.329h1.019c.201 0 .364.163.364.364 0 .805-.653 1.458-1.457 1.458a.254.254 0 01-.254-.254V5.077z"/></svg><svg viewBox="0 0 16 17" id="dollar" xmlns="http://www.w3.org/2000/svg"><path fill-rule="evenodd" clip-rule="evenodd" d="M6.997 1.879V1.5a1 1 0 012 0v.419c.313.046.623.112.926.203.51.152 1 .374 1.444.667.53.348.99.795 1.351 1.315.202.292.377.607.508.937.044.111.091.225.116.343a1.006 1.006 0 01-.15.766 1.008 1.008 0 01-1.362.285.993.993 0 01-.385-.45c-.035-.089-.066-.178-.103-.266a2.932 2.932 0 00-1.133-1.297 3.64 3.64 0 00-1.212-.472v3.434l.233.035c1.04.169 2.12.421 2.951 1.109a3.299 3.299 0 011.045 1.563c.107.345.162.706.177 1.067.011.263.001.527-.038.788a3.376 3.376 0 01-.456 1.255c-.428.699-1.104 1.203-1.85 1.522-.653.279-1.357.426-2.062.493v.284a1 1 0 01-2 0v-.301c-.999-.119-1.978-.424-2.8-1.014a4.353 4.353 0 01-.944-.913 4.268 4.268 0 01-.495-.833 4.698 4.698 0 01-.385-1.457 1.48 1.48 0 01-.009-.319 1 1 0 01.328-.639 1.008 1.008 0 011.342.01 1 1 0 01.311.577c.01.08.017.161.027.241.038.264.101.523.211.767.062.137.137.269.225.392.451.63 1.196.966 1.935 1.122.084.018.17.034.254.047V9.148a27.523 27.523 0 01-.49-.071c-.908-.151-1.847-.376-2.59-.949A2.951 2.951 0 012.9 6.693a3.578 3.578 0 01-.168-.952c-.02-.444.037-.887.186-1.308a3.387 3.387 0 011.05-1.478c.813-.668 1.868-.96 2.9-1.064.043-.005.086-.009.13-.012zm2 7.528v3.797a4.873 4.873 0 001.143-.267c.271-.102.534-.238.756-.427a1.363 1.363 0 00.483-.817c.04-.213.035-.436.01-.652a1.613 1.613 0 00-.209-.659 1.179 1.179 0 00-.202-.249 1.928 1.928 0 00-.564-.355 4.818 4.818 0 00-.957-.287 10.317 10.317 0 00-.46-.084zm-2-5.519a5.193 5.193 0 00-.774.142c-.266.072-.527.17-.763.313a1.551 1.551 0 00-.573.57c-.088.16-.14.339-.156.521-.009.105-.005.211.005.316.017.182.06.366.156.524.042.07.093.133.152.189.158.153.361.256.564.336.334.133.688.21 1.041.273.116.021.232.04.348.058V3.888z"/></svg><svg viewBox="0 0 24 24" id="download" xmlns="http://www.w3.org/2000/svg"><path fill-rule="evenodd" clip-rule="evenodd" d="M6.75 12.568l4.27-4.599c.229-.224.571-.448 1.028-.448.331 0 .589.177.793.317.077.053.146.1.209.131l4.34 4.659.114.112c.114.224.228.448.228.672 0 .56-.456 1.01-1.027 1.01h-2.397l.015 4.428c0 .56-.571 1.121-1.142 1.121L10.825 20c-.57 0-1.141-.56-1.141-1.121v-4.458l-2.364-.06c-.57 0-1.027-.448-1.027-1.008 0-.224.228-.56.457-.785zm10.964-6.282a1.143 1.143 0 000-2.286H6.286a1.143 1.143 0 100 2.286h11.428z"/></svg><svg viewBox="0 0 24 25" id="fullscreen" xmlns="http://www.w3.org/2000/svg"><path fill-rule="evenodd" clip-rule="evenodd" d="M14 5.62a.9.9 0 01.9-.9h4.2a.9.9 0 01.9.9v4.2a.9.9 0 11-1.8 0V7.794l-3.664 3.664a.9.9 0 11-1.272-1.273l3.663-3.663H14.9a.9.9 0 01-.9-.9zM10.736 13.984a.9.9 0 010 1.273L7.073 18.92h2.025a.9.9 0 010 1.8H4.9a.9.9 0 01-.9-.9v-4.2a.9.9 0 011.8 0v2.027l3.664-3.664a.9.9 0 011.272 0z"/></svg><svg fill="none" viewBox="0 0 24 24" id="gift" xmlns="http://www.w3.org/2000/svg"><mask id="ava" style="mask-type:luminance" maskUnits="userSpaceOnUse" x="4" y="4" width="16" height="16"><path d="M4 4h16v16H4V4z" fill="#fff"/></mask><g mask="url(#ava)"><path fill-rule="evenodd" clip-rule="evenodd" d="M6.914 4.78A2.666 2.666 0 018.8 4 3.731 3.731 0 0112 5.81 3.732 3.732 0 0115.2 4a2.666 2.666 0 012.666 2.666v.305c0 .478-.141.924-.385 1.295h.919a1.6 1.6 0 011.6 1.6v1.068a1.6 1.6 0 01-1.6 1.6h-5.866V8.266h2.971c.714 0 1.295-.58 1.295-1.295v-.305a1.6 1.6 0 00-1.6-1.6 2.667 2.667 0 00-2.666 2.668v.532h-1.068v-.532A2.668 2.668 0 008.8 5.066a1.6 1.6 0 00-1.6 1.6v.305c0 .716.58 1.295 1.295 1.295h2.971v4.268H5.6a1.6 1.6 0 01-1.6-1.6V9.866a1.6 1.6 0 011.6-1.6h.92a2.352 2.352 0 01-.386-1.295v-.305c0-.707.28-1.385.78-1.885zM5.066 13.6h6.4V20H7.734a2.666 2.666 0 01-2.668-2.666V13.6zm11.2 6.4h-3.732v-6.4h6.4v3.734A2.665 2.665 0 0116.266 20z" fill="#fff"/></g></svg><svg viewBox="0 0 24 25" id="information" xmlns="http://www.w3.org/2000/svg"><path fill-rule="evenodd" clip-rule="evenodd" d="M12 4.922c4.415 0 8 3.585 8 8s-3.585 8-8 8-8-3.585-8-8 3.585-8 8-8zm1.331 12a.996.996 0 000-1.993h-.333v-3.25c0-.443-.239-.757-.68-.757h-1.635a1.006 1.006 0 000 2.01h.312v1.997h-.341a.997.997 0 100 1.993h2.677zM12 7.58a1.342 1.342 0 110 2.684 1.342 1.342 0 010-2.684z"/></svg><svg fill="none" viewBox="0 0 24 24" id="menu" xmlns="http://www.w3.org/2000/svg"><path fill-rule="evenodd" clip-rule="evenodd" d="M18 16a1 1 0 010 2H6a1 1 0 010-2h12zm0-5a1 1 0 010 2H6a1 1 0 010-2h12zm0-5a1 1 0 010 2H6a1 1 0 010-2h12z" fill="#fff"/></svg><svg viewBox="0 0 17 17" id="one" xmlns="http://www.w3.org/2000/svg"><path fill-rule="evenodd" clip-rule="evenodd" d="M9.5 16.748H7.496c-3.862 0-6.997-3.585-6.997-8s3.135-8 6.997-8h2.002c3.865 0 7.001 3.585 7.001 8s-3.136 8-7 8zM7.496 2.489c2.896 0 5.247 2.804 5.247 6.259 0 3.455-2.35 6.259-5.247 6.259s-5.248-2.804-5.248-6.259c0-3.455 2.35-6.259 5.248-6.259zM8.5 12.748H6.499a1 1 0 010-2v-2.75a1.001 1.001 0 01-1-1.664l1.293-1.293a.996.996 0 01.404-.246H7.2a1.02 1.02 0 01.293-.047h.006l.05.001.016.001a.82.82 0 01.101.012l.017.003a.982.982 0 01.523.276c.15.148.241.331.276.523l.003.017a.82.82 0 01.012.101l.002.036v5.03H8.5a1 1 0 010 2z"/></svg><svg viewBox="0 0 17 17" id="phone" xmlns="http://www.w3.org/2000/svg"><path fill-rule="evenodd" clip-rule="evenodd" d="M7.101 1.441a1.23 1.23 0 011.507.874l.663 2.484a1.237 1.237 0 01-1.017 1.544l-1.17.24s-.703.103-.685.806c.021.89 1.503 3.468 2.26 3.932.598.366 1.037-.193 1.037-.193l.793-.898a1.229 1.229 0 011.84-.112l1.811 1.819a1.24 1.24 0 010 1.747s-1.082 1.133-2.425 1.956c-1.614.99-3.155.102-3.643-.144-1.148-.581-2.727-2.431-3.77-4.213l-.05-.085c-1.015-1.8-1.82-4.098-1.747-5.385.031-.548.036-2.332 1.696-3.241 1.382-.757 2.9-1.131 2.9-1.131z"/></svg><svg fill="none" viewBox="0 0 24 24" id="pin" xmlns="http://www.w3.org/2000/svg"><path fill-rule="evenodd" clip-rule="evenodd" d="M6.782 14.582a.863.863 0 011.379-.216l1.473 1.473a.866.866 0 01-.216 1.38l-4.275 2.194a.413.413 0 01-.556-.556l2.195-4.275zm6.521-7.559l-.184-.184a1.049 1.049 0 111.484-1.484l4.09 4.09a1.049 1.049 0 11-1.484 1.484l-.211-.21c-.527 1.031-1.387 2.486-2.692 4.114l.187.187c.78.78.78 2.047 0 2.828l-.088.088a.5.5 0 01-.707 0L6.092 10.33a.499.499 0 010-.707l.088-.088a2 2 0 012.828 0l.165.165c1.644-1.294 3.1-2.15 4.13-2.677z" fill="#fff"/></svg><svg viewBox="0 0 24 25" id="question" xmlns="http://www.w3.org/2000/svg"><path fill-rule="evenodd" clip-rule="evenodd" d="M12 4c4.415 0 8 3.585 8 8s-3.585 8-8 8-8-3.585-8-8 3.585-8 8-8zm-1.036 11.478a1.022 1.022 0 002.042 0 1.022 1.022 0 00-2.042 0zm1.152-7.957c-1.728 0-2.724 1.453-2.724 2.16 0 .314.171.812.734.812.432 0 .72-.314.733-.589.039-.275.327-.904 1.205-.904.628 0 1.204.445 1.204.995 0 1.1-2.147 1.188-2.147 2.812 0 .55.38.943.851.943a.872.872 0 00.877-.891c0-.88 2.069-1.018 2.069-2.903 0-1.375-1.27-2.435-2.802-2.435z"/></svg><svg viewBox="0 0 24 24" id="search" xmlns="http://www.w3.org/2000/svg"><path fill-rule="evenodd" clip-rule="evenodd" d="M15.245 17.15a6.964 6.964 0 01-3.91 1.194c-3.863 0-7-3.137-7-7s3.137-7 7-7 7 3.137 7 7a6.97 6.97 0 01-1.18 3.889l2.114 2.113a1.354 1.354 0 01-1.914 1.914l-2.11-2.11zm-3.91-10.329a4.524 4.524 0 014.523 4.523 4.524 4.524 0 01-4.523 4.523 4.524 4.524 0 01-4.523-4.523 4.524 4.524 0 014.523-4.523z"/></svg><svg viewBox="0 0 24 24" id="selected" xmlns="http://www.w3.org/2000/svg"><path fill-rule="evenodd" clip-rule="evenodd" d="M16.4 8.95c-.4-.4-1-.4-1.4 0l-4 4-2-2c-.4-.4-1-.4-1.4 0-.4.4-.4 1 0 1.4l2.7 2.7c.2.2.4.3.7.3.3 0 .5-.1.7-.3l4.7-4.7c.4-.4.4-1 0-1.4z"/></svg><svg viewBox="0 0 16 17" id="time" xmlns="http://www.w3.org/2000/svg"><g clip-path="url(#beclip0_1321_7909)"><circle cx="8" cy="8.5" r="8"/><path fill-rule="evenodd" clip-rule="evenodd" d="M8 3.7a.8.8 0 01.8.8V8.17l2.166 2.165a.8.8 0 11-1.132 1.132l-2.4-2.4A.8.8 0 017.2 8.5v-4a.8.8 0 01.8-.8z" fill="#232325"/></g><defs><clipPath id="beclip0_1321_7909"><path fill="#fff" transform="translate(0 .5)" d="M0 0h16v16H0z"/></clipPath></defs></svg><svg viewBox="0 0 24 25" id="verified" xmlns="http://www.w3.org/2000/svg"><path d="M20 12.922a2.97 2.97 0 00-1.71-2.607 2.957 2.957 0 00-.631-3.052 2.957 2.957 0 00-3.051-.632A2.953 2.953 0 0012 4.922a2.948 2.948 0 00-2.6 1.71 2.956 2.956 0 00-1.619-.119 2.95 2.95 0 00-1.439.751 2.947 2.947 0 00-.625 3.052A2.971 2.971 0 004 12.922a2.976 2.976 0 001.717 2.607 2.956 2.956 0 00.624 3.052 2.973 2.973 0 003.052.631A2.969 2.969 0 0012 20.922a2.959 2.959 0 002.607-1.709 2.839 2.839 0 003.683-3.684A2.967 2.967 0 0020 12.922zM10.86 16.2L7.942 13.28l1.101-1.108 1.764 1.764 3.747-4.082 1.146 1.06-4.838 5.285z"/></svg></svg>