<svg width="117" height="40" viewBox="0 0 117 40" fill="none" xmlns="http://www.w3.org/2000/svg">
<mask id="mask0_2368_2859" style="mask-type:luminance" maskUnits="userSpaceOnUse" x="0" y="0" width="92" height="40">
<path d="M91.2569 0H0.914062V40H91.2569V0Z" fill="white"/>
</mask>
<g mask="url(#mask0_2368_2859)">
<path fill-rule="evenodd" clip-rule="evenodd" d="M91.1924 0.130146C91.2525 0.202308 91.27 0.312579 91.231 0.375283C91.1486 0.507896 89.2806 2.81501 89.2014 2.88187C89.1722 2.90664 88.8055 3.35259 88.3865 3.87285C87.9677 4.39312 87.6008 4.83907 87.571 4.86384C87.5415 4.88861 87.1735 5.33456 86.7534 5.85485C86.3336 6.37512 85.9159 6.88104 85.8255 6.97925C85.7349 7.07736 85.6727 7.23952 85.6874 7.3396C85.7107 7.50304 85.7732 7.5196 86.3025 7.50285C87.5147 7.46448 89.5264 7.31736 89.722 7.25267C89.9523 7.17664 90.5613 7.26691 90.5613 7.37709C90.5613 7.4524 89.8274 7.65331 88.885 7.83611C88.586 7.89413 88.1782 7.97547 87.9789 8.01701C87.7793 8.05853 87.3717 8.13963 87.0725 8.1972C86.7736 8.25475 86.366 8.33584 86.1664 8.37736C85.9671 8.41891 85.5593 8.50053 85.2603 8.5588C84.9614 8.61709 84.6301 8.69835 84.5241 8.73925C84.3575 8.80368 83.06 10.3267 80.9566 12.9269C80.6361 13.3233 80.35 13.6679 80.321 13.6927C80.2918 13.7175 79.9253 14.1634 79.5063 14.6837C79.0875 15.2039 78.7203 15.6499 78.6908 15.6747C78.6611 15.6994 78.2941 16.1454 77.8754 16.6656C77.4563 17.186 77.0891 17.6319 77.0591 17.6566C76.8983 17.7895 75.7579 19.2612 75.6399 19.488C75.4813 19.7931 75.5057 19.8712 76.0555 20.8098C76.3749 21.3554 76.7121 21.9298 78.3154 24.6611C78.9906 25.811 80.0521 27.6264 80.5936 28.5576C80.7812 28.8797 81.2215 29.6296 81.5722 30.2243C82.4507 31.7125 82.553 31.9403 82.4164 32.1037C82.3561 32.176 82.0946 32.2565 81.8353 32.2829C81.576 32.3093 80.956 32.376 80.4578 32.4317C79.5826 32.5291 79.0389 32.5864 77.1051 32.7848C76.6066 32.836 76.0557 32.9024 75.8806 32.9323C75.4257 33.0099 75.1648 32.7688 74.6305 31.7763C74.3841 31.3192 73.9893 30.6003 73.7528 30.1792C73.257 29.2955 72.3897 27.724 71.8761 26.7781C71.6276 26.321 71.4698 26.1251 71.3494 26.1251C71.2309 26.1251 70.6493 26.8187 69.4796 28.3549C65.7032 33.3136 62.6845 37.2851 62.2506 37.8653C61.8565 38.3917 61.6878 38.532 61.0663 38.8504C60.2471 39.2699 60.1418 39.2899 56.898 39.6392C56.2268 39.7115 55.1555 39.8365 54.1093 39.9645C53.7004 40.0147 53.4092 39.9157 53.4092 39.7269C53.4092 39.6224 53.4506 39.5701 61.0168 30.0949C62.3398 28.4381 64.236 26.0665 65.2303 24.8246C68.324 20.9608 68.6487 20.5253 68.5945 20.3106C68.5677 20.2043 68.1104 19.2901 67.5787 18.2789C67.0467 17.2678 66.176 15.6094 65.6437 14.5936C65.1115 13.5778 64.5275 12.4832 64.3457 12.1612C64.164 11.8391 64.0144 11.463 64.0133 11.3256C64.0109 11.0454 64.1124 10.9881 65.0985 10.7123C65.7593 10.5275 66.7257 10.1579 66.7281 10.0891C66.7292 10.0643 66.0535 10.0577 65.2271 10.0744C64.4004 10.0911 63.6267 10.0805 63.5074 10.0507C63.2786 9.99363 62.8197 9.35192 62.4015 8.50429C62.1129 7.91899 62.1833 7.79547 62.8574 7.70736C63.1184 7.6732 63.5762 7.60979 63.8754 7.56637C64.372 7.49429 64.8644 7.42808 66.5485 7.20701C67.5675 7.07323 68.4861 6.93997 68.7808 6.88323C68.937 6.85304 69.1517 6.87456 69.2577 6.93107C69.3682 6.98989 69.6821 7.49285 69.9937 8.11088C70.2924 8.70339 70.5876 9.19272 70.6495 9.19811C70.7114 9.2036 71.3805 9.19981 72.1365 9.18965C73.4826 9.17179 73.8883 9.21285 73.8883 9.3672C73.8883 9.44432 73.6072 9.54221 72.3477 9.90392C71.3521 10.1899 71.2599 10.238 71.2638 10.4701C71.2668 10.656 71.7626 11.65 72.7928 13.535C73.0914 14.0815 73.2174 14.2326 73.3726 14.2306C73.5166 14.2286 73.8195 13.9178 74.4771 13.0977C74.9756 12.4761 75.4454 11.8996 75.5217 11.8166C75.5977 11.7336 75.9898 11.2602 76.3932 10.7648C76.7963 10.2692 77.2135 9.78635 77.3203 9.69168C77.4417 9.58373 78.2078 9.3448 79.3732 9.05123C80.3959 8.79368 81.2587 8.55701 81.2906 8.5252C81.4362 8.38069 81.1219 8.33024 79.9067 8.30312C78.5293 8.2724 78.4302 8.23547 78.761 7.87637C78.8495 7.78024 79.2656 7.276 79.6857 6.75573C80.1055 6.23547 80.4735 5.78952 80.503 5.76475C80.5328 5.73997 80.8997 5.29403 81.3187 4.77376C81.7375 4.25349 82.1045 3.80755 82.1342 3.78275C82.1637 3.75797 82.532 3.31205 82.9526 2.79179C83.6801 1.89141 83.8592 1.67709 84.4122 1.0442C84.6689 0.750328 84.5105 0.785192 86.7101 0.538165C87.1586 0.487805 87.8519 0.407355 88.2507 0.359336C88.6493 0.311317 89.3518 0.238524 89.8118 0.197534C90.2717 0.156633 90.6761 0.095191 90.7104 0.0610467C90.8167 -0.0448093 91.0774 -0.00742185 91.1924 0.130146Z" fill="#FFDB00"/>
<path fill-rule="evenodd" clip-rule="evenodd" d="M55.0874 5.72128C55.1931 5.82611 55.2218 5.95355 55.1836 6.14827C55.1535 6.30099 55.0884 6.70907 55.039 7.05515C54.9893 7.4012 54.9115 7.90683 54.866 8.17872C54.7138 9.08608 54.573 9.92869 54.5265 10.2091C54.4606 10.6067 54.696 10.8189 55.1232 10.7472C55.3018 10.7171 55.8356 10.6505 56.3091 10.5991C56.7826 10.5477 57.4961 10.4694 57.8949 10.4252C59.8681 10.2065 59.8341 10.2065 60.0783 10.4341C60.2021 10.5494 60.4181 10.8475 60.5582 11.0966C60.6985 11.3458 60.9886 11.8529 61.2028 12.2237C62.2845 14.0955 62.3153 14.1735 62.0555 14.3874C61.9763 14.4524 61.5381 14.5385 61.0814 14.5787C60.6246 14.6189 59.9042 14.6929 59.4807 14.7433C59.0569 14.7936 58.3639 14.8738 57.9401 14.9214C57.5165 14.969 56.8028 15.0496 56.3543 15.1004C55.9058 15.1513 55.233 15.2255 54.8594 15.2655C53.9751 15.3601 53.7009 15.4781 53.631 15.7936C53.6004 15.9313 53.5545 16.1046 53.529 16.1787C53.5032 16.2529 53.4455 16.5563 53.4004 16.8529C53.2943 17.5498 53.1737 18.246 53.0422 18.9203C52.9842 19.217 52.9037 19.6619 52.8631 19.9091C52.6691 21.0937 52.5875 21.5624 52.5033 21.9765C52.4531 22.2237 52.3681 22.6889 52.3144 23.0102C52.261 23.3316 52.1826 23.7967 52.1409 24.0439C52.0989 24.2911 52.0208 24.7563 51.9671 25.0776C51.9137 25.399 51.8273 25.8642 51.7755 26.1113C51.5563 27.1573 51.5624 27.4427 51.8146 27.9363C51.945 28.1915 52.1457 28.4613 52.2602 28.536C52.5293 28.7107 53.326 28.9491 53.4293 28.8856C53.4732 28.8587 53.8638 28.7971 54.2974 28.7485C54.7311 28.7 55.351 28.6251 55.6749 28.5821C56.4699 28.4763 57.6374 28.3373 58.5927 28.2347C59.0261 28.188 59.4201 28.1259 59.4679 28.0968C59.5976 28.0171 59.8431 28.1352 59.8431 28.2771C59.8431 28.4 57.1626 31.9859 56.5621 32.6667C56.2228 33.0512 56.1951 33.0587 54.3609 33.2603C53.9124 33.3096 53.2191 33.3893 52.8203 33.4371C50.5043 33.7155 49.641 33.7253 48.7796 33.4827C47.3748 33.0867 46.2518 31.8285 45.9622 30.3259C45.8092 29.5315 45.8121 29.4859 46.161 27.3699C46.2099 27.0731 46.2909 26.5473 46.3414 26.2012C46.3919 25.8552 46.4705 25.3495 46.516 25.0776C46.5617 24.8057 46.6462 24.3001 46.7038 23.954C46.7617 23.608 46.8433 23.1226 46.885 22.8754C46.927 22.6282 47.0086 22.1428 47.0665 21.7967C47.1242 21.4507 47.2087 20.945 47.2544 20.6731C47.2998 20.4012 47.3785 19.8956 47.429 19.5495C47.4794 19.2035 47.5581 18.6979 47.6041 18.4259C47.7383 17.6308 47.8613 16.8978 47.9731 16.2237C48.0305 15.8776 48.1145 15.372 48.1597 15.1001C48.2048 14.8282 48.2819 14.3428 48.3308 14.0214C48.4655 13.1376 48.6574 11.9572 48.8787 10.6507C48.9552 10.1993 49.0942 9.36859 49.2472 8.4484C49.2924 8.17648 49.3668 7.69109 49.4128 7.36973C49.5797 6.20147 49.6089 6.17064 50.6457 6.06555C50.9446 6.03528 51.4952 5.97315 51.869 5.92749C52.2426 5.88181 52.925 5.81099 53.3847 5.77011C53.8446 5.72928 54.249 5.668 54.2833 5.63392C54.4032 5.51499 54.938 5.57315 55.0874 5.72128ZM23.7336 10.0349C23.8282 10.1287 23.8617 10.2525 23.8248 10.3719C23.7927 10.4758 23.7311 10.8035 23.688 11.1001C23.589 11.7798 23.4379 12.7515 23.3313 13.3922C23.1784 14.3124 23.0394 15.1431 22.9629 15.5945C22.921 15.8417 22.8395 16.3271 22.7816 16.6731C22.7239 17.0192 22.6423 17.5046 22.6004 17.7518C22.5586 17.999 22.477 18.4844 22.4192 18.8305C22.3614 19.1765 22.2768 19.6821 22.2313 19.954C22.1857 20.2259 22.1072 20.7316 22.0567 21.0776C22.0063 21.4237 21.9278 21.9293 21.8822 22.2012C21.8366 22.4731 21.7521 22.9787 21.6943 23.3248C21.6365 23.6709 21.5549 24.1563 21.513 24.4035C21.4712 24.6507 21.3896 25.1361 21.3318 25.4821C21.274 25.8282 21.1895 26.3338 21.1439 26.6057C21.0983 26.8776 21.0198 27.3832 20.9694 27.7293C20.6787 29.7237 20.4172 31.0557 20.2057 31.6195C20.1273 31.8283 19.9993 32.1691 19.9213 32.3771C19.6312 33.1501 18.6315 34.5925 17.8455 35.372C16.6661 36.5421 15.1291 37.3963 13.3124 37.8912C12.8064 38.0291 12.3873 38.0888 10.5034 38.2923C9.35258 38.4168 8.11661 38.5563 7.33188 38.6507C6.93317 38.6987 6.23998 38.7792 5.79142 38.8296C5.3429 38.88 4.6293 38.9624 4.20567 39.0123C3.78207 39.0621 3.08884 39.1435 2.66521 39.1928C2.24161 39.2421 1.70915 39.3056 1.48207 39.3339C1.16528 39.3731 1.04059 39.3509 0.946354 39.2384C0.839699 39.1109 0.960852 38.8117 1.86818 36.9611C2.44268 35.7891 2.98564 34.6584 3.07481 34.448C3.16396 34.2376 3.2978 34.0152 3.37231 33.9536C3.44697 33.8917 3.91824 33.8139 4.42297 33.7795C4.92642 33.7453 5.78691 33.6725 6.33513 33.6176C6.88335 33.5627 7.69888 33.4813 8.14741 33.4371C8.59596 33.3931 9.41149 33.312 9.95971 33.2573C10.5079 33.2027 11.3234 33.1259 11.772 33.0864C12.7884 32.9968 13.1083 32.896 13.7274 32.4696C14.2941 32.0792 14.9273 31.2109 15.0281 30.6856C15.065 30.4933 15.1326 30.1541 15.1783 29.9315C15.224 29.7091 15.3019 29.2843 15.3512 28.9877C15.4006 28.6912 15.4822 28.2461 15.5325 27.9989C15.5828 27.7517 15.6643 27.3069 15.7137 27.0101C15.7631 26.7136 15.8444 26.2686 15.8941 26.0215C15.944 25.7743 16.0237 25.3495 16.0713 25.0776C16.1684 24.5222 16.3237 23.7056 16.4474 23.1001C16.4928 22.8776 16.5705 22.4529 16.6199 22.1563C16.6692 21.8597 16.7508 21.4147 16.8011 21.1675C16.8514 20.9203 16.9329 20.4754 16.9823 20.1787C17.0317 19.8821 17.1094 19.4574 17.1547 19.2349C17.6807 16.6597 17.7704 15.9825 17.6037 15.8474C17.4804 15.7475 16.5268 15.8021 14.8982 16.0025C14.1938 16.0891 12.9395 16.2338 12.1092 16.3242C11.5348 16.3867 11.3247 16.2644 11.4075 15.9157C11.4593 15.6978 11.6743 15.213 12.7261 12.9428C12.9666 12.4237 13.2105 11.8715 13.2678 11.7157C13.4644 11.1826 13.7443 11.017 14.5654 10.9479C15.3083 10.8854 16.4002 10.7682 17.7526 10.6057C18.9674 10.4597 20.8794 10.2484 22.4423 10.0874C22.8786 10.0424 23.2625 9.97885 23.2955 9.94613C23.3984 9.84411 23.5781 9.88051 23.7336 10.0349ZM42.6814 12.545C43.4794 12.7752 44.1065 13.3697 44.5901 14.3549C44.9049 14.9962 44.9079 15.0129 44.863 15.928C44.8377 16.4367 44.7766 17.0349 44.7269 17.2574C44.5792 17.9192 44.4237 18.7108 44.348 19.19C44.2834 19.598 44.1968 20.0484 43.9856 21.0776C43.9449 21.2754 43.8633 21.6799 43.8044 21.9765C43.7451 22.2731 43.6598 22.6979 43.6144 22.9203C43.5689 23.1428 43.4911 23.5675 43.4419 23.8642C43.1472 25.6324 43.1608 25.6151 41.9738 25.7281C40.8291 25.837 38.7335 26.0661 37.2348 26.2462C36.836 26.2941 36.1223 26.3765 35.649 26.4293C35.1755 26.4821 34.4823 26.5616 34.1084 26.6059C30.8197 26.9955 30.7187 27.0029 30.5976 26.8581C30.4897 26.7293 30.5285 26.3179 30.761 25.1226C30.8186 24.8259 30.8978 24.381 30.9369 24.1338C31.1138 23.017 31.2148 22.6062 31.3442 22.4779C31.4226 22.4001 31.7492 22.31 32.0935 22.2712C32.4294 22.2333 33.0711 22.1591 33.5196 22.1061C34.5105 21.9893 35.501 21.8809 36.6457 21.7641C37.4726 21.6798 38.0694 21.5643 38.2501 21.4535C38.3968 21.3637 38.865 19.4918 38.9681 18.5837L39.0265 18.0674L38.6086 17.6527C38.2111 17.2586 38.1715 17.2408 37.8032 17.2919C37.3541 17.3544 36.2971 17.4873 33.8366 17.7905C31.9237 18.0262 31.8969 18.0347 31.3556 18.5717C30.8532 19.0703 30.7543 19.31 30.5635 20.4934C30.5117 20.8147 30.4323 21.3001 30.3866 21.572C30.3409 21.8439 30.2625 22.3495 30.212 22.6956C30.1241 23.2996 30.0845 23.5445 29.8485 24.9428C29.79 25.2889 29.709 25.8147 29.6683 26.1113C29.5939 26.6536 29.4579 27.4864 29.2934 28.4035C29.2448 28.6755 29.1832 29.2664 29.1566 29.7168L29.108 30.5357L29.4016 30.8675C29.7908 31.3072 30.162 31.4912 30.5186 31.4211C30.7913 31.3675 31.5969 31.264 33.0211 31.0995C34.7297 30.9021 35.4713 30.8141 36.1021 30.7341C36.4757 30.6869 37.1145 30.6243 37.521 30.5955L38.2605 30.5429L39.0226 31.5632C40.856 34.0179 41.1764 34.4645 41.1764 34.5659C41.1764 34.7728 40.9445 34.8568 40.2249 34.9104C39.8263 34.9403 39.1737 35.0029 38.7752 35.0501C38.0575 35.1347 36.9146 35.2619 35.513 35.4133C35.1144 35.4565 34.4212 35.5379 33.9727 35.5944C33.5241 35.6509 32.8309 35.7323 32.432 35.7749C32.0335 35.8176 31.3198 35.8981 30.8463 35.9536C30.373 36.0093 29.6798 36.0907 29.3059 36.1344C28.9321 36.1784 28.2388 36.2555 27.7656 36.3056C27.2921 36.356 26.7753 36.4229 26.6169 36.4544C26.2904 36.5195 25.2596 36.2893 24.7752 36.0429C24.2617 35.7819 23.7756 35.2349 23.4401 34.5408C23.1346 33.9085 23.1277 33.8699 23.1755 33.0576C23.2024 32.5989 23.2673 31.9811 23.3196 31.6843C23.372 31.3877 23.4561 30.8619 23.5066 30.5157C23.5571 30.1699 23.6359 29.6643 23.6817 29.3923C23.892 28.1472 23.9663 27.6859 24.051 27.1C24.101 26.7541 24.1819 26.2282 24.2309 25.9316C24.3207 25.3857 24.4541 24.5416 24.5929 23.6394C24.6347 23.3675 24.7167 22.8619 24.7752 22.5158C24.8789 21.9017 24.9332 21.5565 25.1293 20.2686C25.3456 18.848 25.581 17.9797 25.9371 17.2899C26.3346 16.5197 27.1674 15.5243 27.8907 14.955C29.2429 13.8905 30.1743 13.5722 32.7493 13.2949C33.2228 13.2439 33.9363 13.167 34.3351 13.1238C34.7337 13.0808 35.4269 12.9993 35.8754 12.9428C36.9513 12.8073 37.9438 12.7008 39.0223 12.6054C39.5072 12.5624 39.9318 12.4995 39.9664 12.4654C40.0934 12.3393 42.18 12.4004 42.6814 12.545Z" fill="white"/>
</g>
<g clip-path="url(#clip0_2368_2859)">
<path d="M105 24C111.627 24 117 18.6274 117 12C117 5.37258 111.627 0 105 0C98.3726 0 93 5.37258 93 12C93 18.6274 98.3726 24 105 24Z" fill="#F0F0F0"/>
<path d="M117 12C117 6.84047 113.743 2.44191 109.174 0.746437V23.2537C113.743 21.5581 117 17.1596 117 12Z" fill="#D80027"/>
<path d="M93 12C93 17.1596 96.2565 21.5581 100.826 23.2537V0.746437C96.2565 2.44191 93 6.84047 93 12Z" fill="#D80027"/>
</g>
<rect x="94" y="1" width="22" height="22" rx="11" stroke="white" stroke-width="2"/>
<defs>
<clipPath id="clip0_2368_2859">
<rect x="93" width="24" height="24" rx="12" fill="white"/>
</clipPath>
</defs>
</svg>
