<svg width="156" height="37" viewBox="0 0 156 37" fill="none" xmlns="http://www.w3.org/2000/svg">
<path fill-rule="evenodd" clip-rule="evenodd" d="M8.5 1.30957C6.51088 1.30957 4.60322 2.09975 3.1967 3.50627C1.79018 4.91279 1 6.82045 1 8.80957V28.8096C1 30.7987 1.79018 32.7064 3.1967 34.1129C4.60322 35.5194 6.51088 36.3096 8.5 36.3096H147.5C149.489 36.3096 151.397 35.5194 152.803 34.1129C154.21 32.7064 155 30.7987 155 28.8096V8.80957C155 6.82045 154.21 4.91279 152.803 3.50627C151.397 2.09975 149.489 1.30957 147.5 1.30957H8.5Z" fill="#ECEDF3" stroke="url(#paint0_linear_1340_2626)"/>
<path fill-rule="evenodd" clip-rule="evenodd" d="M45.8601 13.8016V17.8096H43.5161V6.43457H47.9531C48.8071 6.43457 49.5591 6.59057 50.2071 6.90357C50.8551 7.21557 51.3541 7.65957 51.7031 8.23557C52.0531 8.81057 52.2271 9.46557 52.2271 10.2006C52.2271 11.3146 51.8451 12.1936 51.0821 12.8366C50.3191 13.4806 49.2631 13.8016 47.9141 13.8016H45.8601ZM45.8601 11.9036H47.9531C48.5731 11.9036 49.0461 11.7576 49.3711 11.4656C49.6971 11.1746 49.8591 10.7576 49.8591 10.2156C49.8591 9.65857 49.6951 9.20757 49.3671 8.86457C49.0391 8.52057 48.5861 8.34357 48.0071 8.33257H45.8601V11.9036ZM58.4381 11.4736C58.1688 11.4349 57.8972 11.4142 57.6251 11.4116C56.7711 11.4116 56.2111 11.7006 55.9451 12.2786V17.8096H53.6871V9.35657H55.8201L55.8831 10.3646C56.3361 9.58857 56.9631 9.20057 57.7661 9.20057C58.0161 9.20057 58.2501 9.23357 58.4691 9.30157L58.4381 11.4736ZM59.1721 13.5046C59.1721 12.6666 59.3331 11.9186 59.6561 11.2626C59.9597 10.6277 60.4453 10.0976 61.0511 9.73957C61.6581 9.37957 62.3621 9.19957 63.1641 9.19957C64.3041 9.19957 65.2361 9.54957 65.9571 10.2466C66.6781 10.9446 67.0811 11.8926 67.1641 13.0906L67.1801 13.6686C67.1801 14.9656 66.8181 16.0066 66.0941 16.7896C65.3701 17.5736 64.3981 17.9656 63.1801 17.9656C61.9601 17.9656 60.9881 17.5756 60.2621 16.7936C59.5351 16.0136 59.1721 14.9506 59.1721 13.6066V13.5046ZM61.4301 13.6686C61.4301 14.4706 61.5801 15.0846 61.8831 15.5086C62.1851 15.9336 62.6171 16.1456 63.1801 16.1456C63.7271 16.1456 64.1541 15.9356 64.4601 15.5166C64.7681 15.0966 64.9221 14.4266 64.9221 13.5046C64.9221 12.7186 64.7681 12.1086 64.4611 11.6766C64.1541 11.2446 63.7211 11.0286 63.1641 11.0286C62.6121 11.0286 62.1841 11.2436 61.8831 11.6726C61.5811 12.1026 61.4301 12.7676 61.4301 13.6686ZM71.7341 15.0516L73.3041 9.35657H75.6641L72.8121 17.8096H70.6561L67.8051 9.35657H70.1651L71.7341 15.0516ZM81.5541 17.8096C81.4391 17.5705 81.3629 17.3146 81.3281 17.0516C80.7811 17.6616 80.0701 17.9656 79.1951 17.9656C78.3671 17.9656 77.6811 17.7256 77.1371 17.2476C76.8746 17.0252 76.6651 16.747 76.5237 16.4334C76.3824 16.1198 76.3128 15.7785 76.3201 15.4346C76.3201 14.5386 76.6521 13.8516 77.3161 13.3716C77.9801 12.8926 78.9401 12.6516 80.1961 12.6456H81.2341V12.1616C81.2341 11.7706 81.1341 11.4576 80.9341 11.2236C80.7341 10.9896 80.4171 10.8726 79.9841 10.8726C79.6041 10.8726 79.3061 10.9626 79.0901 11.1456C78.8741 11.3276 78.7661 11.5776 78.7661 11.8956H76.5081C76.5081 11.4056 76.6581 10.9526 76.9611 10.5356C77.2631 10.1196 77.6911 9.79257 78.2421 9.55557C78.7941 9.31857 79.4141 9.20057 80.1021 9.20057C81.1431 9.20057 81.9701 9.46157 82.5821 9.98557C83.1941 10.5086 83.5001 11.2446 83.5001 12.1926V15.8566C83.5051 16.6586 83.6171 17.2656 83.8361 17.6766V17.8096H81.5541ZM79.6871 16.2396C80.0211 16.2396 80.3281 16.1646 80.6091 16.0166C80.8911 15.8686 81.0991 15.6686 81.2341 15.4186V13.9656H80.3911C79.2611 13.9656 78.6591 14.3556 78.5861 15.1376L78.5781 15.2706C78.5781 15.5516 78.6781 15.7836 78.8751 15.9656C79.0731 16.1486 79.3441 16.2396 79.6881 16.2396H79.6871ZM92.8521 13.6616C92.8521 15.0156 92.5621 16.0716 91.9841 16.8296C91.4061 17.5866 90.5991 17.9656 89.5631 17.9656C88.6461 17.9656 87.9141 17.6146 87.3671 16.9116L87.2661 17.8096H85.2341V5.80957H87.4921V10.1146C88.0131 9.50457 88.6981 9.20057 89.5471 9.20057C90.5781 9.20057 91.3871 9.57957 91.9731 10.3366C92.5591 11.0946 92.8521 12.1616 92.8521 13.5366V13.6616ZM90.5941 13.4966C90.5941 12.6426 90.4581 12.0196 90.1881 11.6266C89.9171 11.2326 89.5131 11.0366 88.9771 11.0366C88.2571 11.0366 87.7631 11.3306 87.4921 11.9186V15.2546C87.7681 15.8486 88.2681 16.1446 88.9921 16.1446C89.7221 16.1446 90.2011 15.7866 90.4301 15.0676C90.5401 14.7236 90.5941 14.1996 90.5941 13.4966ZM96.6251 17.8096H94.3591V5.80957H96.6251V17.8096ZM101.641 14.6146L103.203 9.35657H105.625L102.227 19.1216L102.039 19.5676C101.534 20.6716 100.701 21.2236 99.5391 21.2236C99.2111 21.2236 98.8781 21.1736 98.5391 21.0756V19.3646L98.8831 19.3726C99.3101 19.3726 99.6291 19.3066 99.8401 19.1766C100.05 19.0466 100.216 18.8306 100.336 18.5286L100.602 17.8326L97.6411 9.35657H100.071L101.641 14.6146ZM117.492 13.1616H112.992V17.8096H110.648V6.43457H118.055V8.33257H112.992V11.2706H117.492V13.1606V13.1616ZM124.164 17.8096C124.049 17.5705 123.972 17.3147 123.937 17.0516C123.391 17.6616 122.68 17.9656 121.805 17.9656C120.977 17.9656 120.29 17.7256 119.746 17.2476C119.484 17.0251 119.274 16.7469 119.133 16.4333C118.992 16.1196 118.923 15.7784 118.93 15.4346C118.93 14.5386 119.262 13.8516 119.926 13.3716C120.59 12.8926 121.549 12.6516 122.805 12.6456H123.844V12.1616C123.844 11.7706 123.744 11.4576 123.543 11.2236C123.343 10.9896 123.026 10.8726 122.593 10.8726C122.213 10.8726 121.915 10.9626 121.699 11.1456C121.483 11.3276 121.375 11.5776 121.375 11.8956H119.117C119.117 11.4056 119.268 10.9526 119.57 10.5356C119.872 10.1196 120.3 9.79257 120.852 9.55557C121.404 9.31857 122.023 9.20057 122.711 9.20057C123.753 9.20057 124.579 9.46157 125.191 9.98557C125.803 10.5086 126.109 11.2446 126.109 12.1926V15.8566C126.115 16.6586 126.227 17.2656 126.445 17.6766V17.8096H124.164ZM122.297 16.2396C122.63 16.2396 122.937 16.1646 123.219 16.0166C123.5 15.8686 123.709 15.6686 123.844 15.4186V13.9656H123C121.87 13.9656 121.268 14.3556 121.195 15.1376L121.188 15.2706C121.188 15.5516 121.286 15.7836 121.484 15.9656C121.682 16.1486 121.954 16.2396 122.297 16.2396ZM130.227 17.8096H127.961V9.35657H130.227V17.8096ZM127.828 7.16957C127.828 6.82957 127.941 6.55157 128.168 6.33257C128.395 6.11457 128.703 6.00457 129.094 6.00457C129.479 6.00457 129.786 6.11457 130.016 6.33257C130.245 6.55257 130.359 6.83057 130.359 7.16857C130.359 7.51257 130.243 7.79357 130.012 8.01257C129.78 8.23157 129.474 8.34057 129.094 8.34057C128.714 8.34057 128.408 8.23057 128.176 8.01257C128.061 7.90468 127.971 7.77361 127.911 7.62808C127.851 7.48255 127.823 7.3269 127.828 7.16957ZM136.836 11.4736C136.567 11.4349 136.295 11.4142 136.023 11.4116C135.169 11.4116 134.609 11.7006 134.343 12.2786V17.8096H132.086V9.35657H134.219L134.281 10.3646C134.734 9.58857 135.362 9.20057 136.164 9.20057C136.414 9.20057 136.648 9.23357 136.867 9.30157L136.836 11.4736ZM67.3851 23.2046H64.6431V30.8096H63.5231V23.2046H60.7871V22.2786H67.3851V23.2046ZM71.1111 30.9266C70.2511 30.9266 69.5531 30.6446 69.0141 30.0806C68.4741 29.5156 68.2051 28.7606 68.2051 27.8156V27.6156C68.2051 26.9876 68.3251 26.4256 68.5651 25.9316C68.8051 25.4376 69.1421 25.0516 69.5731 24.7716C70.0051 24.4916 70.4731 24.3526 70.9771 24.3526C71.8011 24.3526 72.4411 24.6236 72.8981 25.1666C73.3551 25.7096 73.5841 26.4866 73.5841 27.4986V27.9506H69.2891C69.3051 28.5756 69.4871 29.0806 69.8371 29.4646C70.1871 29.8496 70.6311 30.0416 71.1701 30.0416C71.5531 30.0416 71.8771 29.9636 72.1431 29.8076C72.4081 29.6516 72.6411 29.4446 72.8401 29.1866L73.5021 29.7026C72.9711 30.5186 72.1731 30.9266 71.1111 30.9266ZM70.9771 25.2436C70.5391 25.2436 70.1721 25.4026 69.8751 25.7206C69.5781 26.0386 69.3951 26.4856 69.3251 27.0596H72.5001V26.9776C72.4691 26.4276 72.3201 25.9996 72.0551 25.6976C71.7891 25.3946 71.4301 25.2436 70.9771 25.2436ZM77.3811 30.0416C77.7681 30.0416 78.1051 29.9246 78.3951 29.6906C78.6841 29.4556 78.8441 29.1636 78.8751 28.8116H79.9001C79.8801 29.1746 79.7561 29.5206 79.5251 29.8486C79.2877 30.1827 78.9708 30.4525 78.6031 30.6336C78.225 30.8273 77.806 30.9278 77.3811 30.9266C76.5181 30.9266 75.8311 30.6386 75.3211 30.0626C74.8111 29.4866 74.5571 28.6986 74.5571 27.6986V27.5166C74.5571 26.8996 74.6701 26.3506 74.8971 25.8706C75.1231 25.3906 75.4481 25.0166 75.8721 24.7506C76.2961 24.4856 76.7971 24.3526 77.3751 24.3526C78.0851 24.3526 78.6771 24.5656 79.1471 24.9916C79.6181 25.4166 79.8691 25.9696 79.9001 26.6496H78.8751C78.8556 26.2655 78.6887 25.9037 78.4091 25.6396C78.1304 25.376 77.7586 25.2336 77.3751 25.2436C76.8251 25.2436 76.3971 25.4416 76.0951 25.8376C75.7921 26.2346 75.6411 26.8076 75.6411 27.5576V27.7626C75.6411 28.4926 75.7911 29.0556 76.0911 29.4506C76.3931 29.8446 76.8221 30.0416 77.3811 30.0416ZM82.2031 25.2376C82.6831 24.6476 83.3091 24.3526 84.0781 24.3526C85.4181 24.3526 86.0941 25.1086 86.1051 26.6206V30.8096H85.0211V26.6146C85.0181 26.1576 84.9131 25.8196 84.7081 25.6006C84.5031 25.3816 84.1841 25.2726 83.7501 25.2726C83.3981 25.2726 83.0901 25.3666 82.8241 25.5536C82.5578 25.7425 82.3443 25.9966 82.2041 26.2916V30.8096H81.1191V21.8096H82.2031V25.2376ZM88.7531 24.4696L88.7891 25.2666C89.2731 24.6566 89.9061 24.3526 90.6871 24.3526C92.0271 24.3526 92.7031 25.1086 92.7151 26.6206V30.8096H91.6301V26.6146C91.6261 26.1576 91.5211 25.8196 91.3161 25.6006C91.1111 25.3816 90.7921 25.2726 90.3581 25.2726C90.0071 25.2726 89.6981 25.3666 89.4331 25.5536C89.1664 25.7424 88.9526 25.9965 88.8121 26.2916V30.8096H87.7281V24.4696H88.7531ZM94.0631 27.5806C94.0631 26.9606 94.1851 26.4006 94.4291 25.9056C94.6522 25.4329 95.0062 25.0341 95.4491 24.7566C95.8841 24.4866 96.3811 24.3526 96.9391 24.3526C97.8031 24.3526 98.5011 24.6516 99.0341 25.2486C99.5671 25.8466 99.8341 26.6416 99.8341 27.6336V27.7096C99.8341 28.3276 99.7161 28.8806 99.4791 29.3716C99.2431 29.8616 98.9051 30.2436 98.4661 30.5166C98.0261 30.7896 97.5211 30.9266 96.9511 30.9266C96.0911 30.9266 95.3961 30.6276 94.8621 30.0306C94.3291 29.4326 94.0621 28.6416 94.0621 27.6576V27.5806H94.0631ZM95.1531 27.7106C95.1531 28.4136 95.3151 28.9776 95.6421 29.4036C95.9681 29.8296 96.4041 30.0416 96.9521 30.0416C97.5021 30.0416 97.9391 29.8266 98.2641 29.3946C98.5881 28.9626 98.7501 28.3586 98.7501 27.5806C98.7501 26.8856 98.5851 26.3226 98.2551 25.8906C98.1047 25.684 97.9063 25.5172 97.6771 25.4044C97.4478 25.2917 97.1945 25.2365 96.9391 25.2436C96.4041 25.2436 95.9731 25.4556 95.6451 25.8816C95.3161 26.3076 95.1521 26.9166 95.1521 27.7096L95.1531 27.7106ZM102.37 30.8096H101.286V21.8096H102.37V30.8096ZM103.817 27.5806C103.817 26.9606 103.939 26.4006 104.184 25.9056C104.407 25.4329 104.761 25.0341 105.204 24.7566C105.639 24.4866 106.136 24.3526 106.694 24.3526C107.558 24.3526 108.256 24.6516 108.789 25.2486C109.322 25.8466 109.589 26.6416 109.589 27.6336V27.7096C109.589 28.3276 109.471 28.8806 109.234 29.3716C108.998 29.8616 108.66 30.2436 108.221 30.5166C107.781 30.7896 107.276 30.9266 106.706 30.9266C105.846 30.9266 105.15 30.6276 104.617 30.0306C104.084 29.4326 103.817 28.6416 103.817 27.6576V27.5806ZM104.907 27.7106C104.907 28.4136 105.07 28.9776 105.397 29.4036C105.723 29.8296 106.159 30.0416 106.706 30.0416C107.256 30.0416 107.694 29.8266 108.019 29.3946C108.343 28.9626 108.505 28.3586 108.505 27.5806C108.505 26.8856 108.34 26.3226 108.01 25.8906C107.86 25.684 107.661 25.5172 107.432 25.4044C107.203 25.2917 106.95 25.2365 106.694 25.2436C106.159 25.2436 105.728 25.4556 105.399 25.8816C105.071 26.3076 104.907 26.9176 104.907 27.7106ZM110.69 27.5866C110.69 26.5986 110.919 25.8126 111.376 25.2286C111.833 24.6446 112.438 24.3526 113.192 24.3526C113.966 24.3526 114.569 24.6256 115.002 25.1726L115.056 24.4696H116.046V30.6576C116.046 31.4776 115.803 32.1236 115.316 32.5976C114.83 33.0696 114.176 33.3056 113.356 33.3056C112.893 33.3042 112.436 33.2043 112.015 33.0126C111.577 32.8176 111.243 32.5496 111.013 32.2096L111.575 31.5596C112.04 32.1336 112.608 32.4206 113.28 32.4206C113.808 32.4206 114.219 32.2726 114.514 31.9756C114.809 31.6786 114.956 31.2606 114.956 30.7216V30.1766C114.522 30.6766 113.931 30.9266 113.181 30.9266C112.438 30.9266 111.838 30.6276 111.379 30.0306C110.919 29.4326 110.69 28.6186 110.69 27.5866ZM111.78 27.7096C111.78 28.4246 111.927 28.9866 112.22 29.3946C112.513 29.8026 112.923 30.0066 113.45 30.0066C114.134 30.0066 114.636 29.6966 114.956 29.0756V26.1796C114.624 25.5746 114.126 25.2716 113.462 25.2716C112.935 25.2716 112.522 25.4766 112.226 25.8866C111.929 26.2966 111.78 26.9056 111.78 27.7096ZM119.755 29.2216L121.231 24.4696H122.391L119.843 31.7886C119.448 32.8426 118.821 33.3706 117.962 33.3706L117.757 33.3526L117.353 33.2766V32.3966L117.645 32.4206C118.013 32.4206 118.299 32.3466 118.504 32.1986C118.709 32.0496 118.878 31.7786 119.011 31.3836L119.251 30.7396L116.989 24.4696H118.173L119.755 29.2216Z" fill="#0D1C2D"/>
<path d="M34.2632 10.2898C30.6235 9.28279 27.1316 7.80249 23.8772 5.88681C23.7931 5.8372 23.6973 5.81104 23.5997 5.81104C23.502 5.81104 23.4062 5.8372 23.3222 5.88681C20.074 7.81503 16.5805 9.29606 12.9362 10.2898C12.821 10.3215 12.7194 10.3902 12.6469 10.4852C12.5745 10.5802 12.5352 10.6963 12.5352 10.8158V16.3938C12.5352 22.1368 15.1852 25.9388 17.4072 28.1168C19.8002 30.4618 22.5872 31.7578 23.6002 31.7578C24.6122 31.7578 27.4002 30.4618 29.7922 28.1168C32.0152 25.9388 34.6642 22.1368 34.6642 16.3938V10.8168C34.6641 10.6973 34.6248 10.5812 34.5524 10.4862C34.4799 10.3912 34.3783 10.3215 34.2632 10.2898ZM33.5732 16.3948C33.5732 21.7588 31.1012 25.3068 29.0282 27.3378C26.6752 29.6438 24.1582 30.6678 23.6002 30.6678C23.0402 30.6678 20.5242 29.6438 18.1702 27.3378C16.0982 25.3068 13.6262 21.7588 13.6262 16.3948V11.2318C17.1166 10.2436 20.4679 8.81763 23.6002 6.98781C26.7385 8.80455 30.0879 10.2295 33.5732 11.2308V16.3948Z" fill="url(#paint1_linear_1340_2626)"/>
<path d="M18.7613 11.1698C18.708 11.0352 18.6036 10.9273 18.4708 10.8698C18.3381 10.8122 18.1879 10.8097 18.0533 10.8628C17.0744 11.2482 16.0821 11.5988 15.0783 11.9138C14.9676 11.9486 14.8709 12.0178 14.8023 12.1113C14.7336 12.2048 14.6965 12.3178 14.6963 12.4338V14.5428C14.6963 14.6876 14.7538 14.8265 14.8562 14.9289C14.9586 15.0313 15.0975 15.0888 15.2423 15.0888C15.3871 15.0888 15.526 15.0313 15.6284 14.9289C15.7308 14.8265 15.7883 14.6876 15.7883 14.5428V12.8328C16.6843 12.5428 17.5783 12.2228 18.4533 11.8778C18.5878 11.8247 18.6957 11.7205 18.7534 11.588C18.8112 11.4554 18.814 11.3044 18.7613 11.1698Z" fill="url(#paint2_linear_1340_2626)"/>
<path d="M19.7982 11.274C19.8736 11.274 19.9482 11.2583 20.0172 11.228L20.0272 11.224C20.1597 11.1657 20.2636 11.0571 20.316 10.9221C20.3684 10.7872 20.3651 10.637 20.3067 10.5045C20.2484 10.372 20.1398 10.2682 20.0048 10.2157C19.8699 10.1633 19.7197 10.1667 19.5872 10.225L19.5772 10.229C19.4619 10.279 19.3674 10.3673 19.3098 10.479C19.2521 10.5907 19.2348 10.7188 19.2608 10.8418C19.2868 10.9648 19.3545 11.0749 19.4525 11.1537C19.5504 11.2325 19.6725 11.275 19.7982 11.274Z" fill="url(#paint3_linear_1340_2626)"/>
<path d="M30.1031 23.4109C30.0431 23.3717 29.9759 23.3446 29.9054 23.3313C29.8349 23.318 29.7625 23.3187 29.6923 23.3333C29.6221 23.348 29.5555 23.3764 29.4963 23.4168C29.437 23.4572 29.3863 23.5089 29.3471 23.5689C28.8971 24.2579 28.3701 24.9169 27.7791 25.5289C27.2931 26.0319 26.7661 26.4999 26.2131 26.9219C26.1021 27.0112 26.0304 27.1402 26.0133 27.2815C25.9961 27.4229 26.0348 27.5653 26.1211 27.6785C26.2075 27.7917 26.3346 27.8667 26.4754 27.8875C26.6163 27.9083 26.7597 27.8733 26.8751 27.7899C27.4711 27.3349 28.0391 26.8299 28.5641 26.2879C29.2031 25.6269 29.7741 24.9129 30.2611 24.1669C30.3003 24.1069 30.3274 24.0398 30.3407 23.9693C30.3541 23.8988 30.3534 23.8264 30.3387 23.7562C30.324 23.686 30.2957 23.6194 30.2552 23.5601C30.2148 23.5009 30.1631 23.4502 30.1031 23.4109Z" fill="url(#paint4_linear_1340_2626)"/>
<path d="M24.945 27.7778L24.915 27.7958C24.7947 27.8707 24.7083 27.9894 24.674 28.1268C24.6397 28.2643 24.6601 28.4097 24.731 28.5323C24.8018 28.655 24.9176 28.7453 25.0538 28.7842C25.19 28.8231 25.336 28.8075 25.461 28.7408L25.497 28.7198C25.5602 28.6843 25.6157 28.6365 25.6603 28.5793C25.7049 28.522 25.7376 28.4565 25.7566 28.3865C25.7755 28.3165 25.7804 28.2434 25.7707 28.1715C25.7611 28.0996 25.7373 28.0303 25.7006 27.9677C25.664 27.9051 25.6152 27.8505 25.5571 27.807C25.4991 27.7634 25.433 27.7319 25.3626 27.7142C25.2923 27.6965 25.2191 27.6931 25.1474 27.704C25.0757 27.7149 25.0069 27.74 24.945 27.7778Z" fill="url(#paint5_linear_1340_2626)"/>
<path d="M19.879 17.67C19.7146 17.5047 19.519 17.3735 19.3036 17.2843C19.0882 17.195 18.8572 17.1494 18.624 17.15C18.2734 17.151 17.9309 17.2557 17.6397 17.4509C17.3485 17.6461 17.1215 17.9231 16.9873 18.247C16.8531 18.5709 16.8178 18.9273 16.8857 19.2713C16.9536 19.6152 17.1218 19.9314 17.369 20.18L20.592 23.404C20.927 23.739 21.372 23.924 21.847 23.924C22.321 23.924 22.767 23.739 23.102 23.404L29.831 16.675C30.0783 16.4264 30.2465 16.1101 30.3144 15.766C30.3822 15.422 30.3468 15.0655 30.2125 14.7416C30.0782 14.4176 29.8511 14.1406 29.5597 13.9455C29.2683 13.7504 28.9257 13.6458 28.575 13.645C28.101 13.645 27.655 13.83 27.32 14.165L21.847 19.64L19.879 17.67ZM28.092 14.937C28.222 14.808 28.392 14.737 28.575 14.737C28.758 14.737 28.93 14.808 29.059 14.937C29.325 15.203 29.325 15.637 29.059 15.903L22.33 22.632C22.201 22.761 22.03 22.832 21.847 22.832C21.7573 22.8322 21.6684 22.8146 21.5855 22.7803C21.5026 22.746 21.4273 22.6956 21.364 22.632L18.14 19.409C18.0228 19.2788 17.9599 19.1086 17.9645 18.9334C17.9691 18.7583 18.0407 18.5915 18.1646 18.4676C18.2885 18.3437 18.4552 18.2721 18.6304 18.2675C18.8056 18.263 18.9758 18.3258 19.106 18.443L21.46 20.797C21.5624 20.8994 21.7012 20.9569 21.846 20.9569C21.9908 20.9569 22.1296 20.8994 22.232 20.797L28.092 14.937Z" fill="url(#paint6_linear_1340_2626)"/>
<defs>
<linearGradient id="paint0_linear_1340_2626" x1="10372" y1="1656.91" x2="6062.72" y2="4342.33" gradientUnits="userSpaceOnUse">
<stop stop-color="#57B314"/>
<stop offset="1" stop-color="#1F9F04"/>
</linearGradient>
<linearGradient id="paint1_linear_1340_2626" x1="233.073" y1="5.81104" x2="2175.49" y2="5.81104" gradientUnits="userSpaceOnUse">
<stop stop-color="#57B314"/>
<stop offset="1" stop-color="#1E9F04"/>
</linearGradient>
<linearGradient id="paint2_linear_1340_2626" x1="55.5828" y1="10.8247" x2="415.697" y2="10.8247" gradientUnits="userSpaceOnUse">
<stop stop-color="#57B314"/>
<stop offset="1" stop-color="#1E9F04"/>
</linearGradient>
<linearGradient id="paint3_linear_1340_2626" x1="30.2514" y1="10.1787" x2="127.156" y2="10.1787" gradientUnits="userSpaceOnUse">
<stop stop-color="#57B314"/>
<stop offset="1" stop-color="#1E9F04"/>
</linearGradient>
<linearGradient id="paint4_linear_1340_2626" x1="69.2712" y1="23.3218" x2="450.307" y2="23.3218" gradientUnits="userSpaceOnUse">
<stop stop-color="#57B314"/>
<stop offset="1" stop-color="#1E9F04"/>
</linearGradient>
<linearGradient id="paint5_linear_1340_2626" x1="35.7981" y1="27.6978" x2="133.919" y2="27.6978" gradientUnits="userSpaceOnUse">
<stop stop-color="#57B314"/>
<stop offset="1" stop-color="#1E9F04"/>
</linearGradient>
<linearGradient id="paint6_linear_1340_2626" x1="151.352" y1="13.645" x2="1335.98" y2="13.645" gradientUnits="userSpaceOnUse">
<stop stop-color="#57B314"/>
<stop offset="1" stop-color="#1E9F04"/>
</linearGradient>
</defs>
</svg>
