<svg width="26" height="41" viewBox="0 0 26 41" fill="none" xmlns="http://www.w3.org/2000/svg">
<g clip-path="url(#clip0_2057_7739)">
<path d="M1.85873 17.7985C1.81501 17.8785 1.71425 18.1543 1.63631 18.4154C1.55646 18.6744 1.46711 19.0155 1.43479 19.1734C1.40057 19.3313 1.35875 19.5439 1.33784 19.645L1.29982 19.8324C1.18955 19.466 1.0945 19.2281 1.01655 19.0681C0.938608 18.9081 0.816938 18.706 0.746598 18.6217C0.676258 18.5354 0.60972 18.468 0.602116 18.4744C0.594511 18.4786 0.571698 18.5796 0.550786 18.7017C0.52227 18.8786 0.526072 19.0302 0.567896 19.4934C0.594511 19.8092 0.636335 20.1355 0.659148 20.2198C0.681962 20.304 0.710477 20.4556 0.723785 20.5566C0.73519 20.6598 0.765609 20.8261 0.790323 20.9272C0.813136 21.0304 0.858762 21.2198 0.891081 21.3504C0.921498 21.4788 1.00134 21.7694 1.06788 21.9904C1.13442 22.2136 1.20666 22.441 1.22757 22.4978C1.24658 22.5526 1.32453 22.7358 1.39677 22.9021C1.47091 23.0684 1.57547 23.2705 1.6287 23.3505L1.72756 23.4979C1.66862 23.9253 1.59068 24.2622 1.51844 24.5212C1.4462 24.7822 1.36255 25.1086 1.33403 25.2475C1.30552 25.3865 1.2675 25.5528 1.25039 25.6181L1.21807 25.736C1.06598 25.317 0.982332 25.1107 0.934805 25.0075C0.885377 24.9043 0.78462 24.7338 0.708576 24.6285C0.632533 24.5233 0.554588 24.4369 0.533677 24.4369C0.510863 24.4369 0.488051 24.5022 0.476644 24.597C0.465237 24.6854 0.465237 24.9317 0.47474 25.1465C0.486146 25.3591 0.507058 25.656 0.524168 25.8034C0.541278 25.9529 0.583102 26.2097 0.619222 26.3782C0.655343 26.5445 0.689563 26.734 0.697167 26.7992C0.704771 26.8645 0.765606 27.1214 0.834045 27.3719C0.904385 27.6225 1.01275 27.9993 1.07738 28.2078C1.14202 28.4162 1.25228 28.7131 1.32262 28.8647C1.39106 29.0184 1.49372 29.2121 1.54885 29.2963L1.64771 29.4479C1.60018 29.8395 1.59638 30.1279 1.60589 30.3427C1.61729 30.5553 1.6306 30.7975 1.64011 30.8817C1.64771 30.9659 1.66862 31.147 1.68383 31.2859C1.70094 31.4249 1.71995 31.5744 1.72946 31.6165C1.73706 31.6565 1.73327 31.6902 1.71995 31.6902C1.70665 31.6902 1.64961 31.6186 1.59068 31.5323C1.53174 31.4459 1.38916 31.2712 1.27129 31.1449C1.15343 31.0185 1.04887 30.9154 1.03556 30.9154C1.02225 30.9154 0.995635 30.8964 0.974723 30.8711C0.953812 30.848 0.872065 30.7869 0.792219 30.7364L0.647738 30.6459C0.645826 30.8417 0.664847 30.9596 0.689562 31.0333C0.712375 31.107 0.77321 31.2712 0.82644 31.3954C0.877769 31.5217 0.921494 31.6312 0.921494 31.6417C0.921494 31.6501 1.02035 31.8586 1.14202 32.1049C1.26179 32.3513 1.37585 32.5681 1.39486 32.585C1.41388 32.6039 1.51273 32.7745 1.61539 32.9661C1.71995 33.1555 1.81691 33.3113 1.83402 33.3113C1.85112 33.3113 1.86443 33.3303 1.86634 33.3535C1.86634 33.3766 1.91767 33.4714 1.9804 33.564C2.04124 33.6566 2.14389 33.7998 2.20853 33.884C2.27127 33.9682 2.35111 34.0735 2.38533 34.1198C2.41955 34.1683 2.57924 34.3556 2.74083 34.5388C2.90243 34.722 3.06972 34.8904 3.11155 34.9136C3.15337 34.9388 3.31116 35.1052 3.46135 35.2883C3.61153 35.4694 3.83016 35.6947 3.94802 35.7915C4.06589 35.8884 4.20657 35.9873 4.2617 36.0126C4.31684 36.04 4.36056 36.0716 4.36056 36.0863C4.35865 36.101 4.38337 36.12 4.41189 36.1284C4.44041 36.1389 4.49173 36.1663 4.52595 36.1874C4.56017 36.2105 4.64762 36.28 4.72367 36.3411C4.79971 36.4021 4.88526 36.4505 4.91378 36.4505C4.94229 36.4484 4.96701 36.4611 4.96701 36.4737C4.9651 36.4884 5.04115 36.5369 5.1324 36.5832C5.22365 36.6295 5.29209 36.68 5.28449 36.6927C5.27688 36.7074 5.06206 36.7158 4.80732 36.7116C4.53736 36.7074 4.27121 36.7221 4.16855 36.7453C4.04878 36.7748 3.98414 36.8064 3.96323 36.8548C3.94612 36.8906 3.93282 36.9243 3.93282 36.9306C3.93091 36.9348 3.95563 36.9685 3.98605 37.0064C4.01456 37.0422 4.06779 37.0906 4.10011 37.1116C4.13433 37.1327 4.21608 37.1601 4.28262 37.1727C4.34916 37.1853 4.45562 37.219 4.51835 37.2443C4.58109 37.2717 4.67044 37.2927 4.71606 37.2927C4.76169 37.2927 4.88526 37.3243 4.98982 37.3601C5.09438 37.398 5.24837 37.4275 5.33202 37.4275C5.41566 37.4275 5.49171 37.4422 5.49931 37.4611C5.50692 37.4801 5.57345 37.4948 5.64379 37.4948C5.71413 37.4948 5.84911 37.5096 5.94036 37.5264C6.03162 37.5454 6.1837 37.5685 6.27495 37.579C6.36621 37.5896 6.68939 37.6127 6.98976 37.6317C7.29013 37.6485 7.66085 37.6528 7.81103 37.6401C7.96122 37.6275 8.0981 37.6148 8.11521 37.6128C8.13231 37.6108 8.19315 37.598 8.25208 37.5854C8.31102 37.5727 8.43649 37.5538 8.53344 37.5454C8.66082 37.5327 8.71405 37.5412 8.73116 37.5748C8.74446 37.6001 8.78819 37.6275 8.83001 37.638C8.87184 37.6464 9.09807 37.7117 9.3319 37.7812C9.56573 37.8506 9.77485 37.9243 9.79767 37.9454C9.81858 37.9665 9.82618 37.9938 9.81287 38.0064C9.79957 38.0191 9.72733 38.0654 9.65128 38.1117C9.57524 38.158 9.42505 38.2486 9.31669 38.3117C9.20833 38.3749 9.05814 38.4717 8.9821 38.5244C8.90606 38.577 8.77868 38.6823 8.69884 38.7581C8.61709 38.8339 8.52584 38.9476 8.49162 39.0128C8.4593 39.0781 8.44029 39.1392 8.4517 39.1476C8.46121 39.1581 8.65701 39.1708 8.88515 39.1771C9.11518 39.1834 9.43836 39.1687 9.60566 39.1476C9.77295 39.1244 10.0391 39.0634 10.1988 39.0107C10.3585 38.9581 10.6551 38.8402 10.8585 38.7518C11.0638 38.6633 11.2311 38.6023 11.2311 38.617C11.233 38.6318 11.2216 38.6465 11.2102 38.6507C11.1969 38.6549 11.1018 38.7728 11.0011 38.9118C10.8984 39.0507 10.7311 39.3097 10.6284 39.4865C10.484 39.7329 10.4421 39.8339 10.4421 39.9329V40.0592H11.0961C11.1779 39.7581 11.2539 39.5581 11.3166 39.4192C11.3813 39.2781 11.5105 39.036 11.6037 38.8781C11.6988 38.7202 11.8546 38.4949 11.9535 38.377C12.0505 38.257 12.1683 38.1391 12.2139 38.1138C12.2691 38.0843 12.4098 38.0675 12.6322 38.0675C12.8546 38.0675 12.9953 38.0843 13.0504 38.1138C13.0961 38.1391 13.2139 38.257 13.3109 38.377C13.4078 38.4949 13.5675 38.7202 13.6626 38.8781C13.7595 39.036 13.8945 39.295 13.961 39.4529C14.0276 39.6087 14.1017 39.8108 14.1245 39.8992L14.1683 40.0592H14.8222C14.8222 39.8761 14.7975 39.7666 14.7652 39.6971C14.7348 39.6276 14.6549 39.4887 14.5903 39.3876C14.5257 39.2886 14.3945 39.0991 14.2994 38.9665C14.2044 38.8339 14.1055 38.6991 14.0789 38.6675C14.0523 38.636 14.0314 38.6002 14.0314 38.5917C14.0314 38.5812 14.1987 38.6528 14.404 38.7475C14.6093 38.8444 14.845 38.9433 14.9287 38.9707C15.0123 38.9981 15.1492 39.0402 15.2329 39.0676C15.3165 39.0928 15.4743 39.1265 15.5827 39.1391C15.691 39.1539 16.0085 39.1644 16.288 39.1644C16.5655 39.1644 16.8032 39.1539 16.8127 39.1391C16.8222 39.1265 16.807 39.0718 16.7785 39.0212C16.7499 38.9707 16.6644 38.857 16.5883 38.7686C16.5123 38.6802 16.4401 38.6086 16.4268 38.6086C16.4134 38.6086 16.3393 38.5602 16.2595 38.5033C16.1796 38.4444 15.9914 38.3286 15.8412 38.2464C15.691 38.1622 15.537 38.0654 15.499 38.0296C15.4477 37.9833 15.4401 37.9601 15.4686 37.9369C15.4895 37.918 15.5618 37.8906 15.6283 37.8717C15.6948 37.8527 15.8317 37.8127 15.9325 37.7833C16.0332 37.7516 16.2442 37.6906 16.4039 37.6464C16.6511 37.5769 16.7214 37.5685 16.8906 37.5959C16.999 37.6127 17.267 37.6359 17.4838 37.6485C17.7005 37.659 18.0978 37.6527 18.3659 37.6338C18.6339 37.6148 18.9818 37.5832 19.1415 37.5643C19.3012 37.5453 19.5597 37.5053 19.7194 37.4758C19.8791 37.4464 20.1719 37.3874 20.3734 37.3432C20.5749 37.299 20.7992 37.24 20.8753 37.2147C20.9513 37.1895 21.1243 37.12 21.2631 37.061C21.4171 36.9958 21.5103 36.9389 21.5046 36.9137C21.4988 36.8905 21.3848 36.8358 21.2536 36.7937C21.0673 36.7347 20.9019 36.7115 20.5255 36.6968C20.0502 36.6757 20.0407 36.6736 20.1377 36.621C20.1928 36.5915 20.3981 36.461 20.592 36.3305C20.7878 36.1999 20.9608 36.0778 20.9799 36.0589C20.9969 36.0378 21.0711 35.981 21.1414 35.9325C21.2118 35.882 21.3772 35.7388 21.5065 35.6125C21.6357 35.4862 21.7973 35.3051 21.8639 35.2104C21.9304 35.1156 22.0407 34.9977 22.1072 34.9514C22.1737 34.903 22.3657 34.7072 22.533 34.5177C22.7003 34.3261 22.9076 34.0798 22.9931 33.9682C23.0786 33.8566 23.1927 33.6903 23.2498 33.5976C23.3068 33.505 23.4037 33.3534 23.4665 33.2607C23.5311 33.1681 23.5996 33.0691 23.6205 33.0418C23.6395 33.0123 23.6718 32.9597 23.6889 32.9239C23.706 32.886 23.7687 32.7723 23.8296 32.6691C23.8885 32.5681 24.0064 32.347 24.0881 32.1807C24.1699 32.0143 24.2516 31.8396 24.2706 31.7933C24.2896 31.7469 24.36 31.5785 24.4265 31.4206C24.4931 31.2648 24.5653 31.0732 24.5843 30.9995C24.6052 30.9258 24.6166 30.8163 24.6109 30.7574L24.6014 30.65C24.3125 30.8437 24.1813 30.9448 24.1261 31.0016C24.0691 31.0585 23.9474 31.1953 23.8562 31.3048C23.763 31.4164 23.6566 31.5511 23.6186 31.608C23.5824 31.6627 23.5444 31.7006 23.5387 31.6922C23.5311 31.6817 23.5444 31.5385 23.5672 31.3701C23.59 31.2037 23.6167 30.9848 23.6243 30.8816C23.6338 30.7805 23.649 30.53 23.6585 30.3258C23.6699 30.1215 23.6642 29.8394 23.6471 29.7005C23.6185 29.4583 23.6204 29.4436 23.6908 29.3383C23.7307 29.2773 23.7649 29.2204 23.7649 29.212C23.7649 29.2015 23.822 29.0836 23.8923 28.9509C23.9607 28.8162 24.0786 28.5383 24.1527 28.334C24.2269 28.1298 24.2972 27.9024 24.3105 27.8287C24.3258 27.7529 24.3847 27.5192 24.4417 27.3045C24.5006 27.0918 24.571 26.7886 24.5976 26.6307C24.6261 26.4728 24.6698 26.2286 24.6946 26.0896C24.7212 25.9507 24.7535 25.7549 24.7668 25.6517C24.782 25.5506 24.7934 25.2538 24.7953 24.9948C24.7953 24.7337 24.7858 24.4958 24.7744 24.4642C24.763 24.4327 24.7383 24.4158 24.7193 24.4306C24.7022 24.4432 24.6261 24.5379 24.5501 24.639C24.4759 24.7422 24.3923 24.8622 24.3638 24.9085C24.3371 24.9569 24.2535 25.1611 24.1793 25.3654L24.0444 25.736C23.993 25.5275 23.9455 25.3296 23.9056 25.1633C23.8657 24.9948 23.8219 24.799 23.8105 24.7232C23.7991 24.6496 23.7497 24.4748 23.7022 24.3358C23.6527 24.1969 23.5976 23.9505 23.5748 23.7905L23.5368 23.4979C23.6832 23.2705 23.8029 23.0305 23.8961 22.8179C23.9911 22.6052 24.1033 22.3168 24.1451 22.1757C24.1889 22.0367 24.263 21.7715 24.3105 21.5862C24.358 21.4009 24.4246 21.1272 24.4588 20.9798C24.493 20.8303 24.5444 20.5714 24.5729 20.405C24.6014 20.2387 24.6375 20.0176 24.6508 19.9166C24.666 19.8134 24.6907 19.6323 24.7078 19.5102C24.725 19.3902 24.7402 19.2765 24.7402 19.2576C24.7402 19.2386 24.7326 19.0639 24.7231 18.8702C24.7135 18.6744 24.6926 18.4996 24.6793 18.4828C24.6622 18.4617 24.609 18.5038 24.5348 18.5944C24.4721 18.6765 24.379 18.8049 24.3314 18.8828C24.2839 18.9586 24.2155 19.0976 24.1774 19.1902C24.1394 19.2828 24.0767 19.466 24.0387 19.5944L23.9664 19.8323C23.8638 19.3355 23.7915 19.0239 23.7402 18.8196C23.6889 18.6154 23.6033 18.3185 23.552 18.1606C23.5007 18.0027 23.436 17.8301 23.4075 17.7753C23.3771 17.7227 23.341 17.6722 23.3239 17.6659C23.3067 17.6595 23.2687 17.7101 23.2364 17.7817C23.206 17.8511 23.1357 18.0364 23.0805 18.1943C23.0159 18.3796 22.9455 18.6933 22.8847 19.0723C22.8334 19.3965 22.7839 19.6976 22.7763 19.7397C22.7668 19.7797 22.7478 19.8155 22.7307 19.8155C22.7136 19.8155 22.6319 19.6365 22.5463 19.4176C22.4608 19.2007 22.3828 19.0133 22.3695 19.0049C22.3581 18.9965 22.3049 18.9123 22.2497 18.8196C22.1965 18.727 22.1224 18.6112 22.0843 18.5649C22.0463 18.5186 21.9912 18.468 21.9627 18.4554C21.9171 18.4343 21.9094 18.4512 21.9094 18.5586C21.9094 18.628 21.9227 18.8554 21.9399 19.0639C21.957 19.2723 22.0121 19.7166 22.0615 20.0513C22.111 20.384 22.1642 20.6914 22.1794 20.7335C22.1946 20.7756 22.2288 20.9166 22.2573 21.0472C22.284 21.1756 22.3334 21.3819 22.3676 21.502C22.4018 21.622 22.4513 21.7967 22.4779 21.8894C22.5045 21.982 22.5501 22.1125 22.5805 22.1757C22.6109 22.241 22.687 22.4157 22.7497 22.5652C22.8125 22.7126 22.9151 22.9294 22.9798 23.0452C23.0425 23.161 23.0957 23.2705 23.0957 23.2895C23.0957 23.3084 23.1052 23.3232 23.1185 23.3232C23.1318 23.3232 23.1528 23.4937 23.1642 23.7021C23.187 24.0685 23.1851 24.0937 23.0976 24.3864C23.0482 24.5527 22.9722 24.8959 22.9303 25.1465C22.8885 25.397 22.8524 25.6497 22.8524 25.7107C22.8524 25.7718 22.8429 25.8202 22.8296 25.8223C22.8163 25.8223 22.7611 25.7044 22.7041 25.5612C22.6471 25.416 22.5729 25.2286 22.5387 25.1465C22.5045 25.0622 22.4361 24.9254 22.3866 24.8412C22.3372 24.7591 22.2402 24.6264 22.1718 24.5464C22.1034 24.4664 22.0254 24.4032 22.0007 24.4032C21.9627 24.4032 21.9589 24.4369 21.9779 24.6138C21.9912 24.7296 22.014 24.9928 22.0311 25.197C22.0482 25.4012 22.0748 25.6349 22.0901 25.7191C22.1053 25.8034 22.1338 25.9781 22.1528 26.1065C22.1718 26.2371 22.2231 26.5024 22.265 26.6982C22.3068 26.8919 22.3486 27.0898 22.3562 27.1361C22.3638 27.1824 22.3828 27.2519 22.3961 27.2877C22.4094 27.3256 22.4513 27.454 22.4855 27.5761C22.5197 27.6961 22.5482 27.8204 22.5482 27.854C22.5482 27.8856 22.5615 27.913 22.5786 27.913C22.5957 27.913 22.609 27.9362 22.609 27.9635C22.609 27.9909 22.6566 28.1235 22.7136 28.2583C22.7706 28.393 22.8239 28.5341 22.8334 28.5699C22.8429 28.6078 22.9417 28.7973 23.0501 28.9931C23.2402 29.3321 23.2478 29.3552 23.2497 29.5658C23.2497 29.7616 23.2383 29.8037 23.1452 29.9532C23.0862 30.0458 22.9931 30.1995 22.9341 30.2921C22.8771 30.3848 22.7326 30.6459 22.6129 30.8732C22.4931 31.1006 22.3866 31.2859 22.3733 31.2859C22.36 31.2859 22.341 31.0775 22.3277 30.8227C22.3163 30.5679 22.2954 30.3511 22.2821 30.3427C22.2688 30.3321 22.2421 30.2563 22.2231 30.1721C22.2041 30.09 22.1585 29.949 22.1243 29.8605C22.0901 29.7721 22.0482 29.7005 22.0311 29.7005C22.014 29.7005 21.9931 29.7426 21.9836 29.7932C21.9741 29.8437 21.9399 29.9847 21.9076 30.1048C21.8752 30.2269 21.8068 30.5216 21.7555 30.7638C21.7041 31.0059 21.6471 31.3238 21.6319 31.4712C21.6148 31.6207 21.5882 31.8186 21.5711 31.9112C21.5558 32.0039 21.5292 32.3155 21.5121 32.6018C21.495 32.9281 21.4931 33.3176 21.5104 33.6314C21.5275 33.943 21.5655 34.2693 21.6092 34.4798L21.6815 34.8209C21.4933 35.0294 21.4096 35.1262 21.3735 35.1704C21.3184 35.2399 21.2727 35.2546 21.0237 35.2757C20.8678 35.2883 20.5408 35.341 20.2975 35.3894C20.0541 35.4378 19.7956 35.4841 19.7196 35.4926L19.5827 35.5094C19.7005 35.3957 19.7766 35.3241 19.826 35.2757C19.8754 35.2273 19.999 35.1052 20.0998 35.002C20.2005 34.9009 20.3241 34.7578 20.3735 34.6841C20.423 34.6104 20.4952 34.4967 20.5313 34.4293C20.5674 34.3619 20.5979 34.2798 20.5998 34.2483C20.5998 34.2146 20.594 34.1893 20.5864 34.1893C20.5788 34.1893 20.3906 34.2777 20.1682 34.3893C19.9458 34.4988 19.7233 34.6104 19.6739 34.6335C19.6245 34.6588 19.4325 34.762 19.2481 34.8672C19.0637 34.9725 18.8717 35.0862 18.8184 35.1199C18.7671 35.1557 18.6302 35.2441 18.5143 35.3178C18.4002 35.3936 18.2291 35.5136 18.1378 35.5894C18.0466 35.6631 17.9287 35.7536 17.8793 35.7894C17.8299 35.8231 17.6797 35.9452 17.5466 36.0589C17.4154 36.1705 17.1816 36.3958 17.0295 36.5558C16.8774 36.7158 16.712 36.9095 16.6626 36.9853C16.6132 37.0611 16.5466 37.1222 16.5181 37.1222C16.4896 37.1244 16.3375 37.0695 16.1835 37.0022C16.0295 36.9348 15.8927 36.8737 15.8793 36.8674C15.866 36.859 15.8908 36.8127 15.9326 36.76C15.9744 36.7095 16.079 36.5705 16.1645 36.4484C16.252 36.3284 16.3603 36.1347 16.4078 36.0189C16.4554 35.9031 16.5086 35.7473 16.5257 35.6736C16.5466 35.5831 16.5466 35.5326 16.5257 35.522C16.5086 35.5115 16.2938 35.5663 16.0466 35.6399C15.7995 35.7136 15.482 35.8147 15.3394 35.861C15.1969 35.9094 14.9364 35.9937 14.7615 36.0484C14.5866 36.1052 14.3129 36.221 14.1532 36.3074C13.9155 36.4379 13.8186 36.5179 13.6037 36.7516C13.4612 36.9095 13.2825 37.1285 13.2083 37.2359L13.0733 37.4296H12.1912C11.9992 37.1537 11.8148 36.9327 11.657 36.7579C11.4099 36.4884 11.3281 36.4232 11.081 36.2926C10.9213 36.2084 10.6685 36.101 10.5183 36.0547C10.3681 36.0084 10.0259 35.8968 9.75785 35.8084C9.4898 35.7178 9.15901 35.6147 9.02023 35.5747C8.88145 35.5368 8.76168 35.5052 8.75408 35.5052C8.74647 35.5052 8.73887 35.5305 8.73887 35.5641C8.73887 35.5957 8.76358 35.7136 8.794 35.8252C8.82632 35.9368 8.87004 36.0652 8.89095 36.1116C8.91377 36.1579 9.02783 36.3368 9.1476 36.5095C9.26547 36.6821 9.37573 36.8232 9.39094 36.8211C9.40995 36.8211 9.40995 36.8316 9.39094 36.8527C9.37573 36.8716 9.23315 36.9411 9.07346 37.0064C8.91377 37.0716 8.76358 37.1243 8.73887 37.1264C8.71416 37.1264 8.65902 37.0906 8.6153 37.0485C8.57347 37.0064 8.52214 36.9306 8.50123 36.88C8.48222 36.8274 8.41758 36.7516 8.35865 36.7095C8.30162 36.6695 8.25219 36.619 8.25409 36.6C8.25409 36.5832 8.16854 36.48 8.06208 36.3726C7.95752 36.2674 7.81684 36.1368 7.7484 36.0863C7.67996 36.0358 7.564 35.941 7.48985 35.8757C7.41571 35.8105 7.33207 35.7431 7.30355 35.7242C7.27503 35.7052 7.19899 35.6505 7.13625 35.602C7.07162 35.5536 6.94424 35.461 6.85299 35.3957C6.76174 35.3304 6.63056 35.242 6.56403 35.1978C6.49749 35.1557 6.28457 35.0273 6.09256 34.9136C5.90055 34.7978 5.69523 34.682 5.6363 34.6525C5.57736 34.623 5.35113 34.5135 5.13441 34.4104C4.91769 34.3051 4.72187 34.2209 4.70096 34.2209C4.68005 34.2209 4.66294 34.2251 4.66294 34.2314C4.66103 34.2356 4.68195 34.2967 4.70857 34.3662C4.73328 34.4356 4.82453 34.5872 4.91198 34.703C4.99943 34.8188 5.14582 34.9936 5.23897 35.0904C5.33212 35.1873 5.43478 35.2778 5.469 35.2904C5.50322 35.3031 5.58117 35.3557 5.6439 35.4083C5.72755 35.4778 5.74466 35.5094 5.71234 35.522C5.68763 35.5305 5.6363 35.5389 5.59828 35.5389C5.56025 35.5389 5.47471 35.5178 5.40817 35.4926C5.34163 35.4673 5.19715 35.4357 5.08878 35.4252C4.98042 35.4126 4.81503 35.381 4.72378 35.3515C4.63252 35.3241 4.4215 35.2904 4.25611 35.2757L3.95574 35.2504C3.67818 34.9367 3.59833 34.823 3.59833 34.7957C3.60024 34.7683 3.61354 34.6841 3.63065 34.6104C3.64967 34.5367 3.68769 34.2693 3.7162 34.0188C3.74662 33.7535 3.76753 33.3682 3.76563 33.0924C3.76372 32.8313 3.74472 32.4292 3.72381 32.1976C3.70289 31.966 3.67248 31.7302 3.65727 31.6754C3.64206 31.6186 3.62875 31.528 3.62875 31.4712C3.62875 31.4165 3.60974 31.2733 3.58693 31.1512C3.56412 31.0312 3.52229 30.8417 3.49568 30.7301C3.46906 30.6185 3.43294 30.4437 3.41583 30.3427C3.39872 30.2395 3.35309 30.0542 3.31697 29.9279C3.27895 29.8016 3.23523 29.7047 3.21812 29.7111C3.20101 29.7174 3.14778 29.8437 3.10025 29.9911C3.05272 30.1364 3.00139 30.2879 2.98428 30.3258C2.96908 30.3616 2.94816 30.5932 2.93486 30.8396C2.92345 31.0859 2.90254 31.2922 2.88733 31.2964C2.87212 31.3007 2.81129 31.2017 2.75045 31.0775C2.68962 30.9512 2.57175 30.7238 2.49 30.5701C2.40635 30.4164 2.28278 30.2079 2.21244 30.1048C2.144 30.0037 2.07176 29.8858 2.05085 29.8437C2.03184 29.8016 2.01663 29.6732 2.01473 29.5574C2.01473 29.3616 2.02614 29.3279 2.16112 29.0942C2.24096 28.9552 2.38544 28.6541 2.4805 28.4267C2.57745 28.1994 2.6554 27.9951 2.6554 27.972C2.65349 27.9488 2.66491 27.9172 2.67821 27.9004C2.68961 27.8835 2.72574 27.793 2.75425 27.6983C2.78467 27.6014 2.85121 27.3509 2.90254 27.1361C2.95387 26.9235 3.0147 26.6582 3.03561 26.5466C3.05653 26.435 3.10405 26.1697 3.13827 25.955C3.17439 25.7423 3.20291 25.5107 3.20291 25.4412C3.20291 25.3718 3.21432 25.2875 3.22953 25.256C3.24473 25.2223 3.26185 25.018 3.26755 24.7991C3.27705 24.498 3.26945 24.4033 3.24093 24.4033C3.22002 24.4033 3.13827 24.4833 3.05842 24.5822C2.97858 24.6812 2.88162 24.8307 2.8436 24.9128C2.80368 24.9949 2.75235 25.1002 2.72954 25.1465C2.70673 25.1928 2.63829 25.3633 2.57935 25.5255C2.52042 25.6876 2.46339 25.8202 2.45008 25.8202C2.43677 25.8224 2.41016 25.6876 2.38734 25.5255C2.36643 25.3633 2.33411 25.1549 2.317 25.0623C2.30179 24.9696 2.27518 24.8138 2.25807 24.7149C2.24286 24.618 2.19533 24.4369 2.15161 24.3106C2.07747 24.0959 2.07556 24.0622 2.09838 23.7022C2.11169 23.4937 2.1307 23.3232 2.1383 23.3232C2.1459 23.3232 2.18012 23.2621 2.21434 23.1884C2.24856 23.1126 2.28278 23.0537 2.29039 23.0537C2.29799 23.0559 2.37213 22.9 2.45388 22.7084C2.53373 22.5189 2.62498 22.3084 2.65349 22.2431C2.68201 22.1799 2.76186 21.9357 2.8322 21.7041C2.90064 21.4725 2.99759 21.0998 3.04892 20.8767C3.09835 20.6556 3.16108 20.3503 3.1858 20.2029C3.21051 20.0534 3.25994 19.6934 3.29416 19.4008C3.32648 19.1081 3.35499 18.7797 3.35499 18.6681C3.35499 18.5291 3.34359 18.4638 3.31697 18.4638C3.29606 18.4616 3.23143 18.5186 3.17249 18.5902C3.11356 18.6596 3.00139 18.8323 2.92345 18.9712C2.84551 19.1102 2.74094 19.3376 2.68772 19.4765C2.63639 19.6155 2.58125 19.7524 2.56414 19.7818C2.53753 19.826 2.52992 19.826 2.50521 19.7818C2.49 19.7524 2.46149 19.6008 2.44247 19.4429C2.42346 19.285 2.38734 19.0513 2.36263 18.9207C2.33792 18.7902 2.3056 18.6238 2.29039 18.5502C2.27708 18.4744 2.21815 18.2849 2.15921 18.127C2.10218 17.9691 2.03564 17.7985 2.01283 17.748C1.99002 17.6954 1.9634 17.6532 1.9539 17.6553C1.94629 17.6553 1.90246 17.7206 1.85873 17.7985Z" fill="#D5B048"/>
<path d="M1.68066 11.7363H23.5825V17.1135H1.68066V11.7363Z" fill="#D6B249"/>
<path d="M4.40488 10.8512L4.40865 11.7073L1.70819 11.7224C1.71008 13.5026 1.71951 14.0363 1.73271 14.057C1.74779 14.0853 1.9458 14.0948 2.56057 14.0948H3.36769L3.35261 14.7001L1.71008 14.7152C1.70819 16.6444 1.71951 17.0573 1.73836 17.0611C1.75534 17.0631 2.2909 17.0668 2.93019 17.0705C3.56947 17.0743 4.1635 17.08 4.25024 17.0819L4.40865 17.0875C4.40865 28.8285 4.41808 31.0141 4.4426 31.2838C4.46145 31.495 4.5086 31.7986 4.5482 31.9551C4.5878 32.1136 4.67266 32.3455 4.73678 32.47C4.8009 32.5944 4.88953 32.751 4.93479 32.817C4.97816 32.883 5.1064 33.0395 5.21766 33.1621C5.32892 33.2846 5.52881 33.4676 5.66082 33.5675C5.79283 33.6675 6.02478 33.807 6.17376 33.8787C6.33782 33.9579 6.57543 34.039 6.77721 34.0861C6.96013 34.1276 7.27883 34.1766 7.48627 34.1936C7.69371 34.2087 8.27831 34.2351 8.7837 34.252C9.43996 34.2728 9.79449 34.2973 10.0208 34.3369C10.1943 34.369 10.4941 34.4444 10.6846 34.5066C10.8807 34.5689 11.1523 34.6858 11.3088 34.7744C11.4634 34.8612 11.6991 35.0215 11.8349 35.1289C11.9707 35.2364 12.163 35.4212 12.2611 35.5363C12.3592 35.6532 12.4817 35.8267 12.5345 35.9229C12.5873 36.0172 12.6402 36.0964 12.6534 36.0964C12.6666 36.0964 12.676 36.0832 12.676 36.0662C12.676 36.0492 12.7552 35.9172 12.8532 35.772C12.9664 35.6004 13.1248 35.4194 13.2983 35.2628C13.4454 35.1289 13.6887 34.9441 13.8376 34.8517C13.9866 34.7612 14.2525 34.6292 14.426 34.5613C14.5995 34.4934 14.8786 34.4105 15.0445 34.3784C15.2105 34.3445 15.4613 34.303 15.6027 34.2841C15.7442 34.2671 16.2119 34.2464 16.6437 34.237C17.0755 34.2294 17.5376 34.2143 17.6696 34.2068C17.8016 34.1974 18.0392 34.171 18.1976 34.1483C18.356 34.1238 18.6125 34.0616 18.7709 34.0088C18.9293 33.956 19.1047 33.89 19.1631 33.8598C19.2216 33.8296 19.3781 33.7353 19.5101 33.6467C19.6421 33.56 19.8477 33.3902 19.9646 33.2733C20.0815 33.1545 20.2475 32.9565 20.3304 32.832C20.4134 32.7076 20.502 32.5643 20.5266 32.5152C20.5511 32.4643 20.6133 32.3021 20.6661 32.1532C20.717 32.0023 20.7736 31.7911 20.7924 31.6836C20.8113 31.5761 20.8377 31.2895 20.849 31.05C20.8603 30.8086 20.8698 27.5688 20.8698 23.85C20.8678 17.1139 20.8678 17.0894 20.9282 17.0762C20.9622 17.0687 21.5524 17.0668 22.2407 17.0706C22.9291 17.0743 23.5061 17.0725 23.5231 17.0668C23.5419 17.0592 23.5514 16.6425 23.5457 15.8787L23.5382 14.7001H21.9088V14.0948C23.1139 14.0948 23.4797 14.0835 23.4986 14.0721C23.525 14.0552 23.5363 13.7478 23.5401 12.886L23.5457 11.7224L20.8679 11.7074C20.8754 10.6645 20.8717 10.2817 20.8622 10.1817L20.8471 10.0007L4.39922 9.99316L4.40488 10.8512Z" fill="#D6B249"/>
<path d="M10.1268 10.0064C10.1852 10.014 10.2871 10.014 10.3531 10.0064C10.4191 10.0008 10.3719 9.99512 10.2475 9.99512C10.123 9.99512 10.0683 10.0008 10.1268 10.0064ZM20.9079 10.8607C20.9079 10.987 20.9135 11.0398 20.921 10.9833C20.9267 10.9248 20.9267 10.823 20.921 10.7551C20.9135 10.6891 20.9079 10.7362 20.9079 10.8607ZM1.74817 12.2373C1.75008 12.3693 1.75383 12.4165 1.76137 12.3429C1.76703 12.2675 1.76703 12.1581 1.76137 12.1015C1.75383 12.0431 1.74817 12.1035 1.74817 12.2373Z" fill="#FFFFFE"/>
<path d="M2.35729 12.2718C2.34409 12.2831 2.33466 12.5829 2.33654 12.9375L2.3422 13.5824L23.0426 13.5673C23.0539 12.434 23.0464 12.2793 23.0181 12.268C22.9973 12.2586 18.3451 12.2529 12.682 12.2529C7.01709 12.2529 2.37049 12.2605 2.35729 12.2718Z" fill="white"/>
<path d="M2.35729 15.2639C2.34409 15.2752 2.33466 15.5732 2.33654 15.9277L2.3422 16.5727H23.0407C23.0539 15.5298 23.0445 15.2809 23.0256 15.2658C23.0087 15.2545 18.3583 15.245 12.6896 15.2432C7.02086 15.2432 2.37049 15.2526 2.35729 15.2639Z" fill="white"/>
<path d="M1.74817 15.8641C1.75008 15.9961 1.75383 16.0433 1.76137 15.9697C1.76703 15.8943 1.76703 15.7849 1.76137 15.7284C1.75383 15.6699 1.74817 15.7303 1.74817 15.8641ZM23.5951 16.3016C23.5951 16.4431 23.5989 16.4978 23.6064 16.4223C23.6121 16.3488 23.6121 16.2319 23.6064 16.1659C23.5989 16.0999 23.5951 16.1602 23.5951 16.3016ZM1.75005 16.7863C1.75005 16.9258 1.75383 16.9805 1.76137 16.907C1.76703 16.8315 1.76703 16.7165 1.76137 16.6486C1.75383 16.5826 1.75005 16.6448 1.75005 16.7863ZM2.02538 17.0786C2.07441 17.0861 2.17059 17.0861 2.23659 17.0786C2.30259 17.0729 2.26299 17.0673 2.14607 17.0673C2.02915 17.0673 1.97635 17.0729 2.02538 17.0786ZM2.91548 17.0786C2.99091 17.0861 3.0984 17.0861 3.15686 17.0786C3.21532 17.0729 3.15308 17.0673 3.02108 17.0673C2.88908 17.0673 2.84005 17.0729 2.91548 17.0786ZM3.82066 17.0786C3.89609 17.0861 4.00358 17.0861 4.06204 17.0786C4.1205 17.0729 4.05826 17.0673 3.92626 17.0673C3.79426 17.0673 3.74523 17.0729 3.82066 17.0786ZM21.9243 17.0786C21.9997 17.0861 22.1072 17.0861 22.1657 17.0786C22.2241 17.0729 22.1619 17.0673 22.0299 17.0673C21.8979 17.0673 21.8489 17.0729 21.9243 17.0786ZM22.8295 17.0786C22.9049 17.0861 23.0124 17.0861 23.0709 17.0786C23.1293 17.0729 23.0671 17.0673 22.9351 17.0673C22.8031 17.0673 22.7541 17.0729 22.8295 17.0786Z" fill="#FFFFFE"/>
<path d="M20.9078 18.1158C20.9078 18.2402 20.9135 18.2949 20.921 18.2365C20.9267 18.178 20.9267 18.0762 20.921 18.0102C20.9135 17.9423 20.9078 17.9913 20.9078 18.1158Z" fill="#FFFFFE"/>
<path d="M20.9078 20.8505C20.9098 20.9825 20.9135 21.0315 20.921 20.9561C20.9267 20.8806 20.9267 20.7731 20.921 20.7147C20.9135 20.6562 20.9078 20.7166 20.9078 20.8505Z" fill="#FFFFFE"/>
<path d="M7.92419 17.6156C7.92419 17.6401 7.99963 17.8079 8.09203 17.9871C8.18443 18.1643 8.32398 18.4001 8.4013 18.5075C8.47862 18.615 8.58234 18.7489 8.63137 18.8055C8.68228 18.8621 8.80298 18.9847 8.89915 19.0771C8.99721 19.1713 9.15373 19.3052 9.24614 19.375C9.34043 19.4448 9.51958 19.5523 9.64404 19.6145C9.7685 19.6749 9.96463 19.7578 10.0815 19.7974C10.1985 19.837 10.4493 19.9087 10.6397 19.9577C10.8302 20.0068 11.1093 20.0671 11.2583 20.0916C11.4073 20.118 11.5845 20.1388 11.6505 20.1406C11.7165 20.1406 11.7882 20.1501 11.8089 20.1633C11.8372 20.1802 11.8448 21.1137 11.8391 24.5327L11.8316 28.8794C11.3413 29.0548 11.1376 29.1359 11.0622 29.1755C10.9867 29.2132 10.8585 29.2943 10.7755 29.3565C10.6925 29.4169 10.5851 29.5149 10.5379 29.5715C10.4889 29.6281 10.4248 29.728 10.3946 29.7959C10.3644 29.8619 10.3399 29.9675 10.338 30.0298C10.338 30.1108 10.3588 30.1637 10.4134 30.2183C10.4757 30.2806 10.5077 30.29 10.602 30.2749C10.6643 30.2655 10.8095 30.207 10.9226 30.1467C11.0376 30.0863 11.1602 30.0203 11.1942 29.9996C11.23 29.9788 11.3394 29.9487 11.4393 29.9317C11.5393 29.9147 11.7222 29.9015 11.8467 29.9015C11.9711 29.8996 12.1748 29.926 12.2992 29.9581C12.4237 29.9883 12.601 30.0524 12.6915 30.0976C12.8009 30.1523 12.9555 30.2825 13.1441 30.4748C13.3628 30.6973 13.4816 30.7935 13.6495 30.8784C13.7702 30.9387 13.9738 31.016 14.1021 31.0481C14.2586 31.0896 14.4358 31.1084 14.6376 31.1084C14.8036 31.1084 15.0072 31.0915 15.0902 31.0688C15.1732 31.0462 15.3014 30.9972 15.3769 30.9595C15.4523 30.9199 15.5805 30.8388 15.6635 30.7765C15.7465 30.7162 15.8521 30.6125 15.8992 30.5484C15.9539 30.471 15.986 30.3862 15.9897 30.3051C15.9935 30.2372 15.9747 30.1448 15.9501 30.0976C15.9256 30.0524 15.8672 29.9958 15.8219 29.9732C15.7766 29.9506 15.6974 29.9317 15.6484 29.9317C15.5994 29.9317 15.4315 29.9675 15.2788 30.0109C15.077 30.0675 14.9582 30.0863 14.8488 30.075C14.7659 30.0656 14.6169 30.0184 14.5169 29.9675C14.417 29.9185 14.1662 29.7507 13.9587 29.5979C13.7475 29.4414 13.4628 29.2604 13.31 29.1887C13.1611 29.1189 12.9461 29.0322 12.8348 28.9963L12.6311 28.9341V24.5213H13.8381V25.7301H14.7131V22.2546L13.8531 22.2697L13.8381 23.4031H12.6311L12.6292 20.1237C12.8989 20.0614 13.1573 19.9747 13.3779 19.8936C13.5985 19.8125 13.8833 19.7201 14.0115 19.6862C14.1398 19.6541 14.368 19.6145 14.5169 19.5975C14.6791 19.5824 14.8865 19.5806 15.0299 19.5975C15.1619 19.6126 15.3523 19.6522 15.4523 19.6862C15.5522 19.7201 15.7012 19.788 15.7842 19.8352C15.8672 19.8804 16.0444 20.0011 16.1764 20.1011C16.3084 20.201 16.546 20.3632 16.7045 20.4631C16.8629 20.5612 17.0665 20.6724 17.157 20.712C17.2476 20.7498 17.3909 20.7875 17.4739 20.795C17.5681 20.8045 17.6643 20.7931 17.7303 20.7649C17.7888 20.7403 17.8736 20.6781 17.9189 20.6272C17.9642 20.5744 18.0113 20.482 18.0207 20.4198C18.0321 20.3575 18.0321 20.1501 18.0226 19.9577C18.0132 19.7673 17.9793 19.5146 17.9472 19.3995C17.917 19.2826 17.8548 19.1186 17.8114 19.0356C17.7699 18.9526 17.6756 18.8112 17.6021 18.7188C17.5304 18.6282 17.3758 18.4812 17.2608 18.3944C17.1457 18.3077 16.9572 18.1964 16.8402 18.1474C16.7233 18.0983 16.5479 18.0361 16.448 18.0097C16.348 17.9833 16.1444 17.9475 15.9954 17.9305C15.7974 17.906 15.6296 17.906 15.3769 17.9305C15.1864 17.9494 14.9544 17.9833 14.8639 18.004C14.7734 18.0267 14.4604 18.121 14.17 18.2134C13.8795 18.3058 13.4986 18.4095 13.3251 18.4434C13.1516 18.4774 12.865 18.5208 12.6915 18.5377C12.518 18.5547 12.0861 18.5679 11.7335 18.5679C11.3413 18.5679 10.9547 18.5509 10.7378 18.5226C10.5436 18.4981 10.2475 18.4491 10.0815 18.4133C9.9156 18.3793 9.6233 18.3039 9.43283 18.2454C9.24237 18.187 8.94252 18.0795 8.76903 18.0022C8.59554 17.9267 8.37679 17.823 8.28627 17.7721C8.19575 17.7231 8.0826 17.6552 8.03734 17.625C7.99208 17.5948 7.94682 17.5703 7.93928 17.5703C7.93174 17.5703 7.92419 17.591 7.92419 17.6156Z" fill="white"/>
<path d="M8.15424 21.2493C8.1467 21.2625 7.96943 21.8169 7.75822 22.4807C7.54701 23.1464 7.35466 23.7574 7.33015 23.8423C7.30563 23.9253 7.26603 24.0535 7.23963 24.1289C7.21511 24.2025 7.02088 24.8154 6.80778 25.4886C6.59469 26.1618 6.38725 26.8143 6.34765 26.9388C6.30805 27.0632 6.24959 27.2499 6.21753 27.3536L6.15907 27.5422L5.54053 27.5442C5.54053 28.34 5.54996 28.5757 5.56316 28.5795C5.57636 28.5851 6.08741 28.5814 6.70029 28.5719L7.8148 28.5568L7.80537 27.5593C7.02276 27.5442 7.01899 27.5423 7.03408 27.4763C7.04162 27.4386 7.09254 27.2198 7.14723 26.9916L7.24529 26.5768C9.18766 26.5768 9.4347 26.5843 9.44413 26.6145C9.45167 26.6352 9.50259 26.8464 9.55727 27.084C9.61385 27.3217 9.65345 27.5215 9.64591 27.5291C9.64025 27.5366 9.45921 27.5442 9.24612 27.5442H8.85953V28.5399H11.1527V27.5442C10.5002 27.5442 10.4889 27.5404 10.4757 27.4763C10.4681 27.4386 10.2098 26.49 9.90237 25.368C9.59499 24.2459 9.29892 23.171 9.248 22.9806C9.1952 22.7882 9.10091 22.4488 9.03868 22.2243C8.97645 21.9999 8.89347 21.7001 8.85764 21.5605C8.81993 21.4191 8.77467 21.2852 8.75581 21.2645C8.73318 21.2362 8.637 21.2249 8.44654 21.2268C8.29379 21.2268 8.16178 21.238 8.15424 21.2493ZM16.6611 21.2644C16.6535 21.2852 16.5837 21.5001 16.5083 21.7415C16.431 21.9829 16.3273 22.3091 16.2764 22.4657C16.2273 22.6241 16.1481 22.8749 16.101 23.0257C16.0538 23.1747 15.9388 23.5425 15.8464 23.8423C15.7521 24.1403 15.5994 24.623 15.507 24.9134C15.4164 25.2057 15.2411 25.7564 15.1185 26.1373C14.9978 26.5201 14.8469 26.9935 14.7828 27.1896L14.6678 27.546L14.0492 27.544L14.0643 28.5869C14.2397 28.5869 14.7526 28.5831 15.3165 28.5794L16.3424 28.5718V27.5441C15.7351 27.5441 15.5522 27.5328 15.5466 27.5214C15.5409 27.5082 15.5805 27.3215 15.6352 27.1047C15.6899 26.8897 15.7351 26.6822 15.737 26.6445C15.7389 26.5974 15.7597 26.5748 15.8068 26.5691C15.8445 26.5653 16.3424 26.5671 16.9138 26.5766L17.9547 26.5917C18.0999 27.2008 18.1508 27.4139 18.1622 27.4611L18.1829 27.5441H17.3682L17.3833 28.5247H19.6765L19.6915 27.5441L19.0164 27.529C18.7411 26.5446 18.5959 26.0203 18.5148 25.7299C18.4337 25.4395 18.3413 25.1001 18.3074 24.9737C18.2753 24.8492 18.1452 24.374 18.0188 23.9177C17.8944 23.4594 17.7548 22.9559 17.7115 22.7994C17.67 22.641 17.587 22.3411 17.5304 22.1337C17.4739 21.9263 17.4078 21.6887 17.3833 21.6057C17.3607 21.5227 17.3286 21.4058 17.3154 21.3473L17.289 21.2417C16.7535 21.2266 16.6705 21.2342 16.6611 21.2644Z" fill="white"/>
<path d="M20.9078 21.7417C20.9078 21.8662 20.9135 21.9209 20.921 21.8624C20.9267 21.804 20.9267 21.7021 20.921 21.6361C20.9135 21.5682 20.9078 21.6173 20.9078 21.7417Z" fill="#FFFFFE"/>
<path d="M16.9345 22.883C16.9269 22.8943 16.893 22.9999 16.8609 23.1168C16.827 23.2337 16.7308 23.56 16.6459 23.8428C16.5611 24.1238 16.4574 24.4652 16.4178 24.5972C16.3781 24.7311 16.2914 25.0196 16.2235 25.2402C16.1556 25.459 16.1009 25.6476 16.1009 25.6551C16.1009 25.6626 16.4536 25.6702 16.8854 25.6702C17.3173 25.6702 17.6699 25.6608 17.6699 25.6476C17.6718 25.6344 17.5209 25.0026 17.3361 24.2426C17.1513 23.4827 16.9891 22.8604 16.9741 22.8604C16.9609 22.8604 16.942 22.8698 16.9345 22.883ZM8.39746 22.9414C8.38803 22.9716 8.33711 23.1394 8.2862 23.3129C8.23339 23.4883 8.15231 23.7599 8.10328 23.9183C8.05613 24.0748 7.92035 24.5236 7.80532 24.914C7.6884 25.3062 7.59222 25.6344 7.59222 25.6476C7.59222 25.6608 7.94487 25.6702 8.37672 25.6702H9.16121C9.13669 25.542 8.98394 24.9196 8.80479 24.2068C8.62753 23.494 8.46723 22.9056 8.44838 22.8981C8.4314 22.8924 8.40689 22.9113 8.39746 22.9414Z" fill="#D6B249"/>
<path d="M20.9078 24.4762C20.9098 24.61 20.9135 24.6572 20.921 24.5818C20.9267 24.5063 20.9267 24.3988 20.921 24.3404C20.9135 24.2819 20.9078 24.3442 20.9078 24.4762ZM20.9078 25.3681C20.9078 25.4926 20.9135 25.5473 20.921 25.4888C20.9267 25.4304 20.9267 25.3285 20.921 25.2625C20.9135 25.1946 20.9078 25.2437 20.9078 25.3681ZM20.9078 28.1025C20.9098 28.2364 20.9135 28.2836 20.921 28.2081C20.9267 28.1346 20.9267 28.0252 20.921 27.9668C20.9135 27.9083 20.9078 27.9705 20.9078 28.1025ZM20.9078 28.9945C20.9078 29.119 20.9135 29.1737 20.921 29.1152C20.9267 29.0568 20.9267 28.9549 20.921 28.8889C20.9135 28.8229 20.9078 28.8701 20.9078 28.9945Z" fill="#FFFFFE"/>
<path d="M12.578 1.306C12.556 1.35231 12.4832 1.5574 12.4148 1.76028C12.3443 1.96537 12.2472 2.25867 12.1987 2.41524C12.148 2.56961 12.0907 2.75264 12.073 2.82101C12.0532 2.88937 11.9738 3.12754 11.8944 3.35247C11.8172 3.5752 11.7334 3.76927 11.7069 3.7847C11.6827 3.80014 11.0807 3.80896 10.3684 3.80234C9.65827 3.79794 9.06505 3.80234 9.05403 3.81116C9.0408 3.81999 9.17091 3.93245 9.34071 4.06036C9.51272 4.19047 9.73104 4.34925 9.82587 4.4154C9.9229 4.48156 10.0265 4.55434 10.0552 4.57859C10.0861 4.60285 10.2206 4.70209 10.3573 4.80353C10.4941 4.90277 10.6837 5.03729 10.7807 5.10124C10.8778 5.1674 11.0167 5.27325 11.0895 5.3372L11.224 5.45408C11.1204 5.7562 11.0057 6.10463 10.9042 6.4266C10.8006 6.74636 10.7036 7.04186 10.6881 7.07935C10.6705 7.11905 10.6021 7.33737 10.5338 7.56671C10.4654 7.79385 10.4103 7.99674 10.4103 8.01658C10.4103 8.03643 10.461 8.01436 10.5249 7.96586C10.5889 7.91955 10.7366 7.8115 10.8579 7.7277C10.977 7.6439 11.1997 7.48512 11.3519 7.37706C11.5041 7.269 11.6518 7.15654 11.6805 7.12787C11.7092 7.0992 11.8371 7.00658 11.9628 6.92057C12.0885 6.83677 12.2759 6.69784 12.3773 6.61404C12.4788 6.53024 12.5868 6.46188 12.6155 6.46188C12.6442 6.46188 12.7368 6.51922 12.8184 6.58979C12.9 6.66035 12.9992 6.73313 13.0389 6.75297C13.0786 6.77282 13.1183 6.79928 13.1271 6.81252C13.136 6.82354 13.233 6.89852 13.3388 6.97791C13.4447 7.0573 13.652 7.20505 13.7975 7.30429C13.9431 7.40352 14.093 7.51379 14.1327 7.54907C14.1724 7.58656 14.2739 7.65933 14.3621 7.71447C14.4503 7.7696 14.5892 7.86663 14.6708 7.93279C14.7921 8.02982 14.8208 8.04084 14.8208 7.99012C14.8208 7.95705 14.7414 7.68139 14.6443 7.38147C14.5473 7.07935 14.3885 6.58538 14.2915 6.28546C14.1945 5.98334 14.0908 5.6702 14.0622 5.5864L14.0092 5.43644C14.2959 5.22694 14.7061 4.92923 15.103 4.64255C15.5 4.35366 15.9124 4.05374 16.0182 3.97435L16.2101 3.82881C15.9675 3.81558 15.3566 3.80675 14.6995 3.80235L13.4998 3.79352C13.4337 3.6568 13.3477 3.40981 13.2683 3.1562C13.1889 2.90481 13.0191 2.37996 12.8912 1.99183C12.7633 1.6015 12.6486 1.27071 12.6376 1.25086C12.6243 1.23322 12.5979 1.25748 12.578 1.306Z" fill="#D5B048"/>
<path d="M6.71201 3.81089C6.69349 3.84978 6.63238 4.022 6.57497 4.19237C6.51571 4.3646 6.43423 4.61089 6.39349 4.74238C6.3509 4.87201 6.30275 5.02571 6.28793 5.08312C6.27126 5.14053 6.2046 5.34053 6.13793 5.52942C6.07312 5.71646 6.00274 5.87942 5.98052 5.89238C5.96015 5.90535 5.45459 5.91276 4.85644 5.9072C4.26014 5.9035 3.76199 5.9072 3.75273 5.9146C3.74162 5.92201 3.85088 6.01646 3.99347 6.12386C4.13792 6.23312 4.32125 6.36646 4.40088 6.42201C4.48236 6.47757 4.5694 6.53868 4.59348 6.55905C4.6194 6.57942 4.73237 6.66276 4.84718 6.74794C4.962 6.83128 5.12126 6.94424 5.20274 6.99794C5.28422 7.0535 5.40089 7.14239 5.462 7.19609L5.57496 7.29424C5.48793 7.54795 5.39163 7.84054 5.30644 8.11091C5.21941 8.37943 5.13792 8.62758 5.12496 8.65906C5.11015 8.6924 5.05274 8.87573 4.99533 9.06833C4.93792 9.25907 4.89163 9.42944 4.89163 9.44611C4.89163 9.46278 4.93422 9.44424 4.98792 9.40351C5.04163 9.36462 5.1657 9.27388 5.26755 9.20351C5.36756 9.13314 5.55459 8.99981 5.68237 8.90907C5.81015 8.81833 5.93423 8.72388 5.9583 8.69981C5.98237 8.67573 6.08978 8.59795 6.19534 8.52573C6.30089 8.45536 6.4583 8.33869 6.54349 8.26832C6.62867 8.19795 6.71942 8.14054 6.74349 8.14054C6.76756 8.14054 6.84534 8.18869 6.91386 8.24795C6.98238 8.30721 7.06571 8.36832 7.09905 8.38499C7.13238 8.40166 7.16571 8.42388 7.17312 8.43499C7.18053 8.44425 7.26201 8.50721 7.3509 8.57388C7.43979 8.64055 7.61386 8.76462 7.73609 8.84796C7.85831 8.93129 7.98424 9.02388 8.01757 9.05351C8.05091 9.08499 8.13609 9.1461 8.21016 9.1924C8.28424 9.2387 8.40091 9.32018 8.46943 9.37574C8.57128 9.45722 8.59535 9.46648 8.59535 9.42388C8.59535 9.3961 8.52868 9.16462 8.4472 8.91277C8.36572 8.65906 8.23239 8.24425 8.15091 7.99239C8.06942 7.73869 7.98238 7.47573 7.95831 7.40536L7.91387 7.27943C8.15461 7.1035 8.49905 6.8535 8.83239 6.61276C9.16572 6.37016 9.51202 6.11831 9.60091 6.05164L9.76202 5.92942C9.55832 5.91831 9.04535 5.9109 8.4935 5.9072L7.48609 5.89979C7.43053 5.78497 7.35831 5.57756 7.29164 5.3646C7.22497 5.15349 7.08238 4.71274 6.97497 4.38682C6.86756 4.05904 6.77127 3.78126 6.76201 3.76459C6.7509 3.74978 6.72867 3.77015 6.71201 3.81089Z" fill="#D5B048"/>
<path d="M18.4612 3.81089C18.4426 3.84978 18.3815 4.022 18.3241 4.19237C18.2649 4.3646 18.1834 4.61089 18.1426 4.74238C18.1 4.87201 18.0519 5.02571 18.0371 5.08312C18.0204 5.14053 17.9537 5.34053 17.8871 5.52942C17.8223 5.71646 17.7519 5.87942 17.7297 5.89238C17.7093 5.90535 17.2037 5.91276 16.6056 5.9072C16.0093 5.9035 15.5111 5.9072 15.5019 5.9146C15.4908 5.92201 15.6 6.01646 15.7426 6.12386C15.8871 6.23312 16.0704 6.36646 16.15 6.42201C16.2315 6.47757 16.3185 6.53868 16.3426 6.55905C16.3686 6.57942 16.4815 6.66276 16.5963 6.74794C16.7111 6.83128 16.8704 6.94424 16.9519 6.99794C17.0334 7.0535 17.15 7.14239 17.2111 7.19609L17.3241 7.29424C17.2371 7.54795 17.1408 7.84054 17.0556 8.11091C16.9686 8.37943 16.8871 8.62758 16.8741 8.65906C16.8593 8.6924 16.8019 8.87573 16.7445 9.06833C16.6871 9.25907 16.6408 9.42944 16.6408 9.44611C16.6408 9.46278 16.6834 9.44424 16.7371 9.40351C16.7908 9.36462 16.9148 9.27388 17.0167 9.20351C17.1167 9.13314 17.3037 8.99981 17.4315 8.90907C17.5593 8.81832 17.6834 8.72388 17.7074 8.69981C17.7315 8.67573 17.8389 8.59795 17.9445 8.52573C18.05 8.45536 18.2074 8.33869 18.2926 8.26832C18.3778 8.19795 18.4686 8.14054 18.4926 8.14054C18.5167 8.14054 18.5945 8.18869 18.663 8.24795C18.7315 8.30721 18.8149 8.36832 18.8482 8.38499C18.8815 8.40166 18.9149 8.42388 18.9223 8.43499C18.9297 8.44425 19.0112 8.50721 19.1 8.57388C19.1889 8.64055 19.363 8.76462 19.4852 8.84795C19.6075 8.93129 19.7334 9.02388 19.7667 9.05351C19.8001 9.08499 19.8852 9.1461 19.9593 9.1924C20.0334 9.2387 20.1501 9.32018 20.2186 9.37573C20.3204 9.45722 20.3445 9.46648 20.3445 9.42388C20.3445 9.3961 20.2778 9.16462 20.1963 8.91277C20.1149 8.65906 19.9815 8.24425 19.9 7.99239C19.8186 7.73869 19.7315 7.47572 19.7075 7.40535L19.663 7.27943C19.9038 7.1035 20.2482 6.8535 20.5815 6.61276C20.9149 6.37016 21.2612 6.11831 21.3501 6.05164L21.5112 5.92942C21.3075 5.91831 20.7945 5.9109 20.2426 5.9072L19.2352 5.89979C19.1797 5.78497 19.1075 5.57756 19.0408 5.3646C18.9741 5.15349 18.8315 4.71274 18.7241 4.38682C18.6167 4.05904 18.5204 3.78126 18.5112 3.76459C18.5 3.74978 18.4778 3.77015 18.4612 3.81089Z" fill="#D5B048"/>
</g>
<defs>
<clipPath id="clip0_2057_7739">
<rect width="25.2632" height="40" fill="white" transform="translate(0 0.655273)"/>
</clipPath>
</defs>
</svg>
