<svg width="164" height="40" viewBox="0 0 164 40" fill="none" xmlns="http://www.w3.org/2000/svg">
<g clip-path="url(#clip0_2632_2539)">
<path d="M0 4.8C0 2.14903 2.14903 0 4.8 0H147.421C156.258 0 163.421 7.16344 163.421 16V16C163.421 24.8366 156.258 32 147.421 32H4.80001C2.14904 32 0 29.851 0 27.2V4.8Z" fill="url(#paint0_linear_2632_2539)"/>
<path d="M150.402 5.30717V26.6929C150.402 27.4605 150.061 28.1555 149.504 28.6688C148.889 29.2412 148.012 29.6 147.046 29.6H5.75906C3.90998 29.6 2.40234 28.2963 2.40234 26.6929V5.30717C2.40234 4.20791 3.11151 3.24946 4.15687 2.75433C4.62965 2.52721 5.17597 2.40002 5.7538 2.40002H147.04C148.889 2.40002 150.397 3.7037 150.397 5.30717H150.402Z" fill="url(#paint1_linear_2632_2539)"/>
<g opacity="0.25">
<path d="M21.1459 29.7123H13.7685L2.40234 17.6946V9.89954L21.1459 29.7123Z" fill="white"/>
<path d="M36.9139 29.7124H29.5365L3.9375 2.64495C4.34965 2.41596 4.82591 2.28772 5.32964 2.28772H10.9715L36.9139 29.7124Z" fill="white"/>
<path d="M52.6831 29.7124H45.3057L19.3633 2.28772H26.7407L52.6831 29.7124Z" fill="white"/>
<path d="M68.4488 29.7124H61.0713L35.1289 2.28772H42.5064L68.4488 29.7124Z" fill="white"/>
<path d="M84.2222 29.7124H76.8448L50.9023 2.28772H58.2798L84.2222 29.7124Z" fill="white"/>
<path d="M99.9917 29.7124H92.6143L66.6719 2.28772H74.0493L99.9917 29.7124Z" fill="white"/>
<path d="M115.761 29.7124H108.384L82.4414 2.28772H89.8189L115.761 29.7124Z" fill="white"/>
<path d="M130.638 28.7735C130.103 29.3505 129.338 29.7124 128.495 29.7124H124.149L98.207 2.28772H105.584L130.638 28.7735Z" fill="white"/>
<path d="M131.423 12.9315V20.7265L113.98 2.28772H121.358L131.423 12.9315Z" fill="white"/>
</g>
<path d="M15.0639 24.3631V12.2033H10.7227V9.72559H22.3544V12.2033H18.0223V24.3631H15.0685H15.0639Z" fill="black"/>
<path d="M24.2539 24.3631V9.72559H35.1071V12.2033H27.2122V15.4459H34.5576V17.9099H27.2122V21.8945H35.3865V24.3585H24.2539V24.3631Z" fill="black"/>
<path d="M37.8906 24.3631V9.72559H48.7438V12.2033H40.8489V15.4459H48.1943V17.9099H40.8489V21.8945H49.0232V24.3585H37.8906V24.3631Z" fill="black"/>
<path d="M51.5625 24.3631V9.72559H54.4384L60.4283 19.4992V9.72559H63.1713V24.3631H60.2084L54.3102 14.8185V24.3631H51.5625Z" fill="black"/>
<path d="M71.9766 24.3631V9.72559H76.7208C78.516 9.72559 79.6883 9.79886 80.2333 9.94542C81.0713 10.1653 81.7719 10.6416 82.3398 11.3789C82.9076 12.1163 83.187 13.0644 83.187 14.2277C83.187 15.1253 83.0221 15.881 82.697 16.4947C82.3718 17.1084 81.9551 17.5893 81.456 17.9374C80.9568 18.2855 80.4439 18.5191 79.9219 18.629C79.2166 18.771 78.1954 18.8397 76.8582 18.8397H74.9303V24.3631H71.9766ZM74.9303 12.2033V16.3573H76.5468C77.71 16.3573 78.4885 16.2795 78.8823 16.1283C79.2762 15.9772 79.583 15.7345 79.8074 15.4093C80.0318 15.0841 80.1417 14.704 80.1417 14.2689C80.1417 13.7376 79.986 13.2979 79.67 12.9499C79.3586 12.6064 78.9602 12.3865 78.4839 12.2995C78.1313 12.2354 77.4215 12.1988 76.3591 12.1988H74.9303V12.2033Z" fill="black"/>
<path d="M97.2917 24.3631H94.0769L92.7993 21.038H86.9513L85.7424 24.3631H82.6055L88.3068 9.72559H91.43L97.2917 24.3631ZM91.8513 18.5694L89.8364 13.1376L87.8581 18.5694H91.8513Z" fill="black"/>
<path d="M100.638 24.3631V12.2033H96.2969V9.72559H107.929V12.2033H103.596V24.3631H100.643H100.638Z" fill="black"/>
<path d="M113.126 24.3631V12.2033H108.785V9.72559H120.417V12.2033H116.085V24.3631H113.131H113.126Z" fill="black"/>
<path d="M122.23 24.3631V9.72559H125.184V24.3631H122.23Z" fill="black"/>
<path d="M14.0171 23.3189V11.1591H9.67578V8.6814H21.3075V11.1591H16.9754V23.3189H14.0217H14.0171Z" fill="url(#paint2_linear_2632_2539)"/>
<path d="M23.2148 23.3189V8.6814H34.0681V11.1591H26.1731V14.4017H33.5185V16.8657H26.1731V20.8503H34.3474V23.3143H23.2148V23.3189Z" fill="url(#paint3_linear_2632_2539)"/>
<path d="M36.8516 23.3189V8.6814H47.7048V11.1591H39.8099V14.4017H47.1553V16.8657H39.8099V20.8503H47.9841V23.3143H36.8516V23.3189Z" fill="url(#paint4_linear_2632_2539)"/>
<path d="M50.5156 23.3189V8.6814H53.3915L59.3814 18.455V8.6814H62.1245V23.3189H59.1616L53.2633 13.7743V23.3189H50.5156Z" fill="url(#paint5_linear_2632_2539)"/>
<path d="M70.9297 23.3189V8.6814H75.674C77.4691 8.6814 78.6414 8.75468 79.1864 8.90123C80.0244 9.12107 80.7251 9.59738 81.2929 10.3348C81.8608 11.0721 82.1401 12.0202 82.1401 13.1835C82.1401 14.0811 81.9753 14.8368 81.6501 15.4505C81.325 16.0642 80.9082 16.5451 80.4091 16.8932C79.9099 17.2413 79.397 17.4749 78.875 17.5848C78.1698 17.7268 77.1485 17.7955 75.8114 17.7955H73.8834V23.3189H70.9297ZM73.888 11.1591V15.3131H75.5045C76.6677 15.3131 77.4462 15.2353 77.84 15.0841C78.2339 14.933 78.5407 14.6903 78.7651 14.3651C78.9895 14.0399 79.0994 13.6598 79.0994 13.2247C79.0994 12.6934 78.9437 12.2537 78.6277 11.9057C78.3163 11.5622 77.9179 11.3423 77.4416 11.2553C77.089 11.1912 76.3792 11.1546 75.3168 11.1546H73.888V11.1591Z" fill="url(#paint6_linear_2632_2539)"/>
<path d="M96.2487 23.3189H93.0339L91.7563 19.9938H85.9084L84.6994 23.3189H81.5625L87.2639 8.6814H90.387L96.2487 23.3189ZM90.8084 17.5298L88.7934 12.098L86.8151 17.5298H90.8084Z" fill="url(#paint7_linear_2632_2539)"/>
<path d="M99.5913 23.3189V11.1591H95.25V8.6814H106.882V11.1591H102.55V23.3189H99.5959H99.5913Z" fill="url(#paint8_linear_2632_2539)"/>
<path d="M112.08 23.3189V11.1591H107.738V8.6814H119.37V11.1591H115.038V23.3189H112.084H112.08Z" fill="url(#paint9_linear_2632_2539)"/>
<path d="M121.184 23.3189V8.6814H124.137V23.3189H121.184Z" fill="url(#paint10_linear_2632_2539)"/>
<g clip-path="url(#clip1_2632_2539)">
<g clip-path="url(#clip2_2632_2539)">
<path d="M147.422 32C156.258 32 163.422 24.8366 163.422 16C163.422 7.16344 156.258 0 147.422 0C138.585 0 131.422 7.16344 131.422 16C131.422 24.8366 138.585 32 147.422 32Z" fill="url(#paint11_linear_2632_2539)"/>
<g clip-path="url(#clip3_2632_2539)">
<path d="M147.8 28.6C154.869 28.6 160.6 22.8692 160.6 15.8C160.6 8.73075 154.869 3 147.8 3C140.731 3 135 8.73075 135 15.8C135 22.8692 140.731 28.6 147.8 28.6Z" fill="#6DA544"/>
<path d="M142.234 18.3043C142.234 19.2264 142.982 19.9739 143.904 19.9739H148.913C148.913 20.7423 149.536 21.3652 150.304 21.3652H151.973C152.742 21.3652 153.365 20.7423 153.365 19.9739V18.3043H142.234Z" fill="#F0F0F0"/>
<path d="M153.504 10.2347V14.1304C153.504 14.7441 153.004 15.2434 152.391 15.2434V16.913C153.925 16.913 155.173 15.6647 155.173 14.1304V10.2347H153.504Z" fill="#F0F0F0"/>
<path d="M141.539 14.1304C141.539 14.7441 141.04 15.2434 140.426 15.2434V16.913C141.96 16.913 143.208 15.6647 143.208 14.1304V10.2347H141.539V14.1304Z" fill="#F0F0F0"/>
<path d="M152.67 10.2347H151V14.1304H152.67V10.2347Z" fill="#F0F0F0"/>
<path d="M148.495 12.4608C148.495 12.6143 148.37 12.7391 148.217 12.7391C148.063 12.7391 147.939 12.6142 147.939 12.4608V10.2347H146.269V12.4608C146.269 12.6143 146.144 12.7391 145.991 12.7391C145.837 12.7391 145.713 12.6142 145.713 12.4608V10.2347H144.043V12.4608C144.043 13.5349 144.917 14.4087 145.991 14.4087C146.404 14.4087 146.788 14.2787 147.104 14.0579C147.42 14.2786 147.803 14.4087 148.217 14.4087C148.3 14.4087 148.382 14.4028 148.463 14.3926C148.344 14.88 147.905 15.2434 147.382 15.2434V16.913C148.916 16.913 150.165 15.6647 150.165 14.1304V12.4608V10.2347H148.495V12.4608H148.495Z" fill="#F0F0F0"/>
<path d="M146.547 15.2435H144.043V16.9131H146.547V15.2435Z" fill="#F0F0F0"/>
</g>
</g>
</g>
</g>
<rect x="47.2" y="23.2" width="44.8" height="16" rx="8" fill="url(#paint12_linear_2632_2539)"/>
<rect x="47.2" y="23.2" width="44.8" height="16" rx="8" stroke="url(#paint13_linear_2632_2539)" stroke-width="1.6"/>
<path d="M55.9434 26.8379C56.4551 26.8379 56.9375 26.9102 57.3906 27.0547C57.5938 27.1211 57.7324 27.1543 57.8066 27.1543C57.8848 27.1543 58.0488 27.1094 58.2988 27.0195C58.3809 26.9922 58.4648 26.9785 58.5508 26.9785C58.7695 26.9785 58.9785 27.1074 59.1777 27.3652C59.498 27.7793 59.6582 28.2324 59.6582 28.7246C59.6582 29.0605 59.5723 29.332 59.4004 29.5391C59.2324 29.7461 59.0098 29.8496 58.7324 29.8496C58.5059 29.8496 58.2832 29.7676 58.0645 29.6035C57.998 29.5527 57.8359 29.3691 57.5781 29.0527C57.1484 28.5254 56.6543 28.2617 56.0957 28.2617C55.5879 28.2617 55.1836 28.4473 54.8828 28.8184C54.5859 29.1895 54.4375 29.6895 54.4375 30.3184C54.4375 31.252 54.6758 32.0469 55.1523 32.7031C55.332 32.9414 55.5469 33.1328 55.7969 33.2773C56.0469 33.418 56.2949 33.4883 56.541 33.4883C56.7441 33.4883 56.9102 33.4219 57.0391 33.2891C57.1719 33.1523 57.2383 32.9785 57.2383 32.7676C57.2383 32.5801 57.1836 32.4473 57.0742 32.3691C57.0312 32.3379 56.9902 32.3203 56.9512 32.3164C56.916 32.3086 56.8047 32.3047 56.6172 32.3047C56.4492 32.3047 56.3086 32.252 56.1953 32.1465C56.0859 32.0371 56.0312 31.9004 56.0312 31.7363C56.0312 31.4121 56.2461 31.1816 56.6758 31.0449C57.1484 30.8965 57.6934 30.8223 58.3105 30.8223C58.9707 30.8223 59.5254 30.8906 59.9746 31.0273C60.4004 31.1602 60.6133 31.4004 60.6133 31.748C60.6133 31.8887 60.5645 32.0117 60.4668 32.1172C60.3691 32.2188 60.2422 32.2793 60.0859 32.2988C59.9492 32.3184 59.8594 32.3496 59.8164 32.3926C59.7773 32.4316 59.7363 32.5312 59.6934 32.6914C59.5254 33.3125 59.1973 33.832 58.709 34.25C58.373 34.5352 57.9668 34.7578 57.4902 34.918C57.0176 35.0781 56.5195 35.1582 55.9961 35.1582C55.1406 35.1582 54.3555 34.9609 53.6406 34.5664C52.9062 34.1641 52.3477 33.6016 51.9648 32.8789C51.6445 32.2773 51.4844 31.627 51.4844 30.9277C51.4844 30.2207 51.6758 29.5488 52.0586 28.9121C52.4648 28.2285 53.0332 27.7012 53.7637 27.3301C54.4004 27.002 55.127 26.8379 55.9434 26.8379ZM65.4648 26.8379C66.4688 26.8379 67.3457 27.125 68.0957 27.6992C68.6035 28.0938 69.0156 28.6055 69.332 29.2344C69.6406 29.8594 69.7949 30.4844 69.7949 31.1094C69.7949 32.0312 69.4902 32.8555 68.8809 33.582C68.3652 34.1992 67.6914 34.6426 66.8594 34.9121C66.3477 35.0762 65.834 35.1582 65.3184 35.1582C64.6426 35.1582 63.9961 35.0176 63.3789 34.7363C62.6328 34.3965 62.0488 33.8828 61.627 33.1953C61.2168 32.5312 61.0117 31.7988 61.0117 30.998C61.0117 30.0684 61.2754 29.248 61.8027 28.5371C62.2715 27.9043 62.9023 27.4395 63.6953 27.1426C64.2266 26.9395 64.8164 26.8379 65.4648 26.8379ZM64.9082 28.5195C64.5801 28.5195 64.3203 28.666 64.1289 28.959C63.9805 29.1777 63.9062 29.4375 63.9062 29.7383C63.9062 30.1797 63.9961 30.6914 64.1758 31.2734C64.3555 31.8516 64.582 32.3652 64.8555 32.8145C64.9766 33.0059 65.125 33.1582 65.3008 33.2715C65.4805 33.3848 65.6621 33.4414 65.8457 33.4414C66.1426 33.4414 66.3809 33.3301 66.5605 33.1074C66.7441 32.8848 66.8359 32.5918 66.8359 32.2285C66.8359 31.7559 66.7598 31.2461 66.6074 30.6992C66.4551 30.1523 66.2578 29.6855 66.0156 29.2988C65.8672 29.0605 65.6953 28.873 65.5 28.7363C65.3047 28.5996 65.1074 28.5273 64.9082 28.5195ZM74.0723 29.5625V32.252C74.0723 32.8574 74.125 33.248 74.2305 33.4238C74.3594 33.6309 74.6309 33.7344 75.0449 33.7344C75.4902 33.7344 75.8418 33.6367 76.0996 33.4414C76.3574 33.2461 76.5371 32.9414 76.6387 32.5273C76.6973 32.2734 76.8301 32.1465 77.0371 32.1465C77.2441 32.1465 77.4121 32.2402 77.541 32.4277C77.6738 32.6113 77.7402 32.8516 77.7402 33.1484C77.7402 33.6328 77.5605 34.1504 77.2012 34.7012C77.0879 34.877 76.9883 34.9961 76.9023 35.0586C76.8164 35.125 76.7129 35.1582 76.5918 35.1582L75.291 35H71.1953C70.9258 35 70.7363 34.9688 70.627 34.9062C70.4668 34.8164 70.3867 34.6816 70.3867 34.502C70.3867 34.3926 70.4121 34.3125 70.4629 34.2617C70.5176 34.207 70.6465 34.1309 70.8496 34.0332C71.0723 33.9277 71.2148 33.7793 71.2773 33.5879C71.3281 33.4277 71.3535 32.9609 71.3535 32.1875C71.3535 31.8281 71.3438 31.3105 71.3242 30.6348C71.3047 29.9863 71.293 29.498 71.2891 29.1699C71.2891 28.8574 71.2637 28.6445 71.2129 28.5312C71.166 28.4141 71.0645 28.3301 70.9082 28.2793C70.6504 28.1895 70.4863 28.1172 70.416 28.0625C70.291 27.9648 70.2285 27.8535 70.2285 27.7285C70.2285 27.4434 70.4648 27.2266 70.9375 27.0781C71.3398 26.9492 71.8789 26.8848 72.5547 26.8848C73.3125 26.8848 73.8789 26.9238 74.2539 27.002C74.7383 27.1074 74.9805 27.3184 74.9805 27.6348C74.9805 27.7637 74.9473 27.8594 74.8809 27.9219C74.8184 27.9844 74.6621 28.0684 74.4121 28.1738C74.2637 28.2402 74.1699 28.3535 74.1309 28.5137C74.0918 28.6738 74.0723 29.0234 74.0723 29.5625ZM80.3535 35H79.9316C79.6855 35 79.4102 35.0117 79.1055 35.0352C78.9141 35.0508 78.7812 35.0586 78.707 35.0586C78.4453 35.0586 78.2324 34.998 78.0684 34.877C77.9043 34.7559 77.8223 34.5977 77.8223 34.4023C77.8223 34.2656 77.8574 34.1602 77.9277 34.0859C78.002 34.0078 78.1211 33.9453 78.2852 33.8984C78.4414 33.8594 78.5469 33.7969 78.6016 33.7109C78.6562 33.6211 78.6992 33.4492 78.7305 33.1953C78.7617 32.9023 78.7891 32.332 78.8125 31.4844C78.8398 30.6367 78.8535 29.7949 78.8535 28.959C78.8535 28.6309 78.8281 28.4121 78.7773 28.3027C78.7266 28.1934 78.6074 28.1055 78.4199 28.0391C78.1504 27.9375 78.0156 27.7637 78.0156 27.5176C78.0156 27.3262 78.1074 27.1777 78.291 27.0723C78.4785 26.9629 78.7383 26.9082 79.0703 26.9082C79.1797 26.9082 79.3086 26.9102 79.457 26.9141C79.7852 26.9258 80.0234 26.9316 80.1719 26.9316C80.7305 26.9316 81.3613 26.9141 82.0645 26.8789C82.2129 26.8711 82.3984 26.8672 82.6211 26.8672C83.5156 26.8672 84.2227 26.9688 84.7422 27.1719C85.5156 27.4766 86.0977 27.9883 86.4883 28.707C86.8359 29.3398 87.0098 30.0938 87.0098 30.9688C87.0098 31.4102 86.9453 31.8535 86.8164 32.2988C86.6875 32.7402 86.5137 33.123 86.2949 33.4473C85.8418 34.1035 85.2168 34.5645 84.4199 34.8301C83.9512 34.9863 83.4512 35.0645 82.9199 35.0645L82.2109 35.041L81.6016 35.0234C81.1289 35.0078 80.7129 35 80.3535 35ZM81.584 28.6484V33.1836C81.584 33.4297 81.6367 33.6055 81.7422 33.7109C81.8477 33.8125 82.0234 33.8633 82.2695 33.8633C83.4102 33.8633 83.9805 32.9961 83.9805 31.2617C83.9805 30.3047 83.8477 29.5625 83.582 29.0352C83.2891 28.4531 82.793 28.1621 82.0938 28.1621C81.9062 28.1621 81.7734 28.1992 81.6953 28.2734C81.6211 28.3477 81.584 28.4727 81.584 28.6484Z" fill="url(#paint14_linear_2632_2539)"/>
<defs>
<linearGradient id="paint0_linear_2632_2539" x1="0" y1="16" x2="163.421" y2="16" gradientUnits="userSpaceOnUse">
<stop stop-color="#E7A401"/>
<stop offset="0.5" stop-color="#FBFA7D"/>
<stop offset="1" stop-color="#E47D01"/>
</linearGradient>
<linearGradient id="paint1_linear_2632_2539" x1="2.40234" y1="16" x2="150.402" y2="16" gradientUnits="userSpaceOnUse">
<stop stop-color="#710D00"/>
<stop offset="0.5" stop-color="#E83E25"/>
<stop offset="1" stop-color="#710D00"/>
</linearGradient>
<linearGradient id="paint2_linear_2632_2539" x1="9.67578" y1="16.0001" x2="21.3075" y2="16.0001" gradientUnits="userSpaceOnUse">
<stop stop-color="#E7A401"/>
<stop offset="0.5" stop-color="#FBFA7D"/>
<stop offset="1" stop-color="#E47D01"/>
</linearGradient>
<linearGradient id="paint3_linear_2632_2539" x1="23.2148" y1="16.0001" x2="34.3474" y2="16.0001" gradientUnits="userSpaceOnUse">
<stop stop-color="#E7A401"/>
<stop offset="0.5" stop-color="#FBFA7D"/>
<stop offset="1" stop-color="#E47D01"/>
</linearGradient>
<linearGradient id="paint4_linear_2632_2539" x1="36.8516" y1="16.0001" x2="47.9841" y2="16.0001" gradientUnits="userSpaceOnUse">
<stop stop-color="#E7A401"/>
<stop offset="0.5" stop-color="#FBFA7D"/>
<stop offset="1" stop-color="#E47D01"/>
</linearGradient>
<linearGradient id="paint5_linear_2632_2539" x1="50.5156" y1="16.0001" x2="62.1245" y2="16.0001" gradientUnits="userSpaceOnUse">
<stop stop-color="#E7A401"/>
<stop offset="0.5" stop-color="#FBFA7D"/>
<stop offset="1" stop-color="#E47D01"/>
</linearGradient>
<linearGradient id="paint6_linear_2632_2539" x1="70.9297" y1="16.0001" x2="82.1401" y2="16.0001" gradientUnits="userSpaceOnUse">
<stop stop-color="#E7A401"/>
<stop offset="0.5" stop-color="#FBFA7D"/>
<stop offset="1" stop-color="#E47D01"/>
</linearGradient>
<linearGradient id="paint7_linear_2632_2539" x1="81.5625" y1="16.0001" x2="96.2487" y2="16.0001" gradientUnits="userSpaceOnUse">
<stop stop-color="#E7A401"/>
<stop offset="0.5" stop-color="#FBFA7D"/>
<stop offset="1" stop-color="#E47D01"/>
</linearGradient>
<linearGradient id="paint8_linear_2632_2539" x1="95.25" y1="16.0001" x2="106.882" y2="16.0001" gradientUnits="userSpaceOnUse">
<stop stop-color="#E7A401"/>
<stop offset="0.5" stop-color="#FBFA7D"/>
<stop offset="1" stop-color="#E47D01"/>
</linearGradient>
<linearGradient id="paint9_linear_2632_2539" x1="107.738" y1="16.0001" x2="119.37" y2="16.0001" gradientUnits="userSpaceOnUse">
<stop stop-color="#E7A401"/>
<stop offset="0.5" stop-color="#FBFA7D"/>
<stop offset="1" stop-color="#E47D01"/>
</linearGradient>
<linearGradient id="paint10_linear_2632_2539" x1="121.184" y1="16.0001" x2="124.137" y2="16.0001" gradientUnits="userSpaceOnUse">
<stop stop-color="#E7A401"/>
<stop offset="0.5" stop-color="#FBFA7D"/>
<stop offset="1" stop-color="#E47D01"/>
</linearGradient>
<linearGradient id="paint11_linear_2632_2539" x1="131.422" y1="16" x2="163.422" y2="16" gradientUnits="userSpaceOnUse">
<stop stop-color="#E7A401"/>
<stop offset="0.5" stop-color="#FBFA7D"/>
<stop offset="1" stop-color="#E47D01"/>
</linearGradient>
<linearGradient id="paint12_linear_2632_2539" x1="48" y1="31.2" x2="91.2" y2="31.2" gradientUnits="userSpaceOnUse">
<stop stop-color="#710D00"/>
<stop offset="0.5" stop-color="#E83E25"/>
<stop offset="1" stop-color="#710D00"/>
</linearGradient>
<linearGradient id="paint13_linear_2632_2539" x1="48" y1="31.2" x2="91.2" y2="31.2" gradientUnits="userSpaceOnUse">
<stop stop-color="#E7A401"/>
<stop offset="0.5" stop-color="#FBFA7D"/>
<stop offset="1" stop-color="#E47D01"/>
</linearGradient>
<linearGradient id="paint14_linear_2632_2539" x1="51.2031" y1="31" x2="88.2031" y2="31" gradientUnits="userSpaceOnUse">
<stop stop-color="#E7A401"/>
<stop offset="0.5" stop-color="#FBFA7D"/>
<stop offset="1" stop-color="#E47D01"/>
</linearGradient>
<clipPath id="clip0_2632_2539">
<path d="M0 4.8C0 2.14903 2.14903 0 4.8 0H147.421C156.258 0 163.421 7.16344 163.421 16V16C163.421 24.8366 156.258 32 147.421 32H4.80001C2.14904 32 0 29.851 0 27.2V4.8Z" fill="white"/>
</clipPath>
<clipPath id="clip1_2632_2539">
<rect x="131.422" width="32" height="32" rx="16" fill="white"/>
</clipPath>
<clipPath id="clip2_2632_2539">
<rect width="32" height="32" fill="white" transform="translate(131.422)"/>
</clipPath>
<clipPath id="clip3_2632_2539">
<rect width="25.6" height="25.6" fill="white" transform="translate(135 3)"/>
</clipPath>
</defs>
</svg>
