<svg width="24" height="24" viewBox="0 0 24 24" fill="none" xmlns="http://www.w3.org/2000/svg">
<g clip-path="url(#clip0_791_4474)">
<path d="M-0.208984 16V7.41016H1.4375V10.5039C1.94531 9.92578 2.54688 9.63672 3.24219 9.63672C4 9.63672 4.62695 9.91211 5.12305 10.4629C5.61914 11.0098 5.86719 11.7969 5.86719 12.8242C5.86719 13.8867 5.61328 14.7051 5.10547 15.2793C4.60156 15.8535 3.98828 16.1406 3.26562 16.1406C2.91016 16.1406 2.55859 16.0527 2.21094 15.877C1.86719 15.6973 1.57031 15.4336 1.32031 15.0859V16H-0.208984ZM1.42578 12.7539C1.42578 13.3984 1.52734 13.875 1.73047 14.1836C2.01562 14.6211 2.39453 14.8398 2.86719 14.8398C3.23047 14.8398 3.53906 14.6855 3.79297 14.377C4.05078 14.0645 4.17969 13.5742 4.17969 12.9062C4.17969 12.1953 4.05078 11.6836 3.79297 11.3711C3.53516 11.0547 3.20508 10.8965 2.80273 10.8965C2.4082 10.8965 2.08008 11.0508 1.81836 11.3594C1.55664 11.6641 1.42578 12.1289 1.42578 12.7539ZM7.19727 16V7.41016H8.84375V16H7.19727ZM10.1562 12.8008C10.1562 12.2539 10.291 11.7246 10.5605 11.2129C10.8301 10.7012 11.2109 10.3105 11.7031 10.041C12.1992 9.77148 12.752 9.63672 13.3613 9.63672C14.3027 9.63672 15.0742 9.94336 15.6758 10.5566C16.2773 11.166 16.5781 11.9375 16.5781 12.8711C16.5781 13.8125 16.2734 14.5938 15.6641 15.2148C15.0586 15.832 14.2949 16.1406 13.373 16.1406C12.8027 16.1406 12.2578 16.0117 11.7383 15.7539C11.2227 15.4961 10.8301 15.1191 10.5605 14.623C10.291 14.123 10.1562 13.5156 10.1562 12.8008ZM11.8438 12.8887C11.8438 13.5059 11.9902 13.9785 12.2832 14.3066C12.5762 14.6348 12.9375 14.7988 13.3672 14.7988C13.7969 14.7988 14.1562 14.6348 14.4453 14.3066C14.7383 13.9785 14.8848 13.502 14.8848 12.877C14.8848 12.2676 14.7383 11.7988 14.4453 11.4707C14.1562 11.1426 13.7969 10.9785 13.3672 10.9785C12.9375 10.9785 12.5762 11.1426 12.2832 11.4707C11.9902 11.7988 11.8438 12.2715 11.8438 12.8887ZM17.7207 16.4102L19.6016 16.6387C19.6328 16.8574 19.7051 17.0078 19.8184 17.0898C19.9746 17.207 20.2207 17.2656 20.5566 17.2656C20.9863 17.2656 21.3086 17.2012 21.5234 17.0723C21.668 16.9863 21.7773 16.8477 21.8516 16.6562C21.9023 16.5195 21.9277 16.2676 21.9277 15.9004V14.9922C21.4355 15.6641 20.8145 16 20.0645 16C19.2285 16 18.5664 15.6465 18.0781 14.9395C17.6953 14.3809 17.5039 13.6855 17.5039 12.8535C17.5039 11.8105 17.7539 11.0137 18.2539 10.4629C18.7578 9.91211 19.3828 9.63672 20.1289 9.63672C20.8984 9.63672 21.5332 9.97461 22.0332 10.6504V9.77734H23.5742V15.3613C23.5742 16.0957 23.5137 16.6445 23.3926 17.0078C23.2715 17.3711 23.1016 17.6562 22.8828 17.8633C22.6641 18.0703 22.3711 18.2324 22.0039 18.3496C21.6406 18.4668 21.1797 18.5254 20.6211 18.5254C19.5664 18.5254 18.8184 18.3438 18.377 17.9805C17.9355 17.6211 17.7148 17.1641 17.7148 16.6094C17.7148 16.5547 17.7168 16.4883 17.7207 16.4102ZM19.1914 12.7598C19.1914 13.4199 19.3184 13.9043 19.5723 14.2129C19.8301 14.5176 20.1465 14.6699 20.5215 14.6699C20.9238 14.6699 21.2637 14.5137 21.541 14.2012C21.8184 13.8848 21.957 13.418 21.957 12.8008C21.957 12.1562 21.8242 11.6777 21.5586 11.3652C21.293 11.0527 20.957 10.8965 20.5508 10.8965C20.1562 10.8965 19.8301 11.0508 19.5723 11.3594C19.3184 11.6641 19.1914 12.1309 19.1914 12.7598Z" fill="white"/>
</g>
<defs>
<clipPath id="clip0_791_4474">
<rect width="24" height="24" fill="white"/>
</clipPath>
</defs>
</svg>
