<svg width="27" height="25" viewBox="0 0 27 25" fill="none" xmlns="http://www.w3.org/2000/svg">
<path d="M19.5 9.80957C19.5 5.66582 15.1359 2.30957 9.75 2.30957C4.36406 2.30957 0 5.66582 0 9.80957C0 11.4174 0.660938 12.8986 1.78125 14.1221C1.15313 15.5377 0.117188 16.6627 0.103125 16.6768C0 16.7846 -0.028125 16.9439 0.0328125 17.0846C0.09375 17.2252 0.225 17.3096 0.375 17.3096C2.09062 17.3096 3.51094 16.733 4.53281 16.1377C6.04219 16.8736 7.82812 17.3096 9.75 17.3096C15.1359 17.3096 19.5 13.9533 19.5 9.80957ZM25.2188 20.1221C26.3391 18.9033 27 17.4174 27 15.8096C27 12.6736 24.4922 9.9877 20.9391 8.86738C20.9813 9.17676 21 9.49082 21 9.80957C21 14.7736 15.9516 18.8096 9.75 18.8096C9.24375 18.8096 8.75156 18.7721 8.26406 18.7205C9.74063 21.4158 13.2094 23.3096 17.25 23.3096C19.1719 23.3096 20.9578 22.8783 22.4672 22.1377C23.4891 22.733 24.9094 23.3096 26.625 23.3096C26.775 23.3096 26.9109 23.2205 26.9672 23.0846C27.0281 22.9486 27 22.7893 26.8969 22.6768C26.8828 22.6627 25.8469 21.5424 25.2188 20.1221Z" fill="#157FDC"/>
</svg>
