<svg width="24" height="24" viewBox="0 0 24 24" fill="none" xmlns="http://www.w3.org/2000/svg">
<path fill-rule="evenodd" clip-rule="evenodd" d="M17.932 12C17.932 8.731 15.269 6.076 12 6.076C8.731 6.076 6.076 8.731 6.076 12C6.076 15.269 8.731 17.924 12 17.924C12.554 17.924 13.09 17.848 13.599 17.705C13.848 17.635 14.034 17.536 14.295 17.456C14.814 17.295 15.462 17.577 15.593 18.105C15.743 18.707 15.446 19.221 14.946 19.436C14.706 19.538 14.402 19.634 14.285 19.668C13.561 19.884 12.794 20 12 20C7.585 20 4 16.415 4 12C4 7.585 7.585 4 12 4C16.415 4 20 7.585 20 12L19.999 12.098C19.992 12.721 19.91 13.332 19.767 13.913L19.763 13.927C19.19 15.856 17.911 16.685 16.437 16.685C15.489 16.678 14.614 16.19 14.164 15.372C13.516 15.867 12.716 16.159 11.852 16.159C9.69 16.159 7.935 14.331 7.935 12.08C7.935 9.828 9.69 8 11.852 8C12.684 8 13.457 8.271 14.092 8.733C14.236 8.441 14.537 8.241 14.885 8.241C15.373 8.241 15.769 8.637 15.769 9.125V13.539C15.769 14.04 16.013 14.532 16.63 14.532C17.172 14.532 17.581 14.008 17.821 13.145C17.888 12.805 17.925 12.458 17.931 12.1L17.932 12ZM11.905 10.041C13.02 10.041 13.926 10.957 13.926 12.085C13.926 13.214 13.02 14.13 11.905 14.13C10.789 14.13 9.883 13.214 9.883 12.085C9.883 10.957 10.789 10.041 11.905 10.041Z" fill="white"/>
</svg>
