<svg width="24" height="24" viewBox="0 0 24 24" fill="none" xmlns="http://www.w3.org/2000/svg">
<g clip-path="url(#clip0_791_4458)">
<path fill-rule="evenodd" clip-rule="evenodd" d="M9.82552 20.7354V14.7505H7.96802V12H9.82552V10.815C9.82552 7.75151 11.2115 6.333 14.2175 6.333C14.7865 6.333 15.769 6.4445 16.1725 6.556V9.04751C15.96 9.02601 15.589 9.01501 15.132 9.01501C13.656 9.01501 13.087 9.57301 13.087 11.0275V12H16.0285L15.5245 14.75H13.091V20.9349C17.5473 20.3952 21 16.6008 21 12C21 7.0295 16.9705 3 12 3C7.0295 3 3 7.0295 3 12C3 16.2208 5.90526 19.7627 9.82552 20.7354Z" fill="white"/>
</g>
<defs>
<clipPath id="clip0_791_4458">
<rect width="18" height="18" fill="white" transform="translate(3 3)"/>
</clipPath>
</defs>
</svg>
