<svg width="24" height="24" viewBox="0 0 24 24" fill="none" xmlns="http://www.w3.org/2000/svg">
<g clip-path="url(#clip0_1149_3759)">
<g clip-path="url(#clip1_1149_3759)">
<path d="M13.454 23.9133C19.396 23.194 24 18.1347 24 12C24 5.37267 18.6273 0 12 0C5.37267 0 0 5.37267 0 12C0 17.628 3.874 22.3507 9.10133 23.6473L9.33333 22.6667H13L13.454 23.9133Z" fill="#0866FF"/>
<path d="M9.10069 23.6477V15.6677H6.62402V12.0003H9.10069V10.4203C9.10069 6.33567 10.9487 4.44434 14.9567 4.44434C15.7154 4.44434 17.0254 4.593 17.5634 4.74167V8.06367C17.28 8.035 16.7854 8.02034 16.176 8.02034C14.208 8.02034 13.4494 8.76434 13.4494 10.7037V12.0003H17.3714L16.6994 15.667H13.4547V23.9137C11.9994 24.0889 10.5245 23.9988 9.10136 23.6477H9.10069Z" fill="white"/>
</g>
</g>
<defs>
<clipPath id="clip0_1149_3759">
<rect width="24" height="24" fill="white"/>
</clipPath>
<clipPath id="clip1_1149_3759">
<rect width="24" height="24" fill="white"/>
</clipPath>
</defs>
</svg>
