<svg width="24" height="25" viewBox="0 0 24 25" fill="none" xmlns="http://www.w3.org/2000/svg">
<g clip-path="url(#clip0_1340_2745)">
<path d="M12.0004 24.7817C10.9079 24.7817 9.81547 24.7956 8.7202 24.7761C7.73947 24.7594 6.75873 24.7482 5.78637 24.595C4.59051 24.4054 3.48125 24.0042 2.52288 23.2322C1.36613 22.2985 0.659223 21.0862 0.323932 19.6481C0.178639 19.0266 0.108787 18.394 0.0780526 17.7586C-0.0420934 15.306 0.0137884 12.8535 0.00820016 10.3982C0.00540606 9.48684 0.0389352 8.5755 0.0836406 7.66137C0.133934 6.5717 0.332315 5.50429 0.8129 4.51492C1.5673 2.96537 2.76876 1.90912 4.40051 1.34336C5.12418 1.09253 5.86741 0.947612 6.63299 0.914169C7.71707 0.869577 8.8012 0.83056 9.88253 0.819412C11.5701 0.805477 13.2522 0.805477 14.9398 0.824986C15.8591 0.833347 16.7811 0.872364 17.6976 0.947612C18.8683 1.04237 19.9831 1.36287 20.9751 2.01223C22.319 2.89012 23.1824 4.12475 23.6043 5.67151C23.7943 6.37104 23.8837 7.08171 23.92 7.8035C24.0485 10.4678 23.9843 13.1322 23.9815 15.7966C23.9815 16.6995 23.9396 17.6053 23.8613 18.5027C23.7524 19.7791 23.3891 20.9803 22.6291 22.0282C21.6596 23.3632 20.3436 24.1574 18.7426 24.5058C17.9519 24.6786 17.1527 24.7343 16.3481 24.7482C14.9007 24.7734 13.4505 24.7928 12.0032 24.8096C12.0004 24.8012 12.0004 24.79 12.0004 24.7817ZM11.9977 22.6218C11.9977 22.6302 11.9977 22.633 11.9977 22.6413C13.3444 22.6218 14.6855 22.6079 16.0323 22.58C16.7308 22.566 17.4321 22.5438 18.1223 22.4072C18.7565 22.2818 19.3601 22.0784 19.8965 21.7021C20.8661 21.0249 21.3886 20.069 21.6093 18.9291C21.7546 18.1682 21.7686 17.3934 21.7909 16.6242C21.8161 15.908 21.8245 15.1918 21.8189 14.4783C21.8105 12.5776 21.7993 10.6769 21.7769 8.77617C21.7686 8.07664 21.7406 7.37713 21.6065 6.68596C21.4724 6.00316 21.2433 5.35937 20.8214 4.7964C20.1117 3.85162 19.1365 3.37506 18.0021 3.17718C17.2869 3.05177 16.5604 3.04062 15.8367 3.01832C15.0683 2.99324 14.2999 2.98767 13.5316 2.98767C11.4109 2.99046 9.29013 2.95701 7.16667 3.05734C6.59107 3.08242 6.01829 3.14931 5.45947 3.29702C4.36977 3.58686 3.50919 4.19164 2.93361 5.16986C2.50053 5.90283 2.3245 6.71662 2.27421 7.5555C2.22391 8.43057 2.18479 9.3057 2.17921 10.1808C2.16803 12.0063 2.17641 13.8317 2.18759 15.6544C2.19039 16.2424 2.21273 16.8305 2.2295 17.4186C2.24627 18.0122 2.29935 18.6002 2.43347 19.1799C2.70729 20.3532 3.32479 21.2785 4.37815 21.886C5.10183 22.3013 5.89814 22.4769 6.7224 22.5242C7.60813 22.5744 8.49667 22.6023 9.38513 22.619C10.2569 22.6358 11.1287 22.6218 11.9977 22.6218Z" fill="white"/>
<path d="M12.0043 6.6467C15.3991 6.62161 18.2295 9.45315 18.1652 12.9285C18.1009 16.2227 15.4075 18.9149 12.0937 18.9678C8.62901 19.0208 5.7539 16.1613 5.83492 12.6581C5.91316 9.33888 8.65694 6.61882 12.0043 6.6467ZM15.9859 12.7975C15.9859 10.6014 14.1976 8.81775 12.0015 8.81775C9.79974 8.81775 8.01154 10.6014 8.01154 12.8031C8.01154 15.002 9.79414 16.7884 11.9903 16.7884C14.1976 16.7912 15.9859 15.0048 15.9859 12.7975Z" fill="white"/>
<path d="M19.8387 6.41044C19.8387 7.2103 19.1961 7.85407 18.3997 7.85687C17.6034 7.85967 16.944 7.19915 16.9468 6.40486C16.9496 5.60222 17.5951 4.9668 18.4081 4.9668C19.21 4.9668 19.8387 5.60222 19.8387 6.41044Z" fill="white"/>
</g>
<defs>
<clipPath id="clip0_1340_2745">
<rect width="24" height="24" fill="white" transform="translate(0 0.80957)"/>
</clipPath>
</defs>
</svg>
