<svg width="24" height="24" viewBox="0 0 24 24" fill="none" xmlns="http://www.w3.org/2000/svg">
<g clip-path="url(#clip0_791_4449)">
<path fill-rule="evenodd" clip-rule="evenodd" d="M8.70171 4.048C9.55505 4.00838 9.82705 4 12 4C14.173 4 14.4457 4.00914 15.2975 4.048C16.1501 4.0861 16.7314 4.22324 17.2404 4.41981C17.7737 4.62095 18.2575 4.93562 18.6575 5.34324C19.0645 5.74247 19.3791 6.2259 19.5794 6.75962C19.7775 7.26857 19.9131 7.84991 19.952 8.70095C19.9909 9.55581 20 9.82781 20 12C20 14.173 19.9909 14.4457 19.952 15.2983C19.9139 16.1493 19.7768 16.7307 19.5794 17.2404C19.3788 17.7741 19.0641 18.2577 18.6575 18.6575C18.2578 19.0642 17.7742 19.3788 17.2404 19.5794C16.7314 19.7775 16.1501 19.9131 15.299 19.952C14.4457 19.9909 14.173 20 12 20C9.82705 20 9.55429 19.9909 8.70171 19.952C7.85067 19.9139 7.26933 19.7768 6.75962 19.5794C6.22588 19.3787 5.74229 19.0641 5.34248 18.6575C4.93552 18.2579 4.62064 17.7742 4.41981 17.2404C4.22248 16.7314 4.08762 16.1501 4.048 15.299C4.00838 14.4442 4 14.1714 4 12C4 9.82705 4.00914 9.55429 4.048 8.70248C4.0861 7.8499 4.22324 7.26857 4.41981 6.75962C4.62093 6.22572 4.93606 5.74211 5.34324 5.34248C5.74268 4.93561 6.22603 4.62074 6.75962 4.41981C7.26857 4.22248 7.85067 4.08762 8.70171 4.048ZM15.2328 5.488C14.3893 5.4499 14.1356 5.44152 12 5.44152C9.86438 5.44152 9.61067 5.44914 8.76724 5.488C7.98705 5.52381 7.56343 5.6541 7.28152 5.76381C6.90819 5.90857 6.64152 6.08152 6.36114 6.36114C6.09585 6.61952 5.89175 6.934 5.76381 7.28152C5.6541 7.56343 5.52381 7.98705 5.488 8.76724C5.4499 9.61067 5.44152 9.86438 5.44152 12C5.44152 14.1356 5.44914 14.3893 5.488 15.2328C5.52381 16.013 5.6541 16.4366 5.76381 16.7185C5.89181 17.0651 6.096 17.3806 6.36114 17.6389C6.61957 17.9041 6.93404 18.1082 7.28152 18.2362C7.56343 18.3459 7.98705 18.4762 8.76724 18.512C9.61067 18.5501 9.86362 18.5585 12 18.5585C14.1371 18.5585 14.3893 18.5509 15.2328 18.512C16.013 18.4762 16.4366 18.3459 16.7185 18.2362C17.0918 18.0914 17.3585 17.9185 17.6389 17.6389C17.9041 17.3804 18.1082 17.066 18.2362 16.7185C18.3459 16.4366 18.4762 16.013 18.512 15.2328C18.5501 14.3893 18.5585 14.1356 18.5585 12C18.5585 9.86438 18.5509 9.61067 18.512 8.76724C18.4762 7.98705 18.3459 7.56343 18.2362 7.28152C18.1082 6.93404 17.9041 6.61957 17.6389 6.36114C17.3805 6.09587 17.066 5.89177 16.7185 5.76381C16.4366 5.6541 16.013 5.52381 15.2328 5.488ZM10.9783 14.4663C11.307 14.6012 11.6593 14.6691 12.0145 14.6661C12.3698 14.6631 12.7209 14.5892 13.0472 14.4487C13.3736 14.3082 13.6686 14.104 13.9149 13.848C14.1613 13.592 14.354 13.2893 14.4819 12.9579C14.6098 12.6264 14.6702 12.2727 14.6596 11.9176C14.649 11.5625 14.5676 11.213 14.4201 10.8898C14.2727 10.5665 14.0622 10.2759 13.801 10.0351C13.5398 9.79427 13.2332 9.60801 12.899 9.48724C12.2426 9.24998 11.5194 9.27931 10.8843 9.56895C10.2493 9.85858 9.75295 10.3855 9.50173 11.0367C9.25052 11.6879 9.2644 12.4116 9.54041 13.0527C9.81642 13.6938 10.3326 14.2012 10.9783 14.4663ZM9.09257 9.09257C9.47276 8.70348 9.92638 8.3937 10.4271 8.18117C10.9279 7.96864 11.4659 7.85758 12.0099 7.85444C12.5538 7.85129 13.093 7.95612 13.5962 8.16284C14.0994 8.36957 14.5566 8.67408 14.9413 9.05874C15.3259 9.44341 15.6304 9.90058 15.8372 10.4038C16.0439 10.907 16.1487 11.4462 16.1456 11.9902C16.1424 12.5341 16.0314 13.0721 15.8188 13.5729C15.6063 14.0736 15.2965 14.5272 14.9074 14.9074C14.1333 15.6638 13.0922 16.0846 12.0099 16.0783C10.9275 16.072 9.89133 15.6393 9.12601 14.874C8.36068 14.1087 7.92796 13.0725 7.9217 11.9902C7.91544 10.9078 8.33615 9.8667 9.09257 9.09257ZM17.024 8.50057C17.121 8.41398 17.1997 8.30883 17.2553 8.19132C17.311 8.07382 17.3426 7.94634 17.3482 7.81643C17.3537 7.68652 17.3332 7.55681 17.2878 7.43497C17.2424 7.31313 17.173 7.20162 17.0838 7.10704C16.9946 7.01246 16.8873 6.93673 16.7683 6.88432C16.6493 6.8319 16.521 6.80388 16.391 6.80189C16.261 6.7999 16.1319 6.82399 16.0113 6.87274C15.8908 6.92149 15.7812 6.99391 15.6891 7.08571C15.5097 7.26462 15.4071 7.50648 15.4033 7.75985C15.3994 8.01321 15.4945 8.2581 15.6684 8.44241C15.8423 8.62672 16.0812 8.73592 16.3344 8.74678C16.5875 8.75765 16.835 8.66931 17.024 8.50057Z" fill="white"/>
</g>
<defs>
<clipPath id="clip0_791_4449">
<rect width="16" height="16" fill="white" transform="translate(4 4)"/>
</clipPath>
</defs>
</svg>
