<svg width="24" height="24" viewBox="0 0 24 24" fill="none" xmlns="http://www.w3.org/2000/svg">
<path d="M18.8 4H5.2C4.88174 4 4.57652 4.12643 4.35147 4.35147C4.12643 4.57652 4 4.88174 4 5.2V18.8C4 19.1183 4.12643 19.4235 4.35147 19.6485C4.57652 19.8736 4.88174 20 5.2 20H18.8C19.1183 20 19.4235 19.8736 19.6485 19.6485C19.8736 19.4235 20 19.1183 20 18.8V5.2C20 4.88174 19.8736 4.57652 19.6485 4.35147C19.4235 4.12643 19.1183 4 18.8 4ZM8.8 17.6H6.4V10.4H8.8V17.6ZM7.6 9C7.32495 8.99214 7.05831 8.9034 6.8334 8.74486C6.60849 8.58633 6.43529 8.36503 6.33544 8.10862C6.23558 7.85221 6.2135 7.57206 6.27195 7.30318C6.3304 7.03429 6.4668 6.78859 6.66409 6.59678C6.86138 6.40497 7.11083 6.27555 7.38125 6.22469C7.65168 6.17383 7.93109 6.2038 8.18459 6.31083C8.43808 6.41787 8.65441 6.59724 8.80655 6.82652C8.95869 7.0558 9.03989 7.32483 9.04 7.6C9.03368 7.97628 8.87867 8.33476 8.60884 8.59709C8.33901 8.85943 7.97631 9.00428 7.6 9ZM17.6 17.6H15.2V13.808C15.2 12.672 14.72 12.264 14.096 12.264C13.913 12.2762 13.7343 12.3244 13.57 12.4058C13.4058 12.4873 13.2592 12.6004 13.1388 12.7387C13.0184 12.877 12.9264 13.0376 12.8683 13.2115C12.8102 13.3854 12.787 13.5691 12.8 13.752C12.796 13.7892 12.796 13.8268 12.8 13.864V17.6H10.4V10.4H12.72V11.44C12.954 11.084 13.2755 10.7941 13.6538 10.5979C14.032 10.4018 14.4542 10.3061 14.88 10.32C16.12 10.32 17.568 11.008 17.568 13.248L17.6 17.6Z" fill="white"/>
</svg>
