<svg width="24" height="24" viewBox="0 0 24 24" fill="none" xmlns="http://www.w3.org/2000/svg">
<path d="M5.8077 5.06782H6.36461V10.7633H4.90605V7.77995L3.2486 9.27162H3.07623L1.45856 7.77995V10.7497H0V5.05426H0.530384L3.16904 7.52229L5.8077 5.06782Z" fill="white"/>
<path d="M16.9988 8.74273C16.8529 8.91902 16.7203 9.06819 16.5612 9.17667C16.5347 9.19023 16.5214 9.20379 16.4949 9.21735C16.4816 9.23092 16.4551 9.24448 16.4419 9.24448C16.4153 9.25804 16.3756 9.2716 16.349 9.29872C16.3358 9.29872 16.3225 9.31228 16.3093 9.31228C16.1369 9.38008 15.9513 9.42076 15.7789 9.42076C15.0761 9.42076 14.3999 8.90546 14.3999 7.90197C14.3999 6.87137 15.0761 6.38318 15.7921 6.38318C16.243 6.38318 16.6938 6.61371 16.9457 7.06121C16.9457 7.07478 16.959 7.07478 16.959 7.08834L18.0993 6.19333C17.5689 5.40682 16.6805 5 15.7789 5C14.3601 5 12.9546 5.97636 12.9546 7.91553C12.9546 9.86826 14.3071 10.8175 15.7524 10.8175C16.7999 10.8175 17.6352 10.3429 18.1258 9.56993L16.9988 8.74273Z" fill="white"/>
<path d="M21.8653 7.57653L23.7349 5.29834V5.06781H23.1913H22.0907L20.1548 7.35956V5.06781H18.6963V10.7633H20.1548V9.25804L20.8443 8.48509L22.3294 10.7633H24.0001V10.5599L21.8653 7.57653Z" fill="white"/>
<path d="M7.16016 8.241V5.06781H8.61871V8.241C8.61871 9.05463 9.13584 9.44789 9.74578 9.44789C10.3557 9.44789 10.8728 9.06819 10.8728 8.28168V5.06781H12.3314V8.21388C12.3314 10.0446 11.2839 10.8446 9.73252 10.8446C8.16789 10.8446 7.16016 10.0174 7.16016 8.241Z" fill="white"/>
<path d="M19.7964 15.759L21.7323 13.4808V13.2503H21.1356H20.0218L18.0196 15.5421V13.2503H16.561V18.9458H18.0196V17.4405L18.7489 16.6676L20.2605 18.9458H21.8649V18.7424L19.7964 15.759Z" fill="white"/>
<path d="M8.45963 13.2503H7.51819L5.02539 18.7424V18.9322H6.48395L6.80218 18.2542H9.16239L9.49388 18.9322H10.9922V18.7424L8.45963 13.2503ZM8.6983 17.0473H7.29278L7.90272 15.5556H8.08836L8.6983 17.0473Z" fill="white"/>
<path d="M14.9303 16.9252C14.7845 17.1015 14.6519 17.2507 14.4928 17.3592C14.4662 17.3727 14.453 17.3863 14.4265 17.3998C14.4132 17.4134 14.3867 17.427 14.3734 17.427C14.3469 17.4405 14.3071 17.4541 14.2806 17.4812C14.2674 17.4812 14.2541 17.4948 14.2408 17.4948C14.0685 17.5626 13.8828 17.6033 13.7105 17.6033C13.0077 17.6033 12.3315 17.088 12.3315 16.0845C12.3315 15.0539 13.0077 14.5657 13.7237 14.5657C14.1745 14.5657 14.6254 14.7962 14.8773 15.2437C14.8773 15.2573 14.8906 15.2573 14.8906 15.2708L16.0309 14.3758C15.5005 13.5893 14.6121 13.1825 13.7237 13.1825C12.2917 13.1825 10.8994 14.1589 10.8994 16.098C10.8994 18.0508 12.2519 19 13.6972 19C14.7447 19 15.5801 18.5254 16.0707 17.7524L14.9303 16.9252Z" fill="white"/>
<path d="M3.91158 16.9252C4.46848 16.5455 4.73367 15.9082 4.74693 15.2437C4.74693 14.2402 4.09722 13.2232 2.74474 13.2232C1.92264 13.2096 0.795576 13.2232 0 13.2232V18.9322H1.45856V17.1693H2.29391L3.14252 18.9322H4.6276L4.66738 18.6881L3.75246 17.0066C3.85854 16.9659 3.91158 16.9252 3.91158 16.9252ZM1.4453 14.4707H2.71822C3.12926 14.4707 3.32816 14.8504 3.32816 15.203C3.32816 15.5556 3.12926 15.9624 2.71822 15.9624H1.4453V14.4707Z" fill="white"/>
</svg>
