<svg width="24" height="25" viewBox="0 0 24 25" fill="none" xmlns="http://www.w3.org/2000/svg">
<g clip-path="url(#clip0_1154_3723)">
<path d="M12.005 24.3039C18.6352 24.3039 24.01 18.9291 24.01 12.2989C24.01 5.66877 18.6352 0.293945 12.005 0.293945C5.37482 0.293945 0 5.66877 0 12.2989C0 18.9291 5.37482 24.3039 12.005 24.3039Z" fill="#2AABEE"/>
<path fill-rule="evenodd" clip-rule="evenodd" d="M5.42773 12.1688C8.92627 10.6494 11.2553 9.63986 12.4248 9.15006C15.7534 7.76064 16.4531 7.52074 16.9029 7.51074C17.0029 7.51074 17.2228 7.53073 17.3728 7.65068C17.4927 7.75064 17.5227 7.88059 17.5427 7.98055C17.5627 8.08051 17.5827 8.29042 17.5627 8.45035C17.3827 10.3496 16.6031 14.9576 16.2032 17.0768C16.0333 17.9764 15.7034 18.2763 15.3836 18.3062C14.6839 18.3662 14.1541 17.8464 13.4844 17.4066C12.4248 16.7169 11.8351 16.2871 10.8055 15.6074C9.61598 14.8277 10.3857 14.3979 11.0654 13.6982C11.2453 13.5182 14.314 10.7194 14.374 10.4695C14.384 10.4395 14.384 10.3196 14.314 10.2596C14.2441 10.1996 14.1441 10.2196 14.0641 10.2396C13.9542 10.2596 12.2749 11.3791 9.00624 13.5882C8.52644 13.9181 8.09662 14.078 7.70678 14.068C7.27696 14.058 6.4573 13.8281 5.83756 13.6282C5.08787 13.3883 4.48812 13.2583 4.5381 12.8385C4.56809 12.6186 4.86796 12.3987 5.42773 12.1688Z" fill="white"/>
</g>
<defs>
<clipPath id="clip0_1154_3723">
<rect width="24" height="24" fill="white" transform="translate(0 0.293945)"/>
</clipPath>
</defs>
</svg>
