<svg width="24" height="24" viewBox="0 0 24 24" fill="none" xmlns="http://www.w3.org/2000/svg">
<path fill-rule="evenodd" clip-rule="evenodd" d="M1.64325 10.5759C8.08437 7.77861 12.3723 5.91989 14.5255 5.01813C20.6538 2.46008 21.942 2.0184 22.7701 2C22.9542 2 23.359 2.03681 23.6351 2.25765C23.8559 2.44168 23.9111 2.68092 23.9479 2.86495C23.9848 3.04898 24.0216 3.43545 23.9848 3.7299C23.6535 7.22651 22.218 15.7104 21.4819 19.6119C21.1691 21.2682 20.5618 21.8203 19.9729 21.8755C18.6846 21.9859 17.7093 21.0289 16.4762 20.2192C14.5255 18.9494 13.4397 18.158 11.5442 16.9066C9.3542 15.4712 10.7712 14.6798 12.0227 13.3916C12.3539 13.0603 18.0037 7.90743 18.1141 7.44735C18.1325 7.39214 18.1325 7.1713 18.0037 7.06089C17.8749 6.95047 17.6909 6.98727 17.5436 7.02408C17.3412 7.06089 14.2495 9.12205 8.2316 13.1892C7.34825 13.7965 6.55691 14.0909 5.83918 14.0725C5.04784 14.0541 3.53878 13.6308 2.39778 13.2628C1.01754 12.8211 -0.0866539 12.5819 0.00536217 11.8089C0.0605718 11.404 0.612668 10.9992 1.64325 10.5759Z" fill="white"/>
</svg>
