<svg width="24" height="24" viewBox="0 0 24 24" fill="none" xmlns="http://www.w3.org/2000/svg">
<path d="M6.944 8.048L8.896 16.256H8.976C9.70133 13.8987 10.432 11.2693 11.168 8.368L11.52 7.04H12.56L15.376 16.256H15.456C16.672 11.232 17.28 8.50133 17.28 8.064C17.28 7.92533 17.1733 7.81333 16.96 7.728C16.7573 7.64267 16.4053 7.552 15.904 7.456L15.952 6.992C16.624 7.024 17.28 7.04 17.92 7.04C18.5707 7.04 19.232 7.024 19.904 6.992L19.952 7.456C19.4613 7.552 19.1093 7.65867 18.896 7.776C18.6827 7.88267 18.5547 8.03733 18.512 8.24C17.4347 12.5813 16.592 15.8347 15.984 18L14.512 18.144L11.856 9.504H11.792L9.408 18L7.936 18.144L5.328 8.144C5.25333 7.96267 5.12533 7.82933 4.944 7.744C4.77333 7.648 4.448 7.552 3.968 7.456L4.016 6.992C4.688 7.024 5.40267 7.04 6.16 7.04C6.91733 7.04 7.632 7.024 8.304 6.992L8.352 7.456C7.60533 7.59467 7.168 7.728 7.04 7.856C6.976 7.90933 6.944 7.97333 6.944 8.048Z" fill="white"/>
</svg>
