<svg width="24" height="24" viewBox="0 0 24 24" fill="none" xmlns="http://www.w3.org/2000/svg">
<path d="M23.4962 6.62364C23.2196 5.59039 22.4076 4.7784 21.3744 4.50181C19.5034 4 11.998 4 11.998 4C11.998 4 4.49259 4 2.62166 4.50181C1.59039 4.7784 0.776424 5.59039 0.499835 6.62364C-2.50351e-07 8.49456 0 12.4004 0 12.4004C0 12.4004 -1.30183e-06 16.3062 0.501809 18.1772C0.778398 19.2104 1.59039 20.0224 2.62364 20.2989C4.49456 20.8008 12 20.8008 12 20.8008C12 20.8008 19.5055 20.8008 21.3763 20.2989C22.4096 20.0224 23.2216 19.2104 23.4982 18.1772C24 16.3062 24 12.4004 24 12.4004C24 12.4004 23.998 8.49456 23.4962 6.62364Z" fill="#FF0000"/>
<path d="M9.59949 16L15.8326 12.4004L9.59949 8.80078V16Z" fill="white"/>
</svg>
