<svg width="17" height="17" viewBox="0 0 17 17" fill="none" xmlns="http://www.w3.org/2000/svg">
<g clip-path="url(#clip0_1334_8291)">
<path fill-rule="evenodd" clip-rule="evenodd" d="M8.3999 14.8825C12.1278 14.8825 15.1499 11.8604 15.1499 8.13251C15.1499 4.40459 12.1278 1.38251 8.3999 1.38251C4.67198 1.38251 1.6499 4.40459 1.6499 8.13251C1.6499 11.8604 4.67198 14.8825 8.3999 14.8825ZM8.3999 16.1325C12.8182 16.1325 16.3999 12.5508 16.3999 8.13251C16.3999 3.71423 12.8182 0.132507 8.3999 0.132507C3.98163 0.132507 0.399902 3.71423 0.399902 8.13251C0.399902 12.5508 3.98163 16.1325 8.3999 16.1325Z" fill="#00CFA6"/>
<path fill-rule="evenodd" clip-rule="evenodd" d="M7.06471 16.0218C5.76857 15.8042 4.5782 15.2747 3.57324 14.5135V8.27552C3.57324 5.53114 5.73412 3.30634 8.39968 3.30634C11.0652 3.30634 13.2261 5.53114 13.2261 8.27552C13.2261 11.0199 11.0652 13.2447 8.39968 13.2447C8.29624 13.2447 8.19351 13.2413 8.09163 13.2347V9.61317C8.19055 9.63722 8.29365 9.64997 8.39968 9.64997C9.13699 9.64997 9.73464 9.03458 9.73464 8.27552C9.73464 7.51642 9.13699 6.90103 8.39968 6.90103C7.6624 6.90103 7.06471 7.51642 7.06471 8.27552L7.06476 8.28423V13.0521L7.06471 16.0218Z" fill="#FF2400"/>
</g>
<defs>
<clipPath id="clip0_1334_8291">
<rect width="16" height="16" fill="white" transform="translate(0.399902 0.132507)"/>
</clipPath>
</defs>
</svg>
