<svg width="16" height="17" viewBox="0 0 16 17" fill="none" xmlns="http://www.w3.org/2000/svg">
<path d="M0 3.08454C0 1.45418 1.32167 0.132507 2.95203 0.132507H13.048C14.6783 0.132507 16 1.45418 16 3.08454V13.1805C16 14.8108 14.6783 16.1325 13.048 16.1325H2.95203C1.32167 16.1325 0 14.8108 0 13.1805V3.08454Z" fill="#EEEEEE"/>
<path d="M5.58716 12.8275C5.61228 12.8306 5.6374 12.8361 5.66252 12.8361C7.21311 12.8361 8.76366 12.8361 10.3135 12.8361C10.3386 12.8361 10.3629 12.8361 10.3912 12.8361V14.2313H5.58716V12.8267V12.8275Z" fill="#030303"/>
<path d="M8.79496 2.16815C9.52195 2.38169 9.9938 2.8449 10.1916 3.55227C10.3086 3.97075 10.3251 4.41745 10.3911 4.88854H8.87894C8.85462 4.64435 8.84363 4.3892 8.80045 4.13955C8.72821 3.72656 8.48718 3.53187 8.07658 3.52246C7.63693 3.51304 7.3959 3.69987 7.29934 4.12541C7.15566 4.75977 7.34642 5.32033 7.75546 5.78746C8.15743 6.24517 8.60966 6.66049 9.05326 7.08054C10.0197 7.9944 10.5371 9.06684 10.3039 10.4251C10.1006 11.6129 9.36963 12.2598 8.17863 12.2952C6.84632 12.3344 5.99056 11.7323 5.70949 10.5609C5.67808 10.4306 5.58545 9.5002 5.58545 9.16184H7.21216C7.2475 9.58657 7.25222 9.96343 7.31581 10.3293C7.3794 10.6959 7.64163 10.8749 8.01532 10.8749C8.38982 10.8749 8.63085 10.6936 8.71959 10.3301C8.8609 9.74988 8.74704 9.20502 8.36629 8.75909C7.85281 8.15767 7.28127 7.60576 6.75605 7.01459C6.49066 6.71623 6.22453 6.40299 6.03767 6.05441C5.11832 4.34525 5.78173 2.60231 7.60709 2.0967C7.77825 2.04959 8.34037 2.03468 8.79496 2.16815Z" fill="#030303"/>
</svg>
