<svg width="167" height="40" viewBox="0 0 167 40" fill="none" xmlns="http://www.w3.org/2000/svg">
<g clip-path="url(#clip0_2624_1958)">
<path d="M160.48 0H6.51995C2.91908 0 0 2.91941 0 6.52068V33.4793C0 37.0806 2.91908 40 6.51995 40H160.48C164.081 40 167 37.0806 167 33.4793V6.52068C167 2.91941 164.081 0 160.48 0Z" fill="#58FD8E"/>
<path d="M164.139 6.52064V33.4735C164.139 34.4411 163.767 35.317 163.16 35.9639C162.49 36.6852 161.534 37.1375 160.481 37.1375H6.52109C4.50615 37.1375 2.86328 35.4944 2.86328 33.4735V6.52064C2.86328 5.13521 3.63606 3.92725 4.77519 3.30323C5.29037 3.01699 5.8857 2.85669 6.51537 2.85669H160.475C162.49 2.85669 164.133 4.49974 164.133 6.52064H164.139Z" fill="url(#paint0_linear_2624_1958)"/>
<g opacity="0.25">
<path d="M26.2927 37.1375H17.0709L2.86328 22.1153V12.3715L26.2927 37.1375Z" fill="white"/>
<path d="M46.0018 37.1375H36.78L4.78125 3.30323C5.29643 3.01699 5.89176 2.85669 6.52143 2.85669H13.5737L46.0018 37.1375Z" fill="white"/>
<path d="M65.7162 37.1375H56.4944L24.0664 2.85669H33.2882L65.7162 37.1375Z" fill="white"/>
<path d="M85.4233 37.1375H76.2015L43.7734 2.85669H52.9952L85.4233 37.1375Z" fill="white"/>
<path d="M105.138 37.1375H95.9163L63.4883 2.85669H72.7101L105.138 37.1375Z" fill="white"/>
<path d="M124.849 37.1375H115.627L83.1992 2.85669H92.421L124.849 37.1375Z" fill="white"/>
<path d="M144.564 37.1375H135.342L102.914 2.85669H112.136L144.564 37.1375Z" fill="white"/>
<path d="M163.16 35.9639C162.491 36.6852 161.535 37.1375 160.481 37.1375H155.049L122.621 2.85669H131.843L163.16 35.9639Z" fill="white"/>
<path d="M164.14 16.1614V25.9052L142.336 2.85669H151.558L164.14 16.1614Z" fill="white"/>
</g>
<path d="M18.6883 30.4509V15.2512H13.2617V12.1541H27.8014V15.2512H22.3862V30.4509H18.6941H18.6883Z" fill="#002D09"/>
<path d="M30.1758 30.4509V12.1541H43.7423V15.2512H33.8737V19.3045H43.0554V22.3845H33.8737V27.3652H44.0915V30.4452H30.1758V30.4509Z" fill="#002D09"/>
<path d="M47.2227 30.4509V12.1541H60.7892V15.2512H50.9205V19.3045H60.1023V22.3845H50.9205V27.3652H61.1384V30.4452H47.2227V30.4509Z" fill="#002D09"/>
<path d="M64.3125 30.4509V12.1541H67.9073L75.3947 24.371V12.1541H78.8235V30.4509H75.1199L67.7471 18.5202V30.4509H64.3125Z" fill="#002D09"/>
<path d="M89.8281 30.4509V12.1541H95.7585C98.0024 12.1541 99.4678 12.2457 100.149 12.4288C101.197 12.7036 102.072 13.299 102.782 14.2207C103.492 15.1425 103.841 16.3275 103.841 17.7816C103.841 18.9037 103.635 19.8483 103.229 20.6155C102.822 21.3826 102.301 21.9837 101.677 22.4188C101.053 22.8539 100.412 23.1459 99.7597 23.2833C98.8782 23.4608 97.6017 23.5466 95.9302 23.5466H93.5203V30.4509H89.8281ZM93.5203 15.2512V20.4437H95.541C96.9949 20.4437 97.968 20.3464 98.4603 20.1575C98.9526 19.9686 99.3361 19.6651 99.6166 19.2587C99.8971 18.8522 100.035 18.377 100.035 17.8332C100.035 17.1691 99.8399 16.6195 99.4449 16.1844C99.0557 15.755 98.5576 15.4802 97.9623 15.3715C97.5216 15.2913 96.6343 15.2455 95.3063 15.2455H93.5203V15.2512Z" fill="#002D09"/>
<path d="M121.475 30.4509H117.456L115.859 26.2946H108.55L107.038 30.4509H103.117L110.244 12.1541H114.148L121.475 30.4509ZM114.675 23.2089L112.156 16.4191L109.683 23.2089H114.675Z" fill="#002D09"/>
<path d="M125.657 30.4509V15.2512H120.23V12.1541H134.77V15.2512H129.355V30.4509H125.663H125.657Z" fill="#002D09"/>
<path d="M141.266 30.4509V15.2512H135.84V12.1541H150.379V15.2512H144.964V30.4509H141.272H141.266Z" fill="#002D09"/>
<path d="M152.648 30.4509V12.1541H156.341V30.4509H152.648Z" fill="#002D09"/>
<path d="M17.3836 29.1456V13.9459H11.957V10.8488H26.4967V13.9459H21.0815V29.1456H17.3894H17.3836Z" fill="white"/>
<path d="M28.8789 29.1456V10.8488H42.4454V13.9459H32.5768V17.9992H41.7585V21.0792H32.5768V26.0599H42.7946V29.1399H28.8789V29.1456Z" fill="white"/>
<path d="M45.9258 29.1456V10.8488H59.4923V13.9459H49.6237V17.9992H58.8054V21.0792H49.6237V26.0599H59.8415V29.1399H45.9258V29.1456Z" fill="white"/>
<path d="M63.0078 29.1456V10.8488H66.6027L74.09 23.0657V10.8488H77.5188V29.1456H73.8152L66.4424 17.2149V29.1456H63.0078Z" fill="white"/>
<path d="M88.5234 29.1456V10.8488H94.4538C96.6977 10.8488 98.1631 10.9404 98.8443 11.1236C99.8918 11.3983 100.768 11.9937 101.477 12.9154C102.187 13.8372 102.536 15.0222 102.536 16.4763C102.536 17.5984 102.33 18.543 101.924 19.3102C101.518 20.0773 100.997 20.6784 100.373 21.1135C99.7487 21.5486 99.1076 21.8406 98.4551 21.978C97.5735 22.1555 96.297 22.2413 94.6255 22.2413H92.2156V29.1456H88.5234ZM92.2213 13.9459V19.1384H94.242C95.696 19.1384 96.6691 19.0411 97.1614 18.8522C97.6537 18.6633 98.0372 18.3598 98.3177 17.9534C98.5982 17.5469 98.7356 17.0717 98.7356 16.5279C98.7356 15.8638 98.5409 15.3142 98.146 14.8791C97.7567 14.4497 97.2587 14.1749 96.6634 14.0662C96.2226 13.986 95.3353 13.9402 94.0073 13.9402H92.2213V13.9459Z" fill="white"/>
<path d="M120.174 29.1456H116.156L114.559 24.9893H107.249L105.738 29.1456H101.816L108.943 10.8488H112.847L120.174 29.1456ZM113.374 21.9093L110.855 15.1195L108.382 21.9093H113.374Z" fill="white"/>
<path d="M124.352 29.1456V13.9459H118.926V10.8488H133.465V13.9459H128.05V29.1456H124.358H124.352Z" fill="white"/>
<path d="M139.962 29.1456V13.9459H134.535V10.8488H149.075V13.9459H143.66V29.1456H139.967H139.962Z" fill="white"/>
<path d="M151.344 29.1456V10.8488H155.036V29.1456H151.344Z" fill="white"/>
</g>
<defs>
<linearGradient id="paint0_linear_2624_1958" x1="2.86328" y1="19.9971" x2="164.139" y2="19.9971" gradientUnits="userSpaceOnUse">
<stop stop-color="#1B9A3C"/>
<stop offset="0.5" stop-color="#1FE851"/>
<stop offset="1" stop-color="#0B6A22"/>
</linearGradient>
<clipPath id="clip0_2624_1958">
<rect width="167" height="40" fill="white"/>
</clipPath>
</defs>
</svg>
