<svg width="116" height="24" viewBox="0 0 116 24" fill="none" xmlns="http://www.w3.org/2000/svg">
<path d="M27.7232 7.328L24.1552 21.7936C25.0512 21.7936 25.904 21.4704 26.712 20.8288C27.52 20.1888 28.0352 19.4176 28.2656 18.5216L31.0208 7.3296H35.3136L35.2832 7.4512H42.6288L39.4288 19.9152C39.424 19.9408 39.4096 19.9808 39.3872 20.048C39.368 20.104 39.3552 20.152 39.3456 20.192L39.3408 20.2112C39.1872 21.1344 39.5456 21.664 40.4128 21.8L40.4448 21.8048L39.8768 23.9872H39.2112C37.672 23.9872 36.5152 23.6544 35.7376 22.9952C34.9584 22.3312 34.6624 21.4368 34.8528 20.3104C34.8688 20.1952 34.896 20.0816 34.9328 19.9712L34.9504 19.9152L37.616 9.6336H34.7488L33.1808 16.0352C32.672 18.1488 31.4944 19.9904 29.6448 21.56L29.5792 21.6144C27.6912 23.1952 25.7024 23.9872 23.6112 23.9872H19.3232L22.8576 9.5232L23.3136 7.3296L27.7232 7.328ZM58.6352 7.328L55.4864 20.3168C55.48 20.36 55.4672 20.4032 55.4512 20.4448C55.4336 20.4864 55.4192 20.5312 55.4112 20.576C55.2912 21.3408 55.64 21.744 56.4592 21.7888L55.9216 23.9872H54.424C52.9408 23.9872 51.9328 23.5392 51.3936 22.6416C50.3168 23.5376 49.1552 23.9856 47.904 23.9856H47.2384C45.7936 23.9856 44.6272 23.5856 43.7376 22.7888C42.8448 21.992 42.5008 20.9808 42.6976 19.7568C42.7136 19.6128 42.7456 19.4688 42.7936 19.3312L44.568 11.984C44.8848 10.656 45.7008 9.5456 47.0192 8.6592C48.336 7.7744 49.7584 7.3296 51.288 7.3296H58.6336L58.6352 7.328ZM76.0304 7.328C77.4816 7.328 78.6464 7.7296 79.5344 8.528C80.4064 9.312 80.7536 10.3072 80.5776 11.5104L80.5696 11.5632L80.5008 11.9856L78.6864 19.3296C78.3712 20.6208 77.5568 21.72 76.2384 22.6272C74.9408 23.5168 73.5312 23.9712 72 23.9872H71.2848C69.816 23.9872 68.6288 23.5936 67.7328 22.808C66.832 22.0176 66.4848 21.0032 66.6848 19.7568C66.7008 19.6336 66.728 19.5104 66.7632 19.3904L66.7808 19.3312L68.6 11.9856C68.9152 10.6768 69.7248 9.5712 71.032 8.6736C72.3152 7.7936 73.7312 7.3456 75.2816 7.3296L76.0304 7.328ZM16.1152 0C17.7952 0 19.1264 0.4128 20.1168 1.2352C21.0992 2.064 21.4832 3.1584 21.2608 4.5216C21.2528 4.5696 21.2384 4.6544 21.2048 4.7872C21.1696 4.9152 21.1568 4.9984 21.1488 5.0464L17.224 20.8C17.1184 21.424 17.3776 21.76 17.9984 21.8032L17.4464 23.9872H15.7312C14.68 23.9872 13.8912 23.728 13.376 23.208C12.8528 22.688 12.672 21.9584 12.8256 21.024C12.8432 20.88 12.8768 20.7392 12.9232 20.6032L14.3104 15.072H10.4L8.1696 23.9872H3.8752L6.0992 15.072H0C0 13.512 1.24 12.2432 2.7872 12.2432C3.8304 12.2432 5.1568 12.2368 6.5936 12.2352H6.8096L8.608 5.0464C8.9856 3.5248 9.872 2.3024 11.272 1.3824C12.672 0.4624 14.2832 0 16.1152 0ZM67.7472 3.3312L66.7808 7.096H68.6288L68.0848 9.2368H66.272L63.728 19.3584C63.7264 19.384 63.712 19.4224 63.6944 19.4864C63.672 19.5504 63.6576 19.6048 63.6512 19.648C63.5008 20.5648 63.8656 21.0656 64.7424 21.1488L64.1968 23.32H62.6992C61.4912 23.32 60.5888 23.0048 59.9888 22.3792C59.3936 21.7488 59.184 20.8944 59.3616 19.8096C59.3744 19.7328 59.3904 19.6576 59.4112 19.5856C59.44 19.4768 59.4592 19.4016 59.4656 19.3584L62.0096 9.2368H59.9136L60.4576 7.096H62.5488L63.4832 3.3312H67.7472ZM88.72 6.896L88.3872 8.2816C89.6832 7.3584 91.2256 6.896 93.0064 6.896H94.488L93.3088 11.3744H90.9008L91.424 9.2496C90.3488 9.6144 89.3888 10.2736 88.5344 11.2304C87.6816 12.1824 87.1104 13.2064 86.8176 14.3024L84.5216 23.2512H80.1024L84.3232 6.896H88.72ZM53.832 9.5264H50.7776C49.8864 9.5264 49.3024 10.0752 49.024 11.1664L46.9808 19.592C46.9744 19.6352 46.96 19.7024 46.9344 19.7904L46.8912 19.9504C46.6992 21.1792 47.216 21.7904 48.4464 21.7904C49.1024 21.7904 49.7264 21.5504 50.3104 21.0704C50.8944 20.5872 51.2736 20.0064 51.4448 19.3312L53.832 9.5264ZM75.1296 9.5584C74.6176 9.5584 74.1536 9.784 73.7424 10.232C73.3424 10.6672 73.0496 11.2304 72.8688 11.92L72.8528 11.984L71.0704 19.3312C71.0592 19.392 71.0448 19.4512 71.0272 19.5104C71.0032 19.5872 70.9872 19.6464 70.9792 19.6912C70.8832 20.304 70.9456 20.8048 71.1712 21.1968C71.3968 21.5936 71.7232 21.7888 72.1504 21.7888C72.6192 21.7888 73.0688 21.576 73.4976 21.1488C73.9168 20.7344 74.2224 20.1488 74.4144 19.3936L74.4304 19.3296L76.2128 11.9856L76.2704 11.6256C76.3776 10.9712 76.3168 10.464 76.0976 10.1008C75.8784 9.7392 75.5568 9.5584 75.1296 9.5584ZM15.5648 2.184C14.9856 2.184 14.456 2.3952 13.9888 2.816C13.5232 3.2384 13.216 3.7776 13.0688 4.432L11.0832 12.2336L11.0752 12.2816H14.9792L14.9936 12.2336L16.9792 4.4272L17.0288 4.1328C17.1184 3.5712 17.0288 3.1008 16.7712 2.736C16.5056 2.3632 16.1088 2.1808 15.5648 2.1808V2.184ZM42.0448 0C42.6656 0 43.1648 0.2192 43.5392 0.6528C43.9104 1.0864 44.0448 1.608 43.9424 2.2144C43.8416 2.8224 43.5264 3.3488 43.0112 3.7936C42.4912 4.2384 41.9184 4.4608 41.2928 4.4608C40.6704 4.4608 40.1728 4.2416 39.8032 3.808C39.4288 3.3728 39.2928 2.8448 39.4032 2.2144C39.504 1.608 39.8144 1.0864 40.3312 0.6528C40.8512 0.2192 41.4208 0 42.0448 0Z" fill="#E50539"/>
<g clip-path="url(#clip0_45_5485)">
<path d="M96 0H120V16H96V0Z" fill="white"/>
<path d="M96 0H120V5.33333H96V0Z" fill="#F15B25"/>
<path d="M96 10.6666H120V16H96V10.6666Z" fill="#006934"/>
<path d="M108 10.4667C109.362 10.4667 110.467 9.36229 110.467 7.99999C110.467 6.63769 109.362 5.53333 108 5.53333C106.638 5.53333 105.533 6.63769 105.533 7.99999C105.533 9.36229 106.638 10.4667 108 10.4667Z" fill="#2C2C6F"/>
<path d="M108 10.1334C109.178 10.1334 110.133 9.17824 110.133 8.00003C110.133 6.82183 109.178 5.8667 108 5.8667C106.822 5.8667 105.867 6.82183 105.867 8.00003C105.867 9.17824 106.822 10.1334 108 10.1334Z" fill="white"/>
<path d="M108 8.4267C108.236 8.4267 108.427 8.23567 108.427 8.00003C108.427 7.76439 108.236 7.57336 108 7.57336C107.764 7.57336 107.573 7.76439 107.573 8.00003C107.573 8.23567 107.764 8.4267 108 8.4267Z" fill="#2C2C6F"/>
<path d="M108 5.8667L108.08 7.15046L108 7.78607L107.92 7.15046L108 5.8667Z" fill="#2C2C6F"/>
<path d="M108.266 5.97746C108.317 5.98419 108.364 5.94822 108.371 5.89711C108.378 5.84601 108.342 5.79912 108.291 5.79239C108.239 5.78567 108.193 5.82164 108.186 5.87275C108.179 5.92385 108.215 5.97074 108.266 5.97746Z" fill="#2C2C6F"/>
<path d="M108 10.1333L107.92 8.84954L108 8.21393L108.08 8.84954L108 10.1333Z" fill="#2C2C6F"/>
<path d="M107.734 10.0225C107.683 10.0158 107.636 10.0518 107.629 10.1029C107.622 10.154 107.658 10.2009 107.709 10.2076C107.761 10.2143 107.807 10.1784 107.814 10.1273C107.821 10.0761 107.785 10.0293 107.734 10.0225Z" fill="#2C2C6F"/>
<path d="M108.552 5.93935L108.297 7.20007L108.055 7.79332L108.143 7.15865L108.552 5.93935Z" fill="#2C2C6F"/>
<path d="M108.781 6.11528C108.828 6.13501 108.883 6.11239 108.903 6.06477C108.922 6.01714 108.9 5.96255 108.852 5.94282C108.804 5.9231 108.75 5.94571 108.73 5.99333C108.71 6.04096 108.733 6.09555 108.781 6.11528Z" fill="#2C2C6F"/>
<path d="M107.448 10.0607L107.703 8.79993L107.945 8.20668L107.857 8.84135L107.448 10.0607Z" fill="#2C2C6F"/>
<path d="M107.219 9.88472C107.172 9.86499 107.117 9.88761 107.097 9.93523C107.078 9.98286 107.1 10.0375 107.148 10.0572C107.196 10.0769 107.25 10.0543 107.27 10.0067C107.29 9.95904 107.267 9.90445 107.219 9.88472Z" fill="#2C2C6F"/>
<path d="M109.067 6.15249L108.494 7.30425L108.107 7.81471L108.356 7.22425L109.067 6.15249Z" fill="#2C2C6F"/>
<path d="M109.242 6.38155C109.283 6.41293 109.341 6.40521 109.373 6.36432C109.404 6.32342 109.396 6.26483 109.356 6.23345C109.315 6.20207 109.256 6.20979 109.225 6.25068C109.193 6.29158 109.201 6.35017 109.242 6.38155Z" fill="#2C2C6F"/>
<path d="M106.933 9.84751L107.506 8.69575L107.893 8.18529L107.645 8.77575L106.933 9.84751Z" fill="#2C2C6F"/>
<path d="M106.758 9.61845C106.717 9.58707 106.659 9.59479 106.627 9.63568C106.596 9.67658 106.604 9.73517 106.645 9.76655C106.685 9.79793 106.744 9.79021 106.775 9.74932C106.807 9.70842 106.799 9.64983 106.758 9.61845Z" fill="#2C2C6F"/>
<path d="M109.508 6.49151L108.657 7.45583L108.151 7.84871L108.544 7.34269L109.508 6.49151Z" fill="#2C2C6F"/>
<path d="M109.618 6.75812C109.65 6.79901 109.708 6.80672 109.749 6.77534C109.79 6.74397 109.798 6.68538 109.767 6.64448C109.735 6.60359 109.677 6.59587 109.636 6.62725C109.595 6.65863 109.587 6.71722 109.618 6.75812Z" fill="#2C2C6F"/>
<path d="M106.492 9.50849L107.343 8.54417L107.849 8.15129L107.456 8.65731L106.492 9.50849Z" fill="#2C2C6F"/>
<path d="M106.382 9.24188C106.35 9.20099 106.292 9.19328 106.251 9.22466C106.21 9.25603 106.202 9.31462 106.233 9.35552C106.265 9.39641 106.323 9.40413 106.364 9.37275C106.405 9.34137 106.413 9.28278 106.382 9.24188Z" fill="#2C2C6F"/>
<path d="M109.848 6.9333L108.776 7.64446L108.185 7.89298L108.696 7.50589L109.848 6.9333Z" fill="#2C2C6F"/>
<path d="M109.885 7.21931C109.904 7.26693 109.959 7.28955 110.007 7.26982C110.054 7.25009 110.077 7.1955 110.057 7.14787C110.037 7.10025 109.983 7.07764 109.935 7.09736C109.888 7.11709 109.865 7.17169 109.885 7.21931Z" fill="#2C2C6F"/>
<path d="M106.153 9.06664L107.224 8.35548L107.815 8.10696L107.304 8.49405L106.153 9.06664Z" fill="#2C2C6F"/>
<path d="M106.115 8.78063C106.096 8.73301 106.041 8.71039 105.993 8.73012C105.946 8.74984 105.923 8.80444 105.943 8.85206C105.963 8.89969 106.017 8.9223 106.065 8.90258C106.112 8.88285 106.135 8.82825 106.115 8.78063Z" fill="#2C2C6F"/>
<path d="M110.061 7.44788L108.841 7.85741L108.207 7.94465L108.8 7.70287L110.061 7.44788Z" fill="#2C2C6F"/>
<path d="M110.023 7.73372C110.029 7.78483 110.076 7.8208 110.127 7.81407C110.178 7.80735 110.214 7.76046 110.208 7.70936C110.201 7.65825 110.154 7.62228 110.103 7.629C110.052 7.63573 110.016 7.68262 110.023 7.73372Z" fill="#2C2C6F"/>
<path d="M105.939 8.55212L107.159 8.14259L107.793 8.05535L107.2 8.29713L105.939 8.55212Z" fill="#2C2C6F"/>
<path d="M105.977 8.26628C105.971 8.21517 105.924 8.1792 105.873 8.18593C105.822 8.19265 105.786 8.23954 105.792 8.29064C105.799 8.34175 105.846 8.37772 105.897 8.371C105.948 8.36427 105.984 8.31738 105.977 8.26628Z" fill="#2C2C6F"/>
<path d="M110.133 7.99998L108.849 8.07998L108.214 7.99998L108.849 7.91998L110.133 7.99998Z" fill="#2C2C6F"/>
<path d="M110.022 8.26623C110.016 8.31733 110.052 8.36422 110.103 8.37095C110.154 8.37767 110.201 8.3417 110.208 8.29059C110.214 8.23949 110.178 8.1926 110.127 8.18588C110.076 8.17915 110.029 8.21512 110.022 8.26623Z" fill="#2C2C6F"/>
<path d="M105.867 8.00002L107.15 7.92002L107.786 8.00002L107.15 8.08002L105.867 8.00002Z" fill="#2C2C6F"/>
<path d="M105.977 7.73377C105.984 7.68267 105.948 7.63578 105.897 7.62905C105.846 7.62233 105.799 7.6583 105.792 7.70941C105.786 7.76051 105.822 7.8074 105.873 7.81412C105.924 7.82085 105.971 7.78488 105.977 7.73377Z" fill="#2C2C6F"/>
<path d="M110.061 8.55213L108.8 8.29714L108.207 8.05536L108.841 8.14259L110.061 8.55213Z" fill="#2C2C6F"/>
<path d="M109.885 8.78066C109.865 8.82829 109.888 8.88288 109.935 8.90261C109.983 8.92234 110.037 8.89972 110.057 8.8521C110.077 8.80448 110.054 8.74988 110.007 8.73015C109.959 8.71043 109.904 8.73304 109.885 8.78066Z" fill="#2C2C6F"/>
<path d="M105.939 7.44787L107.2 7.70286L107.793 7.94464L107.159 7.85741L105.939 7.44787Z" fill="#2C2C6F"/>
<path d="M106.115 7.21934C106.135 7.17171 106.112 7.11712 106.065 7.09739C106.017 7.07766 105.962 7.10028 105.943 7.1479C105.923 7.19552 105.946 7.25012 105.993 7.26985C106.041 7.28957 106.095 7.26696 106.115 7.21934Z" fill="#2C2C6F"/>
<path d="M109.848 9.06672L108.696 8.49412L108.185 8.10703L108.776 8.35556L109.848 9.06672Z" fill="#2C2C6F"/>
<path d="M109.618 9.2419C109.587 9.2828 109.595 9.34139 109.636 9.37277C109.677 9.40415 109.735 9.39644 109.767 9.35554C109.798 9.31465 109.79 9.25606 109.749 9.22468C109.708 9.1933 109.65 9.20101 109.618 9.2419Z" fill="#2C2C6F"/>
<path d="M106.152 6.93334L107.304 7.50594L107.815 7.89303L107.224 7.6445L106.152 6.93334Z" fill="#2C2C6F"/>
<path d="M106.382 6.75816C106.413 6.71726 106.405 6.65867 106.364 6.62729C106.323 6.59591 106.265 6.60363 106.233 6.64452C106.202 6.68542 106.21 6.74401 106.251 6.77538C106.292 6.80676 106.35 6.79905 106.382 6.75816Z" fill="#2C2C6F"/>
<path d="M109.508 9.50847L108.544 8.65729L108.151 8.15127L108.657 8.54415L109.508 9.50847Z" fill="#2C2C6F"/>
<path d="M109.242 9.61844C109.201 9.64982 109.193 9.70841 109.225 9.74931C109.256 9.7902 109.315 9.79791 109.356 9.76653C109.396 9.73515 109.404 9.67657 109.373 9.63567C109.341 9.59478 109.283 9.58706 109.242 9.61844Z" fill="#2C2C6F"/>
<path d="M106.492 6.49153L107.456 7.34271L107.849 7.84873L107.343 7.45585L106.492 6.49153Z" fill="#2C2C6F"/>
<path d="M106.758 6.38156C106.799 6.35018 106.807 6.29159 106.775 6.25069C106.744 6.2098 106.685 6.20209 106.644 6.23347C106.604 6.26485 106.596 6.32343 106.627 6.36433C106.659 6.40522 106.717 6.41294 106.758 6.38156Z" fill="#2C2C6F"/>
<path d="M109.067 9.84762L108.356 8.77585L108.107 8.18539L108.494 8.69585L109.067 9.84762Z" fill="#2C2C6F"/>
<path d="M108.781 9.8848C108.733 9.90453 108.71 9.95913 108.73 10.0068C108.75 10.0544 108.805 10.077 108.852 10.0573C108.9 10.0375 108.922 9.98294 108.903 9.93532C108.883 9.88769 108.828 9.86508 108.781 9.8848Z" fill="#2C2C6F"/>
<path d="M106.933 6.15257L107.645 7.22433L107.893 7.81479L107.506 7.30433L106.933 6.15257Z" fill="#2C2C6F"/>
<path d="M107.219 6.11538C107.267 6.09565 107.29 6.04106 107.27 5.99343C107.25 5.94581 107.196 5.92319 107.148 5.94292C107.1 5.96265 107.078 6.01724 107.097 6.06487C107.117 6.11249 107.172 6.1351 107.219 6.11538Z" fill="#2C2C6F"/>
<path d="M108.552 10.0607L108.143 8.84144L108.055 8.20677L108.297 8.80002L108.552 10.0607Z" fill="#2C2C6F"/>
<path d="M108.266 10.0226C108.215 10.0293 108.179 10.0762 108.186 10.1273C108.193 10.1784 108.24 10.2144 108.291 10.2077C108.342 10.2009 108.378 10.1541 108.371 10.103C108.364 10.0519 108.317 10.0159 108.266 10.0226Z" fill="#2C2C6F"/>
<path d="M107.448 5.93938L107.857 7.15869L107.945 7.79335L107.703 7.2001L107.448 5.93938Z" fill="#2C2C6F"/>
<path d="M107.734 5.97751C107.785 5.97079 107.821 5.9239 107.814 5.8728C107.807 5.82169 107.76 5.78572 107.709 5.79244C107.658 5.79917 107.622 5.84606 107.629 5.89716C107.636 5.94827 107.683 5.98424 107.734 5.97751Z" fill="#2C2C6F"/>
</g>
<defs>
<clipPath id="clip0_45_5485">
<rect x="100" width="16" height="16" rx="8" fill="white"/>
</clipPath>
</defs>
</svg>
