<svg width="166" height="25" viewBox="0 0 166 25" fill="none" xmlns="http://www.w3.org/2000/svg">
<g clip-path="url(#clip0_2592_2935)">
<path d="M13.5314 0.431152C7.32019 0.431152 0 3.20736 0 12.2396C0 21.2717 7.32019 24.0479 13.5314 24.0479H20.371V12.2026H15.7866V19.4949H13.5314C7.61604 19.4949 4.88025 16.9036 4.88025 12.2026C4.88025 8.31581 7.57902 4.98423 14.3447 4.98423H20.371V0.431152H13.5314Z" fill="white"/>
<path d="M28.3871 9.27826C28.3871 6.61313 30.3096 4.61411 33.563 4.61411C36.8165 4.61411 38.776 6.72403 38.776 9.72239V12.9799H28.3871V9.27826ZM28.3871 24.0478V17.57H38.776V24.0478H43.3604V9.38933C43.3604 6.76105 42.473 4.57709 40.6614 2.76337C38.8498 0.94947 36.4838 0.0610352 33.563 0.0610352C30.7163 0.0610352 28.3501 0.94947 26.5385 2.76337C24.7269 4.57709 23.8027 6.76105 23.8027 9.38933V24.0478H28.3871Z" fill="white"/>
<path d="M61.6595 24.0479V19.4948H51.3774V0.431152H46.793V24.0479H61.6595Z" fill="white"/>
<path d="M68.6119 9.28313C68.6119 6.61801 70.5342 4.61898 73.7876 4.61898C77.0411 4.61898 79.0008 6.72908 79.0008 9.72744V12.9848H68.6119V9.28313ZM68.6119 24.053V17.5749H79.0008V24.053H83.5848V9.39421C83.5848 6.76611 82.6976 4.58196 80.8862 2.76824C79.0745 0.954351 76.7082 0.065918 73.7876 0.065918C70.9408 0.065918 68.5745 0.954351 66.7633 2.76824C64.9514 4.58196 64.0273 6.76611 64.0273 9.39421V24.053H68.6119Z" fill="white"/>
<path d="M107.043 0.431152H101.578L96.4591 8.54739L91.34 0.431152H85.875L93.3226 12.2403L85.875 24.0495H91.34L96.4591 15.9332L101.578 24.0495H107.043L99.5954 12.2403L107.043 0.431152Z" fill="white"/>
<path d="M115.84 0.444336C110.183 0.444336 108.188 3.66485 108.188 7.29246C108.188 10.6609 109.702 14.2887 115.063 14.2887H118.354C120.72 14.2887 122.014 14.6958 122.014 16.8798C122.014 18.8417 120.72 19.508 118.354 19.508H109.222V24.0611H118.354C124.566 24.0611 126.414 21.6179 126.414 17.0279C126.414 13.6224 124.972 9.95758 118.65 9.95758H115.581C113.621 9.95758 112.586 9.4394 112.586 7.55163C112.586 5.81179 113.622 4.99741 115.618 4.99741H124.565V0.444336H115.84Z" fill="white"/>
<path d="M147.487 0.402344H142.607L136.95 11.9146L131.294 0.402344H126.414L134.732 16.3196V24.0191H139.316V16.3196L147.487 0.402344Z" fill="white"/>
<path d="M155.251 0.432129C149.594 0.432129 147.598 3.65264 147.598 7.28025C147.598 10.6489 149.114 14.2765 154.474 14.2765H157.765C160.131 14.2765 161.425 14.6836 161.425 16.8676C161.425 18.8296 160.131 19.4958 157.765 19.4958H148.633V24.0489H157.765C163.976 24.0489 165.825 21.6058 165.825 17.0157C165.825 13.6102 164.382 9.94537 158.061 9.94537H154.992C153.033 9.94537 151.997 9.42719 151.997 7.53943C151.997 5.79958 153.033 4.9852 155.029 4.9852H163.976V0.432129H155.251Z" fill="white"/>
</g>
<defs>
<clipPath id="clip0_2592_2935">
<rect width="166" height="24" fill="white" transform="translate(0 0.0610352)"/>
</clipPath>
</defs>
</svg>
