<svg width="36" height="43" viewBox="0 0 36 43" fill="none" xmlns="http://www.w3.org/2000/svg">
<rect width="34.97" height="41.48" transform="translate(0.333984 0.820801)" fill="#B59959"/>
<path d="M33.304 3.8208H2.33398V34.3008H33.304V3.8208Z" fill="black"/>
<path d="M10.8641 32.1009H10.1041L9.87406 31.3909H8.64406L8.41406 32.1009H7.66406L8.86406 28.6909H9.68406L10.8641 32.1009ZM8.97406 30.3909L8.81406 30.7709H9.67406L9.53406 30.3509L9.24406 29.3509L8.97406 30.3909Z" fill="#B59959"/>
<path d="M13.9939 30.3909L14.4339 28.6909H15.1639L14.1639 32.1009H13.4839L12.9739 29.7709L12.4439 32.1009H11.7539L10.7539 28.6909H11.5039L11.9439 30.3909L12.1039 31.0809L12.2439 30.3909L12.6139 28.6909H13.3139L13.6839 30.3909L13.8239 31.0809L13.9939 30.3909Z" fill="#B59959"/>
<path d="M18.2645 32.1009H17.5045L17.2845 31.3909H16.0445L15.8145 32.1009H15.0645L16.2745 28.6909H17.0845L18.2645 32.1009ZM16.3745 30.3909L16.2345 30.8109H17.0945L16.9545 30.3909L16.6645 29.3909L16.3745 30.3909Z" fill="#B59959"/>
<path d="M20.7034 30.4611C20.8414 30.4821 20.9682 30.5491 21.0634 30.6511C21.1464 30.7584 21.1982 30.8864 21.2134 31.0211L21.3434 32.1011H20.6234L20.5434 31.2211C20.5341 31.0958 20.4851 30.9766 20.4034 30.8811C20.2922 30.8046 20.1578 30.7692 20.0234 30.7811H19.4034V32.1011H18.6934V28.6911H20.2734C20.4228 28.6783 20.5732 28.6956 20.7158 28.7419C20.8584 28.7883 20.9902 28.8628 21.1034 28.9611C21.1872 29.0508 21.2525 29.1561 21.2954 29.2711C21.3383 29.3861 21.358 29.5085 21.3534 29.6311C21.3663 29.8252 21.307 30.0172 21.1871 30.1704C21.0672 30.3235 20.8949 30.4271 20.7034 30.4611ZM19.4034 29.2911V30.2011H20.0734C20.2295 30.213 20.3849 30.1706 20.5134 30.0811C20.563 30.0377 20.6023 29.9838 20.6282 29.9232C20.6542 29.8626 20.6662 29.797 20.6634 29.7311C20.6665 29.6709 20.6575 29.6106 20.6369 29.5539C20.6163 29.4972 20.5845 29.4453 20.5434 29.4011C20.4362 29.3233 20.3057 29.2845 20.1734 29.2911H19.4034Z" fill="#B59959"/>
<path d="M21.9238 28.6909H23.1738C24.2538 28.6909 24.7938 29.2609 24.7938 30.3909C24.823 30.8446 24.6842 31.2931 24.4038 31.6509C24.2619 31.8066 24.0864 31.9281 23.8906 32.0061C23.6949 32.084 23.4839 32.1164 23.2738 32.1009H21.9238V28.6909ZM22.6338 31.5009H23.1838C23.3125 31.513 23.4423 31.4958 23.5635 31.4508C23.6847 31.4058 23.7942 31.3341 23.8838 31.2409C24.0387 30.9859 24.1088 30.6883 24.0838 30.3909C24.1109 30.0889 24.037 29.7864 23.8738 29.5309C23.7685 29.4334 23.6434 29.3597 23.5071 29.3149C23.3708 29.27 23.2264 29.255 23.0838 29.2709H22.6338V31.5009Z" fill="#B59959"/>
<path d="M26.5741 32.2111C26.214 32.2215 25.8612 32.1086 25.5741 31.8911C25.446 31.7902 25.3432 31.6609 25.2737 31.5133C25.2043 31.3658 25.1702 31.2041 25.1741 31.0411H25.8141C25.8137 31.1241 25.8324 31.2061 25.8689 31.2806C25.9053 31.3552 25.9584 31.4204 26.0241 31.4711C26.1792 31.5873 26.3708 31.6441 26.5641 31.6311C26.7215 31.6379 26.8776 31.5997 27.0141 31.5211C27.0689 31.4884 27.1138 31.4412 27.1437 31.3848C27.1737 31.3284 27.1877 31.2649 27.1841 31.2011C27.1866 31.1527 27.1769 31.1045 27.1559 31.0608C27.135 31.0172 27.1034 30.9794 27.0641 30.9511C26.944 30.8693 26.8075 30.8147 26.6641 30.7911L26.0341 30.6311C25.8018 30.5802 25.5896 30.4619 25.4241 30.2911C25.2758 30.1232 25.1971 29.905 25.2041 29.6811C25.203 29.5399 25.2319 29.4 25.2888 29.2708C25.3456 29.1415 25.4293 29.0257 25.5341 28.9311C25.7943 28.7079 26.1321 28.5964 26.4741 28.6211C26.8327 28.5972 27.1879 28.7038 27.4741 28.9211C27.5956 29.0212 27.6941 29.1462 27.7631 29.2877C27.8321 29.4291 27.87 29.5838 27.8741 29.7411H27.1941C27.1753 29.5843 27.0964 29.4409 26.9741 29.3411C26.8352 29.2402 26.6655 29.1907 26.4941 29.2011C26.349 29.1916 26.2049 29.2303 26.0841 29.3111C26.0372 29.3458 25.9992 29.391 25.9732 29.4431C25.9471 29.4953 25.9337 29.5528 25.9341 29.6111C25.9341 29.7911 26.0641 29.9211 26.3341 29.9911L27.0141 30.1611C27.6241 30.3111 27.9341 30.6311 27.9341 31.1611C27.9404 31.3104 27.911 31.459 27.8484 31.5946C27.7858 31.7303 27.6918 31.8491 27.5741 31.9411C27.2812 32.1424 26.9285 32.2376 26.5741 32.2111Z" fill="#B59959"/>
<path d="M10.2535 15.8609C9.26986 15.9243 8.29656 15.6295 7.51346 15.0309C7.18546 14.738 6.92587 14.3766 6.75307 13.9722C6.58026 13.5678 6.49846 13.1304 6.51346 12.6909H8.81347C8.81877 12.9076 8.86757 13.1211 8.95687 13.3186C9.04617 13.5162 9.17427 13.6938 9.33347 13.8409C9.65897 14.0715 10.0563 14.1779 10.4535 14.1409C11.2935 14.1409 11.8035 13.9109 11.8035 13.2109C11.8035 12.8209 11.5435 12.4609 10.9135 12.2109C10.3124 11.9807 9.69787 11.7871 9.07347 11.6309C8.47707 11.429 7.91417 11.1392 7.40347 10.7709C6.96957 10.3311 6.72542 9.73868 6.72346 9.12088C6.69982 8.74341 6.76536 8.36568 6.91477 8.01823C7.06417 7.67079 7.29327 7.36338 7.58347 7.12088C8.38817 6.60094 9.33676 6.34892 10.2935 6.40088C11.217 6.3349 12.1332 6.6048 12.8735 7.16088C13.2102 7.45286 13.4846 7.80963 13.6805 8.20993C13.8763 8.61024 13.9896 9.04587 14.0135 9.49088H11.8135C11.7886 9.13699 11.6321 8.80524 11.3748 8.56095C11.1176 8.31665 10.7782 8.1775 10.4235 8.17088C9.56346 8.17088 9.21346 8.59088 9.21346 9.00088C9.20516 9.22532 9.27267 9.44603 9.40507 9.62744C9.53757 9.80884 9.72717 9.94039 9.94347 10.0009C10.7235 10.2609 11.1835 10.3809 11.5335 10.4909C12.7535 10.8509 14.0735 11.4909 14.1135 13.0309C14.1411 13.4365 14.0689 13.8427 13.9033 14.214C13.7377 14.5853 13.4837 14.9104 13.1635 15.1609C12.2844 15.6777 11.2715 15.9214 10.2535 15.8609Z" fill="#B59959"/>
<path d="M24.6732 12.4612V10.6112H29.1932C29.1932 13.0712 28.6832 14.0612 28.1932 14.5512C27.1932 15.5512 26.4232 15.8612 24.4932 15.8612C23.8806 15.8761 23.2718 15.7616 22.7064 15.5254C22.141 15.2891 21.6317 14.9363 21.2118 14.49C20.7919 14.0437 20.4708 13.5139 20.2695 12.9352C20.0681 12.3564 19.991 11.7417 20.0432 11.1312C19.9956 10.4996 20.0847 9.86522 20.3043 9.27113C20.5239 8.67704 20.8689 8.13723 21.3158 7.68841C21.7627 7.2396 22.3011 6.89232 22.8942 6.67021C23.4874 6.44809 24.1214 6.35635 24.7532 6.40122C27.9132 6.40122 28.8532 8.30122 29.2032 9.65122H26.8732C26.7438 9.22157 26.4651 8.85235 26.0873 8.61027C25.7095 8.36819 25.2576 8.26922 24.8132 8.33122C24.4683 8.34527 24.13 8.4306 23.8196 8.58185C23.5093 8.7331 23.2336 8.94699 23.01 9.21003C22.7864 9.47308 22.6198 9.77959 22.5205 10.1102C22.4212 10.4409 22.3915 10.7885 22.4332 11.1312C22.4332 12.0412 22.8232 14.0112 24.9032 14.0112C25.3862 14.033 25.8625 13.8921 26.256 13.6111C26.6494 13.33 26.9372 12.9251 27.0732 12.4612H24.6732Z" fill="#B59959"/>
<path d="M15.9348 17.8408V26.8708H13.6748V22.0908L12.2948 25.2508L11.5948 26.8708H10.7348L10.0348 25.2508L8.73484 22.2808V26.8708H6.46484V17.8408H9.07484L11.1648 22.6508L13.2548 17.8408H15.9348Z" fill="#B59959"/>
<path d="M18.2407 6.5H15.9707V8.54H18.2407V6.5Z" fill="#B59959"/>
<path d="M18.2407 9.5H15.9707V15.8H18.2407V9.5Z" fill="#B59959"/>
<path d="M22.8137 17.8408H19.8137L16.5137 26.8408H18.8137L19.4837 25.0108H23.2137L23.8137 26.8708H26.0737L22.8137 17.8408ZM20.1437 23.1608L21.3137 19.9508L22.4937 23.1608H20.1437Z" fill="#B59959"/>
<path d="M29.0743 26.8708H27.4543L24.1543 17.8408H29.0743V26.8708Z" fill="#FF0000"/>
<path d="M4.60938 39.3008V36.4375H6.73242V36.9219H5.1875V37.5566H6.625V38.0391H5.1875V38.8184H6.78711V39.3008H4.60938ZM7.27344 36.4375H7.85156V37.9883C7.85156 38.2344 7.85872 38.3939 7.87305 38.4668C7.89779 38.584 7.95638 38.6784 8.04883 38.75C8.14258 38.8203 8.27018 38.8555 8.43164 38.8555C8.5957 38.8555 8.7194 38.8223 8.80273 38.7559C8.88607 38.6882 8.9362 38.6055 8.95312 38.5078C8.97005 38.4102 8.97852 38.248 8.97852 38.0215V36.4375H9.55664V37.9414C9.55664 38.2852 9.54102 38.528 9.50977 38.6699C9.47852 38.8118 9.42057 38.9316 9.33594 39.0293C9.2526 39.127 9.14062 39.2051 9 39.2637C8.85938 39.321 8.67578 39.3496 8.44922 39.3496C8.17578 39.3496 7.9681 39.3184 7.82617 39.2559C7.68555 39.1921 7.57422 39.11 7.49219 39.0098C7.41016 38.9082 7.35612 38.8021 7.33008 38.6914C7.29232 38.5273 7.27344 38.2852 7.27344 37.9648V36.4375ZM10.1699 39.3008V36.4375H11.3867C11.6927 36.4375 11.9147 36.4635 12.0527 36.5156C12.1921 36.5664 12.3034 36.6576 12.3867 36.7891C12.4701 36.9206 12.5117 37.071 12.5117 37.2402C12.5117 37.4551 12.4486 37.6328 12.3223 37.7734C12.196 37.9128 12.0072 38.0007 11.7559 38.0371C11.8809 38.11 11.9837 38.1901 12.0645 38.2773C12.1465 38.3646 12.2565 38.5195 12.3945 38.7422L12.7441 39.3008H12.0527L11.6348 38.6777C11.4863 38.4551 11.3848 38.3151 11.3301 38.2578C11.2754 38.1992 11.2174 38.1595 11.1562 38.1387C11.0951 38.1165 10.998 38.1055 10.8652 38.1055H10.748V39.3008H10.1699ZM10.748 37.6484H11.1758C11.4531 37.6484 11.6263 37.6367 11.6953 37.6133C11.7643 37.5898 11.8184 37.5495 11.8574 37.4922C11.8965 37.4349 11.916 37.3633 11.916 37.2773C11.916 37.181 11.89 37.1035 11.8379 37.0449C11.7871 36.985 11.7148 36.9473 11.6211 36.9316C11.5742 36.9251 11.4336 36.9219 11.1992 36.9219H10.748V37.6484ZM12.9414 37.8867C12.9414 37.5951 12.985 37.3503 13.0723 37.1523C13.1374 37.0065 13.2259 36.8757 13.3379 36.7598C13.4512 36.6439 13.5749 36.5579 13.709 36.502C13.8874 36.4264 14.0931 36.3887 14.3262 36.3887C14.748 36.3887 15.0853 36.5195 15.3379 36.7812C15.5918 37.043 15.7188 37.4069 15.7188 37.873C15.7188 38.3353 15.5931 38.6973 15.3418 38.959C15.0905 39.2194 14.7546 39.3496 14.334 39.3496C13.9082 39.3496 13.5697 39.2201 13.3184 38.9609C13.0671 38.7005 12.9414 38.3424 12.9414 37.8867ZM13.5371 37.8672C13.5371 38.1914 13.612 38.4375 13.7617 38.6055C13.9115 38.7721 14.1016 38.8555 14.332 38.8555C14.5625 38.8555 14.7513 38.7728 14.8984 38.6074C15.0469 38.4408 15.1211 38.1914 15.1211 37.8594C15.1211 37.5312 15.0488 37.2865 14.9043 37.125C14.7611 36.9635 14.5703 36.8828 14.332 36.8828C14.0938 36.8828 13.9017 36.9648 13.7559 37.1289C13.61 37.2917 13.5371 37.5378 13.5371 37.8672ZM16.1719 39.3008V36.4375H17.0996C17.4512 36.4375 17.6803 36.4518 17.7871 36.4805C17.9512 36.5234 18.0885 36.6172 18.1992 36.7617C18.3099 36.9049 18.3652 37.0905 18.3652 37.3184C18.3652 37.4941 18.3333 37.6419 18.2695 37.7617C18.2057 37.8815 18.1243 37.9759 18.0254 38.0449C17.9277 38.1126 17.8281 38.1576 17.7266 38.1797C17.5885 38.207 17.3887 38.2207 17.127 38.2207H16.75V39.3008H16.1719ZM16.75 36.9219V37.7344H17.0664C17.2943 37.7344 17.4466 37.7194 17.5234 37.6895C17.6003 37.6595 17.6602 37.6126 17.7031 37.5488C17.7474 37.485 17.7695 37.4108 17.7695 37.3262C17.7695 37.222 17.7389 37.1361 17.6777 37.0684C17.6165 37.0007 17.5391 36.9583 17.4453 36.9414C17.3763 36.9284 17.2376 36.9219 17.0293 36.9219H16.75ZM18.8398 39.3008V36.4375H20.9629V36.9219H19.418V37.5566H20.8555V38.0391H19.418V38.8184H21.0176V39.3008H18.8398ZM24.3535 38.791V39.3008H22.4297C22.4505 39.1081 22.513 38.9258 22.6172 38.7539C22.7214 38.5807 22.9271 38.3516 23.2344 38.0664C23.4818 37.8359 23.6335 37.6797 23.6895 37.5977C23.765 37.4844 23.8027 37.3724 23.8027 37.2617C23.8027 37.1393 23.7695 37.0456 23.7031 36.9805C23.638 36.9141 23.5475 36.8809 23.4316 36.8809C23.3171 36.8809 23.2259 36.9154 23.1582 36.9844C23.0905 37.0534 23.0514 37.168 23.041 37.3281L22.4941 37.2734C22.5267 36.9714 22.6289 36.7546 22.8008 36.623C22.9727 36.4915 23.1875 36.4258 23.4453 36.4258C23.7279 36.4258 23.9499 36.502 24.1113 36.6543C24.2728 36.8066 24.3535 36.9961 24.3535 37.2227C24.3535 37.3516 24.3301 37.4746 24.2832 37.5918C24.2376 37.7077 24.1647 37.8294 24.0645 37.957C23.998 38.0417 23.8783 38.1634 23.7051 38.3223C23.5319 38.4811 23.4219 38.5866 23.375 38.6387C23.3294 38.6908 23.2923 38.7415 23.2637 38.791H24.3535ZM25.6543 36.4258C25.9316 36.4258 26.1484 36.5247 26.3047 36.7227C26.4909 36.957 26.584 37.3457 26.584 37.8887C26.584 38.4303 26.4902 38.8197 26.3027 39.0566C26.1478 39.252 25.9316 39.3496 25.6543 39.3496C25.3757 39.3496 25.151 39.2428 24.9805 39.0293C24.8099 38.8145 24.7246 38.4323 24.7246 37.8828C24.7246 37.3438 24.8184 36.9557 25.0059 36.7188C25.1608 36.5234 25.377 36.4258 25.6543 36.4258ZM25.6543 36.8809C25.5879 36.8809 25.5286 36.9023 25.4766 36.9453C25.4245 36.987 25.3841 37.0625 25.3555 37.1719C25.3177 37.3138 25.2988 37.5527 25.2988 37.8887C25.2988 38.2246 25.3158 38.4557 25.3496 38.582C25.3835 38.707 25.4258 38.7904 25.4766 38.832C25.5286 38.8737 25.5879 38.8945 25.6543 38.8945C25.7207 38.8945 25.7799 38.8737 25.832 38.832C25.8841 38.7891 25.9245 38.7129 25.9531 38.6035C25.9909 38.4629 26.0098 38.2246 26.0098 37.8887C26.0098 37.5527 25.9928 37.3223 25.959 37.1973C25.9251 37.071 25.8822 36.987 25.8301 36.9453C25.7793 36.9023 25.7207 36.8809 25.6543 36.8809ZM28.8066 38.791V39.3008H26.8828C26.9036 39.1081 26.9661 38.9258 27.0703 38.7539C27.1745 38.5807 27.3802 38.3516 27.6875 38.0664C27.9349 37.8359 28.0866 37.6797 28.1426 37.5977C28.2181 37.4844 28.2559 37.3724 28.2559 37.2617C28.2559 37.1393 28.2227 37.0456 28.1562 36.9805C28.0911 36.9141 28.0007 36.8809 27.8848 36.8809C27.7702 36.8809 27.679 36.9154 27.6113 36.9844C27.5436 37.0534 27.5046 37.168 27.4941 37.3281L26.9473 37.2734C26.9798 36.9714 27.082 36.7546 27.2539 36.623C27.4258 36.4915 27.6406 36.4258 27.8984 36.4258C28.181 36.4258 28.403 36.502 28.5645 36.6543C28.7259 36.8066 28.8066 36.9961 28.8066 37.2227C28.8066 37.3516 28.7832 37.4746 28.7363 37.5918C28.6908 37.7077 28.6178 37.8294 28.5176 37.957C28.4512 38.0417 28.3314 38.1634 28.1582 38.3223C27.985 38.4811 27.875 38.5866 27.8281 38.6387C27.7826 38.6908 27.7454 38.7415 27.7168 38.791H28.8066ZM30.2559 39.3008V38.7246H29.084V38.2441L30.3262 36.4258H30.7871V38.2422H31.1426V38.7246H30.7871V39.3008H30.2559ZM30.2559 38.2422V37.2637L29.5977 38.2422H30.2559Z" fill="black"/>
</svg>
