<svg width="35" height="43" viewBox="0 0 35 43" fill="none" xmlns="http://www.w3.org/2000/svg">
<rect width="34.97" height="41.48" transform="translate(0 0.820801)" fill="#B59959"/>
<path d="M32.97 3.8208H2V34.3008H32.97V3.8208Z" fill="black"/>
<path d="M10.5301 32.1009H9.77008L9.54008 31.3909H8.31008L8.08008 32.1009H7.33008L8.53008 28.6909H9.35008L10.5301 32.1009ZM8.64008 30.3909L8.48008 30.7709H9.34008L9.20008 30.3509L8.91008 29.3509L8.64008 30.3909Z" fill="#B59959"/>
<path d="M13.6599 30.3909L14.0999 28.6909H14.8299L13.8299 32.1009H13.1499L12.6399 29.7709L12.1099 32.1009H11.4199L10.4199 28.6909H11.1699L11.6099 30.3909L11.7699 31.0809L11.9099 30.3909L12.2799 28.6909H12.9799L13.3499 30.3909L13.4899 31.0809L13.6599 30.3909Z" fill="#B59959"/>
<path d="M17.9305 32.1009H17.1705L16.9505 31.3909H15.7105L15.4805 32.1009H14.7305L15.9405 28.6909H16.7505L17.9305 32.1009ZM16.0405 30.3909L15.9005 30.8109H16.7605L16.6205 30.3909L16.3305 29.3909L16.0405 30.3909Z" fill="#B59959"/>
<path d="M20.3694 30.4611C20.5074 30.4821 20.6342 30.5491 20.7294 30.6511C20.8124 30.7584 20.8642 30.8864 20.8794 31.0211L21.0094 32.1011H20.2894L20.2094 31.2211C20.2001 31.0958 20.1511 30.9766 20.0694 30.8811C19.9582 30.8046 19.8238 30.7692 19.6894 30.7811H19.0694V32.1011H18.3594V28.6911H19.9394C20.0888 28.6783 20.2392 28.6956 20.3818 28.7419C20.5244 28.7883 20.6562 28.8628 20.7694 28.9611C20.8532 29.0508 20.9185 29.1561 20.9614 29.2711C21.0043 29.3861 21.024 29.5085 21.0194 29.6311C21.0323 29.8252 20.973 30.0172 20.8531 30.1704C20.7332 30.3235 20.5609 30.4271 20.3694 30.4611ZM19.0694 29.2911V30.2011H19.7394C19.8955 30.213 20.0509 30.1706 20.1794 30.0811C20.229 30.0377 20.2683 29.9838 20.2942 29.9232C20.3202 29.8626 20.3322 29.797 20.3294 29.7311C20.3325 29.6709 20.3235 29.6106 20.3029 29.5539C20.2823 29.4972 20.2505 29.4453 20.2094 29.4011C20.1022 29.3233 19.9717 29.2845 19.8394 29.2911H19.0694Z" fill="#B59959"/>
<path d="M21.5898 28.6909H22.8398C23.9198 28.6909 24.4598 29.2609 24.4598 30.3909C24.489 30.8446 24.3502 31.2931 24.0698 31.6509C23.9279 31.8066 23.7524 31.9281 23.5566 32.0061C23.3609 32.084 23.1499 32.1164 22.9398 32.1009H21.5898V28.6909ZM22.2998 31.5009H22.8498C22.9785 31.513 23.1083 31.4958 23.2295 31.4508C23.3507 31.4058 23.4602 31.3341 23.5498 31.2409C23.7047 30.9859 23.7748 30.6883 23.7498 30.3909C23.7769 30.0889 23.703 29.7864 23.5398 29.5309C23.4345 29.4334 23.3094 29.3597 23.1731 29.3149C23.0368 29.27 22.8924 29.255 22.7498 29.2709H22.2998V31.5009Z" fill="#B59959"/>
<path d="M26.2401 32.2111C25.88 32.2215 25.5272 32.1086 25.2401 31.8911C25.112 31.7902 25.0092 31.6609 24.9397 31.5133C24.8703 31.3658 24.8362 31.2041 24.8401 31.0411H25.4801C25.4797 31.1241 25.4984 31.2061 25.5349 31.2806C25.5713 31.3552 25.6244 31.4204 25.6901 31.4711C25.8452 31.5873 26.0368 31.6441 26.2301 31.6311C26.3875 31.6379 26.5436 31.5997 26.6801 31.5211C26.7349 31.4884 26.7798 31.4412 26.8097 31.3848C26.8397 31.3284 26.8537 31.2649 26.8501 31.2011C26.8526 31.1527 26.8429 31.1045 26.8219 31.0608C26.801 31.0172 26.7694 30.9794 26.7301 30.9511C26.61 30.8693 26.4735 30.8147 26.3301 30.7911L25.7001 30.6311C25.4678 30.5802 25.2556 30.4619 25.0901 30.2911C24.9418 30.1232 24.8631 29.905 24.8701 29.6811C24.869 29.5399 24.8979 29.4 24.9548 29.2708C25.0116 29.1415 25.0953 29.0257 25.2001 28.9311C25.4603 28.7079 25.7981 28.5964 26.1401 28.6211C26.4987 28.5972 26.8539 28.7038 27.1401 28.9211C27.2616 29.0212 27.3601 29.1462 27.4291 29.2877C27.4981 29.4291 27.536 29.5838 27.5401 29.7411H26.8601C26.8413 29.5843 26.7624 29.4409 26.6401 29.3411C26.5012 29.2402 26.3315 29.1907 26.1601 29.2011C26.015 29.1916 25.8709 29.2303 25.7501 29.3111C25.7032 29.3458 25.6652 29.391 25.6392 29.4431C25.6131 29.4953 25.5997 29.5528 25.6001 29.6111C25.6001 29.7911 25.7301 29.9211 26.0001 29.9911L26.6801 30.1611C27.2901 30.3111 27.6001 30.6311 27.6001 31.1611C27.6064 31.3104 27.577 31.459 27.5144 31.5946C27.4518 31.7303 27.3578 31.8491 27.2401 31.9411C26.9472 32.1424 26.5945 32.2376 26.2401 32.2111Z" fill="#B59959"/>
<path d="M9.91948 15.8609C8.93588 15.9243 7.96258 15.6295 7.17948 15.0309C6.85148 14.738 6.59188 14.3766 6.41908 13.9722C6.24627 13.5678 6.16448 13.1304 6.17948 12.6909H8.47948C8.48478 12.9076 8.53358 13.1211 8.62288 13.3186C8.71218 13.5162 8.84028 13.6938 8.99948 13.8409C9.32498 14.0715 9.72228 14.1779 10.1195 14.1409C10.9595 14.1409 11.4695 13.9109 11.4695 13.2109C11.4695 12.8209 11.2095 12.4609 10.5795 12.2109C9.97838 11.9807 9.36388 11.7871 8.73948 11.6309C8.14308 11.429 7.58018 11.1392 7.06948 10.7709C6.63558 10.3311 6.39144 9.73868 6.38948 9.12088C6.36584 8.74341 6.43137 8.36568 6.58078 8.01823C6.73018 7.67079 6.95928 7.36338 7.24948 7.12088C8.05418 6.60094 9.00278 6.34892 9.95948 6.40088C10.883 6.3349 11.7992 6.6048 12.5395 7.16088C12.8762 7.45286 13.1506 7.80963 13.3465 8.20993C13.5423 8.61024 13.6556 9.04587 13.6795 9.49088H11.4795C11.4546 9.13699 11.2981 8.80524 11.0408 8.56095C10.7836 8.31665 10.4442 8.1775 10.0895 8.17088C9.22948 8.17088 8.87948 8.59088 8.87948 9.00088C8.87118 9.22532 8.93868 9.44603 9.07108 9.62744C9.20358 9.80884 9.39318 9.94039 9.60948 10.0009C10.3895 10.2609 10.8495 10.3809 11.1995 10.4909C12.4195 10.8509 13.7395 11.4909 13.7795 13.0309C13.8071 13.4365 13.7349 13.8427 13.5693 14.214C13.4037 14.5853 13.1497 14.9104 12.8295 15.1609C11.9504 15.6777 10.9375 15.9214 9.91948 15.8609Z" fill="#B59959"/>
<path d="M24.3392 12.4612V10.6112H28.8592C28.8592 13.0712 28.3492 14.0612 27.8592 14.5512C26.8592 15.5512 26.0892 15.8612 24.1592 15.8612C23.5466 15.8761 22.9378 15.7616 22.3724 15.5254C21.807 15.2891 21.2977 14.9363 20.8778 14.49C20.4579 14.0437 20.1368 13.5139 19.9355 12.9352C19.7341 12.3564 19.657 11.7417 19.7092 11.1312C19.6616 10.4996 19.7507 9.86522 19.9703 9.27113C20.1899 8.67704 20.5349 8.13723 20.9818 7.68841C21.4287 7.2396 21.9671 6.89232 22.5602 6.67021C23.1534 6.44809 23.7874 6.35635 24.4192 6.40122C27.5792 6.40122 28.5192 8.30122 28.8692 9.65122H26.5392C26.4098 9.22157 26.1311 8.85235 25.7533 8.61027C25.3755 8.36819 24.9236 8.26922 24.4792 8.33122C24.1343 8.34527 23.796 8.4306 23.4856 8.58185C23.1753 8.7331 22.8996 8.94699 22.676 9.21003C22.4524 9.47308 22.2858 9.77959 22.1865 10.1102C22.0872 10.4409 22.0575 10.7885 22.0992 11.1312C22.0992 12.0412 22.4892 14.0112 24.5692 14.0112C25.0522 14.033 25.5285 13.8921 25.922 13.6111C26.3154 13.33 26.6032 12.9251 26.7392 12.4612H24.3392Z" fill="#B59959"/>
<path d="M15.6009 17.8408V26.8708H13.3409V22.0908L11.9609 25.2508L11.2609 26.8708H10.4009L9.70086 25.2508L8.40086 22.2808V26.8708H6.13086V17.8408H8.74086L10.8309 22.6508L12.9209 17.8408H15.6009Z" fill="#B59959"/>
<path d="M17.9067 6.5H15.6367V8.54H17.9067V6.5Z" fill="#B59959"/>
<path d="M17.9067 9.5H15.6367V15.8H17.9067V9.5Z" fill="#B59959"/>
<path d="M22.4797 17.8408H19.4797L16.1797 26.8408H18.4797L19.1497 25.0108H22.8797L23.4797 26.8708H25.7397L22.4797 17.8408ZM19.8097 23.1608L20.9797 19.9508L22.1597 23.1608H19.8097Z" fill="#B59959"/>
<path d="M28.7403 26.8708H27.1203L23.8203 17.8408H28.7403V26.8708Z" fill="#FF0000"/>
<path d="M7.85742 39.3008H7.22852L6.97852 38.6504H5.83398L5.59766 39.3008H4.98438L6.09961 36.4375H6.71094L7.85742 39.3008ZM6.79297 38.168L6.39844 37.1055L6.01172 38.168H6.79297ZM8.16992 39.3008V36.4375H10.1328V36.9219H8.74805V37.5996H9.94336V38.084H8.74805V39.3008H8.16992ZM10.6133 39.3008V36.4375H11.8301C12.1361 36.4375 12.3581 36.4635 12.4961 36.5156C12.6354 36.5664 12.7467 36.6576 12.8301 36.7891C12.9134 36.9206 12.9551 37.071 12.9551 37.2402C12.9551 37.4551 12.8919 37.6328 12.7656 37.7734C12.6393 37.9128 12.4505 38.0007 12.1992 38.0371C12.3242 38.11 12.4271 38.1901 12.5078 38.2773C12.5898 38.3646 12.6999 38.5195 12.8379 38.7422L13.1875 39.3008H12.4961L12.0781 38.6777C11.9297 38.4551 11.8281 38.3151 11.7734 38.2578C11.7188 38.1992 11.6608 38.1595 11.5996 38.1387C11.5384 38.1165 11.4414 38.1055 11.3086 38.1055H11.1914V39.3008H10.6133ZM11.1914 37.6484H11.6191C11.8965 37.6484 12.0697 37.6367 12.1387 37.6133C12.2077 37.5898 12.2617 37.5495 12.3008 37.4922C12.3398 37.4349 12.3594 37.3633 12.3594 37.2773C12.3594 37.181 12.3333 37.1035 12.2812 37.0449C12.2305 36.985 12.1582 36.9473 12.0645 36.9316C12.0176 36.9251 11.877 36.9219 11.6426 36.9219H11.1914V37.6484ZM13.4844 39.3008V36.4375H14.0625V39.3008H13.4844ZM16.4473 38.248L17.0078 38.4258C16.9219 38.7383 16.7786 38.9707 16.5781 39.123C16.3789 39.2741 16.1257 39.3496 15.8184 39.3496C15.4382 39.3496 15.1257 39.2201 14.8809 38.9609C14.6361 38.7005 14.5137 38.3451 14.5137 37.8945C14.5137 37.418 14.6367 37.0482 14.8828 36.7852C15.1289 36.5208 15.4525 36.3887 15.8535 36.3887C16.2038 36.3887 16.4883 36.4922 16.707 36.6992C16.8372 36.8216 16.9349 36.9974 17 37.2266L16.4277 37.3633C16.3939 37.2148 16.3229 37.0977 16.2148 37.0117C16.1081 36.9258 15.9779 36.8828 15.8242 36.8828C15.612 36.8828 15.4395 36.959 15.3066 37.1113C15.1751 37.2637 15.1094 37.5104 15.1094 37.8516C15.1094 38.2135 15.1745 38.4714 15.3047 38.625C15.4349 38.7786 15.6042 38.8555 15.8125 38.8555C15.9661 38.8555 16.0983 38.8066 16.209 38.709C16.3197 38.6113 16.3991 38.4577 16.4473 38.248ZM20.0879 39.3008H19.459L19.209 38.6504H18.0645L17.8281 39.3008H17.2148L18.3301 36.4375H18.9414L20.0879 39.3008ZM19.0234 38.168L18.6289 37.1055L18.2422 38.168H19.0234ZM23.0938 38.791V39.3008H21.1699C21.1908 39.1081 21.2533 38.9258 21.3574 38.7539C21.4616 38.5807 21.6673 38.3516 21.9746 38.0664C22.222 37.8359 22.3737 37.6797 22.4297 37.5977C22.5052 37.4844 22.543 37.3724 22.543 37.2617C22.543 37.1393 22.5098 37.0456 22.4434 36.9805C22.3783 36.9141 22.2878 36.8809 22.1719 36.8809C22.0573 36.8809 21.9661 36.9154 21.8984 36.9844C21.8307 37.0534 21.7917 37.168 21.7812 37.3281L21.2344 37.2734C21.2669 36.9714 21.3691 36.7546 21.541 36.623C21.7129 36.4915 21.9277 36.4258 22.1855 36.4258C22.4681 36.4258 22.6901 36.502 22.8516 36.6543C23.013 36.8066 23.0938 36.9961 23.0938 37.2227C23.0938 37.3516 23.0703 37.4746 23.0234 37.5918C22.9779 37.7077 22.9049 37.8294 22.8047 37.957C22.7383 38.0417 22.6185 38.1634 22.4453 38.3223C22.2721 38.4811 22.1621 38.5866 22.1152 38.6387C22.0697 38.6908 22.0326 38.7415 22.0039 38.791H23.0938ZM24.3945 36.4258C24.6719 36.4258 24.8887 36.5247 25.0449 36.7227C25.2311 36.957 25.3242 37.3457 25.3242 37.8887C25.3242 38.4303 25.2305 38.8197 25.043 39.0566C24.888 39.252 24.6719 39.3496 24.3945 39.3496C24.1159 39.3496 23.8913 39.2428 23.7207 39.0293C23.5501 38.8145 23.4648 38.4323 23.4648 37.8828C23.4648 37.3438 23.5586 36.9557 23.7461 36.7188C23.901 36.5234 24.1172 36.4258 24.3945 36.4258ZM24.3945 36.8809C24.3281 36.8809 24.2689 36.9023 24.2168 36.9453C24.1647 36.987 24.1243 37.0625 24.0957 37.1719C24.0579 37.3138 24.0391 37.5527 24.0391 37.8887C24.0391 38.2246 24.056 38.4557 24.0898 38.582C24.1237 38.707 24.166 38.7904 24.2168 38.832C24.2689 38.8737 24.3281 38.8945 24.3945 38.8945C24.4609 38.8945 24.5202 38.8737 24.5723 38.832C24.6243 38.7891 24.6647 38.7129 24.6934 38.6035C24.7311 38.4629 24.75 38.2246 24.75 37.8887C24.75 37.5527 24.7331 37.3223 24.6992 37.1973C24.6654 37.071 24.6224 36.987 24.5703 36.9453C24.5195 36.9023 24.4609 36.8809 24.3945 36.8809ZM27.5469 38.791V39.3008H25.623C25.6439 39.1081 25.7064 38.9258 25.8105 38.7539C25.9147 38.5807 26.1204 38.3516 26.4277 38.0664C26.6751 37.8359 26.8268 37.6797 26.8828 37.5977C26.9583 37.4844 26.9961 37.3724 26.9961 37.2617C26.9961 37.1393 26.9629 37.0456 26.8965 36.9805C26.8314 36.9141 26.7409 36.8809 26.625 36.8809C26.5104 36.8809 26.4193 36.9154 26.3516 36.9844C26.2839 37.0534 26.2448 37.168 26.2344 37.3281L25.6875 37.2734C25.7201 36.9714 25.8223 36.7546 25.9941 36.623C26.166 36.4915 26.3809 36.4258 26.6387 36.4258C26.9212 36.4258 27.1432 36.502 27.3047 36.6543C27.4661 36.8066 27.5469 36.9961 27.5469 37.2227C27.5469 37.3516 27.5234 37.4746 27.4766 37.5918C27.431 37.7077 27.3581 37.8294 27.2578 37.957C27.1914 38.0417 27.0716 38.1634 26.8984 38.3223C26.7253 38.4811 26.6152 38.5866 26.5684 38.6387C26.5228 38.6908 26.4857 38.7415 26.457 38.791H27.5469ZM27.9277 38.5645L28.4746 38.5078C28.4902 38.6315 28.5365 38.7298 28.6133 38.8027C28.6901 38.8743 28.7786 38.9102 28.8789 38.9102C28.9935 38.9102 29.0905 38.8639 29.1699 38.7715C29.2493 38.6777 29.2891 38.5371 29.2891 38.3496C29.2891 38.1738 29.2493 38.0423 29.1699 37.9551C29.0918 37.8665 28.9896 37.8223 28.8633 37.8223C28.7057 37.8223 28.5645 37.8919 28.4395 38.0312L27.9941 37.9668L28.2754 36.4766H29.7266V36.9902H28.6914L28.6055 37.4766C28.7279 37.4154 28.8529 37.3848 28.9805 37.3848C29.224 37.3848 29.4303 37.4733 29.5996 37.6504C29.7689 37.8275 29.8535 38.0573 29.8535 38.3398C29.8535 38.5755 29.7852 38.7858 29.6484 38.9707C29.4622 39.2233 29.2038 39.3496 28.873 39.3496C28.6087 39.3496 28.3932 39.2786 28.2266 39.1367C28.0599 38.9948 27.9603 38.804 27.9277 38.5645Z" fill="black"/>
</svg>
