<svg width="86" height="87" viewBox="0 0 86 87" fill="none" xmlns="http://www.w3.org/2000/svg">
<g clip-path="url(#clip0_903_3703)">
<path d="M57.5248 70.1011C71.4821 62.0429 76.2643 44.1957 68.206 30.2383C60.1477 16.281 42.3005 11.4988 28.3432 19.5571C14.3858 27.6154 9.60369 45.4626 17.662 59.4199C25.7203 73.3773 43.5674 78.1594 57.5248 70.1011Z" fill="url(#paint0_linear_903_3703)"/>
<path fill-rule="evenodd" clip-rule="evenodd" d="M21.9478 41.1473C21.6937 41.6354 21.7063 42.2196 21.9815 42.6963L22.3571 43.347C22.6993 43.9395 23.4251 44.1724 24.0395 43.9131L34.2331 61.5689L33.9829 61.7133C33.2427 62.1407 32.8844 63.0141 33.1109 63.8382L33.9836 67.0104C34.2166 67.8575 35.1871 68.2558 35.9479 67.8166L64.8821 51.1114C65.6295 50.6799 65.781 49.6657 65.1926 49.0346L62.975 46.656C62.3785 46.0163 61.4195 45.8728 60.6619 46.3102L60.413 46.4539L50.2165 28.793C50.7216 28.3852 50.8688 27.6591 50.5339 27.0791L50.1582 26.4284C49.883 25.9518 49.3834 25.6488 48.8337 25.6247L31.73 24.8838C30.9491 24.8499 30.2192 25.2713 29.8581 25.9645L21.9478 41.1473ZM56.673 48.6132L46.4845 30.9662L42.7445 33.1256L52.933 50.7725L56.673 48.6132ZM49.1929 52.9318L39.0045 35.2849L35.2647 37.444L45.4531 55.091L49.1929 52.9318ZM41.7131 57.2503L31.5246 39.6033L27.7846 41.7626L37.9731 59.4096L41.7131 57.2503Z" fill="#DC7B3C"/>
<path fill-rule="evenodd" clip-rule="evenodd" d="M61.6754 77.2905C79.6034 66.9398 85.7461 44.0154 75.3955 26.0875C65.0447 8.15942 42.1201 2.01693 24.1922 12.3676C6.26423 22.7183 0.12164 45.6428 10.4724 63.5708C20.8231 81.4987 43.7475 87.6412 61.6754 77.2905ZM57.5247 70.1012C71.482 62.0429 76.2642 44.1957 68.2059 30.2384C60.1476 16.281 42.3004 11.4988 28.343 19.5571C14.3857 27.6154 9.60357 45.4626 17.6619 59.42C25.7201 73.3773 43.5673 78.1595 57.5247 70.1012Z" fill="url(#paint1_linear_903_3703)"/>
<path fill-rule="evenodd" clip-rule="evenodd" d="M61.6754 77.2905C79.6034 66.9398 85.7461 44.0154 75.3955 26.0875C65.0447 8.15942 42.1201 2.01693 24.1922 12.3676C6.26423 22.7183 0.12164 45.6428 10.4724 63.5708C20.8231 81.4987 43.7475 87.6412 61.6754 77.2905ZM57.5247 70.1012C71.482 62.0429 76.2642 44.1957 68.2059 30.2384C60.1476 16.281 42.3004 11.4988 28.343 19.5571C14.3857 27.6154 9.60357 45.4626 17.6619 59.42C25.7201 73.3773 43.5673 78.1595 57.5247 70.1012Z" fill="url(#paint2_linear_903_3703)"/>
<path fill-rule="evenodd" clip-rule="evenodd" d="M61.6754 77.2905C79.6034 66.9398 85.7461 44.0154 75.3955 26.0875C65.0447 8.15942 42.1201 2.01693 24.1922 12.3676C6.26423 22.7183 0.12164 45.6428 10.4724 63.5708C20.8231 81.4987 43.7475 87.6412 61.6754 77.2905ZM57.5247 70.1012C71.482 62.0429 76.2642 44.1957 68.2059 30.2384C60.1476 16.281 42.3004 11.4988 28.343 19.5571C14.3857 27.6154 9.60357 45.4626 17.6619 59.42C25.7201 73.3773 43.5673 78.1595 57.5247 70.1012Z" fill="url(#paint3_linear_903_3703)"/>
<path d="M24.1211 42.3769C23.9358 42.056 24.0457 41.6458 24.3666 41.4605L26.9445 39.9722C27.2654 39.7869 27.6756 39.8968 27.8609 40.2177L38.6153 58.8449L34.8755 61.0041L24.1211 42.3769Z" fill="url(#paint4_linear_903_3703)"/>
<path d="M24.1211 42.3769C23.9358 42.056 24.0457 41.6458 24.3666 41.4605L26.9445 39.9722C27.2654 39.7869 27.6756 39.8968 27.8609 40.2177L38.6153 58.8449L34.8755 61.0041L24.1211 42.3769Z" fill="url(#paint5_linear_903_3703)"/>
<path d="M35.0054 35.3182L31.2654 37.4774L42.3552 56.6856L46.0952 54.5263L35.0054 35.3182Z" fill="url(#paint6_linear_903_3703)"/>
<path d="M35.0054 35.3182L31.2654 37.4774L42.3552 56.6856L46.0952 54.5263L35.0054 35.3182Z" fill="url(#paint7_linear_903_3703)"/>
<path d="M42.4856 30.9995L38.7456 33.1588L49.8355 52.3669L53.5754 50.2076L42.4856 30.9995Z" fill="url(#paint8_linear_903_3703)"/>
<path d="M42.4856 30.9995L38.7456 33.1588L49.8355 52.3669L53.5754 50.2076L42.4856 30.9995Z" fill="url(#paint9_linear_903_3703)"/>
<path d="M49.9653 26.6811L46.2253 28.8404L57.3152 48.0486L61.0552 45.8893L49.9653 26.6811Z" fill="url(#paint10_linear_903_3703)"/>
<path d="M49.9653 26.6811L46.2253 28.8404L57.3152 48.0486L61.0552 45.8893L49.9653 26.6811Z" fill="url(#paint11_linear_903_3703)"/>
<path d="M33.4597 62.7651C33.2329 61.9408 33.5914 61.0677 34.3317 60.6403L61.0105 45.2372C61.7681 44.7998 62.7271 44.943 63.3237 45.583L65.5413 47.9616C66.1297 48.5927 65.9781 49.6069 65.2308 50.0384L36.2967 66.7435C35.5359 67.1828 34.5652 66.7845 34.3322 65.9374L33.4597 62.7651Z" fill="#FFC248"/>
<path d="M22.3302 41.6233C22.055 41.1467 22.0423 40.5625 22.2966 40.0745L30.2069 24.8917C30.568 24.1985 31.2979 23.7771 32.0787 23.811L49.1826 24.5519C49.7323 24.5757 50.232 24.8787 50.5072 25.3553L50.883 26.0062C51.2534 26.6479 51.0335 27.4686 50.3919 27.839L24.5389 42.7652C23.8971 43.1358 23.0765 42.9158 22.706 42.2742L22.3302 41.6233Z" fill="#FFC546"/>
<path d="M22.3302 41.6233C22.055 41.1467 22.0423 40.5625 22.2966 40.0745L30.2069 24.8917C30.568 24.1985 31.2979 23.7771 32.0787 23.811L49.1826 24.5519C49.7323 24.5757 50.232 24.8787 50.5072 25.3553L50.883 26.0062C51.2534 26.6479 51.0335 27.4686 50.3919 27.839L24.5389 42.7652C23.8971 43.1358 23.0765 42.9158 22.706 42.2742L22.3302 41.6233Z" fill="url(#paint12_linear_903_3703)"/>
</g>
<defs>
<linearGradient id="paint0_linear_903_3703" x1="39.9172" y1="63.4189" x2="47.3489" y2="13.2318" gradientUnits="userSpaceOnUse">
<stop stop-color="#F19D48"/>
<stop offset="1" stop-color="#E89A44"/>
</linearGradient>
<linearGradient id="paint1_linear_903_3703" x1="24.1922" y1="12.3676" x2="61.6754" y2="77.2905" gradientUnits="userSpaceOnUse">
<stop stop-color="#FFC444"/>
<stop offset="1" stop-color="#FFC24B"/>
</linearGradient>
<linearGradient id="paint2_linear_903_3703" x1="78.5035" y1="31.4782" x2="62.9643" y2="40.4497" gradientUnits="userSpaceOnUse">
<stop offset="0.0671736" stop-color="#FFC34C"/>
<stop offset="1" stop-color="#FFC34C" stop-opacity="0"/>
</linearGradient>
<linearGradient id="paint3_linear_903_3703" x1="78.5068" y1="31.4764" x2="62.9669" y2="40.4484" gradientUnits="userSpaceOnUse">
<stop offset="0.0671736" stop-color="#FFC34C"/>
<stop offset="1" stop-color="#FFC34C" stop-opacity="0"/>
</linearGradient>
<linearGradient id="paint4_linear_903_3703" x1="28.4066" y1="49.0162" x2="30.222" y2="47.9681" gradientUnits="userSpaceOnUse">
<stop offset="0.166667" stop-color="#FFB33B"/>
<stop offset="1" stop-color="#FFC047"/>
</linearGradient>
<linearGradient id="paint5_linear_903_3703" x1="33.9909" y1="50.8352" x2="33.0957" y2="51.352" gradientUnits="userSpaceOnUse">
<stop offset="0.0671736" stop-color="#FFC34C"/>
<stop offset="1" stop-color="#FFC34C" stop-opacity="0"/>
</linearGradient>
<linearGradient id="paint6_linear_903_3703" x1="35.8864" y1="44.6977" x2="37.702" y2="43.6495" gradientUnits="userSpaceOnUse">
<stop offset="0.166667" stop-color="#FFB33B"/>
<stop offset="1" stop-color="#FFC047"/>
</linearGradient>
<linearGradient id="paint7_linear_903_3703" x1="41.4708" y1="46.5166" x2="40.5755" y2="47.0336" gradientUnits="userSpaceOnUse">
<stop offset="0.0671736" stop-color="#FFC34C"/>
<stop offset="1" stop-color="#FFC34C" stop-opacity="0"/>
</linearGradient>
<linearGradient id="paint8_linear_903_3703" x1="43.3666" y1="40.379" x2="45.182" y2="39.3309" gradientUnits="userSpaceOnUse">
<stop offset="0.166667" stop-color="#FFB33B"/>
<stop offset="1" stop-color="#FFC047"/>
</linearGradient>
<linearGradient id="paint9_linear_903_3703" x1="48.9508" y1="42.198" x2="48.0557" y2="42.7149" gradientUnits="userSpaceOnUse">
<stop offset="0.0671736" stop-color="#FFC34C"/>
<stop offset="1" stop-color="#FFC34C" stop-opacity="0"/>
</linearGradient>
<linearGradient id="paint10_linear_903_3703" x1="50.8463" y1="36.0607" x2="52.662" y2="35.0124" gradientUnits="userSpaceOnUse">
<stop offset="0.166667" stop-color="#FFB33B"/>
<stop offset="1" stop-color="#FFC047"/>
</linearGradient>
<linearGradient id="paint11_linear_903_3703" x1="56.4308" y1="37.8796" x2="55.5354" y2="38.3965" gradientUnits="userSpaceOnUse">
<stop offset="0.0671736" stop-color="#FFC34C"/>
<stop offset="1" stop-color="#FFC34C" stop-opacity="0"/>
</linearGradient>
<linearGradient id="paint12_linear_903_3703" x1="41.0723" y1="23.8274" x2="40.9551" y2="25.805" gradientUnits="userSpaceOnUse">
<stop offset="0.458872" stop-color="#FFCA3F"/>
<stop offset="1" stop-color="#FFCA3F" stop-opacity="0"/>
</linearGradient>
<clipPath id="clip0_903_3703">
<rect width="85.8677" height="85.8677" fill="white" transform="translate(0 0.78418)"/>
</clipPath>
</defs>
</svg>
