<svg width="97" height="40" viewBox="0 0 97 40" fill="none" xmlns="http://www.w3.org/2000/svg">
<g clip-path="url(#clip0_2593_3165)">
<path d="M2.74298 24.5367C1.90504 24.5367 1.12247 24.1592 0.598981 23.5009C0.0754871 22.8444 -0.117473 21.9965 0.0701271 21.1771L4.15802 3.26658C4.43317 2.05907 5.48909 1.1825 6.72547 1.13241L22.9341 0.490192C22.9716 0.490192 23.0092 0.488403 23.0449 0.488403C23.8828 0.488403 24.6636 0.865863 25.1889 1.52418C25.7124 2.18071 25.9053 3.02865 25.7177 3.84797L21.6299 21.7585C21.3547 22.966 20.2988 23.8426 19.0624 23.8927L2.85376 24.5349C2.81624 24.5349 2.77872 24.5367 2.74298 24.5367Z" fill="white"/>
<path d="M19.0284 23L2.81973 23.6422C1.60122 23.6905 0.67037 22.5671 0.941944 21.3774L5.02805 3.46689C5.21387 2.65115 5.92318 2.06081 6.75934 2.02861L22.968 1.38639C24.1865 1.33809 25.1173 2.46152 24.8458 3.65115L20.7579 21.5617C20.5721 22.3774 19.8628 22.9678 19.0266 23H19.0284Z" fill="url(#paint0_linear_2593_3165)"/>
<path d="M23.9638 11.3073L2.91211 12.5153L2.93255 12.8725L23.9843 11.6645L23.9638 11.3073Z" fill="#F487BD"/>
<path d="M19.2537 10.5761L14.8728 10.9607L15.4945 7.97501C15.675 7.10738 15.7411 6.56892 15.6929 6.36141C15.6446 6.1539 15.4606 6.06445 15.1408 6.09307C14.7799 6.12527 14.5244 6.27554 14.3725 6.54567C14.2207 6.81579 14.0545 7.38645 13.8723 8.25586L12.2089 16.238C12.0356 17.0734 11.9695 17.6136 12.0141 17.8605C12.0588 18.1074 12.25 18.2147 12.5894 18.1861C12.9289 18.1575 13.1558 18.0108 13.3095 17.7478C13.4631 17.4831 13.6382 16.8802 13.8347 15.9356L14.285 13.7764L18.6659 13.3918L18.5265 14.0609C18.1567 15.839 17.769 17.111 17.3688 17.8766C16.9668 18.6423 16.2878 19.3417 15.3266 19.975C14.3672 20.6083 13.2701 20.9804 12.0356 21.0877C10.7527 21.2004 9.74326 21.0555 9.00894 20.6548C8.27462 20.2541 7.86012 19.6458 7.76542 18.8301C7.66894 18.0161 7.79758 16.7657 8.14777 15.0823L9.19476 10.0627C9.45204 8.82474 9.68788 7.89272 9.90049 7.26481C10.1131 6.63869 10.4847 6.01973 11.0172 5.4115C11.5496 4.80148 12.216 4.30059 13.0164 3.90703C13.8169 3.51347 14.6923 3.27554 15.6428 3.19325C16.9328 3.08055 17.9459 3.24155 18.6784 3.67626C19.4109 4.11096 19.8308 4.69772 19.9362 5.43475C20.0416 6.17178 19.9273 7.34173 19.5932 8.94459L19.2537 10.5761Z" fill="white"/>
<path d="M22.4472 22.3577C21.7272 22.3577 21.0697 22.2844 20.4926 22.1377C19.3331 21.8443 18.4415 21.2576 17.8448 20.3935C17.3249 19.6422 17.0372 18.7424 16.989 17.7191C16.9515 16.932 17.0747 15.8676 17.3677 14.4633L18.1199 10.8551C18.4451 9.29334 18.8739 8.059 19.4296 7.07867C20.0513 5.98207 20.9464 5.06436 22.0881 4.35059C23.2119 3.64755 24.5359 3.22536 26.0224 3.09477C26.3404 3.06794 26.6495 3.05363 26.9443 3.05363C27.8448 3.05363 28.6595 3.18601 29.367 3.44719C29.7369 3.58315 30.0763 3.74594 30.3854 3.93735L30.4479 3.6225L39.6171 2.42751L39.6118 2.45256C40.5498 2.00712 41.6039 1.73163 42.7545 1.62966C43.0725 1.60282 43.3816 1.58851 43.6764 1.58851C44.5769 1.58851 45.3916 1.72089 46.0992 1.98207C46.4672 2.11803 46.8049 2.28082 47.114 2.46866L47.3195 1.48118L54.3303 0.867583C54.7502 0.697637 55.1879 0.575991 55.6346 0.508012L58.9417 0.00354004L56.8728 9.93019L55.154 10.0805C54.7502 10.1162 54.5322 10.1735 54.4358 10.2075C54.3643 10.4347 54.2089 11.0018 53.9426 12.279L52.4311 19.5313L43.3941 20.3238L43.4549 20.0357C43.4049 20.059 43.3548 20.0805 43.3048 20.1037C42.3865 20.5026 41.3734 20.7513 40.2961 20.8461C39.9066 20.8801 39.5314 20.898 39.1812 20.898C38.4612 20.898 37.8037 20.8246 37.2284 20.678C36.796 20.5688 36.3993 20.4168 36.042 20.2254L35.8937 20.9588L26.7245 22.1538L26.8692 21.4329C26.771 21.4812 26.6709 21.5259 26.5709 21.5706C25.6507 21.9696 24.6395 22.2182 23.5621 22.313C23.1726 22.347 22.7992 22.3649 22.4472 22.3649V22.3577Z" fill="white"/>
<path d="M55.7725 1.39C55.3491 1.4544 54.9417 1.57247 54.5504 1.74421L48.0612 2.31308L47.6789 4.15029C47.2376 3.5671 46.6051 3.11988 45.794 2.82113C45.1847 2.59751 44.4736 2.48302 43.6803 2.48302C43.4123 2.48302 43.1283 2.49555 42.8352 2.52059C41.4899 2.63866 40.2982 3.01612 39.2959 3.64403C38.9421 3.86585 38.6169 4.10914 38.3168 4.3739L38.4972 3.47587L31.2005 4.42578L30.9575 5.63329C30.5162 5.04116 29.8801 4.58857 29.06 4.28624C28.4508 4.06263 27.7397 3.94814 26.9464 3.94814C26.6784 3.94814 26.3943 3.96066 26.1013 3.98571C24.7559 4.10378 23.5642 4.48124 22.5619 5.10914C21.5471 5.74242 20.7556 6.55458 20.2071 7.52059C19.6979 8.41862 19.3012 9.56889 18.9957 11.0376L18.2435 14.6458C17.9666 15.9732 17.8487 16.966 17.8826 17.6762C17.9237 18.5295 18.1578 19.2737 18.5812 19.8837C19.0529 20.5653 19.7694 21.0304 20.7127 21.2701C21.2166 21.3972 21.8008 21.4616 22.4476 21.4616C22.771 21.4616 23.1211 21.4455 23.4838 21.4133C24.4647 21.3274 25.3849 21.102 26.2157 20.7406C26.9446 20.424 27.6021 19.9911 28.1774 19.4544L27.8469 21.0966L35.1436 20.1467L35.4545 18.6011C35.9226 19.1825 36.5908 19.5868 37.4467 19.8032C37.9505 19.9303 38.5347 19.9947 39.1815 19.9947C39.5049 19.9947 39.8551 19.9786 40.2178 19.9464C41.2004 19.8605 42.1188 19.6351 42.9496 19.2737C43.6178 18.9839 44.2253 18.5975 44.7648 18.1217L44.5147 19.3202L51.6935 18.6905L53.0693 12.0877C53.4391 10.3131 53.6124 9.83007 53.6571 9.72274C53.675 9.68159 53.7196 9.57426 53.9269 9.44903C54.0251 9.39 54.3307 9.24689 55.0775 9.1807L56.1352 9.08768L57.8057 1.07336L55.7707 1.38463L55.7725 1.39Z" fill="url(#paint1_linear_2593_3165)"/>
<path d="M30.0934 10.1771L29.3752 13.6261C29.1107 14.8927 28.8553 15.8265 28.6069 16.4293C28.3586 17.0304 27.9762 17.6064 27.4599 18.1556C26.9435 18.7048 26.3396 19.1288 25.6464 19.4293C24.9532 19.7299 24.192 19.9159 23.3595 19.9893C22.4304 20.0715 21.6639 20.0358 21.0618 19.8837C20.4597 19.7317 20.0238 19.4615 19.7558 19.0715C19.486 18.6816 19.3377 18.195 19.3091 17.61C19.2805 17.025 19.3913 16.1359 19.6414 14.9392L20.3936 11.3309C20.667 10.0215 21.0189 8.98747 21.4495 8.22718C21.8801 7.46689 22.5036 6.83183 23.3184 6.32378C24.1331 5.81394 25.1015 5.51162 26.2253 5.41323C27.1686 5.33094 27.9494 5.40249 28.5658 5.62968C29.1822 5.85688 29.6271 6.18425 29.8987 6.6118C30.1702 7.03934 30.3239 7.49194 30.3561 7.96779C30.39 8.44364 30.3025 9.18067 30.0952 10.1789L30.0934 10.1771ZM26.1091 9.48478C26.2592 8.76385 26.3164 8.31126 26.2789 8.13058C26.2414 7.9499 26.0984 7.8694 25.8483 7.89265C25.5982 7.91591 25.4123 8.02324 25.2908 8.21824C25.1694 8.41323 25.0318 8.87119 24.8817 9.59391L23.556 15.9517C23.4166 16.6172 23.3684 17.0465 23.4095 17.2415C23.4506 17.4365 23.5935 17.5224 23.8365 17.5009C24.0795 17.4794 24.2707 17.3721 24.3886 17.1807C24.5065 16.9893 24.6298 16.5903 24.7566 15.9821L26.1109 9.48657L26.1091 9.48478Z" fill="white"/>
<path d="M36.6999 5.15027L33.9449 18.8605L29.6426 19.4204L32.3976 5.7102L36.6999 5.15027Z" fill="white"/>
<path d="M46.8278 8.712L46.1095 12.161C45.8451 13.4276 45.5896 14.3614 45.3413 14.9642C45.0929 15.5653 44.7106 16.1413 44.1942 16.6905C43.6779 17.2397 43.074 17.6637 42.3808 17.9642C41.6875 18.2648 40.9264 18.4508 40.0938 18.5242C39.1648 18.6065 38.3983 18.5707 37.7962 18.4186C37.1941 18.2666 36.7581 17.9964 36.4901 17.6065C36.2203 17.2165 36.072 16.7299 36.0435 16.1449C36.0149 15.5599 36.1256 14.6709 36.3758 13.4741L37.128 9.86585C37.4013 8.55637 37.7533 7.52238 38.1839 6.76209C38.6145 6.00181 39.238 5.36674 40.0527 4.85869C40.8675 4.34885 41.8358 4.04653 42.9597 3.94814C43.903 3.86585 44.6838 3.93741 45.3002 4.1646C45.9166 4.39179 46.3615 4.71916 46.633 5.14671C46.9046 5.57426 47.0583 6.02685 47.0904 6.5027C47.1244 6.97855 47.0368 7.71558 46.8296 8.71379L46.8278 8.712ZM42.8435 8.0197C42.9936 7.29876 43.0508 6.84617 43.0133 6.66549C42.9757 6.48481 42.8328 6.40431 42.5827 6.42757C42.3325 6.45082 42.1467 6.55816 42.0252 6.75315C41.9037 6.94814 41.7662 7.4061 41.6161 8.12882L40.2904 14.4866C40.151 15.1521 40.1028 15.5814 40.1439 15.7764C40.185 15.9714 40.3279 16.0573 40.5709 16.0358C40.8139 16.0143 41.005 15.907 41.123 15.7156C41.2409 15.5242 41.3642 15.1252 41.491 14.517L42.8453 8.02148L42.8435 8.0197Z" fill="white"/>
<path d="M53.4462 3.27728L52.8941 5.14312C53.7803 3.76387 54.8112 2.9839 55.9868 2.80322L54.9541 7.76029C54.1841 7.82827 53.5962 7.9839 53.1907 8.22719C52.7851 8.47049 52.5028 8.78533 52.3402 9.17174C52.1776 9.55814 51.9543 10.4329 51.6702 11.7996L50.5107 17.3614L46.3066 17.7299L49.2421 3.6458L53.4462 3.27728Z" fill="white"/>
<path d="M96.629 22.3275L94.3885 32.7353L80.2613 33.9321V33.9267C79.6074 34.1307 78.9142 34.2648 78.1888 34.3257C77.8243 34.3561 77.4724 34.3722 77.1436 34.3722C76.454 34.3722 75.8215 34.3024 75.2622 34.1665C75.055 34.1146 74.8549 34.0538 74.6619 33.984L74.569 34.4151L66.563 35.0949C65.9269 35.1486 65.4106 35.1754 64.9853 35.1754C64.6977 35.1754 64.4458 35.1629 64.2206 35.1378C63.4399 35.0502 62.7323 34.7657 62.1481 34.306C61.7032 34.6691 61.2208 34.9804 60.7027 35.238C59.7826 35.6942 58.7248 35.9768 57.5582 36.0752C57.2401 36.1021 56.9328 36.1164 56.6452 36.1164C55.6911 36.1164 54.8728 35.975 54.1599 35.6852L54.0581 36.1557L42.2589 37.1557C41.7426 37.3436 41.2155 37.4616 40.6884 37.5063C40.5205 37.5207 40.3543 37.5278 40.1935 37.5278C39.1644 37.5278 38.2193 37.2326 37.4599 36.6745C37.3992 36.6298 37.342 36.5851 37.2848 36.5385C36.8399 36.882 36.3593 37.1754 35.8466 37.4151C34.9693 37.823 33.9509 38.077 32.8199 38.1736C32.5251 38.1987 32.2339 38.2112 31.957 38.2112C31.1601 38.2112 30.4205 38.1056 29.7576 37.8999C28.9607 37.6495 28.2925 37.272 27.7619 36.7747L27.4081 38.4151L18.2086 39.1951L19.5128 33.1414C19.47 33.1486 19.4289 33.1557 19.3878 33.1629L18.0871 39.2058L8.72852 40.0001L10.7689 30.5207L78.3192 25.9768L86.4968 16.3239L90.5293 15.9822C91.0403 15.7944 91.5745 15.6763 92.1248 15.6298C92.3124 15.6137 92.4947 15.6047 92.6715 15.6047C93.7668 15.6047 94.7066 15.9017 95.4641 16.4849C96.4003 17.2058 96.9453 18.2505 96.9971 19.4276C97.0274 20.1021 96.9095 21.0233 96.629 22.3275Z" fill="#041828"/>
<path d="M94.9729 17.6673C94.9408 16.9339 94.6299 16.3131 94.0725 15.8695C93.6169 15.5081 93.0255 15.3238 92.3144 15.3238C92.1839 15.3238 92.0481 15.3292 91.9088 15.3417C91.43 15.3847 90.9708 15.501 90.5384 15.6924L84.8925 16.1861L84.3637 18.7192C84.2708 18.4437 84.1421 18.1772 83.9796 17.9196C83.6222 17.3578 83.0594 16.9339 82.3072 16.6548C81.7945 16.4652 81.1888 16.3704 80.5063 16.3704C80.2704 16.3704 80.0221 16.3811 79.7648 16.4043C78.5928 16.5063 77.5583 16.8337 76.6917 17.3757C75.9503 17.8391 75.35 18.4115 74.8979 19.0788L75.9217 14.1682L70.0757 14.6798L69.4164 17.8462L69.3771 17.8498L69.8023 15.8069L64.0618 16.3095L63.6366 18.3525L62.8022 18.4258L62.5646 19.5636C62.3269 19.272 62.0321 19.0144 61.6766 18.8015C61.0334 18.4169 60.2419 18.2219 59.3253 18.2219C59.1216 18.2219 58.9072 18.2308 58.6893 18.2505C57.5369 18.3507 56.4863 18.6942 55.568 19.2702C54.8444 19.7246 54.2744 20.2237 53.8671 20.7586L54.8551 16.0162L49.479 16.4866L43.7474 16.9893L43.1256 19.9696C43.1256 19.9696 43.122 19.9696 43.1202 19.9696C42.7379 19.8212 42.3109 19.746 41.8535 19.746C41.7249 19.746 41.5909 19.7514 41.4569 19.7639C40.6832 19.8319 39.9668 20.0913 39.3271 20.5332C38.6911 20.9732 38.2266 21.4831 37.9478 22.0466C37.8406 22.2648 37.7352 22.5367 37.6334 22.8605C37.3975 22.0788 36.8883 21.4419 36.1433 21.009C35.5198 20.6476 34.7283 20.4634 33.7921 20.4634C33.5598 20.4634 33.3132 20.4741 33.0613 20.4974C32.0554 20.585 31.1085 20.8659 30.2473 21.331C29.747 21.6011 29.3057 21.9285 28.9198 22.3042L29.2432 20.7514L27.9711 20.9464C27.5977 21.0036 27.2386 21.111 26.8919 21.2684L21.6892 21.7246C21.6302 21.2201 21.4623 20.7747 21.1853 20.4008C20.8262 19.9196 20.2563 19.5886 19.4898 19.4169C19.1092 19.331 18.6554 19.2899 18.098 19.2899C17.6977 19.2899 17.2404 19.3113 16.7365 19.356L12.0108 19.7693L8.33203 37.424L14.2262 36.907L15.5537 30.5331L15.9754 30.4956C16.9634 30.4097 17.8175 30.1915 18.5125 29.848C18.9448 29.6351 19.3165 29.3757 19.6309 29.0752L18.0694 36.5689L23.801 36.0662L25.0034 30.2934C25.3304 28.7264 25.4983 28.2076 25.5698 28.0376C25.6448 27.8605 25.7824 27.712 25.9915 27.5868C26.1237 27.5063 26.3613 27.4079 26.7776 27.3382L26.2076 30.0716C25.9879 31.1235 25.8986 31.916 25.9325 32.4938C25.97 33.1467 26.1666 33.7407 26.5167 34.263C26.8902 34.823 27.4708 35.2326 28.2391 35.4813C28.7411 35.6441 29.3182 35.7264 29.9507 35.7264C30.1848 35.7264 30.4295 35.7156 30.6832 35.6924C31.6302 35.6101 32.4681 35.3954 33.1721 35.0573C33.885 34.7138 34.5228 34.2326 35.0642 33.6262C35.3197 33.3399 35.5376 33.0662 35.7199 32.7979C35.7824 33.4526 36.1147 34.0269 36.6829 34.458C37.1563 34.8176 37.737 35.0001 38.4106 35.0001C38.5249 35.0001 38.6429 34.9947 38.7626 34.984C39.2146 34.9446 39.6666 34.8265 40.1133 34.6351L45.7985 34.1378L51.1763 33.6673L51.6963 31.17C51.9071 31.9625 52.3823 32.5958 53.0881 33.0054C53.6652 33.3399 54.3905 33.5027 55.3107 33.5027C55.5572 33.5027 55.8199 33.4902 56.0932 33.467C57.0616 33.3829 57.9264 33.1467 58.666 32.7675C59.4111 32.3847 60.0686 31.8534 60.6189 31.1861C60.8744 30.8748 61.0941 30.5654 61.2764 30.2612C61.2764 30.2648 61.2764 30.2684 61.2764 30.2702C61.2728 30.8408 61.4747 31.3614 61.8624 31.7729C62.2358 32.1682 62.7325 32.4133 63.2989 32.4777C63.4615 32.4974 63.6526 32.5063 63.8795 32.5063C64.2619 32.5063 64.7407 32.4813 65.3446 32.4276L67.5136 32.238L72.2465 31.823L72.7343 29.4813C72.8308 29.8122 72.9701 30.1145 73.1559 30.3829C73.5293 30.9231 74.1082 31.2952 74.8747 31.4884C75.3053 31.5976 75.8073 31.653 76.3684 31.653C76.6542 31.653 76.9633 31.6387 77.2867 31.6101C78.1461 31.5349 78.9483 31.3382 79.6701 31.0233C80.4169 30.6995 81.078 30.2344 81.6355 29.6423C81.8624 29.4008 82.066 29.1521 82.2465 28.8963L81.8123 30.9822L92.6038 30.0376L94.6335 20.297C94.8872 19.0806 94.9997 18.2183 94.9765 17.662L94.9729 17.6673ZM57.8174 26.0555L58.0068 25.1467L62.3019 24.7711L62.1125 25.6798L57.8174 26.0555ZM67.2581 28.0269L68.5695 21.7371L68.6089 21.7335L67.2153 28.4187C67.1956 28.4204 67.1813 28.4222 67.1795 28.4222C67.201 28.3095 67.226 28.1789 67.2581 28.0269Z" fill="white"/>
<path d="M12.7513 20.6029L16.816 20.2469C17.9148 20.1503 18.742 20.1646 19.2959 20.2881C19.8497 20.4115 20.241 20.628 20.4697 20.9339C20.6984 21.2398 20.8145 21.6244 20.8217 22.0877C20.8288 22.551 20.7288 23.2773 20.5215 24.2684L20.2339 25.6459C20.0231 26.6566 19.7676 27.4008 19.4674 27.882C19.1655 28.3632 18.717 28.7514 18.1185 29.0466C17.5199 29.3417 16.7803 29.5278 15.8994 29.6065L14.8167 29.7013L13.4892 36.0752L9.45312 36.4294L12.7513 20.6029ZM16.2228 22.9571L15.3831 26.984C15.4974 26.9804 15.5957 26.975 15.6779 26.9679C16.0477 26.9357 16.3246 26.8194 16.5069 26.6226C16.6891 26.424 16.841 26.0323 16.9643 25.4455L17.2359 24.145C17.3484 23.6047 17.3395 23.2594 17.2073 23.111C17.0751 22.9625 16.7463 22.9106 16.2228 22.9571ZM25.7672 22.2648L25.258 23.984C26.0745 22.7138 27.025 21.9947 28.1059 21.8301L27.1536 26.3954C26.4443 26.458 25.903 26.6011 25.5296 26.8247C25.1562 27.0501 24.8953 27.3399 24.7452 27.6942C24.5951 28.0501 24.3897 28.8569 24.1288 30.1145L23.0622 35.2362L19.1905 35.5761L21.8937 22.6047L25.7654 22.2648H25.7672ZM36.2907 27.9374L31.2773 28.3757L30.693 31.1807C30.5715 31.7675 30.534 32.1414 30.5805 32.3042C30.6287 32.467 30.7699 32.5367 31.0075 32.517C31.3005 32.492 31.522 32.3614 31.6668 32.1289C31.8133 31.8963 31.9526 31.4562 32.0866 30.8104L32.444 29.1002L36.1156 28.7782L35.9155 29.7353C35.7475 30.5367 35.5706 31.1575 35.3813 31.5958C35.1919 32.034 34.8649 32.5135 34.3986 33.034C33.9323 33.5546 33.3945 33.9625 32.7834 34.2559C32.1742 34.5493 31.447 34.7335 30.6037 34.8069C29.7604 34.8802 29.0886 34.8212 28.5133 34.6351C27.938 34.4491 27.5181 34.1611 27.2591 33.7711C26.9982 33.3811 26.8535 32.9392 26.8249 32.4455C26.7963 31.9518 26.8821 31.2237 27.0822 30.2594L27.8701 26.4759C28.1059 25.3417 28.4436 24.4348 28.8796 23.7532C29.3155 23.0716 29.9123 22.5278 30.6698 22.1181C31.4256 21.7103 32.2492 21.467 33.1372 21.3882C34.2235 21.2934 35.0757 21.424 35.6939 21.7836C36.3121 22.1414 36.6909 22.6566 36.832 23.3256C36.9714 23.9947 36.9106 24.9589 36.648 26.2165L36.2889 27.9374H36.2907ZM32.8495 26.1646L33.0479 25.2165C33.1872 24.5457 33.2426 24.1145 33.214 23.9249C33.1836 23.7353 33.0604 23.6512 32.8442 23.6691C32.5762 23.6924 32.3922 23.7908 32.2939 23.9625C32.1956 24.1342 32.0706 24.585 31.9187 25.3149L31.7204 26.263L32.8513 26.1646H32.8495ZM48.3596 17.4848L45.0614 33.3113L41.1897 33.6512L41.3862 32.7103C40.9342 33.1342 40.4822 33.4634 40.0337 33.6942C39.5835 33.9267 39.135 34.0609 38.6884 34.1002C38.0881 34.1521 37.6003 34.0376 37.2269 33.7532C36.8535 33.4687 36.648 33.1217 36.6123 32.7085C36.5765 32.2952 36.6569 31.6101 36.857 30.653L38.122 24.5832C38.3293 23.5868 38.5401 22.873 38.7509 22.4455C38.9617 22.0179 39.3244 21.6262 39.8372 21.2702C40.35 20.9142 40.9164 20.7103 41.5363 20.6566C42.0152 20.6154 42.4368 20.6637 42.7995 20.8051C43.1622 20.9464 43.4695 21.1789 43.7214 21.5027L44.4879 17.8247L48.3596 17.4848ZM43.2122 23.9428C43.3105 23.467 43.3373 23.1521 43.2926 22.9947C43.2462 22.8391 43.105 22.7711 42.8692 22.7925C42.6333 22.814 42.469 22.8999 42.3582 23.0537C42.2474 23.2076 42.1402 23.5385 42.033 24.0466L40.7091 30.4008C40.5983 30.9285 40.5644 31.272 40.6073 31.4312C40.6501 31.5904 40.7788 31.6602 40.9967 31.6423C41.2451 31.6208 41.4309 31.5135 41.5524 31.3203C41.6739 31.1271 41.8097 30.6691 41.9616 29.9464L43.2122 23.9446V23.9428ZM53.7357 17.0126L53.3051 19.0752L49.3173 19.424L49.7479 17.3614L53.7357 17.0126ZM53.1407 19.8677L50.4375 32.8391L46.4497 33.1879L49.1529 20.2165L53.1407 19.8677ZM62.0705 23.8927L58.4186 24.2129L58.7294 22.7174C58.8384 22.1968 58.8706 21.8462 58.8259 21.6673C58.7812 21.4884 58.6472 21.4097 58.4239 21.4294C58.2006 21.4491 58.0326 21.5439 57.9219 21.7138C57.8111 21.8838 57.6967 22.2523 57.5788 22.8194L56.3031 28.9392C56.2067 29.4026 56.1924 29.7442 56.2585 29.9661C56.3246 30.1879 56.4711 30.2881 56.6944 30.2684C56.9571 30.2451 57.159 30.1092 57.3019 29.8605C57.4448 29.6119 57.586 29.1503 57.7253 28.4795L58.0469 26.9357L61.497 26.6333C61.2754 27.6709 61.0753 28.4509 60.9002 28.975C60.7251 29.4992 60.4 30.0484 59.9265 30.6244C59.4512 31.2004 58.8956 31.6512 58.256 31.9804C57.6163 32.3095 56.8695 32.5099 56.0137 32.585C54.9203 32.6816 54.0948 32.5653 53.5356 32.2416C52.9764 31.916 52.6351 31.4222 52.5136 30.7568C52.3921 30.0931 52.4618 29.1289 52.7262 27.8641L53.4945 24.1789C53.7232 23.077 54.0055 22.238 54.3396 21.6584C54.6737 21.0788 55.2419 20.5385 56.0423 20.0358C56.8427 19.5331 57.7521 19.238 58.767 19.1485C59.7818 19.0591 60.5929 19.2022 61.2183 19.5761C61.8436 19.95 62.2045 20.4598 62.3028 21.1038C62.401 21.7478 62.3224 22.6798 62.0687 23.8981L62.0705 23.8927ZM68.6848 16.8069L68.2595 18.8498L69.3047 18.7586L68.8777 20.8122L67.8325 20.9035L66.3853 27.8444C66.2066 28.6977 66.1513 29.17 66.2174 29.2594C66.2835 29.3489 66.6319 29.3668 67.2643 29.3113L66.8284 31.4026L65.2669 31.5403C64.3842 31.6172 63.7643 31.6351 63.4016 31.594C63.0407 31.5528 62.7441 31.4079 62.5136 31.1628C62.2831 30.9178 62.1688 30.6244 62.1706 30.2809C62.1723 29.9392 62.3081 29.1217 62.5779 27.8319L63.9519 21.2433L63.1175 21.3167L63.5445 19.263L64.3789 19.1897L64.8041 17.1467L68.6865 16.8069H68.6848ZM74.8041 15.1682L74.3735 17.2308L70.3857 17.5797L70.8162 15.517L74.8041 15.1682ZM74.2091 18.0215L71.5059 30.9929L67.5181 31.3417L70.2213 18.3704L74.2091 18.0215ZM83.4105 21.6888L82.7476 24.8659C82.5046 26.0323 82.2688 26.8927 82.0401 27.4473C81.8114 28.0018 81.4594 28.5314 80.9842 29.0376C80.5089 29.5439 79.9515 29.9339 79.3136 30.2111C78.6758 30.4884 77.9736 30.6602 77.2072 30.7264C76.3513 30.8015 75.6456 30.7693 75.0917 30.628C74.5379 30.4866 74.1359 30.238 73.8875 29.8802C73.6392 29.5224 73.5016 29.0734 73.4766 28.5349C73.4516 27.9965 73.5534 27.1772 73.7821 26.0752L74.4753 22.7514C74.7273 21.5457 75.0506 20.5922 75.4473 19.8927C75.8439 19.1933 76.4174 18.6083 77.1678 18.1396C77.9182 17.6709 78.8098 17.3918 79.8461 17.3006C80.7144 17.2237 81.4344 17.2916 82.0026 17.5009C82.5707 17.7103 82.9799 18.0126 83.23 18.4061C83.4801 18.7997 83.6213 19.2165 83.6517 19.6548C83.682 20.0931 83.6016 20.7729 83.4105 21.6906V21.6888ZM79.7406 21.0501C79.88 20.3847 79.9318 19.9696 79.8979 19.8033C79.8639 19.6369 79.7317 19.5636 79.5012 19.5832C79.2708 19.6029 79.0992 19.7031 78.9867 19.882C78.8741 20.0609 78.7491 20.4831 78.6097 21.1485L77.3894 27.0036C77.2625 27.6154 77.2161 28.0126 77.2554 28.1915C77.2929 28.3704 77.4233 28.4509 77.6485 28.4312C77.8736 28.4115 78.0487 28.3131 78.1559 28.1378C78.2649 27.9625 78.3774 27.594 78.4936 27.034L79.7406 21.0519V21.0501ZM89.5727 16.6763L89.2564 17.8766C89.637 17.3757 90.0551 16.9875 90.5107 16.7138C90.9663 16.4401 91.4594 16.2791 91.99 16.2326C92.6547 16.1736 93.1639 16.2863 93.5194 16.5689C93.875 16.8516 94.0626 17.2308 94.0822 17.7049C94.1019 18.1789 93.9947 18.984 93.7589 20.1181L91.865 29.2094L87.9933 29.5492L89.8657 20.5654C90.0515 19.6727 90.1373 19.1306 90.1194 18.941C90.1033 18.7514 89.964 18.6673 89.7013 18.6888C89.4262 18.712 89.2314 18.8408 89.1135 19.0716C88.9956 19.3024 88.8366 19.907 88.6329 20.8838L86.8051 29.653L82.9334 29.9929L85.6367 17.0215L89.5763 16.6763H89.5727Z" fill="url(#paint2_linear_2593_3165)"/>
<path d="M94.0498 22.4352L10.541 29.8828L10.6044 30.5956L94.1132 23.148L94.0498 22.4352Z" fill="white"/>
<path d="M53.7074 9.90842L17.8496 12.3497L17.8981 13.0636L53.7559 10.6223L53.7074 9.90842Z" fill="white"/>
</g>
<defs>
<linearGradient id="paint0_linear_2593_3165" x1="12.893" y1="23.6422" x2="12.893" y2="1.3846" gradientUnits="userSpaceOnUse">
<stop stop-color="#BA043A"/>
<stop offset="1" stop-color="#F926A3"/>
</linearGradient>
<linearGradient id="paint1_linear_2593_3165" x1="37.8415" y1="21.4633" x2="37.8415" y2="1.07873" gradientUnits="userSpaceOnUse">
<stop stop-color="#BA043A"/>
<stop offset="1" stop-color="#F926A3"/>
</linearGradient>
<linearGradient id="paint2_linear_2593_3165" x1="51.7686" y1="36.4294" x2="51.7686" y2="15.1682" gradientUnits="userSpaceOnUse">
<stop stop-color="#031F32"/>
<stop offset="1" stop-color="#0375C1"/>
</linearGradient>
<clipPath id="clip0_2593_3165">
<rect width="97" height="40" fill="white"/>
</clipPath>
</defs>
</svg>
