<svg width="121" height="41" viewBox="0 0 121 41" fill="none" xmlns="http://www.w3.org/2000/svg">
<path d="M20.0273 25.7451L21.3781 21.6213L30.8533 21.3355L23.3576 15.5794L24.6824 11.5317L36.4186 21.2815L35.2983 24.7016L20.0273 25.7451Z" fill="url(#paint0_linear_2592_2966)"/>
<path d="M13.2285 24.0161H17.5984L20.801 32.867L23.0413 26.4155L27.4803 26.1108L22.5728 38.1013H18.9478L13.2285 24.0161Z" fill="#00BDEB"/>
<path d="M23.7032 19.8657L20.1666 17.3172L22.82 8.28859L14.9858 13.5819L11.5156 11.081L24.4885 3.02002L27.4213 5.13431L23.7032 19.8657Z" fill="url(#paint1_linear_2592_2966)"/>
<path d="M19.1865 14.6654L15.6518 17.214L7.81629 11.9207L10.4701 20.9493L6.99971 23.4502L3.28125 8.71878L6.21405 6.60449L19.1865 14.6654Z" fill="url(#paint2_linear_2592_2966)"/>
<path d="M13.6511 27.3239L6.67288 27.1136L14.1686 21.3568L12.8182 17.2334L1.08203 26.9822L2.20216 30.4031L15.2639 31.2957L13.6511 27.3239Z" fill="url(#paint3_linear_2592_2966)"/>
<path d="M43.971 30.6077C43.9198 30.5562 43.8882 30.4886 43.8815 30.4166C43.8748 30.3446 43.8934 30.2725 43.9343 30.2125C43.9751 30.1526 44.0356 30.1085 44.1055 30.0878C44.1753 30.0671 44.2503 30.0711 44.3175 30.099C44.3848 30.1269 44.4403 30.177 44.4745 30.2409C44.5087 30.3048 44.5196 30.3784 44.5053 30.4494C44.491 30.5203 44.4523 30.5841 44.3959 30.63C44.3396 30.6759 44.2689 30.701 44.196 30.701C44.154 30.7015 44.1124 30.6935 44.0737 30.6775C44.035 30.6614 44.0001 30.6377 43.971 30.6077ZM44.4433 33.4564H43.9395V31.0808H44.4435L44.4433 33.4564ZM50.1238 31.938H50.656V33.0046C50.4917 33.1721 50.2927 33.3024 50.0728 33.3864C49.8529 33.4704 49.6173 33.5062 49.3821 33.4913C49.1666 33.497 48.9521 33.4597 48.7515 33.3814C48.5509 33.3032 48.3681 33.1858 48.2142 33.0361C47.9111 32.7256 47.7424 32.3098 47.7441 31.8776C47.7458 31.4454 47.9178 31.031 48.2234 30.7229C48.3752 30.5723 48.556 30.4535 48.7551 30.3738C48.9542 30.294 49.1674 30.2549 49.3821 30.2587C49.795 30.2445 50.1983 30.3845 50.5122 30.6511L50.2286 31.0534C50.1204 30.9577 49.9942 30.8841 49.8573 30.8368C49.7166 30.7942 49.5701 30.7739 49.423 30.7766C49.2757 30.7727 49.129 30.7976 48.9914 30.8501C48.8539 30.9026 48.7281 30.9815 48.6214 31.0823C48.4582 31.2326 48.3443 31.4282 48.2948 31.6435C48.2452 31.8589 48.2623 32.0841 48.3437 32.2897C48.425 32.4953 48.567 32.6719 48.751 32.7963C48.935 32.9207 49.1525 32.9872 49.3752 32.9871C49.6383 32.9964 49.8985 32.9295 50.124 32.7947L50.1238 31.938ZM54.4672 32.7467L54.1523 33.4564H53.5852L54.9714 30.3351H55.5386L56.9248 33.4564H56.3584L56.0435 32.7467H54.4672ZM55.8266 32.2597L55.2552 30.9734L54.6836 32.2595L55.8266 32.2597ZM60.5936 33.4561H60.0623V30.3353H60.8898L61.8396 32.2953L62.7895 30.3353H63.6131V33.4561H63.0821V31.018L61.9842 33.1841H61.6872L60.5928 31.0183L60.5936 33.4561ZM67.1872 30.3353H67.7185V33.4561H67.1872V30.3353ZM73.6509 30.3353H74.1816V33.4561H73.6056L71.8231 31.1787V33.4561H71.292V30.3353H71.8233L73.6511 32.6662L73.6509 30.3353ZM79.9341 31.938H80.4656V33.0046C80.3012 33.1721 80.1022 33.3024 79.8823 33.3864C79.6624 33.4704 79.4268 33.5062 79.1916 33.4913C78.9761 33.497 78.7617 33.4597 78.561 33.3814C78.3604 33.3032 78.1777 33.1858 78.0237 33.0361C77.7206 32.7256 77.5519 32.3098 77.5537 31.8776C77.5554 31.4454 77.7274 31.031 78.0329 30.7229C78.1847 30.5723 78.3655 30.4535 78.5646 30.3738C78.7637 30.294 78.977 30.2549 79.1916 30.2587C79.6046 30.2445 80.0079 30.3845 80.3218 30.6511L80.0376 31.0534C79.9294 30.9577 79.8033 30.8841 79.6665 30.8368C79.5259 30.7942 79.3795 30.7739 79.2325 30.7766C79.0852 30.7726 78.9385 30.7976 78.8009 30.8501C78.6633 30.9025 78.5375 30.9815 78.4307 31.0823C78.2675 31.2326 78.1537 31.4282 78.1041 31.6436C78.0546 31.859 78.0716 32.0842 78.153 32.2898C78.2344 32.4954 78.3764 32.672 78.5604 32.7963C78.7445 32.9207 78.962 32.9872 79.1847 32.9871C79.4479 32.9964 79.708 32.9295 79.9335 32.7947L79.9341 31.938ZM88.3289 33.4561H87.7977V30.3353H88.6259L89.5758 32.2953L90.5256 30.3353H91.3493V33.4561H90.8182V31.018L89.72 33.1837H89.4227L88.3283 31.018L88.3289 33.4561ZM97.1329 30.3353V30.8305H95.454V31.6566H96.9618V32.1252H95.454V32.9608H97.1868V33.4561H94.9228V30.3353H97.1329ZM102.949 30.7437C103.103 30.8891 103.223 31.0661 103.302 31.2623C103.38 31.4586 103.415 31.6694 103.403 31.8803C103.414 32.0922 103.38 32.304 103.304 32.5023C103.228 32.7007 103.112 32.8811 102.961 33.0323C102.667 33.3154 102.217 33.4569 101.611 33.4566H100.567V30.3353H101.648C102.212 30.3353 102.645 30.4714 102.949 30.7437H102.949ZM102.867 31.8938C102.867 31.1791 102.455 30.8218 101.63 30.8218H101.098V32.9608H101.688C102.003 32.9821 102.316 32.8858 102.563 32.6907C102.669 32.5877 102.751 32.4631 102.804 32.3256C102.856 32.188 102.878 32.0408 102.867 31.8942L102.867 31.8938ZM106.788 30.3353H107.319V33.4561H106.788L106.788 30.3353ZM111.338 32.7467L111.024 33.4564H110.456L111.843 30.3351H112.41L113.796 33.4564H113.229L112.914 32.7467H111.338ZM112.698 32.2597L112.126 30.9734L111.555 32.2595L112.698 32.2597ZM51.8591 10.2284V13.2027H45.7299V15.7799C46.2435 15.6407 46.7742 15.574 47.3066 15.5818C48.716 15.5521 50.0886 16.0294 51.1708 16.9256C52.2514 17.8215 52.7918 19.0295 52.792 20.5498C52.8095 21.2615 52.6682 21.9682 52.3785 22.6195C52.0888 23.2708 51.6576 23.8505 51.1159 24.3174C49.9978 25.3086 48.6172 25.8043 46.974 25.8043C45.9796 25.8237 44.9931 25.6266 44.0837 25.2268C43.1744 24.8271 42.3645 24.2345 41.7109 23.4907L43.5317 20.9795C43.6648 21.1116 43.8425 21.2731 44.0649 21.4641C44.446 21.7564 44.8551 22.0109 45.2864 22.2241C45.8292 22.5272 46.4401 22.69 47.0629 22.6976C47.6337 22.7047 48.1898 22.5182 48.6393 22.169C49.0981 21.8165 49.3277 21.2951 49.328 20.6048C49.3438 20.2987 49.2843 19.9934 49.1547 19.7153C49.025 19.4371 48.8291 19.1944 48.5838 19.0081C48.0245 18.6142 47.3489 18.4165 46.6638 18.4462C45.8787 18.4462 44.9683 18.7253 43.9326 19.2835L42.4891 17.7406V10.2284H51.8591ZM62.5961 13.3018C62.4342 13.431 62.3049 13.5957 62.2182 13.7831C62.1316 13.9704 62.09 14.1752 62.0969 14.3812C62.0943 14.597 62.1495 14.8097 62.2568 14.9974C62.3641 15.1852 62.5198 15.3413 62.7079 15.4498C63.1146 15.7139 64.0547 16.026 65.528 16.3862C67.0012 16.7463 68.1449 17.286 68.959 18.0052C69.7731 18.7252 70.1803 19.7754 70.1805 21.1557C70.1988 21.7976 70.0669 22.4351 69.7953 23.018C69.5237 23.6009 69.1197 24.1136 68.6149 24.5157C67.5708 25.3749 66.1977 25.8044 64.4956 25.8044C62.038 25.8044 59.8247 24.9011 57.8558 23.0943L59.9212 20.5825C61.5938 22.0369 63.1409 22.7641 64.5626 22.7641C65.1987 22.7641 65.6983 22.6281 66.0613 22.3561C66.2358 22.2306 66.3767 22.0646 66.4715 21.8726C66.5663 21.6806 66.6122 21.4684 66.6053 21.2547C66.6108 21.0376 66.5607 20.8226 66.4597 20.6299C66.3587 20.4372 66.2101 20.2731 66.0277 20.1528C65.6428 19.8811 64.8804 19.6056 63.7404 19.3265C61.9336 18.9009 60.612 18.3466 59.7756 17.6637C58.9393 16.9808 58.521 15.9084 58.5209 14.4465C58.5209 12.9855 59.0502 11.8582 60.1088 11.0648C61.1673 10.2714 62.4887 9.87486 64.073 9.87511C65.1317 9.87889 66.1824 10.0575 67.182 10.4037C68.1716 10.7305 69.0906 11.2388 69.8912 11.902L68.1367 14.414C66.7895 13.4008 65.3978 12.8942 63.9616 12.8942C63.4724 12.867 62.989 13.0113 62.5961 13.3018ZM79.5731 13.2027V25.6275H76.1089V13.2027H71.7121V10.2284H83.9699V13.2027H79.5731ZM96.4288 25.6275L94.985 22.3008H88.4781L87.0346 25.6275H83.3483L90.0544 10.2284H93.4077L100.115 25.6275H96.4288ZM91.744 14.8103L89.7895 19.2827H93.6761L91.744 14.8103ZM114.504 15.3399C114.504 17.8072 113.52 19.4008 111.551 20.1208L115.482 25.6275H111.219L107.776 20.7151H105.378V25.6275H101.913V10.2284H107.798C110.211 10.2284 111.932 10.6324 112.961 11.4403C113.99 12.2481 114.505 13.548 114.504 15.3399ZM110.33 17.1684C110.759 16.7866 110.974 16.1806 110.974 15.3505C110.974 14.5204 110.752 13.9514 110.308 13.6435C109.864 13.3349 109.087 13.1806 107.976 13.1806H105.378V17.7418H107.909C109.093 17.7418 109.9 17.5507 110.33 17.1684ZM117.506 7.62939V7.89606H116.986V9.24044H116.664V7.89606H116.145V7.62939H117.506ZM119.261 9.24044L119.201 8.29301C119.195 8.16863 119.195 8.01492 119.189 7.84311H119.171C119.129 7.98482 119.082 8.17454 119.034 8.32235L118.742 9.21759H118.407L118.114 8.29949C118.085 8.17511 118.038 7.98558 118.001 7.84387H117.983C117.983 7.99187 117.977 8.14578 117.971 8.29378L117.912 9.2412H117.601L117.72 7.63016H118.204L118.485 8.41816C118.52 8.54273 118.55 8.66082 118.592 8.82673H118.598C118.64 8.67873 118.675 8.54292 118.711 8.42406L118.992 7.63054H119.457L119.583 9.24159L119.261 9.24044Z" fill="white"/>
<defs>
<linearGradient id="paint0_linear_2592_2966" x1="24.3356" y1="11.6432" x2="29.1804" y2="26.6733" gradientUnits="userSpaceOnUse">
<stop stop-color="#00BDEB"/>
<stop offset="1" stop-color="#2097E3"/>
</linearGradient>
<linearGradient id="paint1_linear_2592_2966" x1="11.5156" y1="11.4429" x2="27.4215" y2="11.4429" gradientUnits="userSpaceOnUse">
<stop stop-color="#00BDEB"/>
<stop offset="1" stop-color="#2097E3"/>
</linearGradient>
<linearGradient id="paint2_linear_2592_2966" x1="7.34666" y1="23.5618" x2="12.1915" y2="8.53171" gradientUnits="userSpaceOnUse">
<stop stop-color="#00BDEB"/>
<stop offset="1" stop-color="#2097E3"/>
</linearGradient>
<linearGradient id="paint3_linear_2592_2966" x1="16.1692" y1="30.0595" x2="4.88234" y2="21.7934" gradientUnits="userSpaceOnUse">
<stop stop-color="#00BDEB"/>
<stop offset="1" stop-color="#2097E3"/>
</linearGradient>
</defs>
</svg>
