<svg width="35" height="43" viewBox="0 0 35 43" fill="none" xmlns="http://www.w3.org/2000/svg">
<rect width="34.97" height="41.48" transform="translate(0 0.820801)" fill="#B59959"/>
<path d="M32.97 3.8208H2V34.3008H32.97V3.8208Z" fill="black"/>
<path d="M10.5301 32.1009H9.77008L9.54008 31.3909H8.31008L8.08008 32.1009H7.33008L8.53008 28.6909H9.35008L10.5301 32.1009ZM8.64008 30.3909L8.48008 30.7709H9.34008L9.20008 30.3509L8.91008 29.3509L8.64008 30.3909Z" fill="#B59959"/>
<path d="M13.6599 30.3909L14.0999 28.6909H14.8299L13.8299 32.1009H13.1499L12.6399 29.7709L12.1099 32.1009H11.4199L10.4199 28.6909H11.1699L11.6099 30.3909L11.7699 31.0809L11.9099 30.3909L12.2799 28.6909H12.9799L13.3499 30.3909L13.4899 31.0809L13.6599 30.3909Z" fill="#B59959"/>
<path d="M17.9305 32.1009H17.1705L16.9505 31.3909H15.7105L15.4805 32.1009H14.7305L15.9405 28.6909H16.7505L17.9305 32.1009ZM16.0405 30.3909L15.9005 30.8109H16.7605L16.6205 30.3909L16.3305 29.3909L16.0405 30.3909Z" fill="#B59959"/>
<path d="M20.3694 30.4611C20.5074 30.4821 20.6342 30.5491 20.7294 30.6511C20.8124 30.7584 20.8642 30.8864 20.8794 31.0211L21.0094 32.1011H20.2894L20.2094 31.2211C20.2001 31.0958 20.1511 30.9766 20.0694 30.8811C19.9582 30.8046 19.8238 30.7692 19.6894 30.7811H19.0694V32.1011H18.3594V28.6911H19.9394C20.0888 28.6783 20.2392 28.6956 20.3818 28.7419C20.5244 28.7883 20.6562 28.8628 20.7694 28.9611C20.8532 29.0508 20.9185 29.1561 20.9614 29.2711C21.0043 29.3861 21.024 29.5085 21.0194 29.6311C21.0323 29.8252 20.973 30.0172 20.8531 30.1704C20.7332 30.3235 20.5609 30.4271 20.3694 30.4611ZM19.0694 29.2911V30.2011H19.7394C19.8955 30.213 20.0509 30.1706 20.1794 30.0811C20.229 30.0377 20.2683 29.9838 20.2942 29.9232C20.3202 29.8626 20.3322 29.797 20.3294 29.7311C20.3325 29.6709 20.3235 29.6106 20.3029 29.5539C20.2823 29.4972 20.2505 29.4453 20.2094 29.4011C20.1022 29.3233 19.9717 29.2845 19.8394 29.2911H19.0694Z" fill="#B59959"/>
<path d="M21.5898 28.6909H22.8398C23.9198 28.6909 24.4598 29.2609 24.4598 30.3909C24.489 30.8446 24.3502 31.2931 24.0698 31.6509C23.9279 31.8066 23.7524 31.9281 23.5566 32.0061C23.3609 32.084 23.1499 32.1164 22.9398 32.1009H21.5898V28.6909ZM22.2998 31.5009H22.8498C22.9785 31.513 23.1083 31.4958 23.2295 31.4508C23.3507 31.4058 23.4602 31.3341 23.5498 31.2409C23.7047 30.9859 23.7748 30.6883 23.7498 30.3909C23.7769 30.0889 23.703 29.7864 23.5398 29.5309C23.4345 29.4334 23.3094 29.3597 23.1731 29.3149C23.0368 29.27 22.8924 29.255 22.7498 29.2709H22.2998V31.5009Z" fill="#B59959"/>
<path d="M26.2401 32.2111C25.88 32.2215 25.5272 32.1086 25.2401 31.8911C25.112 31.7902 25.0092 31.6609 24.9397 31.5133C24.8703 31.3658 24.8362 31.2041 24.8401 31.0411H25.4801C25.4797 31.1241 25.4984 31.2061 25.5349 31.2806C25.5713 31.3552 25.6244 31.4204 25.6901 31.4711C25.8452 31.5873 26.0368 31.6441 26.2301 31.6311C26.3875 31.6379 26.5436 31.5997 26.6801 31.5211C26.7349 31.4884 26.7798 31.4412 26.8097 31.3848C26.8397 31.3284 26.8537 31.2649 26.8501 31.2011C26.8526 31.1527 26.8429 31.1045 26.8219 31.0608C26.801 31.0172 26.7694 30.9794 26.7301 30.9511C26.61 30.8693 26.4735 30.8147 26.3301 30.7911L25.7001 30.6311C25.4678 30.5802 25.2556 30.4619 25.0901 30.2911C24.9418 30.1232 24.8631 29.905 24.8701 29.6811C24.869 29.5399 24.8979 29.4 24.9548 29.2708C25.0116 29.1415 25.0953 29.0257 25.2001 28.9311C25.4603 28.7079 25.7981 28.5964 26.1401 28.6211C26.4987 28.5972 26.8539 28.7038 27.1401 28.9211C27.2616 29.0212 27.3601 29.1462 27.4291 29.2877C27.4981 29.4291 27.536 29.5838 27.5401 29.7411H26.8601C26.8413 29.5843 26.7624 29.4409 26.6401 29.3411C26.5012 29.2402 26.3315 29.1907 26.1601 29.2011C26.015 29.1916 25.8709 29.2303 25.7501 29.3111C25.7032 29.3458 25.6652 29.391 25.6392 29.4431C25.6131 29.4953 25.5997 29.5528 25.6001 29.6111C25.6001 29.7911 25.7301 29.9211 26.0001 29.9911L26.6801 30.1611C27.2901 30.3111 27.6001 30.6311 27.6001 31.1611C27.6064 31.3104 27.577 31.459 27.5144 31.5946C27.4518 31.7303 27.3578 31.8491 27.2401 31.9411C26.9472 32.1424 26.5945 32.2376 26.2401 32.2111Z" fill="#B59959"/>
<path d="M9.91948 15.8609C8.93588 15.9243 7.96258 15.6295 7.17948 15.0309C6.85148 14.738 6.59188 14.3766 6.41908 13.9722C6.24627 13.5678 6.16448 13.1304 6.17948 12.6909H8.47948C8.48478 12.9076 8.53358 13.1211 8.62288 13.3186C8.71218 13.5162 8.84028 13.6938 8.99948 13.8409C9.32498 14.0715 9.72228 14.1779 10.1195 14.1409C10.9595 14.1409 11.4695 13.9109 11.4695 13.2109C11.4695 12.8209 11.2095 12.4609 10.5795 12.2109C9.97838 11.9807 9.36388 11.7871 8.73948 11.6309C8.14308 11.429 7.58018 11.1392 7.06948 10.7709C6.63558 10.3311 6.39144 9.73868 6.38948 9.12088C6.36584 8.74341 6.43137 8.36568 6.58078 8.01823C6.73018 7.67079 6.95928 7.36338 7.24948 7.12088C8.05418 6.60094 9.00278 6.34892 9.95948 6.40088C10.883 6.3349 11.7992 6.6048 12.5395 7.16088C12.8762 7.45286 13.1506 7.80963 13.3465 8.20993C13.5423 8.61024 13.6556 9.04587 13.6795 9.49088H11.4795C11.4546 9.13699 11.2981 8.80524 11.0408 8.56095C10.7836 8.31665 10.4442 8.1775 10.0895 8.17088C9.22948 8.17088 8.87948 8.59088 8.87948 9.00088C8.87118 9.22532 8.93868 9.44603 9.07108 9.62744C9.20358 9.80884 9.39318 9.94039 9.60948 10.0009C10.3895 10.2609 10.8495 10.3809 11.1995 10.4909C12.4195 10.8509 13.7395 11.4909 13.7795 13.0309C13.8071 13.4365 13.7349 13.8427 13.5693 14.214C13.4037 14.5853 13.1497 14.9104 12.8295 15.1609C11.9504 15.6777 10.9375 15.9214 9.91948 15.8609Z" fill="#B59959"/>
<path d="M24.3392 12.4612V10.6112H28.8592C28.8592 13.0712 28.3492 14.0612 27.8592 14.5512C26.8592 15.5512 26.0892 15.8612 24.1592 15.8612C23.5466 15.8761 22.9378 15.7616 22.3724 15.5254C21.807 15.2891 21.2977 14.9363 20.8778 14.49C20.4579 14.0437 20.1368 13.5139 19.9355 12.9352C19.7341 12.3564 19.657 11.7417 19.7092 11.1312C19.6616 10.4996 19.7507 9.86522 19.9703 9.27113C20.1899 8.67704 20.5349 8.13723 20.9818 7.68841C21.4287 7.2396 21.9671 6.89232 22.5602 6.67021C23.1534 6.44809 23.7874 6.35635 24.4192 6.40122C27.5792 6.40122 28.5192 8.30122 28.8692 9.65122H26.5392C26.4098 9.22157 26.1311 8.85235 25.7533 8.61027C25.3755 8.36819 24.9236 8.26922 24.4792 8.33122C24.1343 8.34527 23.796 8.4306 23.4856 8.58185C23.1753 8.7331 22.8996 8.94699 22.676 9.21003C22.4524 9.47308 22.2858 9.77959 22.1865 10.1102C22.0872 10.4409 22.0575 10.7885 22.0992 11.1312C22.0992 12.0412 22.4892 14.0112 24.5692 14.0112C25.0522 14.033 25.5285 13.8921 25.922 13.6111C26.3154 13.33 26.6032 12.9251 26.7392 12.4612H24.3392Z" fill="#B59959"/>
<path d="M15.6009 17.8408V26.8708H13.3409V22.0908L11.9609 25.2508L11.2609 26.8708H10.4009L9.70086 25.2508L8.40086 22.2808V26.8708H6.13086V17.8408H8.74086L10.8309 22.6508L12.9209 17.8408H15.6009Z" fill="#B59959"/>
<path d="M17.9067 6.5H15.6367V8.54H17.9067V6.5Z" fill="#B59959"/>
<path d="M17.9067 9.5H15.6367V15.8H17.9067V9.5Z" fill="#B59959"/>
<path d="M22.4797 17.8408H19.4797L16.1797 26.8408H18.4797L19.1497 25.0108H22.8797L23.4797 26.8708H25.7397L22.4797 17.8408ZM19.8097 23.1608L20.9797 19.9508L22.1597 23.1608H19.8097Z" fill="#B59959"/>
<path d="M28.7403 26.8708H27.1203L23.8203 17.8408H28.7403V26.8708Z" fill="#FF0000"/>
<path d="M3.77539 39.3008V36.4375H5.89844V36.9219H4.35352V37.5566H5.79102V38.0391H4.35352V38.8184H5.95312V39.3008H3.77539ZM6.43945 36.4375H7.01758V37.9883C7.01758 38.2344 7.02474 38.3939 7.03906 38.4668C7.0638 38.584 7.1224 38.6784 7.21484 38.75C7.30859 38.8203 7.4362 38.8555 7.59766 38.8555C7.76172 38.8555 7.88542 38.8223 7.96875 38.7559C8.05208 38.6882 8.10221 38.6055 8.11914 38.5078C8.13607 38.4102 8.14453 38.248 8.14453 38.0215V36.4375H8.72266V37.9414C8.72266 38.2852 8.70703 38.528 8.67578 38.6699C8.64453 38.8118 8.58659 38.9316 8.50195 39.0293C8.41862 39.127 8.30664 39.2051 8.16602 39.2637C8.02539 39.321 7.8418 39.3496 7.61523 39.3496C7.3418 39.3496 7.13411 39.3184 6.99219 39.2559C6.85156 39.1921 6.74023 39.11 6.6582 39.0098C6.57617 38.9082 6.52214 38.8021 6.49609 38.6914C6.45833 38.5273 6.43945 38.2852 6.43945 37.9648V36.4375ZM9.33594 39.3008V36.4375H10.5527C10.8587 36.4375 11.0807 36.4635 11.2188 36.5156C11.3581 36.5664 11.4694 36.6576 11.5527 36.7891C11.6361 36.9206 11.6777 37.071 11.6777 37.2402C11.6777 37.4551 11.6146 37.6328 11.4883 37.7734C11.362 37.9128 11.1732 38.0007 10.9219 38.0371C11.0469 38.11 11.1497 38.1901 11.2305 38.2773C11.3125 38.3646 11.4225 38.5195 11.5605 38.7422L11.9102 39.3008H11.2188L10.8008 38.6777C10.6523 38.4551 10.5508 38.3151 10.4961 38.2578C10.4414 38.1992 10.3835 38.1595 10.3223 38.1387C10.2611 38.1165 10.1641 38.1055 10.0312 38.1055H9.91406V39.3008H9.33594ZM9.91406 37.6484H10.3418C10.6191 37.6484 10.7923 37.6367 10.8613 37.6133C10.9303 37.5898 10.9844 37.5495 11.0234 37.4922C11.0625 37.4349 11.082 37.3633 11.082 37.2773C11.082 37.181 11.056 37.1035 11.0039 37.0449C10.9531 36.985 10.8809 36.9473 10.7871 36.9316C10.7402 36.9251 10.5996 36.9219 10.3652 36.9219H9.91406V37.6484ZM14.8066 39.3008H14.1777L13.9277 38.6504H12.7832L12.5469 39.3008H11.9336L13.0488 36.4375H13.6602L14.8066 39.3008ZM13.7422 38.168L13.3477 37.1055L12.9609 38.168H13.7422ZM14.9688 38.3691L15.5312 38.3145C15.5651 38.5033 15.6335 38.6419 15.7363 38.7305C15.8405 38.819 15.9805 38.8633 16.1562 38.8633C16.3424 38.8633 16.4824 38.8242 16.5762 38.7461C16.6712 38.6667 16.7188 38.5742 16.7188 38.4688C16.7188 38.401 16.6986 38.3438 16.6582 38.2969C16.6191 38.2487 16.5501 38.207 16.4512 38.1719C16.3835 38.1484 16.2292 38.1068 15.9883 38.0469C15.6784 37.9701 15.4609 37.8757 15.3359 37.7637C15.1602 37.6061 15.0723 37.4141 15.0723 37.1875C15.0723 37.0417 15.1133 36.9056 15.1953 36.7793C15.2786 36.6517 15.3978 36.5547 15.5527 36.4883C15.709 36.4219 15.8971 36.3887 16.1172 36.3887C16.4766 36.3887 16.7467 36.4674 16.9277 36.625C17.11 36.7826 17.2057 36.9928 17.2148 37.2559L16.6367 37.2812C16.612 37.1341 16.5586 37.0286 16.4766 36.9648C16.3958 36.8997 16.2741 36.8672 16.1113 36.8672C15.9434 36.8672 15.8118 36.9017 15.7168 36.9707C15.6556 37.015 15.625 37.0742 15.625 37.1484C15.625 37.2161 15.6536 37.2741 15.7109 37.3223C15.7839 37.3835 15.9609 37.4473 16.2422 37.5137C16.5234 37.5801 16.7311 37.6491 16.8652 37.7207C17.0007 37.791 17.1061 37.888 17.1816 38.0117C17.2585 38.1341 17.2969 38.2858 17.2969 38.4668C17.2969 38.6309 17.2513 38.7845 17.1602 38.9277C17.069 39.071 16.9401 39.1777 16.7734 39.248C16.6068 39.3171 16.3991 39.3516 16.1504 39.3516C15.7884 39.3516 15.5104 39.2682 15.3164 39.1016C15.1224 38.9336 15.0065 38.6895 14.9688 38.3691ZM17.7656 39.3008V36.4375H18.3438V39.3008H17.7656ZM21.4785 39.3008H20.8496L20.5996 38.6504H19.4551L19.2188 39.3008H18.6055L19.7207 36.4375H20.332L21.4785 39.3008ZM20.4141 38.168L20.0195 37.1055L19.6328 38.168H20.4141ZM24.4844 38.791V39.3008H22.5605C22.5814 39.1081 22.6439 38.9258 22.748 38.7539C22.8522 38.5807 23.0579 38.3516 23.3652 38.0664C23.6126 37.8359 23.7643 37.6797 23.8203 37.5977C23.8958 37.4844 23.9336 37.3724 23.9336 37.2617C23.9336 37.1393 23.9004 37.0456 23.834 36.9805C23.7689 36.9141 23.6784 36.8809 23.5625 36.8809C23.4479 36.8809 23.3568 36.9154 23.2891 36.9844C23.2214 37.0534 23.1823 37.168 23.1719 37.3281L22.625 37.2734C22.6576 36.9714 22.7598 36.7546 22.9316 36.623C23.1035 36.4915 23.3184 36.4258 23.5762 36.4258C23.8587 36.4258 24.0807 36.502 24.2422 36.6543C24.4036 36.8066 24.4844 36.9961 24.4844 37.2227C24.4844 37.3516 24.4609 37.4746 24.4141 37.5918C24.3685 37.7077 24.2956 37.8294 24.1953 37.957C24.1289 38.0417 24.0091 38.1634 23.8359 38.3223C23.6628 38.4811 23.5527 38.5866 23.5059 38.6387C23.4603 38.6908 23.4232 38.7415 23.3945 38.791H24.4844ZM25.7852 36.4258C26.0625 36.4258 26.2793 36.5247 26.4355 36.7227C26.6217 36.957 26.7148 37.3457 26.7148 37.8887C26.7148 38.4303 26.6211 38.8197 26.4336 39.0566C26.2786 39.252 26.0625 39.3496 25.7852 39.3496C25.5065 39.3496 25.2819 39.2428 25.1113 39.0293C24.9408 38.8145 24.8555 38.4323 24.8555 37.8828C24.8555 37.3438 24.9492 36.9557 25.1367 36.7188C25.2917 36.5234 25.5078 36.4258 25.7852 36.4258ZM25.7852 36.8809C25.7188 36.8809 25.6595 36.9023 25.6074 36.9453C25.5553 36.987 25.515 37.0625 25.4863 37.1719C25.4486 37.3138 25.4297 37.5527 25.4297 37.8887C25.4297 38.2246 25.4466 38.4557 25.4805 38.582C25.5143 38.707 25.5566 38.7904 25.6074 38.832C25.6595 38.8737 25.7188 38.8945 25.7852 38.8945C25.8516 38.8945 25.9108 38.8737 25.9629 38.832C26.015 38.7891 26.0553 38.7129 26.084 38.6035C26.1217 38.4629 26.1406 38.2246 26.1406 37.8887C26.1406 37.5527 26.1237 37.3223 26.0898 37.1973C26.056 37.071 26.013 36.987 25.9609 36.9453C25.9102 36.9023 25.8516 36.8809 25.7852 36.8809ZM28.9375 38.791V39.3008H27.0137C27.0345 39.1081 27.097 38.9258 27.2012 38.7539C27.3053 38.5807 27.5111 38.3516 27.8184 38.0664C28.0658 37.8359 28.2174 37.6797 28.2734 37.5977C28.349 37.4844 28.3867 37.3724 28.3867 37.2617C28.3867 37.1393 28.3535 37.0456 28.2871 36.9805C28.222 36.9141 28.1315 36.8809 28.0156 36.8809C27.901 36.8809 27.8099 36.9154 27.7422 36.9844C27.6745 37.0534 27.6354 37.168 27.625 37.3281L27.0781 37.2734C27.1107 36.9714 27.2129 36.7546 27.3848 36.623C27.5566 36.4915 27.7715 36.4258 28.0293 36.4258C28.3118 36.4258 28.5339 36.502 28.6953 36.6543C28.8568 36.8066 28.9375 36.9961 28.9375 37.2227C28.9375 37.3516 28.9141 37.4746 28.8672 37.5918C28.8216 37.7077 28.7487 37.8294 28.6484 37.957C28.582 38.0417 28.4622 38.1634 28.2891 38.3223C28.1159 38.4811 28.0059 38.5866 27.959 38.6387C27.9134 38.6908 27.8763 38.7415 27.8477 38.791H28.9375ZM29.3184 38.5645L29.8652 38.5078C29.8809 38.6315 29.9271 38.7298 30.0039 38.8027C30.0807 38.8743 30.1693 38.9102 30.2695 38.9102C30.3841 38.9102 30.4811 38.8639 30.5605 38.7715C30.64 38.6777 30.6797 38.5371 30.6797 38.3496C30.6797 38.1738 30.64 38.0423 30.5605 37.9551C30.4824 37.8665 30.3802 37.8223 30.2539 37.8223C30.0964 37.8223 29.9551 37.8919 29.8301 38.0312L29.3848 37.9668L29.666 36.4766H31.1172V36.9902H30.082L29.9961 37.4766C30.1185 37.4154 30.2435 37.3848 30.3711 37.3848C30.6146 37.3848 30.821 37.4733 30.9902 37.6504C31.1595 37.8275 31.2441 38.0573 31.2441 38.3398C31.2441 38.5755 31.1758 38.7858 31.0391 38.9707C30.8529 39.2233 30.5944 39.3496 30.2637 39.3496C29.9993 39.3496 29.7839 39.2786 29.6172 39.1367C29.4505 38.9948 29.3509 38.804 29.3184 38.5645Z" fill="black"/>
</svg>
