<svg width="37" height="43" viewBox="0 0 37 43" fill="none" xmlns="http://www.w3.org/2000/svg">
<rect width="36" height="41.48" transform="translate(0.333984 0.820801)" fill="#B59959"/>
<path d="M33.8196 3.8208H2.84961V34.3008H33.8196V3.8208Z" fill="black"/>
<path d="M11.3797 32.1009H10.6197L10.3897 31.3909H9.15969L8.92969 32.1009H8.17969L9.37969 28.6909H10.1997L11.3797 32.1009ZM9.48969 30.3909L9.32969 30.7709H10.1897L10.0497 30.3509L9.75969 29.3509L9.48969 30.3909Z" fill="#B59959"/>
<path d="M14.5095 30.3909L14.9495 28.6909H15.6795L14.6795 32.1009H13.9995L13.4895 29.7709L12.9595 32.1009H12.2695L11.2695 28.6909H12.0195L12.4595 30.3909L12.6195 31.0809L12.7595 30.3909L13.1295 28.6909H13.8295L14.1995 30.3909L14.3395 31.0809L14.5095 30.3909Z" fill="#B59959"/>
<path d="M18.7801 32.1009H18.0201L17.8001 31.3909H16.5601L16.3301 32.1009H15.5801L16.7901 28.6909H17.6001L18.7801 32.1009ZM16.8901 30.3909L16.7501 30.8109H17.6101L17.4701 30.3909L17.1801 29.3909L16.8901 30.3909Z" fill="#B59959"/>
<path d="M21.219 30.4611C21.357 30.4821 21.4838 30.5491 21.579 30.6511C21.662 30.7584 21.7138 30.8864 21.729 31.0211L21.859 32.1011H21.139L21.059 31.2211C21.0497 31.0958 21.0007 30.9766 20.919 30.8811C20.8078 30.8046 20.6734 30.7692 20.539 30.7811H19.919V32.1011H19.209V28.6911H20.789C20.9384 28.6783 21.0888 28.6956 21.2314 28.7419C21.374 28.7883 21.5058 28.8628 21.619 28.9611C21.7028 29.0508 21.7681 29.1561 21.811 29.2711C21.8539 29.3861 21.8736 29.5085 21.869 29.6311C21.8819 29.8252 21.8226 30.0172 21.7027 30.1704C21.5828 30.3235 21.4105 30.4271 21.219 30.4611ZM19.919 29.2911V30.2011H20.589C20.7451 30.213 20.9005 30.1706 21.029 30.0811C21.0786 30.0377 21.1179 29.9838 21.1438 29.9232C21.1698 29.8626 21.1818 29.797 21.179 29.7311C21.1821 29.6709 21.1731 29.6106 21.1525 29.5539C21.1319 29.4972 21.1001 29.4453 21.059 29.4011C20.9518 29.3233 20.8213 29.2845 20.689 29.2911H19.919Z" fill="#B59959"/>
<path d="M22.4395 28.6909H23.6895C24.7695 28.6909 25.3095 29.2609 25.3095 30.3909C25.3387 30.8446 25.1999 31.2931 24.9195 31.6509C24.7776 31.8066 24.6021 31.9281 24.4063 32.0061C24.2106 32.084 23.9996 32.1164 23.7895 32.1009H22.4395V28.6909ZM23.1495 31.5009H23.6995C23.8282 31.513 23.958 31.4958 24.0792 31.4508C24.2004 31.4058 24.3099 31.3341 24.3995 31.2409C24.5544 30.9859 24.6245 30.6883 24.5995 30.3909C24.6266 30.0889 24.5527 29.7864 24.3895 29.5309C24.2842 29.4334 24.1591 29.3597 24.0228 29.3149C23.8865 29.27 23.7421 29.255 23.5995 29.2709H23.1495V31.5009Z" fill="#B59959"/>
<path d="M27.0898 32.2111C26.7297 32.2215 26.3769 32.1086 26.0898 31.8911C25.9617 31.7902 25.8589 31.6609 25.7894 31.5133C25.72 31.3658 25.6859 31.2041 25.6898 31.0411H26.3298C26.3294 31.1241 26.3481 31.2061 26.3846 31.2806C26.421 31.3552 26.4741 31.4204 26.5398 31.4711C26.6949 31.5873 26.8865 31.6441 27.0798 31.6311C27.2372 31.6379 27.3933 31.5997 27.5298 31.5211C27.5846 31.4884 27.6295 31.4412 27.6594 31.3848C27.6894 31.3284 27.7034 31.2649 27.6998 31.2011C27.7023 31.1527 27.6926 31.1045 27.6716 31.0608C27.6507 31.0172 27.6191 30.9794 27.5798 30.9511C27.4597 30.8693 27.3232 30.8147 27.1798 30.7911L26.5498 30.6311C26.3175 30.5802 26.1053 30.4619 25.9398 30.2911C25.7915 30.1232 25.7128 29.905 25.7198 29.6811C25.7187 29.5399 25.7476 29.4 25.8045 29.2708C25.8613 29.1415 25.945 29.0257 26.0498 28.9311C26.31 28.7079 26.6478 28.5964 26.9898 28.6211C27.3484 28.5972 27.7036 28.7038 27.9898 28.9211C28.1113 29.0212 28.2098 29.1462 28.2788 29.2877C28.3478 29.4291 28.3857 29.5838 28.3898 29.7411H27.7098C27.691 29.5843 27.6121 29.4409 27.4898 29.3411C27.3509 29.2402 27.1812 29.1907 27.0098 29.2011C26.8647 29.1916 26.7206 29.2303 26.5998 29.3111C26.5529 29.3458 26.5149 29.391 26.4889 29.4431C26.4628 29.4953 26.4494 29.5528 26.4498 29.6111C26.4498 29.7911 26.5798 29.9211 26.8498 29.9911L27.5298 30.1611C28.1398 30.3111 28.4498 30.6311 28.4498 31.1611C28.4561 31.3104 28.4267 31.459 28.3641 31.5946C28.3015 31.7303 28.2075 31.8491 28.0898 31.9411C27.7969 32.1424 27.4442 32.2376 27.0898 32.2111Z" fill="#B59959"/>
<path d="M10.7691 15.8609C9.78549 15.9243 8.81219 15.6295 8.02909 15.0309C7.70109 14.738 7.44149 14.3766 7.26869 13.9722C7.09588 13.5678 7.01409 13.1304 7.02909 12.6909H9.32909C9.33439 12.9076 9.38319 13.1211 9.47249 13.3186C9.56179 13.5162 9.68989 13.6938 9.84909 13.8409C10.1746 14.0715 10.5719 14.1779 10.9691 14.1409C11.8091 14.1409 12.3191 13.9109 12.3191 13.2109C12.3191 12.8209 12.0591 12.4609 11.4291 12.2109C10.828 11.9807 10.2135 11.7871 9.58909 11.6309C8.99269 11.429 8.42979 11.1392 7.91909 10.7709C7.48519 10.3311 7.24105 9.73868 7.23909 9.12088C7.21545 8.74341 7.28098 8.36568 7.43039 8.01823C7.57979 7.67079 7.80889 7.36338 8.09909 7.12088C8.90379 6.60094 9.85239 6.34892 10.8091 6.40088C11.7326 6.3349 12.6488 6.6048 13.3891 7.16088C13.7258 7.45286 14.0002 7.80963 14.1961 8.20993C14.3919 8.61024 14.5052 9.04587 14.5291 9.49088H12.3291C12.3042 9.13699 12.1477 8.80524 11.8904 8.56095C11.6332 8.31665 11.2938 8.1775 10.9391 8.17088C10.0791 8.17088 9.72909 8.59088 9.72909 9.00088C9.72079 9.22532 9.78829 9.44603 9.92069 9.62744C10.0532 9.80884 10.2428 9.94039 10.4591 10.0009C11.2391 10.2609 11.6991 10.3809 12.0491 10.4909C13.2691 10.8509 14.5891 11.4909 14.6291 13.0309C14.6567 13.4365 14.5845 13.8427 14.4189 14.214C14.2533 14.5853 13.9993 14.9104 13.6791 15.1609C12.8 15.6777 11.7871 15.9214 10.7691 15.8609Z" fill="#B59959"/>
<path d="M25.1888 12.4612V10.6112H29.7088C29.7088 13.0712 29.1988 14.0612 28.7088 14.5512C27.7088 15.5512 26.9388 15.8612 25.0088 15.8612C24.3962 15.8761 23.7874 15.7616 23.222 15.5254C22.6566 15.2891 22.1473 14.9363 21.7274 14.49C21.3075 14.0437 20.9864 13.5139 20.7851 12.9352C20.5837 12.3564 20.5066 11.7417 20.5588 11.1312C20.5112 10.4996 20.6003 9.86522 20.8199 9.27113C21.0395 8.67704 21.3845 8.13723 21.8314 7.68841C22.2783 7.2396 22.8167 6.89232 23.4098 6.67021C24.003 6.44809 24.637 6.35635 25.2688 6.40122C28.4288 6.40122 29.3688 8.30122 29.7188 9.65122H27.3888C27.2594 9.22157 26.9807 8.85235 26.6029 8.61027C26.2251 8.36819 25.7732 8.26922 25.3288 8.33122C24.9839 8.34527 24.6456 8.4306 24.3352 8.58185C24.0249 8.7331 23.7492 8.94699 23.5256 9.21003C23.302 9.47308 23.1354 9.77959 23.0361 10.1102C22.9368 10.4409 22.9071 10.7885 22.9488 11.1312C22.9488 12.0412 23.3388 14.0112 25.4188 14.0112C25.9018 14.033 26.3781 13.8921 26.7716 13.6111C27.165 13.33 27.4528 12.9251 27.5888 12.4612H25.1888Z" fill="#B59959"/>
<path d="M16.4505 17.8408V26.8708H14.1905V22.0908L12.8105 25.2508L12.1105 26.8708H11.2505L10.5505 25.2508L9.25047 22.2808V26.8708H6.98047V17.8408H9.59047L11.6805 22.6508L13.7705 17.8408H16.4505Z" fill="#B59959"/>
<path d="M18.7563 6.5H16.4863V8.54H18.7563V6.5Z" fill="#B59959"/>
<path d="M18.7563 9.5H16.4863V15.8H18.7563V9.5Z" fill="#B59959"/>
<path d="M23.3293 17.8408H20.3293L17.0293 26.8408H19.3293L19.9993 25.0108H23.7293L24.3293 26.8708H26.5893L23.3293 17.8408ZM20.6593 23.1608L21.8293 19.9508L23.0093 23.1608H20.6593Z" fill="#B59959"/>
<path d="M29.5899 26.8708H27.9699L24.6699 17.8408H29.5899V26.8708Z" fill="#FF0000"/>
<path d="M5.20703 39.3008H4.57812L4.32812 38.6504H3.18359L2.94727 39.3008H2.33398L3.44922 36.4375H4.06055L5.20703 39.3008ZM4.14258 38.168L3.74805 37.1055L3.36133 38.168H4.14258ZM5.50781 39.3008V36.4375H6.37305L6.89258 38.3906L7.40625 36.4375H8.27344V39.3008H7.73633V37.0469L7.16797 39.3008H6.61133L6.04492 37.0469V39.3008H5.50781ZM8.84766 39.3008V36.4375H10.9707V36.9219H9.42578V37.5566H10.8633V38.0391H9.42578V38.8184H11.0254V39.3008H8.84766ZM11.5176 39.3008V36.4375H12.7344C13.0404 36.4375 13.2624 36.4635 13.4004 36.5156C13.5397 36.5664 13.651 36.6576 13.7344 36.7891C13.8177 36.9206 13.8594 37.071 13.8594 37.2402C13.8594 37.4551 13.7962 37.6328 13.6699 37.7734C13.5436 37.9128 13.3548 38.0007 13.1035 38.0371C13.2285 38.11 13.3314 38.1901 13.4121 38.2773C13.4941 38.3646 13.6042 38.5195 13.7422 38.7422L14.0918 39.3008H13.4004L12.9824 38.6777C12.834 38.4551 12.7324 38.3151 12.6777 38.2578C12.623 38.1992 12.5651 38.1595 12.5039 38.1387C12.4427 38.1165 12.3457 38.1055 12.2129 38.1055H12.0957V39.3008H11.5176ZM12.0957 37.6484H12.5234C12.8008 37.6484 12.974 37.6367 13.043 37.6133C13.112 37.5898 13.166 37.5495 13.2051 37.4922C13.2441 37.4349 13.2637 37.3633 13.2637 37.2773C13.2637 37.181 13.2376 37.1035 13.1855 37.0449C13.1348 36.985 13.0625 36.9473 12.9688 36.9316C12.9219 36.9251 12.7812 36.9219 12.5469 36.9219H12.0957V37.6484ZM14.3887 39.3008V36.4375H14.9668V39.3008H14.3887ZM17.3516 38.248L17.9121 38.4258C17.8262 38.7383 17.6829 38.9707 17.4824 39.123C17.2832 39.2741 17.0299 39.3496 16.7227 39.3496C16.3424 39.3496 16.0299 39.2201 15.7852 38.9609C15.5404 38.7005 15.418 38.3451 15.418 37.8945C15.418 37.418 15.541 37.0482 15.7871 36.7852C16.0332 36.5208 16.3568 36.3887 16.7578 36.3887C17.1081 36.3887 17.3926 36.4922 17.6113 36.6992C17.7415 36.8216 17.8392 36.9974 17.9043 37.2266L17.332 37.3633C17.2982 37.2148 17.2272 37.0977 17.1191 37.0117C17.0124 36.9258 16.8822 36.8828 16.7285 36.8828C16.5163 36.8828 16.3438 36.959 16.2109 37.1113C16.0794 37.2637 16.0137 37.5104 16.0137 37.8516C16.0137 38.2135 16.0788 38.4714 16.209 38.625C16.3392 38.7786 16.5085 38.8555 16.7168 38.8555C16.8704 38.8555 17.0026 38.8066 17.1133 38.709C17.224 38.6113 17.3034 38.4577 17.3516 38.248ZM20.9922 39.3008H20.3633L20.1133 38.6504H18.9688L18.7324 39.3008H18.1191L19.2344 36.4375H19.8457L20.9922 39.3008ZM19.9277 38.168L19.5332 37.1055L19.1465 38.168H19.9277ZM21.1543 38.3691L21.7168 38.3145C21.7507 38.5033 21.819 38.6419 21.9219 38.7305C22.026 38.819 22.166 38.8633 22.3418 38.8633C22.528 38.8633 22.668 38.8242 22.7617 38.7461C22.8568 38.6667 22.9043 38.5742 22.9043 38.4688C22.9043 38.401 22.8841 38.3438 22.8438 38.2969C22.8047 38.2487 22.7357 38.207 22.6367 38.1719C22.569 38.1484 22.4147 38.1068 22.1738 38.0469C21.8639 37.9701 21.6465 37.8757 21.5215 37.7637C21.3457 37.6061 21.2578 37.4141 21.2578 37.1875C21.2578 37.0417 21.2988 36.9056 21.3809 36.7793C21.4642 36.6517 21.5833 36.5547 21.7383 36.4883C21.8945 36.4219 22.0827 36.3887 22.3027 36.3887C22.6621 36.3887 22.9323 36.4674 23.1133 36.625C23.2956 36.7826 23.3913 36.9928 23.4004 37.2559L22.8223 37.2812C22.7975 37.1341 22.7441 37.0286 22.6621 36.9648C22.5814 36.8997 22.4596 36.8672 22.2969 36.8672C22.1289 36.8672 21.9974 36.9017 21.9023 36.9707C21.8411 37.015 21.8105 37.0742 21.8105 37.1484C21.8105 37.2161 21.8392 37.2741 21.8965 37.3223C21.9694 37.3835 22.1465 37.4473 22.4277 37.5137C22.709 37.5801 22.9167 37.6491 23.0508 37.7207C23.1862 37.791 23.2917 37.888 23.3672 38.0117C23.444 38.1341 23.4824 38.2858 23.4824 38.4668C23.4824 38.6309 23.4368 38.7845 23.3457 38.9277C23.2546 39.071 23.1257 39.1777 22.959 39.248C22.7923 39.3171 22.5846 39.3516 22.3359 39.3516C21.974 39.3516 21.696 39.2682 21.502 39.1016C21.3079 38.9336 21.1921 38.6895 21.1543 38.3691ZM26.8145 38.791V39.3008H24.8906C24.9115 39.1081 24.974 38.9258 25.0781 38.7539C25.1823 38.5807 25.388 38.3516 25.6953 38.0664C25.9427 37.8359 26.0944 37.6797 26.1504 37.5977C26.2259 37.4844 26.2637 37.3724 26.2637 37.2617C26.2637 37.1393 26.2305 37.0456 26.1641 36.9805C26.099 36.9141 26.0085 36.8809 25.8926 36.8809C25.778 36.8809 25.6868 36.9154 25.6191 36.9844C25.5514 37.0534 25.5124 37.168 25.502 37.3281L24.9551 37.2734C24.9876 36.9714 25.0898 36.7546 25.2617 36.623C25.4336 36.4915 25.6484 36.4258 25.9062 36.4258C26.1888 36.4258 26.4108 36.502 26.5723 36.6543C26.7337 36.8066 26.8145 36.9961 26.8145 37.2227C26.8145 37.3516 26.791 37.4746 26.7441 37.5918C26.6986 37.7077 26.6257 37.8294 26.5254 37.957C26.459 38.0417 26.3392 38.1634 26.166 38.3223C25.9928 38.4811 25.8828 38.5866 25.8359 38.6387C25.7904 38.6908 25.7533 38.7415 25.7246 38.791H26.8145ZM28.1152 36.4258C28.3926 36.4258 28.6094 36.5247 28.7656 36.7227C28.9518 36.957 29.0449 37.3457 29.0449 37.8887C29.0449 38.4303 28.9512 38.8197 28.7637 39.0566C28.6087 39.252 28.3926 39.3496 28.1152 39.3496C27.8366 39.3496 27.612 39.2428 27.4414 39.0293C27.2708 38.8145 27.1855 38.4323 27.1855 37.8828C27.1855 37.3438 27.2793 36.9557 27.4668 36.7188C27.6217 36.5234 27.8379 36.4258 28.1152 36.4258ZM28.1152 36.8809C28.0488 36.8809 27.9896 36.9023 27.9375 36.9453C27.8854 36.987 27.8451 37.0625 27.8164 37.1719C27.7786 37.3138 27.7598 37.5527 27.7598 37.8887C27.7598 38.2246 27.7767 38.4557 27.8105 38.582C27.8444 38.707 27.8867 38.7904 27.9375 38.832C27.9896 38.8737 28.0488 38.8945 28.1152 38.8945C28.1816 38.8945 28.2409 38.8737 28.293 38.832C28.3451 38.7891 28.3854 38.7129 28.4141 38.6035C28.4518 38.4629 28.4707 38.2246 28.4707 37.8887C28.4707 37.5527 28.4538 37.3223 28.4199 37.1973C28.3861 37.071 28.3431 36.987 28.291 36.9453C28.2402 36.9023 28.1816 36.8809 28.1152 36.8809ZM31.2676 38.791V39.3008H29.3438C29.3646 39.1081 29.4271 38.9258 29.5312 38.7539C29.6354 38.5807 29.8411 38.3516 30.1484 38.0664C30.3958 37.8359 30.5475 37.6797 30.6035 37.5977C30.679 37.4844 30.7168 37.3724 30.7168 37.2617C30.7168 37.1393 30.6836 37.0456 30.6172 36.9805C30.5521 36.9141 30.4616 36.8809 30.3457 36.8809C30.2311 36.8809 30.14 36.9154 30.0723 36.9844C30.0046 37.0534 29.9655 37.168 29.9551 37.3281L29.4082 37.2734C29.4408 36.9714 29.543 36.7546 29.7148 36.623C29.8867 36.4915 30.1016 36.4258 30.3594 36.4258C30.6419 36.4258 30.8639 36.502 31.0254 36.6543C31.1868 36.8066 31.2676 36.9961 31.2676 37.2227C31.2676 37.3516 31.2441 37.4746 31.1973 37.5918C31.1517 37.7077 31.0788 37.8294 30.9785 37.957C30.9121 38.0417 30.7923 38.1634 30.6191 38.3223C30.446 38.4811 30.3359 38.5866 30.2891 38.6387C30.2435 38.6908 30.2064 38.7415 30.1777 38.791H31.2676ZM32.7168 39.3008V38.7246H31.5449V38.2441L32.7871 36.4258H33.248V38.2422H33.6035V38.7246H33.248V39.3008H32.7168ZM32.7168 38.2422V37.2637L32.0586 38.2422H32.7168Z" fill="black"/>
</svg>
