<svg width="16" height="17" viewBox="0 0 16 17" fill="none" xmlns="http://www.w3.org/2000/svg">
<path fill-rule="evenodd" clip-rule="evenodd" d="M7.83945 0.36084C12.1691 0.36084 15.6789 3.51969 15.6789 7.41634C15.6789 11.313 12.1691 14.4718 7.83945 14.4718C7.04706 14.4718 6.28214 14.366 5.56117 14.1693C4.81489 14.8199 4.00346 15.3998 3.13994 15.8996C3.00588 15.9772 2.85282 16.0598 2.68075 16.1473L2.40844 16.2824C2.01867 16.471 1.54978 16.3079 1.36116 15.9181C1.2652 15.7198 1.25709 15.4903 1.33883 15.2857C1.46187 14.9777 1.55977 14.7081 1.63253 14.4767C1.85719 13.7622 2.03207 13.0257 2.15312 12.2712C0.817265 11.0052 0 9.29665 0 7.41634C0 3.51969 3.50984 0.36084 7.83945 0.36084Z" fill="white"/>
<path fill-rule="evenodd" clip-rule="evenodd" d="M7.83945 0.36084C12.1691 0.36084 15.6789 3.51969 15.6789 7.41634C15.6789 11.313 12.1691 14.4718 7.83945 14.4718C7.04706 14.4718 6.28214 14.366 5.56117 14.1693C4.81489 14.8199 4.00346 15.3998 3.13994 15.8996C3.00588 15.9772 2.85282 16.0598 2.68075 16.1473L2.40844 16.2824C2.01867 16.471 1.54978 16.3079 1.36116 15.9181C1.2652 15.7198 1.25709 15.4903 1.33883 15.2857C1.46187 14.9777 1.55977 14.7081 1.63253 14.4767C1.85719 13.7622 2.03207 13.0257 2.15312 12.2712C0.817265 11.0052 0 9.29665 0 7.41634C0 3.51969 3.50984 0.36084 7.83945 0.36084Z" fill="url(#paint0_linear_266_2991)"/>
<defs>
<linearGradient id="paint0_linear_266_2991" x1="0" y1="8.36084" x2="15.6789" y2="8.36084" gradientUnits="userSpaceOnUse">
<stop stop-color="#FFF173"/>
<stop offset="1" stop-color="#FFB800"/>
</linearGradient>
</defs>
</svg>