<svg width="16" height="17" viewBox="0 0 16 17" fill="none" xmlns="http://www.w3.org/2000/svg">
<path fill-rule="evenodd" clip-rule="evenodd" d="M11 15.3608H5C4.448 15.3608 4 14.9128 4 14.3608C4 13.8088 4.448 13.3608 5 13.3608H5.636C5.636 12.6858 6.184 12.1368 6.86 12.1368H7V11.2608C5.373 10.9298 4.033 9.80884 3.397 8.31584C1.475 8.02484 0 6.36384 0 4.36084V4.26084C0 3.21184 0.851 2.36084 1.9 2.36084H3C3 1.25684 3.896 0.36084 5 0.36084H11C12.104 0.36084 13 1.25684 13 2.36084H14.1C15.149 2.36084 16 3.21184 16 4.26084V4.36084C16 6.36384 14.525 8.02484 12.603 8.31584C11.967 9.80884 10.627 10.9298 9 11.2608V12.1368H9.14C9.816 12.1368 10.364 12.6858 10.364 13.3608H11C11.552 13.3608 12 13.8088 12 14.3608C12 14.9128 11.552 15.3608 11 15.3608ZM3.383 4.36084H2.364C2.163 4.36084 2 4.52384 2 4.72484C2 5.52984 2.653 6.18284 3.457 6.18284C3.598 6.18284 3.711 6.06884 3.711 5.92884V4.68984C3.711 4.50784 3.564 4.36084 3.383 4.36084ZM12.286 4.68984C12.286 4.50784 12.433 4.36084 12.614 4.36084H13.633C13.834 4.36084 13.997 4.52384 13.997 4.72484C13.997 5.52984 13.344 6.18284 12.54 6.18284C12.4 6.18284 12.286 6.06884 12.286 5.92884V4.68984Z" fill="white"/>
<path fill-rule="evenodd" clip-rule="evenodd" d="M11 15.3608H5C4.448 15.3608 4 14.9128 4 14.3608C4 13.8088 4.448 13.3608 5 13.3608H5.636C5.636 12.6858 6.184 12.1368 6.86 12.1368H7V11.2608C5.373 10.9298 4.033 9.80884 3.397 8.31584C1.475 8.02484 0 6.36384 0 4.36084V4.26084C0 3.21184 0.851 2.36084 1.9 2.36084H3C3 1.25684 3.896 0.36084 5 0.36084H11C12.104 0.36084 13 1.25684 13 2.36084H14.1C15.149 2.36084 16 3.21184 16 4.26084V4.36084C16 6.36384 14.525 8.02484 12.603 8.31584C11.967 9.80884 10.627 10.9298 9 11.2608V12.1368H9.14C9.816 12.1368 10.364 12.6858 10.364 13.3608H11C11.552 13.3608 12 13.8088 12 14.3608C12 14.9128 11.552 15.3608 11 15.3608ZM3.383 4.36084H2.364C2.163 4.36084 2 4.52384 2 4.72484C2 5.52984 2.653 6.18284 3.457 6.18284C3.598 6.18284 3.711 6.06884 3.711 5.92884V4.68984C3.711 4.50784 3.564 4.36084 3.383 4.36084ZM12.286 4.68984C12.286 4.50784 12.433 4.36084 12.614 4.36084H13.633C13.834 4.36084 13.997 4.52384 13.997 4.72484C13.997 5.52984 13.344 6.18284 12.54 6.18284C12.4 6.18284 12.286 6.06884 12.286 5.92884V4.68984Z" fill="url(#paint0_linear_266_2970)"/>
<defs>
<linearGradient id="paint0_linear_266_2970" x1="0" y1="7.86084" x2="16" y2="7.86084" gradientUnits="userSpaceOnUse">
<stop stop-color="#FFF173"/>
<stop offset="1" stop-color="#FFB800"/>
</linearGradient>
</defs>
</svg>
