<svg width="16" height="17" viewBox="0 0 16 17" fill="none" xmlns="http://www.w3.org/2000/svg">
<path fill-rule="evenodd" clip-rule="evenodd" d="M8.9995 16.3608H6.9965C3.13543 16.3608 0 12.7758 0 8.36084C0 3.94584 3.13543 0.36084 6.9965 0.36084H8.9995C12.8636 0.36084 16 3.94584 16 8.36084C16 12.7758 12.8636 16.3608 8.9995 16.3608ZM6.9965 2.10184C9.89305 2.10184 12.2439 4.90584 12.2439 8.36084C12.2439 11.8158 9.89305 14.6198 6.9965 14.6198C4.09995 14.6198 1.74913 11.8158 1.74913 8.36084C1.74913 4.90584 4.09995 2.10184 6.9965 2.10184ZM8 12.3608H5.999C5.44728 12.3608 4.9995 11.9128 4.9995 11.3608C4.9995 10.8088 5.44728 10.3608 5.999 10.3608V7.60984C5.65717 7.71384 5.26937 7.63084 4.9995 7.36084C4.6097 6.97084 4.6097 6.33684 4.9995 5.94684L6.29185 4.65384C6.4088 4.53684 6.54773 4.45484 6.69565 4.40784L6.69665 4.40684H6.69865C6.7916 4.37784 6.89055 4.36184 6.9925 4.36084H6.9985L7.04848 4.36184L7.06447 4.36284C7.09945 4.36484 7.13243 4.36884 7.16542 4.37484L7.18241 4.37784C7.37431 4.41284 7.55722 4.50484 7.70515 4.65384C7.85407 4.80184 7.94603 4.98484 7.98101 5.17684L7.98401 5.19384C7.99001 5.22684 7.994 5.25984 7.996 5.29484L7.998 5.33084V10.3608H8C8.55172 10.3608 8.9995 10.8088 8.9995 11.3608C8.9995 11.9128 8.55172 12.3608 8 12.3608Z" fill="white"/>
<path fill-rule="evenodd" clip-rule="evenodd" d="M8.9995 16.3608H6.9965C3.13543 16.3608 0 12.7758 0 8.36084C0 3.94584 3.13543 0.36084 6.9965 0.36084H8.9995C12.8636 0.36084 16 3.94584 16 8.36084C16 12.7758 12.8636 16.3608 8.9995 16.3608ZM6.9965 2.10184C9.89305 2.10184 12.2439 4.90584 12.2439 8.36084C12.2439 11.8158 9.89305 14.6198 6.9965 14.6198C4.09995 14.6198 1.74913 11.8158 1.74913 8.36084C1.74913 4.90584 4.09995 2.10184 6.9965 2.10184ZM8 12.3608H5.999C5.44728 12.3608 4.9995 11.9128 4.9995 11.3608C4.9995 10.8088 5.44728 10.3608 5.999 10.3608V7.60984C5.65717 7.71384 5.26937 7.63084 4.9995 7.36084C4.6097 6.97084 4.6097 6.33684 4.9995 5.94684L6.29185 4.65384C6.4088 4.53684 6.54773 4.45484 6.69565 4.40784L6.69665 4.40684H6.69865C6.7916 4.37784 6.89055 4.36184 6.9925 4.36084H6.9985L7.04848 4.36184L7.06447 4.36284C7.09945 4.36484 7.13243 4.36884 7.16542 4.37484L7.18241 4.37784C7.37431 4.41284 7.55722 4.50484 7.70515 4.65384C7.85407 4.80184 7.94603 4.98484 7.98101 5.17684L7.98401 5.19384C7.99001 5.22684 7.994 5.25984 7.996 5.29484L7.998 5.33084V10.3608H8C8.55172 10.3608 8.9995 10.8088 8.9995 11.3608C8.9995 11.9128 8.55172 12.3608 8 12.3608Z" fill="url(#paint0_linear_266_2978)"/>
<defs>
<linearGradient id="paint0_linear_266_2978" x1="0" y1="8.36084" x2="16" y2="8.36084" gradientUnits="userSpaceOnUse">
<stop stop-color="#FFF173"/>
<stop offset="1" stop-color="#FFB800"/>
</linearGradient>
</defs>
</svg>
