<svg width="16" height="16" viewBox="0 0 16 16" fill="none" xmlns="http://www.w3.org/2000/svg">
<path fill-rule="evenodd" clip-rule="evenodd" d="M8 16C12.4183 16 16 12.4183 16 8C16 3.58172 12.4183 0 8 0C3.58172 0 0 3.58172 0 8C0 12.4183 3.58172 16 8 16ZM8.8 4C8.8 3.55817 8.44183 3.2 8 3.2C7.55817 3.2 7.2 3.55817 7.2 4V8C7.2 8.21217 7.28429 8.41566 7.43431 8.56569L9.83431 10.9657C10.1467 11.2781 10.6533 11.2781 10.9657 10.9657C11.2781 10.6533 11.2781 10.1467 10.9657 9.83432L8.8 7.66863V4Z" fill="#232325"/>
</svg>
