<svg width="90" height="40" viewBox="0 0 90 40" fill="none" xmlns="http://www.w3.org/2000/svg">
<path d="M8.89062 14.8145V11.8359H15.7266V17.9395C14.418 18.8314 13.2591 19.4401 12.25 19.7656C11.2474 20.0846 10.056 20.2441 8.67578 20.2441C6.97656 20.2441 5.58984 19.9544 4.51562 19.375C3.44792 18.7956 2.61784 17.9329 2.02539 16.7871C1.43945 15.6413 1.14648 14.3262 1.14648 12.8418C1.14648 11.2793 1.46875 9.92187 2.11328 8.76953C2.75781 7.61068 3.70182 6.73177 4.94531 6.13281C5.91536 5.67057 7.2207 5.43945 8.86133 5.43945C10.4434 5.43945 11.625 5.58268 12.4062 5.86914C13.194 6.1556 13.8451 6.60156 14.3594 7.20703C14.8802 7.80599 15.2708 8.56771 15.5312 9.49219L11.2637 10.2539C11.0879 9.71354 10.7884 9.30013 10.3652 9.01367C9.94857 8.72721 9.41471 8.58398 8.76367 8.58398C7.79362 8.58398 7.01888 8.92253 6.43945 9.59961C5.86654 10.2702 5.58008 11.3346 5.58008 12.793C5.58008 14.3424 5.86979 15.4492 6.44922 16.1133C7.03516 16.7773 7.84896 17.1094 8.89062 17.1094C9.38542 17.1094 9.85742 17.0378 10.3066 16.8945C10.7559 16.7513 11.2702 16.5072 11.8496 16.1621V14.8145H8.89062ZM17.7969 12.8516C17.7969 10.5143 18.4479 8.69466 19.75 7.39258C21.0521 6.09049 22.8652 5.43945 25.1895 5.43945C27.5723 5.43945 29.4082 6.08073 30.6973 7.36328C31.9863 8.63932 32.6309 10.4297 32.6309 12.7344C32.6309 14.4076 32.3477 15.7812 31.7812 16.8555C31.2214 17.9232 30.4076 18.7565 29.3398 19.3555C28.2786 19.9479 26.9538 20.2441 25.3652 20.2441C23.7506 20.2441 22.4128 19.987 21.3516 19.4727C20.2969 18.9583 19.4408 18.1445 18.7832 17.0312C18.1256 15.918 17.7969 14.5247 17.7969 12.8516ZM22.2207 12.8711C22.2207 14.3164 22.4876 15.3548 23.0215 15.9863C23.5618 16.6178 24.2943 16.9336 25.2187 16.9336C26.1693 16.9336 26.9049 16.6243 27.4258 16.0059C27.9466 15.3874 28.207 14.2773 28.207 12.6758C28.207 11.3281 27.9336 10.3451 27.3867 9.72656C26.8464 9.10156 26.1107 8.78906 25.1797 8.78906C24.2878 8.78906 23.5716 9.10482 23.0312 9.73633C22.4909 10.3678 22.2207 11.4128 22.2207 12.8711ZM43.1387 17.6367H38.0996L37.4062 20H32.8848L38.2656 5.68359H43.0898L48.4707 20H43.8418L43.1387 17.6367ZM42.2109 14.541L40.6289 9.39453L39.0566 14.541H42.2109ZM49.8965 5.68359H54.3203V16.4746H61.2246V20H49.8965V5.68359Z" fill="white"/>
<g clip-path="url(#clip0_2244_3218)">
<path fill-rule="evenodd" clip-rule="evenodd" d="M0.0537109 34.0132V33.2268H2.10753V34.142C2.10753 34.9796 2.42781 35.3987 3.06791 35.3987H3.07603C3.71026 35.3987 4.02783 34.981 4.02783 34.1461C4.02783 33.669 3.89115 33.2218 3.61689 32.8041C3.34307 32.3864 3.01558 32.0046 2.63441 31.6585L1.60502 30.5851C1.17964 30.2096 0.823725 29.7443 0.537282 29.1896C0.250387 28.6345 0.10694 28.02 0.10694 27.3461C0.10694 26.3089 0.377595 25.5134 0.918905 24.9588C1.45976 24.4041 2.19504 24.127 3.12384 24.127C4.05264 24.127 4.76582 24.4041 5.26382 24.9583C5.76183 25.5125 6.01083 26.308 6.01083 27.3447V27.7561H4.1167V27.22C4.1167 26.3796 3.78199 25.9592 3.11212 25.9592C2.44224 25.9592 2.10753 26.3801 2.10753 27.2209C2.10753 27.5728 2.18061 27.9084 2.32631 28.2277C2.47202 28.547 2.66102 28.8345 2.89334 29.0912C3.12565 29.3474 3.38187 29.601 3.66155 29.8513C3.94122 30.1021 4.21774 30.3647 4.4902 30.639C4.76266 30.9134 5.01482 31.2068 5.24623 31.5202C5.47719 31.8332 5.6653 32.2032 5.81055 32.6295C5.9558 33.0563 6.02843 33.5198 6.02843 34.0209C6.02843 35.0554 5.77356 35.849 5.26382 36.4019C4.75409 36.9547 4.0346 37.2313 3.10535 37.2313C2.1761 37.2313 1.43495 36.9542 0.882367 36.4C0.329779 35.8459 0.0537109 35.0499 0.0537109 34.0132Z" fill="white"/>
<path fill-rule="evenodd" clip-rule="evenodd" d="M9.16759 30.4467H10.1189C10.4446 30.4467 10.6891 30.3541 10.8524 30.1696C11.0153 29.985 11.0969 29.6721 11.0969 29.2308V27.3093C11.0969 26.868 11.0153 26.5569 10.8524 26.375C10.6891 26.1932 10.4446 26.1024 10.1189 26.1024H9.16759V30.4467ZM7.16699 37.0879V24.2702H10.1144C12.1028 24.2702 13.0975 25.3292 13.0975 27.4467V29.1115C13.0975 31.2231 12.1037 32.2793 10.1167 32.2793H9.16759V37.0879H7.16699Z" fill="white"/>
<path fill-rule="evenodd" clip-rule="evenodd" d="M16.0309 30.0444H16.8131C17.2163 30.0444 17.5172 29.9401 17.7157 29.7315C17.9142 29.5229 18.0134 29.1746 18.0134 28.6857V27.4254C18.0193 26.5438 17.6814 26.1025 16.9998 26.1025H16.0309V30.0444ZM14.0303 37.088V24.2698H17.049C18.0784 24.2698 18.8303 24.5116 19.3035 24.9946C19.7772 25.4776 20.014 26.22 20.014 27.2218V28.2322C20.014 29.5501 19.5774 30.4177 18.704 30.8349C19.5891 31.2109 20.0316 32.1202 20.0316 33.5633V35.5356V35.6159C20.0316 36.2703 20.1029 36.761 20.245 37.088H18.2169C18.0991 36.7252 18.0373 36.2018 18.0315 35.5175V33.5097C18.0315 32.927 17.9291 32.5088 17.7247 32.2562C17.5199 32.0032 17.1866 31.8771 16.7242 31.8771H16.0309V37.088H14.0303Z" fill="white"/>
<path fill-rule="evenodd" clip-rule="evenodd" d="M21.3477 37.0881H23.3482V24.2699H21.3477V37.0881Z" fill="white"/>
<path fill-rule="evenodd" clip-rule="evenodd" d="M26.8072 35.2557H27.9544C28.304 35.2557 28.5647 35.1618 28.7366 34.9741C28.9084 34.7863 28.9946 34.4602 28.9946 33.9954V32.8779C28.9946 32.2938 28.8953 31.8888 28.6964 31.6625C28.4979 31.4357 28.1677 31.3228 27.7054 31.3228H26.8072V35.2557ZM26.8072 29.4902H27.593C27.9977 29.4902 28.2999 29.3858 28.4993 29.1772C28.6991 28.9686 28.7988 28.623 28.7988 28.1405V27.4253C28.8047 26.5437 28.4654 26.1024 27.7807 26.1024H26.8072V29.4902ZM24.8066 37.0883V24.2702H27.8299C28.8611 24.2702 29.6139 24.5115 30.088 24.994C30.5621 25.4766 30.7994 26.2185 30.7994 27.2199V27.6756C30.7994 28.9927 30.3668 29.8539 29.5012 30.2589C30.4972 30.6521 30.9947 31.5673 30.9947 33.0031V34.0489C30.9947 35.038 30.7371 35.7922 30.2216 36.3106C29.7055 36.8289 28.9499 37.0883 27.9544 37.0883H24.8066Z" fill="white"/>
<path fill-rule="evenodd" clip-rule="evenodd" d="M32.1953 37.0881V24.27H37.6544V26.1026H34.1959V29.6691H36.9431V31.5013H34.1959V35.2555H37.6544V37.0881H32.1953Z" fill="white"/>
<path fill-rule="evenodd" clip-rule="evenodd" d="M0 39.698H37.682V37.9185H0V39.698Z" fill="white"/>
</g>
<g clip-path="url(#clip1_2244_3218)">
<path d="M66 12C66 13.4678 66.264 14.8739 66.7464 16.1739L78 17.2174L89.2536 16.1739C89.736 14.8739 90 13.4678 90 12C90 10.5322 89.736 9.12609 89.2536 7.82611L78 6.78263L66.7464 7.82611C66.264 9.12609 66 10.5322 66 12Z" fill="#FFDA44"/>
<path d="M89.2533 7.82611C87.5578 3.25655 83.1593 0 77.9997 0C72.8401 0 68.4416 3.25655 66.7461 7.82611H89.2533Z" fill="#D80027"/>
<path d="M66.7461 16.1739C68.4416 20.7435 72.8401 24 77.9997 24C83.1593 24 87.5578 20.7435 89.2533 16.1739H66.7461Z" fill="#D80027"/>
</g>
<rect x="67" y="1" width="22" height="22" rx="11" stroke="white" stroke-width="2"/>
<defs>
<clipPath id="clip0_2244_3218">
<rect width="38" height="16" fill="white" transform="translate(0 24)"/>
</clipPath>
<clipPath id="clip1_2244_3218">
<rect x="66" width="24" height="24" rx="12" fill="white"/>
</clipPath>
</defs>
</svg>
