<svg width="48" height="49" viewBox="0 0 48 49" fill="none" xmlns="http://www.w3.org/2000/svg">
<path fill-rule="evenodd" clip-rule="evenodd" d="M37 38.7329H11C9.344 38.7329 8 37.3889 8 35.7329C8 35.1609 8.16 34.6269 8.438 34.1729L21.804 12.0209C22.236 11.2529 23.058 10.7329 24 10.7329C25.04 10.7329 25.932 11.3649 26.316 12.2649L39.552 34.1549C39.836 34.6129 40 35.1549 40 35.7329C40 37.3889 38.656 38.7329 37 38.7329ZM26 32.7329C26 31.6289 25.104 30.7329 24 30.7329C22.896 30.7329 22 31.6289 22 32.7329C22 33.8369 22.896 34.7329 24 34.7329C25.104 34.7329 26 33.8369 26 32.7329ZM26 20.7329C26 19.6289 25.104 18.7329 24 18.7329C22.896 18.7329 22 19.6289 22 20.7329V26.7329C22 27.8369 22.896 28.7329 24 28.7329C25.104 28.7329 26 27.8369 26 26.7329V20.7329Z" fill="url(#paint0_linear_597_3954)"/>
<defs>
<linearGradient id="paint0_linear_597_3954" x1="8" y1="24.7329" x2="40" y2="24.7329" gradientUnits="userSpaceOnUse">
<stop stop-color="#FFF173"/>
<stop offset="1" stop-color="#FFB800"/>
</linearGradient>
</defs>
</svg>
