<svg width="101" height="101" viewBox="0 0 101 101" fill="none" xmlns="http://www.w3.org/2000/svg">
<path fill-rule="evenodd" clip-rule="evenodd" d="M14.638 27.6287L35.7485 13.8483C37.7421 12.547 38.4441 12.1605 39.2797 11.8062C40.1154 11.4518 40.9219 11.2357 41.8228 11.1247C42.7237 11.0138 43.5248 10.9975 45.902 11.1277L71.0745 12.5066C72.5816 12.5892 73.8576 13.6129 74.2421 15.048C77.0054 25.3607 79.7687 35.6735 82.532 45.9862C86.5158 60.8538 80.2534 74.6602 63.7447 87.4054L63.7448 87.4054C62.2382 88.5686 60.3214 89.0821 58.4352 88.8281C37.7657 86.0448 25.439 77.2193 21.4553 62.3517C18.692 52.0389 15.9287 41.7262 13.1654 31.4134C12.7808 29.9783 13.374 28.4538 14.638 27.6287Z" fill="url(#paint0_linear_554_2698)"/>
<path fill-rule="evenodd" clip-rule="evenodd" d="M17.5779 28.9808L36.8372 16.2648C38.656 15.0639 39.2967 14.7078 40.0598 14.382C40.823 14.0562 41.5601 13.8586 42.3839 13.7593C43.2077 13.6599 43.9406 13.6479 46.1161 13.7785L69.1532 15.1613C70.5325 15.244 71.7041 16.2002 72.0618 17.5349C74.6318 27.1262 77.2017 36.7175 79.7717 46.3087C83.4768 60.1362 77.8028 72.9365 62.7498 84.7095L62.7498 84.7095C61.3761 85.7839 59.6244 86.2532 57.8976 86.0096C38.9748 83.3404 27.6608 75.0921 23.9558 61.2646C21.3858 51.6733 18.8158 42.082 16.2458 32.4907C15.8882 31.156 16.4248 29.7422 17.5779 28.9808Z" fill="url(#paint1_linear_554_2698)"/>
<path fill-rule="evenodd" clip-rule="evenodd" d="M63.7876 32.8767C62.0301 31.8595 59.9518 32.4163 58.9384 34.176L48.8037 51.773L40.016 46.687C38.2585 45.6698 36.1802 46.2266 35.1668 47.9863C34.1533 49.746 34.7114 51.8287 36.4689 52.8459L48.3323 59.7121C49.211 60.2207 49.9968 60.3822 51.0359 60.1038C52.0751 59.8253 52.6748 59.2926 53.1815 58.4127L65.0898 37.7363C66.1032 35.9766 65.5452 33.8939 63.7876 32.8767Z" fill="url(#paint2_linear_554_2698)"/>
<defs>
<linearGradient id="paint0_linear_554_2698" x1="12.1257" y1="21.249" x2="98.3985" y2="58.444" gradientUnits="userSpaceOnUse">
<stop stop-color="#F5F5F5"/>
<stop offset="1" stop-color="#B4B4B4"/>
</linearGradient>
<linearGradient id="paint1_linear_554_2698" x1="13.2911" y1="21.4636" x2="97.7918" y2="53.5391" gradientUnits="userSpaceOnUse">
<stop stop-color="#A5EF5B"/>
<stop offset="1" stop-color="#008E4A"/>
</linearGradient>
<linearGradient id="paint2_linear_554_2698" x1="32.9963" y1="40.6927" x2="61.6433" y2="64.2757" gradientUnits="userSpaceOnUse">
<stop stop-color="white"/>
<stop offset="1" stop-color="#D5CDCD"/>
</linearGradient>
</defs>
</svg>
