<svg width="58" height="24" viewBox="0 0 58 24" fill="none" xmlns="http://www.w3.org/2000/svg">
<path fill-rule="evenodd" clip-rule="evenodd" d="M0.0820312 14.8293V13.6497H3.19519V15.0224C3.19519 16.2789 3.68066 16.9075 4.65092 16.9075H4.66323C5.6246 16.9075 6.10596 16.281 6.10596 15.0286C6.10596 14.3129 5.89878 13.6422 5.48306 13.0156C5.06801 12.3891 4.5716 11.8163 3.99383 11.2973L2.43348 9.68708C1.7887 9.12381 1.24921 8.42585 0.815023 7.59388C0.380151 6.76122 0.162715 5.83946 0.162715 4.82857C0.162715 3.27279 0.572971 2.07959 1.39348 1.24762C2.21331 0.415646 3.32784 0 4.73571 0C6.14357 0 7.22459 0.415646 7.97947 1.24694C8.73434 2.07823 9.11177 3.27143 9.11177 4.82653V5.44354H6.24066V4.63946C6.24066 3.37891 5.73331 2.7483 4.71793 2.7483C3.70254 2.7483 3.19519 3.37959 3.19519 4.64082C3.19519 5.16871 3.30596 5.67211 3.52682 6.15102C3.74767 6.62993 4.03417 7.06122 4.3863 7.44626C4.73844 7.83061 5.12682 8.21088 5.55075 8.58639C5.97468 8.96259 6.39383 9.35646 6.80682 9.76803C7.21981 10.1796 7.60203 10.6197 7.9528 11.0898C8.30289 11.5592 8.58801 12.1143 8.80818 12.7537C9.02836 13.3939 9.13844 14.0891 9.13844 14.8408C9.13844 16.3925 8.75212 17.583 7.97947 18.4122C7.20682 19.2415 6.11622 19.6565 4.70767 19.6565C3.29912 19.6565 2.17571 19.2408 1.3381 18.4095C0.500493 17.5782 0.0820312 16.3844 0.0820312 14.8293Z" fill="white"/>
<path fill-rule="evenodd" clip-rule="evenodd" d="M13.8958 9.47947H15.3378C15.8315 9.47947 16.2021 9.34069 16.4496 9.06382C16.6964 8.78695 16.8202 8.31756 16.8202 7.65566V4.77335C16.8202 4.11144 16.6964 3.64478 16.4496 3.37199C16.2021 3.0992 15.8315 2.96314 15.3378 2.96314H13.8958V9.47947ZM10.8633 19.4414V0.214844H15.331C18.345 0.214844 19.8527 1.80328 19.8527 4.97947V7.47675C19.8527 10.6441 18.3464 12.2284 15.3344 12.2284H13.8958V19.4414H10.8633Z" fill="white"/>
<path fill-rule="evenodd" clip-rule="evenodd" d="M24.2996 8.87626H25.4852C26.0965 8.87626 26.5526 8.7198 26.8534 8.40687C27.1543 8.09395 27.3047 7.5715 27.3047 6.83817V4.94769C27.3136 3.62524 26.8014 2.96334 25.7683 2.96334H24.2996V8.87626ZM21.2671 19.4416V0.214355H25.8428C27.4032 0.214355 28.543 0.576941 29.2603 1.30143C29.9782 2.02592 30.3372 3.13953 30.3372 4.64225V6.15789C30.3372 8.13476 29.6753 9.43612 28.3515 10.062C29.6931 10.6259 30.3638 11.9899 30.3638 14.1545V17.113V17.2334C30.3638 18.215 30.4719 18.9511 30.6873 19.4416H27.6131C27.4346 18.8973 27.3409 18.1123 27.332 17.0858V14.0742C27.332 13.2001 27.1768 12.5729 26.8671 12.1939C26.5567 11.8144 26.0514 11.6252 25.3505 11.6252H24.2996V19.4416H21.2671Z" fill="white"/>
<path fill-rule="evenodd" clip-rule="evenodd" d="M32.3589 19.4416H35.3914V0.214355H32.3589V19.4416Z" fill="white"/>
<path fill-rule="evenodd" clip-rule="evenodd" d="M40.6336 16.6931H42.3724C42.9023 16.6931 43.2975 16.5523 43.558 16.2706C43.8185 15.989 43.9491 15.4999 43.9491 14.8026V13.1264C43.9491 12.2502 43.7987 11.6427 43.4971 11.3033C43.1963 10.9631 42.6958 10.7938 41.9949 10.7938H40.6336V16.6931ZM40.6336 8.04478H41.8247C42.438 8.04478 42.8961 7.88831 43.1983 7.57539C43.5012 7.26246 43.6524 6.7441 43.6524 6.02029V4.9475C43.6612 3.62505 43.1471 2.96314 42.1091 2.96314H40.6336V8.04478ZM37.6011 19.4421V0.214844H42.1836C43.7467 0.214844 44.8879 0.576749 45.6065 1.30056C46.3252 2.02437 46.6848 3.13729 46.6848 4.63933V5.32301C46.6848 7.29852 46.0291 8.59035 44.717 9.19784C46.2267 9.78763 46.9809 11.1604 46.9809 13.3142V14.8829C46.9809 16.3665 46.5905 17.4978 45.8089 18.2754C45.0267 19.0529 43.8814 19.4421 42.3724 19.4421H37.6011Z" fill="white"/>
<path fill-rule="evenodd" clip-rule="evenodd" d="M48.8008 19.4416V0.214355H57.0757V2.96334H51.8333V8.31299H55.9974V11.0613H51.8333V16.6926H57.0757V19.4416H48.8008Z" fill="white"/>
<path fill-rule="evenodd" clip-rule="evenodd" d="M0 23.3564H57.118V20.687H0V23.3564Z" fill="white"/>
</svg>
