<svg width="53" height="24" viewBox="0 0 53 24" fill="none" xmlns="http://www.w3.org/2000/svg">
<mask id="mask0_82_3290" style="mask-type:luminance" maskUnits="userSpaceOnUse" x="0" y="0" width="53" height="24">
<path d="M52.48 0H0V24H52.48V0Z" fill="white"/>
</mask>
<g mask="url(#mask0_82_3290)">
<path d="M9.61493 9.65678C9.87935 8.3859 9.40191 7.47499 8.54988 6.87995C7.77132 6.35838 6.78706 6.28491 5.74405 6.79915L1.41043 8.75323C0.323352 9.24542 -0.146735 10.5163 0.323352 11.5815C0.815476 12.6687 2.06415 13.1389 3.15122 12.6687L3.72415 12.4042L2.79131 17.4731C2.52689 19.0011 3.51848 20.2499 4.86997 20.5144C6.30229 20.7789 7.69784 19.8385 7.93289 18.4061L9.61493 9.65678Z" fill="url(#paint0_linear_82_3290)"/>
<path d="M49.0361 6.50531C46.6489 6.16006 44.24 7.5558 43.3216 9.52457L43.4758 8.66508C43.8653 6.92406 43.1382 6.46124 41.8966 6.46124H40.2883C38.7603 6.46124 38.415 7.29135 38.2317 8.25369L36.3584 18.6411C36.2041 19.3464 36.3072 20.5658 37.6806 20.5658H39.9136C41.2358 20.5658 41.4928 19.53 41.6765 18.5383L42.5798 13.5503C42.7929 12.4116 42.9693 11.8607 43.3584 11.4419C43.9533 10.7661 45.1507 10.4575 45.9808 11.1334C46.4726 11.5448 46.6563 12.25 46.5241 13.2417L45.6208 18.6411C45.4224 19.8386 45.9293 20.5658 46.9209 20.5658H49.1536C50.4243 20.5658 50.6816 19.5814 50.8653 18.5383L52.1725 11.7725C52.7821 9.33356 51.9229 6.92406 49.0361 6.50531Z" fill="url(#paint1_linear_82_3290)"/>
<path d="M34.7206 5.10959C36.1405 5.10959 37.2915 3.96831 37.2915 2.56046C37.2915 1.15263 36.1405 0.0113525 34.7206 0.0113525C33.3008 0.0113525 32.1497 1.15263 32.1497 2.56046C32.1497 3.96831 33.3008 5.10959 34.7206 5.10959Z" fill="url(#paint2_linear_82_3290)"/>
<path d="M34.8822 18.5236C34.6986 19.6108 34.3901 20.5511 33.1194 20.5511H30.8644C29.7773 20.5511 29.3807 19.743 29.5937 18.6779L31.4446 8.23898C31.6283 7.12237 32.1203 6.44653 33.5014 6.44653H35.2128C36.6669 6.44653 37.0269 7.15175 36.7184 8.65037L34.8822 18.5236Z" fill="url(#paint3_linear_82_3290)"/>
<path d="M10.0703 6.44653C10.6432 7.12237 11.319 7.95249 10.9738 9.98001L10.0924 14.7403L10.2466 18.5603C10.276 19.9414 10.9517 20.5364 12.0902 20.5364H14.9989C15.9023 20.5364 16.299 19.8312 16.6589 18.957L18.8624 13.5282L19.0975 18.7219C19.1269 19.8606 19.6924 20.5658 20.7575 20.5658H24.0554C24.9883 20.5658 25.3775 19.9928 25.7962 18.9864L30.027 8.59895C30.4898 7.53377 30.2106 6.46855 29.0648 6.46855H26.9567C26.1782 6.46855 25.6346 6.73303 25.3188 7.48234L22.4615 14.4318L22.1971 8.22429C22.1457 6.90199 21.5214 6.46122 20.7648 6.46122H18.6127C17.7533 6.46122 17.2612 6.79914 17.0041 7.44561L14.1469 14.4612L13.8824 8.07002C13.8531 6.87261 13.4417 6.46122 12.4795 6.46122H10.6432H10.0703V6.44653Z" fill="url(#paint4_linear_82_3290)"/>
</g>
<defs>
<linearGradient id="paint0_linear_82_3290" x1="4.91986" y1="20.9174" x2="4.91986" y2="6.13098" gradientUnits="userSpaceOnUse">
<stop stop-color="#C8C7C7"/>
<stop offset="0.0762789" stop-color="#D6D5D5"/>
<stop offset="0.216" stop-color="#E8E8E8"/>
<stop offset="0.3802" stop-color="#F5F5F5"/>
<stop offset="0.5898" stop-color="#FDFDFD"/>
<stop offset="1" stop-color="white"/>
</linearGradient>
<linearGradient id="paint1_linear_82_3290" x1="44.3385" y1="20.9253" x2="44.3385" y2="6.09699" gradientUnits="userSpaceOnUse">
<stop stop-color="#C8C7C7"/>
<stop offset="0.0762789" stop-color="#D6D5D5"/>
<stop offset="0.216" stop-color="#E8E8E8"/>
<stop offset="0.3802" stop-color="#F5F5F5"/>
<stop offset="0.5898" stop-color="#FDFDFD"/>
<stop offset="1" stop-color="white"/>
</linearGradient>
<linearGradient id="paint2_linear_82_3290" x1="34.7234" y1="5.23912" x2="34.7234" y2="-0.103547" gradientUnits="userSpaceOnUse">
<stop stop-color="#C8C7C7"/>
<stop offset="0.0762789" stop-color="#D6D5D5"/>
<stop offset="0.216" stop-color="#E8E8E8"/>
<stop offset="0.3802" stop-color="#F5F5F5"/>
<stop offset="0.5898" stop-color="#FDFDFD"/>
<stop offset="1" stop-color="white"/>
</linearGradient>
<linearGradient id="paint3_linear_82_3290" x1="20.1659" y1="20.9245" x2="20.1659" y2="6.12833" gradientUnits="userSpaceOnUse">
<stop stop-color="#C8C7C7"/>
<stop offset="0.0762789" stop-color="#D6D5D5"/>
<stop offset="0.216" stop-color="#E8E8E8"/>
<stop offset="0.3802" stop-color="#F5F5F5"/>
<stop offset="0.5898" stop-color="#FDFDFD"/>
<stop offset="1" stop-color="white"/>
</linearGradient>
<linearGradient id="paint4_linear_82_3290" x1="20.1659" y1="20.9245" x2="20.1659" y2="6.12833" gradientUnits="userSpaceOnUse">
<stop stop-color="#C8C7C7"/>
<stop offset="0.0762789" stop-color="#D6D5D5"/>
<stop offset="0.216" stop-color="#E8E8E8"/>
<stop offset="0.3802" stop-color="#F5F5F5"/>
<stop offset="0.5898" stop-color="#FDFDFD"/>
<stop offset="1" stop-color="white"/>
</linearGradient>
</defs>
</svg>
