<svg width="100" height="24" viewBox="0 0 100 24" fill="none" xmlns="http://www.w3.org/2000/svg">
<g clip-path="url(#clip0_82_3307)">
<path d="M19.015 5.58679L16.6023 17.494H12.5339L14.4245 8.13536H14.32L10.0689 17.494H6.26697L5.9014 8.13536H5.78128L3.8803 17.494H0L2.41278 5.58679H9.16545L9.40046 12.0992H9.48402L12.278 5.58679H19.015Z" fill="white"/>
<path d="M47.7648 5.79041L47.1381 8.86645C46.0133 8.46288 44.8287 8.25103 43.6338 8.23975C43.1997 8.22745 42.7659 8.27311 42.3439 8.37554C41.846 8.51132 41.597 8.76026 41.597 9.12235C41.597 9.48444 41.9452 9.72294 42.6415 9.83783L43.78 10.0415C44.4938 10.1532 45.1807 10.3957 45.8064 10.757C46.1817 10.9765 46.4909 11.2932 46.7013 11.6738C46.9118 12.0543 47.0158 12.4845 47.0023 12.9191C46.998 13.5286 46.8589 14.1296 46.595 14.6791C46.3551 15.2172 46.0148 15.7046 45.5922 16.1152C44.8054 16.7979 43.8493 17.2561 42.8243 17.4418C41.9972 17.6191 41.153 17.7049 40.3071 17.6977C39.4339 17.7057 38.5613 17.6516 37.6958 17.5358C36.9553 17.4265 36.2227 17.2695 35.5024 17.0657L36.1291 14.0367C36.78 14.3144 37.4595 14.5193 38.1554 14.6477C38.7891 14.7684 39.4323 14.8313 40.0773 14.8357C40.6938 14.8774 41.3114 14.7718 41.8791 14.5276C41.9985 14.4713 42.0999 14.3829 42.1718 14.2722C42.2438 14.1615 42.2835 14.0329 42.2864 13.9009C42.2893 13.7978 42.2615 13.6962 42.2067 13.6088C42.1519 13.5214 42.0724 13.4523 41.9783 13.41C41.7668 13.3142 41.5439 13.2458 41.315 13.2063L39.9885 12.8825C38.7316 12.5657 37.9065 12.1827 37.5131 11.7336C37.1082 11.245 36.8996 10.6232 36.9281 9.98928C36.9216 9.38552 37.055 8.78845 37.3177 8.24482C37.5805 7.7012 37.9655 7.22578 38.4427 6.8558C39.6229 5.87397 41.3185 5.38306 43.5294 5.38306C44.1978 5.38306 44.8942 5.41439 45.6183 5.47706C46.346 5.54187 47.0695 5.64647 47.7857 5.79041" fill="white"/>
<path d="M61.7453 5.58679L61.0299 9.10674H57.0138L55.3113 17.494H50.7573L52.4598 9.10674H48.4437L49.1592 5.58679H61.7453Z" fill="white"/>
<path d="M69.1769 8.98663C69.1865 8.77701 69.1197 8.57104 68.9889 8.40693C68.8299 8.25493 68.6394 8.13968 68.431 8.0693C68.2225 7.99891 68.0012 7.97512 67.7825 7.99958H66.6075L66.1322 10.2975H67.2028C67.7165 10.3279 68.2261 10.1904 68.6547 9.90578C68.8099 9.80656 68.9385 9.67099 69.0295 9.51083C69.1205 9.35067 69.1711 9.17074 69.1769 8.98663ZM68.2943 13.6869C68.2971 13.5037 68.2502 13.3232 68.1585 13.1646C68.0466 12.9584 67.8596 12.8032 67.6363 12.7311C67.3795 12.6613 67.1138 12.6296 66.8477 12.6371H65.6413L65.1504 15.0708H66.3255C66.889 15.1157 67.4486 14.946 67.8922 14.5956C68.0248 14.4819 68.1312 14.3409 68.2043 14.1823C68.2773 14.0236 68.3151 13.8511 68.3152 13.6764L68.2943 13.6869ZM73.6839 8.25548C73.6827 9.01607 73.3826 9.74571 72.8483 10.287C72.2935 10.8816 71.5603 11.2794 70.7593 11.4203V11.4882C71.0697 11.4763 71.3786 11.5361 71.662 11.6629C71.9455 11.7897 72.196 11.9801 72.394 12.2193C72.7412 12.6326 72.9267 13.1577 72.9162 13.6973C72.9138 14.1838 72.8029 14.6637 72.5915 15.1019C72.38 15.5401 72.0735 15.9255 71.6942 16.2302C70.6087 17.1146 69.2329 17.5633 67.8348 17.4888H60.3666L62.7794 5.58157H70.164C71.16 5.50842 72.1464 5.81853 72.9214 6.4485C73.1732 6.67539 73.3734 6.95362 73.5085 7.26442C73.6437 7.57523 73.7106 7.9114 73.7048 8.25026" fill="white"/>
<path d="M86.338 5.58677L85.7792 8.39124H79.9457L79.5906 10.1094H85.1682L84.6459 12.8303H79.0422L78.6662 14.6843H84.6041L84.0244 17.4888H73.6369L76.0497 5.58154H86.338" fill="white"/>
<path d="M100 5.58679L99.2845 9.10674H95.2684L93.5659 17.494H89.0067L90.7092 9.10674H86.6931L87.4086 5.58679H99.9948" fill="white"/>
<path d="M27.2613 4.16626C25.712 4.16626 24.1974 4.6257 22.9092 5.48648C21.6209 6.34726 20.6168 7.57072 20.0239 9.00214C19.431 10.4336 19.2759 12.0087 19.5781 13.5283C19.8804 15.0479 20.6265 16.4437 21.7221 17.5392C22.8176 18.6348 24.2135 19.3809 25.733 19.6832C27.2526 19.9854 28.8277 19.8303 30.2592 19.2374C31.6906 18.6445 32.914 17.6404 33.7748 16.3522C34.6356 15.0639 35.095 13.5493 35.095 12C35.095 10.9712 34.8924 9.95257 34.4987 9.00214C34.1051 8.05171 33.528 7.18813 32.8006 6.4607C32.0732 5.73327 31.2096 5.15625 30.2592 4.76257C29.3087 4.36888 28.2901 4.16626 27.2613 4.16626Z" fill="white"/>
<path d="M30.9902 17.2225L27.2613 15.1335L23.5273 17.2225L24.389 13.0445L21.2189 10.1512L25.4857 9.67075L27.2613 5.733L29.037 9.63942L33.3037 10.1199L30.1285 13.0445L30.9902 17.2225ZM27.2613 4.16626C25.712 4.16626 24.1974 4.6257 22.9092 5.48648C21.6209 6.34726 20.6168 7.57072 20.0239 9.00214C19.431 10.4336 19.2759 12.0087 19.5781 13.5283C19.8804 15.0479 20.6265 16.4437 21.7221 17.5392C22.8176 18.6348 24.2135 19.3809 25.733 19.6832C27.2526 19.9854 28.8277 19.8303 30.2592 19.2374C31.6906 18.6445 32.914 17.6404 33.7748 16.3522C34.6356 15.0639 35.095 13.5493 35.095 12C35.095 10.9712 34.8924 9.95257 34.4987 9.00214C34.1051 8.05171 33.528 7.18813 32.8006 6.4607C32.0732 5.73327 31.2096 5.15625 30.2592 4.76257C29.3087 4.36888 28.2901 4.16626 27.2613 4.16626Z" fill="#F14624"/>
</g>
<defs>
<clipPath id="clip0_82_3307">
<rect width="100" height="15.6674" fill="white" transform="translate(0 4.16626)"/>
</clipPath>
</defs>
</svg>
