<svg width="205" height="40" viewBox="0 0 205 40" fill="none" xmlns="http://www.w3.org/2000/svg">
<g clip-path="url(#clip0_2624_2134)">
<path d="M0 6C0 2.68629 2.68629 0 6 0H184.276C195.322 0 204.276 8.95431 204.276 20V20C204.276 31.0457 195.322 40 184.276 40H6C2.68629 40 0 37.3137 0 34V6Z" fill="#58FD8E"/>
<path d="M188 6.63393V33.3661C188 34.3257 187.573 35.1944 186.877 35.836C186.109 36.5514 185.012 37 183.804 37H7.19589C4.88454 37 3 35.3704 3 33.3661V6.63393C3 5.25985 3.88646 4.06179 5.19316 3.44289C5.78413 3.15898 6.46703 3 7.18932 3H183.798C186.109 3 187.993 4.62959 187.993 6.63393H188Z" fill="url(#paint0_linear_2624_2134)"/>
<g opacity="0.25">
<path d="M26.4295 37.1404H17.2077L3 22.1182V12.3744L26.4295 37.1404Z" fill="white"/>
<path d="M46.1385 37.1404H36.9167L4.91797 3.30616C5.43315 3.01992 6.02848 2.85962 6.65815 2.85962H13.7105L46.1385 37.1404Z" fill="white"/>
<path d="M65.853 37.1404H56.6311L24.2031 2.85962H33.4249L65.853 37.1404Z" fill="white"/>
<path d="M85.56 37.1404H76.3382L43.9102 2.85962H53.132L85.56 37.1404Z" fill="white"/>
<path d="M105.275 37.1404H96.053L63.625 2.85962H72.8468L105.275 37.1404Z" fill="white"/>
<path d="M124.986 37.1404H115.764L83.3359 2.85962H92.5577L124.986 37.1404Z" fill="white"/>
<path d="M144.701 37.1404H135.479L103.051 2.85962H112.273L144.701 37.1404Z" fill="white"/>
<path d="M163.297 35.9668C162.627 36.6882 161.671 37.1404 160.618 37.1404H155.186L122.758 2.85962H131.98L163.297 35.9668Z" fill="white"/>
<path d="M164.276 16.1643V25.9081L142.473 2.85962H151.694L164.276 16.1643Z" fill="white"/>
</g>
<path d="M18.8251 30.4538V15.2542H13.3984V12.157H27.9381V15.2542H22.5229V30.4538H18.8308H18.8251Z" fill="#002D09"/>
<path d="M30.3125 30.4538V12.157H43.879V15.2542H34.0104V19.3074H43.1921V22.3874H34.0104V27.3681H44.2282V30.4481H30.3125V30.4538Z" fill="#002D09"/>
<path d="M47.3594 30.4538V12.157H60.9259V15.2542H51.0573V19.3074H60.239V22.3874H51.0573V27.3681H61.2751V30.4481H47.3594V30.4538Z" fill="#002D09"/>
<path d="M64.4492 30.4538V12.157H68.0441L75.5314 24.374V12.157H78.9603V30.4538H75.2566L67.8838 18.5231V30.4538H64.4492Z" fill="#002D09"/>
<path d="M89.9648 30.4538V12.157H95.8952C98.1391 12.157 99.6045 12.2486 100.286 12.4318C101.333 12.7066 102.209 13.302 102.919 14.2237C103.629 15.1454 103.978 16.3304 103.978 17.7846C103.978 18.9067 103.772 19.8513 103.365 20.6184C102.959 21.3855 102.438 21.9867 101.814 22.4218C101.19 22.8569 100.549 23.1488 99.8965 23.2862C99.0149 23.4637 97.7384 23.5496 96.0669 23.5496H93.657V30.4538H89.9648ZM93.657 15.2542V20.4467H95.6777C97.1316 20.4467 98.1048 20.3493 98.5971 20.1604C99.0893 19.9715 99.4729 19.6681 99.7534 19.2616C100.034 18.8551 100.171 18.38 100.171 17.8361C100.171 17.172 99.9766 16.6224 99.5816 16.1873C99.1924 15.758 98.6944 15.4832 98.099 15.3744C97.6583 15.2942 96.771 15.2484 95.443 15.2484H93.657V15.2542Z" fill="#002D09"/>
<path d="M121.612 30.4538H117.593L115.996 26.2975H108.686L107.175 30.4538H103.254L110.381 12.157H114.285L121.612 30.4538ZM114.811 23.2118L112.293 16.422L109.82 23.2118H114.811Z" fill="#002D09"/>
<path d="M125.794 30.4538V15.2542H120.367V12.157H134.907V15.2542H129.492V30.4538H125.8H125.794Z" fill="#002D09"/>
<path d="M141.403 30.4538V15.2542H135.977V12.157H150.516V15.2542H145.101V30.4538H141.409H141.403Z" fill="#002D09"/>
<path d="M152.785 30.4538V12.157H156.477V30.4538H152.785Z" fill="#002D09"/>
<path d="M17.5204 29.1485V13.9489H12.0938V10.8517H26.6334V13.9489H21.2182V29.1485H17.5261H17.5204Z" fill="white"/>
<path d="M29.0156 29.1485V10.8517H42.5822V13.9489H32.7135V18.0021H41.8952V21.0821H32.7135V26.0628H42.9313V29.1428H29.0156V29.1485Z" fill="white"/>
<path d="M46.0625 29.1485V10.8517H59.629V13.9489H49.7604V18.0021H58.9421V21.0821H49.7604V26.0628H59.9782V29.1428H46.0625V29.1485Z" fill="white"/>
<path d="M63.1445 29.1485V10.8517H66.7394L74.2267 23.0687V10.8517H77.6556V29.1485H73.952L66.5791 17.2178V29.1485H63.1445Z" fill="white"/>
<path d="M88.6602 29.1485V10.8517H94.5905C96.8344 10.8517 98.2998 10.9433 98.981 11.1265C100.029 11.4013 100.904 11.9967 101.614 12.9184C102.324 13.8401 102.673 15.0251 102.673 16.4793C102.673 17.6014 102.467 18.546 102.061 19.3131C101.654 20.0803 101.133 20.6814 100.509 21.1165C99.8855 21.5516 99.2443 21.8435 98.5918 21.9809C97.7102 22.1584 96.4337 22.2443 94.7622 22.2443H92.3523V29.1485H88.6602ZM92.358 13.9489V19.1414H94.3787C95.8327 19.1414 96.8058 19.044 97.2981 18.8551C97.7904 18.6662 98.1739 18.3628 98.4544 17.9563C98.7349 17.5498 98.8723 17.0747 98.8723 16.5308C98.8723 15.8667 98.6776 15.3171 98.2827 14.882C97.8934 14.4527 97.3954 14.1779 96.8001 14.0691C96.3593 13.9889 95.472 13.9431 94.144 13.9431H92.358V13.9489Z" fill="white"/>
<path d="M120.311 29.1485H116.292L114.695 24.9922H107.385L105.874 29.1485H101.953L109.08 10.8517H112.984L120.311 29.1485ZM113.51 21.9122L110.992 15.1225L108.519 21.9122H113.51Z" fill="white"/>
<path d="M124.489 29.1485V13.9489H119.062V10.8517H133.602V13.9489H128.187V29.1485H124.495H124.489Z" fill="white"/>
<path d="M140.098 29.1485V13.9489H134.672V10.8517H149.212V13.9489H143.796V29.1485H140.104H140.098Z" fill="white"/>
<path d="M151.48 29.1485V10.8517H155.173V29.1485H151.48Z" fill="white"/>
<g clip-path="url(#clip1_2624_2134)">
<g clip-path="url(#clip2_2624_2134)">
<path d="M184.277 40C195.323 40 204.277 31.0457 204.277 20C204.277 8.9543 195.323 0 184.277 0C173.232 0 164.277 8.9543 164.277 20C164.277 31.0457 173.232 40 184.277 40Z" fill="#58FD8E"/>
<g clip-path="url(#clip3_2624_2134)">
<path d="M184.277 36.0001C193.114 36.0001 200.277 28.8367 200.277 20.0001C200.277 11.1636 193.114 4.00012 184.277 4.00012C175.441 4.00012 168.277 11.1636 168.277 20.0001C168.277 28.8367 175.441 36.0001 184.277 36.0001Z" fill="#F0F0F0"/>
<path d="M168.277 20.0002C168.277 26.0649 171.652 31.3411 176.625 34.0548V5.94568C171.652 8.65937 168.277 13.9356 168.277 20.0002Z" fill="#F0F0F0"/>
<path d="M184.277 4C181.505 4 178.898 4.70519 176.625 5.94544V34.0545C178.898 35.2948 181.505 36 184.277 36C193.114 36 200.277 28.8365 200.277 20C200.277 11.1635 193.114 4 184.277 4Z" fill="#496E2D"/>
<path d="M191.12 22.646C189.095 24.1086 186.269 23.6533 184.806 21.6292C183.344 19.6049 183.799 16.7784 185.823 15.3159C186.454 14.8599 187.163 14.5903 187.885 14.4966C186.497 14.2891 185.03 14.6018 183.802 15.4886C181.311 17.2887 180.751 20.7676 182.551 23.2589C184.351 25.7501 187.83 26.3106 190.321 24.5104C191.549 23.6236 192.306 22.329 192.545 20.9459C192.229 21.6013 191.751 22.1899 191.12 22.646Z" fill="#F0F0F0"/>
<path d="M191.032 14.4349L192.172 15.6637L193.693 14.9592L192.877 16.4232L194.017 17.6522L192.372 17.3281L191.556 18.7922L191.356 17.1279L189.711 16.8038L191.232 16.0993L191.032 14.4349Z" fill="#F0F0F0"/>
</g>
</g>
</g>
</g>
<defs>
<linearGradient id="paint0_linear_2624_2134" x1="3" y1="20" x2="188" y2="20" gradientUnits="userSpaceOnUse">
<stop stop-color="#1B9A3C"/>
<stop offset="0.5" stop-color="#1FE851"/>
<stop offset="1" stop-color="#0B6A22"/>
</linearGradient>
<clipPath id="clip0_2624_2134">
<path d="M0 6C0 2.68629 2.68629 0 6 0H184.276C195.322 0 204.276 8.95431 204.276 20V20C204.276 31.0457 195.322 40 184.276 40H6C2.68629 40 0 37.3137 0 34V6Z" fill="white"/>
</clipPath>
<clipPath id="clip1_2624_2134">
<rect x="164.277" width="40" height="40" rx="20" fill="white"/>
</clipPath>
<clipPath id="clip2_2624_2134">
<rect width="40" height="40" fill="white" transform="translate(164.277)"/>
</clipPath>
<clipPath id="clip3_2624_2134">
<rect width="32" height="32" fill="white" transform="translate(168.277 4)"/>
</clipPath>
</defs>
</svg>
