<svg width="124" height="41" viewBox="0 0 124 41" fill="none" xmlns="http://www.w3.org/2000/svg">
<mask id="mask0_2450_2285" style="mask-type:luminance" maskUnits="userSpaceOnUse" x="0" y="0" width="124" height="41">
<path d="M124 0.378418H0V40.3784H124V0.378418Z" fill="white"/>
</mask>
<g mask="url(#mask0_2450_2285)">
<path d="M32.9349 0.984375L39.1313 4.936L41.0096 4.92725C42.8638 4.92725 44.0071 4.93583 45.8304 5.51339C46.8865 5.84793 47.561 6.30374 48.0863 6.9421C48.6358 7.60977 48.7201 8.31545 48.733 8.52295H48.7351L48.7349 8.5632C48.7353 8.57657 48.7353 8.5836 48.7353 8.5836C48.7326 8.91086 48.7125 10.49 48.5806 11.5323C48.3078 13.6897 44.6038 27.6732 43.7907 29.376C43.6299 29.7127 43.4892 30.0287 43.3557 30.3287C42.8139 31.5457 42.3904 32.4971 41.2257 33.4797C40.5625 34.0393 40.1296 34.2958 39.3407 34.6652C38.5378 35.0412 38.046 35.207 37.1777 35.3947C36.3188 35.5961 35.8288 35.6836 34.9526 35.7905C34.0403 35.9017 32.6039 35.9425 32.6039 35.9425H32.4387L26.4395 39.772L20.4678 35.9425H7.94339C6.08924 35.9425 4.94583 35.9424 3.12256 35.3649C2.06647 35.0303 1.39199 34.5745 0.866642 33.9362C0.213309 33.1423 0.15625 32.2947 0.15625 32.2947H21.9733L25.9563 20.1963L29.5445 32.2947H38.2077L38.2281 32.2334L40.9476 22.0501L44.6393 8.5836H37.3626L34.0528 20.6212L29.7915 8.5836H10.7248L9.08484 14.7246H16.652L18.2915 8.58399L21.541 7.92159L14.6875 33.1802L11.9609 32.2944L15.8566 17.7036H8.2893L8.0052 18.7674L4.25655 33.4797L0.15625 32.2947C0.15625 32.2947 0.15627 29.6891 0.372183 28.7684C1.10937 25.6249 1.49488 24.2936 2.00633 22.5274C2.30422 21.4987 2.64485 20.3225 3.12256 18.5547C3.74753 16.2419 4.18276 14.7655 4.76723 12.7829C4.891 12.363 5.02176 11.9195 5.16214 11.4415C5.89126 8.95875 6.27539 8.5626 7.72708 7.3378C8.39033 6.77825 8.82319 6.52168 9.61218 6.15228C10.4105 5.77844 11.7602 5.45673 11.7752 5.45316C11.7752 5.45316 12.7314 5.25638 13.3514 5.17902C13.9639 5.1026 14.9275 5.04884 14.9275 5.04884L26.6766 4.99407L32.9349 0.984375Z" fill="url(#paint0_linear_2450_2285)"/>
<path d="M26.4375 39.7721H28.0991L34.383 35.8203H32.6307L26.4375 39.7721Z" fill="#FFF348"/>
<path d="M47.8118 10.4076L47.9292 9.55435C48.04 8.74899 47.8753 7.92958 47.4621 7.23079C46.963 6.38669 46.1415 5.7857 45.1895 5.56832L42.4208 4.93604H43.3832C43.627 4.93605 43.8702 4.96229 44.1084 5.01432L46.081 5.44514C47.0871 5.66487 47.9721 6.26221 48.5559 7.11553C49.0205 7.79462 49.2692 8.59968 49.2692 9.42414V10.0145C49.2692 10.5362 49.2012 11.0557 49.067 11.5597L44.0948 30.2314C43.69 31.7516 42.7713 33.0823 41.4968 33.9947C40.8491 34.4584 40.1249 34.8029 39.3576 35.0122L38.8198 35.159C37.5779 35.4978 36.3061 35.7133 35.0225 35.8024L34.3242 35.8508L38.5772 34.3134C39.1032 34.1232 39.6024 33.8651 40.0622 33.5454C41.3204 32.6706 42.2285 31.3743 42.6242 29.8879L47.8118 10.4076Z" fill="#FFF348"/>
<path d="M32.9336 0.984375H34.5952L40.8791 4.93612H39.1268L32.9336 0.984375Z" fill="url(#paint1_linear_2450_2285)"/>
<path d="M29.8845 32.2942L25.957 20.1958L28.3739 32.2942H29.8845Z" fill="url(#paint2_linear_2450_2285)"/>
<path d="M38.1633 8.58398L34.0547 20.6216L36.6226 8.58398H38.1633Z" fill="url(#paint3_linear_2450_2285)"/>
<path d="M4.9608 32.2942H3.48047L7.44576 17.7031H8.79757L4.9608 32.2942Z" fill="url(#paint4_linear_2450_2285)"/>
<path d="M15.7772 32.2945H14.2969L20.5808 8.58398H21.9705L15.7772 32.2945Z" fill="url(#paint5_linear_2450_2285)"/>
<path d="M9.64188 14.7244H8.14844L9.80061 8.58398H11.1524L9.64188 14.7244Z" fill="url(#paint6_linear_2450_2285)"/>
<path d="M57.5449 8.69401C57.5449 8.69401 55.2147 9.05721 54.5474 9.32143C52.7971 10.0259 51.4844 11.5669 50.7514 13.7794C50.5326 14.4398 47.7102 25.0179 47.3382 26.592C46.9445 28.2431 46.9445 29.4979 47.3382 30.3235C47.7977 31.2591 48.5525 31.7874 49.9091 32.1067C50.4998 32.2497 51.6266 32.2938 56.3744 32.3268C63.7477 32.3928 64.9398 32.2718 66.7996 31.2921C68.1017 30.5986 69.272 29.0466 69.9173 27.1203C70.246 26.1627 73.2103 14.9792 73.4508 13.8124C74.0417 10.9505 73.2653 9.49756 70.7928 8.83707C70.191 8.68301 69.2938 8.64994 64.0323 8.63893C60.6958 8.62793 57.5449 8.69401 57.5449 8.69401ZM65.8371 15.0452C65.6842 15.6947 63.1459 25.172 63.0365 25.5022L62.9163 25.8655H58.8796C56.6588 25.8655 54.8428 25.8655 54.8428 25.8655C54.8428 25.7994 57.3589 16.3331 57.6433 15.3204L57.8074 14.748H61.8661H65.9138L65.8371 15.0452Z" fill="white"/>
<path d="M77.2645 8.58398C77.0016 9.37651 72.4507 26.8562 72.3413 27.4836C71.9365 29.7291 72.418 31.0831 73.8289 31.6995C75.1968 32.2829 75.4482 32.3049 82.3514 32.3049C88.1162 32.3049 88.8491 32.2829 89.7355 32.1067C92.3717 31.5674 93.7831 30.3676 94.8333 27.7918C95.0738 27.2085 96.2224 23.1357 97.6556 17.7531C98.9903 12.7778 100.073 8.61699 100.073 8.58398C100.073 8.58398 98.4102 8.58398 96.3758 8.58398H92.678L90.3917 17.1147C89.1337 21.8038 88.0286 25.7995 87.9851 25.8655H84.0468H82.0505H80.0535L82.3622 17.3348C83.6202 12.6677 84.6486 8.661 84.6486 8.58398C84.6486 8.58398 83.8389 8.58398 80.9834 8.58398C78.1394 8.58398 77.2645 8.58398 77.2645 8.58398Z" fill="white"/>
<path d="M101.961 8.58398C101.939 8.661 101.589 10.092 101.195 11.611C100.801 13.119 100.353 14.649 100.32 14.7481C100.32 14.7481 100.583 14.7481 103.985 14.7481H107.606L107.529 14.9902C107.485 15.1333 106.446 19.0079 105.221 23.609C103.996 28.2101 102.814 32.2608 102.781 32.3599H106.599H110.33C110.362 32.2278 111.478 28.023 112.726 23.3339L115.017 14.7701H118.622H122.254C122.287 14.671 123.446 10.092 123.84 8.58398C123.84 8.58398 121.652 8.58398 112.944 8.58398C104.291 8.58398 101.961 8.58398 101.961 8.58398Z" fill="white"/>
</g>
<defs>
<linearGradient id="paint0_linear_2450_2285" x1="21.0924" y1="46.1865" x2="28.6174" y2="3.6388" gradientUnits="userSpaceOnUse">
<stop offset="0.380208" stop-color="#FFA200"/>
<stop offset="1" stop-color="#FDE43B"/>
</linearGradient>
<linearGradient id="paint1_linear_2450_2285" x1="26.9966" y1="15.3784" x2="26.9966" y2="32.3784" gradientUnits="userSpaceOnUse">
<stop stop-color="#FFAB00"/>
<stop offset="1" stop-color="#FFE600"/>
</linearGradient>
<linearGradient id="paint2_linear_2450_2285" x1="26.9988" y1="15.3782" x2="26.9988" y2="32.3782" gradientUnits="userSpaceOnUse">
<stop stop-color="#FFAB00"/>
<stop offset="1" stop-color="#FFE600"/>
</linearGradient>
<linearGradient id="paint3_linear_2450_2285" x1="26.9999" y1="15.3786" x2="26.9999" y2="32.3786" gradientUnits="userSpaceOnUse">
<stop stop-color="#FFAB00"/>
<stop offset="1" stop-color="#FFE600"/>
</linearGradient>
<linearGradient id="paint4_linear_2450_2285" x1="26.9992" y1="15.3784" x2="26.9992" y2="32.3784" gradientUnits="userSpaceOnUse">
<stop stop-color="#FFAB00"/>
<stop offset="1" stop-color="#FFE600"/>
</linearGradient>
<linearGradient id="paint5_linear_2450_2285" x1="27.0001" y1="15.3786" x2="27.0001" y2="32.3786" gradientUnits="userSpaceOnUse">
<stop stop-color="#FFAB00"/>
<stop offset="1" stop-color="#FFE600"/>
</linearGradient>
<linearGradient id="paint6_linear_2450_2285" x1="26.9974" y1="15.3786" x2="26.9974" y2="32.3786" gradientUnits="userSpaceOnUse">
<stop stop-color="#FFAB00"/>
<stop offset="1" stop-color="#FFE600"/>
</linearGradient>
</defs>
</svg>
