<svg width="351" height="41" viewBox="0 0 351 41" fill="none" xmlns="http://www.w3.org/2000/svg">
<path d="M33.2955 16.9209C33.2955 19.1991 32.9632 21.4299 32.2987 23.6132C31.6659 25.7965 30.6533 27.7584 29.2611 29.4987C27.9004 31.239 26.1127 32.6313 23.8977 33.6755C21.7144 34.688 19.0723 35.1943 15.9713 35.1943C12.3957 35.1943 9.46882 34.5298 7.19058 33.2008C4.94398 31.8719 3.28276 30.0366 2.20692 27.6951C1.16272 25.3219 0.640625 22.6007 0.640625 19.5314C0.640625 17.2531 0.957048 15.0382 1.58989 12.8865C2.25438 10.7032 3.26693 8.74136 4.62755 7.00103C6.01981 5.2607 7.8076 3.88427 9.99092 2.87171C12.2059 1.82752 14.8638 1.30542 17.9648 1.30542C21.572 1.30542 24.4989 1.96991 26.7455 3.29888C28.9921 4.59622 30.6375 6.41565 31.6817 8.75718C32.7575 11.0987 33.2955 13.8199 33.2955 16.9209ZM28.3118 19.6263C28.3118 17.5696 28.1536 15.5919 27.8372 13.6934C27.5207 11.7948 26.9512 10.0862 26.1285 8.56732C25.3374 7.01685 24.2141 5.79862 22.7586 4.91264C21.3347 4.02665 19.4836 3.58366 17.2054 3.58366C15.2752 3.58366 13.6298 3.94755 12.2692 4.67532C10.9402 5.37145 9.83271 6.28908 8.94672 7.4282C8.09238 8.53568 7.41207 9.73809 6.9058 11.0354C6.43116 12.3328 6.09892 13.5826 5.90906 14.785C5.71921 15.9874 5.62428 17 5.62428 17.8227C5.62428 19.7845 5.79832 21.6672 6.14638 23.4708C6.52609 25.2744 7.14311 26.8882 7.99745 28.3121C8.8518 29.736 9.99092 30.8593 11.4148 31.682C12.8387 32.5047 14.6107 32.9161 16.7307 32.9161C18.471 32.9161 19.9899 32.6155 21.2872 32.0143C22.6162 31.3814 23.7237 30.5587 24.6097 29.5462C25.4956 28.5336 26.2076 27.4419 26.7455 26.2712C27.3151 25.0688 27.7106 23.898 27.9321 22.7589C28.1852 21.5881 28.3118 20.5439 28.3118 19.6263Z" fill="url(#paint0_linear_4040_660)"/>
<path d="M44.9303 31.5693C44.958 31.8462 45.1795 32.0953 45.5948 32.3168C46.0101 32.5106 46.5223 32.6629 47.1314 32.7737C47.7682 32.8844 48.3773 32.9398 48.9588 32.9398C50.3985 32.9398 51.6998 32.8429 52.8626 32.6491C54.0255 32.4553 55.0499 31.9707 55.9359 31.1955C56.8219 30.3926 57.5417 29.1051 58.0955 27.3332L59.2168 27.8315C59.0507 28.3299 58.8984 29.0082 58.7599 29.8665C58.6215 30.7248 58.4969 31.5831 58.3862 32.4414C58.3031 33.272 58.2477 33.9365 58.2201 34.4349H41.8986C40.8742 34.4349 40.002 34.4349 39.2822 34.4349C38.59 34.4626 37.8009 34.5041 36.9149 34.5595L36.7903 33.3551C38.0362 33.1059 38.9499 32.8844 39.5313 32.6906C40.1128 32.4691 40.4312 32.0953 40.4865 31.5693C40.4865 31.5693 40.5142 31.2509 40.5696 30.6141C40.625 29.9496 40.6803 28.8006 40.7357 27.1671C40.8188 25.5335 40.8603 23.2217 40.8603 20.2315C40.8603 17.2413 40.8326 14.9294 40.7772 13.2959C40.7219 11.6346 40.6665 10.4856 40.6111 9.84884C40.5558 9.18435 40.5281 8.8521 40.5281 8.8521C40.4727 8.32605 40.1958 7.96612 39.6975 7.77231C39.2268 7.55081 38.3685 7.31547 37.1226 7.06629L37.2472 5.86191C38.1331 5.88959 39.0191 5.91728 39.9051 5.94497C40.8188 5.97265 41.7878 5.9865 42.8122 5.9865C43.8643 5.9865 44.8057 5.97265 45.6363 5.94497C46.4946 5.91728 47.3529 5.88959 48.2112 5.86191L48.3358 7.06629C47.0899 7.31547 46.2177 7.55081 45.7194 7.77231C45.2487 7.96612 44.9857 8.32605 44.9303 8.8521C44.9303 8.8521 44.9026 9.18435 44.8472 9.84884C44.7919 10.4856 44.7365 11.6346 44.6811 13.2959C44.6257 14.9294 44.5981 17.2413 44.5981 20.2315C44.5981 23.2217 44.6257 25.5335 44.6811 27.1671C44.7365 28.8006 44.7919 29.9496 44.8472 30.6141C44.9026 31.2509 44.9303 31.5693 44.9303 31.5693Z" fill="url(#paint1_linear_4040_660)"/>
<path d="M70.347 20.6883C71.5929 18.3903 72.6034 16.5076 73.3787 15.0401C74.1816 13.545 74.8046 12.3684 75.2476 11.5101C75.6905 10.6518 76.0089 10.0288 76.2028 9.64118C76.3966 9.22588 76.5073 8.96285 76.535 8.8521C76.5904 8.71367 76.6181 8.61676 76.6181 8.56139C76.6181 8.22914 76.2581 7.95228 75.5383 7.73078C74.8184 7.50928 73.9047 7.28779 72.7973 7.06629L72.9218 5.86191C73.8078 5.88959 74.6938 5.91728 75.5798 5.94497C76.4658 5.97265 77.421 5.9865 78.4454 5.9865C79.4975 5.9865 80.3281 5.97265 80.9372 5.94497C81.574 5.91728 82.3216 5.88959 83.1799 5.86191L83.3045 7.06629C82.0586 7.31547 81.1864 7.59234 80.688 7.8969C80.2174 8.20146 79.8436 8.60292 79.5667 9.10129L71.5513 23.5124C71.579 25.6443 71.6067 27.2916 71.6344 28.4545C71.6898 29.6173 71.7451 30.4341 71.8005 30.9048C71.8559 31.3478 71.8836 31.5693 71.8836 31.5693C71.939 32.0953 72.2297 32.4691 72.7557 32.6906C73.2818 32.8844 74.1678 33.1059 75.4137 33.3551L75.2891 34.5595C74.4308 34.5041 73.5586 34.4626 72.6727 34.4349C71.7867 34.4349 70.8176 34.4349 69.7655 34.4349C67.6059 34.4349 65.654 34.4764 63.9097 34.5595L63.7851 33.3551C65.0311 33.1059 65.9447 32.8844 66.5262 32.6906C67.1076 32.4691 67.426 32.0953 67.4814 31.5693C67.4814 31.5693 67.4952 31.3339 67.5229 30.8633C67.5783 30.3926 67.6336 29.5758 67.689 28.413C67.7444 27.2224 67.7721 25.6027 67.7721 23.5539L59.7567 8.8521C59.5075 8.38142 59.1614 8.03534 58.7184 7.81384C58.3031 7.56466 57.4725 7.31547 56.2266 7.06629L56.3512 5.86191C57.2372 5.88959 58.1231 5.91728 59.0091 5.94497C59.8951 5.97265 60.8503 5.9865 61.8747 5.9865C64.0343 5.9865 65.9863 5.94497 67.7305 5.86191L67.8551 7.06629C66.7476 7.2601 65.8478 7.46775 65.1556 7.68925C64.4912 7.91074 64.1589 8.20146 64.1589 8.56139C64.1589 8.61676 64.1589 8.67214 64.1589 8.72751C64.1866 8.78288 64.2143 8.83826 64.242 8.89363L70.347 20.6883Z" fill="url(#paint2_linear_4040_660)"/>
<path d="M111.862 12.5898H111.613L102.725 34.3934L100.15 34.8502L91.2628 12.5898H91.0966C91.0413 15.0263 90.9582 17.4628 90.8474 19.8992C90.7367 22.3357 90.6813 24.7721 90.6813 27.2086C90.6813 28.7314 90.6952 29.8388 90.7229 30.531C90.7782 31.2232 90.8059 31.5693 90.8059 31.5693C90.8613 32.0953 91.2074 32.4691 91.8442 32.6906C92.5087 32.8844 93.4639 33.1059 94.7098 33.3551L94.5852 34.5595C93.7269 34.5041 92.7855 34.4626 91.7611 34.4349C90.7644 34.4349 89.74 34.4349 88.6879 34.4349C87.9957 34.4349 87.4143 34.4349 86.9436 34.4349C86.4729 34.4349 86.0161 34.4349 85.5731 34.4349C85.1578 34.4626 84.6594 34.5041 84.078 34.5595L83.9534 33.3551C85.1993 33.1059 86.0853 32.8706 86.6113 32.6491C87.1651 32.4276 87.4696 32.0676 87.525 31.5693C87.7742 29.6589 87.9542 27.8039 88.0649 26.0042C88.1756 24.1769 88.2449 22.3218 88.2726 20.4391C88.3279 18.5564 88.3556 16.5352 88.3556 14.3757C88.3556 12.3268 88.3279 10.9009 88.2726 10.098C88.2172 9.26741 88.1895 8.8521 88.1895 8.8521C88.1341 8.32605 87.8573 7.96612 87.3589 7.77231C86.8882 7.55081 86.0299 7.31547 84.784 7.06629L84.9086 5.86191C85.49 5.88959 86.2099 5.91728 87.0682 5.94497C87.9542 5.94497 88.8401 5.95881 89.7261 5.9865C90.6398 5.9865 91.4427 5.9865 92.1349 5.9865L102.019 30.4895L111.903 5.9865C112.596 5.9865 113.398 5.9865 114.312 5.9865C115.254 5.95881 116.167 5.94497 117.053 5.94497C117.939 5.91728 118.673 5.88959 119.254 5.86191L119.379 7.06629C118.133 7.31547 117.261 7.55081 116.762 7.77231C116.292 7.96612 116.029 8.32605 115.973 8.8521C115.973 8.8521 115.946 9.11513 115.89 9.64118C115.835 10.1672 115.807 11.2055 115.807 12.756C115.807 12.9221 115.807 13.3374 115.807 14.0019C115.835 14.6664 115.863 15.4278 115.89 16.2861C115.918 17.1167 115.946 17.9058 115.973 18.6533C116.001 19.3732 116.015 19.8992 116.015 20.2315C116.126 22.5572 116.223 24.4676 116.306 25.9627C116.416 27.4301 116.499 28.5791 116.555 29.4097C116.61 30.2126 116.652 30.7802 116.679 31.1124C116.735 31.417 116.762 31.5693 116.762 31.5693C116.818 32.0953 117.109 32.4691 117.635 32.6906C118.161 32.8844 119.047 33.1059 120.293 33.3551L120.168 34.5595C119.31 34.5041 118.438 34.4626 117.552 34.4349C116.666 34.4349 115.697 34.4349 114.644 34.4349C112.485 34.4349 110.533 34.4764 108.789 34.5595L108.664 33.3551C109.91 33.1059 110.837 32.8844 111.447 32.6906C112.056 32.4691 112.36 32.0953 112.36 31.5693C112.36 31.5693 112.36 31.2509 112.36 30.6141C112.388 29.9496 112.402 29.0359 112.402 27.8731C112.402 26.9594 112.388 25.8519 112.36 24.5506C112.333 23.2217 112.291 21.8235 112.236 20.356C112.18 18.8886 112.111 17.4766 112.028 16.1199C111.973 14.7633 111.917 13.5866 111.862 12.5898Z" fill="url(#paint3_linear_4040_660)"/>
<path d="M128.469 5.9865H134.782C136.941 5.9865 138.713 6.34643 140.097 7.06629C141.482 7.78615 142.506 8.72751 143.171 9.89037C143.835 11.0255 144.167 12.2576 144.167 13.5866C144.167 15.054 143.738 16.4937 142.88 17.9057C142.022 19.3178 140.776 20.4945 139.142 21.4358C137.536 22.3495 135.557 22.8063 133.203 22.8063C132.29 22.8063 131.307 22.7233 130.255 22.5572C130.255 24.7998 130.269 26.5441 130.296 27.79C130.324 29.0082 130.365 29.8942 130.421 30.448C130.476 30.974 130.518 31.2924 130.545 31.4032C130.573 31.5139 130.587 31.5693 130.587 31.5693C130.642 32.0953 130.933 32.4691 131.459 32.6906C131.985 32.8844 132.871 33.1059 134.117 33.3551L133.992 34.5595C133.134 34.5041 132.262 34.4626 131.376 34.4349C130.49 34.4349 129.521 34.4349 128.469 34.4349C126.309 34.4349 124.357 34.4764 122.613 34.5595L122.488 33.3551C123.734 33.1059 124.648 32.8844 125.23 32.6906C125.811 32.4691 126.129 32.0953 126.185 31.5693C126.185 31.5693 126.212 31.2509 126.268 30.6141C126.323 29.9496 126.379 28.8006 126.434 27.1671C126.489 25.5058 126.517 23.194 126.517 20.2315C126.517 17.2413 126.489 14.9294 126.434 13.2959C126.379 11.6346 126.323 10.4856 126.268 9.84884C126.212 9.18435 126.185 8.8521 126.185 8.8521C126.129 8.32605 125.852 7.96612 125.354 7.77231C124.883 7.55081 124.025 7.31547 122.779 7.06629L122.904 5.86191C123.79 5.88959 124.676 5.91728 125.562 5.94497C126.475 5.97265 127.444 5.9865 128.469 5.9865ZM130.255 20.9375C131.058 21.0205 131.819 21.0621 132.539 21.0621C134.837 21.0621 136.678 20.5222 138.062 19.4424C139.474 18.3349 140.18 16.5629 140.18 14.1265C140.18 11.7731 139.571 10.1257 138.353 9.18435C137.163 8.2153 135.446 7.73078 133.203 7.73078C132.234 7.73078 131.598 7.8 131.293 7.93843C130.988 8.04918 130.781 8.45064 130.67 9.14282C130.67 9.14282 130.642 9.30894 130.587 9.64118C130.559 9.97343 130.518 10.5687 130.462 11.427C130.407 12.2853 130.352 13.4897 130.296 15.0401C130.269 16.5629 130.255 18.5287 130.255 20.9375Z" fill="url(#paint4_linear_4040_660)"/>
<path d="M154.183 20.2315C154.183 23.2217 154.211 25.5335 154.266 27.1671C154.322 28.8006 154.377 29.9496 154.433 30.6141C154.488 31.2509 154.516 31.5693 154.516 31.5693C154.571 32.0953 154.862 32.4691 155.388 32.6906C155.914 32.8844 156.8 33.1059 158.046 33.3551L157.921 34.5595C157.063 34.5041 156.191 34.4626 155.305 34.4349C154.419 34.4349 153.45 34.4349 152.398 34.4349C150.238 34.4349 148.286 34.4764 146.542 34.5595L146.417 33.3551C147.663 33.1059 148.577 32.8844 149.158 32.6906C149.74 32.4691 150.058 32.0953 150.113 31.5693C150.113 31.5693 150.141 31.2509 150.196 30.6141C150.252 29.9496 150.307 28.8006 150.363 27.1671C150.418 25.5058 150.446 23.194 150.446 20.2315C150.446 17.2413 150.418 14.9294 150.363 13.2959C150.307 11.6346 150.252 10.4856 150.196 9.84884C150.141 9.18435 150.113 8.8521 150.113 8.8521C150.058 8.32605 149.781 7.96612 149.283 7.77231C148.812 7.55081 147.954 7.31547 146.708 7.06629L146.832 5.86191C147.718 5.88959 148.604 5.91728 149.49 5.94497C150.404 5.97265 151.373 5.9865 152.398 5.9865C153.45 5.9865 154.391 5.97265 155.222 5.94497C156.08 5.91728 156.938 5.88959 157.797 5.86191L157.921 7.06629C156.675 7.31547 155.803 7.55081 155.305 7.77231C154.834 7.96612 154.571 8.32605 154.516 8.8521C154.516 8.8521 154.488 9.18435 154.433 9.84884C154.377 10.4856 154.322 11.6346 154.266 13.2959C154.211 14.9294 154.183 17.2413 154.183 20.2315Z" fill="url(#paint5_linear_4040_660)"/>
<path d="M159.532 34.5595L159.408 33.3551C160.709 33.1059 161.637 32.8429 162.19 32.566C162.744 32.2615 163.104 31.8462 163.27 31.3201L171.535 6.02803L175.023 5.61273L184.7 31.5693C184.894 32.04 185.212 32.3999 185.655 32.6491C186.126 32.8983 186.984 33.1336 188.23 33.3551L188.105 34.5595C187.192 34.5041 186.292 34.4626 185.406 34.4349C184.52 34.4349 183.579 34.4349 182.582 34.4349C180.395 34.4349 178.443 34.4764 176.726 34.5595L176.601 33.3551C178.041 33.0782 179.01 32.829 179.509 32.6075C180.007 32.386 180.256 32.1092 180.256 31.7769L177.972 24.3845H168.586L166.343 31.7769C166.343 32.1092 166.606 32.386 167.132 32.6075C167.659 32.829 168.586 33.0782 169.915 33.3551L169.79 34.5595C168.877 34.5041 167.977 34.4626 167.091 34.4349C166.205 34.4349 165.264 34.4349 164.267 34.4349C163.409 34.4349 162.675 34.4349 162.066 34.4349C161.457 34.4626 160.612 34.5041 159.532 34.5595ZM169.167 22.4741H177.307L173.113 9.9319H172.947L169.167 22.4741Z" fill="url(#paint6_linear_4040_660)"/>
<path d="M213.287 28.9529H213.494C213.55 27.79 213.577 26.461 213.577 24.9659C213.577 23.4708 213.577 21.8927 213.577 20.2315C213.577 17.2413 213.536 14.9294 213.453 13.2959C213.398 11.6346 213.342 10.4856 213.287 9.84884C213.231 9.18435 213.204 8.8521 213.204 8.8521C213.148 8.32605 212.788 7.96612 212.124 7.77231C211.487 7.55081 210.546 7.31547 209.3 7.06629L209.424 5.86191C210.31 5.88959 211.252 5.91728 212.249 5.94497C213.273 5.97265 214.297 5.9865 215.322 5.9865C216.014 5.9865 216.582 5.9865 217.025 5.9865C217.468 5.95881 217.883 5.94497 218.27 5.94497C218.686 5.91728 219.184 5.88959 219.766 5.86191L219.89 7.06629C218.644 7.31547 217.772 7.55081 217.274 7.77231C216.803 7.96612 216.54 8.32605 216.485 8.8521C216.485 8.8521 216.443 9.18435 216.36 9.84884C216.305 10.4856 216.235 11.6346 216.152 13.2959C216.097 14.9294 216.069 17.2413 216.069 20.2315C216.069 24.6891 216.139 28.1776 216.277 30.6971C216.443 33.189 216.526 34.4349 216.526 34.4349L213.204 34.8087L196.342 12.133H196.135C196.107 13.0467 196.065 14.1818 196.01 15.5385C195.982 16.8952 195.969 18.4595 195.969 20.2315C195.969 23.2217 196.01 25.5335 196.093 27.1671C196.176 28.8006 196.245 29.9496 196.301 30.6141C196.384 31.2509 196.425 31.5693 196.425 31.5693C196.481 32.0953 196.827 32.4691 197.464 32.6906C198.128 32.8844 199.083 33.1059 200.329 33.3551L200.205 34.5595C199.346 34.5041 198.405 34.4626 197.381 34.4349C196.384 34.4349 195.359 34.4349 194.307 34.4349C193.283 34.4349 192.397 34.4349 191.649 34.4349C190.93 34.4626 190.127 34.5041 189.241 34.5595L189.116 33.3551C190.362 33.1336 191.331 32.9121 192.023 32.6906C192.715 32.4691 193.089 32.0953 193.145 31.5693C193.145 31.5693 193.172 31.2509 193.228 30.6141C193.283 29.9496 193.338 28.8006 193.394 27.1671C193.449 25.5335 193.477 23.2217 193.477 20.2315C193.477 17.2413 193.449 14.9294 193.394 13.2959C193.338 11.6346 193.283 10.4856 193.228 9.84884C193.172 9.18435 193.145 8.8521 193.145 8.8521C193.089 8.32605 192.812 7.96612 192.314 7.77231C191.843 7.55081 190.985 7.31547 189.739 7.06629L189.864 5.86191C190.75 5.88959 191.746 5.91728 192.854 5.94497C193.961 5.97265 195.027 5.9865 196.052 5.9865L213.287 28.9529Z" fill="url(#paint7_linear_4040_660)"/>
<path d="M248.137 32.8983C249.605 32.8983 251.017 32.746 252.373 32.4414C253.73 32.1369 254.782 31.7908 255.53 31.4032C255.502 29.4097 255.447 27.79 255.364 26.5441C255.281 25.2982 255.239 24.6752 255.239 24.6752C255.184 24.1492 254.907 23.7892 254.408 23.5954C253.938 23.3739 253.08 23.1386 251.834 22.8894L251.958 21.685C252.844 21.7127 253.73 21.7404 254.616 21.7681C255.53 21.7958 256.499 21.8096 257.523 21.8096C258.215 21.8096 258.769 21.8096 259.184 21.8096C259.6 21.7819 259.987 21.7681 260.347 21.7681C260.735 21.7404 261.219 21.7127 261.801 21.685L261.925 22.8894C261.095 23.0555 260.527 23.2078 260.223 23.3462C259.946 23.4847 259.794 23.6508 259.766 23.8446C259.738 24.0384 259.697 24.3153 259.641 24.6752L259.351 32.1507C257.163 33.0921 255.17 33.7981 253.37 34.2688C251.571 34.7118 249.785 34.9333 248.013 34.9333C245.05 34.9333 242.462 34.3934 240.247 33.3136C238.032 32.2338 236.301 30.6279 235.055 28.496C233.837 26.3641 233.228 23.72 233.228 20.5637C233.228 18.5702 233.56 16.6875 234.225 14.9156C234.889 13.1159 235.872 11.5239 237.173 10.1395C238.475 8.72751 240.08 7.62003 241.991 6.81711C243.901 6.01419 246.102 5.61273 248.594 5.61273C250.394 5.61273 251.875 5.72347 253.038 5.94497C254.201 6.13878 255.294 6.23568 256.319 6.23568C256.983 6.23568 257.662 6.15262 258.354 5.9865V6.60946C258.354 7.1632 258.368 7.81384 258.395 8.56139C258.451 9.28125 258.52 10.0011 258.603 10.721C258.686 11.4132 258.769 11.9946 258.852 12.4653L257.689 12.9636C257.246 11.5516 256.54 10.4579 255.571 9.68271C254.602 8.87979 253.495 8.32605 252.249 8.02149C251.031 7.68925 249.757 7.52313 248.428 7.52313C246.573 7.52313 244.815 7.96612 243.154 8.8521C241.52 9.7104 240.177 11.0532 239.125 12.8806C238.101 14.6802 237.589 17.0059 237.589 19.8577C237.589 21.3805 237.782 22.9171 238.17 24.4676C238.558 26.018 239.167 27.4301 239.997 28.7037C240.828 29.9496 241.908 30.9602 243.237 31.7354C244.593 32.5106 246.227 32.8983 248.137 32.8983Z" fill="url(#paint8_linear_4040_660)"/>
<path d="M293.355 19.1101C293.355 21.1036 293.065 23.0555 292.483 24.9659C291.929 26.8763 291.043 28.5929 289.825 30.1157C288.635 31.6385 287.07 32.8567 285.132 33.7704C283.222 34.6564 280.91 35.0994 278.197 35.0994C275.068 35.0994 272.507 34.5179 270.514 33.3551C268.548 32.1922 267.094 30.5864 266.153 28.5376C265.239 26.461 264.782 24.08 264.782 21.3943C264.782 19.4008 265.059 17.4628 265.613 15.58C266.194 13.6696 267.08 11.953 268.271 10.4303C269.489 8.90748 271.053 7.70309 272.964 6.81711C274.902 5.90344 277.228 5.4466 279.941 5.4466C283.097 5.4466 285.658 6.02803 287.624 7.19088C289.59 8.32605 291.03 9.91805 291.943 11.9669C292.885 14.0157 293.355 16.3968 293.355 19.1101ZM288.995 21.4774C288.995 19.6777 288.856 17.9473 288.579 16.2861C288.302 14.6248 287.804 13.1297 287.084 11.8008C286.392 10.4441 285.409 9.37815 284.136 8.60292C282.89 7.82768 281.27 7.44007 279.276 7.44007C277.588 7.44007 276.148 7.75847 274.957 8.39527C273.794 9.00438 272.825 9.8073 272.05 10.804C271.303 11.7731 270.707 12.8252 270.264 13.9604C269.849 15.0955 269.558 16.1892 269.392 17.2413C269.226 18.2934 269.143 19.1794 269.143 19.8992C269.143 21.6158 269.295 23.2632 269.6 24.8413C269.932 26.4195 270.472 27.8315 271.22 29.0775C271.967 30.3234 272.964 31.3063 274.21 32.0261C275.456 32.746 277.006 33.1059 278.861 33.1059C280.384 33.1059 281.713 32.8429 282.848 32.3168C284.011 31.7631 284.98 31.0432 285.755 30.1572C286.53 29.2713 287.153 28.3161 287.624 27.2916C288.122 26.2395 288.469 25.2151 288.662 24.2184C288.884 23.194 288.995 22.2803 288.995 21.4774Z" fill="url(#paint9_linear_4040_660)"/>
<path d="M302.581 5.9865H309.973C311.8 5.9865 313.614 6.23568 315.414 6.73405C317.241 7.20473 318.902 7.96612 320.397 9.01822C321.892 10.0426 323.083 11.3993 323.969 13.0882C324.855 14.7771 325.298 16.8398 325.298 19.2763C325.298 22.1003 324.716 24.6614 323.553 26.9594C322.391 29.2574 320.619 31.0848 318.238 32.4414C315.884 33.7704 312.894 34.4349 309.267 34.4349H302.581C300.421 34.4349 298.469 34.4764 296.725 34.5595L296.6 33.3551C297.846 33.1059 298.76 32.8844 299.341 32.6906C299.923 32.4691 300.241 32.0953 300.296 31.5693C300.296 31.5693 300.324 31.2509 300.379 30.6141C300.435 29.9496 300.49 28.8006 300.546 27.1671C300.601 25.5058 300.629 23.194 300.629 20.2315C300.629 17.2413 300.601 14.9294 300.546 13.2959C300.49 11.6346 300.435 10.4856 300.379 9.84884C300.324 9.18435 300.296 8.8521 300.296 8.8521C300.241 8.32605 299.964 7.96612 299.466 7.77231C298.995 7.55081 298.137 7.31547 296.891 7.06629L297.016 5.86191C297.901 5.88959 298.787 5.91728 299.673 5.94497C300.587 5.97265 301.556 5.9865 302.581 5.9865ZM304.823 31.9431C305.571 32.1092 306.277 32.2338 306.941 32.3168C307.606 32.3999 308.326 32.4414 309.101 32.4414C311.233 32.4414 313.019 32.123 314.458 31.4862C315.898 30.8494 317.047 30.0188 317.905 28.9944C318.764 27.97 319.414 26.8902 319.857 25.755C320.3 24.5922 320.591 23.4985 320.729 22.4741C320.868 21.422 320.937 20.5637 320.937 19.8992C320.937 18.5149 320.757 17.1167 320.397 15.7046C320.065 14.2649 319.414 12.9498 318.445 11.7592C317.504 10.541 316.147 9.57196 314.375 8.8521C312.603 8.10455 310.278 7.73078 307.398 7.73078C306.374 7.73078 305.709 7.78615 305.405 7.8969C305.1 8.00765 304.906 8.24299 304.823 8.60292C304.823 8.60292 304.782 8.94901 304.699 9.64118C304.643 10.3334 304.574 11.5239 304.491 13.2128C304.408 14.9017 304.366 17.2274 304.366 20.1899C304.366 23.1801 304.408 25.5335 304.491 27.2501C304.574 28.939 304.643 30.1434 304.699 30.8633C304.782 31.5831 304.823 31.9431 304.823 31.9431Z" fill="url(#paint10_linear_4040_660)"/>
<path d="M348.341 9.32674L347.059 9.8963C346.395 7.45984 345.477 5.84609 344.306 5.05503C343.167 4.26397 341.712 3.86844 339.94 3.86844C338.104 3.86844 336.728 4.32726 335.81 5.24488C334.924 6.13087 334.481 7.17506 334.481 8.37747C334.481 9.29509 334.75 10.2127 335.288 11.1303C335.826 12.048 336.617 12.8549 337.661 13.551L345.161 18.4397C348.451 20.5914 350.097 23.1386 350.097 26.0813C350.097 27.5052 349.701 28.8975 348.91 30.2581C348.119 31.6187 346.932 32.742 345.35 33.628C343.768 34.4823 341.775 34.9095 339.37 34.9095C337.725 34.9095 335.984 34.7513 334.149 34.4349C332.345 34.1185 330.827 33.7071 329.593 33.2008C329.751 32.3465 329.909 31.3498 330.067 30.2106C330.257 29.0399 330.352 27.7109 330.352 26.2237L331.633 25.6542C331.95 27.3628 332.377 28.7235 332.915 29.736C333.453 30.7169 334.181 31.4289 335.098 31.8719C336.048 32.2832 337.266 32.4889 338.753 32.4889C340.208 32.4889 341.395 32.2357 342.313 31.7295C343.262 31.1916 343.974 30.5271 344.449 29.736C344.923 28.9449 345.161 28.1064 345.161 27.2204C345.161 25.2903 344.132 23.6607 342.075 22.3317L334.481 17.3481C332.994 16.3671 331.887 15.2438 331.159 13.9782C330.463 12.6808 330.115 11.3677 330.115 10.0387C330.115 8.58314 330.51 7.20671 331.301 5.90937C332.092 4.61204 333.216 3.55202 334.671 2.72932C336.127 1.90662 337.867 1.49527 339.892 1.49527C340.778 1.49527 341.522 1.55856 342.123 1.68513C342.756 1.78005 343.341 1.8908 343.879 2.01737C344.417 2.14394 345.002 2.20722 345.635 2.20722C346.268 2.20722 346.98 2.1123 347.771 1.92244V2.6344C347.771 3.26724 347.803 4.01083 347.866 4.86518C347.929 5.68788 347.992 6.51057 348.056 7.33327C348.151 8.12433 348.246 8.78882 348.341 9.32674Z" fill="url(#paint11_linear_4040_660)"/>
<path d="M25.2796 36.1513H328.728V37.6346H25.2796V36.1513Z" fill="#EFCA82"/>
<path d="M17.5738 1.54234H339.192V3.02557H17.5738V1.54234Z" fill="#EFCA82"/>
<path d="M227.623 12.7571L227.374 13.4299H235.192L221.325 37.4465L225.413 19.304L225.55 18.6946H217.349L231.268 2.88794L227.623 12.7571Z" fill="#F8DF2D" stroke="#FF8800"/>
<path d="M221.086 17.1795L228.484 7.60498L223.47 16.1641H229.389L224.457 28.0017L227.561 17.1795H221.086Z" fill="white"/>
<defs>
<linearGradient id="paint0_linear_4040_660" x1="101.176" y1="-10.8805" x2="101.176" y2="49.5408" gradientUnits="userSpaceOnUse">
<stop stop-color="#FDFBE4"/>
<stop offset="0.413462" stop-color="#E19923"/>
<stop offset="0.663462" stop-color="#FDFBE4"/>
<stop offset="1" stop-color="#E19923"/>
</linearGradient>
<linearGradient id="paint1_linear_4040_660" x1="101.176" y1="-10.8805" x2="101.176" y2="49.5408" gradientUnits="userSpaceOnUse">
<stop stop-color="#FDFBE4"/>
<stop offset="0.413462" stop-color="#E19923"/>
<stop offset="0.663462" stop-color="#FDFBE4"/>
<stop offset="1" stop-color="#E19923"/>
</linearGradient>
<linearGradient id="paint2_linear_4040_660" x1="101.176" y1="-10.8805" x2="101.176" y2="49.5408" gradientUnits="userSpaceOnUse">
<stop stop-color="#FDFBE4"/>
<stop offset="0.413462" stop-color="#E19923"/>
<stop offset="0.663462" stop-color="#FDFBE4"/>
<stop offset="1" stop-color="#E19923"/>
</linearGradient>
<linearGradient id="paint3_linear_4040_660" x1="101.176" y1="-10.8805" x2="101.176" y2="49.5408" gradientUnits="userSpaceOnUse">
<stop stop-color="#FDFBE4"/>
<stop offset="0.413462" stop-color="#E19923"/>
<stop offset="0.663462" stop-color="#FDFBE4"/>
<stop offset="1" stop-color="#E19923"/>
</linearGradient>
<linearGradient id="paint4_linear_4040_660" x1="101.176" y1="-10.8805" x2="101.176" y2="49.5408" gradientUnits="userSpaceOnUse">
<stop stop-color="#FDFBE4"/>
<stop offset="0.413462" stop-color="#E19923"/>
<stop offset="0.663462" stop-color="#FDFBE4"/>
<stop offset="1" stop-color="#E19923"/>
</linearGradient>
<linearGradient id="paint5_linear_4040_660" x1="101.176" y1="-10.8805" x2="101.176" y2="49.5408" gradientUnits="userSpaceOnUse">
<stop stop-color="#FDFBE4"/>
<stop offset="0.413462" stop-color="#E19923"/>
<stop offset="0.663462" stop-color="#FDFBE4"/>
<stop offset="1" stop-color="#E19923"/>
</linearGradient>
<linearGradient id="paint6_linear_4040_660" x1="101.176" y1="-10.8805" x2="101.176" y2="49.5408" gradientUnits="userSpaceOnUse">
<stop stop-color="#FDFBE4"/>
<stop offset="0.413462" stop-color="#E19923"/>
<stop offset="0.663462" stop-color="#FDFBE4"/>
<stop offset="1" stop-color="#E19923"/>
</linearGradient>
<linearGradient id="paint7_linear_4040_660" x1="101.176" y1="-10.8805" x2="101.176" y2="49.5408" gradientUnits="userSpaceOnUse">
<stop stop-color="#FDFBE4"/>
<stop offset="0.413462" stop-color="#E19923"/>
<stop offset="0.663462" stop-color="#FDFBE4"/>
<stop offset="1" stop-color="#E19923"/>
</linearGradient>
<linearGradient id="paint8_linear_4040_660" x1="101.176" y1="-10.8805" x2="101.176" y2="49.5408" gradientUnits="userSpaceOnUse">
<stop stop-color="#FDFBE4"/>
<stop offset="0.413462" stop-color="#E19923"/>
<stop offset="0.663462" stop-color="#FDFBE4"/>
<stop offset="1" stop-color="#E19923"/>
</linearGradient>
<linearGradient id="paint9_linear_4040_660" x1="101.176" y1="-10.8805" x2="101.176" y2="49.5408" gradientUnits="userSpaceOnUse">
<stop stop-color="#FDFBE4"/>
<stop offset="0.413462" stop-color="#E19923"/>
<stop offset="0.663462" stop-color="#FDFBE4"/>
<stop offset="1" stop-color="#E19923"/>
</linearGradient>
<linearGradient id="paint10_linear_4040_660" x1="101.176" y1="-10.8805" x2="101.176" y2="49.5408" gradientUnits="userSpaceOnUse">
<stop stop-color="#FDFBE4"/>
<stop offset="0.413462" stop-color="#E19923"/>
<stop offset="0.663462" stop-color="#FDFBE4"/>
<stop offset="1" stop-color="#E19923"/>
</linearGradient>
<linearGradient id="paint11_linear_4040_660" x1="101.176" y1="-10.8805" x2="101.176" y2="49.5408" gradientUnits="userSpaceOnUse">
<stop stop-color="#FDFBE4"/>
<stop offset="0.413462" stop-color="#E19923"/>
<stop offset="0.663462" stop-color="#FDFBE4"/>
<stop offset="1" stop-color="#E19923"/>
</linearGradient>
</defs>
</svg>
