<svg width="140" height="40" viewBox="0 0 140 40" fill="none" xmlns="http://www.w3.org/2000/svg">
<path d="M46.8649 18.8515C42.2327 18.8515 38.8359 15.7429 38.8359 11.3167C38.8359 6.89045 42.2327 3.78181 46.8649 3.78181C49.6853 3.78181 51.9086 4.81117 53.3291 6.664L50.2617 9.40208C49.4177 8.33155 48.4089 7.71395 47.1118 7.71395C45.0943 7.71395 43.7355 9.11385 43.7355 11.3167C43.7355 13.5195 45.0943 14.9195 47.1118 14.9195C48.4089 14.9195 49.4177 14.3017 50.2617 13.2313L53.3291 15.9693C51.9086 17.8221 49.6853 18.8515 46.8649 18.8515ZM63.8726 4.11121H68.7311V18.5221H63.8726V13.2107H59.3846V18.5221H54.5261V4.11121H59.3846V9.2168H63.8726V4.11121ZM70.8662 18.5221V4.11121H75.7247V18.5221H70.8662ZM85.3103 18.8515C80.6782 18.8515 77.2814 15.7429 77.2814 11.3167C77.2814 6.89045 80.6782 3.78181 85.3103 3.78181C88.1307 3.78181 90.3541 4.81117 91.7746 6.664L88.7071 9.40208C87.8631 8.33155 86.8543 7.71395 85.5574 7.71395C83.5398 7.71395 82.1811 9.11385 82.1811 11.3167C82.1811 13.5195 83.5398 14.9195 85.5574 14.9195C86.8543 14.9195 87.8631 14.3017 88.7071 13.2313L91.7746 15.9693C90.3541 17.8221 88.1307 18.8515 85.3103 18.8515ZM102.442 18.5221L98.8389 13.746L97.7478 14.9605V18.5221H92.9715V4.11121H97.7478V9.34032L102.483 4.11121H107.774L102.009 10.452L108.062 18.5221H102.442ZM113.284 14.8576H120.489V18.5221H108.508V4.11121H120.222V7.77571H113.284V9.46384H119.378V12.9636H113.284V14.8576ZM131.624 4.11121H136.359V18.5221H132.365L126.889 11.9755V18.5221H122.154V4.11121H126.148L131.624 10.6579V4.11121ZM48.0383 37.1888L45.5885 33.5655H44.2709V37.1888H39.4123V22.7779H46.3502C50.3646 22.7779 52.9174 24.8777 52.9174 28.2128C52.9174 30.2921 51.9293 31.8568 50.1999 32.742L53.2262 37.1888H48.0383ZM48.0177 28.2128C48.0177 27.1629 47.3795 26.5247 46.0414 26.5247H44.2709V29.9009H46.0414C47.3795 29.9009 48.0177 29.2628 48.0177 28.2128ZM62.1017 37.5181C57.4078 37.5181 53.9698 34.3477 53.9698 29.9833C53.9698 25.6189 57.4078 22.4485 62.1017 22.4485C66.7955 22.4485 70.2335 25.6189 70.2335 29.9833C70.2335 34.3477 66.7955 37.5181 62.1017 37.5181ZM62.1017 33.5861C63.8927 33.5861 65.3338 32.2273 65.3338 29.9833C65.3338 27.7393 63.8927 26.3807 62.1017 26.3807C60.3106 26.3807 58.8695 27.7393 58.8695 29.9833C58.8695 32.2273 60.3106 33.5861 62.1017 33.5861ZM82.3777 37.1888L81.4101 34.6772H75.9339L74.9663 37.1888H70.0254L76.325 22.7779H81.1013L87.4009 37.1888H82.3777ZM77.2721 31.1773H80.0719L78.6719 27.5541L77.2721 31.1773ZM87.9703 37.1888V22.7779H95.0729C99.8903 22.7779 103.205 25.516 103.205 29.9833C103.205 34.4507 99.8903 37.1888 95.0729 37.1888H87.9703ZM92.8289 33.4008H94.867C96.9051 33.4008 98.3051 32.1861 98.3051 29.9833C98.3051 27.7805 96.9051 26.5659 94.867 26.5659H92.8289V33.4008Z" fill="white"/>
<mask id="mask0_2450_2544" style="mask-type:alpha" maskUnits="userSpaceOnUse" x="3" y="1" width="32" height="38">
<path d="M34.3099 22.7889C34.3099 31.0249 27.4347 38.2407 18.9537 38.2407C10.4728 38.2407 3.59766 31.0249 3.59766 22.7889C3.59766 14.5529 10.4728 1.85743 18.9537 1.85743C27.4347 1.85743 34.3099 14.5529 34.3099 22.7889Z" fill="#D9D9D9"/>
</mask>
<g mask="url(#mask0_2450_2544)">
<path d="M34.3099 22.7889C34.3099 31.0249 27.4347 38.2407 18.9537 38.2407C10.4728 38.2407 3.59766 31.0249 3.59766 22.7889C3.59766 14.5529 10.4728 1.85743 18.9537 1.85743C27.4347 1.85743 34.3099 14.5529 34.3099 22.7889Z" fill="#F1C425"/>
<path d="M23.6016 30.8769C35.8492 26.7827 33.9517 17.4476 30.2429 10.651L39.6443 20.5593L41.1968 39.3932L16.874 44.6339L-4.34375 33.6611L5.66137 14.4997C2.12508 24.2441 11.3539 34.9713 23.6016 30.8769Z" fill="url(#paint0_linear_2450_2544)"/>
<path d="M14.8739 24.6013C20.7377 25.9098 26.652 22.0656 28.0838 16.0149C29.5156 9.96414 25.9227 3.99826 20.0588 2.68969C14.195 1.38112 8.28072 5.22539 6.84894 11.2761C5.41716 17.3268 9.01005 23.2927 14.8739 24.6013Z" fill="#FFD12F"/>
<path d="M33.6545 22.7889C33.6545 30.6759 27.0601 37.5868 18.9522 37.5868C10.8443 37.5868 4.25 30.6759 4.25 22.7889C4.25 18.8231 5.91667 13.7135 8.63928 9.59528C11.376 5.45571 15.0436 2.51127 18.9522 2.51127C22.8609 2.51127 26.5285 5.45571 29.2652 9.59528C31.9878 13.7135 33.6545 18.8231 33.6545 22.7889Z" stroke="url(#paint1_linear_2450_2544)" stroke-width="0.980764"/>
<path d="M10.0441 18.288C12.7282 20.2553 17.1435 18.9695 19.9059 15.416C22.6683 11.8625 22.7317 7.38695 20.0476 5.41961C17.3634 3.45227 12.9481 4.73811 10.1858 8.29161C7.42337 11.8451 7.35994 16.3206 10.0441 18.288Z" fill="#FFF27C"/>
</g>
<g clip-path="url(#clip0_2450_2544)">
<g clip-path="url(#clip1_2450_2544)">
<path d="M122 30C122 34.4183 118.418 38 114 38C109.582 38 106 34.4183 106 30C106 30.0019 114 22.0009 114 22C118.418 22 122 25.5817 122 30Z" fill="#0052B4"/>
<path d="M113.98 30H114.002C114.002 29.9928 114.002 29.9858 114.002 29.9786C113.995 29.9857 113.988 29.9929 113.98 30Z" fill="#F0F0F0"/>
<path d="M114 26.1739C114 24.7663 114 23.8439 114 22H113.999C109.581 22.0008 106 25.5822 106 30H110.174V27.6497L112.524 30H113.979C113.986 29.9929 113.993 29.9858 114 29.9786C114 29.4396 114 28.9587 114 28.5243L111.65 26.1739H114Z" fill="#F0F0F0"/>
<path d="M110.047 23.0435C108.796 23.7559 107.755 24.7961 107.043 26.0473V30H109.13V25.1305V25.1304H114C114 24.4722 114 23.8452 114 23.0435H110.047Z" fill="#D80027"/>
<path d="M113.998 29.0162L111.156 26.1739C111.156 26.1739 110.172 26.174 110.172 26.1739V26.174L113.998 30H113.998C113.998 30 113.998 29.3217 113.998 29.0162Z" fill="#D80027"/>
<path d="M119.853 27.9362L120.025 28.4677H120.584L120.132 28.7961L120.305 29.3275L119.853 28.9991L119.401 29.3275L119.573 28.7961L119.121 28.4677H119.68L119.853 27.9362Z" fill="#D80027"/>
<path d="M117.855 31.7623L118.114 32.5595H118.952L118.274 33.0521L118.533 33.8493L117.855 33.3566L117.177 33.8493L117.436 33.0521L116.758 32.5595H117.596L117.855 31.7623Z" fill="#D80027"/>
<path d="M117.93 25.5014L118.146 26.1658H118.844L118.279 26.5763L118.495 27.2406L117.93 26.83L117.365 27.2406L117.581 26.5763L117.016 26.1658H117.714L117.93 25.5014Z" fill="#D80027"/>
<path d="M116.011 27.913L116.27 28.7102H117.108L116.43 29.2028L116.689 30L116.011 29.5073L115.333 30L115.592 29.2028L114.914 28.7102H115.752L116.011 27.913Z" fill="#D80027"/>
</g>
</g>
<rect x="106.5" y="22.5" width="15" height="15" rx="7.5" stroke="white"/>
<defs>
<linearGradient id="paint0_linear_2450_2544" x1="34.6417" y1="27.6835" x2="3.957" y2="30.2255" gradientUnits="userSpaceOnUse">
<stop stop-color="#C29920"/>
<stop offset="0.995" stop-color="#DBB017"/>
</linearGradient>
<linearGradient id="paint1_linear_2450_2544" x1="18.9522" y1="1.85743" x2="18.9522" y2="38.2407" gradientUnits="userSpaceOnUse">
<stop stop-color="#FFF27D"/>
<stop offset="1" stop-color="#FFD846"/>
</linearGradient>
<clipPath id="clip0_2450_2544">
<rect x="106" y="22" width="16" height="16" rx="8" fill="white"/>
</clipPath>
<clipPath id="clip1_2450_2544">
<rect width="16" height="16" fill="white" transform="translate(106 22)"/>
</clipPath>
</defs>
</svg>
