<svg width="68" height="25" viewBox="0 0 68 25" fill="none" xmlns="http://www.w3.org/2000/svg">
<g clip-path="url(#clip0_2342_2169)">
<path d="M26.5427 0.11377C27.2526 0.406583 28.0288 0.401983 28.749 0.684065C29.5765 1.00601 30.3424 1.4184 31.0699 1.92737C31.4153 2.16959 31.4359 2.35816 31.1478 2.68777C30.5922 3.32092 30.0822 3.99699 29.5544 4.65467C28.1699 3.55087 26.6897 2.84413 24.8891 3.31172C23.0797 3.78083 21.7715 5.81979 22.042 7.76983C22.3477 9.97437 23.9881 11.5012 25.9812 11.4354C26.0783 11.4323 26.1753 11.4215 26.2723 11.4139C28.092 11.2698 28.3447 10.9832 28.3595 9.14651C28.3639 8.5195 28.0979 7.70852 28.4639 7.31145C28.8651 6.87606 29.6647 7.17347 30.2879 7.16735C31.4918 7.15661 31.3169 6.99104 31.3257 8.24969C31.3345 9.51445 31.3286 10.7793 31.3272 12.0455C31.3272 12.3184 31.3683 12.5867 31.0743 12.7752C28.5153 14.4126 24.6995 15.2588 21.6833 13.2536C19.2624 11.6454 18.2335 9.2707 18.6113 6.33796C18.9979 3.33318 20.772 1.49199 23.5001 0.559888C24.066 0.366723 24.6848 0.406583 25.2243 0.11377H26.5442H26.5427Z" fill="white"/>
<path d="M7.192 0.11377C7.88872 0.418847 8.65893 0.483235 9.33213 0.884895C10.2581 1.43526 10.9108 2.19872 11.2812 3.23353C11.3826 3.51868 11.3737 3.69958 11.0283 3.76551C10.6462 3.83909 10.2655 3.93414 9.89803 4.06292C9.14693 4.32659 8.56339 4.45078 8.0019 3.53401C7.46246 2.65403 5.46785 2.53293 4.61973 3.10322C4.21551 3.37458 4.02737 3.74864 4.05824 4.25454C4.08764 4.72059 4.35074 4.98121 4.7285 5.16058C5.5531 5.55457 6.4453 5.68795 7.32134 5.87498C8.11361 6.04515 8.87206 6.30577 9.58789 6.69056C10.9475 7.42337 11.4693 8.63601 11.4869 10.1767C11.5046 11.7144 10.9387 12.9791 9.6114 13.5862C7.07588 14.7483 4.50655 14.7223 2.06215 13.2153C1.25226 12.7154 0.833342 11.8907 0.545248 10.9754C0.439417 10.6382 0.52614 10.5293 0.821583 10.4527C1.52859 10.2687 2.23413 10.0755 2.93526 9.86552C3.25715 9.76894 3.38944 9.87471 3.52908 10.1951C4.14202 11.604 6.24834 12.2325 7.54036 11.4247C8.4311 10.8682 8.45315 9.60184 7.54183 9.07293C6.55261 8.49803 5.40905 8.44131 4.33163 8.16383C3.094 7.84649 1.83873 7.51228 1.16406 6.23525C-0.204386 3.64592 1.20375 0.82204 4.11262 0.267075C4.26402 0.237947 4.46687 0.348327 4.55358 0.11377H7.192Z" fill="white"/>
<path d="M66.7105 11.9674C65.6493 11.9582 64.5895 11.949 63.5283 11.9414C62.8448 10.9939 62.3567 9.92385 61.7865 8.90591C60.1828 6.04523 58.5924 3.17689 56.9961 0.311616C59.8933 0.297818 62.7904 0.282489 65.6874 0.268691C66.0285 0.267158 66.3695 0.267158 66.7105 0.265625V11.9674Z" fill="#E11A41"/>
<path d="M45.0656 5.61887C44.1557 7.69616 43.237 9.76731 42.3449 11.8523C42.1155 12.3873 41.8495 12.6556 41.216 12.6295C39.7196 12.5667 39.7329 12.6034 39.1316 11.1885C38.3586 9.36872 37.5589 7.56125 36.7666 5.74918C36.7373 5.68326 36.68 5.63114 36.5668 5.4809C36.5492 5.76604 36.5241 5.96995 36.5241 6.17384C36.5212 8.68038 36.5124 11.1869 36.5315 13.692C36.5344 14.1335 36.4654 14.3296 35.9817 14.2929C35.3498 14.2439 34.7104 14.2469 34.0783 14.2929C33.5697 14.3282 33.4227 14.1672 33.4272 13.6276C33.4521 10.1843 33.4389 6.7426 33.4389 3.29936C33.4389 2.51444 33.4742 1.72799 33.4272 0.946126C33.3948 0.414157 33.5977 0.297645 34.0562 0.312976C34.8367 0.340571 35.6217 0.362034 36.3992 0.306843C36.9239 0.27005 37.1782 0.480079 37.387 0.94766C38.4497 3.32389 39.5359 5.6894 40.6148 8.05796C40.6824 8.20666 40.7574 8.35383 40.8867 8.62212C41.4893 7.34509 42.045 6.17843 42.5933 5.00871C43.2723 3.55998 43.9543 2.11125 44.6143 0.651781C44.7422 0.369698 44.901 0.30991 45.1729 0.314509C46.0518 0.331372 46.9309 0.326774 47.8098 0.317575C48.0949 0.314509 48.3007 0.358967 48.458 0.667112C48.846 1.42137 49.2811 2.15111 49.703 2.88697C49.8852 3.20585 49.9705 3.40208 49.4516 3.41588C48.2508 3.44653 48.2508 3.4726 48.2508 4.7527C48.2508 7.71456 48.236 10.6764 48.264 13.6382C48.2684 14.1763 48.1287 14.3328 47.6187 14.2944C46.8691 14.2377 45.9078 14.5381 45.4197 14.158C44.9553 13.7946 45.2875 12.7415 45.2802 11.9933C45.2581 9.87462 45.2728 7.75594 45.2728 5.63726C45.2037 5.63267 45.1332 5.62807 45.064 5.62194L45.0656 5.61887Z" fill="white"/>
<path d="M56.9965 0.311523C58.5928 3.1768 60.1832 6.04514 61.7869 8.90582C62.3571 9.92376 62.8452 10.9923 63.5287 11.9412C63.7006 12.7845 64.3503 13.3777 64.6457 14.2807C63.5874 14.2807 62.56 14.2761 61.5326 14.2837C61.2136 14.2853 61.1504 14.0109 61.0269 13.8116C60.6404 13.1861 60.4037 12.4625 59.8819 11.9244C58.9721 10.261 58.0622 8.59921 57.1538 6.93584C57.0142 6.67983 56.8893 6.56331 56.7099 6.90825C56.3645 7.57206 56.0074 8.22821 55.656 8.88742C54.7521 10.0709 54.0877 11.417 53.4438 12.7492C52.8765 13.9235 52.2047 14.549 50.8907 14.2991C50.3747 14.201 49.828 14.2837 49.1562 14.2837C49.7809 13.1478 50.3439 12.1068 50.9215 11.0751C51.8476 9.42092 52.7839 7.77289 53.7099 6.11873C53.7805 5.99302 53.8084 5.83971 53.8569 5.70021C53.9804 5.48864 54.1156 5.28168 54.2273 5.06399C55.0504 3.46041 56.0485 1.95802 56.8011 0.313056C56.8657 0.313056 56.929 0.313056 56.9936 0.313056L56.9965 0.311523Z" fill="white"/>
<path d="M15.2468 3.43721C15.5791 4.3877 16.1788 5.18489 16.6432 6.06027C16.7918 6.33928 16.8653 6.59837 16.8637 6.91111C16.8549 9.1647 16.8491 11.4183 16.8681 13.6719C16.8711 14.1042 16.8138 14.3173 16.3229 14.2927C15.4938 14.2498 14.6604 14.2529 13.8314 14.2927C13.3801 14.3142 13.3272 14.118 13.3287 13.7225C13.342 10.4555 13.3463 7.18859 13.3243 3.92166C13.3214 3.42341 13.489 3.3253 13.9166 3.34829C14.2753 3.36668 14.6471 3.43568 15.0014 3.29004C15.0279 3.43721 15.1176 3.4694 15.244 3.43721H15.2468Z" fill="white"/>
<path d="M56.8052 0.310059C56.0527 1.95502 55.0547 3.45742 54.2315 5.06099C54.1198 5.28022 53.9846 5.48565 53.8611 5.69721C52.9895 4.08904 52.1149 2.48239 51.252 0.869623C51.1654 0.708653 51.0169 0.552281 51.0728 0.310059H56.8068H56.8052Z" fill="#E11A41"/>
<path d="M55.6582 8.8858C56.011 8.22659 56.3682 7.57044 56.7122 6.90663C56.8914 6.56169 57.0163 6.67821 57.156 6.93422C58.0629 8.59759 58.9743 10.2594 59.884 11.9227C59.1535 11.9366 58.423 11.9458 57.6925 11.9672C57.4824 11.9734 57.3119 11.9273 57.203 11.7266C56.6886 10.7791 56.1741 9.83322 55.6596 8.88733L55.6582 8.8858Z" fill="#E11A41"/>
<path d="M15.2473 3.43745C15.1208 3.46964 15.0312 3.43745 15.0047 3.29028C14.4668 2.30912 13.9302 1.3295 13.3496 0.268626C14.4329 0.268626 15.4206 0.28089 16.4099 0.262493C16.748 0.256361 16.8994 0.346812 16.8714 0.723942C16.8435 1.10107 16.8656 1.48127 16.8656 1.85841C16.8656 2.95096 16.3266 3.47731 15.2487 3.43745H15.2473Z" fill="#E11A41"/>
<path d="M63.8418 15.9258H3.94465C3.5006 15.9258 3.14062 16.3012 3.14062 16.7644V23.2124C3.14062 23.6755 3.5006 24.051 3.94465 24.051H63.8418C64.2859 24.051 64.6459 23.6755 64.6459 23.2124V16.7644C64.6459 16.3012 64.2859 15.9258 63.8418 15.9258Z" fill="#E11A41"/>
<path d="M17.4023 17.2905H21.7591V18.4435H19.0325V19.3004H21.5621V20.4011H19.0325V21.4651H21.8385V22.6869H17.4023V17.2905Z" fill="white"/>
<path d="M26.2114 17.2905H27.8342V20.5054C27.8342 20.8243 27.7856 21.1247 27.6886 21.4083C27.5916 21.6919 27.4402 21.9388 27.2329 22.1519C27.0257 22.3634 26.8096 22.5137 26.5818 22.5995C26.2657 22.7191 25.8865 22.7805 25.4441 22.7805C25.1884 22.7805 24.909 22.762 24.6063 22.7253C24.3035 22.6884 24.0507 22.6149 23.8479 22.506C23.645 22.3972 23.4583 22.2424 23.2893 22.0399C23.1202 21.8392 23.0056 21.6321 22.9424 21.4176C22.8425 21.0742 22.791 20.7706 22.791 20.5054V17.2905H24.4138V20.5821C24.4138 20.8763 24.4931 21.1063 24.6519 21.2719C24.8106 21.4375 25.0311 21.5203 25.3133 21.5203C25.5955 21.5203 25.813 21.439 25.9718 21.2749C26.1305 21.1125 26.2099 20.8809 26.2099 20.5821V17.2905H26.2114Z" fill="white"/>
<path d="M29.0039 22.6869V17.2905H31.7129C32.2156 17.2905 32.5992 17.335 32.8653 17.4224C33.1313 17.5098 33.3445 17.6738 33.5076 17.9145C33.6708 18.1537 33.7516 18.4449 33.7516 18.7883C33.7516 19.0873 33.6899 19.3464 33.565 19.5626C33.44 19.7787 33.2695 19.9565 33.0519 20.0914C32.9138 20.1773 32.7227 20.2479 32.4816 20.3045C32.6757 20.3705 32.8167 20.438 32.905 20.5038C32.9653 20.5483 33.0519 20.6433 33.1651 20.7874C33.2783 20.9331 33.3548 21.0435 33.3929 21.1232L34.1808 22.6869H32.3435L31.4748 21.0373C31.3646 20.8243 31.266 20.6848 31.1808 20.6219C31.0632 20.5391 30.9309 20.4962 30.7825 20.4962H30.6384V22.6869H29.0053H29.0039ZM30.637 19.4783H31.3219C31.3954 19.4783 31.5395 19.4537 31.7526 19.4046C31.8599 19.3832 31.9481 19.3265 32.0157 19.236C32.0833 19.1455 32.1186 19.0413 32.1186 18.9233C32.1186 18.7485 32.0642 18.6151 31.9569 18.5216C31.8496 18.4281 31.6468 18.3821 31.3498 18.3821H30.6355V19.4797L30.637 19.4783Z" fill="white"/>
<path d="M34.4434 19.993C34.4434 19.1115 34.6829 18.4262 35.1607 17.9356C35.6383 17.445 36.3057 17.1997 37.1596 17.1997C38.0136 17.1997 38.7103 17.4404 39.1837 17.9234C39.657 18.4063 39.8937 19.0808 39.8937 19.95C39.8937 20.5802 39.7908 21.0982 39.5835 21.5014C39.3762 21.9046 39.0778 22.2189 38.6868 22.4443C38.2959 22.6682 37.8079 22.7816 37.2244 22.7816C36.6408 22.7816 36.1396 22.685 35.7515 22.4902C35.362 22.2971 35.0475 21.989 34.8064 21.5704C34.5653 21.1504 34.4434 20.6261 34.4434 19.9945V19.993ZM36.069 20.0006C36.069 20.5449 36.1675 20.9373 36.3645 21.1749C36.5614 21.4125 36.8304 21.5321 37.17 21.5321C37.5095 21.5321 37.7887 21.4157 37.9814 21.1826C38.1724 20.9496 38.2679 20.531 38.2679 19.927C38.2679 19.4196 38.168 19.0486 37.9681 18.8141C37.7682 18.5795 37.4977 18.4629 37.1552 18.4629C36.8128 18.4629 36.5644 18.5825 36.366 18.8201C36.1675 19.0578 36.0675 19.4517 36.0675 20.0022L36.069 20.0006Z" fill="white"/>
<path d="M40.8359 17.2905H43.5376C44.1255 17.2905 44.5665 17.4346 44.8605 17.7214C45.153 18.008 45.3 18.4174 45.3 18.9478C45.3 19.4783 45.1397 19.9182 44.8208 20.2248C44.5018 20.5315 44.0138 20.6848 43.3582 20.6848H42.469V22.6869H40.8359V17.2905ZM42.4675 19.5917H42.8658C43.1789 19.5917 43.3994 19.5365 43.5258 19.4245C43.6522 19.3127 43.7154 19.17 43.7154 18.9954C43.7154 18.8206 43.6595 18.6825 43.5508 18.5645C43.4406 18.4465 43.2333 18.3883 42.9306 18.3883H42.4675V19.5917Z" fill="white"/>
<path d="M46.2207 17.2905H50.5775V18.4435H47.8509V19.3004H50.3805V20.4011H47.8509V21.4651H50.6568V22.6869H46.2207V17.2905Z" fill="white"/>
</g>
<defs>
<clipPath id="clip0_2342_2169">
<rect width="67" height="24" fill="white" transform="translate(0.5 0.11377)"/>
</clipPath>
</defs>
</svg>
