<?xml version="1.0" encoding="utf-8"?><svg viewBox="0 0 24 24" xmlns="http://www.w3.org/2000/svg" xmlns:xlink="http://www.w3.org/1999/xlink"><style>:root>svg{display:none}:root>svg:target{display:block}</style><svg fill="none" viewBox="0 0 24 24" id="blog" xmlns="http://www.w3.org/2000/svg"><g clip-path="url(#aclip0_791_4474)"><path d="M-.209 16V7.41h1.647v3.094c.507-.578 1.109-.867 1.804-.867.758 0 1.385.275 1.881.826.496.547.744 1.334.744 2.361 0 1.063-.254 1.881-.762 2.455-.503.575-1.117.862-1.84.862-.355 0-.706-.088-1.054-.264a2.551 2.551 0 01-.89-.791V16H-.21zm1.635-3.246c0 .644.101 1.121.304 1.43.286.437.665.656 1.137.656.363 0 .672-.155.926-.463.258-.313.387-.803.387-1.47 0-.712-.13-1.223-.387-1.536a1.22 1.22 0 00-.99-.475c-.395 0-.723.155-.985.463-.261.305-.392.77-.392 1.395zM7.197 16V7.41h1.647V16H7.197zm2.96-3.2c0-.546.134-1.075.403-1.587a2.78 2.78 0 011.143-1.172 3.417 3.417 0 011.658-.404c.942 0 1.713.306 2.315.92.601.609.902 1.38.902 2.314 0 .941-.305 1.723-.914 2.344-.605.617-1.37.926-2.291.926-.57 0-1.115-.13-1.635-.387a2.66 2.66 0 01-1.178-1.131c-.269-.5-.404-1.107-.404-1.822zm1.687.089c0 .617.146 1.09.44 1.418.292.328.653.492 1.083.492.43 0 .79-.164 1.078-.492.293-.329.44-.805.44-1.43 0-.61-.147-1.078-.44-1.406a1.379 1.379 0 00-1.078-.492c-.43 0-.79.164-1.084.492-.293.328-.44.8-.44 1.418zm5.877 3.521l1.88.229c.032.218.104.369.217.45.157.118.403.177.739.177.43 0 .752-.065.966-.194a.797.797 0 00.329-.416c.05-.136.076-.388.076-.756v-.908c-.492.672-1.114 1.008-1.864 1.008-.835 0-1.498-.354-1.986-1.06-.383-.56-.574-1.255-.574-2.086 0-1.043.25-1.84.75-2.391a2.439 2.439 0 011.875-.826c.77 0 1.404.338 1.904 1.013v-.873h1.541v5.584c0 .735-.06 1.284-.181 1.647-.122.363-.291.648-.51.855-.219.207-.512.37-.88.487-.362.117-.823.175-1.382.175-1.055 0-1.803-.181-2.244-.544-.441-.36-.662-.817-.662-1.372 0-.054.002-.12.006-.199zm1.47-3.65c0 .66.127 1.144.381 1.453.258.305.575.457.95.457.402 0 .742-.156 1.019-.469.277-.316.416-.783.416-1.4 0-.645-.133-1.123-.398-1.436a1.266 1.266 0 00-1.008-.469c-.395 0-.72.155-.979.463-.254.305-.38.772-.38 1.4z" fill="#fff"/></g><defs><clipPath id="aclip0_791_4474"><path fill="#fff" d="M0 0h24v24H0z"/></clipPath></defs></svg><svg fill="none" viewBox="0 0 24 24" id="email" xmlns="http://www.w3.org/2000/svg"><path fill-rule="evenodd" clip-rule="evenodd" d="M17.932 12a5.928 5.928 0 00-11.856 0 5.928 5.928 0 007.523 5.705c.249-.07.435-.169.696-.249.519-.161 1.167.121 1.298.649.15.602-.147 1.116-.647 1.331-.24.102-.544.198-.661.232A8.004 8.004 0 014 12c0-4.415 3.585-8 8-8s8 3.585 8 8l-.001.098a7.984 7.984 0 01-.232 1.815l-.004.014c-.573 1.929-1.852 2.758-3.326 2.758-.948-.007-1.823-.495-2.273-1.313a3.794 3.794 0 01-2.312.787c-2.162 0-3.917-1.828-3.917-4.079C7.935 9.828 9.69 8 11.852 8c.832 0 1.605.271 2.24.733a.884.884 0 011.677.392v4.414c0 .501.244.993.861.993.542 0 .951-.524 1.191-1.387.067-.34.104-.687.11-1.045l.001-.1zm-6.027-1.959c1.115 0 2.021.916 2.021 2.044 0 1.129-.906 2.045-2.021 2.045a2.034 2.034 0 01-2.022-2.045c0-1.128.906-2.044 2.022-2.044z" fill="#fff"/></svg><svg fill="none" viewBox="0 0 24 24" id="facebook" xmlns="http://www.w3.org/2000/svg"><g clip-path="url(#cclip0_791_4458)"><path fill-rule="evenodd" clip-rule="evenodd" d="M9.826 20.735v-5.984H7.968V12h1.858v-1.185c0-3.063 1.385-4.482 4.391-4.482.57 0 1.552.111 1.955.223v2.492a12.027 12.027 0 00-1.04-.033c-1.476 0-2.045.558-2.045 2.012V12h2.942l-.505 2.75h-2.433v6.185a9 9 0 10-3.265-.2z" fill="#fff"/></g><defs><clipPath id="cclip0_791_4458"><path fill="#fff" transform="translate(3 3)" d="M0 0h18v18H0z"/></clipPath></defs></svg><svg fill="none" viewBox="0 0 24 24" id="facebook_2" xmlns="http://www.w3.org/2000/svg"><g clip-path="url(#dclip0_1149_3759)"><g clip-path="url(#dclip1_1149_3759)"><path d="M13.454 23.913C19.396 23.194 24 18.135 24 12c0-6.627-5.373-12-12-12S0 5.373 0 12c0 5.628 3.874 10.35 9.101 11.647l.232-.98H13l.454 1.246z" fill="#0866FF"/><path d="M9.1 23.648v-7.98H6.625V12h2.477v-1.58c0-4.084 1.848-5.976 5.856-5.976.758 0 2.068.149 2.606.298v3.322a16.037 16.037 0 00-1.387-.044c-1.968 0-2.727.744-2.727 2.684V12h3.922l-.672 3.667h-3.244v8.247c-1.456.175-2.93.085-4.354-.266z" fill="#fff"/></g></g><defs><clipPath id="dclip0_1149_3759"><path fill="#fff" d="M0 0h24v24H0z"/></clipPath><clipPath id="dclip1_1149_3759"><path fill="#fff" d="M0 0h24v24H0z"/></clipPath></defs></svg><svg fill="none" viewBox="0 0 24 24" id="instagram" xmlns="http://www.w3.org/2000/svg"><g clip-path="url(#eclip0_791_4449)"><path fill-rule="evenodd" clip-rule="evenodd" d="M8.702 4.048C9.555 4.008 9.827 4 12 4s2.446.01 3.297.048c.853.038 1.434.175 1.943.372a3.926 3.926 0 011.418.923c.406.4.721.883.921 1.417.198.509.334 1.09.373 1.941.039.855.048 1.127.048 3.299 0 2.173-.01 2.446-.048 3.298-.038.851-.175 1.433-.373 1.942a3.924 3.924 0 01-.922 1.418 3.92 3.92 0 01-1.417.921c-.509.198-1.09.334-1.941.373-.853.039-1.126.048-3.299.048s-2.446-.01-3.298-.048c-.851-.038-1.433-.175-1.942-.373a3.925 3.925 0 01-1.418-.922 3.921 3.921 0 01-.922-1.417c-.198-.509-.332-1.09-.372-1.941C4.008 14.444 4 14.171 4 12c0-2.173.01-2.446.048-3.298.038-.852.175-1.433.372-1.942a3.924 3.924 0 01.923-1.418c.4-.406.883-.721 1.417-.922.509-.198 1.09-.332 1.942-.372zm6.53 1.44c-.843-.038-1.096-.046-3.232-.046s-2.39.007-3.233.046c-.78.036-1.204.166-1.485.276-.374.145-.64.318-.92.597-.266.259-.47.573-.598.92-.11.282-.24.706-.276 1.486-.038.844-.046 1.097-.046 3.233s.007 2.39.046 3.233c.036.78.166 1.204.276 1.485.128.347.332.663.597.92.259.266.573.47.92.598.282.11.706.24 1.486.276.844.038 1.097.046 3.233.046 2.137 0 2.39-.007 3.233-.046.78-.036 1.204-.166 1.485-.276.374-.145.64-.317.92-.597.266-.259.47-.573.598-.92.11-.282.24-.706.276-1.486.038-.844.046-1.097.046-3.233s-.007-2.39-.046-3.233c-.036-.78-.166-1.204-.276-1.485a2.484 2.484 0 00-.597-.92 2.482 2.482 0 00-.92-.598c-.282-.11-.706-.24-1.486-.276zm-4.254 8.978a2.67 2.67 0 102.028-4.94 2.67 2.67 0 00-2.028 4.94zM9.093 9.093a4.112 4.112 0 115.882 5.748 4.112 4.112 0 01-5.882-5.748zm7.931-.592a.972.972 0 10-1.294-1.45.972.972 0 001.294 1.45z" fill="#fff"/></g><defs><clipPath id="eclip0_791_4449"><path fill="#fff" transform="translate(4 4)" d="M0 0h16v16H0z"/></clipPath></defs></svg><svg fill="none" viewBox="0 0 24 24" id="linkedin" xmlns="http://www.w3.org/2000/svg"><path d="M18.8 4H5.2A1.2 1.2 0 004 5.2v13.6A1.2 1.2 0 005.2 20h13.6a1.2 1.2 0 001.2-1.2V5.2A1.2 1.2 0 0018.8 4zm-10 13.6H6.4v-7.2h2.4v7.2zM7.6 9a1.4 1.4 0 111.44-1.4A1.424 1.424 0 017.6 9zm10 8.6h-2.4v-3.792c0-1.136-.48-1.544-1.104-1.544a1.394 1.394 0 00-1.296 1.488.524.524 0 000 .112V17.6h-2.4v-7.2h2.32v1.04a2.488 2.488 0 012.16-1.12c1.24 0 2.688.688 2.688 2.928L17.6 17.6z" fill="#fff"/></svg><svg fill="none" viewBox="0 0 24 24" id="murkrack" xmlns="http://www.w3.org/2000/svg"><path d="M5.808 5.068h.557v5.695H4.906V7.78L3.249 9.272h-.173L1.46 7.78v2.97H0V5.054h.53L3.17 7.522l2.639-2.454zM16.999 8.743c-.146.176-.279.325-.438.434-.026.013-.04.027-.066.04a.1.1 0 01-.053.027c-.027.014-.066.028-.093.055-.013 0-.026.013-.04.013a1.483 1.483 0 01-.53.109c-.703 0-1.38-.516-1.38-1.519 0-1.03.677-1.519 1.393-1.519.451 0 .902.23 1.154.678 0 .014.013.014.013.027l1.14-.895C17.57 5.407 16.68 5 15.78 5c-1.419 0-2.824.976-2.824 2.916 0 1.952 1.352 2.902 2.797 2.902 1.048 0 1.883-.475 2.374-1.248l-1.127-.827zM21.865 7.577l1.87-2.279v-.23H22.09L20.155 7.36V5.068h-1.459v5.695h1.459V9.258l.69-.773 1.484 2.278H24v-.203l-2.135-2.983zM7.16 8.241V5.068H8.62V8.24c0 .814.517 1.207 1.127 1.207s1.127-.38 1.127-1.166V5.068h1.458v3.146c0 1.83-1.047 2.63-2.598 2.63-1.565 0-2.573-.827-2.573-2.603zM19.796 15.759l1.936-2.278v-.23h-1.71l-2.002 2.291V13.25H16.56v5.696h1.459V17.44l.729-.772 1.512 2.278h1.604v-.204l-2.069-2.983zM8.46 13.25h-.942l-2.493 5.492v.19h1.459l.318-.678h2.36l.332.678h1.498v-.19L8.46 13.25zm.238 3.797H7.293l.61-1.491h.185l.61 1.491zM14.93 16.925c-.146.177-.278.326-.437.434-.027.014-.04.027-.066.04a.1.1 0 01-.054.028c-.026.014-.066.027-.092.054-.014 0-.027.014-.04.014a1.482 1.482 0 01-.53.108c-.703 0-1.38-.515-1.38-1.519 0-1.03.677-1.518 1.393-1.518.45 0 .901.23 1.153.678 0 .013.014.013.014.027l1.14-.895c-.53-.787-1.419-1.194-2.307-1.194-1.432 0-2.825.977-2.825 2.916 0 1.953 1.353 2.902 2.798 2.902 1.048 0 1.883-.475 2.374-1.248l-1.14-.827zM3.912 16.925c.556-.38.822-1.017.835-1.681 0-1.004-.65-2.02-2.002-2.02-.822-.014-1.95 0-2.745 0v5.708h1.459V17.17h.835l.849 1.763h1.485l.04-.244-.916-1.681a.687.687 0 00.16-.082zm-2.467-2.454h1.273c.411 0 .61.38.61.732 0 .353-.199.76-.61.76H1.445V14.47z" fill="#fff"/></svg><svg fill="none" viewBox="0 0 24 24" id="telegram" xmlns="http://www.w3.org/2000/svg"><g clip-path="url(#hclip0_1154_3738)"><path d="M12.005 24.01c6.63 0 12.005-5.375 12.005-12.005C24.01 5.375 18.635 0 12.005 0 5.375 0 0 5.375 0 12.005c0 6.63 5.375 12.005 12.005 12.005z" fill="url(#hpaint0_linear_1154_3738)"/><path fill-rule="evenodd" clip-rule="evenodd" d="M5.428 11.875a797.741 797.741 0 016.997-3.019c3.328-1.39 4.028-1.63 4.478-1.64.1 0 .32.02.47.14.12.1.15.23.17.33.02.1.04.31.02.47-.18 1.9-.96 6.508-1.36 8.627-.17.9-.5 1.2-.82 1.23-.7.06-1.229-.46-1.899-.9-1.06-.69-1.649-1.12-2.678-1.8-1.19-.78-.42-1.21.26-1.909.18-.18 3.248-2.979 3.308-3.228.01-.03.01-.15-.06-.21-.07-.06-.17-.04-.25-.02-.11.02-1.79 1.14-5.058 3.348-.48.33-.91.49-1.3.48-.429-.01-1.249-.24-1.868-.44-.75-.24-1.35-.37-1.3-.79.03-.22.33-.44.89-.67z" fill="#fff"/></g><defs><linearGradient id="hpaint0_linear_1154_3738" x1="11.995" y1="0" x2="11.995" y2="23.82" gradientUnits="userSpaceOnUse"><stop stop-color="#2AABEE"/><stop offset="1" stop-color="#229ED9"/></linearGradient><clipPath id="hclip0_1154_3738"><path fill="#fff" d="M0 0h24v24H0z"/></clipPath></defs></svg><svg fill="none" viewBox="0 0 24 24" id="wiki" xmlns="http://www.w3.org/2000/svg"><path d="M6.944 8.048l1.952 8.208h.08a164.68 164.68 0 002.192-7.888l.352-1.328h1.04l2.816 9.216h.08c1.216-5.024 1.824-7.755 1.824-8.192 0-.139-.107-.25-.32-.336-.203-.085-.555-.176-1.056-.272l.048-.464a41.389 41.389 0 003.952 0l.048.464c-.49.096-.843.203-1.056.32-.213.107-.341.261-.384.464-1.077 4.341-1.92 7.595-2.528 9.76l-1.472.144-2.656-8.64h-.064L9.408 18l-1.472.144-2.608-10a.741.741 0 00-.384-.4c-.17-.096-.496-.192-.976-.288l.048-.464c.672.032 1.387.048 2.144.048.757 0 1.472-.016 2.144-.048l.048.464c-.747.139-1.184.272-1.312.4a.242.242 0 00-.096.192z" fill="#fff"/></svg><svg fill="none" viewBox="0 0 24 24" id="x" xmlns="http://www.w3.org/2000/svg"><path d="M16.6 4.64h2.454l-5.36 6.125L20 19.102h-4.937l-3.867-5.056-4.425 5.056H4.316l5.733-6.553L4 4.639h5.063l3.495 4.621 4.043-4.62zm-.86 12.993h1.36L8.323 6.031H6.865l8.875 11.602z" fill="#fff"/></svg><svg fill="none" viewBox="0 0 24 24" id="youtube" xmlns="http://www.w3.org/2000/svg"><path d="M23.496 6.624a3.006 3.006 0 00-2.122-2.122C19.504 4 11.998 4 11.998 4s-7.505 0-9.376.502A3.009 3.009 0 00.5 6.624C0 8.494 0 12.4 0 12.4s0 3.906.502 5.777A3.005 3.005 0 002.624 20.3C4.494 20.8 12 20.8 12 20.8s7.506 0 9.376-.502a3.005 3.005 0 002.122-2.122C24 16.307 24 12.4 24 12.4s-.002-3.905-.504-5.776z" fill="red"/><path d="M9.6 16l6.233-3.6-6.234-3.6V16z" fill="#fff"/></svg></svg>