<svg width="159" height="40" viewBox="0 0 159 40" fill="none" xmlns="http://www.w3.org/2000/svg">
<path fill-rule="evenodd" clip-rule="evenodd" d="M38.4462 27.8593C35.7734 32.3635 30.8238 35.4322 25.2307 35.4322C21.073 35.4322 17.3113 33.7493 14.5395 31.0765H18.8457C18.8457 31.0765 31.2197 9.29822 31.2692 9.19923C31.3187 9.10023 31.3187 9.05074 31.2197 9.05074H26.1216C26.0226 9.05074 26.0226 9.10023 25.9731 9.10023C25.9236 9.14973 18.9942 21.2268 18.9942 21.2268H9.93635C9.88686 20.8308 9.88686 20.4844 9.88686 20.0884C9.88686 11.6245 16.7668 4.74457 25.2307 4.74457C29.5369 4.74457 33.447 6.52643 36.2683 9.44671C35.0804 11.4761 29.6358 20.7318 28.8934 22.0682C28.4479 21.0783 26.5176 21.2763 25.5277 21.2763C25.0822 22.0187 23.0528 25.8794 23.0528 25.8794H25.2307C26.2206 25.8794 26.3196 26.9189 25.9236 27.5623C25.5277 28.2058 23.8943 31.0765 23.8943 31.0765H29.0914C29.0914 31.0765 35.4764 19.8904 39.1391 13.5549C39.6341 14.5943 40.03 15.7327 40.2775 16.8711C41.5149 16.0297 42.9998 15.5347 44.6332 15.5347C42.5049 6.72442 34.635 0.190918 25.2307 0.190918C14.2425 0.190918 5.3332 9.10023 5.3332 20.0884C5.3332 20.4844 5.3332 20.8803 5.3827 21.2268H2.7594C2.61091 21.2268 2.56142 21.3258 2.46242 21.4248C2.41293 21.5238 0.136102 25.5825 0.0371094 25.6815C0.0371094 25.7805 0.0371094 25.83 0.136102 25.83H6.17464C8.64945 33.9968 16.2224 39.9364 25.2307 39.9364C32.4076 39.9364 38.6442 36.1747 42.1584 30.4826C40.6735 30.0371 39.3866 29.0967 38.4462 27.8593ZM10.9758 25.83H16.2719L13.6981 30.2351C12.6091 28.9482 11.6687 27.4633 10.9758 25.83Z" fill="#DA291C"/>
<path d="M41.9607 25.4835C43.3466 25.4835 44.9304 24.7906 46.3163 23.5532C46.3163 23.5532 46.1184 24.5431 46.0689 24.8401C46.0194 25.1371 46.2174 25.3845 46.5143 25.3845H46.6133C46.9103 25.3845 47.1578 25.1371 47.2073 24.8401L47.7022 22.0683C47.7517 21.7713 47.5537 21.5238 47.2568 21.5238H44.485C44.188 21.5238 43.891 21.6723 43.8415 21.9693V22.1178C43.792 22.4148 43.99 22.6127 44.287 22.6127H45.7224L45.6729 22.6622C44.683 23.6027 43.4456 24.0976 42.4556 24.0976C41.4657 24.0976 40.3273 23.4542 40.3273 22.0188C40.3273 19.049 43.0991 17.3167 44.584 17.3167C42.2577 17.3167 40.2283 18.7025 39.2879 20.7319C39.0899 21.3258 38.9414 21.8703 38.9414 22.4148C38.9414 25.0876 41.0697 25.4835 41.9607 25.4835Z" fill="white"/>
<path d="M44.5339 17.3662C43.049 17.3662 40.2772 19.0986 40.2772 22.0684C40.2772 23.5037 41.4157 24.1472 42.4056 24.1472C43.3955 24.1472 44.6329 23.6522 45.6228 22.7118L45.6723 22.6623H44.2369C43.94 22.6623 43.742 22.4643 43.7915 22.1673V22.0189C43.841 21.7219 44.1379 21.5734 44.4349 21.5734H47.2067C47.5037 21.5734 47.7017 21.8209 47.6522 22.1178L47.1572 24.8896C47.1077 25.1866 46.9097 25.4341 46.5633 25.4341H46.4643C46.1673 25.4341 45.9693 25.1866 46.0188 24.8896C46.0683 24.5927 46.2663 23.6027 46.2663 23.6027C44.9299 24.8401 43.2965 25.5331 41.9106 25.5331C41.0197 25.5331 38.8913 25.1371 38.8913 22.5138C38.8913 21.9694 38.9903 21.4249 39.2378 20.8309V20.8804C39.1883 20.9794 39.1388 21.1279 39.0893 21.2269C39.0398 21.3259 39.0398 21.3754 38.9903 21.4744C38.9408 21.5734 38.9408 21.7219 38.8913 21.8209C38.8913 21.9199 38.8418 21.9694 38.8418 22.0684C38.7924 22.2168 38.7924 22.3158 38.7924 22.4643C38.7924 22.5138 38.7924 22.6128 38.7429 22.6623C38.7429 22.8603 38.6934 23.0583 38.6934 23.3058C38.6934 23.5037 38.6934 23.7017 38.7429 23.8997C38.9408 25.6816 39.8813 27.216 41.2672 28.1564C41.7126 28.4534 42.2571 28.7008 42.8015 28.8988C43.346 29.0473 43.94 29.1463 44.5339 29.1463C45.5238 29.1463 46.4643 28.8988 47.3057 28.4534C48.2956 27.9089 49.1371 27.117 49.632 26.127C50.0775 25.2856 50.325 24.3452 50.325 23.3553C50.3745 19.9895 47.7512 17.3662 44.5339 17.3662Z" fill="#DA291C"/>
<path d="M53.2941 19.5935H53.591C54.3335 19.5935 54.68 19.247 54.8284 18.4056L56.4123 9.44676L57.9467 15.4358C58.0952 16.0298 58.1942 16.4257 59.3326 16.4257C60.3225 16.4257 60.5205 16.0792 60.867 15.5348L64.6287 9.34776L63.0448 18.3066C62.8963 19.148 63.2923 19.5935 63.9852 19.5935H64.2822C65.0247 19.5935 65.3711 19.1975 65.5196 18.4056L67.4995 7.31842C67.648 6.42749 67.252 5.83353 66.3116 5.83353H65.5196C64.7277 5.83353 64.4307 6.08102 63.8862 6.92245L59.6296 13.8024L57.8477 6.97195C57.6497 6.18001 57.4022 5.83353 56.5113 5.83353H55.8184C54.9769 5.83353 54.383 6.3285 54.2345 7.26892L52.2546 18.3561C52.2051 19.148 52.5516 19.5935 53.2941 19.5935ZM72.2016 19.5935C75.8148 19.5935 77.8442 16.7227 77.7452 13.5549C77.6462 10.8821 75.8148 8.9023 72.7461 8.9023C69.2318 8.9023 67.1035 11.7731 67.2025 14.8913C67.3015 17.7621 69.2813 19.5935 72.2016 19.5935ZM72.7461 10.8327C74.2805 10.8327 75.4684 12.0206 75.5179 13.6539C75.5674 15.8813 74.1815 17.6136 72.2016 17.6136C70.5682 17.6136 69.5288 16.4257 69.4298 14.7923C69.3803 12.7135 70.7662 10.8327 72.7461 10.8327ZM79.0816 19.5935H79.3786C80.121 19.5935 80.418 19.2965 80.5665 18.4056L81.5069 13.0105C82.1998 11.8226 82.9423 11.2286 84.1302 11.2286C85.3181 11.2286 86.0111 11.9216 86.0111 13.1095C86.0111 13.4065 85.9616 13.8024 85.9121 14.2479L85.1696 18.4056C85.0211 19.346 85.5656 19.5935 86.209 19.5935H86.506C87.2485 19.5935 87.5454 19.2965 87.6939 18.4056L88.4859 13.8024C88.5849 13.3075 88.6344 12.8125 88.6344 12.4165C88.5849 10.4367 87.298 9.10028 85.1201 9.10028C83.6352 9.10028 82.4968 9.84273 81.7544 11.0306C81.8039 9.64474 81.0614 9.24877 80.2695 9.24877C79.923 9.24877 79.626 9.34776 79.5765 9.39726L77.9927 18.4056C77.8937 19.2965 78.4381 19.5935 79.0816 19.5935ZM123.876 19.5935H124.173C124.816 19.5935 125.113 19.2965 125.262 18.4056L125.806 15.3863C126.202 13.06 127.093 11.3771 128.479 11.3771C129.172 11.3771 129.568 11.6741 129.914 11.9711C129.964 12.0206 131.003 11.6246 130.954 10.3377C130.904 9.54575 130.162 9.05079 129.172 9.05079C127.984 9.05079 127.093 9.74373 126.449 10.9811C126.548 9.59525 125.757 9.19928 125.014 9.19928C124.618 9.19928 124.371 9.29827 124.321 9.34776L122.737 18.3561C122.589 19.2965 123.183 19.5935 123.876 19.5935ZM134.468 19.5935C136.052 19.5935 137.24 18.95 138.032 17.6136C137.933 18.95 138.18 19.3955 139.17 19.3955C140.061 19.3955 140.308 19.0985 140.407 18.1086C140.506 16.3267 141.15 13.4065 141.843 9.34776C141.843 9.29827 141.447 9.05079 140.952 9.05079C139.962 9.05079 139.417 9.54575 139.12 10.7832C138.477 9.59525 137.19 8.9023 135.705 8.9023C132.537 8.9023 130.31 11.7236 130.31 14.9903C130.261 17.6136 131.894 19.5935 134.468 19.5935ZM136.002 10.7832C137.784 10.7832 138.576 12.1196 138.576 13.5549C138.576 15.3863 137.339 17.6136 135.062 17.6136C133.527 17.6136 132.587 16.6237 132.587 14.8913C132.587 12.8125 133.775 10.7832 136.002 10.7832ZM142.882 19.5935H143.179C143.823 19.5935 144.219 19.346 144.367 18.4056L145.357 12.8125C146.099 11.7236 146.743 11.2286 147.832 11.2286C148.871 11.2286 149.515 12.0206 149.515 13.2085C149.515 13.4065 149.515 13.6044 149.465 13.8024L148.673 18.4056C148.525 19.346 149.069 19.5935 149.713 19.5935H149.96C150.604 19.5935 151 19.2965 151.198 18.4056L152.187 12.8125C152.93 11.7236 153.623 11.2286 154.662 11.2286C155.652 11.2286 156.395 11.8226 156.395 13.1095C156.395 13.4065 156.345 13.8024 156.246 14.2479L155.504 18.4056C155.355 19.346 155.85 19.5935 156.543 19.5935H156.84C157.583 19.5935 157.88 19.2965 158.028 18.4056L158.82 13.8024C158.919 13.3075 158.968 12.8125 158.968 12.4165C158.968 10.3872 157.583 9.10028 155.652 9.10028C153.92 9.10028 152.732 9.99122 151.94 11.3276C151.544 9.94172 150.356 9.10028 148.822 9.10028C147.485 9.10028 146.347 9.74373 145.555 10.9316C145.604 9.64474 144.862 9.29827 144.07 9.29827C143.724 9.29827 143.427 9.39726 143.377 9.44676L141.793 18.4551C141.645 19.2965 142.189 19.5935 142.882 19.5935ZM94.2769 19.5935C97.2962 19.5935 99.0286 18.2571 99.0286 17.1682C99.0286 16.4257 98.5336 16.1782 97.9396 16.1287C97.1477 17.1682 96.0588 17.6631 94.5244 17.6631C93.188 17.6631 91.6041 17.1682 91.5051 14.7923H98.3851C99.1275 14.7923 99.672 14.3469 99.672 13.4559C99.672 12.0701 99.375 11.1296 98.7316 10.3377C98.0386 9.44676 96.7517 8.9023 95.3163 8.9023C90.8122 8.9023 89.2283 12.2185 89.2283 15.0893C89.2778 17.7621 91.2576 19.5935 94.2769 19.5935ZM95.2174 10.6842C96.0093 10.6842 96.6527 10.9316 97.0487 11.3771C97.3952 11.7731 97.5437 12.367 97.4942 13.06H91.7526C92.2971 11.6246 93.584 10.6842 95.2174 10.6842ZM100.761 23.5037H101.256C102.196 23.5037 102.493 22.9592 102.939 22.1673L109.373 11.3276C109.175 12.0701 109.076 12.9115 109.126 13.7034C109.225 17.3661 111.7 19.544 115.313 19.544C117.045 19.544 118.382 18.9005 119.124 17.9106C119.075 18.95 119.619 19.3955 120.411 19.3955C120.856 19.3955 121.153 19.247 121.153 19.1975L122.193 13.357C122.341 12.466 121.995 12.0206 121.153 12.0206H117.045C116.55 12.0206 116.303 12.1196 116.154 12.268C115.907 12.5155 115.808 13.1095 115.808 13.4065C115.808 13.8519 116.204 14.0994 116.847 14.0994H119.767C119.371 16.1287 118.085 17.5641 115.857 17.5641C113.531 17.5641 111.947 16.0792 111.848 13.5549C111.749 10.3872 113.828 7.76389 116.847 7.76389C118.58 7.76389 119.965 8.70431 120.51 9.94172C120.559 10.0407 122.193 10.0407 122.143 8.65482C122.143 8.15986 121.846 7.5659 121.302 7.07094C120.46 6.2295 118.827 5.48706 116.699 5.48706C113.679 5.48706 111.353 7.12044 110.116 9.54575C109.868 9.24877 109.472 9.05079 109.076 9.05079C108.383 9.05079 107.987 9.24877 107.344 10.3872L104.176 15.9803L102.988 10.3872C102.741 9.34776 102.394 9.05079 101.701 9.05079C100.909 9.05079 100.266 9.59525 100.315 9.74373L102.592 18.752L100.216 22.6127C99.87 22.9592 99.8205 23.5037 100.761 23.5037ZM60.471 30.2847H53.2446V26.9189H52.3041V34.6403H53.2446V31.0271H60.471V34.6403H61.4114V26.9189H60.471V30.2847ZM66.8065 26.9189L62.2529 34.6403H63.3418L64.3317 32.908H70.5187L71.5582 34.6403H72.6471L68.0439 26.9189H66.8065ZM64.8267 32.116L67.45 27.5624L70.1228 32.116H64.8267ZM78.1412 26.9189L73.5875 34.6403H74.6764L75.6663 32.908H81.8534L82.8928 34.6403H83.9817L79.4281 26.9189H78.1412ZM76.1613 32.116L78.7846 27.5624L81.4574 32.116H76.1613ZM91.4061 30.4331C90.9112 30.3836 90.5152 30.3342 90.2677 30.3342H86.7535C86.2585 30.3342 85.8626 30.2352 85.6151 30.0867C85.3676 29.9382 85.2191 29.5917 85.2191 29.0968C85.2191 28.8493 85.2686 28.6018 85.3181 28.4038C85.3676 28.2058 85.5656 28.0573 85.8131 27.9583C86.0606 27.8593 86.4565 27.7604 87.001 27.7109C87.5454 27.6614 88.0899 27.6614 88.5849 27.6614H88.9313C89.6243 27.6614 90.1687 27.7109 90.5647 27.7604C91.0102 27.8098 91.3071 27.8593 91.4556 27.9583C91.6041 28.0573 91.7526 28.1563 91.8021 28.3543C91.9011 28.5523 91.9011 28.7998 91.9011 29.1957H92.8415C92.8415 28.5028 92.693 27.9583 92.3961 27.6119C92.0991 27.2654 91.6536 27.0674 91.1092 27.0179C90.5647 26.9684 90.1192 26.9189 89.8718 26.9189H88.6344C87.9414 26.9189 87.3475 26.9189 86.803 26.9684C86.2585 27.0179 85.7636 27.1169 85.3676 27.2654C84.9716 27.4139 84.6747 27.6614 84.5262 28.0078C84.3777 28.3543 84.2787 28.7998 84.2787 29.3442C84.2787 29.9877 84.4767 30.4826 84.8726 30.7796C85.2686 31.0766 85.8131 31.1756 86.5555 31.1756L88.6344 31.2251H90.4162C91.0102 31.2251 91.4556 31.3241 91.7526 31.4726C92.0001 31.6211 92.1486 31.9675 92.1486 32.5615C92.1486 33.007 92.0496 33.3039 91.8516 33.5019C91.6536 33.6999 91.2576 33.8484 90.7132 33.8979C90.1687 33.9474 89.4758 33.9969 88.6839 33.9969C88.1889 33.9969 87.6939 33.9969 87.199 33.9474C86.704 33.8979 86.2585 33.8484 85.9616 33.7494C85.6646 33.6504 85.4666 33.5019 85.4171 33.3039C85.3676 33.1059 85.3181 32.809 85.3181 32.3635V32.215H84.3777C84.3777 33.0564 84.5262 33.6504 84.7736 33.9969C85.0211 34.3433 85.4666 34.5413 86.0606 34.6403C86.6545 34.7393 87.1 34.7888 87.3969 34.7888H89.2778C89.8718 34.7888 90.4162 34.7888 90.9112 34.7393C91.4061 34.6898 91.8516 34.5908 92.1981 34.4423C92.5446 34.2938 92.792 34.0464 92.9405 33.7494C93.089 33.4524 93.1385 33.0564 93.1385 32.5615C93.1385 31.8685 92.99 31.3241 92.693 31.0271C92.2971 30.6311 91.9011 30.4826 91.4061 30.4331ZM99.0781 34.6403H100.018V31.0766H106.156V30.2847H100.018V27.7109H106.453V26.9189H99.0781V34.6403ZM117.194 27.7109H121.104V34.6403H122.044V27.7109H125.954V26.9189H117.194V27.7109ZM127.736 31.0271H134.22V30.2847H127.736V27.7109H134.468V26.9189H126.796V34.6403H134.567V33.8484H127.736V31.0271ZM139.962 26.9189L135.408 34.6403H136.497L137.487 32.908H143.674L144.714 34.6403H145.802L141.249 26.9189H139.962ZM137.982 32.116L140.605 27.5624L143.278 32.116H137.982ZM152.831 33.5514L148.228 26.9189H146.693V34.6403H147.634V27.7109L152.435 34.6403H153.227L158.028 27.7109V34.6403H158.968V26.9189H157.484L152.831 33.5514ZM110.215 26.9189L108.086 28.4533L108.581 29.2452L110.215 28.0078V34.6403H111.155V26.9189H110.215ZM112.838 27.1169C112.788 27.0674 112.739 27.0674 112.69 27.0179C112.64 27.0179 112.591 26.9684 112.492 26.9684C112.393 26.9684 112.343 26.9684 112.294 27.0179C112.244 27.0179 112.195 27.0674 112.145 27.1169C112.096 27.1664 112.046 27.2159 112.046 27.2654C111.997 27.3149 111.997 27.3644 111.997 27.4634C111.997 27.5129 111.997 27.6119 112.046 27.6614C112.096 27.7109 112.096 27.7604 112.145 27.8098C112.195 27.8593 112.244 27.9088 112.294 27.9088C112.343 27.9088 112.393 27.9583 112.492 27.9583C112.591 27.9583 112.64 27.9583 112.69 27.9088C112.739 27.9088 112.788 27.8593 112.838 27.8098C112.887 27.7604 112.937 27.7109 112.937 27.6614C112.986 27.6119 112.986 27.5624 112.986 27.4634C112.986 27.4139 112.986 27.3149 112.937 27.2654C112.887 27.2159 112.887 27.1664 112.838 27.1169ZM112.838 27.6119C112.838 27.6614 112.789 27.7109 112.739 27.7604C112.69 27.8098 112.64 27.8098 112.64 27.8593C112.591 27.8593 112.541 27.9088 112.492 27.9088C112.442 27.9088 112.393 27.9088 112.343 27.8593C112.294 27.8593 112.244 27.8098 112.244 27.7604C112.195 27.7109 112.195 27.6614 112.145 27.6119C112.145 27.5624 112.096 27.5129 112.096 27.4634C112.096 27.4139 112.096 27.3644 112.145 27.3149C112.145 27.2654 112.195 27.2159 112.244 27.1664C112.294 27.1169 112.343 27.1169 112.343 27.0674C112.393 27.0674 112.442 27.0179 112.492 27.0179C112.541 27.0179 112.591 27.0179 112.64 27.0674C112.69 27.0674 112.739 27.1169 112.739 27.1664C112.789 27.2159 112.788 27.2654 112.838 27.3149C112.838 27.3644 112.887 27.4139 112.887 27.4634C112.887 27.5129 112.887 27.5624 112.838 27.6119Z" fill="white"/>
<path d="M112.69 27.4137C112.74 27.4137 112.74 27.3642 112.74 27.3147C112.74 27.2653 112.74 27.2158 112.69 27.2158C112.641 27.1663 112.591 27.1663 112.542 27.1663H112.344V27.7107H112.443V27.4632H112.542L112.69 27.7107H112.789L112.641 27.4632C112.591 27.4632 112.641 27.4632 112.69 27.4137ZM112.492 27.4137H112.393V27.2653H112.591L112.641 27.3147V27.4137L112.591 27.4632H112.542C112.542 27.4137 112.492 27.4137 112.492 27.4137Z" fill="white"/>
<path d="M103.731 22.8601L103.335 23.5036H158.623L158.969 22.8601H103.731ZM52.3047 23.5036H98.5836L98.9301 22.8601H52.7007L52.3047 23.5036Z" fill="#DA291C"/>
</svg>
