<svg width="74" height="17" viewBox="0 0 74 17" fill="none" xmlns="http://www.w3.org/2000/svg">
<g clip-path="url(#clip0_2342_2097)">
<mask id="mask0_2342_2097" style="mask-type:luminance" maskUnits="userSpaceOnUse" x="0" y="0" width="74" height="16">
<path d="M73.1294 0.11377H0V15.8449H73.1294V0.11377Z" fill="white"/>
</mask>
<g mask="url(#mask0_2342_2097)">
<path d="M73.1308 8.02817C73.1142 8.04639 73.1158 8.06916 73.1142 8.0904C73.0593 8.82049 72.7083 9.41246 72.1029 9.88299C71.6754 10.2154 71.1747 10.4203 70.6374 10.5554C70.1184 10.6859 69.5878 10.7421 69.0522 10.7421C67.4205 10.7451 65.787 10.7421 64.1553 10.7421C64.1419 10.7421 64.127 10.7421 64.1137 10.7421C64.0672 10.7467 64.0405 10.733 64.0455 10.6844C64.0488 10.6632 64.0455 10.6404 64.0455 10.6176C64.0455 7.37094 64.0455 4.12424 64.0455 0.87754C64.0455 0.739415 64.0289 0.757629 64.1769 0.757629C65.6407 0.757629 67.1027 0.756111 68.5666 0.757629C69.1637 0.757629 69.7591 0.795575 70.3463 0.90638C70.8453 1.00049 71.326 1.14165 71.7569 1.39665C72.2825 1.70781 72.6251 2.13736 72.7448 2.702C72.8513 3.20441 72.8147 3.69924 72.6052 4.17585C72.354 4.74504 71.8899 5.11844 71.2728 5.34612C71.1198 5.40228 70.9634 5.44478 70.8038 5.48424C70.8171 5.5146 70.8436 5.50853 70.867 5.51309C71.326 5.60415 71.7585 5.75442 72.1394 6.00942C72.6667 6.36309 72.9877 6.83513 73.1025 7.42255C73.1158 7.49085 73.0958 7.56068 73.1308 7.62594V8.0221V8.02817ZM67.1078 7.67906C67.1078 8.04335 67.1078 8.40916 67.1078 8.77344C67.1078 8.85693 67.1078 8.85845 67.1959 8.85845C67.6034 8.85845 68.0093 8.86148 68.4169 8.85845C68.673 8.85541 68.9258 8.82353 69.1687 8.74613C69.5379 8.62621 69.8174 8.41826 69.9471 8.06916C70.0153 7.88853 70.0386 7.70032 70.0187 7.5121C69.9903 7.23737 69.8506 7.01728 69.6028 6.85639C69.4964 6.78656 69.3799 6.73192 69.2568 6.68942C68.9041 6.56799 68.5349 6.53157 68.1607 6.52398C67.843 6.51791 67.5252 6.52398 67.2092 6.52398C67.1893 6.52398 67.1676 6.52398 67.1477 6.52398C67.1228 6.52398 67.1095 6.53612 67.1095 6.55888C67.1095 6.58469 67.1095 6.60897 67.1095 6.63478C67.1095 6.98389 67.1095 7.333 67.1095 7.6821L67.1078 7.67906ZM67.1078 3.66129C67.1078 3.98764 67.1078 4.31549 67.1078 4.64183C67.1078 4.73593 67.1078 4.73745 67.2076 4.73745C67.5219 4.73745 67.8347 4.74049 68.149 4.73745C68.4119 4.73442 68.673 4.71469 68.9258 4.6479C69.1554 4.58871 69.365 4.49764 69.5246 4.33066C69.6893 4.15916 69.7542 3.95272 69.7658 3.73111C69.7891 3.2712 69.5995 2.9145 69.0955 2.73389C68.806 2.63066 68.5017 2.59879 68.194 2.59424C67.8629 2.58817 67.5319 2.5912 67.2009 2.5912C67.1095 2.5912 67.1095 2.5912 67.1078 2.68076C67.1078 3.0071 67.1078 3.33495 67.1078 3.66129Z" fill="#E84E1C"/>
<path d="M5.49555 15.8452C5.47226 15.8179 5.43567 15.8195 5.40406 15.8073C5.21444 15.7406 5.10133 15.6161 5.07472 15.431C5.06973 15.4006 5.06641 15.3687 5.06641 15.3368C5.06641 15.0727 5.06641 14.8086 5.06641 14.5444C5.06641 14.426 5.09135 14.3138 5.16288 14.2121C5.266 14.0679 5.40905 13.9844 5.60033 13.9828C5.90972 13.9799 6.22077 13.9783 6.53015 13.9828C6.83787 13.9889 7.08738 14.2105 7.09569 14.4929C7.10401 14.7873 7.10235 15.0833 7.09569 15.3793C7.0907 15.5934 6.95264 15.7239 6.74473 15.8028C6.70814 15.8164 6.66489 15.8179 6.63162 15.8438H5.49223L5.49555 15.8452Z" fill="white"/>
<path d="M39.6453 15.8448C39.6304 15.8189 39.5988 15.8204 39.5738 15.8129C39.3976 15.7552 39.3028 15.6368 39.2711 15.4729C39.2628 15.4273 39.2595 15.3787 39.2578 15.3317C39.2578 15.0676 39.2578 14.8035 39.2578 14.5394C39.2578 14.4316 39.2761 14.3268 39.331 14.2297C39.4191 14.0749 39.5572 13.9853 39.7519 13.9838C40.0629 13.9824 40.3723 13.9793 40.6833 13.9838C40.9112 13.9868 41.0825 14.0901 41.2073 14.2601C41.2705 14.3466 41.2921 14.4437 41.2921 14.5469C41.2921 14.8019 41.2921 15.057 41.2921 15.3105C41.2921 15.5517 41.1674 15.7112 40.9179 15.7977C40.873 15.8129 40.8231 15.8144 40.7848 15.8432H39.6453V15.8448Z" fill="white"/>
<path d="M2.9683 15.8453C2.94002 15.8195 2.90009 15.8195 2.86516 15.8088C2.78699 15.7845 2.71213 15.7511 2.64726 15.7026C2.52917 15.6146 2.46097 15.5022 2.46097 15.3611C2.46097 15.0818 2.46264 14.801 2.46097 14.5216C2.45764 14.2485 2.7504 13.9919 3.05977 13.9874C3.37748 13.9829 3.69518 13.9813 4.01122 13.9874C4.25573 13.9919 4.4387 14.1559 4.48029 14.3911C4.49026 14.4474 4.49525 14.5035 4.49525 14.5596C4.49525 14.8147 4.49525 15.0696 4.49525 15.3231C4.49525 15.3732 4.49192 15.4234 4.48195 15.4734C4.45035 15.6373 4.35554 15.7557 4.17921 15.8134C4.15427 15.821 4.12433 15.821 4.10769 15.8453H2.9683Z" fill="white"/>
<path d="M29.5176 15.8449C29.4977 15.8145 29.4595 15.8176 29.4295 15.8055C29.2399 15.7326 29.1284 15.6006 29.1235 15.4153C29.1151 15.0982 29.1151 14.7794 29.1235 14.4622C29.1301 14.1859 29.3629 13.9855 29.664 13.984C29.9534 13.984 30.2446 13.9871 30.5339 13.984C30.8899 13.9779 31.166 14.2663 31.1527 14.5547C31.1411 14.8128 31.1444 15.0708 31.1527 15.3288C31.1594 15.5793 30.9831 15.7386 30.7785 15.807C30.7452 15.8176 30.7037 15.8145 30.6786 15.8464H29.5193L29.5176 15.8449Z" fill="white"/>
<path d="M21.9368 15.8453C21.9085 15.8195 21.8686 15.818 21.8336 15.8073C21.7139 15.7694 21.6091 15.7102 21.5326 15.6176C21.4694 15.5432 21.4395 15.4582 21.4395 15.3641C21.4395 15.0879 21.4478 14.8101 21.4378 14.5339C21.4278 14.2712 21.6939 14.0239 21.9567 13.992C22.005 13.9859 22.0532 13.9844 22.1015 13.9844C22.3709 13.9844 22.6387 13.9844 22.9082 13.9844C23.2342 13.9844 23.4555 14.1651 23.4654 14.4611C23.477 14.7782 23.4754 15.0969 23.4654 15.4142C23.4588 15.61 23.3506 15.7527 23.1377 15.818C23.1161 15.824 23.0879 15.8225 23.0761 15.8468H21.9368V15.8453Z" fill="white"/>
<path d="M8.02209 15.8444C7.99547 15.8156 7.95554 15.817 7.92062 15.8064C7.66114 15.726 7.53139 15.5605 7.53139 15.3101C7.53139 15.0581 7.53971 14.8062 7.52972 14.5557C7.51642 14.2506 7.81582 13.9789 8.1485 13.982C8.44124 13.9849 8.734 13.982 9.02841 13.982C9.31617 13.982 9.52409 14.155 9.55736 14.416C9.56068 14.4373 9.56234 14.46 9.56234 14.4813C9.56234 14.7833 9.56234 15.0854 9.56234 15.386C9.56234 15.4497 9.55071 15.5104 9.52243 15.5696C9.4692 15.682 9.38104 15.7609 9.25463 15.8049C9.22303 15.8156 9.18642 15.817 9.16148 15.8413H8.02209V15.8444Z" fill="white"/>
<path d="M19.411 15.8445C19.386 15.8187 19.3494 15.8187 19.3194 15.8081C19.1099 15.7397 18.9802 15.5804 18.9785 15.3801C18.9751 15.0841 18.9769 14.7896 18.9785 14.4936C18.9785 14.2674 19.1747 13.976 19.5457 13.982C19.8351 13.9866 20.1245 13.9866 20.4139 13.982C20.7833 13.976 21.0178 14.2765 21.0095 14.5269C21.0012 14.8002 21.0027 15.0735 21.0095 15.3466C21.0128 15.5485 20.8847 15.7276 20.6519 15.805C20.6169 15.8172 20.577 15.8156 20.5503 15.8445H19.411Z" fill="white"/>
<path d="M16.8844 15.8453C16.8511 15.821 16.8079 15.818 16.7696 15.8058C16.6365 15.7633 16.5218 15.6965 16.442 15.5873C16.3921 15.5174 16.3672 15.4401 16.3672 15.3565C16.3672 15.0833 16.3688 14.8086 16.3672 14.5354C16.3672 14.4063 16.4138 14.2955 16.5036 14.1983C16.6365 14.0588 16.8046 13.9829 17.0109 13.9829C17.2903 13.9829 17.5697 13.9829 17.8492 13.9829C18.1769 13.9829 18.3848 14.1666 18.3948 14.467C18.3998 14.6113 18.3948 14.757 18.3948 14.9012C18.3948 15.0484 18.3948 15.1972 18.3948 15.3444C18.3948 15.6069 18.305 15.7284 18.0405 15.827C18.0305 15.8301 18.0222 15.8347 18.0205 15.8453H16.8811H16.8844Z" fill="white"/>
<path d="M10.5503 15.845C10.5403 15.8177 10.512 15.8222 10.4904 15.8147C10.2692 15.7387 10.1461 15.5961 10.1411 15.382C10.1345 15.0861 10.1361 14.7901 10.1411 14.4956C10.1428 14.3559 10.1977 14.2315 10.3041 14.1283C10.4006 14.0326 10.522 13.9857 10.6634 13.9841C10.9744 13.9841 11.2838 13.9826 11.5948 13.9841C11.9259 13.9857 12.1821 14.2649 12.1737 14.5275C12.1654 14.7977 12.167 15.0678 12.1737 15.3395C12.1804 15.593 11.9924 15.7418 11.8094 15.8041C11.7762 15.8162 11.7346 15.8116 11.7097 15.845H10.5503Z" fill="white"/>
<path d="M0.44271 15.8451C0.414433 15.8193 0.374512 15.8178 0.339581 15.8072C0.131662 15.7373 0.00358404 15.5795 0.00192068 15.3776C0.000257323 15.0861 -0.00140603 14.7932 0.00192068 14.5003C0.00524739 14.2028 0.248097 13.9857 0.574115 13.9842C0.863539 13.9827 1.15297 13.9873 1.44239 13.9842C1.79169 13.9781 2.03288 14.2529 2.03121 14.523C2.02955 14.7963 2.03121 15.0694 2.03121 15.3427C2.03121 15.5749 1.90479 15.7343 1.66361 15.8117C1.63533 15.8208 1.60207 15.8208 1.58211 15.8466H0.44271V15.8451Z" fill="white"/>
<path d="M49.7252 5.4914C49.7917 5.52328 49.8482 5.5248 49.8998 5.53693C50.3671 5.64016 50.8029 5.8056 51.1806 6.08489C51.6646 6.4431 51.9641 6.90453 52.0455 7.46765C52.2069 8.559 51.6995 9.58507 50.5885 10.1755C50.1643 10.4017 49.7068 10.5444 49.2278 10.6324C48.7904 10.7128 48.3479 10.7447 47.9004 10.7447C46.3086 10.7447 44.7184 10.7447 43.1266 10.7447C42.9702 10.7447 42.9868 10.766 42.9868 10.6218C42.9868 7.37507 42.9868 4.12684 42.9868 0.880146C42.9868 0.740503 42.9735 0.760235 43.1199 0.760235C44.5836 0.760235 46.0475 0.758718 47.5095 0.760235C48.1383 0.760235 48.7637 0.802735 49.3792 0.9272C49.8183 1.01675 50.2425 1.14577 50.6283 1.36131C51.124 1.63756 51.4833 2.01702 51.6363 2.53461C51.8109 3.1281 51.7744 3.71398 51.4949 4.27712C51.2288 4.81292 50.7614 5.15444 50.1676 5.3639C50.0295 5.41248 49.8882 5.45194 49.7217 5.48988L49.7252 5.4914ZM46.0508 7.6847C46.0508 8.04596 46.0508 8.40873 46.0508 8.76997C46.0508 8.87774 46.0641 8.85802 46.1472 8.85802C46.5448 8.85802 46.9407 8.85953 47.3383 8.85802C47.5811 8.8565 47.8206 8.82917 48.0519 8.76238C48.7771 8.55444 49.0149 8.05203 48.9567 7.48132C48.9218 7.15194 48.7105 6.92123 48.3961 6.76944C48.0884 6.62069 47.754 6.56604 47.4131 6.53721C47.137 6.51444 46.8608 6.52355 46.5864 6.52203C46.4317 6.52203 46.2753 6.52203 46.1207 6.52203C46.0707 6.52203 46.0508 6.53721 46.0541 6.58123C46.0558 6.60248 46.0541 6.62524 46.0541 6.64801C46.0541 6.99409 46.0541 7.34016 46.0541 7.68622L46.0508 7.6847ZM46.0508 3.65782C46.0508 3.98721 46.0508 4.3181 46.0508 4.64747C46.0508 4.7355 46.0508 4.73702 46.1456 4.73702C46.3102 4.73702 46.4766 4.73702 46.6413 4.73702C46.944 4.73702 47.2484 4.74461 47.5494 4.70515C47.779 4.6748 48.0019 4.6247 48.2065 4.51997C48.4361 4.40006 48.5891 4.2255 48.6606 3.99328C48.7188 3.80203 48.7255 3.60925 48.6839 3.41497C48.6324 3.16908 48.4926 2.97328 48.2597 2.83667C48.1632 2.78051 48.0602 2.73801 47.952 2.70461C47.6908 2.62569 47.4214 2.59684 47.1486 2.59229C46.8109 2.58622 46.4733 2.59077 46.1356 2.58925C46.1223 2.58925 46.1074 2.58925 46.094 2.58925C46.0641 2.58925 46.0508 2.6014 46.0508 2.62872C46.0508 2.64997 46.0508 2.67274 46.0508 2.69398C46.0508 3.01426 46.0508 3.33452 46.0508 3.65632V3.65782Z" fill="#E84E1C"/>
<path d="M57.7379 8.56234C57.7943 8.56234 57.8343 8.56234 57.8759 8.56234C59.328 8.56234 60.7818 8.56234 62.2339 8.56234C62.3769 8.56234 62.3637 8.54715 62.3637 8.67618C62.3637 9.32734 62.3637 9.9785 62.3637 10.6297C62.3637 10.6524 62.3637 10.6737 62.3637 10.6964C62.3653 10.7314 62.3519 10.7496 62.3104 10.7465C62.2872 10.745 62.2621 10.7465 62.2372 10.7465C59.3047 10.7465 56.3706 10.7465 53.438 10.7465C53.29 10.7465 53.3099 10.7648 53.3099 10.6251C53.3099 10.0589 53.3116 9.49279 53.3066 8.92663C53.3066 8.83099 53.3399 8.77332 53.4198 8.71564C53.9188 8.35743 54.4344 8.02046 54.9534 7.68806C55.5921 7.27975 56.2375 6.88207 56.853 6.44492C57.3087 6.12162 57.7478 5.78314 58.1287 5.38546C58.3982 5.10465 58.6294 4.80108 58.7841 4.45198C58.9155 4.15599 58.9787 3.84938 58.9621 3.53064C58.9555 3.41072 58.9354 3.29233 58.8939 3.17849C58.7758 2.85063 58.533 2.64268 58.167 2.55465C57.9058 2.49242 57.6413 2.48634 57.3786 2.53947C57.0309 2.60929 56.7931 2.80662 56.6417 3.095C56.5269 3.31358 56.472 3.54582 56.4371 3.78411C56.4154 3.93135 56.4121 4.07858 56.4038 4.22582C56.4005 4.27439 56.3855 4.29563 56.3306 4.28956C56.3173 4.28804 56.3024 4.28956 56.2891 4.28956C55.3443 4.28956 54.3979 4.28956 53.453 4.28956C53.3383 4.28956 53.3399 4.28956 53.3433 4.18179C53.3582 3.7234 53.4364 3.27411 53.6078 2.84153C53.9321 2.03099 54.5275 1.44358 55.3725 1.06108C55.8483 0.845541 56.3556 0.718041 56.8796 0.64822C57.3952 0.579916 57.9108 0.575363 58.4281 0.614827C59.0469 0.660363 59.649 0.772684 60.2179 1.00795C60.7402 1.22349 61.1859 1.52554 61.522 1.95358C61.8214 2.33456 61.9878 2.76411 62.0492 3.22706C62.1574 4.02849 61.9229 4.75251 61.4621 5.42644C61.1261 5.91823 60.707 6.34778 60.2478 6.74546C59.6391 7.27368 58.9737 7.73814 58.2917 8.18439C58.1354 8.2876 57.9774 8.3893 57.821 8.49099C57.7943 8.50921 57.7628 8.52136 57.7345 8.56385L57.7379 8.56234Z" fill="#E84E1C"/>
<path d="M49.8587 12.2778C49.832 12.3704 49.8071 12.4523 49.7822 12.5328C49.5143 13.4101 49.2465 14.2874 48.9788 15.1648C48.9738 15.183 48.9654 15.2011 48.9621 15.2194C48.9571 15.2497 48.9388 15.2619 48.9056 15.2619C48.8024 15.2619 48.6993 15.2603 48.5945 15.2619C48.5362 15.2619 48.5413 15.2209 48.5313 15.1921C48.4665 14.9705 48.4033 14.7488 48.3417 14.5272C48.1804 13.9459 48.0023 13.3675 47.8527 12.7832C47.8493 12.768 47.8427 12.7544 47.8344 12.7346C47.8128 12.7467 47.8128 12.765 47.8095 12.7802C47.6663 13.3235 47.4884 13.8594 47.3254 14.3982C47.2489 14.6562 47.1691 14.9128 47.0924 15.1709C47.0737 15.2326 47.0277 15.2634 46.9545 15.2634C46.8929 15.2634 46.8297 15.2634 46.7681 15.2634C46.6483 15.2634 46.6483 15.2634 46.6168 15.1526C46.5237 14.8248 46.4304 14.4953 46.3373 14.1675C46.166 13.5618 45.9947 12.9578 45.8234 12.3521C45.8167 12.3309 45.8068 12.3112 45.8167 12.2808C45.9415 12.2808 46.0678 12.2808 46.1959 12.2808C46.2392 12.2808 46.2425 12.3066 46.2492 12.3354C46.2925 12.4978 46.3357 12.6587 46.379 12.8211C46.5237 13.3675 46.6684 13.9141 46.8131 14.4605C46.8347 14.5394 46.8513 14.6199 46.873 14.7048C46.9095 14.6669 46.9079 14.6214 46.9178 14.5819C47.0609 14.0446 47.2373 13.5149 47.3953 12.9821C47.4585 12.7696 47.5267 12.5586 47.5881 12.3461C47.6032 12.2929 47.6281 12.2762 47.688 12.2793C47.7844 12.2839 47.8809 12.2839 47.9774 12.2793C48.0373 12.2762 48.0589 12.2945 48.0755 12.3475C48.1804 12.7119 48.2918 13.0746 48.3983 13.439C48.5163 13.8427 48.6461 14.2434 48.7425 14.6517C48.7458 14.6669 48.7526 14.6821 48.7609 14.7079C48.7974 14.632 48.8041 14.5591 48.8223 14.4909C48.9887 13.8943 49.1534 13.2978 49.3197 12.7013C49.353 12.5799 49.3879 12.4584 49.4212 12.3354C49.4312 12.2975 49.4478 12.2778 49.4977 12.2793C49.6108 12.2839 49.7256 12.2793 49.8554 12.2793L49.8587 12.2778Z" fill="white"/>
<path d="M6.06275 1.96689C5.90141 1.96689 5.73839 1.96689 5.57705 1.96689C5.47059 1.96689 5.37246 1.94261 5.28263 1.89252C5.16787 1.82726 5.09801 1.73466 5.07804 1.61172C5.07139 1.57073 5.06807 1.52975 5.06641 1.49029C5.06641 1.23225 5.06641 0.974216 5.06641 0.717699C5.06641 0.568948 5.103 0.430823 5.20446 0.31243C5.31258 0.183412 5.44897 0.11359 5.63027 0.116626C5.91971 0.12118 6.20913 0.127251 6.49855 0.116626C6.80461 0.104483 7.05411 0.361002 7.0907 0.590198C7.09735 0.634216 7.09903 0.678234 7.09903 0.722252C7.09903 0.974216 7.09903 1.22466 7.09903 1.47663C7.09903 1.77717 6.89942 1.96386 6.56841 1.96993C6.39875 1.97297 6.23075 1.96993 6.06109 1.96993L6.06275 1.96689Z" fill="white"/>
<path d="M35.1686 7.11719C35.3233 7.11719 35.4796 7.11719 35.6344 7.11719C35.7775 7.11719 35.9055 7.15969 36.0186 7.23862C36.1534 7.33272 36.2232 7.45719 36.2216 7.61201C36.2216 7.87915 36.2166 8.1463 36.2216 8.41496C36.2299 8.71702 35.9371 8.9629 35.6361 8.96746C35.315 8.97353 34.994 8.97353 34.6729 8.96746C34.4251 8.9629 34.2288 8.78379 34.1956 8.5455C34.189 8.49236 34.1855 8.43924 34.1855 8.38611C34.1855 8.14023 34.1855 7.89585 34.1855 7.64995C34.1855 7.57407 34.1873 7.49969 34.2139 7.42531C34.2771 7.24166 34.4384 7.12782 34.6497 7.11719C34.6563 7.11719 34.663 7.11719 34.6696 7.11719C34.8359 7.11719 35.0007 7.11719 35.167 7.11719H35.1686Z" fill="white"/>
<path d="M3.52715 1.96693C3.36913 1.96693 3.20944 1.96693 3.05142 1.96693C2.91004 1.96693 2.77864 1.9305 2.66221 1.85764C2.53413 1.77872 2.46094 1.66944 2.46094 1.52523C2.46094 1.24291 2.46094 0.959072 2.46094 0.67675C2.46094 0.371661 2.81356 0.103 3.09467 0.115142C3.39075 0.127285 3.68849 0.119696 3.98457 0.11666C4.15589 0.115142 4.28064 0.183446 4.37545 0.309429C4.46195 0.424785 4.49356 0.556839 4.49522 0.693447C4.49688 0.966661 4.49522 1.23988 4.49522 1.51461C4.49522 1.54345 4.4919 1.57077 4.4869 1.59961C4.45529 1.82881 4.29063 1.96541 4.03447 1.96845C3.86481 1.97148 3.69681 1.96845 3.52715 1.96845V1.96693Z" fill="white"/>
<path d="M40.214 2.49367C40.372 2.49367 40.5317 2.49367 40.6898 2.49367C40.8445 2.49367 40.9791 2.54376 41.0972 2.63179C41.217 2.72287 41.2886 2.83671 41.2902 2.98242C41.2902 3.26474 41.2902 3.54858 41.2902 3.8309C41.2902 4.12385 40.9792 4.33939 40.708 4.34394C40.3803 4.35001 40.0527 4.3485 39.725 4.34394C39.4954 4.3409 39.3124 4.18153 39.2709 3.95992C39.2609 3.9068 39.2559 3.85368 39.2559 3.80055C39.2559 3.53644 39.2559 3.27233 39.2559 3.00823C39.2559 2.91715 39.2676 2.82608 39.3108 2.7426C39.3924 2.58778 39.527 2.49975 39.7167 2.49519C39.8813 2.49064 40.0477 2.49519 40.2124 2.49519L40.214 2.49367Z" fill="white"/>
<path d="M37.6814 1.96697C37.5234 1.96697 37.3638 1.96697 37.2058 1.96697C37.1076 1.96697 37.0145 1.94875 36.9263 1.91081C36.75 1.83187 36.6519 1.7059 36.6519 1.52375C36.6519 1.24143 36.6485 0.957594 36.6519 0.675271C36.6552 0.424824 36.8465 0.195628 37.096 0.13036C37.1392 0.119735 37.1841 0.116699 37.229 0.116699C37.5318 0.116699 37.8361 0.118217 38.1389 0.116699C38.287 0.116699 38.4067 0.168306 38.5049 0.26545C38.6246 0.383843 38.6828 0.525004 38.6811 0.685897C38.6811 0.962147 38.6778 1.2384 38.6811 1.51616C38.6861 1.82429 38.43 1.96241 38.1871 1.96849C38.0191 1.97152 37.8495 1.96849 37.6798 1.96849L37.6814 1.96697Z" fill="white"/>
<path d="M40.2095 6.5905C40.0481 6.5905 39.8851 6.59353 39.7238 6.5905C39.5026 6.58594 39.3379 6.47514 39.283 6.29603C39.2648 6.23835 39.2598 6.17916 39.2598 6.11845C39.2598 5.84826 39.2598 5.57809 39.2598 5.30791C39.2598 5.18041 39.2864 5.05746 39.3645 4.94817C39.4576 4.81461 39.5857 4.73871 39.7671 4.74023C40.0665 4.74327 40.3675 4.75086 40.6669 4.73871C40.9281 4.72657 41.299 4.97398 41.2957 5.30184C41.294 5.48095 41.2957 5.66005 41.2957 5.83916C41.2957 5.91809 41.2957 5.99702 41.2957 6.07442C41.2957 6.34461 41.1444 6.51613 40.8533 6.57381C40.7851 6.58746 40.7169 6.59201 40.6487 6.59201C40.5039 6.59201 40.3592 6.59201 40.2145 6.59201L40.2095 6.5905Z" fill="white"/>
<path d="M3.54075 7.11719C3.69543 7.11719 3.85179 7.11719 4.00648 7.11719C4.27429 7.12023 4.4506 7.26442 4.48554 7.5088C4.49052 7.5437 4.49551 7.5771 4.49551 7.61201C4.49551 7.88219 4.49551 8.15236 4.49551 8.42255C4.49551 8.53032 4.47722 8.63505 4.419 8.73219C4.32918 8.88246 4.19278 8.96746 4.00316 8.96746C3.69377 8.97049 3.38273 8.97201 3.07334 8.96746C2.83881 8.9629 2.6625 8.85665 2.53608 8.67906C2.48452 8.6062 2.46289 8.52424 2.46289 8.43772C2.46289 8.16147 2.46289 7.88522 2.46289 7.60745C2.46289 7.45871 2.5311 7.34031 2.65584 7.24924C2.7756 7.16272 2.912 7.11719 3.0667 7.11719C3.22471 7.11719 3.3844 7.11719 3.54241 7.11719H3.54075Z" fill="white"/>
<path d="M37.9572 12.6282C37.9572 12.4901 37.9605 12.352 37.9572 12.2138C37.9504 11.9224 38.1967 11.7402 38.4678 11.7402C38.7921 11.7402 39.1165 11.7402 39.4408 11.7402C39.5507 11.7402 39.6521 11.7675 39.7452 11.8207C39.8999 11.9088 39.9864 12.0347 39.9881 12.2017C39.9898 12.4886 39.9881 12.7739 39.9881 13.0608C39.9881 13.3386 39.712 13.6011 39.3859 13.5921C39.0965 13.5845 38.8071 13.5921 38.516 13.5905C38.2365 13.5905 38.0136 13.4175 37.9688 13.1656C37.9605 13.1231 37.9588 13.0775 37.9588 13.0335C37.9588 12.8984 37.9588 12.7633 37.9588 12.6282H37.9572Z" fill="white"/>
<path d="M6.06549 7.1172C6.22018 7.1172 6.37654 7.1172 6.53122 7.1172C6.6327 7.1172 6.73083 7.13542 6.81899 7.17944C6.99531 7.269 7.09843 7.40256 7.1001 7.58926C7.10343 7.87614 7.10509 8.1615 7.1001 8.44837C7.0951 8.7398 6.84227 8.96596 6.52291 8.969C6.22019 8.97202 5.91578 8.97202 5.61305 8.969C5.34027 8.96596 5.1207 8.78685 5.08079 8.53944C5.08079 8.53033 5.07745 8.52122 5.07745 8.51212C5.06415 8.18578 5.05583 7.85792 5.07912 7.53158C5.09742 7.29176 5.30534 7.12631 5.56982 7.11872C5.73448 7.11417 5.90082 7.11872 6.06715 7.11872L6.06549 7.1172Z" fill="white"/>
<path d="M38.6817 10.332C38.6817 10.4641 38.6767 10.5961 38.6817 10.7282C38.6933 11.015 38.4737 11.2093 38.1626 11.2139C37.8449 11.2184 37.5273 11.2154 37.2112 11.2139C37.0998 11.2139 36.9916 11.1881 36.8952 11.1349C36.7422 11.05 36.654 10.9285 36.6524 10.7646C36.6489 10.4716 36.6507 10.1802 36.6524 9.88727C36.6524 9.62923 36.9135 9.35146 37.2495 9.36057C37.5389 9.36816 37.8283 9.36057 38.1194 9.36209C38.4072 9.36209 38.6317 9.54272 38.6734 9.80378C38.68 9.84476 38.6817 9.88575 38.6817 9.92521C38.6817 10.0603 38.6817 10.1954 38.6817 10.3305V10.332Z" fill="white"/>
<path d="M35.1572 1.9671C34.9958 1.9671 34.8329 1.9671 34.6715 1.9671C34.595 1.9671 34.5202 1.95496 34.4503 1.92611C34.3039 1.86691 34.219 1.76218 34.1958 1.61647C34.1891 1.57852 34.1875 1.54058 34.1875 1.50415C34.1875 1.23701 34.1875 0.969864 34.1875 0.70272C34.1875 0.572184 34.2141 0.446203 34.2939 0.33388C34.3937 0.191202 34.5285 0.112274 34.7214 0.115309C35.0108 0.119863 35.3019 0.127452 35.5896 0.113791C35.8757 0.100131 36.2168 0.36272 36.2201 0.675399C36.2234 0.95772 36.2201 1.24156 36.2201 1.52389C36.2201 1.67415 36.1419 1.78799 36.0055 1.86843C35.8958 1.93218 35.7743 1.96558 35.6446 1.96558C35.4832 1.96558 35.3203 1.96558 35.1588 1.96558L35.1572 1.9671Z" fill="white"/>
<path d="M37.6935 7.11741C37.8449 7.11741 37.9979 7.12045 38.1493 7.11741C38.4254 7.10982 38.6866 7.29956 38.6833 7.60464C38.6799 7.88393 38.6833 8.16473 38.6833 8.44401C38.6833 8.5533 38.6533 8.65652 38.5867 8.74759C38.4836 8.88724 38.3422 8.96768 38.1559 8.97071C37.8416 8.97375 37.5289 8.97527 37.2146 8.97071C36.9167 8.96464 36.6656 8.74455 36.6573 8.47286C36.6473 8.17384 36.649 7.87482 36.6573 7.57732C36.6639 7.32991 36.8885 7.1341 37.1696 7.12348C37.3459 7.11589 37.5206 7.12348 37.6969 7.12348L37.6935 7.11741Z" fill="white"/>
<path d="M24.0488 12.6302C24.0488 12.489 24.0488 12.3463 24.0488 12.2051C24.0505 11.9335 24.2484 11.7453 24.5445 11.7407C24.8721 11.7361 25.1999 11.7392 25.5276 11.7407C25.6856 11.7407 25.8236 11.7938 25.9367 11.8955C26.0282 11.979 26.0764 12.0807 26.0764 12.2006C26.0764 12.4905 26.0781 12.7789 26.0764 13.0688C26.0731 13.339 25.8136 13.5849 25.5159 13.5894C25.1949 13.5955 24.8738 13.5955 24.5528 13.5894C24.28 13.5849 24.0554 13.3602 24.0471 13.0931C24.0422 12.9398 24.0471 12.7849 24.0471 12.6302H24.0488Z" fill="white"/>
<path d="M0.00166336 5.7071C0.00166336 5.56291 0.00166336 5.41719 0.00166336 5.273C0.00332671 5.103 0.0815044 4.96335 0.221226 4.85255C0.31271 4.7797 0.417502 4.74023 0.542254 4.74174C0.838331 4.74326 1.13607 4.74174 1.43215 4.74174C1.72989 4.74174 1.96609 4.92237 2.01931 5.19103C2.02763 5.23504 2.03096 5.27755 2.03096 5.32309C2.03096 5.58112 2.02264 5.83916 2.03096 6.09719C2.0426 6.41139 1.79642 6.58291 1.51698 6.5905C1.176 6.5996 0.833341 6.59808 0.492353 6.5905C0.261147 6.58595 0.0831678 6.45996 0.0199603 6.28237C0.00332671 6.2338 0 6.18371 0 6.13363C0 5.99246 0 5.84979 0 5.70862L0.00166336 5.7071Z" fill="white"/>
<path d="M32.6266 7.11756C32.7781 7.11756 32.9311 7.12212 33.0825 7.11756C33.3402 7.10845 33.6081 7.26783 33.613 7.59568C33.618 7.84462 33.613 8.09203 33.613 8.34095C33.613 8.41685 33.613 8.49123 33.5981 8.56711C33.5448 8.81149 33.3386 8.97087 33.0659 8.97238C32.7697 8.9739 32.472 8.9739 32.1759 8.97238C31.9065 8.97087 31.6785 8.81301 31.602 8.58533C31.5838 8.53373 31.5821 8.4806 31.5821 8.42748C31.5821 8.16033 31.5904 7.89319 31.5804 7.62605C31.5688 7.31033 31.8765 7.12819 32.1094 7.12364C32.2824 7.1206 32.4537 7.12364 32.6266 7.12364V7.11756Z" fill="white"/>
<path d="M18.3984 1.1004C18.3984 1.24764 18.3984 1.39639 18.3984 1.54362C18.3951 1.80622 18.2205 1.96559 17.931 1.96711C17.6066 1.96711 17.2823 1.96862 16.958 1.96711C16.7983 1.96711 16.6519 1.92156 16.5289 1.82746C16.424 1.75004 16.3691 1.64835 16.3691 1.52388C16.3691 1.24157 16.3691 0.957726 16.3691 0.675405C16.3708 0.393083 16.6736 0.119868 16.9846 0.11835C17.2923 0.116833 17.5983 0.11835 17.9061 0.11835C18.0558 0.11835 18.1722 0.174511 18.2604 0.280762C18.3502 0.38853 18.3951 0.512994 18.3967 0.649602C18.3984 0.799869 18.3967 0.951655 18.3967 1.10192L18.3984 1.1004Z" fill="white"/>
<path d="M30.1046 11.7406C30.2593 11.7406 30.4156 11.7406 30.5703 11.7406C30.7433 11.7406 30.8946 11.7953 31.0161 11.9091C31.1026 11.9896 31.1475 12.0868 31.1492 12.1975C31.1508 12.4874 31.1525 12.7758 31.1492 13.0657C31.1442 13.3374 30.878 13.5848 30.577 13.5894C30.256 13.5954 29.9349 13.5925 29.6139 13.5894C29.4875 13.5894 29.3794 13.5423 29.2912 13.4589C29.1781 13.3526 29.1199 13.2252 29.1199 13.0764C29.1199 12.7804 29.1182 12.4843 29.1199 12.1899C29.1215 11.9273 29.3178 11.7467 29.6073 11.7406C29.7736 11.7376 29.9382 11.7406 30.1046 11.7406Z" fill="white"/>
<path d="M24.0485 8.01863C24.0485 7.87746 24.0485 7.73631 24.0485 7.59362C24.0502 7.3113 24.2581 7.12006 24.5675 7.11854C24.8819 7.1155 25.1946 7.11854 25.5089 7.11854C25.6719 7.11854 25.8133 7.16863 25.9281 7.27336C26.0262 7.3614 26.0761 7.46765 26.0761 7.59514C26.0761 7.87444 26.0695 8.15524 26.0761 8.43453C26.0828 8.67434 25.8566 8.95818 25.5205 8.96729C25.1962 8.9764 24.8718 8.97488 24.5475 8.96729C24.2714 8.96122 24.0535 8.74265 24.0452 8.48006C24.0402 8.32676 24.0452 8.17193 24.0452 8.01711L24.0485 8.01863Z" fill="white"/>
<path d="M24.0488 10.3261C24.0488 10.1789 24.0488 10.0301 24.0488 9.88288C24.0488 9.74171 24.1054 9.61878 24.2086 9.51403C24.3034 9.41841 24.4197 9.36377 24.5628 9.36377C24.8806 9.36377 25.1982 9.36377 25.516 9.36377C25.817 9.36377 26.0798 9.6385 26.0781 9.89502C26.0781 10.1713 26.0715 10.449 26.0798 10.7253C26.0882 10.9666 25.9052 11.1473 25.6523 11.2004C25.5991 11.211 25.5442 11.2171 25.4876 11.2171C25.1882 11.2171 24.8872 11.2171 24.5878 11.2171C24.5179 11.2171 24.4497 11.2095 24.3849 11.1898C24.1819 11.1306 24.0555 10.9757 24.0488 10.7799C24.0488 10.7739 24.0488 10.7678 24.0488 10.7617C24.0488 10.6175 24.0488 10.4718 24.0488 10.3276V10.3261Z" fill="white"/>
<path d="M30.1016 9.36169C30.2463 9.36169 30.391 9.36625 30.5357 9.36169C30.8734 9.34955 31.1612 9.64553 31.1512 9.92785C31.1411 10.1889 31.1429 10.45 31.1512 10.7111C31.1612 10.9904 30.9433 11.1512 30.7137 11.1983C30.6572 11.2104 30.5989 11.215 30.539 11.215C30.243 11.215 29.9452 11.215 29.6492 11.215C29.576 11.215 29.5045 11.2074 29.4363 11.1846C29.2499 11.1254 29.1252 10.9797 29.1236 10.8006C29.1186 10.4834 29.1168 10.1646 29.1236 9.8474C29.1269 9.68955 29.2051 9.5575 29.3398 9.45428C29.423 9.39206 29.5178 9.36169 29.6258 9.36169C29.7839 9.36169 29.9436 9.36169 30.1016 9.36169Z" fill="white"/>
<path d="M14.9231 11.7403C15.0811 11.7403 15.2407 11.7403 15.3987 11.7403C15.5351 11.7403 15.6566 11.7767 15.7613 11.8572C15.8695 11.9406 15.9327 12.0469 15.9344 12.1774C15.9361 12.4825 15.9361 12.7876 15.9344 13.0927C15.9344 13.3067 15.7165 13.5951 15.3688 13.5905C15.0761 13.5875 14.7817 13.5845 14.4889 13.5905C14.1579 13.5997 13.9134 13.3446 13.9068 13.076C13.9 12.78 13.9018 12.484 13.9068 12.1895C13.9118 11.9467 14.1146 11.7569 14.3858 11.7433C14.5638 11.7342 14.745 11.7417 14.9231 11.7417V11.7388V11.7403Z" fill="white"/>
<path d="M11.1196 1.96729C10.9582 1.96729 10.7952 1.96729 10.6339 1.96729C10.5025 1.96729 10.3827 1.93085 10.2829 1.85041C10.1848 1.76996 10.1415 1.66371 10.1399 1.54835C10.1365 1.24934 10.1349 0.951836 10.1399 0.652817C10.1432 0.507103 10.2014 0.376567 10.3095 0.267281C10.406 0.170138 10.5258 0.117013 10.6738 0.118531C10.9699 0.121567 11.2676 0.127638 11.5637 0.118531C11.8814 0.106388 12.1575 0.397817 12.1658 0.637639C12.1708 0.74996 12.1692 0.8638 12.1692 0.977639C12.1692 1.15675 12.1675 1.33586 12.1692 1.51496C12.1725 1.71228 12.0644 1.83978 11.8747 1.92023C11.7899 1.95666 11.6985 1.97336 11.6036 1.97184C11.4423 1.97184 11.2793 1.97184 11.1179 1.97184L11.1196 1.96729Z" fill="white"/>
<path d="M0.00195312 10.3193C0.00195312 10.1782 0.00195312 10.037 0.00195312 9.89432C0.00195312 9.73798 0.066824 9.60744 0.186585 9.49816C0.293041 9.40254 0.421119 9.36004 0.569157 9.36156C0.858582 9.36308 1.14967 9.36915 1.43909 9.36156C1.77177 9.35245 2.02294 9.61655 2.02958 9.88217C2.03623 10.1782 2.03457 10.4741 2.02958 10.7686C2.02626 10.9826 1.85992 11.1526 1.62538 11.1997C1.57216 11.2103 1.51726 11.2164 1.46072 11.2164C1.16131 11.2164 0.860245 11.2164 0.560841 11.2164C0.480999 11.2164 0.402821 11.2073 0.327971 11.1815C0.126704 11.1147 0.00527985 10.9599 0.00361649 10.7641C0.00195312 10.6168 0.00361649 10.4681 0.00361649 10.3208L0.00195312 10.3193Z" fill="white"/>
<path d="M9.56021 8.02525C9.56021 8.16944 9.56021 8.31516 9.56021 8.45935C9.56021 8.55195 9.53858 8.63998 9.49034 8.72195C9.39886 8.8798 9.2558 8.96784 9.05787 8.96935C8.74682 8.97239 8.43745 8.97239 8.12639 8.96935C7.81701 8.96632 7.5176 8.71739 7.52759 8.40775C7.53756 8.15275 7.52925 7.89775 7.52925 7.64275C7.52925 7.35132 7.75047 7.13579 8.0715 7.1206C8.22287 7.11301 8.3759 7.11757 8.52726 7.11757C8.70357 7.11757 8.8799 7.1206 9.05455 7.11757C9.36726 7.10998 9.56021 7.3331 9.55854 7.57293C9.55688 7.72319 9.55854 7.87498 9.55854 8.02525H9.56021Z" fill="white"/>
<path d="M22.5045 1.96692C22.3432 1.96692 22.1802 1.96692 22.0188 1.96692C21.8807 1.96692 21.7527 1.9305 21.6396 1.85916C21.5082 1.7772 21.4399 1.66488 21.4416 1.51612C21.4449 1.23988 21.4499 0.962108 21.4416 0.685858C21.4316 0.41416 21.7494 0.101481 22.0721 0.113624C22.3648 0.125767 22.6575 0.119696 22.9519 0.113624C23.1366 0.110588 23.268 0.186481 23.3645 0.321571C23.436 0.421749 23.4727 0.532554 23.4727 0.650947C23.4727 0.946928 23.476 1.24139 23.4727 1.53737C23.4709 1.79542 23.288 1.95934 23.0035 1.96238C22.8372 1.9639 22.6725 1.96238 22.5062 1.96238L22.5045 1.96692Z" fill="white"/>
<path d="M29.1199 1.09118C29.1199 0.943945 29.1182 0.795195 29.1199 0.647963C29.1232 0.48707 29.1897 0.348944 29.3162 0.235105C29.4027 0.157694 29.5074 0.116712 29.6322 0.116712C29.9282 0.116712 30.226 0.125819 30.522 0.115194C30.8214 0.103051 31.0793 0.339837 31.1342 0.562963C31.1442 0.605463 31.1508 0.64948 31.1508 0.693499C31.1508 0.966713 31.1508 1.23993 31.1508 1.51466C31.1508 1.68011 31.0693 1.80306 30.9147 1.88653C30.8181 1.93814 30.7117 1.96698 30.6002 1.96698C30.2659 1.96698 29.9316 1.97002 29.5973 1.96698C29.3627 1.96547 29.1897 1.84404 29.1348 1.65582C29.1232 1.61636 29.1215 1.57538 29.1215 1.5344C29.1215 1.38716 29.1215 1.23841 29.1215 1.09118H29.1199Z" fill="white"/>
<path d="M0.00235459 3.40444C0.00235459 3.26327 0.0056813 3.1206 0.00235459 2.97943C-0.00596219 2.71077 0.241878 2.4922 0.531302 2.4922C0.849002 2.4922 1.16671 2.49372 1.48274 2.4922C1.74555 2.49068 2.03996 2.68041 2.03331 3.00524C2.02832 3.27238 2.02832 3.53952 2.03331 3.80667C2.03996 4.12086 1.75719 4.35613 1.43949 4.34702C1.15007 4.33791 0.860646 4.33943 0.571222 4.34702C0.233561 4.35461 -0.0092889 4.08899 0.00235459 3.82943C0.00900801 3.68828 0.00235459 3.54711 0.00235459 3.40444Z" fill="white"/>
<path d="M30.1077 7.11719C30.2624 7.11719 30.4188 7.11719 30.5735 7.11719C30.7049 7.11719 30.8246 7.1521 30.9311 7.22344C31.0742 7.31754 31.1507 7.44505 31.1507 7.60897C31.1507 7.87915 31.144 8.15084 31.1507 8.42103C31.1573 8.6988 30.8978 8.95987 30.5851 8.96746C30.2607 8.97505 29.9364 8.97505 29.612 8.96746C29.3393 8.96138 29.128 8.74737 29.1214 8.48478C29.1164 8.30567 29.1214 8.12656 29.1214 7.94746C29.1214 7.82147 29.1197 7.6955 29.1214 7.56951C29.1264 7.30995 29.3277 7.12478 29.6103 7.11871C29.7768 7.11567 29.9414 7.11871 30.1077 7.11871V7.11719Z" fill="white"/>
<path d="M19.9836 7.1166C20.1449 7.1166 20.3079 7.1166 20.4693 7.1166C20.6257 7.1166 20.7586 7.17124 20.8668 7.27294C20.9566 7.35642 21.0065 7.45964 21.0065 7.57803C21.0065 7.87098 21.0099 8.1624 21.0065 8.45535C21.0016 8.73463 20.752 8.96231 20.4426 8.96687C20.135 8.97142 19.8289 8.9699 19.5211 8.96687C19.2267 8.96383 18.9872 8.75437 18.9789 8.48267C18.9706 8.17454 18.9706 7.86642 18.9789 7.55829C18.9839 7.32151 19.1935 7.12874 19.4547 7.11812C19.631 7.11053 19.8056 7.11812 19.9819 7.11812V7.1166H19.9836Z" fill="white"/>
<path d="M15.9377 10.3225C15.9377 10.4515 15.9294 10.5805 15.9377 10.7095C15.9593 11.001 15.7265 11.2043 15.412 11.2135C15.0844 11.221 14.7567 11.2165 14.4291 11.2135C14.3592 11.2135 14.291 11.1998 14.2278 11.1755C14.0265 11.0996 13.9118 10.963 13.9068 10.7642C13.9018 10.4712 13.9 10.1783 13.9068 9.88684C13.9118 9.69559 14.0082 9.54381 14.1828 9.43604C14.2527 9.39353 14.3292 9.3647 14.4141 9.3647C14.7484 9.3647 15.0828 9.35711 15.417 9.3647C15.6898 9.37229 15.9245 9.60756 15.9328 9.86863C15.9377 10.0189 15.9328 10.1707 15.9328 10.321L15.9377 10.3225Z" fill="white"/>
<path d="M32.6214 1.96746C32.4601 1.96746 32.2971 1.96746 32.1358 1.96746C32.0094 1.96746 31.8896 1.93559 31.7848 1.87032C31.6584 1.79138 31.5835 1.6821 31.5835 1.53791C31.5835 1.24496 31.5802 0.953528 31.5835 0.660581C31.5869 0.419242 31.7931 0.188527 32.0459 0.12933C32.0875 0.120223 32.1275 0.117188 32.169 0.117188C32.4717 0.117188 32.7762 0.118705 33.0789 0.117188C33.2236 0.117188 33.34 0.167277 33.4365 0.261384C33.5546 0.376741 33.6112 0.517902 33.6145 0.672724C33.6178 0.958082 33.6195 1.24496 33.6145 1.53032C33.6095 1.7929 33.4182 1.9629 33.1288 1.96746C32.9591 1.97049 32.7912 1.96746 32.6214 1.96746Z" fill="white"/>
<path d="M29.1197 3.40394C29.1197 3.25975 29.123 3.11404 29.1197 2.96984C29.1131 2.74216 29.301 2.48868 29.6403 2.49322C29.948 2.49778 30.2541 2.49322 30.5618 2.49322C30.7248 2.49322 30.8662 2.54332 30.9843 2.64502C31.0957 2.74064 31.1507 2.85751 31.1507 2.99716C31.1507 3.26734 31.1457 3.53903 31.1507 3.80921C31.1573 4.10064 30.8745 4.34198 30.5751 4.34502C30.2607 4.34805 29.9464 4.34805 29.6337 4.34502C29.3492 4.3435 29.128 4.1401 29.1214 3.87448C29.1164 3.71662 29.1214 3.56029 29.1214 3.40242L29.1197 3.40394Z" fill="white"/>
<path d="M14.9297 2.49505C15.096 2.49505 15.2607 2.4905 15.4271 2.49505C15.6633 2.50264 15.8629 2.65139 15.9244 2.85782C15.9377 2.90032 15.9377 2.94434 15.9377 2.98835C15.9377 3.26764 15.9327 3.54844 15.9394 3.82773C15.946 4.07818 15.7115 4.34987 15.3655 4.34532C15.0695 4.34077 14.7717 4.34532 14.4757 4.34532C14.1546 4.34532 13.9118 4.12827 13.9068 3.83532C13.9035 3.54996 13.9035 3.26309 13.9068 2.97621C13.9101 2.70603 14.1363 2.50113 14.4324 2.49354C14.597 2.4905 14.7634 2.49354 14.9297 2.49354V2.49505Z" fill="white"/>
<path d="M15.9368 5.71421C15.9368 5.84323 15.9302 5.97225 15.9368 6.10127C15.9568 6.39421 15.7206 6.57939 15.4295 6.5885C15.0885 6.59761 14.7459 6.59913 14.4049 6.5885C14.1055 6.57787 13.8959 6.38815 13.9025 6.10583C13.9092 5.83564 13.9025 5.56394 13.9042 5.29377C13.9042 5.1177 13.9807 4.97047 14.1271 4.85359C14.2202 4.77921 14.33 4.73975 14.4581 4.73975C14.7509 4.74127 15.0453 4.73975 15.338 4.73975C15.6075 4.73975 15.8037 4.86421 15.8986 5.09492C15.9252 5.15716 15.9352 5.22243 15.9352 5.28921C15.9352 5.43037 15.9352 5.57305 15.9352 5.71421H15.9368Z" fill="white"/>
<path d="M23.4704 8.02782C23.4704 8.17201 23.4704 8.31621 23.4704 8.46192C23.4704 8.56513 23.4422 8.66076 23.3839 8.7488C23.2924 8.88844 23.1577 8.96737 22.9764 8.96888C22.662 8.97192 22.3493 8.97344 22.0349 8.96888C21.7754 8.96433 21.5326 8.79433 21.4594 8.57728C21.4444 8.53174 21.4395 8.48621 21.4395 8.43764C21.4395 8.16139 21.4428 7.88513 21.4395 7.60888C21.4378 7.45862 21.506 7.34174 21.629 7.24916C21.7388 7.16719 21.8653 7.12014 22.0083 7.11862C22.3393 7.1171 22.6703 7.11406 23.0013 7.11862C23.2675 7.12165 23.4588 7.3038 23.4687 7.55728C23.4737 7.71361 23.4687 7.87148 23.4687 8.02782H23.4704Z" fill="white"/>
<path d="M1.01444 7.1172C1.16581 7.1172 1.31718 7.1172 1.47021 7.1172C1.53674 7.1172 1.59995 7.12328 1.66315 7.14149C1.88438 7.20675 2.02909 7.3798 2.03075 7.59382C2.03408 7.87614 2.03408 8.15998 2.03075 8.4423C2.02743 8.74132 1.77959 8.96596 1.4519 8.96899C1.15583 8.97052 0.858089 8.97202 0.562012 8.96899C0.245974 8.96596 0.00645117 8.7489 0.00312446 8.46051C-0.000202243 8.16757 0.00478782 7.87614 0.00312446 7.58319C-0.000202243 7.33122 0.231004 7.12479 0.498804 7.11872C0.671794 7.11417 0.843118 7.11872 1.01611 7.11872L1.01444 7.1172Z" fill="white"/>
<path d="M29.1211 5.71005C29.1211 5.56282 29.1211 5.41407 29.1211 5.26684C29.1211 5.1363 29.1677 5.01943 29.2542 4.91773C29.3523 4.80237 29.4787 4.73862 29.645 4.74014C29.9444 4.74318 30.2456 4.75077 30.545 4.73862C30.816 4.728 31.1437 4.96934 31.1504 5.27594C31.157 5.56737 31.1554 5.86032 31.1504 6.15327C31.1471 6.35362 30.9841 6.51908 30.7428 6.5722C30.6829 6.58585 30.6215 6.59344 30.5583 6.59344C30.2522 6.59344 29.9444 6.59344 29.6384 6.59344C29.5868 6.59344 29.5353 6.58737 29.4854 6.57826C29.2691 6.53425 29.1261 6.37791 29.1228 6.17452C29.1194 6.02121 29.1228 5.86639 29.1228 5.71309L29.1211 5.71005Z" fill="white"/>
<path d="M0.00170009 12.6318C0.00170009 12.4968 0.00835351 12.3617 0.00170009 12.2266C-0.0132701 11.9352 0.246213 11.7409 0.523994 11.7424C0.761854 11.7424 0.999713 11.7424 1.23758 11.7424C1.32739 11.7424 1.41721 11.7409 1.50704 11.7424C1.67004 11.7469 1.8081 11.803 1.91622 11.9154C1.9944 11.9973 2.03099 12.0945 2.03099 12.2008C2.03099 12.4907 2.03432 12.779 2.03099 13.069C2.02767 13.3483 1.76652 13.6002 1.44549 13.5926C1.15607 13.5851 0.866645 13.5851 0.575557 13.5926C0.2196 13.6018 -0.00328998 13.3073 3.67287e-05 13.075C0.00336344 12.9278 3.67287e-05 12.779 3.67287e-05 12.6318H0.00170009Z" fill="white"/>
<path d="M15.9376 8.02442C15.9376 8.16253 15.9327 8.30066 15.9376 8.43879C15.9493 8.68013 15.7231 8.97611 15.3555 8.97004C15.0661 8.96548 14.7766 8.96548 14.4855 8.97004C14.1362 8.97459 13.9067 8.71049 13.905 8.44487C13.905 8.16253 13.9034 7.87869 13.905 7.59637C13.9084 7.3262 14.1246 7.12433 14.4207 7.11825C14.7517 7.11218 15.0827 7.11522 15.4137 7.11825C15.6899 7.11825 15.9493 7.3262 15.936 7.60852C15.9293 7.74665 15.936 7.88477 15.936 8.0229L15.9376 8.02442Z" fill="white"/>
<path d="M24.0493 3.406C24.0493 3.26485 24.0526 3.12216 24.0493 2.98101C24.041 2.72904 24.2572 2.4877 24.5833 2.49225C24.8976 2.4968 25.2104 2.49073 25.5248 2.49377C25.7943 2.4968 26.0188 2.66377 26.0703 2.89145C26.0769 2.9218 26.0787 2.95368 26.0787 2.98555C26.0787 3.26484 26.0787 3.54565 26.0787 3.82494C26.0787 4.09815 25.8341 4.33644 25.5331 4.34253C25.202 4.35011 24.8711 4.35011 24.54 4.34253C24.274 4.33644 24.0577 4.12243 24.0511 3.86743C24.046 3.71413 24.0511 3.5593 24.0511 3.40448L24.0493 3.406Z" fill="white"/>
<path d="M1.01425 1.96746C0.8529 1.96746 0.689891 1.96746 0.528546 1.96746C0.433735 1.96746 0.343913 1.95076 0.259082 1.9113C0.0993999 1.83692 0.00458864 1.71852 0.00458864 1.55156C0.00292529 1.24951 -0.000401421 0.947456 0.00458864 0.64692C0.00957871 0.45567 0.10938 0.305402 0.279043 0.194598C0.358883 0.141473 0.450367 0.117188 0.55017 0.117188C0.856227 0.117188 1.16395 0.118705 1.47 0.117188C1.59808 0.117188 1.7062 0.156652 1.79935 0.231027C1.94906 0.350938 2.03056 0.502724 2.03056 0.686384C2.03056 0.953528 2.0239 1.22067 2.03222 1.48782C2.04219 1.82023 1.76608 1.95987 1.51824 1.96746C1.35025 1.97201 1.18058 1.96746 1.01092 1.96746H1.01425Z" fill="white"/>
<path d="M9.56194 1.10122C9.56194 1.24542 9.55862 1.39114 9.56194 1.53533C9.56859 1.7873 9.37897 1.96489 9.08788 1.96641C8.7602 1.96791 8.43252 1.96641 8.10485 1.96641C7.99173 1.96641 7.88694 1.9406 7.78714 1.89203C7.61914 1.80854 7.52766 1.68257 7.52932 1.50346C7.53098 1.23328 7.52932 0.963096 7.52932 0.692918C7.52932 0.436399 7.73724 0.196578 8.00836 0.13131C8.05327 0.120685 8.09652 0.119167 8.14144 0.119167C8.44084 0.119167 8.74191 0.122203 9.04131 0.119167C9.20765 0.117649 9.33239 0.181399 9.42888 0.299792C9.51537 0.406043 9.55862 0.527471 9.55862 0.661043C9.55862 0.808275 9.55862 0.957025 9.55862 1.10426L9.56194 1.10122Z" fill="white"/>
<path d="M19.9774 1.9668C19.816 1.9668 19.6531 1.9668 19.4916 1.9668C19.4002 1.9668 19.3137 1.94859 19.2322 1.91216C19.0742 1.8393 18.9826 1.72091 18.9793 1.56001C18.9727 1.25189 18.9677 0.943761 18.981 0.635636C18.991 0.409476 19.1191 0.237957 19.3502 0.140814C19.4035 0.118046 19.4617 0.113493 19.5216 0.115011C19.8111 0.115011 20.1005 0.115011 20.3899 0.115011C20.6777 0.115011 20.9022 0.27135 20.9837 0.524832C21.002 0.582511 21.007 0.641708 21.007 0.702422C21.007 0.960459 21.007 1.21849 21.007 1.47501C21.007 1.77403 20.8058 1.95921 20.4731 1.96377C20.3084 1.96528 20.142 1.96377 19.9774 1.96377V1.9668Z" fill="white"/>
<path d="M54.8835 13.8355C54.8835 13.8537 54.8918 13.8583 54.9019 13.8614C55.148 13.9479 55.2561 14.1255 55.301 14.3501C55.3344 14.5216 55.336 14.6946 55.3593 14.8662C55.3709 14.9512 55.3842 15.0346 55.4075 15.1166C55.4208 15.1651 55.4441 15.2091 55.4957 15.2623C55.336 15.2623 55.198 15.2639 55.0582 15.2623C55.0116 15.2623 55 15.2214 54.99 15.1895C54.9633 15.1075 54.955 15.0225 54.9467 14.939C54.9334 14.7918 54.9202 14.6446 54.9069 14.4973C54.9052 14.473 54.9002 14.4472 54.8936 14.423C54.827 14.1528 54.6756 14.0298 54.3712 14.0131C54.0502 13.9949 53.7291 14.0101 53.4082 14.004C53.3416 14.004 53.3483 14.039 53.3483 14.0769C53.3483 14.3501 53.3483 14.6248 53.3483 14.8981C53.3483 15.0013 53.3483 15.1059 53.3483 15.2091C53.3483 15.2487 53.3383 15.2669 53.29 15.2654C53.1903 15.2623 53.0905 15.2623 52.9906 15.2654C52.9425 15.2654 52.9307 15.2471 52.9341 15.2091C52.9341 15.1941 52.9341 15.1773 52.9341 15.1622C52.9341 14.2377 52.9341 13.3119 52.9341 12.3875C52.9341 12.2675 52.9208 12.2827 53.0489 12.2812C53.5112 12.2812 53.9737 12.2812 54.4361 12.2812C54.6024 12.2812 54.7655 12.3025 54.9202 12.3663C55.2312 12.4968 55.3942 12.7199 55.4208 13.028C55.4291 13.1251 55.4242 13.2223 55.4008 13.3194C55.3493 13.5365 55.2112 13.6928 54.9933 13.7899C54.955 13.8067 54.9152 13.8218 54.8785 13.837L54.8835 13.8355ZM53.9553 12.6121V12.6091C53.7758 12.6091 53.5978 12.6106 53.4181 12.6091C53.3632 12.6091 53.3483 12.6258 53.3499 12.6744C53.3516 12.9006 53.3499 13.1267 53.3499 13.3528C53.3499 13.4499 53.3516 13.5471 53.3499 13.6442C53.3499 13.6853 53.3649 13.699 53.4098 13.6974C53.4863 13.6944 53.5612 13.6974 53.6377 13.6974C53.8989 13.6974 54.1616 13.7004 54.4228 13.6913C54.7622 13.6792 54.9767 13.5031 55 13.2087C55.0266 12.8489 54.8752 12.6728 54.5459 12.6213C54.5093 12.6152 54.4711 12.6121 54.4328 12.6121C54.2748 12.6121 54.1151 12.6121 53.9571 12.6121H53.9553Z" fill="white"/>
<path d="M55.924 13.7776C55.924 13.3147 55.924 12.8532 55.924 12.3903C55.924 12.3675 55.924 12.3463 55.924 12.3235C55.9223 12.2916 55.9373 12.2764 55.9722 12.2779C55.9889 12.2779 56.0071 12.2779 56.0237 12.2779C56.383 12.2779 56.7423 12.2779 57.0999 12.2779C57.2729 12.2779 57.4443 12.2947 57.6106 12.3402C58.0248 12.454 58.3008 12.7044 58.4389 13.0719C58.6119 13.5318 58.6203 13.9992 58.4422 14.4607C58.2659 14.9145 57.9 15.1665 57.3827 15.2408C57.2829 15.2545 57.1831 15.2606 57.0833 15.2606C56.724 15.2606 56.3648 15.2606 56.0071 15.2606C55.924 15.2606 55.924 15.2606 55.924 15.1832C55.924 14.7142 55.924 14.2451 55.924 13.7761V13.7776ZM56.3381 13.77C56.3381 14.0523 56.3381 14.3362 56.3381 14.6185C56.3381 14.7035 56.3397 14.7886 56.3381 14.8735C56.3364 14.9206 56.3565 14.9327 56.4046 14.9327C56.6774 14.9266 56.9503 14.9433 57.2213 14.9236C57.6672 14.8903 57.9583 14.6671 58.0779 14.2724C58.1528 14.0235 58.1511 13.7686 58.1279 13.5151C58.1179 13.4057 58.093 13.2979 58.053 13.1932C57.9566 12.9337 57.7786 12.7455 57.4875 12.659C57.3678 12.6241 57.2447 12.6104 57.1199 12.6104C56.8887 12.6104 56.6575 12.6104 56.4262 12.6104C56.3397 12.6104 56.3381 12.6104 56.3381 12.6954C56.3381 13.0536 56.3381 13.4119 56.3381 13.7715V13.77Z" fill="white"/>
<path d="M60.2295 15.3181C60.0133 15.3212 59.8037 15.2954 59.6007 15.2241C59.1367 15.0617 58.9022 14.7444 58.8506 14.3027C58.8456 14.2648 58.8589 14.2512 58.8989 14.2512C58.9986 14.2512 59.0985 14.2512 59.1982 14.2512C59.2348 14.2512 59.2532 14.2602 59.2581 14.2981C59.2648 14.3483 59.2781 14.3969 59.2914 14.4454C59.3745 14.7292 59.5758 14.9053 59.8868 14.9766C60.1248 15.0313 60.3659 15.0389 60.6021 14.9737C60.9348 14.8826 61.0994 14.6185 61.0163 14.3225C60.9814 14.1995 60.8948 14.113 60.7785 14.0492C60.6404 13.9748 60.4874 13.9354 60.3343 13.8989C60.1148 13.8474 59.8901 13.8124 59.6722 13.7488C59.5675 13.7169 59.4661 13.6789 59.3695 13.6304C58.8556 13.3784 58.8906 12.709 59.2731 12.4449C59.4078 12.3523 59.5575 12.2916 59.7205 12.2581C59.9834 12.205 60.2478 12.2066 60.5106 12.2612C60.9265 12.3462 61.1859 12.583 61.2957 12.9564C61.314 13.0156 61.3573 13.0899 61.3223 13.137C61.2891 13.1826 61.201 13.1491 61.1361 13.1522C61.0778 13.1553 61.0096 13.1674 60.963 13.1461C60.9132 13.1218 60.9281 13.049 60.9115 12.9989C60.8334 12.7712 60.6753 12.6194 60.4208 12.5556C60.193 12.498 59.9633 12.501 59.7388 12.5678C59.5708 12.6179 59.4411 12.7105 59.3912 12.876C59.3363 13.0581 59.4029 13.2235 59.5758 13.3267C59.6956 13.3981 59.832 13.4345 59.9684 13.4664C60.2013 13.5195 60.4424 13.5499 60.6719 13.6152C60.7635 13.641 60.855 13.6713 60.9414 13.7077C61.3173 13.8686 61.4753 14.1509 61.4371 14.5395C61.4056 14.8597 61.2109 15.0784 60.8915 15.2074C60.6802 15.2939 60.4557 15.3227 60.2262 15.3181H60.2295Z" fill="white"/>
<path d="M62.4545 15.2512C62.4711 14.8656 62.6391 14.5514 62.9568 14.3025C63.1082 14.1826 63.2778 14.0855 63.4509 13.9928C63.5905 13.9185 63.7319 13.8456 63.8699 13.7697C63.9715 13.7151 64.0679 13.6544 64.1544 13.5815C64.3756 13.3918 64.4189 13.1596 64.3241 12.9076C64.2326 12.6632 64.0213 12.5524 63.7503 12.525C63.6437 12.5144 63.5357 12.519 63.4325 12.5494C63.1747 12.6253 63.03 12.7908 62.9834 13.032C62.9701 13.1034 62.9585 13.1748 62.9618 13.2476C62.9635 13.2855 62.9535 13.3053 62.9052 13.3053C62.7987 13.3022 62.6907 13.3038 62.5843 13.3053C62.5426 13.3053 62.5293 13.2886 62.5327 13.2536C62.5443 13.1034 62.5576 12.9532 62.6191 12.8104C62.7123 12.5934 62.8719 12.4279 63.1049 12.3308C63.4575 12.1836 63.8185 12.1714 64.1811 12.2974C64.5553 12.4264 64.7765 12.7345 64.7881 13.1004C64.7998 13.4312 64.6567 13.6847 64.3656 13.8744C64.2342 13.961 64.0928 14.0338 63.9514 14.1068C63.7835 14.1917 63.6138 14.2767 63.4525 14.3753C63.3244 14.4543 63.2013 14.5408 63.0999 14.6501C63.0333 14.723 62.9751 14.7989 62.9502 14.8975C62.9884 14.9157 63.0267 14.9096 63.0632 14.9096C63.5772 14.9096 64.0912 14.9096 64.6051 14.9096C64.7382 14.9096 64.7183 14.9021 64.7199 15.0174C64.7199 15.0797 64.7166 15.1434 64.7199 15.2056C64.7233 15.2527 64.7017 15.2679 64.6534 15.2633C64.6434 15.2633 64.6335 15.2633 64.6218 15.2633C63.9282 15.2633 63.2345 15.2633 62.541 15.2633C62.5144 15.2633 62.4861 15.2679 62.4512 15.2542L62.4545 15.2512Z" fill="white"/>
<path d="M45.9386 15.2616C45.8055 15.2616 45.6725 15.2616 45.5378 15.2616C45.4945 15.2616 45.4895 15.2328 45.4795 15.207C45.4396 15.1007 45.398 14.9929 45.3564 14.8868C45.2948 14.7273 45.2316 14.5664 45.1735 14.4055C45.1584 14.3661 45.1385 14.3525 45.092 14.3525C44.6994 14.354 44.3052 14.3555 43.9126 14.3525C43.8577 14.3525 43.8427 14.3767 43.8295 14.4147C43.7297 14.6727 43.6315 14.9308 43.5317 15.1872C43.5035 15.2601 43.5035 15.2616 43.4169 15.2616C43.3105 15.2616 43.204 15.2616 43.0926 15.2616C43.0826 15.2283 43.1026 15.2039 43.1109 15.1812C43.4901 14.2401 43.8694 13.3006 44.2486 12.3611C44.2885 12.2639 44.2702 12.2806 44.3801 12.279C44.4732 12.279 44.5663 12.279 44.6594 12.279C44.7443 12.279 44.746 12.279 44.7759 12.3534C44.904 12.6721 45.0338 12.9894 45.1619 13.3081C45.413 13.9304 45.6659 14.5512 45.917 15.1736C45.9269 15.1995 45.9469 15.2237 45.9386 15.2616ZM44.5148 12.6463C44.3467 13.1153 44.1504 13.5723 43.9791 14.0444H45.0371C44.869 13.5737 44.6811 13.1153 44.5165 12.6463H44.5148Z" fill="white"/>
<path d="M52.5876 15.2618C52.4429 15.2618 52.3132 15.2603 52.1817 15.2618C52.1269 15.2618 52.1236 15.2269 52.1119 15.195C52.0337 14.9931 51.9572 14.7913 51.8807 14.5894C51.8574 14.5302 51.8325 14.471 51.8142 14.4118C51.7992 14.3647 51.7726 14.351 51.7194 14.351C51.3951 14.3541 51.0707 14.351 50.7464 14.351C50.6848 14.351 50.6216 14.3541 50.56 14.351C50.5051 14.3466 50.4835 14.3693 50.4652 14.4148C50.3737 14.6577 50.2806 14.902 50.1825 15.1434C50.1259 15.2845 50.1708 15.2572 49.9978 15.2603C49.908 15.2603 49.8198 15.2603 49.7317 15.2603C49.7167 15.2238 49.7384 15.1996 49.7483 15.1753C50.1275 14.2342 50.5068 13.2947 50.8861 12.3535C50.9243 12.261 50.906 12.2777 51.0091 12.2762C51.1056 12.2762 51.2021 12.2807 51.2985 12.2747C51.3617 12.2716 51.3867 12.2943 51.4084 12.346C51.5747 12.7619 51.7443 13.1778 51.9124 13.5922C52.1253 14.1188 52.3398 14.647 52.5528 15.1738C52.5627 15.1965 52.571 15.2209 52.586 15.2588L52.5876 15.2618ZM51.6728 14.046C51.4965 13.5724 51.3252 13.1094 51.1472 12.6314C50.9825 13.1171 50.7862 13.5755 50.6133 14.046H51.6728Z" fill="white"/>
<path d="M65.1573 13.8276C65.149 13.5513 65.1873 13.2827 65.3037 13.0262C65.4235 12.762 65.6065 12.5465 65.9009 12.4281C66.345 12.2475 66.992 12.3113 67.3313 12.8364C67.4511 13.0232 67.521 13.2265 67.5543 13.4391C67.6074 13.7851 67.5991 14.1281 67.4977 14.4681C67.4378 14.667 67.3447 14.8522 67.1917 15.007C66.9571 15.2423 66.6593 15.3348 66.3183 15.3227C65.8792 15.3075 65.5632 15.1132 65.3619 14.7611C65.2356 14.5395 65.1807 14.3011 65.1606 14.0553C65.154 13.9809 65.1606 13.905 65.1606 13.8291L65.1573 13.8276ZM65.5499 13.8579C65.5449 13.987 65.5615 14.1403 65.5931 14.2921C65.6331 14.4787 65.7013 14.6548 65.8377 14.8036C66.1037 15.0966 66.6877 15.0935 66.9388 14.7626C67.0136 14.6624 67.0702 14.5562 67.1018 14.4393C67.2033 14.0735 67.2083 13.7062 67.1285 13.3374C67.0918 13.1658 67.0253 13.0049 66.9039 12.8668C66.651 12.583 66.1603 12.5602 65.8742 12.8167C65.7695 12.9123 65.7013 13.0276 65.653 13.1537C65.5715 13.3738 65.5466 13.5999 65.5483 13.8564L65.5499 13.8579Z" fill="white"/>
<path d="M68.3681 14.9232C68.4181 14.9232 68.4563 14.9232 68.4929 14.9232C68.9802 14.9232 69.4659 14.9232 69.9533 14.9232C69.9782 14.9232 70.0016 14.9232 70.0265 14.9232C70.0564 14.9232 70.0697 14.9353 70.0697 14.9626C70.0697 15.0507 70.0697 15.1387 70.0697 15.2267C70.0697 15.2511 70.0581 15.2602 70.0315 15.2602C70.0182 15.2602 70.0031 15.2602 69.9899 15.2602C69.3129 15.2602 68.6376 15.2602 67.9606 15.2602C67.944 15.2602 67.9273 15.2586 67.9023 15.2571C67.9023 15.0522 67.9589 14.864 68.0638 14.6895C68.1619 14.5271 68.2999 14.3966 68.4579 14.2826C68.6109 14.1734 68.7773 14.0839 68.9436 13.9958C69.0517 13.9396 69.1582 13.8819 69.2646 13.8242C69.3478 13.7787 69.4261 13.7287 69.5009 13.671C69.7238 13.4979 69.7769 13.2794 69.7038 13.032C69.6556 12.8711 69.5408 12.7572 69.3711 12.692C69.1831 12.6206 68.9885 12.613 68.7956 12.6737C68.6109 12.7329 68.4879 12.8498 68.4297 13.0198C68.3964 13.1169 68.3847 13.2157 68.3831 13.3174C68.3831 13.3841 68.3798 13.3841 68.3082 13.3856C68.2151 13.3856 68.122 13.3856 68.0288 13.3856C67.9889 13.3856 67.974 13.372 67.9755 13.3355C67.9872 12.8134 68.2667 12.4233 68.9087 12.3504C69.1083 12.3276 69.3079 12.3383 69.5009 12.399C69.9167 12.5311 70.1596 12.8634 70.1362 13.2642C70.1213 13.5344 69.9948 13.7454 69.7603 13.9063C69.6423 13.9882 69.5142 14.0566 69.3844 14.1218C69.1914 14.219 68.9969 14.313 68.8155 14.4283C68.6992 14.5027 68.5893 14.5847 68.5012 14.6849C68.443 14.7517 68.393 14.8215 68.3681 14.9186V14.9232Z" fill="white"/>
<path d="M72.1449 13.7213C72.1598 13.7532 72.188 13.7502 72.2097 13.7563C72.6538 13.8913 72.7969 14.2086 72.747 14.5849C72.707 14.8886 72.5174 15.1025 72.2131 15.218C71.7939 15.3773 71.3697 15.3683 70.9605 15.1876C70.5929 15.0252 70.415 14.7398 70.3833 14.374C70.38 14.3345 70.3916 14.3164 70.4382 14.3179C70.528 14.3193 70.6179 14.3208 70.7077 14.3179C70.7527 14.3179 70.7693 14.3315 70.7693 14.3725C70.7693 14.4302 70.7826 14.4848 70.7992 14.5395C70.8674 14.7565 71.0187 14.9068 71.2549 14.9797C71.4695 15.0464 71.6874 15.0525 71.9069 14.9964C72.2796 14.9007 72.4658 14.5273 72.3062 14.204C72.2479 14.0856 72.1482 14.0083 72.0201 13.9581C71.902 13.9111 71.7773 13.8913 71.6492 13.8837C71.6075 13.8807 71.566 13.8837 71.5244 13.8807C71.4645 13.8761 71.3747 13.908 71.3498 13.8655C71.3098 13.7988 71.3347 13.7123 71.3382 13.6348C71.3382 13.6045 71.3714 13.6091 71.3946 13.6091C71.4878 13.606 71.581 13.606 71.6741 13.6014C71.7673 13.5968 71.8588 13.5772 71.9452 13.5453C72.1265 13.4784 72.2396 13.3616 72.2612 13.1809C72.2846 12.9881 72.2081 12.8349 72.0284 12.7286C71.8554 12.627 71.6625 12.5996 71.4628 12.627C71.1052 12.6756 70.9007 12.8805 70.8707 13.2083C70.8641 13.2781 70.8757 13.2812 70.7875 13.2796C70.7077 13.2796 70.6295 13.2781 70.5497 13.2796C70.5014 13.2812 70.4848 13.2705 70.4882 13.222C70.5214 12.7332 70.874 12.4023 71.4113 12.3507C71.6708 12.3264 71.922 12.3462 72.1598 12.4463C72.3943 12.5465 72.5606 12.7029 72.6189 12.9381C72.707 13.2964 72.559 13.5605 72.2181 13.694C72.1947 13.7031 72.1714 13.7137 72.1482 13.7229L72.1449 13.7213Z" fill="white"/>
</g>
</g>
<defs>
<clipPath id="clip0_2342_2097">
<rect width="74" height="16" fill="white" transform="translate(0 0.11377)"/>
</clipPath>
</defs>
</svg>
