<svg width="71" height="24" viewBox="0 0 71 24" fill="none" xmlns="http://www.w3.org/2000/svg">
<mask id="mask0_4049_2421" style="mask-type:luminance" maskUnits="userSpaceOnUse" x="0" y="0" width="71" height="24">
<path d="M70.735 0.355225H0.570312V23.7136H70.735V0.355225Z" fill="white"/>
</mask>
<g mask="url(#mask0_4049_2421)">
<path d="M21.9141 17.0775C22.4285 17.0775 22.9058 17.0836 23.3829 17.0744C23.5945 17.0703 23.5689 17.2343 23.5935 17.3615C23.8621 18.7401 24.1287 20.1187 24.4091 21.5649C24.7495 20.1341 25.0811 18.7688 25.392 17.3985C25.447 17.1544 25.5258 17.0682 25.7737 17.0703C26.7232 17.0765 26.7221 17.0672 26.9376 18.016C27.1924 19.136 27.4482 20.2571 27.707 21.3926C27.8467 21.2993 27.8251 21.1598 27.8487 21.0479C28.1025 19.8478 28.3573 18.6488 28.5964 17.4457C28.6525 17.1637 28.7518 17.0426 29.0509 17.0693C29.4513 17.1041 29.8577 17.0775 30.2945 17.0775C29.9787 18.376 29.6717 19.6376 29.3658 20.8982C29.1699 21.7034 28.9683 22.5076 28.7862 23.3157C28.7351 23.5445 28.6445 23.6265 28.4173 23.6143C28.0375 23.5937 27.6548 23.5927 27.2751 23.6143C27.038 23.6286 26.9612 23.5281 26.9101 23.3045C26.6906 22.3331 26.4546 21.3649 26.2214 20.3967C26.1997 20.3063 26.2273 20.1649 26.0866 20.1618C25.9449 20.1586 25.9675 20.3084 25.9469 20.3935C25.7117 21.3597 25.4755 22.327 25.2631 23.2994C25.208 23.5527 25.1057 23.6246 24.8685 23.6132C24.4642 23.5937 24.0578 23.603 23.6525 23.6102C23.5128 23.6122 23.4253 23.5825 23.3878 23.4224C22.9028 21.3208 22.4128 19.2212 21.915 17.0765L21.9141 17.0775Z" fill="white"/>
<path d="M24.7599 2.98029C24.7599 3.3875 24.7599 3.73931 24.7599 4.09113C24.7599 5.55173 24.756 7.0113 24.7648 8.4719C24.7658 8.70883 24.7245 8.81961 24.4677 8.79909C24.1627 8.77448 23.8538 8.78679 23.5469 8.79602C23.3717 8.80114 23.2812 8.76833 23.2812 8.54883C23.2881 5.96201 23.2871 3.37416 23.2812 0.787345C23.2812 0.582205 23.3501 0.506304 23.537 0.529895C23.5616 0.532971 23.5872 0.533998 23.6108 0.529895C24.4441 0.365782 24.9626 0.69811 25.3965 1.48482C26.3086 3.13518 27.439 4.64808 28.3215 6.33023C28.4229 6.30254 28.3698 6.20817 28.3698 6.14868C28.3638 4.39473 28.3608 2.63976 28.3382 0.885812C28.3343 0.593488 28.417 0.502201 28.6905 0.525792C28.9591 0.549383 29.2316 0.548357 29.5002 0.525792C29.7402 0.505277 29.7816 0.607848 29.7806 0.833502C29.7737 3.38237 29.7727 5.93123 29.7806 8.4801C29.7806 8.72832 29.7195 8.80012 29.4766 8.80114C28.3333 8.80731 28.3362 8.81346 27.7155 7.82058C26.9244 6.55486 26.1245 5.2953 25.3365 4.02651C25.1348 3.70136 24.9646 3.35571 24.7589 2.98234L24.7599 2.98029Z" fill="#C01C21"/>
<path d="M45.1431 4.44788C46.8629 5.2305 46.6278 7.6614 45.3861 8.3876C44.8784 8.68403 44.3383 8.83378 43.7686 8.84608C42.8349 8.8666 41.9004 8.84814 40.9657 8.86044C40.7561 8.86353 40.7266 8.77224 40.7275 8.5876C40.7315 5.9854 40.7325 3.3832 40.7266 0.782025C40.7266 0.580988 40.7778 0.520472 40.9735 0.523548C41.9082 0.533806 42.8429 0.526626 43.7765 0.531754C43.9349 0.531754 44.0953 0.55637 44.2518 0.588167C45.0949 0.757408 45.759 1.17692 45.9794 2.09903C46.2067 3.04984 45.942 3.84272 45.1441 4.4489L45.1431 4.44788ZM42.1975 6.24901C42.1975 6.5957 42.2142 6.87777 42.1926 7.15778C42.1719 7.43267 42.2397 7.55063 42.5309 7.53011C42.9216 7.50345 43.3151 7.52703 43.7077 7.52293C44.4357 7.51473 44.8715 7.0706 44.8725 6.34338C44.8735 5.62846 44.4229 5.171 43.7067 5.16074C43.5719 5.15869 43.4371 5.15869 43.3023 5.16074C42.9481 5.1669 42.4779 5.03458 42.2722 5.22126C42.0351 5.4346 42.2358 5.93925 42.1984 6.25004L42.1975 6.24901ZM42.1975 2.81394C42.1975 3.15345 42.2004 3.43449 42.1965 3.71655C42.1945 3.85502 42.2329 3.92888 42.3834 3.9258C42.8123 3.91657 43.2432 3.94528 43.6703 3.90836C44.2351 3.85912 44.5676 3.43141 44.5558 2.84061C44.544 2.24878 44.2321 1.90824 43.6456 1.85183C43.5 1.83747 43.3515 1.82722 43.2049 1.83645C42.8793 1.85696 42.4611 1.68669 42.2535 1.91029C42.0627 2.11544 42.222 2.54418 42.1984 2.81496L42.1975 2.81394Z" fill="white"/>
<path d="M59.4762 8.85616C59.0629 8.85616 58.6458 8.84693 58.2296 8.86026C58.0329 8.86641 57.9846 8.75256 57.9365 8.59255C57.781 8.0797 57.6059 7.57301 57.4582 7.05707C57.3934 6.82937 57.3028 6.72167 57.054 6.7268C56.317 6.74423 55.5782 6.74218 54.8412 6.7268C54.6287 6.7227 54.5401 6.79963 54.4812 7.00374C54.3277 7.52993 54.1358 8.0438 53.9921 8.57204C53.9282 8.80692 53.8229 8.87154 53.6045 8.85923C53.2857 8.8418 52.965 8.84488 52.6463 8.85821C52.4249 8.86744 52.4042 8.78743 52.4711 8.58947C53.3606 5.97291 54.247 3.35532 55.1255 0.734656C55.1816 0.566441 55.2583 0.504898 55.4158 0.526438C55.4404 0.529516 55.465 0.526438 55.4896 0.526438C55.8939 0.533619 56.379 0.399251 56.682 0.585929C56.99 0.775684 56.9988 1.32956 57.1336 1.72446C57.8971 3.96869 58.6527 6.21498 59.4074 8.46228C59.4467 8.57922 59.5214 8.69307 59.4791 8.85411L59.4762 8.85616ZM55.957 2.21064C55.6135 3.30712 55.3037 4.29589 54.9938 5.28569C54.9249 5.50416 55.0734 5.47441 55.1934 5.47545C55.6844 5.47545 56.1753 5.46211 56.6663 5.48058C56.929 5.49083 56.9742 5.42005 56.8896 5.16159C56.5797 4.21691 56.2885 3.26609 55.957 2.21064Z" fill="white"/>
<path d="M35.1005 8.94444C32.7707 8.94444 30.9132 7.05306 30.9063 4.67035C30.8994 2.27226 32.7629 0.356251 35.1064 0.355225C37.4509 0.354199 39.3202 2.262 39.3202 4.65702C39.3202 7.04792 37.4539 8.94444 35.1005 8.94444ZM33.9444 7.62949C34.1195 7.77206 34.3331 7.79464 34.5406 7.83361C34.7345 7.8808 34.9302 7.89208 35.128 7.86233C35.3326 7.8808 35.5373 7.89413 35.7311 7.80079C35.9368 7.80079 36.1237 7.7372 36.2968 7.62437C36.4966 7.58026 36.6825 7.51154 36.8035 7.32384C37.0052 7.25819 37.1705 7.14332 37.2679 6.9392C37.4608 6.81714 37.6133 6.65918 37.6752 6.42328C37.8336 6.27864 37.9261 6.09607 37.9566 5.87965C38.0864 5.69605 38.1277 5.48065 38.1593 5.26218C38.1799 5.06114 38.1996 4.85908 38.2202 4.65804C38.2242 4.43444 38.2104 4.21391 38.1218 4.00569C38.1238 3.78825 38.0697 3.58926 37.9487 3.41181C37.9113 3.19026 37.81 3.00461 37.6604 2.84563C37.563 2.6528 37.4706 2.45688 37.2472 2.38817C37.1586 2.17174 37.012 2.03122 36.7829 1.99532C36.6648 1.80146 36.4768 1.73581 36.2752 1.69685C36.0962 1.56556 35.8944 1.50708 35.679 1.49273C35.4881 1.4558 35.2982 1.40862 35.1025 1.46093C34.886 1.37067 34.6852 1.44247 34.4855 1.52555C34.2849 1.51735 34.1038 1.58094 33.9375 1.6948C33.7201 1.74916 33.5105 1.81582 33.3777 2.02507C33.1722 2.07225 33.0393 2.21687 32.9321 2.39227C32.75 2.51638 32.6004 2.66818 32.5434 2.89691C32.3841 3.03128 32.3102 3.21693 32.2552 3.41386C32.1449 3.61388 32.082 3.8303 32.0603 4.05904C32.0426 4.25802 32.0249 4.45802 32.0072 4.65702C31.9797 4.88267 31.9797 5.10422 32.0909 5.31141C32.0909 5.52271 32.1479 5.71451 32.2611 5.88991C32.3033 6.11351 32.39 6.31147 32.5572 6.4643C32.632 6.66534 32.7658 6.81611 32.9281 6.94228C33.0649 7.1146 33.2036 7.28384 33.4269 7.3382C33.5666 7.50025 33.7467 7.58334 33.9454 7.62847L33.9444 7.62949Z" fill="#C01C21"/>
<path d="M10.8342 0.526855C11.349 0.526855 11.6918 0.778835 11.8623 1.2828C12.6632 3.6614 13.46 6.04205 14.2707 8.41757C14.3731 8.7181 14.3475 8.82991 14.0189 8.79606C13.6431 8.75811 13.1728 8.94888 12.912 8.71913C12.6701 8.50783 12.6405 8.02883 12.5245 7.66471C12.3139 7.00758 11.88 6.67901 11.2228 6.67901C10.7191 6.67901 10.2153 6.68721 9.71158 6.67491C9.51875 6.6708 9.43117 6.73747 9.3751 6.93339C9.22063 7.47188 9.03567 8.00114 8.87432 8.5386C8.81922 8.72323 8.73658 8.80734 8.53883 8.79708C8.20825 8.77964 7.87472 8.78272 7.54415 8.79503C7.32179 8.80426 7.3031 8.72015 7.37 8.52425C8.24859 5.93128 9.12422 3.33728 9.99493 0.741226C10.0549 0.560704 10.1504 0.510444 10.3196 0.522752C10.4908 0.536086 10.663 0.52583 10.8351 0.52583L10.8342 0.526855ZM10.844 2.01412C10.5606 3.18034 10.1996 4.19578 9.87884 5.22559C9.82374 5.40304 9.86899 5.4533 10.0382 5.45022C10.3806 5.44304 10.724 5.44817 11.0673 5.44817C11.5927 5.44817 11.7744 5.19243 11.6124 4.68094C11.3467 3.83577 11.0644 2.99572 10.845 2.01514L10.844 2.01412Z" fill="#C01C21"/>
<path d="M44.9602 20.3573C44.9602 19.3716 44.971 18.3859 44.9533 17.4001C44.9484 17.1233 45.0272 17.0597 45.2799 17.072C46.1743 17.1161 47.0735 17.0002 47.964 17.152C49.4516 17.4054 50.3891 18.5572 50.4197 20.1326C50.4443 21.4178 50.1028 22.5082 48.9655 23.1851C48.4982 23.4631 47.9846 23.5933 47.4504 23.6047C46.7135 23.6201 45.9765 23.5985 45.2396 23.6149C45.0074 23.6201 44.9524 23.5472 44.9553 23.3144C44.9671 22.3286 44.9602 21.343 44.9602 20.3573ZM46.5068 20.3552V21.546C46.5068 22.2312 46.5068 22.2343 47.166 22.2221C47.8311 22.2097 48.3732 21.9574 48.6428 21.2866C48.879 20.6999 48.8809 20.0886 48.6772 19.4875C48.5051 18.9767 48.1489 18.669 47.6501 18.5336C47.3619 18.4556 47.0656 18.471 46.7715 18.4567C46.559 18.4464 46.497 18.5275 46.5019 18.7428C46.5137 19.2803 46.5058 19.8178 46.5058 20.3563L46.5068 20.3552Z" fill="white"/>
<path d="M68.5561 0.391375C69.0116 0.399581 69.721 0.60267 70.3565 1.06936C70.5355 1.20168 70.6045 1.31451 70.4677 1.53606C70.2887 1.82531 70.2139 2.2643 69.9698 2.4079C69.7249 2.55151 69.4642 2.12788 69.173 2.01814C68.7007 1.84069 68.2334 1.70838 67.7355 1.8694C67.3587 1.99147 67.0793 2.2284 67.0144 2.65715C66.9494 3.08999 67.1973 3.35155 67.5152 3.56079C67.9008 3.81516 68.3377 3.95773 68.7469 4.1598C69.0677 4.31775 69.3953 4.46854 69.6963 4.66137C70.4245 5.13011 70.7884 5.80195 70.7284 6.7179C70.6674 7.63692 70.2325 8.2862 69.4613 8.68827C68.3101 9.28933 66.4192 8.94572 65.4963 8.00003C65.3861 7.8872 65.3625 7.81129 65.4589 7.68103C65.6458 7.42666 65.8268 7.16818 65.9971 6.9015C66.1033 6.73431 66.186 6.72302 66.3404 6.85534C66.7458 7.19998 67.2062 7.43691 67.7257 7.53641C68.0582 7.60001 68.3869 7.60206 68.7036 7.45949C69.3599 7.16408 69.4701 6.3825 68.9191 5.90964C68.6023 5.63783 68.2226 5.48193 67.8516 5.31269C67.3685 5.09216 66.8874 4.87164 66.4447 4.5629C65.0988 3.62541 65.335 1.72786 66.4683 0.919612C66.9672 0.564719 67.527 0.389324 68.5561 0.391375Z" fill="white"/>
<path d="M47.3304 4.6652C47.3304 3.39743 47.3383 2.12864 47.3245 0.860872C47.3216 0.589061 47.3963 0.519313 47.6521 0.521365C49.0285 0.533672 50.404 0.53675 51.7804 0.520339C52.0647 0.517262 52.1248 0.607524 52.1218 0.887539C52.11 1.83119 52.1218 1.83119 51.2265 1.83119C50.5142 1.83119 49.8009 1.83939 49.0886 1.82605C48.8672 1.82195 48.7876 1.88452 48.7954 2.12556C48.8121 2.6497 48.8121 3.17588 48.7954 3.70104C48.7885 3.93592 48.8505 4.00874 49.0817 4.00362C49.7822 3.98823 50.4827 4.00874 51.1822 3.99234C51.4272 3.98618 51.4902 4.06516 51.4902 4.31543C51.4931 5.32369 51.5019 5.32369 50.5515 5.32369C50.0724 5.32369 49.5923 5.34011 49.1142 5.31754C48.8446 5.30421 48.7846 5.40472 48.7944 5.66526C48.8131 6.17708 48.8121 6.68994 48.7944 7.20176C48.7866 7.44997 48.8495 7.53408 49.0994 7.52793C49.8235 7.5105 50.5496 7.53408 51.2738 7.51562C51.5542 7.50844 51.5719 7.59459 51.4892 7.84179C51.1508 8.85313 51.1567 8.85518 50.1137 8.85518C49.3276 8.85518 48.5406 8.8398 47.7545 8.86236C47.4308 8.8716 47.3137 8.80082 47.3206 8.42952C47.3452 7.17508 47.3304 5.92066 47.3304 4.6652Z" fill="white"/>
<path d="M43.3518 23.6091C42.7969 23.6091 42.3305 23.5978 41.8651 23.6143C41.6714 23.6215 41.5798 23.5353 41.4991 23.3712C41.2138 22.7906 40.9039 22.2234 40.6343 21.6357C40.4632 21.2634 40.1661 21.4131 39.9299 21.4285C39.6967 21.4439 39.8197 21.6972 39.8158 21.8398C39.8 22.3383 39.799 22.8389 39.8138 23.3373C39.8207 23.5609 39.746 23.6235 39.5413 23.6133C39.2225 23.5978 38.9017 23.5917 38.584 23.6143C38.3262 23.6327 38.2534 23.5465 38.2554 23.2748C38.2682 21.6879 38.2554 20.1002 38.2642 18.5124C38.2672 18.0437 38.2121 17.5718 38.3006 17.1042C38.7532 17.0949 39.2048 17.0765 39.6574 17.0785C40.1847 17.0806 40.7141 17.0406 41.2384 17.1226C42.0029 17.2405 42.5371 17.6683 42.7388 18.456C42.9592 19.3186 42.8274 20.1187 42.1544 20.7331C41.9695 20.9023 41.9439 20.9915 42.0687 21.2142C42.5008 21.9834 42.9051 22.769 43.3518 23.6091ZM39.8089 19.2273C39.8089 20.0663 39.9525 20.1905 40.7101 19.9977C41.0318 19.9155 41.2158 19.6971 41.2532 19.3535C41.3171 18.7627 41.0534 18.4961 40.3805 18.4611C39.9994 18.4419 39.8089 18.6714 39.8089 19.1494V19.2273Z" fill="white"/>
<path d="M6.96789 6.68616C6.76915 7.27594 6.56746 7.8647 6.37561 8.45652C6.32937 8.59807 6.23492 8.65858 6.11489 8.69859C4.09995 9.37863 1.64031 8.61962 0.82174 6.1528C0.0317032 3.7742 1.16314 1.26739 3.37977 0.57914C4.79062 0.141165 6.12375 0.36682 7.33782 1.26841C7.55328 1.42842 7.60051 1.56484 7.42932 1.79459C7.24927 2.03666 7.1558 2.41822 6.92854 2.5331C6.67273 2.66234 6.44448 2.28693 6.1936 2.15359C4.82801 1.42945 3.29024 1.74946 2.54152 2.93927C1.51241 4.57527 2.23948 7.35903 4.55449 7.5334C5.29435 7.58878 5.95748 7.33748 6.55959 6.90054C6.67864 6.81438 6.79571 6.72309 6.91378 6.63488C6.93149 6.65231 6.94919 6.66873 6.96789 6.68616Z" fill="#C01C21"/>
<path d="M14.7488 6.79906C15.3873 7.25447 15.9667 7.54884 16.6525 7.52013C16.9576 7.50679 17.237 7.42576 17.4593 7.19805C17.8096 6.83907 17.783 6.25339 17.4022 5.90465C17.1209 5.64719 16.7804 5.49642 16.443 5.34052C16.016 5.14358 15.5841 4.96203 15.1797 4.71586C14.3857 4.23275 13.8829 3.56399 13.9912 2.55881C14.1034 1.51875 14.7015 0.855121 15.6332 0.548437C16.7273 0.188415 17.7683 0.369964 18.7364 1.01513C18.9557 1.16181 19.0551 1.30028 18.8781 1.5649C18.7314 1.78338 18.6203 2.03058 18.512 2.27469C18.4293 2.45932 18.3585 2.48804 18.1903 2.35675C17.7919 2.04391 17.3402 1.84698 16.8385 1.79158C16.5896 1.7639 16.3455 1.7844 16.1123 1.87774C15.7553 2.02134 15.5024 2.27367 15.4611 2.68497C15.4226 3.06243 15.6391 3.3086 15.9195 3.50143C16.2807 3.74964 16.687 3.90146 17.0815 4.07685C17.4769 4.25225 17.8695 4.4338 18.2247 4.69124C19.5244 5.63181 19.4841 7.6309 18.1362 8.49967C17.3343 9.01663 16.4607 9.02176 15.5703 8.81046C15.465 8.78584 15.4 8.73353 15.3627 8.62276C15.1728 8.04631 14.976 7.47191 14.7488 6.79906Z" fill="#C01C21"/>
<path d="M36.7715 23.6092C36.3109 23.6092 35.8466 23.6071 35.3823 23.6112C35.2838 23.6112 35.2179 23.5845 35.1943 23.4778C35.1835 23.4286 35.1638 23.3814 35.1491 23.3322C35.0457 22.9783 35.0408 22.5013 34.8135 22.3024C34.5666 22.087 34.1081 22.245 33.7422 22.2418C32.9157 22.2336 32.9206 22.2408 32.6894 23.0656C32.5005 23.7383 32.6452 23.5927 31.983 23.6092C31.7252 23.6153 31.4664 23.5978 31.2096 23.6143C30.9805 23.6286 30.9706 23.5332 31.0326 23.3424C31.6888 21.331 32.3441 19.3196 32.9904 17.3051C33.0485 17.1226 33.136 17.0539 33.3082 17.0785C33.3201 17.0805 33.3329 17.0785 33.3447 17.0785C33.7864 17.0837 34.3197 16.9308 34.6433 17.1369C34.9681 17.3431 34.9799 17.9483 35.1225 18.3791C35.6528 19.9864 36.1712 21.5987 36.6927 23.2091C36.731 23.328 36.798 23.4419 36.7715 23.6092ZM34.4662 20.9125C34.2764 20.211 34.0924 19.5341 33.9094 18.8561C33.75 19.1956 33.6673 19.5248 33.5916 19.855C33.5099 20.2089 33.3447 20.5402 33.3348 20.9125H34.4662Z" fill="white"/>
<path d="M18.3369 17.0772C18.8708 17.0772 19.224 17.3435 19.3965 17.8762C19.9849 19.6784 20.5703 21.4816 21.1694 23.2796C21.2649 23.5648 21.2028 23.6304 20.9293 23.6141C20.586 23.5935 20.2406 23.5955 19.8973 23.6141C19.7104 23.6243 19.6297 23.5453 19.5953 23.3751C19.5923 23.3627 19.5894 23.3504 19.5854 23.3381C19.4762 22.976 19.4959 22.4652 19.2273 22.2898C18.9606 22.1155 18.514 22.2385 18.146 22.2376C17.6219 22.2361 17.2874 22.5001 17.1425 23.0293C17.0369 23.4151 16.7968 23.6079 16.4223 23.6079C16.1645 23.6079 15.9058 23.5955 15.648 23.612C15.4228 23.6263 15.4059 23.5371 15.4699 23.3422C16.1291 21.3319 16.7853 19.3205 17.4337 17.307C17.4908 17.1306 17.5685 17.0588 17.7465 17.0721C17.9424 17.0865 18.1391 17.0752 18.3359 17.0752L18.3369 17.0772ZM17.7426 20.9165H18.8977C18.7383 20.3021 18.5857 19.7112 18.4293 19.1215C18.4116 19.0558 18.4342 18.9512 18.333 18.9419C18.2297 18.9328 18.2297 19.0342 18.212 19.102C18.0575 19.6928 17.906 20.2846 17.7426 20.9165Z" fill="white"/>
<path d="M65.2311 0.585266C65.0284 1.0058 64.9252 1.52686 64.6182 1.76687C64.321 1.99868 63.8124 1.8079 63.3982 1.83457C63.0351 1.85816 62.5669 1.66841 62.3386 1.91868C62.1301 2.14844 62.2816 2.62743 62.2806 2.99669C62.2747 4.82859 62.2727 6.66049 62.2835 8.49239C62.2855 8.76831 62.2333 8.89652 61.9421 8.86063C61.58 8.81652 61.1097 9.01961 60.8805 8.77857C60.67 8.55599 60.8234 8.07186 60.8225 7.70363C60.8166 5.87173 60.8126 4.03982 60.8264 2.20793C60.8283 1.90329 60.7496 1.81508 60.4584 1.82637C59.8445 1.84995 59.2295 1.82637 58.6157 1.83765C58.4288 1.84073 58.3215 1.78842 58.2673 1.59045C58.2005 1.34429 58.1207 1.10017 58.0205 0.867334C57.9093 0.609883 57.9388 0.51757 58.2388 0.523724C59.1116 0.541161 59.9842 0.529879 60.8559 0.529879C62.1831 0.529879 63.5103 0.528853 64.8376 0.53193C64.9566 0.53193 65.0826 0.49603 65.2291 0.587317L65.2311 0.585266Z" fill="white"/>
<path d="M54.0647 23.7097C53.2206 23.718 52.5447 23.4606 51.9396 22.9733C51.7763 22.841 51.7458 22.7271 51.8865 22.5682C51.911 22.5405 51.9307 22.5066 51.9514 22.4748C52.1325 22.201 52.2594 21.8204 52.5093 21.6799C52.8015 21.5158 53.0149 21.9671 53.3101 22.0584C53.6407 22.1599 53.9585 22.3025 54.3127 22.1969C54.5025 22.1405 54.6482 22.0296 54.6894 21.8194C54.7338 21.5917 54.6 21.4512 54.4287 21.3609C54.1454 21.2101 53.8542 21.0747 53.5629 20.9403C53.2373 20.7896 52.9126 20.6388 52.6243 20.4152C51.5982 19.6172 51.667 18.0438 52.7601 17.3422C53.627 16.7853 55.1332 16.8858 55.9379 17.5391C56.0984 17.6694 56.1191 17.7781 56.0216 17.9556C55.8681 18.2325 55.7235 18.5156 55.5956 18.8059C55.5139 18.9905 55.4441 19.0254 55.2779 18.893C55.0004 18.6735 54.6796 18.5402 54.3343 18.4808C54.1129 18.4428 53.8906 18.4417 53.6869 18.5598C53.3859 18.7331 53.3623 19.051 53.6329 19.2726C53.8089 19.4172 54.0184 19.4951 54.2241 19.5813C54.6226 19.7495 55.026 19.9044 55.3919 20.1444C56.0118 20.5506 56.3138 21.126 56.2411 21.8902C56.1721 22.6256 55.8002 23.1517 55.1696 23.479C54.7977 23.6718 54.3992 23.7313 54.0638 23.7108L54.0647 23.7097Z" fill="white"/>
<path d="M21.8753 4.62589C21.8753 5.89263 21.8684 7.1604 21.8812 8.42714C21.8841 8.69896 21.8389 8.82819 21.5448 8.79845C21.2653 8.76973 20.9799 8.77794 20.6985 8.7964C20.4704 8.81179 20.4044 8.72768 20.4083 8.49279C20.4211 7.69992 20.4132 6.90604 20.4132 6.11214C20.4132 4.38383 20.4201 2.65655 20.4064 0.928245C20.4034 0.620534 20.4625 0.485142 20.7832 0.51899C21.0508 0.547709 21.3233 0.539505 21.5929 0.521042C21.8212 0.505656 21.8841 0.586686 21.8822 0.823623C21.8714 2.09037 21.8773 3.35813 21.8773 4.62487L21.8753 4.62589Z" fill="#C01C21"/>
<path d="M20.482 12.8688C20.3708 13.1899 20.2449 13.5068 20.1534 13.8339C20.0826 14.0874 19.9034 14.034 19.7431 14.0278C19.5768 14.0207 19.3752 14.1151 19.2945 13.835C19.198 13.4965 19.0672 13.1694 18.8842 12.8472C18.8527 13.2873 18.7907 13.7293 18.7995 14.1683C18.8075 14.5396 18.6579 14.5827 18.3509 14.5909C18.0155 14.6002 17.9407 14.5028 17.9772 14.1622C18.0696 13.2852 18.1316 12.4052 18.1847 11.5251C18.1994 11.2759 18.2782 11.1989 18.5133 11.2113C19.2365 11.2472 19.0367 11.0738 19.2856 11.7866C19.4253 12.1867 19.5552 12.5908 19.7234 13.0944C19.9212 12.4944 20.1022 12.001 20.2459 11.4964C20.3905 10.9866 20.7703 11.2728 21.0409 11.2256C21.3281 11.1754 21.2405 11.4543 21.2533 11.6041C21.3301 12.4832 21.395 13.3632 21.461 14.2422C21.4728 14.3961 21.5435 14.635 21.274 14.5674C21.0664 14.515 20.6955 14.833 20.662 14.314C20.6316 13.832 20.5962 13.3509 20.5626 12.8698H20.481L20.482 12.8688Z" fill="white"/>
<path d="M69.895 19.5461C69.8872 19.9246 69.7602 20.2477 69.5211 20.5236C69.1985 20.8959 68.8088 21.1832 68.4192 21.4724C68.2775 21.577 68.1614 21.5718 68.0207 21.4682C67.6508 21.1944 67.2819 20.9206 66.968 20.576C66.6748 20.2538 66.5361 19.8733 66.5667 19.425C66.6178 18.665 67.4137 18.2353 68.0296 18.6527C68.1713 18.7491 68.2471 18.784 68.4005 18.6671C68.7163 18.4281 69.0735 18.4445 69.4099 18.6281C69.7593 18.8188 69.8881 19.1553 69.897 19.5461H69.895Z" fill="white"/>
<path d="M13.1617 13.6365C13.1617 13.8027 13.1617 13.9689 13.1617 14.1351C13.1617 14.5679 12.9394 14.7371 12.5508 14.5433C12.4071 14.4715 12.3225 14.4807 12.1946 14.5268C11.5709 14.7556 10.9972 14.6489 10.5329 14.1566C10.0291 13.6222 9.93665 12.9636 10.1649 12.2714C10.3863 11.6015 10.8772 11.2487 11.5404 11.1656C11.9634 11.1123 12.3737 11.1872 12.7485 11.4107C12.8823 11.4897 13.0791 11.578 12.8941 11.777C12.7593 11.9205 12.7938 12.3287 12.3875 12.095C11.6791 11.6877 10.9717 12.02 10.9038 12.7586C10.8693 13.137 10.9786 13.4734 11.2914 13.698C11.6033 13.9217 11.9369 13.9104 12.2694 13.7371C12.358 13.691 12.4504 13.6416 12.4415 13.5155C12.4297 13.3555 12.3087 13.3944 12.2192 13.3944C11.863 13.3935 12.0352 13.1114 12.0018 12.9452C11.9654 12.7637 12.0263 12.6775 12.233 12.6672C13.1637 12.6201 13.1637 12.6129 13.1637 13.6376L13.1617 13.6365Z" fill="white"/>
<path d="M48.5625 11.1558C49.5296 11.164 50.2469 11.9169 50.2301 12.9067C50.2134 13.9027 49.4913 14.6392 48.532 14.6381C47.557 14.636 46.8457 13.8811 46.8516 12.8554C46.8575 11.8615 47.5767 11.1476 48.5625 11.1558ZM49.3889 12.8749C49.387 12.3405 49.0102 11.9272 48.53 11.9313C48.0431 11.9353 47.683 12.3436 47.6869 12.8882C47.6908 13.4309 48.0559 13.8555 48.5241 13.8617C49.0063 13.8689 49.3919 13.4288 49.3889 12.8749Z" fill="white"/>
<path d="M29.5276 12.8743C29.5276 12.4004 29.5345 11.9265 29.5236 11.4537C29.5197 11.2722 29.5709 11.2055 29.75 11.2127C30.1543 11.2291 30.5617 11.2024 30.9641 11.2373C31.7935 11.307 32.3149 11.9286 32.3395 12.8394C32.3641 13.7462 31.8741 14.4314 31.0663 14.54C30.6187 14.6006 30.1593 14.5647 29.7057 14.5821C29.5148 14.5892 29.5246 14.4683 29.5246 14.3339C29.5266 13.8477 29.5246 13.3615 29.5246 12.8743H29.5276ZM30.3334 12.8939C30.3334 13.1502 30.3373 13.4056 30.3324 13.6621C30.3294 13.8026 30.3737 13.8569 30.5203 13.8672C31.0782 13.9082 31.4609 13.5698 31.5072 12.9759C31.5534 12.3758 31.2317 11.985 30.6748 11.9286C30.3993 11.9009 30.296 11.9871 30.3294 12.2804C30.3521 12.4825 30.3324 12.6896 30.3334 12.8939Z" fill="white"/>
<path d="M60.8833 14.5798C60.5901 14.5798 60.3491 14.5726 60.1091 14.5829C59.9635 14.5891 59.926 14.4845 59.8759 14.3829C59.745 14.1224 59.6102 13.865 59.4833 13.6024C59.4174 13.4649 59.3141 13.4362 59.1803 13.4505C59.0003 13.47 59.0632 13.6126 59.0563 13.7131C59.0475 13.8536 59.0357 13.9973 59.0573 14.1346C59.1173 14.506 58.9815 14.6066 58.6264 14.5952C58.3244 14.585 58.2348 14.5132 58.2427 14.1911C58.2653 13.309 58.2613 12.4269 58.2436 11.5448C58.2377 11.2678 58.3224 11.196 58.5743 11.2114C58.9166 11.233 59.261 11.2145 59.6043 11.2196C60.0166 11.2258 60.3559 11.3817 60.5184 11.7981C60.6866 12.2299 60.665 12.672 60.3412 13.0125C60.1651 13.1972 60.1976 13.311 60.3019 13.4926C60.4947 13.8291 60.6699 14.1767 60.8843 14.5808L60.8833 14.5798ZM59.2994 11.9295C59.1685 11.9109 58.9934 11.9295 59.0622 12.1746C59.1153 12.3612 58.8457 12.7018 59.2767 12.7254C59.5334 12.7397 59.7509 12.6802 59.7814 12.3612C59.813 12.032 59.6063 11.9468 59.2994 11.9284V11.9295Z" fill="white"/>
<path d="M4.07833 21.2259C3.64937 21.2863 3.26173 21.2259 3.02462 20.7919C2.81998 20.4166 2.90656 19.8637 3.22533 19.4689C3.52147 19.1027 3.90025 18.8391 4.27314 18.5682C4.3666 18.5006 4.44728 18.4995 4.54173 18.5682C4.95495 18.8678 5.38588 19.1519 5.68103 19.5889C6.11689 20.235 5.9024 21.0433 5.26093 21.2197C5.0799 21.27 4.89788 21.2402 4.71685 21.2136C4.67848 21.6043 4.64503 21.6146 4.27215 21.5971C3.96617 21.5828 4.17377 21.3879 4.14327 21.2782C4.13834 21.2464 4.13245 21.2146 4.12752 21.1828C4.11178 21.1982 4.09604 21.2125 4.07932 21.2279L4.07833 21.2259Z" fill="white"/>
<path d="M62.6079 21.202C62.5646 21.318 62.7476 21.4893 62.6 21.5365C62.423 21.5929 62.1947 21.599 62.0274 21.5282C61.8917 21.4708 62.0874 21.2842 62.0353 21.1386C61.9339 21.0503 61.8376 21.1642 61.7362 21.1744C61.3318 21.2134 60.9876 20.9939 60.8813 20.6123C60.7652 20.1969 60.9216 19.7949 61.3083 19.6307C61.5001 19.5496 61.5483 19.4574 61.5552 19.2481C61.57 18.8184 61.8985 18.5127 62.3 18.5004C62.7122 18.4871 63.0476 18.7979 63.0969 19.2399C63.1126 19.3795 63.0566 19.5158 63.2632 19.601C63.7128 19.7866 63.8889 20.1836 63.7709 20.6092C63.6567 21.0205 63.2887 21.2278 62.8047 21.1539C62.7682 21.1488 62.7328 21.1386 62.6975 21.1303C62.665 21.0974 62.6256 21.0729 62.5912 21.116C62.5804 21.1303 62.601 21.1724 62.6079 21.202Z" fill="white"/>
<path d="M16.5759 14.5799C16.3222 14.6476 16.146 14.5348 16.1145 14.2106C16.088 13.9399 15.9463 13.8372 15.6895 13.8763C15.5812 13.8926 15.4671 13.8926 15.358 13.8763C15.1208 13.8404 14.9949 13.9337 14.9467 14.1809C14.9191 14.3214 14.933 14.5317 14.7705 14.5634C14.5571 14.6056 14.3298 14.584 14.1105 14.5645C13.9983 14.5553 14.0464 14.4476 14.0681 14.3819C14.3967 13.3777 14.7292 12.3756 15.0539 11.3705C15.0933 11.2494 15.1533 11.2238 15.2645 11.2125C15.9227 11.1438 15.9374 11.1469 16.1509 11.7952C16.4097 12.5828 16.6635 13.3716 16.9174 14.1614C17.0521 14.5788 17.0502 14.5799 16.5759 14.5799ZM15.538 12.1028C15.4415 12.4506 15.3649 12.7285 15.2891 13.0065C15.2704 13.0762 15.2232 13.1726 15.3333 13.188C15.4651 13.2065 15.6029 13.2044 15.7337 13.1839C15.841 13.1664 15.7968 13.0711 15.7781 13.0003C15.7062 12.7316 15.6344 12.4618 15.538 12.1028Z" fill="white"/>
<path d="M22.7948 12.8637C22.7948 12.4154 22.8056 11.9673 22.7898 11.519C22.782 11.2913 22.8331 11.201 23.0712 11.2092C23.574 11.2277 24.0787 11.2338 24.5815 11.2082C24.8982 11.1918 24.8294 11.3969 24.8324 11.5764C24.8353 11.7662 24.8805 11.9745 24.5697 11.9354C24.3394 11.9067 24.1032 11.9405 23.8701 11.9272C23.6694 11.9149 23.5829 11.9745 23.5878 12.2031C23.5917 12.4165 23.6212 12.5539 23.8672 12.5221C23.9635 12.5098 24.0629 12.5201 24.1613 12.5201C24.6247 12.5201 24.6149 12.5201 24.5932 13.0083C24.5854 13.2012 24.5135 13.2525 24.3482 13.2411C24.2135 13.2319 24.0777 13.2473 23.9429 13.2371C23.7186 13.2196 23.5819 13.2453 23.5819 13.555C23.5819 13.8709 23.7324 13.8739 23.9478 13.8627C24.1437 13.8525 24.3433 13.8802 24.5372 13.8555C24.8274 13.8186 24.9041 13.9284 24.9061 14.2299C24.9081 14.5263 24.8274 14.5961 24.5569 14.5838C24.0669 14.5602 23.574 14.5673 23.083 14.5817C22.8616 14.5878 22.78 14.5274 22.7898 14.2823C22.8085 13.8094 22.7957 13.3345 22.7957 12.8616L22.7948 12.8637Z" fill="white"/>
<path d="M40.5825 12.8996C40.5825 12.4257 40.5903 11.9518 40.5785 11.4779C40.5736 11.2871 40.6119 11.2051 40.8176 11.2113C41.3332 11.2266 41.8496 11.2277 42.3652 11.2113C42.6613 11.202 42.5915 11.4061 42.5915 11.5713C42.5915 11.7374 42.6564 11.9518 42.3632 11.9343C42.13 11.9201 41.895 11.9477 41.6637 11.9271C41.4276 11.9057 41.3784 12.0061 41.3755 12.2328C41.3715 12.4811 41.465 12.5498 41.6785 12.5231C41.7631 12.5129 41.8506 12.521 41.9363 12.521C42.3741 12.521 42.4292 12.5981 42.3593 13.0606C42.3406 13.1867 42.2944 13.2432 42.1744 13.2411C42.0268 13.2381 41.8792 13.2503 41.7327 13.2391C41.5083 13.2206 41.3735 13.2452 41.3725 13.5529C41.3725 13.8607 41.5053 13.8822 41.7297 13.8658C41.9127 13.8524 42.0976 13.8627 42.2826 13.8627C42.6279 13.8637 42.802 14.155 42.6613 14.4853C42.6132 14.5971 42.5256 14.5786 42.4449 14.5786C41.892 14.5807 41.3391 14.5714 40.7862 14.5837C40.5785 14.5889 40.5795 14.4751 40.5815 14.3211C40.5864 13.8473 40.5825 13.3735 40.5825 12.8996Z" fill="white"/>
<path d="M51.4096 12.8759C51.4096 12.402 51.4164 11.9292 51.4066 11.4553C51.4027 11.2748 51.4529 11.2061 51.6339 11.2112C52.0265 11.2235 52.4201 11.205 52.8125 11.2194C53.4216 11.242 53.8024 11.6871 53.8073 12.3579C53.8122 13.0318 53.4393 13.4913 52.8461 13.5416C52.2301 13.5939 52.2045 13.5959 52.236 14.2226C52.2557 14.6073 52.0658 14.5817 51.8159 14.5847C51.5581 14.5878 51.3712 14.5961 51.4017 14.2186C51.4381 13.7734 51.4096 13.3231 51.4096 12.8759ZM52.483 11.9333C52.2134 11.8584 52.1849 12.0656 52.234 12.2636C52.2833 12.4584 52.0108 12.8226 52.4771 12.8246C52.8174 12.8256 52.9897 12.68 52.9838 12.3723C52.9779 12.0502 52.8027 11.919 52.483 11.9333Z" fill="white"/>
<path d="M54.9271 12.8916C54.9271 12.4177 54.937 11.9429 54.9222 11.4699C54.9163 11.2628 54.9861 11.2094 55.1741 11.2135C55.6896 11.2248 56.2071 11.232 56.7227 11.2115C56.9981 11.2002 56.9834 11.3633 56.9716 11.55C56.9598 11.7243 57.0483 11.9592 56.7276 11.9366C56.4708 11.9182 56.211 11.9448 55.9532 11.9294C55.726 11.9161 55.728 12.0566 55.7319 12.2228C55.7359 12.3777 55.7053 12.5449 55.9424 12.5244C56.0644 12.5142 56.1884 12.5223 56.3114 12.5223C56.705 12.5223 56.8319 12.7141 56.7187 13.1121C56.6853 13.2281 56.6174 13.2414 56.5268 13.2414C56.3792 13.2414 56.2317 13.2505 56.0841 13.2403C55.8638 13.2249 55.7221 13.2414 55.7221 13.5522C55.7221 13.8567 55.854 13.8845 56.0792 13.867C56.2504 13.8537 56.4236 13.8639 56.5957 13.8649C57.063 13.8649 57.0581 13.8681 57.0335 14.3574C57.0257 14.5163 56.9893 14.5871 56.824 14.585C56.2582 14.5778 55.6935 14.5778 55.1278 14.585C54.9615 14.5871 54.9232 14.5142 54.9252 14.3553C54.933 13.8681 54.9281 13.3819 54.9281 12.8947L54.9271 12.8916Z" fill="white"/>
<path d="M34.5117 14.5796C34.2313 14.5468 33.7767 14.7355 33.5819 14.5048C33.4146 14.3068 33.5327 13.8452 33.5317 13.4996C33.5288 12.8463 33.5406 12.1928 33.5258 11.5395C33.5209 11.3015 33.5662 11.2 33.822 11.2102C34.3248 11.2318 34.8304 11.2338 35.3332 11.2102C35.6136 11.1969 35.5929 11.364 35.5782 11.5446C35.5644 11.7098 35.6775 11.9579 35.3469 11.9354C35.1019 11.919 34.854 11.9507 34.6101 11.9272C34.368 11.9046 34.3336 12.0123 34.3277 12.2338C34.3207 12.4791 34.3985 12.5549 34.6199 12.5241C34.729 12.5087 34.8432 12.5374 34.9504 12.519C35.2662 12.4647 35.3479 12.6031 35.3302 12.918C35.3165 13.157 35.2751 13.2821 35.0203 13.2431C34.9121 13.2268 34.7989 13.2462 34.6887 13.2391C34.4792 13.2257 34.3277 13.2175 34.3218 13.5395C34.3158 13.8791 34.4743 13.8771 34.7005 13.8638C34.8846 13.8535 35.0695 13.8617 35.2534 13.8617C35.6008 13.8627 35.77 14.1448 35.6342 14.4822C35.587 14.5982 35.4994 14.5756 35.4197 14.5766C35.1373 14.5807 34.854 14.5776 34.5117 14.5776V14.5796Z" fill="white"/>
<path d="M38.0197 13.4453C38.2155 12.7941 38.3867 12.2289 38.5559 11.6638C38.6759 11.2627 39.0734 11.0678 39.4522 11.2155C39.5634 11.2586 39.5269 11.3211 39.5024 11.3929C39.16 12.4053 38.8255 13.4197 38.4703 14.4269C38.3621 14.7326 38.0837 14.5357 37.8858 14.5726C37.753 14.5972 37.5966 14.6249 37.5268 14.4126C37.1962 13.4074 36.8538 12.4063 36.5163 11.4042C36.4976 11.3478 36.4544 11.2883 36.5173 11.2329C36.6915 11.0801 37.3437 11.275 37.4107 11.5017C37.5779 12.0637 37.7422 12.6279 37.9096 13.1899C37.9263 13.2454 37.9558 13.2976 38.0197 13.4453Z" fill="white"/>
<path d="M10.249 21.5636C10.1998 21.5052 10.1585 21.4579 10.1191 21.4097C9.79443 21.0108 9.47566 20.6066 9.14312 20.2158C9.03194 20.0856 9.02112 19.9973 9.13623 19.863C9.46975 19.4721 9.7964 19.0742 10.1142 18.669C10.2293 18.5214 10.3041 18.5142 10.4211 18.6639C10.7389 19.0691 11.0685 19.464 11.3942 19.8619C11.466 19.9502 11.5477 20.0261 11.4424 20.1543C11.0823 20.5892 10.7291 21.0292 10.371 21.4661C10.3415 21.5021 10.2982 21.5257 10.25 21.5646L10.249 21.5636Z" fill="white"/>
<path d="M43.8729 12.8978C43.8729 12.4372 43.8857 11.9756 43.868 11.5151C43.8591 11.2803 43.923 11.1797 44.1523 11.2146C44.2123 11.2238 44.2763 11.2238 44.3362 11.2146C44.597 11.1715 44.6983 11.2494 44.6856 11.5562C44.658 12.2074 44.6944 12.8628 44.6698 13.5142C44.659 13.8137 44.7534 13.8957 45.021 13.866C45.2159 13.8444 45.4136 13.8609 45.6104 13.8619C45.9567 13.8619 46.1239 14.1419 45.9901 14.4824C45.9449 14.5984 45.8563 14.5768 45.7767 14.5779C45.2237 14.5799 44.6708 14.5727 44.1189 14.583C43.926 14.586 43.864 14.5215 43.869 14.3193C43.8817 13.8455 43.8729 13.3716 43.8729 12.8978Z" fill="white"/>
<path d="M32.0074 4.65787C32.1039 4.65787 32.2023 4.66916 32.2977 4.65582C32.523 4.62506 32.6136 4.7071 32.6391 4.95635C32.6686 5.23432 32.5102 5.23329 32.3391 5.25894C32.2554 5.27124 32.1738 5.2938 32.0911 5.31227C31.9799 5.1061 31.9799 4.88352 32.0074 4.65787Z" fill="white"/>
<path d="M38.2273 4.66011C38.1417 4.66011 38.0531 4.67857 37.9725 4.66011C37.8338 4.62729 37.6114 4.78627 37.5829 4.48062C37.5583 4.22009 37.6232 4.04264 37.9115 4.03649C37.9843 4.03444 38.0561 4.01802 38.1279 4.00879C38.2165 4.21701 38.2303 4.43754 38.2264 4.66113L38.2273 4.66011Z" fill="white"/>
<path d="M35.1091 1.46175C35.1091 1.57561 35.0963 1.69048 35.1111 1.80229C35.1465 2.06589 34.9606 2.0259 34.815 2.06281C34.6368 2.10794 34.5719 2.0341 34.5562 1.85973C34.5464 1.74792 34.5139 1.63715 34.4922 1.52638C34.692 1.44329 34.8926 1.37149 35.1091 1.46175Z" fill="white"/>
<path d="M32.9307 6.94304C33.0075 6.86098 33.093 6.78508 33.1599 6.69379C33.2869 6.52044 33.3891 6.54404 33.5465 6.67533C33.7148 6.81585 33.7178 6.92662 33.5938 7.08356C33.5318 7.16254 33.4836 7.2528 33.4285 7.33793C33.2052 7.28357 33.0664 7.11536 32.9297 6.94201L32.9307 6.94304Z" fill="white"/>
<path d="M32.2573 3.41602C32.3567 3.46012 32.453 3.52064 32.5573 3.54628C32.7915 3.60373 32.7689 3.73808 32.7196 3.93708C32.6636 4.16273 32.5632 4.17606 32.3842 4.1135C32.2828 4.0776 32.1697 4.0776 32.0625 4.06119C32.0841 3.83246 32.147 3.61603 32.2573 3.41602Z" fill="white"/>
<path d="M37.9562 5.88178C37.8657 5.84692 37.7771 5.80384 37.6836 5.77819C37.478 5.72075 37.4278 5.61921 37.4997 5.39253C37.5655 5.18123 37.6522 5.13713 37.8391 5.20174C37.9414 5.23764 38.0526 5.24482 38.1599 5.26432C38.1284 5.48279 38.086 5.69818 37.9562 5.88178Z" fill="white"/>
<path d="M37.9494 3.41263C37.8598 3.45468 37.7693 3.49365 37.6817 3.53981C37.5224 3.62494 37.4112 3.64649 37.3069 3.43006C37.2086 3.22594 37.2066 3.10799 37.4122 3.00748C37.4998 2.9644 37.5784 2.9008 37.6611 2.84644C37.8106 3.00542 37.912 3.19108 37.9494 3.41263Z" fill="white"/>
<path d="M33.9453 7.62994C33.9817 7.52327 34.0231 7.41762 34.0526 7.30787C34.1086 7.09658 34.2208 7.0935 34.4058 7.15095C34.6026 7.21248 34.6645 7.29557 34.5967 7.49865C34.5613 7.60431 34.5593 7.72226 34.5425 7.83406C34.3349 7.79508 34.1204 7.77251 33.9453 7.62994Z" fill="white"/>
<path d="M37.253 2.39041C37.0818 2.57093 36.9775 2.96479 36.6381 2.58426C36.3803 2.29604 36.7464 2.19551 36.7886 1.99756C37.0179 2.03243 37.1645 2.17398 37.253 2.39041Z" fill="white"/>
<path d="M32.2656 5.89096C32.3758 5.84377 32.4929 5.81095 32.5943 5.74736C32.8127 5.61094 32.85 5.79249 32.9386 5.92788C33.0547 6.10533 32.9877 6.19764 32.8372 6.28278C32.7419 6.33714 32.6533 6.4038 32.5617 6.46535C32.3945 6.31251 32.308 6.11456 32.2656 5.89096Z" fill="white"/>
<path d="M33.9416 1.69531C33.977 1.7907 34.0026 1.89224 34.0517 1.9784C34.1551 2.162 34.1148 2.25944 33.9318 2.36406C33.7527 2.46664 33.6494 2.46048 33.553 2.27277C33.5078 2.18456 33.4398 2.10764 33.3828 2.02559C33.5156 1.81634 33.7251 1.74967 33.9416 1.69531Z" fill="white"/>
<path d="M36.2834 1.69805C36.1604 1.85397 36.2587 2.19962 35.9419 2.17911C35.7146 2.16476 35.5061 2.08065 35.6478 1.75345C35.6812 1.67652 35.6753 1.58011 35.6871 1.49292C35.9026 1.50728 36.1052 1.56676 36.2834 1.69805Z" fill="white"/>
<path d="M32.9364 2.39331C33.0063 2.46306 33.0702 2.53999 33.147 2.60051C33.3211 2.73693 33.3123 2.84872 33.1726 3.02925C33.0328 3.20977 32.9305 3.18823 32.7869 3.06925C32.7112 3.00669 32.6275 2.9554 32.5469 2.89899C32.6039 2.67025 32.7534 2.51845 32.9354 2.39434L32.9364 2.39331Z" fill="white"/>
<path d="M37.2756 6.94012C37.2205 6.87447 37.1713 6.80165 37.1094 6.7442C36.9618 6.60676 36.8742 6.50727 37.0532 6.28674C37.2432 6.05288 37.3573 6.18622 37.5049 6.29084C37.5648 6.33392 37.6239 6.37905 37.6829 6.42418C37.622 6.6601 37.4684 6.81703 37.2756 6.94012Z" fill="white"/>
<path d="M36.3025 7.62534C36.2632 7.53302 36.2306 7.43558 36.1824 7.3484C36.0762 7.15659 36.1166 7.05402 36.3103 6.93607C36.5377 6.79862 36.6134 6.92375 36.7 7.08684C36.7403 7.16275 36.7717 7.24481 36.8072 7.32378C36.6862 7.51251 36.5002 7.58123 36.3005 7.62431L36.3025 7.62534Z" fill="white"/>
<path d="M35.1319 7.86244C35.1319 7.74962 35.1378 7.63576 35.128 7.52397C35.1112 7.33934 35.1624 7.25421 35.3611 7.24806C35.5372 7.24293 35.671 7.22754 35.676 7.46961C35.6779 7.58038 35.7143 7.69116 35.7349 7.80193C35.5412 7.89527 35.3365 7.88091 35.1319 7.86244Z" fill="white"/>
<path d="M36.2219 4.45274C35.8628 4.36966 35.6395 4.43017 35.5322 4.67018C35.3974 4.97277 35.3147 5.29792 35.7054 5.50306C35.8441 5.57588 35.8913 5.70204 35.8254 5.85692C35.7674 5.99334 35.6601 6.04566 35.5253 6.01078C35.3689 5.97078 35.302 5.84769 35.3344 5.69076C35.3896 5.42818 35.3344 5.20663 35.1033 5.08868C34.7924 4.92969 34.4883 4.88353 34.2906 5.29381C34.2177 5.44561 34.0721 5.44664 33.9373 5.37895C33.8006 5.31022 33.7957 5.17483 33.8312 5.04765C33.8705 4.90508 33.9876 4.83738 34.1184 4.87636C34.3723 4.95226 34.5848 4.88456 34.6969 4.65173C34.8475 4.33786 34.9222 4.00964 34.5199 3.80039C34.3702 3.72244 34.3604 3.57679 34.4215 3.43729C34.4804 3.30088 34.6015 3.27011 34.7323 3.30908C34.8878 3.35524 34.9577 3.47832 34.9104 3.63218C34.8268 3.90605 34.9192 4.11323 35.1426 4.22298C35.4338 4.36556 35.7398 4.44658 35.9346 4.03938C36.0034 3.89578 36.1314 3.84962 36.2779 3.9245C36.4029 3.98912 36.4561 4.09785 36.4186 4.24145C36.3764 4.4035 36.2622 4.45685 36.2239 4.4548L36.2219 4.45274Z" fill="white"/>
</g>
</svg>
