<svg width="252" height="201" viewBox="0 0 252 201" fill="none" xmlns="http://www.w3.org/2000/svg">
<g clip-path="url(#clip0_4049_1662)">
<path opacity="0.25" d="M114.708 266.201C82.675 257.618 59.8629 243.815 44.9642 224.01C36.2009 212.36 30.6689 199.155 28.5214 184.763C26.5038 171.228 27.5287 156.714 31.5733 141.62L38.0407 117.483C43.3053 97.8354 55.2866 87.4307 64.4142 82.157C65.5805 81.4836 66.7633 80.859 67.9651 80.274C65.0781 72.0078 63.2856 63.6306 62.5442 54.973C60.9836 36.7893 64.1872 19.9215 69.4764 0.181697C73.5198 -14.9083 79.8902 -27.9945 88.4048 -38.707C97.4609 -50.0975 108.854 -58.7669 122.268 -64.4744C145.072 -74.1727 171.729 -74.7198 203.758 -66.1377C235.787 -57.5556 258.604 -43.752 273.503 -23.9463C282.266 -12.2964 287.798 0.908001 289.945 15.3006C291.963 28.8351 290.938 43.3487 286.893 58.4433L280.426 82.58C275.16 102.232 263.174 112.636 254.048 117.905C252.883 118.574 251.703 119.204 250.503 119.785C253.393 128.057 255.182 136.428 255.924 145.086C257.484 163.269 254.28 180.142 248.992 199.877C244.947 214.971 238.578 228.053 230.063 238.766C221.007 250.156 209.614 258.825 196.2 264.533C173.394 274.236 146.737 274.783 114.704 266.2L114.708 266.201Z" stroke="#00D45C" stroke-width="8.57061" stroke-miterlimit="10"/>
<path opacity="0.5" d="M118.43 252.403C89.6021 244.678 69.3104 232.582 56.4092 215.421C49.0932 205.692 44.4717 194.664 42.6813 182.654C40.9543 171.071 41.8656 158.508 45.3999 145.318L51.8673 121.181C55.8663 106.257 64.7998 98.4513 71.5843 94.5264C75.474 92.2808 80.8254 90.062 87.4939 89.3298C81.2368 77.4149 77.8505 66.0079 76.7966 53.7519C75.4149 37.6421 78.3941 22.1634 83.2927 3.88159C86.8271 -9.30894 92.3145 -20.6452 99.6065 -29.8121C107.168 -39.3209 116.678 -46.5574 127.879 -51.325C147.635 -59.7302 171.253 -60.0663 200.081 -52.3419C228.909 -44.6175 249.201 -32.5207 262.106 -15.3588C269.422 -5.62974 274.045 5.39382 275.839 17.4093C277.566 28.9928 276.655 41.5552 273.12 54.7457L266.653 78.8824C262.653 93.8114 253.719 101.617 246.931 105.536C243.042 107.781 237.69 110 231.022 110.732C237.274 122.646 240.665 134.054 241.714 146.309C243.096 162.419 240.117 177.897 235.218 196.179C231.684 209.37 226.197 220.706 218.904 229.873C211.343 239.382 201.833 246.618 190.628 251.385C170.871 259.79 147.253 260.126 118.421 252.4L118.43 252.403Z" stroke="#00D45C" stroke-width="8.57061" stroke-miterlimit="10"/>
<path opacity="0.75" d="M122.089 238.606C96.4622 231.739 78.6967 221.345 67.7859 206.837C55.9849 191.144 53.0828 171.694 59.1595 149.015L65.6269 124.879C68.3615 114.673 74.2412 109.471 78.692 106.897C83.1414 104.328 90.5914 101.839 100.792 104.572L117.248 108.981L108.411 96.2468C97.6242 80.6879 92.255 67.2067 90.9912 52.5333C89.7882 38.4973 92.5418 24.4124 97.0522 7.57933C103.129 -15.0993 115.367 -30.4927 133.434 -38.1824C150.141 -45.2898 170.719 -45.4102 196.346 -38.5436C221.973 -31.6769 239.738 -21.2823 250.654 -6.77342C262.455 8.91921 265.357 28.3694 259.28 51.0481L252.813 75.1848C250.078 85.3904 244.198 90.5929 239.748 93.1664C235.298 95.7353 227.848 98.2248 217.642 95.4902L201.196 91.0834L210.03 103.812C220.815 119.376 226.184 132.857 227.448 147.53C228.651 161.566 225.898 175.651 221.387 192.484C215.311 215.163 203.071 230.561 185.006 238.246C168.298 245.353 147.72 245.474 122.089 238.606Z" stroke="#00D45C" stroke-width="8.57061" stroke-miterlimit="10"/>
<path d="M167.551 67.6413L198.31 111.961C217.233 139.264 216.073 157.172 207.6 188.791C197.67 225.852 169.659 236.565 125.797 224.812C81.9342 213.06 63.0376 189.777 72.9679 152.717L79.4353 128.58C81.8039 119.74 88.2711 116.007 97.1062 118.374L119.546 124.387C128.385 126.755 132.119 133.222 129.751 142.062L123.283 166.199C120.823 175.379 124.782 183.73 135.999 186.736C147.217 189.741 154.825 184.489 157.285 175.309C162.022 157.63 161.764 147.722 150.922 132.424L120.163 88.1039C101.238 60.8062 102.399 42.8981 110.871 11.2786C120.801 -25.7818 148.812 -36.4955 192.67 -24.7438C236.528 -12.9921 255.434 10.2928 245.504 47.3532L239.036 71.4899C236.668 80.3295 230.2 84.0634 221.361 81.6948L198.926 75.6834C190.086 73.3148 186.352 66.8476 188.721 58.0079L195.188 33.8713C197.648 24.6913 193.69 16.34 182.467 13.333C171.245 10.3261 163.646 15.5805 161.186 24.7605C156.449 42.4398 156.708 52.3482 167.551 67.6413Z" stroke="#00D45C" stroke-width="8.57061" stroke-miterlimit="10"/>
</g>
<defs>
<clipPath id="clip0_4049_1662">
<rect width="233.659" height="352.633" fill="white" transform="translate(92.0391 -100.512) rotate(15)"/>
</clipPath>
</defs>
</svg>
