<svg width="121" height="24" viewBox="0 0 121 24" fill="none" xmlns="http://www.w3.org/2000/svg">
<path d="M70.2975 16.1544L63.8975 0.474365H56.9375V23.5944H62.7775V10.3144L67.9775 23.5944H72.6975L77.8175 10.3144V23.5944H83.6575V0.474365H76.7775L70.2975 16.1544Z" fill="white"/>
<path fill-rule="evenodd" clip-rule="evenodd" d="M103.578 0.474375L112.057 23.5944H106.057L104.378 18.9544H93.4175L91.7375 23.5944H85.7375L94.2975 0.474375H103.578ZM102.618 14.1544L99.4975 5.51438H98.2175L95.0975 14.1544H102.618ZM16.6975 11.9144C15.8442 11.381 14.9375 10.9544 13.9775 10.6344C13.0175 10.3144 12.0842 10.021 11.1775 9.75437C10.4842 9.48771 9.87083 9.24771 9.3375 9.03438C8.75083 8.76771 8.2975 8.50104 7.9775 8.23438C7.6575 7.91438 7.4975 7.51438 7.4975 7.03438C7.4975 6.55438 7.63083 6.15438 7.8975 5.83437C8.2175 5.51438 8.59083 5.27437 9.0175 5.11438C9.44417 4.95437 9.92417 4.87438 10.4575 4.87438C10.8842 4.87438 11.3108 4.92771 11.7375 5.03438C12.0042 5.14104 12.2442 5.24771 12.4575 5.35438L12.5375 5.43438C12.5908 5.48771 12.6708 5.54104 12.7775 5.59438C13.0175 5.83437 13.3375 6.23438 13.4975 6.87438V6.95437C13.6042 7.27437 13.6842 7.64771 13.7375 8.07438H19.1775C19.0175 4.31438 17.2575 2.87438 17.2575 2.87438C16.4575 2.02104 15.4708 1.35438 14.2975 0.874375C13.1242 0.447708 11.7642 0.234375 10.2175 0.234375C8.56417 0.234375 7.0975 0.501042 5.8175 1.03438C4.48417 1.56771 3.44417 2.34104 2.6975 3.35438C1.95083 4.31438 1.5775 5.54104 1.5775 7.03438C1.5775 8.20771 1.79083 9.19438 2.2175 9.99438C2.6975 10.7944 3.3375 11.4344 4.1375 11.9144C4.88417 12.3944 5.7375 12.7944 6.6975 13.1144C7.60417 13.4344 8.48417 13.7277 9.3375 13.9944C10.1908 14.2077 10.9108 14.4477 11.4975 14.7144C12.1375 14.9277 12.6175 15.1944 12.9375 15.5144C13.3108 15.8344 13.4975 16.2877 13.4975 16.8744C13.4975 17.5144 13.2042 18.0477 12.6175 18.4744C12.0308 18.9544 11.2042 19.1944 10.1375 19.1944C9.55083 19.141 9.0175 19.0344 8.5375 18.8744C8.00417 18.7144 7.5775 18.4477 7.2575 18.0744C7.15083 17.9677 7.04417 17.8344 6.9375 17.6744C6.7775 17.2744 6.5375 16.7144 6.5375 15.9144H0.9375C0.990833 16.5544 1.07083 17.1144 1.1775 17.5944C1.44417 18.9277 2.00417 20.0744 2.8575 21.0344C3.6575 21.941 4.72417 22.6344 6.0575 23.1144C7.39083 23.5944 8.91083 23.8344 10.6175 23.8344C12.5908 23.8344 14.2175 23.5144 15.4975 22.8744C16.8308 22.2877 17.8175 21.461 18.4575 20.3944C19.0975 19.381 19.4175 18.2077 19.4175 16.8744C19.4175 15.701 19.1775 14.7144 18.6975 13.9144C18.1642 13.1144 17.4975 12.4477 16.6975 11.9144Z" fill="white"/>
<path d="M39.895 5.99437C40.855 5.40771 41.9217 5.11438 43.095 5.11438C44.375 5.11438 45.335 5.35437 46.215 5.83437C47.0683 6.31437 47.7617 7.06104 48.295 8.07438H54.055L53.895 7.43438C53.8417 7.00771 53.7617 6.63438 53.655 6.31437C53.1217 5.14104 52.4017 4.12771 51.495 3.27437C50.4283 2.31437 49.175 1.56771 47.735 1.03438C46.2417 0.501042 44.6417 0.234375 42.935 0.234375C41.175 0.234375 39.495 0.554375 38.055 1.11438C36.615 1.70104 35.3617 2.50104 34.295 3.51437C33.2283 4.58104 32.4017 5.83438 31.815 7.27438C31.2817 8.71438 31.015 10.2877 31.015 11.9944C31.015 13.701 31.2817 15.2744 31.815 16.7144C32.4017 18.1544 33.2283 19.4077 34.295 20.4744C35.3617 21.541 36.6417 22.3677 38.135 22.9544C39.575 23.4877 41.2017 23.7544 43.015 23.7544C44.935 23.7544 46.615 23.4344 48.055 22.7944C49.495 22.1544 50.7217 21.3277 51.735 20.3144V20.2344C53.255 18.7944 54.055 16.7144 54.055 14.6344V10.6344H43.015V15.1144H48.695V16.0744C47.655 17.5144 46.455 18.2344 45.495 18.5544C45.1217 18.7144 44.7217 18.821 44.295 18.8744H43.415C42.0817 18.8744 40.935 18.6077 39.975 18.0744C38.9617 17.4877 38.215 16.6877 37.735 15.6744C37.2017 14.6077 36.935 13.381 36.935 11.9944C36.935 10.7144 37.2017 9.54104 37.735 8.47438C38.2683 7.46104 38.9883 6.63438 39.895 5.99437ZM28.215 0.474375V5.51438H22.375V0.474375H28.215ZM28.215 8.07438V23.5944H22.375V8.07438H28.215Z" fill="white"/>
<path d="M107.18 0.474365L115.5 23.5944H120.38V0.474365H107.18Z" fill="#E93323"/>
</svg>
