<svg width="177" height="49" viewBox="0 0 177 49" fill="none" xmlns="http://www.w3.org/2000/svg">
<g clip-path="url(#clip0_4050_3623)">
<path d="M7.83969 10.861L12.4952 14.8002C15.3601 17.2239 15.7566 19.2191 15.7566 22.9153C15.7566 27.2574 13.0132 29.2463 7.87806 29.2463C2.74297 29.2463 -0.000437577 27.2574 -0.000437577 22.9153V20.0888C-0.0223646 19.8692 0.0047497 19.6475 0.0789466 19.4397C0.153144 19.2319 0.272571 19.0432 0.428601 18.8871C0.584631 18.7311 0.773369 18.6117 0.981181 18.5375C1.18899 18.4633 1.41069 18.4362 1.63026 18.4581H4.25855C4.47812 18.4362 4.69982 18.4633 4.90763 18.5375C5.11544 18.6117 5.30418 18.7311 5.46021 18.8871C5.61624 19.0432 5.73567 19.2319 5.80987 19.4397C5.88406 19.6475 5.91118 19.8692 5.88925 20.0888V22.9153C5.87554 23.175 5.91855 23.4345 6.0153 23.6759C6.11205 23.9173 6.26021 24.1347 6.44948 24.313C6.63875 24.4913 6.86459 24.6263 7.1113 24.7085C7.35801 24.7907 7.61966 24.8182 7.87806 24.789C8.13646 24.8182 8.39811 24.7907 8.64482 24.7085C8.89152 24.6263 9.11736 24.4913 9.30664 24.313C9.49591 24.1347 9.64407 23.9173 9.74082 23.6759C9.83757 23.4345 9.88058 23.175 9.86687 22.9153C9.86687 20.8498 9.55352 19.7754 7.9484 18.4389L3.26095 14.4805C0.396045 12.0504 -0.000437577 10.0616 -0.000437577 6.35896C-0.000437577 2.02323 2.74297 0.0344238 7.87806 0.0344238C13.0132 0.0344238 15.7566 2.02323 15.7566 6.35896V9.1855C15.7797 9.40533 15.7534 9.62754 15.6796 9.8359C15.6059 10.0443 15.4865 10.2335 15.3302 10.3898C15.1739 10.5461 14.9846 10.6655 14.7763 10.7393C14.5679 10.813 14.3457 10.8393 14.1259 10.8162H11.5104C11.2903 10.8391 11.0679 10.8128 10.8592 10.739C10.6506 10.6653 10.4611 10.546 10.3043 10.3899C10.1475 10.2337 10.0275 10.0446 9.95296 9.8363C9.8784 9.62798 9.85118 9.40566 9.87326 9.1855V6.35896C9.88328 6.10078 9.83731 5.84349 9.7385 5.60475C9.63968 5.36601 9.49037 5.15149 9.30082 4.97591C9.11127 4.80033 8.88596 4.66785 8.64037 4.58757C8.39478 4.5073 8.13472 4.48112 7.87806 4.51084C7.62189 4.48211 7.36255 4.50903 7.11774 4.58976C6.87294 4.67049 6.64845 4.80312 6.45962 4.97859C6.27079 5.15406 6.12208 5.36823 6.02364 5.60647C5.9252 5.8447 5.87936 6.10138 5.88925 6.35896C5.88925 8.43091 6.209 9.50525 7.83969 10.861Z" fill="#00D45C"/>
<path d="M29.0501 4.68999V27.4174C29.072 27.637 29.0449 27.8587 28.9707 28.0665C28.8965 28.2743 28.7771 28.463 28.6211 28.6191C28.465 28.7751 28.2763 28.8945 28.0685 28.9687C27.8607 29.0429 27.639 29.07 27.4194 29.0481H24.7911C24.5715 29.07 24.3498 29.0429 24.142 28.9687C23.9342 28.8945 23.7455 28.7751 23.5894 28.6191C23.4334 28.463 23.314 28.2743 23.2398 28.0665C23.1656 27.8587 23.1385 27.637 23.1604 27.4174V4.68999H19.381C19.1612 4.71311 18.939 4.68683 18.7306 4.61306C18.5223 4.53928 18.333 4.41989 18.1767 4.26359C18.0204 4.10729 17.901 3.91805 17.8273 3.70969C17.7535 3.50133 17.7272 3.27911 17.7503 3.05929V1.86345C17.7272 1.64362 17.7535 1.42141 17.8273 1.21305C17.901 1.00469 18.0204 0.815446 18.1767 0.65915C18.333 0.502854 18.5223 0.383456 18.7306 0.309683C18.939 0.23591 19.1612 0.209626 19.381 0.232752H32.8103C33.0301 0.209626 33.2523 0.23591 33.4607 0.309683C33.669 0.383456 33.8583 0.502854 34.0146 0.65915C34.1709 0.815446 34.2903 1.00469 34.364 1.21305C34.4378 1.42141 34.4641 1.64362 34.441 1.86345V3.05929C34.4641 3.27911 34.4378 3.50133 34.364 3.70969C34.2903 3.91805 34.1709 4.10729 34.0146 4.26359C33.8583 4.41989 33.669 4.53928 33.4607 4.61306C33.2523 4.68683 33.0301 4.71311 32.8103 4.68999H29.0501Z" fill="#00D45C"/>
<path d="M45.4836 27.6156L45.004 23.6315H40.227L39.7474 27.6156C39.7424 27.8194 39.6952 28.0199 39.6088 28.2046C39.5224 28.3893 39.3988 28.5541 39.2456 28.6887C39.0924 28.8232 38.913 28.9246 38.7188 28.9865C38.5245 29.0483 38.3195 29.0693 38.1167 29.048H35.7314C34.5356 29.048 33.9409 28.2103 34.1391 27.0144L37.976 1.78662C38.1167 0.629149 38.7179 0.232666 39.6515 0.232666H45.5988C46.5132 0.232666 47.1143 0.629149 47.2742 1.78662L51.1111 27.0144C51.3094 28.2103 50.7147 29.048 49.5188 29.048H47.1143C46.9116 29.0693 46.7066 29.0483 46.5123 28.9865C46.318 28.9246 46.1387 28.8232 45.9855 28.6887C45.8323 28.5541 45.7087 28.3893 45.6223 28.2046C45.5359 28.0199 45.4887 27.8194 45.4836 27.6156ZM40.745 19.1743H44.4477L43.9297 14.6403L42.8489 4.01204H42.4461L41.3014 14.6403L40.745 19.1743Z" fill="#00D45C"/>
<path d="M59.8033 12.3319H60.1998L64.7785 1.14722C64.9023 0.855719 65.1147 0.610549 65.3856 0.446428C65.6564 0.282308 65.972 0.207554 66.2877 0.232752H68.9992C70.7066 0.232752 70.7897 1.86345 70.5084 2.54131L65.3924 14.6404L70.5084 26.7395C70.7897 27.4174 70.7066 29.0481 68.9992 29.0481H66.2877C65.972 29.0733 65.6564 28.9985 65.3856 28.8344C65.1147 28.6703 64.9023 28.4251 64.7785 28.1336L60.1998 16.949H59.8033V27.4174C59.8248 27.6352 59.798 27.8551 59.7249 28.0614C59.6518 28.2677 59.5342 28.4553 59.3803 28.611C59.2265 28.7667 59.0402 28.8865 58.8348 28.9621C58.6294 29.0376 58.4099 29.067 58.1918 29.0481H55.5443C55.3248 29.07 55.1031 29.0429 54.8952 28.9687C54.6874 28.8945 54.4987 28.7751 54.3427 28.6191C54.1866 28.463 54.0672 28.2743 53.993 28.0665C53.9188 27.8587 53.8917 27.637 53.9136 27.4174V1.83787C53.8946 1.62007 53.9239 1.40074 53.9994 1.19559C54.075 0.990434 54.195 0.804521 54.3508 0.65115C54.5067 0.497778 54.6944 0.380741 54.9008 0.30841C55.1071 0.23608 55.3268 0.210244 55.5443 0.232752H58.1918C58.4116 0.209626 58.6338 0.23591 58.8422 0.309683C59.0506 0.383456 59.2398 0.502854 59.3961 0.65915C59.5524 0.815446 59.6718 1.00469 59.7456 1.21305C59.8193 1.42141 59.8456 1.64362 59.8225 1.86345L59.8033 12.3319Z" fill="#00D45C"/>
<path d="M85.3442 0.232783C85.5632 0.211869 85.7842 0.239738 85.9912 0.314388C86.1982 0.389037 86.3861 0.508613 86.5414 0.664524C86.6967 0.820435 86.8156 1.00881 86.8894 1.21611C86.9633 1.42341 86.9903 1.6445 86.9685 1.86348V3.05932C86.9904 3.27889 86.9633 3.50059 86.8891 3.7084C86.8149 3.91621 86.6955 4.10495 86.5394 4.26098C86.3834 4.41701 86.1947 4.53644 85.9869 4.61063C85.779 4.68483 85.5573 4.71194 85.3378 4.69002H79.5824V12.4086H83.8414C84.0615 12.3866 84.2839 12.4138 84.4922 12.4883C84.7005 12.5629 84.8896 12.6829 85.0458 12.8397C85.2019 12.9964 85.3212 13.186 85.3949 13.3946C85.4687 13.6032 85.495 13.8257 85.4721 14.0457V15.2352C85.4952 15.455 85.4689 15.6772 85.3951 15.8856C85.3214 16.0939 85.202 16.2832 85.0457 16.4395C84.8894 16.5958 84.7001 16.7152 84.4918 16.7889C84.2834 16.8627 84.0612 16.889 83.8414 16.8659H79.5824V24.5909H85.3378C85.5603 24.5681 85.7851 24.5958 85.9956 24.6718C86.206 24.7477 86.3966 24.8701 86.5532 25.0299C86.7098 25.1896 86.8285 25.3825 86.9004 25.5943C86.9723 25.8062 86.9956 26.0315 86.9685 26.2536V27.4494C86.9904 27.669 86.9633 27.8907 86.8891 28.0985C86.8149 28.3063 86.6955 28.495 86.5394 28.6511C86.3834 28.8071 86.1947 28.9265 85.9869 29.0007C85.779 29.0749 85.5573 29.102 85.3378 29.0801H75.3106C75.091 29.102 74.8693 29.0749 74.6615 29.0007C74.4537 28.9265 74.265 28.8071 74.1089 28.6511C73.9529 28.495 73.8335 28.3063 73.7593 28.0985C73.6851 27.8907 73.658 27.669 73.6799 27.4494V1.86987C73.657 1.6498 73.6833 1.42738 73.7571 1.21877C73.8308 1.01015 73.9501 0.820582 74.1062 0.663819C74.2624 0.507056 74.4515 0.387038 74.6598 0.31248C74.8681 0.237923 75.0904 0.210698 75.3106 0.232783H85.3442Z" fill="#00D45C"/>
<path d="M96.0763 24.5909H101.832C102.056 24.565 102.283 24.5903 102.496 24.6649C102.708 24.7395 102.902 24.8615 103.06 25.0216C103.219 25.1816 103.34 25.3757 103.413 25.5891C103.486 25.8026 103.509 26.0297 103.482 26.2536V27.4494C103.504 27.669 103.476 27.8907 103.402 28.0985C103.328 28.3063 103.209 28.4951 103.053 28.6511C102.897 28.8071 102.708 28.9265 102.5 29.0007C102.292 29.0749 102.07 29.1021 101.851 29.0801H91.8174C91.5933 29.106 91.3663 29.0807 91.1534 29.0061C90.9406 28.9315 90.7475 28.8096 90.5886 28.6495C90.4297 28.4894 90.3093 28.2953 90.2363 28.0819C90.1634 27.8685 90.1398 27.6413 90.1675 27.4175V1.83792C90.1491 1.6186 90.1796 1.39794 90.2567 1.19179C90.3337 0.98564 90.4555 0.799128 90.6133 0.645658C90.771 0.492187 90.9608 0.375569 91.169 0.304184C91.3772 0.2328 91.5986 0.208423 91.8174 0.232804H94.4457C94.6655 0.209678 94.8877 0.235962 95.096 0.309735C95.3044 0.383508 95.4937 0.502906 95.65 0.659202C95.8062 0.815498 95.9256 1.00474 95.9994 1.2131C96.0732 1.42146 96.0995 1.64368 96.0763 1.8635V24.5909Z" fill="white"/>
<path d="M121.398 6.35896V22.9153C121.398 27.2574 118.654 29.2463 113.519 29.2463C108.384 29.2463 105.641 27.2574 105.641 22.9153V6.35896C105.641 2.02323 108.384 0.0344238 113.519 0.0344238C118.654 0.0344238 121.398 2.02323 121.398 6.35896ZM111.53 6.35896V22.9153C111.57 23.4152 111.797 23.8817 112.166 24.2219C112.534 24.562 113.018 24.7509 113.519 24.7509C114.021 24.7509 114.504 24.562 114.872 24.2219C115.241 23.8817 115.468 23.4152 115.508 22.9153V6.35896C115.468 5.85904 115.241 5.39257 114.872 5.05241C114.504 4.71226 114.021 4.52338 113.519 4.52338C113.018 4.52338 112.534 4.71226 112.166 5.05241C111.797 5.39257 111.57 5.85904 111.53 6.35896Z" fill="white"/>
<path d="M139.082 13.7259C139.302 13.7062 139.524 13.7359 139.731 13.8129C139.938 13.89 140.125 14.0123 140.279 14.1711C140.433 14.3298 140.55 14.521 140.62 14.7305C140.691 14.94 140.713 15.1627 140.687 15.3821V22.9153C140.687 27.2574 137.943 29.2463 132.808 29.2463C127.673 29.2463 124.93 27.2574 124.93 22.9153V6.35896C124.93 2.02323 127.673 0.0344238 132.808 0.0344238C137.943 0.0344238 140.687 2.02323 140.687 6.35896V8.78902C140.71 9.00884 140.684 9.23106 140.61 9.43942C140.536 9.64778 140.417 9.83702 140.26 9.99332C140.104 10.1496 139.915 10.269 139.706 10.3428C139.498 10.4166 139.276 10.4428 139.056 10.4197H136.428C136.208 10.4428 135.986 10.4166 135.777 10.3428C135.569 10.269 135.38 10.1496 135.223 9.99332C135.067 9.83702 134.948 9.64778 134.874 9.43942C134.8 9.23106 134.774 9.00884 134.797 8.78902V6.35896C134.757 5.85904 134.53 5.39257 134.161 5.05241C133.793 4.71226 133.31 4.52338 132.808 4.52338C132.307 4.52338 131.824 4.71226 131.455 5.05241C131.086 5.39257 130.86 5.85904 130.819 6.35896V22.9153C130.86 23.4152 131.086 23.8817 131.455 24.2219C131.824 24.562 132.307 24.7509 132.808 24.7509C133.31 24.7509 133.793 24.562 134.161 24.2219C134.53 23.8817 134.757 23.4152 134.797 22.9153V18.1831H134.439C134.219 18.205 133.998 18.1779 133.79 18.1037C133.582 18.0295 133.393 17.9101 133.237 17.7541C133.081 17.598 132.962 17.4093 132.888 17.2015C132.813 16.9937 132.786 16.772 132.808 16.5524V15.3821C132.785 15.1623 132.811 14.9401 132.885 14.7318C132.959 14.5234 133.078 14.3341 133.235 14.1778C133.391 14.0216 133.58 13.9022 133.788 13.8284C133.997 13.7546 134.219 13.7283 134.439 13.7515L139.082 13.7259Z" fill="white"/>
<path d="M150.155 27.4174C150.177 27.637 150.15 27.8587 150.075 28.0665C150.001 28.2743 149.882 28.463 149.726 28.619C149.57 28.7751 149.381 28.8945 149.173 28.9687C148.965 29.0429 148.744 29.07 148.524 29.0481H145.896C145.676 29.07 145.455 29.0429 145.247 28.9687C145.039 28.8945 144.85 28.7751 144.694 28.619C144.538 28.463 144.419 28.2743 144.345 28.0665C144.27 27.8587 144.243 27.637 144.265 27.4174V1.83785C144.246 1.62005 144.275 1.40073 144.351 1.19557C144.427 0.990418 144.547 0.804505 144.702 0.651134C144.858 0.497763 145.046 0.380725 145.252 0.308395C145.459 0.236064 145.678 0.210229 145.896 0.232737H148.524C148.744 0.21081 148.965 0.237924 149.173 0.312121C149.381 0.386318 149.57 0.505745 149.726 0.661775C149.882 0.817805 150.001 1.00654 150.075 1.21436C150.15 1.42217 150.177 1.64386 150.155 1.86343V27.4174Z" fill="white"/>
<path d="M169.467 10.3813C169.488 10.6009 169.461 10.8226 169.387 11.0304C169.313 11.2382 169.194 11.427 169.037 11.583C168.881 11.739 168.693 11.8585 168.485 11.9327C168.277 12.0069 168.055 12.034 167.836 12.012H165.208C164.988 12.0352 164.765 12.0089 164.557 11.9351C164.349 11.8613 164.16 11.7419 164.003 11.5856C163.847 11.4293 163.728 11.2401 163.654 11.0317C163.58 10.8234 163.554 10.6012 163.577 10.3813V6.35896C163.548 5.85017 163.326 5.37169 162.955 5.02168C162.585 4.67168 162.094 4.47667 161.585 4.47667C161.075 4.47667 160.585 4.67168 160.214 5.02168C159.844 5.37169 159.622 5.85017 159.593 6.35896V22.9153C159.622 23.4241 159.844 23.9026 160.214 24.2526C160.585 24.6026 161.075 24.7976 161.585 24.7976C162.094 24.7976 162.585 24.6026 162.955 24.2526C163.326 23.9026 163.548 23.4241 163.577 22.9153V18.8993C163.559 18.6814 163.589 18.4622 163.665 18.2574C163.742 18.0525 163.862 17.867 164.019 17.7143C164.175 17.5615 164.363 17.4452 164.57 17.3737C164.777 17.3022 164.997 17.2772 165.214 17.3006H167.842C168.058 17.2804 168.276 17.3077 168.481 17.3805C168.685 17.4533 168.871 17.5699 169.026 17.7222C169.181 17.8745 169.3 18.0588 169.377 18.2621C169.453 18.4654 169.483 18.6829 169.467 18.8993V22.9153C169.467 27.2574 166.717 29.2463 161.582 29.2463C156.447 29.2463 153.703 27.2574 153.703 22.9153V6.35896C153.703 2.02323 156.453 0.0344238 161.582 0.0344238C166.71 0.0344238 169.467 2.02323 169.467 6.35896V10.3813Z" fill="white"/>
<path d="M172.734 0.673971C173.158 0.250662 173.733 0.0129395 174.333 0.0129395C174.932 0.0129395 175.507 0.250662 175.931 0.673971C176.138 0.884827 176.302 1.13473 176.411 1.40918C176.521 1.68362 176.575 1.97714 176.571 2.27269C176.575 2.56625 176.52 2.85765 176.41 3.12993C176.301 3.40221 176.138 3.64992 175.931 3.85862C175.723 4.0721 175.475 4.24178 175.2 4.35763C174.926 4.47348 174.631 4.53317 174.333 4.53317C174.035 4.53317 173.74 4.47348 173.465 4.35763C173.19 4.24178 172.942 4.0721 172.734 3.85862C172.525 3.65144 172.361 3.40401 172.251 3.13137C172.141 2.85874 172.088 2.56659 172.094 2.27269C172.087 1.97681 172.14 1.68255 172.25 1.40775C172.36 1.13295 172.525 0.883315 172.734 0.673971ZM173.022 3.62841C173.189 3.80449 173.39 3.9447 173.613 4.04051C173.837 4.13632 174.077 4.18572 174.32 4.18572C174.563 4.18572 174.803 4.13632 175.026 4.04051C175.249 3.9447 175.451 3.80449 175.618 3.62841C175.791 3.44886 175.926 3.23626 176.015 3.00332C176.104 2.77038 176.145 2.52189 176.136 2.27269C176.151 1.76601 175.965 1.27401 175.618 0.904187C175.448 0.732105 175.246 0.595455 175.023 0.502183C174.801 0.40891 174.561 0.360877 174.32 0.360877C174.078 0.360877 173.839 0.40891 173.616 0.502183C173.393 0.595455 173.191 0.732105 173.022 0.904187C172.673 1.27299 172.484 1.7651 172.497 2.27269C172.484 2.78028 172.673 3.2724 173.022 3.6412V3.62841ZM173.456 0.948951H174.467C175.068 0.948951 175.369 1.19835 175.369 1.69076C175.379 1.88023 175.315 2.06629 175.19 2.20874C175.127 2.27827 175.05 2.33321 174.964 2.36967C174.877 2.40614 174.784 2.42324 174.691 2.41977L175.439 3.59004H174.985L174.262 2.43256H173.885V3.60283H173.456V0.948951ZM173.885 2.08724H174.397C174.536 2.09576 174.675 2.06707 174.799 2.00411C174.851 1.96657 174.891 1.91583 174.916 1.85727C174.94 1.79872 174.949 1.73454 174.94 1.67157C174.944 1.61076 174.93 1.55017 174.902 1.49615C174.874 1.44214 174.832 1.3967 174.78 1.36462C174.659 1.31222 174.528 1.28607 174.397 1.28788H173.885V2.08724Z" fill="white"/>
<path d="M9.94925 36.4853L9.74462 37.4574C9.72532 37.6591 9.6346 37.8473 9.48882 37.9881C9.29069 38.0858 9.06908 38.1257 8.84933 38.1032H6.3937L4.47523 47.1136C4.45279 47.3145 4.36256 47.5017 4.21944 47.6444C4.0213 47.742 3.79969 47.7819 3.57995 47.7595H2.22423C1.85972 47.7595 1.68067 47.6124 1.68067 47.3183C1.67335 47.2567 1.67335 47.1944 1.68067 47.1328C1.68067 47.0497 1.71264 46.973 1.71904 46.8898L3.60553 38.1096H1.04757C0.683066 38.1096 0.504009 37.9626 0.504009 37.6684C0.498664 37.6067 0.498664 37.5446 0.504009 37.4829C0.504009 37.3998 0.535983 37.3231 0.555168 37.2399L0.759804 36.2679C0.782023 36.0707 0.872511 35.8875 1.0156 35.7499C1.21079 35.6432 1.43388 35.5986 1.65509 35.622H9.46964C9.83415 35.622 10.0132 35.7691 10.0132 36.0633C10.0184 36.1271 10.0184 36.1913 10.0132 36.2551C9.98762 36.3319 9.96844 36.415 9.94925 36.4853Z" fill="white"/>
<path d="M21.6256 36.4852L19.3746 47.1135C19.3524 47.3107 19.2619 47.494 19.1188 47.6315C18.9248 47.7414 18.7007 47.7863 18.4793 47.7594H17.1108C16.7463 47.7594 16.5609 47.6123 16.5609 47.3181C16.5567 47.2564 16.5567 47.1944 16.5609 47.1327C16.5609 47.0496 16.5609 46.9728 16.6056 46.8897L17.4945 42.6819H13.939L12.9989 47.1135C12.9796 47.3153 12.8889 47.5035 12.7431 47.6443C12.545 47.7419 12.3234 47.7818 12.1036 47.7594H10.7351C10.3706 47.7594 10.1852 47.6123 10.1852 47.3181C10.1779 47.2565 10.1779 47.1943 10.1852 47.1327C10.1852 47.0496 10.1852 46.9728 10.2299 46.8897L12.4809 36.2678C12.5032 36.0706 12.5936 35.8873 12.7367 35.7498C12.9316 35.6423 13.155 35.5977 13.3762 35.6219H14.7703C15.1348 35.6219 15.3203 35.769 15.3203 36.0632C15.3248 36.127 15.3248 36.1911 15.3203 36.255C15.3093 36.3351 15.2922 36.4142 15.2691 36.4916L14.4506 40.2582H18.0317L18.8822 36.2678C18.9044 36.0706 18.9949 35.8873 19.138 35.7498C19.3332 35.6431 19.5563 35.5985 19.7775 35.6219H21.178C21.5361 35.6219 21.7215 35.769 21.7215 36.0632C21.7261 36.127 21.7261 36.1911 21.7215 36.255C21.6957 36.3342 21.6637 36.4111 21.6256 36.4852Z" fill="white"/>
<path d="M22.7335 46.8898L24.9845 36.2679C25.0067 36.0707 25.0972 35.8875 25.2403 35.7499C25.4355 35.6432 25.6586 35.5986 25.8798 35.622H27.2803C27.6448 35.622 27.8238 35.7691 27.8238 36.0633C27.8283 36.1272 27.8283 36.1913 27.8238 36.2551C27.816 36.3357 27.7988 36.4151 27.7727 36.4917L25.4833 47.1136C25.4609 47.3145 25.3706 47.5017 25.2275 47.6444C25.0294 47.742 24.8078 47.7819 24.588 47.7595H23.2131C22.8486 47.7595 22.6695 47.6124 22.6695 47.3183C22.6622 47.2567 22.6622 47.1944 22.6695 47.1328C22.7079 47.0497 22.7271 46.973 22.7335 46.8898Z" fill="white"/>
<path d="M39.7533 36.4853L37.5023 47.1136C37.483 47.3153 37.3923 47.5036 37.2465 47.6444C37.0483 47.742 36.8267 47.7819 36.607 47.7595H35.5262C35.307 47.7868 35.0846 47.749 34.8868 47.6508C34.7477 47.5078 34.6523 47.3281 34.6118 47.1328L32.7573 40.7379L31.4079 47.1328C31.3805 47.3252 31.2933 47.5042 31.1585 47.6444C30.9823 47.7521 30.7757 47.7993 30.5702 47.7787H29.2912C28.9267 47.7787 28.7477 47.6316 28.7477 47.3374C28.7404 47.2758 28.7404 47.2136 28.7477 47.152C28.7477 47.0688 28.7477 46.9921 28.7924 46.909L31.0434 36.2871C31.0657 36.0898 31.1561 35.9066 31.2992 35.7691C31.4938 35.6608 31.7174 35.6161 31.9387 35.6412H33.045C33.2642 35.6175 33.4855 35.6551 33.6845 35.7499C33.8246 35.8946 33.9201 36.0767 33.9595 36.2743L35.814 42.6692L37.1633 36.2743C37.1856 36.077 37.276 35.8938 37.4191 35.7563C37.6143 35.6496 37.8374 35.605 38.0586 35.6284H39.2992C39.6637 35.6284 39.8492 35.7755 39.8492 36.0696C39.853 36.1335 39.853 36.1976 39.8492 36.2615C39.7788 36.3318 39.7661 36.415 39.7533 36.4853Z" fill="white"/>
<path d="M40.8585 46.8898L43.1095 36.2679C43.1317 36.0707 43.2222 35.8875 43.3653 35.7499C43.5605 35.6432 43.7836 35.5986 44.0048 35.622H45.3541C45.7186 35.622 45.8977 35.7691 45.8977 36.0633C45.9004 36.0931 45.9004 36.123 45.8977 36.1528C45.8977 36.1848 45.8977 36.2487 45.8977 36.3383L45.0791 40.1752L48.7242 36.2679C48.9224 36.0633 49.0695 35.9162 49.1718 35.8267C49.2541 35.7489 49.3523 35.69 49.4596 35.654C49.584 35.6307 49.7104 35.62 49.8369 35.622H51.9472C52.1519 35.622 52.2542 35.6988 52.2542 35.8586C52.2456 35.991 52.186 36.1148 52.0879 36.204L47.7522 40.5653L49.7794 46.7172C49.839 46.8962 49.8774 47.0241 49.8945 47.1009C49.9152 47.1519 49.9281 47.2058 49.9328 47.2607C49.9333 47.3303 49.9174 47.399 49.8863 47.4613C49.8551 47.5235 49.8097 47.5775 49.7538 47.6188C49.621 47.7116 49.4616 47.7587 49.2997 47.7531H47.7138C47.5292 47.772 47.3433 47.7316 47.183 47.638C47.0542 47.4839 46.9623 47.3023 46.9145 47.1072L45.482 42.5605L44.2734 43.718L43.5571 47.1136C43.5324 47.3101 43.4423 47.4926 43.3013 47.6316C43.1073 47.7416 42.8832 47.7864 42.6619 47.7595H41.3381C40.9736 47.7595 40.7945 47.6124 40.7945 47.3183C40.7872 47.2567 40.7872 47.1944 40.7945 47.1328C40.8329 47.0497 40.8521 46.973 40.8585 46.8898Z" fill="white"/>
<path d="M59.2188 46.8898L61.4698 36.2679C61.492 36.0707 61.5825 35.8874 61.7256 35.7499C61.9208 35.6432 62.1439 35.5986 62.3651 35.622H65.4666C66.4177 35.5713 67.3598 35.8292 68.1524 36.3574C68.4716 36.5807 68.73 36.8801 68.9042 37.2285C69.0784 37.5769 69.1629 37.9633 69.15 38.3526C69.1593 38.459 69.1593 38.566 69.15 38.6724C69.15 38.7875 69.1117 38.9154 69.0925 39.0497L69.0413 39.2863C68.9354 39.7583 68.7159 40.1973 68.4018 40.5652C68.0983 40.9422 67.7015 41.2332 67.2508 41.4094C67.6593 41.5901 68.0029 41.8913 68.2356 42.2727C68.4783 42.6544 68.6029 43.0994 68.5937 43.5517C68.5873 43.7533 68.5659 43.9543 68.5297 44.1528L68.4594 44.4725C68.2899 45.441 67.7598 46.3093 66.9758 46.9026C66.0911 47.5172 65.0266 47.8188 63.951 47.7595H59.6984C59.3339 47.7595 59.1484 47.6124 59.1484 47.3182C59.1523 47.2554 59.163 47.1933 59.1804 47.1328L59.2188 46.8898ZM62.8191 42.65L62.2372 45.4381H63.7528C64.8655 45.4381 65.4986 45.0161 65.6712 44.1592L65.7096 43.9545C65.7096 43.8842 65.7096 43.8011 65.7096 43.6987C65.7096 42.9953 65.2236 42.6436 64.2452 42.6436L62.8191 42.65ZM63.8231 37.9561L63.2795 40.5141H64.6225C65.6329 40.5141 66.2084 40.1304 66.3491 39.3694V39.1839C66.3567 39.0989 66.3567 39.0132 66.3491 38.9282C66.3491 38.2887 65.9014 37.9881 65.0189 37.9881L63.8231 37.9561Z" fill="white"/>
<path d="M70.676 46.8898L72.9014 36.2679C72.9236 36.0707 73.0141 35.8875 73.1572 35.7499C73.3518 35.6417 73.5754 35.5969 73.7967 35.622H75.1908C75.5553 35.622 75.7407 35.7691 75.7407 36.0633C75.7452 36.1271 75.7452 36.1913 75.7407 36.2551C75.7407 36.3319 75.7407 36.415 75.6896 36.4917L73.4386 47.1136C73.4193 47.3154 73.3286 47.5036 73.1828 47.6444C72.9846 47.742 72.763 47.7819 72.5433 47.7595H71.1428C70.7783 47.7595 70.5992 47.6124 70.5992 47.3183C70.5919 47.2567 70.5919 47.1944 70.5992 47.1328C70.6504 47.0497 70.6632 46.9729 70.676 46.8898Z" fill="white"/>
<path d="M86.6333 42.0297L86.2752 43.718C86.0795 44.9405 85.4861 46.0643 84.5869 46.9154C83.7037 47.6847 82.5598 48.0873 81.3895 48.0409C80.255 48.1092 79.1371 47.7434 78.2624 47.0177C77.8815 46.6502 77.5852 46.204 77.3941 45.7104C77.2031 45.2168 77.1219 44.6874 77.1561 44.1592C77.1561 43.929 77.1561 43.7116 77.1561 43.5197C77.1561 43.3279 77.2136 43.0913 77.2584 42.8802L77.7891 40.3223C78.4798 37.0055 80.2874 35.3449 83.212 35.3407C84.2177 35.2868 85.2086 35.6004 86.0002 36.2232C86.341 36.5156 86.6108 36.8818 86.7891 37.2939C86.9675 37.7061 87.0498 38.1534 87.0298 38.6021V38.8131C87.0275 38.8912 87.0146 38.9687 86.9914 39.0433C86.9466 39.3822 86.7036 39.5549 86.2624 39.5549H84.9131C84.491 39.5549 84.2736 39.3758 84.2736 39.0241C84.286 38.844 84.2579 38.6633 84.1913 38.4955C84.1248 38.3276 84.0214 38.1768 83.8889 38.0541C83.7564 37.9314 83.5981 37.84 83.4257 37.7865C83.2532 37.7331 83.0709 37.7189 82.8923 37.7451C81.7412 37.7451 80.9909 38.5978 80.6413 40.3031L80.0785 42.9634C80.0465 43.1296 80.0146 43.3023 79.9954 43.4622C79.9707 43.6187 79.9578 43.7769 79.957 43.9354C79.957 45.0609 80.4814 45.6236 81.5302 45.6236C82.0258 45.6367 82.5064 45.4527 82.8667 45.112C83.2531 44.7154 83.5058 44.2078 83.5893 43.6604H82.3999C82.0673 43.6604 81.9011 43.5069 81.9011 43.2C81.8979 43.1681 81.8979 43.136 81.9011 43.1041C81.9011 43.1041 81.9011 43.0209 81.9011 42.925L82.1185 41.8698C82.1348 41.6742 82.2238 41.4917 82.3679 41.3583C82.552 41.2527 82.7639 41.2058 82.9754 41.224H86.0577C86.435 41.224 86.6205 41.3646 86.6205 41.646C86.6354 41.7733 86.6396 41.9017 86.6333 42.0297Z" fill="white"/>
<path d="M98.4825 42.0297L98.1244 43.7179C97.9233 44.9386 97.3308 46.0608 96.4362 46.9154C95.5523 47.6835 94.4089 48.086 93.2387 48.0409C92.1043 48.1091 90.9863 47.7433 90.1116 47.0177C89.7228 46.6544 89.4186 46.21 89.2208 45.716C89.023 45.222 88.9363 44.6904 88.967 44.1592C88.9676 43.9455 88.9804 43.7319 89.0053 43.5197C89.0257 43.3045 89.0598 43.0909 89.1076 42.8802L89.632 40.3222C90.3312 37.0054 92.1388 35.3449 95.0549 35.3406C96.0615 35.288 97.0527 35.604 97.8431 36.2295C98.185 36.5211 98.4555 36.8871 98.634 37.2994C98.8125 37.7118 98.8941 38.1596 98.8726 38.6084V38.8194C98.8729 38.8973 98.8621 38.9748 98.8407 39.0497C98.7959 39.3886 98.5529 39.5612 98.1053 39.5612H96.7623C96.3403 39.5612 96.1228 39.3822 96.1228 39.0305C96.1351 38.8509 96.1071 38.6709 96.0409 38.5036C95.9747 38.3363 95.872 38.1859 95.7402 38.0633C95.6085 37.9407 95.451 37.8491 95.2793 37.7952C95.1077 37.7413 94.9261 37.7263 94.7479 37.7515C93.5969 37.7515 92.8465 38.6041 92.4969 40.3094L91.9342 42.9697C91.8958 43.136 91.8702 43.3086 91.8447 43.4685C91.8358 43.6261 91.8358 43.7841 91.8447 43.9417C91.8447 45.0672 92.369 45.63 93.4114 45.63C93.9091 45.644 94.3921 45.46 94.7543 45.1184C95.1387 44.7203 95.391 44.2134 95.477 43.6668H94.2811C93.955 43.6668 93.7887 43.5133 93.7887 43.2063C93.7855 43.1744 93.7855 43.1423 93.7887 43.1104C93.7887 43.1104 93.7887 43.0273 93.7887 42.9314L94.0125 41.8762C94.0289 41.6805 94.1178 41.498 94.2619 41.3646C94.4436 41.2588 94.6536 41.2118 94.863 41.2303H97.9518C98.3227 41.2303 98.5145 41.371 98.5145 41.6524C98.5142 41.7788 98.5035 41.905 98.4825 42.0297Z" fill="white"/>
<path d="M103.525 35.6221H109.664C110.041 35.6221 110.227 35.7692 110.227 36.0634C110.227 36.1081 110.227 36.1593 110.227 36.2041C110.227 36.2488 110.227 36.3 110.227 36.3575L109.99 37.3296C109.969 37.5492 109.885 37.7581 109.747 37.9307C109.59 38.0445 109.397 38.0969 109.204 38.0778H105.028L104.548 40.3224H108.251C108.622 40.3224 108.814 40.4694 108.814 40.7636C108.817 40.8083 108.817 40.8532 108.814 40.8979C108.814 40.9491 108.814 41.0002 108.814 41.0578L108.628 41.9594C108.609 42.1784 108.526 42.3871 108.392 42.5606C108.234 42.6777 108.037 42.7303 107.842 42.7077H104.094L103.531 45.2976H107.842C108.219 45.2976 108.404 45.4511 108.404 45.7452C108.407 45.7899 108.407 45.8348 108.404 45.8795C108.404 45.9243 108.404 45.9754 108.404 46.033L108.2 47.005C108.186 47.2392 108.099 47.4632 107.95 47.6445C107.794 47.7536 107.603 47.8034 107.413 47.7852H100.954C100.59 47.7852 100.411 47.6381 100.411 47.3439C100.405 47.2865 100.405 47.2287 100.411 47.1713C100.411 47.0945 100.411 47.0114 100.449 46.9155L102.7 36.2936C102.722 36.0964 102.813 35.9131 102.956 35.7756C103.128 35.6733 103.325 35.6202 103.525 35.6221Z" fill="white"/>
<path d="M112.993 47.7594H111.631C111.267 47.7594 111.081 47.6123 111.081 47.3182C111.077 47.2564 111.077 47.1945 111.081 47.1327C111.081 47.0496 111.081 46.9728 111.126 46.8897L113.377 36.2678C113.399 36.0706 113.49 35.8874 113.633 35.7498C113.828 35.6431 114.051 35.5985 114.272 35.6219H117.47C118.474 35.5674 119.465 35.8736 120.264 36.4852C120.6 36.7748 120.864 37.1376 121.037 37.5456C121.21 37.9537 121.287 38.3961 121.262 38.8386C121.271 38.9706 121.271 39.103 121.262 39.235C121.262 39.3757 121.224 39.5356 121.204 39.7083L121.153 39.9768C121.07 40.6797 120.799 41.3473 120.369 41.9097C119.939 42.4722 119.367 42.9089 118.71 43.1743L120.079 47.1327C120.099 47.1924 120.11 47.255 120.111 47.3182C120.111 47.6251 119.893 47.7786 119.471 47.7786H117.885C117.701 47.7945 117.516 47.7544 117.355 47.6635C117.216 47.5152 117.121 47.3315 117.08 47.1327L115.973 43.5708H114.643L113.895 47.1327C113.883 47.3313 113.793 47.5173 113.646 47.6507C113.445 47.755 113.217 47.7931 112.993 47.7594ZM115.788 37.9944L115.11 41.1919H116.504C116.724 41.2187 116.947 41.2018 117.16 41.1424C117.373 41.0829 117.572 40.982 117.746 40.8453C117.92 40.7087 118.066 40.5391 118.174 40.3461C118.282 40.1532 118.352 39.9408 118.378 39.721L118.416 39.5356C118.416 39.4589 118.416 39.3885 118.416 39.331C118.42 39.2564 118.42 39.1817 118.416 39.1071C118.416 38.3461 117.962 37.9688 117.054 37.9688L115.788 37.9944Z" fill="white"/>
</g>
<defs>
<clipPath id="clip0_4050_3623">
<rect width="176.569" height="48" fill="white" transform="translate(0 0.0344238)"/>
</clipPath>
</defs>
</svg>
