<svg width="165" height="40" viewBox="0 0 165 40" fill="none" xmlns="http://www.w3.org/2000/svg">
<rect x="1" y="1" width="163" height="38" rx="7" fill="url(#paint0_linear_2217_382)"/>
<rect x="1" y="1" width="163" height="38" rx="7" stroke="url(#paint1_linear_2217_382)" stroke-width="2"/>
<g filter="url(#filter0_d_2217_382)">
<path d="M32.3317 15.5523L38.067 16.0918C40.0626 16.2795 40.6746 18.1909 39.1336 19.4467L34.6435 23.1057L36.3104 29.0666C36.8578 31.0242 35.1595 32.2092 33.4584 31.0311L28.0026 27.2525L22.5468 31.0311C20.8527 32.2045 19.1474 31.0245 19.6949 29.0666L21.3618 23.1057L16.8716 19.4467C15.3242 18.1857 15.9338 16.2804 17.938 16.0918L23.6722 15.5523L26.1986 9.84104C26.9898 8.05251 29.016 8.0534 29.8065 9.84123L32.3317 15.5523Z" fill="#FEF6E1"/>
</g>
<g filter="url(#filter1_d_2217_382)">
<path d="M51.6992 28.5V11.3203H56.8906L60.0078 23.0391L63.0898 11.3203H68.293V28.5H65.0703V14.9766L61.6602 28.5H58.3203L54.9219 14.9766V28.5H51.6992ZM71.7148 14.3672V11.3203H75.0078V14.3672H71.7148ZM71.7148 28.5V16.0547H75.0078V28.5H71.7148ZM89.7148 28.5H86.4219V22.1484C86.4219 20.8047 86.3516 19.9375 86.2109 19.5469C86.0703 19.1484 85.8398 18.8398 85.5195 18.6211C85.207 18.4023 84.8281 18.293 84.3828 18.293C83.8125 18.293 83.3008 18.4492 82.8477 18.7617C82.3945 19.0742 82.082 19.4883 81.9102 20.0039C81.7461 20.5195 81.6641 21.4727 81.6641 22.8633V28.5H78.3711V16.0547H81.4297V17.8828C82.5156 16.4766 83.8828 15.7734 85.5312 15.7734C86.2578 15.7734 86.9219 15.9062 87.5234 16.1719C88.125 16.4297 88.5781 16.7617 88.8828 17.168C89.1953 17.5742 89.4102 18.0352 89.5273 18.5508C89.6523 19.0664 89.7148 19.8047 89.7148 20.7656V28.5ZM100.273 24.5391L103.555 25.0898C103.133 26.293 102.465 27.2109 101.551 27.8438C100.645 28.4688 99.5078 28.7812 98.1406 28.7812C95.9766 28.7812 94.375 28.0742 93.3359 26.6602C92.5156 25.5273 92.1055 24.0977 92.1055 22.3711C92.1055 20.3086 92.6445 18.6953 93.7227 17.5312C94.8008 16.3594 96.1641 15.7734 97.8125 15.7734C99.6641 15.7734 101.125 16.3867 102.195 17.6133C103.266 18.832 103.777 20.7031 103.73 23.2266H95.4805C95.5039 24.2031 95.7695 24.9648 96.2773 25.5117C96.7852 26.0508 97.418 26.3203 98.1758 26.3203C98.6914 26.3203 99.125 26.1797 99.4766 25.8984C99.8281 25.6172 100.094 25.1641 100.273 24.5391ZM100.461 21.2109C100.438 20.2578 100.191 19.5352 99.7227 19.043C99.2539 18.543 98.6836 18.293 98.0117 18.293C97.293 18.293 96.6992 18.5547 96.2305 19.0781C95.7617 19.6016 95.5312 20.3125 95.5391 21.2109H100.461ZM105.266 24.9492L108.57 24.4453C108.711 25.0859 108.996 25.5742 109.426 25.9102C109.855 26.2383 110.457 26.4023 111.23 26.4023C112.082 26.4023 112.723 26.2461 113.152 25.9336C113.441 25.7148 113.586 25.4219 113.586 25.0547C113.586 24.8047 113.508 24.5977 113.352 24.4336C113.188 24.2773 112.82 24.1328 112.25 24C109.594 23.4141 107.91 22.8789 107.199 22.3945C106.215 21.7227 105.723 20.7891 105.723 19.5938C105.723 18.5156 106.148 17.6094 107 16.875C107.852 16.1406 109.172 15.7734 110.961 15.7734C112.664 15.7734 113.93 16.0508 114.758 16.6055C115.586 17.1602 116.156 17.9805 116.469 19.0664L113.363 19.6406C113.23 19.1562 112.977 18.7852 112.602 18.5273C112.234 18.2695 111.707 18.1406 111.02 18.1406C110.152 18.1406 109.531 18.2617 109.156 18.5039C108.906 18.6758 108.781 18.8984 108.781 19.1719C108.781 19.4062 108.891 19.6055 109.109 19.7695C109.406 19.9883 110.43 20.2969 112.18 20.6953C113.938 21.0938 115.164 21.582 115.859 22.1602C116.547 22.7461 116.891 23.5625 116.891 24.6094C116.891 25.75 116.414 26.7305 115.461 27.5508C114.508 28.3711 113.098 28.7812 111.23 28.7812C109.535 28.7812 108.191 28.4375 107.199 27.75C106.215 27.0625 105.57 26.1289 105.266 24.9492Z" fill="white"/>
</g>
<g filter="url(#filter2_d_2217_382)">
<g clip-path="url(#clip0_2217_382)">
<g clip-path="url(#clip1_2217_382)">
<path d="M139 30C144.523 30 149 25.5228 149 20C149 14.4772 144.523 10 139 10C133.477 10 129 14.4772 129 20C129 25.5228 133.477 30 139 30Z" fill="#F0F0F0"/>
<path d="M129 20C129 23.7904 131.109 27.0881 134.217 28.7841V11.2159C131.109 12.912 129 16.2096 129 20Z" fill="#F0F0F0"/>
<path d="M139 10C137.268 10 135.638 10.4407 134.217 11.2159V28.7841C135.638 29.5593 137.268 30 139 30C144.523 30 149 25.5228 149 20C149 14.4772 144.523 10 139 10Z" fill="#496E2D"/>
<path d="M143.276 21.6538C142.01 22.5679 140.244 22.2834 139.33 21.0183C138.416 19.7531 138.7 17.9865 139.965 17.0725C140.36 16.7875 140.803 16.619 141.254 16.5604C140.386 16.4307 139.469 16.6262 138.702 17.1804C137.145 18.3055 136.795 20.4798 137.92 22.0369C139.045 23.5939 141.219 23.9442 142.776 22.819C143.544 22.2648 144.017 21.4557 144.166 20.5913C143.969 21.0009 143.67 21.3688 143.276 21.6538Z" fill="#F0F0F0"/>
<path d="M143.221 16.5219L143.934 17.2899L144.885 16.8495L144.374 17.7645L145.087 18.5326L144.059 18.3301L143.549 19.2452L143.424 18.2049L142.396 18.0024L143.346 17.5621L143.221 16.5219Z" fill="#F0F0F0"/>
</g>
</g>
<rect x="128" y="9" width="22" height="22" rx="11" stroke="#FEF6E1" stroke-width="2" shape-rendering="crispEdges"/>
</g>
<defs>
<filter id="filter0_d_2217_382" x="14" y="8.5" width="28" height="27" filterUnits="userSpaceOnUse" color-interpolation-filters="sRGB">
<feFlood flood-opacity="0" result="BackgroundImageFix"/>
<feColorMatrix in="SourceAlpha" type="matrix" values="0 0 0 0 0 0 0 0 0 0 0 0 0 0 0 0 0 0 127 0" result="hardAlpha"/>
<feOffset dy="2"/>
<feGaussianBlur stdDeviation="1"/>
<feComposite in2="hardAlpha" operator="out"/>
<feColorMatrix type="matrix" values="0 0 0 0 0.886275 0 0 0 0 0.415686 0 0 0 0 0.117647 0 0 0 1 0"/>
<feBlend mode="normal" in2="BackgroundImageFix" result="effect1_dropShadow_2217_382"/>
<feBlend mode="normal" in="SourceGraphic" in2="effect1_dropShadow_2217_382" result="shape"/>
</filter>
<filter id="filter1_d_2217_382" x="49.6992" y="11.3203" width="69.1914" height="21.4609" filterUnits="userSpaceOnUse" color-interpolation-filters="sRGB">
<feFlood flood-opacity="0" result="BackgroundImageFix"/>
<feColorMatrix in="SourceAlpha" type="matrix" values="0 0 0 0 0 0 0 0 0 0 0 0 0 0 0 0 0 0 127 0" result="hardAlpha"/>
<feOffset dy="2"/>
<feGaussianBlur stdDeviation="1"/>
<feComposite in2="hardAlpha" operator="out"/>
<feColorMatrix type="matrix" values="0 0 0 0 0.886275 0 0 0 0 0.415686 0 0 0 0 0.117647 0 0 0 1 0"/>
<feBlend mode="normal" in2="BackgroundImageFix" result="effect1_dropShadow_2217_382"/>
<feBlend mode="normal" in="SourceGraphic" in2="effect1_dropShadow_2217_382" result="shape"/>
</filter>
<filter id="filter2_d_2217_382" x="125" y="8" width="28" height="28" filterUnits="userSpaceOnUse" color-interpolation-filters="sRGB">
<feFlood flood-opacity="0" result="BackgroundImageFix"/>
<feColorMatrix in="SourceAlpha" type="matrix" values="0 0 0 0 0 0 0 0 0 0 0 0 0 0 0 0 0 0 127 0" result="hardAlpha"/>
<feOffset dy="2"/>
<feGaussianBlur stdDeviation="1"/>
<feComposite in2="hardAlpha" operator="out"/>
<feColorMatrix type="matrix" values="0 0 0 0 0.886275 0 0 0 0 0.415686 0 0 0 0 0.117647 0 0 0 1 0"/>
<feBlend mode="normal" in2="BackgroundImageFix" result="effect1_dropShadow_2217_382"/>
<feBlend mode="normal" in="SourceGraphic" in2="effect1_dropShadow_2217_382" result="shape"/>
</filter>
<linearGradient id="paint0_linear_2217_382" x1="0" y1="0" x2="39.8714" y2="93.4102" gradientUnits="userSpaceOnUse">
<stop stop-color="#F7A915"/>
<stop offset="1" stop-color="#F27012"/>
</linearGradient>
<linearGradient id="paint1_linear_2217_382" x1="82.5" y1="0" x2="82.5" y2="40" gradientUnits="userSpaceOnUse">
<stop stop-color="#ED9412"/>
<stop offset="1" stop-color="#B4450B"/>
</linearGradient>
<clipPath id="clip0_2217_382">
<rect x="129" y="10" width="20" height="20" rx="10" fill="white"/>
</clipPath>
<clipPath id="clip1_2217_382">
<rect width="20" height="20" fill="white" transform="translate(129 10)"/>
</clipPath>
</defs>
</svg>
