<svg width="226" height="41" viewBox="0 0 226 41" fill="none" xmlns="http://www.w3.org/2000/svg">
<path d="M32.0815 13.7747C32.0815 15.1559 31.9576 16.4131 31.7097 17.5463C31.4795 18.6619 31.1077 19.6889 30.5942 20.6273C30.0807 21.5658 29.4166 22.4334 28.6021 23.2303C27.7876 24.0271 26.8049 24.7885 25.6539 25.5144L31.9753 36.7761L20.0231 39.1134L15.9328 27.7986L12.6393 27.9049L12.1612 38.954H0.740234C0.828769 34.9168 0.90845 30.8974 0.979278 26.8956C1.06781 22.8938 1.1652 18.8743 1.27144 14.8372C1.30686 12.8009 1.34227 10.7823 1.37768 8.78138C1.4131 6.78049 1.48393 4.7619 1.59017 2.7256C2.82965 2.26522 4.05143 1.88452 5.25551 1.5835C6.45958 1.28249 7.66365 1.0523 8.86772 0.892933C10.0895 0.715864 11.3201 0.600769 12.5596 0.547648C13.8168 0.47682 15.1006 0.441406 16.4109 0.441406C18.4295 0.441406 20.3772 0.724717 22.2542 1.29134C24.1488 1.84026 25.8221 2.67248 27.2741 3.78802C28.7261 4.90356 29.8859 6.29355 30.7535 7.95801C31.6389 9.62246 32.0815 11.5614 32.0815 13.7747ZM20.1825 14.6247C20.1825 13.881 20.0762 13.1993 19.8637 12.5795C19.669 11.9598 19.3679 11.4286 18.9607 10.9859C18.5711 10.5255 18.0753 10.1714 17.4733 9.92348C16.889 9.65787 16.1984 9.52507 15.4016 9.52507C15.0475 9.52507 14.7022 9.55163 14.3657 9.60475C14.0293 9.64017 13.7017 9.70214 13.383 9.79068L12.958 19.6712H13.5955C14.3569 19.6712 15.1271 19.5738 15.9062 19.379C16.7031 19.1842 17.4113 18.8832 18.0311 18.4759C18.6685 18.0687 19.182 17.5463 19.5716 16.9089C19.9788 16.2714 20.1825 15.51 20.1825 14.6247Z" fill="#F6FF00"/>
<path d="M44.2197 33.9075C44.2197 34.6866 44.0691 35.4126 43.7681 36.0855C43.4671 36.7584 43.0598 37.3515 42.5463 37.865C42.0505 38.3608 41.4662 38.7592 40.7934 39.0603C40.1205 39.3436 39.4034 39.4852 38.642 39.4852C37.8629 39.4852 37.1369 39.3436 36.464 39.0603C35.7911 38.7592 35.198 38.3608 34.6845 37.865C34.1887 37.3515 33.7903 36.7584 33.4892 36.0855C33.2059 35.4126 33.0643 34.6866 33.0643 33.9075C33.0643 33.1461 33.2059 32.4202 33.4892 31.7296C33.7903 31.039 34.1887 30.4458 34.6845 29.95C35.198 29.4365 35.7911 29.0293 36.464 28.7283C37.1369 28.4272 37.8629 28.2767 38.642 28.2767C39.4034 28.2767 40.1205 28.4272 40.7934 28.7283C41.4662 29.0293 42.0505 29.4365 42.5463 29.95C43.0598 30.4458 43.4671 31.039 43.7681 31.7296C44.0691 32.4202 44.2197 33.1461 44.2197 33.9075Z" fill="#F6FF00"/>
<path d="M60.3418 1.98191L57.4202 38.1572L46.2117 38.7415V2.7256L60.3418 1.98191Z" fill="#F6FF00"/>
<path d="M72.4799 33.9075C72.4799 34.6866 72.3294 35.4126 72.0284 36.0855C71.7274 36.7584 71.3201 37.3515 70.8066 37.865C70.3108 38.3608 69.7265 38.7592 69.0536 39.0603C68.3808 39.3436 67.6637 39.4852 66.9023 39.4852C66.1231 39.4852 65.3972 39.3436 64.7243 39.0603C64.0514 38.7592 63.4583 38.3608 62.9448 37.865C62.449 37.3515 62.0506 36.7584 61.7495 36.0855C61.4662 35.4126 61.3246 34.6866 61.3246 33.9075C61.3246 33.1461 61.4662 32.4202 61.7495 31.7296C62.0506 31.039 62.449 30.4458 62.9448 29.95C63.4583 29.4365 64.0514 29.0293 64.7243 28.7283C65.3972 28.4272 66.1231 28.2767 66.9023 28.2767C67.6637 28.2767 68.3808 28.4272 69.0536 28.7283C69.7265 29.0293 70.3108 29.4365 70.8066 29.95C71.3201 30.4458 71.7274 31.039 72.0284 31.7296C72.3294 32.4202 72.4799 33.1461 72.4799 33.9075Z" fill="#F6FF00"/>
<path d="M105.202 13.8279C105.202 15.5454 104.946 17.0682 104.432 18.3963C103.919 19.7243 103.21 20.8841 102.307 21.8757C101.422 22.8673 100.377 23.7083 99.1732 24.3989C97.9691 25.0895 96.6765 25.6561 95.2954 26.0988C93.9319 26.5237 92.5154 26.8425 91.0457 27.055C89.576 27.2497 88.1329 27.356 86.7163 27.3737V39.7508H74.3392C74.3392 35.6959 74.348 31.6588 74.3657 27.6393C74.3834 23.6198 74.41 19.5649 74.4454 15.4746C74.4808 13.3144 74.4897 11.1541 74.472 8.99386C74.4543 6.83362 74.4985 4.65566 74.6048 2.46C76.8713 1.78713 79.1378 1.28249 81.4042 0.946054C83.6707 0.609622 86.0081 0.441406 88.4162 0.441406C89.7796 0.441406 91.1431 0.556501 92.5065 0.786692C93.8699 0.999175 95.1714 1.34446 96.4109 1.82255C97.6681 2.30064 98.8279 2.90267 99.8903 3.62866C100.97 4.33694 101.9 5.18687 102.679 6.17846C103.458 7.17005 104.069 8.30329 104.512 9.57819C104.972 10.8354 105.202 12.2519 105.202 13.8279ZM93.4096 14.7309C93.4096 13.58 93.0554 12.6858 92.3471 12.0483C91.6566 11.3932 90.7535 11.0656 89.638 11.0656C89.2661 11.0656 88.8766 11.101 88.4693 11.1718C88.0798 11.2249 87.7079 11.2958 87.3538 11.3843L87.0351 19.1399C87.283 19.1754 87.522 19.1931 87.7522 19.1931C87.9824 19.1931 88.2214 19.1931 88.4693 19.1931C89.1068 19.1931 89.7177 19.0868 90.302 18.8743C90.904 18.6619 91.4352 18.3608 91.8956 17.9713C92.356 17.564 92.719 17.0948 92.9846 16.5636C93.2679 16.0147 93.4096 15.4038 93.4096 14.7309Z" fill="#F6FF00"/>
<path d="M143.609 2.03503L142.121 13.2435C141.608 13.1019 141.094 13.0045 140.581 12.9514C140.067 12.8982 139.554 12.8717 139.04 12.8717C137.73 12.8717 136.482 13.0488 135.295 13.4029C134.109 13.7393 133.055 14.2617 132.135 14.97C131.232 15.6782 130.506 16.5636 129.957 17.626C129.425 18.6884 129.16 19.9368 129.16 21.371C129.16 22.2918 129.302 23.0886 129.585 23.7615C129.886 24.4343 130.302 24.9921 130.833 25.4348C131.364 25.8774 131.993 26.205 132.719 26.4175C133.445 26.63 134.242 26.7362 135.109 26.7362C135.765 26.7362 136.446 26.6654 137.155 26.5237C137.863 26.3821 138.562 26.1962 139.253 25.966C139.943 25.7358 140.616 25.4702 141.271 25.1692C141.927 24.8681 142.529 24.5583 143.078 24.2395L142.015 36.7229C141.325 37.0771 140.572 37.3958 139.758 37.6791C138.961 37.9447 138.137 38.1838 137.287 38.3963C136.437 38.591 135.588 38.7415 134.738 38.8478C133.888 38.954 133.073 39.0071 132.294 39.0071C130.045 39.0071 127.947 38.591 125.999 37.7588C124.051 36.9266 122.36 35.7845 120.926 34.3325C119.492 32.8805 118.359 31.1718 117.526 29.2063C116.712 27.2232 116.305 25.0895 116.305 22.8053C116.305 19.7774 116.738 16.9266 117.606 14.2528C118.474 11.5614 119.749 9.20635 121.431 7.18775C123.113 5.16916 125.194 3.57554 127.673 2.40688C130.169 1.23822 133.038 0.65389 136.278 0.65389C137.5 0.65389 138.748 0.751278 140.023 0.946054C141.316 1.14083 142.511 1.50382 143.609 2.03503Z" fill="#F6FF00"/>
<path d="M159.625 1.98191L156.703 38.1572L145.495 38.7415V2.7256L159.625 1.98191Z" fill="#F6FF00"/>
<path d="M189.558 1.39758L189.293 12.6592L181.378 12.9779L179.359 38.1572L168.151 38.7415L168.204 13.5623L160.289 13.9872L160.607 1.4507L189.558 1.39758Z" fill="#F6FF00"/>
<path d="M225.149 3.41617L210.541 23.8146L209.85 40.4414H197.261L197.58 23.9208L189.983 4.21299L203.529 2.51312L205.654 13.9872L212.4 2.51312L225.149 3.41617Z" fill="#F6FF00"/>
</svg>
