<?xml version="1.0" encoding="UTF-8"?>
<svg id="Layer_1" data-name="Layer 1" xmlns="http://www.w3.org/2000/svg" viewBox="0 0 512 512">
  <defs>
    <style>
      .cls-1 {
        fill: #fff;
      }

      .cls-2 {
        fill: #007a3d;
      }
    </style>
  </defs>
  <circle class="cls-2" cx="256" cy="256" r="256"/>
  <path class="cls-1" d="M445.38,231.16c-4.66,5.01-11.01,9.98-19.05,14.9-8.03,4.92-18.01,9.42-29.93,13.48-11.92,4.06-25.79,7.47-41.59,10.24-15.81,2.76-33.82,4.49-54.03,5.18-1.9,5.36-3.84,11.1-5.83,17.23-1.99,6.13-3.93,12.83-5.83,20.08h-1.3c-.86-.86-1.6-1.94-2.2-3.24-.6-1.3-1.17-3.15-1.68-5.57.86-4.84,1.81-9.59,2.85-14.25,1.04-4.66,2.16-9.42,3.37-14.25-8.81,0-17.1-1.12-24.88-3.37-.52,33.52-8.55,64.27-24.1,92.26-16.93,30.58-52.26,45.87-105.99,45.87-21.6,0-39.22-6.31-52.87-18.92-13.82-12.78-20.73-28.77-20.73-47.94,0-20.21,9.5-45,28.51-74.37l4.92,1.81c-12.78,23.67-19.18,42.76-19.18,57.27,0,7.6,1.86,14.38,5.57,20.34,3.71,5.96,8.98,11.06,15.81,15.29,6.82,4.23,15.2,7.47,25.14,9.72,9.93,2.25,21.12,3.37,33.56,3.37,19,0,36.63-3.28,52.87-9.85,16.24-6.39,27.3-14.6,33.17-24.62,5.36-9.67,8.03-23.93,8.03-42.76,0-10.19-1.6-20.34-4.79-30.45-3.2-10.11-7.56-19.05-13.09-26.82l14.25-30.58c2.94,4.15,5.7,8.68,8.29,13.61,2.59,4.92,4.58,9.11,5.96,12.57,5.01,2.25,10.02,3.8,15.03,4.66,5.01.86,10.28,1.3,15.81,1.3,1.9,0,3.89,0,5.96,0,2.07,0,4.23-.17,6.48-.52,9.5-15.72,19.74-30.06,30.71-43.02,10.97-12.96,22.42-24.27,34.34-33.95,10.19-8.29,20.04-14.77,29.54-19.44,9.5-4.66,17.28-7,23.32-7,6.22,0,12.18,1.17,17.88,3.5,5.7,2.33,10.75,5.18,15.16,8.55,4.41,3.37,7.9,6.91,10.5,10.62,2.59,3.71,3.89,7.04,3.89,9.98,0,7.08-.69,13.56-2.07,19.44-1.38,5.87-3.2,11.19-5.44,15.94-2.25,4.75-4.79,9.07-7.64,12.96-2.85,3.89-5.74,7.47-8.68,10.75ZM412.47,173.89c-4.84,0-10.93,1.56-18.27,4.66-7.34,3.11-15.29,7.56-23.84,13.35-8.55,5.79-17.32,12.96-26.3,21.51-8.98,8.55-17.54,18.27-25.66,29.15,2.94,0,5.74-.09,8.42-.26,2.68-.17,5.83-.43,9.46-.78,12.44-.86,24.66-2.72,36.67-5.57,12.01-2.85,24.92-6.95,38.74-12.31,10.88-4.15,19.69-8.51,26.43-13.09,6.74-4.58,11.06-8.42,12.96-11.53-2.07-2.94-4.58-5.92-7.52-8.94-2.94-3.02-6.13-5.74-9.59-8.16-3.46-2.42-7.04-4.36-10.75-5.83-3.71-1.47-7.3-2.2-10.75-2.2h0ZM366.08,87.59l-18.4,27.21-24.62-20.73,18.14-26.69,24.88,20.21Z"/>
</svg>