<?xml version="1.0" encoding="UTF-8"?>
<svg id="Layer_1" data-name="Layer 1" xmlns="http://www.w3.org/2000/svg" viewBox="0 0 512 512">
  <defs>
    <style>
      .cls-1 {
        fill: #ffda44;
      }

      .cls-2 {
        fill: #f0f0f0;
      }

      .cls-3 {
        fill: #d80027;
      }
    </style>
  </defs>
  <g>
    <g>
      <path class="cls-2" d="M512,256c0,.95,0,1.89-.02,2.83v.2c-.01.94-.02,1.88-.05,2.82-.01.67-.03,1.34-.05,2.01-.01.07-.01.15-.01.22-.01.21-.01.43-.02.64-.02.7-.05,1.39-.08,2.09,0,.19,0,.39-.02.58-.01.1-.01.2-.01.29-.01.24-.02.48-.04.72,0,.09-.01.17-.01.26-.02.42-.05.85-.07,1.27-.03.49-.05.98-.08,1.47,0,.23-.03.46-.04.69-.02.25-.03.5-.05.75,0,.05,0,.1-.01.15-.05.76-.1,1.52-.16,2.27-.02.27-.04.54-.06.81-.1,1.32-.21,2.64-.34,3.95v.06c-.09.91-.18,1.82-.28,2.72-.04.4-.08.79-.12,1.19,0,.02,0,.03-.01.05-.05.55-.11,1.1-.18,1.66,0,.09-.02.17-.03.26-.08.65-.16,1.3-.24,1.96-.05.38-.1.77-.15,1.15-.01.11-.02.21-.04.32-.08.6-.16,1.2-.24,1.79-.1.76-.21,1.51-.32,2.26-.14.94-.28,1.88-.43,2.82-.15.98-.32,1.96-.48,2.94-.47,2.76-.98,5.5-1.54,8.22-.94,4.61-2.01,9.18-3.19,13.7-1.43,5.43-3.03,10.78-4.79,16.06-.29.88-.59,1.76-.9,2.63-.3.88-.61,1.75-.92,2.62-.17.49-.35.98-.53,1.46-.14.38-.27.77-.42,1.15l-240.07,22.26-101.86-9.44,203.72-203.72,138.21,12.81c6.11,16.47,10.58,33.73,13.2,51.6.13.85.25,1.71.36,2.57.03.16.05.32.07.48.04.33.08.67.13,1.01v.03c.12.89.23,1.78.34,2.67.12,1.01.24,2.02.34,3.03.03.22.05.44.08.67.03.3.07.6.09.9.07.7.14,1.4.21,2.1.06.62.11,1.23.16,1.86.02.22.04.45.06.68.01.07.01.14.02.21.04.46.07.92.11,1.38,0,.05.01.11.01.16.06.84.13,1.7.18,2.55.06.85.11,1.71.16,2.57.03.56.06,1.13.09,1.7.01.07.01.15.01.22v.08c.04.73.08,1.47.1,2.2.01.16.01.32.02.48.01.11.01.21.01.32.01.27.02.54.03.81,0,.1.01.21.01.31.01.17.01.35.01.53.01.16.02.33.02.5.02.52.03,1.04.04,1.57.01.3.02.6.02.9.01.44.02.89.02,1.34.01.21.01.43.01.65.01.99.02,1.98.02,2.97Z"/>
      <g>
        <path class="cls-3" d="M496.07,345.04c-.02.07-.04.13-.07.2-1.67,4.47-3.45,8.88-5.35,13.23-.25.59-.51,1.17-.77,1.75-.22.49-.44.98-.66,1.46-.2.44-.4.87-.6,1.3-.16.36-.32.7-.49,1.05-.16.36-.33.72-.5,1.08-.45.96-.91,1.91-1.38,2.86s-.94,1.9-1.41,2.85c-.51,1.01-1.02,2.02-1.53,3.01,0,.02-.02.03-.03.05-.45.86-.9,1.72-1.36,2.58h0s-.03.06-.04.09c-.02.04-.04.08-.06.12-.58,1.08-1.17,2.15-1.76,3.22-.04.07-.08.14-.12.21-.81,1.45-1.62,2.89-2.45,4.32-.25.45-.51.89-.78,1.34-.09.15-.18.3-.27.45-.46.78-.92,1.55-1.39,2.31-.07.12-.14.23-.21.35-.53.88-1.07,1.76-1.62,2.63-.01,0-.01.01-.01.01,0,.01-.01.01-.01.02-.54.87-1.09,1.74-1.65,2.6-.1.17-.21.33-.32.5-.28.45-.57.89-.86,1.33-.17.26-.34.51-.51.77-.15.24-.31.48-.47.72-.09.14-.18.27-.27.4-.13.19-.25.38-.38.56-.66,1-1.33,1.98-2.01,2.97-.12.16-.23.33-.34.49-.69.99-1.38,1.97-2.09,2.95-.07.11-.14.21-.22.32-.32.45-.65.91-.99,1.36-.71.97-1.42,1.94-2.14,2.9-.33.46-.68.91-1.03,1.37-.27.36-.55.73-.84,1.09-.19.25-.38.51-.58.76-.48.62-.97,1.24-1.46,1.86-.4.51-.81,1.03-1.22,1.53-.99,1.25-2,2.49-3.03,3.71-.51.61-1.02,1.22-1.54,1.83-.21.25-.42.5-.64.75,0,0,0,0-.01,0-.11.14-.22.27-.33.4-.21.24-.42.49-.63.73-.06.06-.11.13-.16.19-.03.03-.05.06-.09.09-.63.73-1.27,1.47-1.92,2.19-.31.35-.62.7-.93,1.05-.54.59-1.07,1.18-1.61,1.77-.54.59-1.08,1.17-1.62,1.76-.23.24-.46.49-.69.74-.8.85-1.6,1.69-2.41,2.53-.62.64-1.23,1.27-1.86,1.9-.45.46-.89.9-1.34,1.35-.81.81-1.62,1.6-2.43,2.4-.44.43-.88.86-1.33,1.28-1.69,1.63-3.41,3.23-5.15,4.81-.85.78-1.72,1.56-2.59,2.32-.15.15-.31.28-.46.42-.88.77-1.76,1.53-2.64,2.29-.89.75-1.77,1.51-2.67,2.25-.87.73-1.74,1.45-2.63,2.16-.62.51-1.24,1.01-1.87,1.5-1.03.82-2.07,1.63-3.11,2.44-.09.07-.18.13-.27.2-.17.13-.33.27-.5.39-.6.46-1.2.91-1.8,1.36-.05.04-.11.08-.16.12-.59.44-1.17.88-1.76,1.31-.05.04-.09.08-.14.11-.61.45-1.22.9-1.84,1.34-.42.31-.84.61-1.26.9-.22.15-.43.31-.65.46-.34.25-.69.49-1.03.73-.28.2-.56.4-.85.59-.52.37-1.05.74-1.58,1.09-.03.03-.06.05-.08.06-.3.21-.6.41-.9.6-.5.35-.99.68-1.49,1.01-.58.38-1.16.77-1.74,1.15-.76.5-1.52.99-2.28,1.47-.44.29-.88.57-1.33.85-.08.05-.15.1-.23.14-.55.35-1.1.69-1.65,1.03-.3.19-.61.38-.92.57-.27.16-.53.33-.8.48-.88.55-1.77,1.08-2.66,1.6-.04.03-.08.06-.12.08-.07.04-.13.08-.2.12-.09.05-.19.11-.28.16-.69.41-1.39.81-2.08,1.21-.49.29-.98.56-1.47.84-.65.37-1.29.73-1.94,1.09-.64.36-1.28.71-1.93,1.06-.33.18-.65.36-.98.53-.39.21-.78.42-1.18.63-.31.17-.63.34-.94.5-.16.09-.32.17-.48.25-.27.15-.54.29-.81.43-.21.11-.41.21-.61.31-.52.27-1.05.54-1.57.8-.43.22-.86.44-1.3.66-.17.09-.35.17-.52.25-.63.32-1.25.63-1.89.93-.14.08-.29.15-.43.22-1.06.52-2.13,1.03-3.21,1.53-.73.34-1.47.68-2.2,1.01-.49.23-.98.45-1.47.67-.78.35-1.57.7-2.36,1.04-.2.09-.4.17-.6.26-1.14.49-2.28.98-3.42,1.45-.05.03-.1.05-.15.07-.33.14-.65.27-.98.4-.72.3-1.45.59-2.17.88-.76.3-1.51.6-2.27.89-.75.3-1.51.59-2.27.87-.19.07-.37.14-.56.21-1.4.53-2.8,1.04-4.21,1.54-.8.28-1.6.57-2.41.84-.61.21-1.22.42-1.83.62-.61.21-1.23.41-1.85.61-.81.27-1.62.52-2.43.78-1.31.41-2.64.82-3.96,1.21-.12.04-.23.08-.35.11-.72.22-1.44.43-2.17.63-.72.21-1.45.41-2.17.61-.95.27-1.9.53-2.85.78-.51.13-1.01.26-1.52.39-.55.14-1.1.28-1.65.42-.58.15-1.17.3-1.76.44-.45.11-.9.22-1.35.32-.77.18-1.53.36-2.3.53-.59.14-1.18.27-1.78.4l-1.11.24c-.37.08-.74.16-1.12.24-.74.16-1.49.31-2.23.46-.38.08-.75.15-1.13.23-.61.12-1.22.24-1.84.35-.5.1-1.01.19-1.52.28-.32.06-.64.12-.97.18-.67.12-1.35.24-2.03.35-.5.09-1.01.17-1.52.26-1.51.25-3.02.48-4.54.7-.18.03-.36.05-.54.08-.58.08-1.16.16-1.74.24-.23.04-.46.07-.7.09-.42.07-.83.12-1.25.17-.13.02-.26.04-.39.05-.05.01-.11.02-.16.02-.96.12-1.92.24-2.88.35-.18.02-.37.04-.55.06-.85.1-1.72.19-2.58.28-.09.01-.17.02-.26.03-.05.01-.09.01-.14.01-.42.05-.84.08-1.26.12-.44.05-.89.09-1.33.13-.56.05-1.11.1-1.66.14-.49.05-.97.09-1.45.12-.22.02-.45.03-.67.05-.94.08-1.88.14-2.82.2-.13.01-.25.02-.38.03h-.02c-.06,0-.12,0-.18,0-.86.06-1.73.1-2.6.15h-.05c-.13.01-.27.01-.4.02-.28.02-.55.03-.83.04-.64.04-1.28.06-1.93.09-.03,0-.06,0-.09,0-.16.01-.31.01-.46.02-.29.01-.58.02-.87.03-.1,0-.2.01-.31.01-.54.02-1.09.04-1.63.05-.5.02-1.01.03-1.51.04h-.05c-.14,0-.27,0-.41.01-.17,0-.35.01-.52.01-.15,0-.31,0-.46.01h-.52c-1.2.02-2.41.03-3.62.03s-2.44-.01-3.65-.03c-.43,0-.86-.01-1.28-.02h-.25c-.39-.01-.77-.02-1.16-.03-.38-.01-.77-.02-1.15-.03-.24,0-.48-.01-.72-.02-.17,0-.34,0-.51-.02-.97-.03-1.92-.07-2.88-.11-.06,0-.13,0-.19,0-.29-.01-.58-.02-.87-.04-.65-.03-1.31-.07-1.96-.1-.53-.03-1.05-.06-1.58-.1-.22,0-.43-.02-.64-.04-.43-.03-.86-.05-1.29-.09-.87-.05-1.75-.12-2.62-.19-.34-.03-.69-.06-1.03-.09-.92-.07-1.84-.16-2.76-.24-.08-.01-.16-.02-.24-.03-.11,0-.21-.02-.31-.03-.64-.06-1.28-.13-1.92-.19-.64-.07-1.28-.14-1.91-.21-1.13-.13-2.27-.27-3.39-.4-.1-.02-.19-.03-.29-.04-.13-.02-.25-.03-.38-.05-.07-.01-.14-.02-.21-.03-.38-.04-.76-.09-1.13-.15-.39-.04-.78-.09-1.16-.15-.83-.11-1.66-.23-2.48-.36-.71-.1-1.42-.21-2.12-.32-.64-.1-1.28-.2-1.92-.31-.88-.15-1.76-.3-2.64-.45-.07,0-.14-.03-.21-.04-3.31-.58-6.6-1.23-9.86-1.94-1-.22-1.99-.44-2.98-.67-.83-.19-1.65-.39-2.48-.59-1.15-.28-2.3-.56-3.44-.85-.95-.24-1.9-.49-2.84-.74-.2-.05-.39-.11-.59-.16-1.4-.38-2.81-.77-4.2-1.18-.39-.11-.79-.23-1.18-.34-.54-.16-1.07-.32-1.61-.48-.47-.14-.93-.29-1.39-.43-.56-.16-1.11-.33-1.66-.51-1.35-.43-2.7-.86-4.04-1.31-.34-.12-.68-.23-1.02-.34-.25-.08-.49-.17-.73-.25-.74-.25-1.47-.51-2.2-.77-.25-.09-.49-.17-.74-.26-.74-.26-1.48-.53-2.21-.8-.72-.26-1.43-.52-2.14-.79-.32-.12-.63-.24-.95-.36-.92-.35-1.84-.71-2.76-1.07-.88-.35-1.76-.7-2.63-1.05-.18-.08-.37-.15-.55-.23-.44-.17-.87-.35-1.3-.54-.43-.18-.86-.36-1.29-.54-1.01-.42-2.02-.86-3.02-1.3-.9-.39-1.8-.79-2.69-1.2-.95-.42-1.89-.86-2.83-1.3-.04-.01-.09-.03-.14-.06-1.74-.82-3.47-1.65-5.19-2.5-1.01-.5-2.02-1.01-3.03-1.53-.64-.33-1.28-.66-1.92-.99-.28-.14-.55-.29-.82-.43-.01,0-.01-.01-.01-.01-.92-.48-1.83-.97-2.73-1.46-.91-.49-1.81-.99-2.71-1.49-.88-.49-1.75-.98-2.61-1.49-.06-.02-.11-.05-.16-.09-1.51-.85-3-1.74-4.49-2.64-.43-.25-.85-.51-1.27-.77-.54-.33-1.07-.66-1.6-.99-.35-.21-.7-.43-1.04-.64-.64-.41-1.28-.81-1.91-1.22-.38-.24-.76-.48-1.14-.73-.88-.56-1.75-1.14-2.62-1.72-.44-.29-.88-.58-1.31-.87-.97-.65-1.93-1.31-2.88-1.97-.56-.39-1.12-.78-1.67-1.17-.26-.18-.51-.36-.76-.54-.07-.05-.14-.1-.21-.16-.03-.02-.07-.04-.1-.07-.18-.13-.36-.25-.54-.38-.03-.03-.06-.05-.09-.07-.31-.22-.63-.45-.94-.67-.98-.72-1.95-1.43-2.92-2.16-.14-.1-.27-.21-.41-.31-.22-.15-.45-.32-.67-.5,0,0-.01,0-.01-.01-.1-.07-.21-.15-.31-.23h-.01c-.49-.37-.98-.74-1.46-1.13-.5-.37-1.01-.76-1.51-1.16-.58-.45-1.17-.91-1.75-1.38-.08-.06-.16-.12-.24-.19-.04-.03-.09-.07-.13-.11-.54-.42-1.09-.86-1.62-1.3-.58-.46-1.16-.93-1.73-1.4-.29-.24-.58-.47-.86-.72-.72-.6-1.43-1.2-2.14-1.8-.15-.13-.29-.25-.43-.37-.33-.28-.66-.57-.99-.85-.09-.07-.18-.15-.27-.23-.77-.68-1.54-1.35-2.31-2.02-.73-.64-1.44-1.29-2.16-1.95-.33-.3-.65-.59-.97-.88-.3-.28-.61-.56-.91-.85-.54-.5-1.09-1.01-1.63-1.52-.58-.55-1.16-1.1-1.74-1.65-1.26-1.21-2.52-2.44-3.76-3.69l91.97-91.97h329.11Z"/>
        <path class="cls-3" d="M496.07,166.95h-151.02l12.81-12.81,79.15-79.15c.43.42.84.83,1.26,1.26.44.44.88.88,1.31,1.33.85.87,1.69,1.75,2.52,2.63.15.16.3.32.44.48.58.6,1.15,1.21,1.71,1.83.08.09.17.18.25.27.06.06.12.12.17.18.57.62,1.13,1.24,1.69,1.86.4.44.8.88,1.19,1.33.68.76,1.35,1.53,2.02,2.31.11.12.21.25.32.37.98,1.13,1.95,2.28,2.9,3.43.57.67,1.12,1.34,1.67,2.02.93,1.14,1.85,2.28,2.76,3.44.19.25.39.49.58.74.5.63.99,1.27,1.48,1.91.45.59.9,1.18,1.34,1.77.83,1.11,1.66,2.22,2.47,3.34.44.59.87,1.19,1.29,1.79.08.11.16.21.23.32h.01c.33.47.65.93.98,1.39.27.38.54.76.79,1.14.31.43.61.87.91,1.31.29.41.57.83.84,1.25.16.23.32.46.48.7.42.62.83,1.25,1.25,1.87.46.68.9,1.37,1.34,2.06.01.01.02.03.02.04.87,1.34,1.72,2.69,2.57,4.06.21.34.42.67.62,1.01.63,1.03,1.25,2.06,1.87,3.1.08.13.16.25.23.38.19.33.39.66.59,1,.11.19.22.38.33.57.04.08.09.15.13.23.15.25.3.51.44.77.32.54.63,1.08.93,1.62.03.04.05.08.07.12.69,1.22,1.37,2.45,2.04,3.68.02.03.04.05.05.08.04.06.07.13.1.19.04.06.07.13.1.19.3.55.6,1.1.89,1.66,1.13,2.13,2.23,4.28,3.31,6.45.15.29.29.58.43.88.27.55.54,1.1.8,1.66.05.09.1.18.14.28.2.4.39.8.58,1.21.21.44.42.89.62,1.34.25.53.5,1.05.74,1.58.28.6.55,1.2.82,1.8.2.45.4.89.59,1.34.2.43.39.87.58,1.31.03.06.06.13.09.2.23.53.45,1.06.68,1.59.11.25.22.51.32.76.21.49.42.98.62,1.47.31.75.62,1.5.92,2.25.91,2.26,1.79,4.53,2.64,6.81Z"/>
      </g>
    </g>
    <g>
      <path class="cls-1" d="M182.38,329.62l-107.39,107.39c-.13-.12-.25-.24-.37-.36-1.05-1.05-2.09-2.12-3.12-3.19l-.21-.21c-.57-.6-1.13-1.2-1.7-1.8-.39-.41-.78-.83-1.17-1.25-.43-.46-.85-.92-1.28-1.38-.25-.27-.5-.54-.74-.81-.11-.12-.21-.24-.32-.36-.39-.43-.77-.86-1.16-1.29-.04-.04-.08-.09-.12-.13-.53-.6-1.06-1.19-1.58-1.79-.26-.29-.51-.58-.75-.87h-.01s-.02-.03-.03-.04c-.21-.25-.42-.49-.63-.73-.28-.33-.57-.66-.85-1-.59-.69-1.16-1.38-1.74-2.07-.39-.46-.77-.92-1.15-1.38-.71-.87-1.42-1.74-2.12-2.62-.18-.23-.36-.46-.54-.69-.64-.79-1.27-1.6-1.89-2.41-.1-.12-.19-.25-.29-.37-.71-.92-1.4-1.84-2.1-2.76-.04-.05-.08-.1-.12-.15-.22-.3-.45-.6-.67-.91-.4-.54-.8-1.08-1.19-1.62-1.07-1.45-2.11-2.91-3.14-4.38-.12-.18-.25-.37-.37-.55-.01-.01-.02-.01-.02-.02-.14-.19-.28-.39-.42-.6-.6-.87-1.19-1.74-1.78-2.62-.4-.59-.8-1.19-1.19-1.78-.07-.11-.14-.21-.21-.32-.41-.62-.81-1.24-1.22-1.87-.01-.01-.02-.03-.02-.04-1.72-2.65-3.38-5.34-5-8.07-.45-.76-.9-1.52-1.34-2.28-.03-.05-.06-.1-.09-.15-.12-.2-.24-.41-.35-.62-.32-.54-.63-1.08-.93-1.62-.03-.04-.05-.08-.07-.12-.29-.52-.59-1.04-.88-1.57-.06-.11-.12-.21-.18-.32-.11-.21-.23-.43-.36-.65-.29-.53-.59-1.06-.87-1.6-1.44-2.67-2.84-5.38-4.2-8.11-.21-.44-.43-.88-.65-1.32-.19-.41-.39-.81-.58-1.22-.07-.12-.13-.25-.19-.37-.04-.06-.07-.12-.09-.19-.03-.06-.06-.13-.09-.19-.11-.24-.23-.49-.35-.74-.21-.44-.42-.89-.62-1.34-.25-.53-.5-1.05-.74-1.58-.28-.6-.55-1.2-.82-1.8-.13-.29-.26-.58-.39-.87-.12-.25-.23-.51-.34-.77-.15-.33-.29-.67-.44-1.01-.03-.06-.06-.13-.09-.2-.22-.5-.43-1-.64-1.51-.13-.28-.24-.56-.36-.84-.21-.49-.42-.98-.62-1.47-1.24-2.99-2.43-6.01-3.56-9.06l166.45-15.43Z"/>
      <path d="M437.01,74.99l-91.97,91.97-15.44,15.44-73.6,6.82L15.93,166.96c.02-.07.04-.13.07-.2,1.67-4.47,3.45-8.88,5.35-13.23.25-.59.51-1.17.77-1.75.22-.49.44-.98.66-1.46.2-.44.4-.87.6-1.3.16-.36.32-.7.49-1.05.16-.36.33-.72.5-1.08.45-.96.91-1.91,1.38-2.86.47-.95.94-1.9,1.41-2.85.51-1.01,1.02-2.02,1.53-3.01.01-.02.02-.03.03-.05.45-.86.9-1.72,1.36-2.58h0s.02-.06.04-.09c.02-.04.04-.08.06-.12.31-.57.62-1.15.94-1.72.21-.39.43-.79.64-1.18.06-.1.12-.21.18-.32.04-.07.08-.14.12-.21.02-.03.04-.07.05-.1.39-.69.77-1.38,1.17-2.07.4-.72.82-1.43,1.23-2.15.11-.2.22-.39.34-.59.29-.49.57-.97.86-1.45h0c.41-.7.82-1.38,1.24-2.06.06-.12.14-.24.21-.35.53-.88,1.07-1.76,1.62-2.63.01,0,.01-.01.01-.01,0-.01.01-.01.01-.02.49-.78.98-1.56,1.47-2.33.06-.09.12-.18.18-.27.17-.28.35-.56.53-.84.21-.32.42-.64.63-.96.18-.27.36-.53.53-.8.15-.24.31-.48.47-.72.09-.14.18-.27.27-.4.13-.19.25-.38.38-.56.13-.21.27-.41.41-.61.33-.5.67-1,1.01-1.5.04-.05.07-.09.1-.14.17-.24.33-.48.49-.72.12-.16.23-.33.34-.49.5-.72,1-1.44,1.52-2.15.01-.02.03-.04.04-.06.17-.25.35-.49.53-.74.01-.01.01-.02.02-.03.06-.1.13-.19.2-.29,1.25-1.74,2.52-3.46,3.81-5.17.11-.15.23-.31.35-.46.47-.62.94-1.24,1.42-1.85.39-.51.79-1.02,1.19-1.52.32-.41.65-.82.97-1.23.46-.58.92-1.16,1.39-1.73.25-.31.5-.62.75-.92.47-.57.94-1.14,1.41-1.7.44-.53.88-1.07,1.33-1.59.28-.33.56-.66.85-.99,0-.01.01-.01.01-.02.3-.35.6-.7.9-1.05.02-.02.04-.05.06-.07.06-.07.13-.15.19-.22.02-.02.03-.04.04-.05t.02,0c.2-.24.4-.47.61-.7.11-.13.22-.27.34-.4.27-.31.55-.62.82-.92.67-.76,1.34-1.51,2.02-2.25.49-.55.98-1.09,1.49-1.63h.01c.05-.07.1-.13.15-.18.02-.01.04-.03.06-.05.19-.22.39-.44.6-.66.03-.03.06-.06.08-.08,1-1.07,2.01-2.14,3.03-3.2.05-.05.1-.09.14-.14.56-.59,1.12-1.16,1.69-1.74.45-.45.89-.9,1.34-1.34.24-.24.49-.48.73-.72.77-.77,1.54-1.53,2.32-2.28h0c.19-.19.38-.38.58-.56.05-.05.09-.09.14-.14.7-.67,1.41-1.34,2.12-2.01.18-.18.37-.34.55-.51.18-.16.35-.32.53-.48.44-.41.87-.81,1.31-1.21.54-.5,1.08-.99,1.63-1.48.09-.08.17-.16.26-.24.51-.47,1.03-.93,1.55-1.39.94-.83,1.89-1.66,2.84-2.47.15-.13.3-.25.45-.38.02-.02.05-.04.07-.06.72-.62,1.45-1.23,2.18-1.83t.02-.02c.84-.69,1.68-1.39,2.53-2.08.25-.21.5-.41.74-.61.15-.12.29-.23.44-.34.95-.77,1.9-1.52,2.86-2.26.28-.23.56-.45.84-.65.68-.54,1.36-1.06,2.05-1.57.56-.43,1.11-.85,1.67-1.25,1.39-1.05,2.8-2.07,4.21-3.07.09-.07.19-.14.29-.21.12-.08.23-.16.35-.25,1.08-.76,2.17-1.52,3.26-2.26.61-.42,1.23-.83,1.84-1.25.6-.41,1.2-.81,1.8-1.21.09-.06.19-.12.28-.18.92-.61,1.84-1.21,2.77-1.8.13-.08.25-.16.38-.24,2.41-1.54,4.86-3.04,7.33-4.5.16-.1.32-.2.48-.29.48-.28.96-.56,1.44-.84.55-.32,1.1-.63,1.65-.94,1.41-.81,2.82-1.59,4.24-2.37.09-.04.17-.09.26-.14.34-.18.68-.37,1.02-.55.97-.52,1.95-1.04,2.93-1.55.29-.15.58-.3.88-.45.95-.5,1.91-.98,2.87-1.46.54-.28,1.09-.55,1.64-.81.29-.15.58-.29.87-.43.9-.44,1.81-.88,2.73-1.3.3-.15.6-.29.9-.43.76-.36,1.52-.71,2.28-1.05.67-.31,1.34-.61,2.01-.9.55-.25,1.1-.49,1.65-.73.2-.09.4-.17.6-.26,1.14-.5,2.28-.98,3.42-1.45.56-.24,1.12-.47,1.69-.7.75-.31,1.51-.61,2.27-.91,1.01-.4,2.02-.8,3.03-1.18.91-.35,1.82-.69,2.73-1.03,1.2-.44,2.41-.87,3.62-1.29.62-.22,1.24-.44,1.87-.65.55-.19,1.09-.38,1.64-.56.61-.21,1.23-.41,1.85-.61.81-.27,1.62-.53,2.43-.78.92-.3,1.84-.58,2.76-.85.51-.16,1.03-.31,1.55-.47.72-.22,1.44-.43,2.17-.63.72-.21,1.45-.41,2.17-.61.73-.2,1.45-.4,2.18-.6.73-.2,1.46-.38,2.19-.57.55-.14,1.1-.28,1.65-.42.61-.15,1.21-.31,1.82-.45.6-.15,1.21-.29,1.82-.43.37-.09.73-.17,1.1-.25.04,0,.09-.02.13-.02.77-.18,1.54-.37,2.32-.54l1.11-.24c.37-.09.74-.17,1.12-.24.74-.16,1.48-.31,2.23-.46,1.49-.31,2.99-.59,4.49-.86.46-.09.92-.17,1.38-.25.6-.11,1.19-.21,1.78-.31.61-.11,1.21-.21,1.82-.3.27-.04.53-.08.78-.12.85-.15,1.71-.28,2.56-.4.25-.03.49-.07.74-.11.18-.03.36-.05.54-.08.58-.08,1.16-.16,1.74-.24.75-.11,1.51-.21,2.26-.3.03,0,.05-.01.08-.01.31-.04.62-.08.93-.11.52-.07,1.04-.13,1.56-.19s1.05-.12,1.58-.18c.58-.07,1.15-.13,1.73-.19.1-.01.2-.03.3-.03.57-.06,1.15-.12,1.73-.17.81-.08,1.63-.16,2.45-.23.21-.02.42-.04.63-.05.69-.06,1.37-.11,2.06-.16.58-.05,1.15-.09,1.73-.13.05,0,.1-.01.15-.01.62-.05,1.24-.09,1.87-.12.33-.03.66-.05,1-.06.33-.02.67-.04,1-.06h.03c.49-.03.97-.05,1.45-.07.13-.01.27-.02.41-.02h.04c.24-.02.47-.03.71-.03.29-.02.58-.03.87-.04.16,0,.32-.01.48-.02.28-.01.55-.03.83-.03.54-.02,1.08-.04,1.62-.05.26-.01.53-.02.79-.02.27-.01.54-.01.8-.02.42-.01.83-.02,1.25-.03.25,0,.49,0,.74,0h.24c1.2-.02,2.41-.03,3.62-.03.98,0,1.96,0,2.93.02.98.01,1.96.02,2.93.05.85.02,1.69.04,2.54.07.57.02,1.15.04,1.73.06.33.01.67.02,1,.04.24.01.49.02.73.03.81.04,1.63.08,2.44.13.83.04,1.67.09,2.5.15.83.05,1.67.11,2.5.17.83.06,1.65.12,2.48.2.63.05,1.26.1,1.89.16.22.02.44.04.66.06.44.04.87.09,1.3.13.15.02.31.03.46.05.71.07,1.41.14,2.12.22.56.06,1.11.12,1.67.19.51.05,1.01.11,1.52.18.03,0,.06,0,.1.01,1.05.13,2.09.27,3.13.41.65.09,1.3.18,1.95.27.46.06.92.13,1.38.2.05.01.1.01.15.02.72.11,1.44.22,2.16.34.94.15,1.87.3,2.8.46.55.08,1.1.17,1.64.28.05,0,.09,0,.14.02.17.03.34.06.51.09.82.14,1.64.29,2.45.45.09.02.18.03.27.05,2.53.48,5.05,1,7.56,1.56.6.13,1.21.27,1.81.41.46.1.91.2,1.36.31.45.11.9.22,1.36.33,1.15.28,2.3.56,3.44.85.51.13,1.02.26,1.52.4,1.34.34,2.68.7,4.01,1.08.7.19,1.4.39,2.1.6.35.09.7.19,1.05.3.63.18,1.25.37,1.88.57.5.14,1,.3,1.49.45.02.01.04.01.06.02.16.04.32.09.48.15h.01c.27.08.54.17.81.25.07.02.15.04.22.07.21.07.43.14.64.21.89.28,1.79.57,2.67.86.12.04.25.08.37.12,1.54.51,3.07,1.04,4.6,1.59.45.15.91.32,1.37.49.23.08.45.16.68.25.14.05.28.11.42.16.35.13.71.26,1.06.39h0c.07.02.14.05.21.08,2.66.99,5.31,2.01,7.92,3.08.83.34,1.65.68,2.47,1.03.43.18.86.38,1.29.56.03.01.06.02.08.04.81.34,1.61.69,2.4,1.05.46.2.91.4,1.36.6.19.09.38.16.57.25.15.06.3.13.45.2.8.36,1.59.73,2.38,1.1.05.02.1.04.14.06.51.24,1.02.48,1.52.72.14.06.28.13.42.2,1.06.5,2.12,1.02,3.17,1.54.03.01.05.03.08.04.04.02.08.04.12.06.9.45,1.82.9,2.72,1.37.07.03.13.07.2.1.22.11.43.22.65.34.63.32,1.26.65,1.9.98.06.04.12.07.18.1.14.07.28.14.42.22,1.51.8,3.02,1.62,4.51,2.46.18.09.35.18.52.28.02.01.03.02.05.03.51.28,1.02.57,1.53.87.7.4,1.39.8,2.09,1.2.6.35,1.2.69,1.8,1.05.6.35,1.19.71,1.79,1.07.43.25.85.51,1.27.77.45.27.88.54,1.32.82.1.06.19.12.28.17.58.35,1.16.71,1.73,1.08.2.12.4.25.6.38.59.37,1.17.75,1.76,1.13.57.36,1.14.74,1.71,1.12.3.2.61.4.91.6.07.04.13.09.19.13.3.19.6.39.9.6.37.24.73.49,1.1.74.02,0,.04.03.06.04.44.3.89.6,1.33.91.87.6,1.75,1.21,2.61,1.82.15.1.29.21.44.31.05.04.1.07.15.11.76.54,1.52,1.09,2.27,1.64.02.02.05.03.07.05.38.27.76.55,1.14.84.2.15.41.3.61.46.64.48,1.28.96,1.92,1.43.87.65,1.73,1.32,2.59,1.99.3.24.6.47.89.7.51.4,1.02.8,1.52,1.2.22.18.44.36.66.53.15.11.29.23.44.34.22.17.43.35.65.53.57.46,1.14.92,1.7,1.39.3.24.59.49.89.74.01,0,.02.01.03.03.62.51,1.22,1.02,1.83,1.54.61.51,1.21,1.03,1.82,1.56.03.01.05.04.08.06.02.02.05.04.07.06.55.47,1.1.95,1.65,1.44.6.53,1.2,1.06,1.79,1.6.15.12.29.26.44.39.45.41.89.81,1.33,1.22.3.26.59.53.88.8.22.2.43.4.65.61.66.61,1.31,1.22,1.97,1.85.53.49,1.05.99,1.57,1.5.05.04.1.09.15.14.23.22.45.44.68.67.08.08.16.16.24.23.03.03.05.05.08.08.69.67,1.37,1.35,2.05,2.03Z"/>
      <path class="cls-3" d="M345.04,166.96l-15.44,15.44-6.82,6.82-140.4,140.4-15.43,15.43H15.93c-3.84-10.37-7.04-21.05-9.54-32-.01-.04-.02-.07-.02-.11-1.22-5.34-2.27-10.75-3.14-16.22-.03-.15-.05-.3-.07-.45-.15-.94-.29-1.88-.43-2.82-.14-.94-.27-1.88-.4-2.82-.01-.08-.02-.15-.03-.23-.04-.33-.08-.67-.13-1.01v-.03c-.12-.89-.23-1.78-.34-2.67-.01-.01-.01-.03-.01-.05-.01-.08-.02-.17-.03-.25-.11-.91-.21-1.82-.3-2.73-.03-.22-.05-.44-.08-.67-.08-.73-.15-1.46-.22-2.2-.03-.28-.06-.56-.08-.84-.07-.72-.14-1.45-.19-2.18-.02-.11-.03-.21-.03-.32-.01-.03-.01-.06-.01-.09-.05-.55-.09-1.11-.13-1.66-.06-.75-.11-1.49-.16-2.23-.03-.4-.06-.81-.08-1.22-.04-.55-.07-1.11-.1-1.67-.02-.37-.04-.74-.06-1.12-.01-.19-.02-.38-.03-.58-.02-.3-.03-.6-.04-.91-.01-.12-.02-.25-.02-.38-.03-.57-.05-1.13-.07-1.69-.02-.48-.04-.96-.05-1.44v-.13c-.02-.3-.03-.6-.03-.9-.01-.39-.03-.77-.03-1.16-.01-.15-.01-.31-.01-.46-.02-.88-.04-1.76-.05-2.64v-.2c-.01-.99-.02-1.98-.02-2.97,0-.47,0-.95.01-1.42,0-.58,0-1.17.01-1.75,0-.18,0-.36.01-.54.01-.7.02-1.4.04-2.1,0-.08,0-.17.01-.25,0-.6.02-1.2.04-1.8,0-.2.01-.4.02-.61.01-.48.03-.95.05-1.43.01-.3.02-.6.04-.91.02-.6.04-1.18.08-1.77,0-.1,0-.21.01-.31.01-.2.02-.41.03-.61.01-.03.01-.05.01-.08,0-.12.01-.24.02-.35.03-.52.06-1.04.09-1.56,0-.2.02-.4.03-.6.01-.26.03-.53.05-.8.02-.34.04-.68.07-1.02.01-.17.02-.35.04-.53,0-.27.03-.54.06-.82,0-.15.02-.29.03-.44,0-.06.01-.13.02-.19,0-.17.02-.33.04-.5.04-.48.08-.97.12-1.45.06-.73.12-1.47.19-2.2.08-.92.17-1.84.28-2.76.04-.4.08-.8.12-1.19.01-.19.03-.38.06-.57.04-.37.08-.74.13-1.12,0-.09.01-.19.03-.28.07-.66.15-1.31.24-1.96.05-.38.1-.77.15-1.15.01-.11.02-.21.04-.32.08-.59.16-1.17.23-1.75.15-1.06.3-2.12.46-3.18.66-4.41,1.43-8.77,2.32-13.1.92-4.5,1.95-8.96,3.1-13.37.03-.11.06-.23.09-.34,1.9-7.23,4.11-14.34,6.61-21.3.17-.49.35-.98.53-1.46.14-.38.27-.77.42-1.15h329.11Z"/>
    </g>
  </g>
  <g>
    <rect class="cls-3" x="128" y="128" width="256" height="256"/>
    <polygon class="cls-2" points="322.78 233.74 278.26 233.74 278.26 189.22 233.74 189.22 233.74 233.74 189.22 233.74 189.22 278.26 233.74 278.26 233.74 322.78 278.26 322.78 278.26 278.26 322.78 278.26 322.78 233.74"/>
  </g>
</svg>