<?xml version="1.0" encoding="UTF-8"?>
<svg id="Layer_1" data-name="Layer 1" xmlns="http://www.w3.org/2000/svg" viewBox="0 0 512 512">
  <defs>
    <style>
      .cls-1 {
        fill: #f0f0f0;
      }

      .cls-2 {
        fill: #d80027;
      }

      .cls-3 {
        fill: #0052b4;
      }
    </style>
  </defs>
  <g>
    <path class="cls-1" d="M512,256c0,.95,0,1.89-.02,2.83,0,.39,0,.77-.01,1.16,0,.19,0,.39,0,.58,0,.18-.01.37-.01.55-.02.91-.04,1.83-.07,2.74-.01.07-.01.15-.01.22-.01.21-.01.43-.02.64-.02.7-.05,1.39-.08,2.09,0,.19-.01.39-.02.58-.01.19-.01.38-.03.57,0,.15,0,.3-.02.44,0,.09-.01.17-.01.26-.02.42-.05.85-.07,1.27-.04.72-.08,1.44-.12,2.16-.02.25-.03.5-.05.75,0,.05,0,.1-.01.15-.05.76-.1,1.52-.16,2.27-.02.27-.04.54-.06.81,0,.11-.02.21-.03.32-.02.35-.05.71-.08,1.06-.07.87-.14,1.73-.23,2.59-.12,1.32-.25,2.64-.4,3.95-.07.65-.14,1.31-.22,1.97-.08.65-.16,1.3-.24,1.96-.05.4-.1.79-.15,1.18,0,.1-.02.19-.04.29,0,.05-.01.1-.02.15-.25,1.94-.52,3.88-.82,5.81-.19,1.2-.38,2.4-.58,3.59-.02.09-.03.18-.05.26-.2,1.18-.4,2.35-.62,3.52-.22,1.22-.46,2.43-.7,3.65-.24,1.21-.49,2.42-.75,3.63-.15.72-.31,1.43-.47,2.15-.12.56-.25,1.11-.38,1.66-.26,1.14-.53,2.27-.81,3.4-.29,1.2-.6,2.39-.91,3.58-.29,1.12-.59,2.23-.89,3.35-.04.13-.08.27-.12.41-.63,2.3-1.3,4.58-2,6.85-.36,1.17-.73,2.33-1.1,3.49-.75,2.32-1.53,4.63-2.36,6.92-.4,1.15-.81,2.29-1.25,3.43-.31.85-.63,1.69-.95,2.53-.39,1.01-.78,2.01-1.18,3.02-.05.13-.1.26-.15.39-.34.84-.68,1.68-1.03,2.51-.12.3-.25.61-.38.91-.14.35-.28.7-.43,1.04-.24.58-.49,1.15-.74,1.72-.41.96-.83,1.91-1.26,2.86-.22.49-.44.98-.66,1.46-.15.33-.3.66-.45.99-.21.46-.42.91-.64,1.36-.16.36-.33.72-.5,1.08-.45.96-.91,1.91-1.38,2.86-.05.11-.11.22-.16.33-.41.84-.82,1.67-1.24,2.51,0,0,0,0,0,.01-.52,1.03-1.04,2.05-1.56,3.06-.34.66-.69,1.31-1.04,1.97-.12.23-.24.47-.36.7-1.4,2.65-2.87,5.28-4.39,7.87-.25.45-.51.89-.78,1.34-.06.11-.12.22-.19.33-.26.44-.52.88-.79,1.32-.5.85-1.01,1.7-1.54,2.54-.51.84-1.04,1.69-1.57,2.52-.52.84-1.05,1.67-1.6,2.5-.38.59-.77,1.17-1.16,1.76-.15.24-.31.48-.47.72-.09.14-.18.27-.27.4-.13.19-.25.38-.38.56-.03.04-.05.08-.08.12-.54.81-1.08,1.62-1.64,2.42-.1.14-.19.29-.29.43-.12.16-.23.33-.34.49-.53.75-1.06,1.5-1.59,2.25-.24.34-.47.68-.72,1.02-.96,1.35-1.95,2.7-2.94,4.03-.4.53-.8,1.07-1.22,1.6-.46.62-.93,1.24-1.42,1.85-.71.92-1.43,1.84-2.16,2.75-1.44,1.83-2.92,3.63-4.43,5.42-.54.64-1.08,1.29-1.64,1.92-.21.24-.42.49-.63.73-.02.03-.05.06-.07.09-.37.43-.74.86-1.13,1.29-.32.36-.64.73-.97,1.09-.9,1.03-1.82,2.05-2.75,3.06-.63.68-1.26,1.36-1.89,2.04-.07.07-.14.15-.21.22-.56.61-1.13,1.21-1.71,1.81-.57.6-1.15,1.2-1.73,1.8-.47.48-.94.95-1.41,1.42-.25.26-.5.51-.75.76-3.87,3.87-7.86,7.61-11.97,11.22-.88.77-1.76,1.53-2.64,2.29-.89.75-1.77,1.51-2.67,2.25-1.04.87-2.09,1.73-3.15,2.59-.04.03-.08.06-.13.11-1.01.81-2.03,1.62-3.06,2.42-1.07.84-2.14,1.67-3.23,2.48-.88.67-1.77,1.34-2.67,1.99-.61.45-1.22.9-1.84,1.34-.49.36-.98.71-1.47,1.06-.03.02-.06.04-.09.06-.46.33-.92.65-1.38.97-.28.2-.56.4-.85.59-.52.37-1.05.74-1.58,1.09-.03.03-.06.05-.08.06-1.11.76-2.23,1.52-3.36,2.26-1.14.75-2.28,1.49-3.43,2.22-1.24.8-2.49,1.58-3.75,2.34-1.19.74-2.38,1.46-3.58,2.16-.07.04-.13.08-.2.12-1.27.75-2.55,1.49-3.83,2.21-.64.37-1.29.74-1.94,1.09-.64.36-1.28.71-1.93,1.06-1.18.65-2.38,1.29-3.58,1.91-.27.15-.54.29-.81.43-1.15.6-2.31,1.19-3.48,1.77-.94.48-1.89.94-2.84,1.4-2.27,1.11-4.57,2.18-6.88,3.21-.78.35-1.57.7-2.36,1.04-.89.39-1.78.76-2.68,1.14-.07.03-.14.06-.21.09-.38.17-.75.32-1.13.48-.05.03-.1.05-.15.07-1.64.68-3.28,1.34-4.94,1.99-.62.24-1.24.48-1.87.72-.48.18-.96.36-1.44.54-1.4.53-2.8,1.04-4.21,1.54-.8.28-1.6.57-2.41.84-.61.21-1.22.42-1.83.62-1.42.48-2.85.94-4.28,1.39-1.43.45-2.87.89-4.31,1.32-.72.22-1.44.43-2.17.63-.72.21-1.45.41-2.17.61-1.45.41-2.91.8-4.37,1.17-.55.14-1.1.28-1.65.42-1.03.26-2.07.52-3.11.76-.18.04-.35.08-.53.12-1.17.28-2.36.55-3.55.81l-1.11.24c-.37.08-.74.16-1.12.24-.74.16-1.49.31-2.23.46-1.49.31-2.98.59-4.49.86-.32.06-.64.12-.97.18-.67.12-1.35.24-2.03.35-.5.09-1.01.17-1.52.26-1.51.25-3.02.48-4.54.7-.76.11-1.52.22-2.28.32-.23.04-.46.07-.7.09-.54.08-1.09.15-1.64.22-.05.01-.11.02-.16.02-.96.12-1.92.24-2.88.35-.18.02-.37.04-.55.06-.94.11-1.89.21-2.84.31-.47.05-.93.09-1.4.13-.44.05-.89.09-1.33.13-.56.05-1.11.1-1.66.14-.49.05-.97.09-1.45.12-.22.02-.45.03-.67.05-.94.08-1.88.14-2.82.2-.13,0-.25.02-.38.03h-.02c-.94.06-1.88.11-2.83.16-.31.02-.63.04-.95.05-.76.04-1.53.07-2.3.1-.16.01-.31.01-.46.02-.4.02-.79.03-1.18.04-.36.02-.71.03-1.06.03-.19.01-.38.01-.57.02-.5.02-1.01.03-1.51.04h-.05c-.14,0-.27,0-.41.01-.17,0-.35,0-.52,0-.15,0-.31,0-.46.01h-.52c-1.21.02-2.41.03-3.62.03s-2.44-.01-3.65-.03c-.43,0-.85-.01-1.28-.02h-.25c-.78-.02-1.54-.04-2.31-.06-.24,0-.48-.01-.72-.02-.17-.01-.34-.01-.51-.02-1.03-.03-2.05-.07-3.07-.12-.29-.01-.58-.02-.87-.04-1.18-.06-2.36-.12-3.54-.2-.22-.01-.43-.02-.64-.04-.43-.03-.86-.05-1.29-.09-.69-.04-1.37-.09-2.05-.15-.19,0-.38-.03-.57-.04-.34-.03-.69-.06-1.03-.09-.92-.07-1.84-.16-2.76-.24-.19-.02-.37-.04-.55-.06-1.28-.12-2.56-.26-3.83-.4-1.23-.14-2.46-.29-3.68-.44-.13-.02-.25-.03-.38-.05-.94-.12-1.88-.24-2.82-.37-1.06-.15-2.13-.31-3.19-.47-1.96-.3-3.91-.62-5.86-.97-3.31-.58-6.6-1.23-9.86-1.94-1.83-.4-3.65-.82-5.46-1.26-1.15-.28-2.3-.56-3.44-.85-1.15-.29-2.29-.59-3.43-.9-1.4-.38-2.81-.77-4.2-1.18-1.4-.4-2.8-.82-4.18-1.25-.56-.16-1.11-.33-1.66-.51-1.35-.43-2.7-.86-4.04-1.31-.34-.12-.68-.23-1.02-.34-.98-.34-1.96-.67-2.93-1.02-.99-.34-1.97-.7-2.95-1.06-.72-.26-1.43-.52-2.14-.79-.32-.12-.63-.24-.95-.36-.92-.35-1.84-.71-2.76-1.07-.88-.35-1.76-.7-2.63-1.05-.18-.08-.37-.15-.55-.23-.87-.35-1.73-.72-2.59-1.08-1.91-.8-3.82-1.64-5.71-2.5-.95-.42-1.89-.86-2.83-1.3-.04,0-.09-.03-.14-.06-1.74-.82-3.47-1.65-5.19-2.5-1.01-.5-2.02-1.01-3.03-1.53-.92-.47-1.83-.94-2.74-1.42,0,0,0-.01,0-.01-.92-.48-1.83-.97-2.73-1.46-.91-.49-1.81-.99-2.71-1.49-.88-.49-1.75-.99-2.61-1.49-.06-.02-.11-.05-.16-.09-.58-.33-1.15-.68-1.73-1.01-.21-.12-.42-.24-.63-.37-.71-.42-1.43-.83-2.14-1.26-.43-.25-.85-.51-1.27-.77-.54-.33-1.07-.66-1.6-.99-1.38-.84-2.74-1.71-4.09-2.59-.88-.56-1.75-1.14-2.62-1.72-.44-.29-.88-.58-1.31-.87-.97-.65-1.93-1.31-2.88-1.97-.56-.39-1.12-.78-1.67-1.17-.26-.18-.51-.36-.76-.54-.32-.22-.63-.45-.94-.68-.52-.37-1.04-.74-1.56-1.12-.91-.66-1.81-1.33-2.71-2.02-.22-.15-.45-.32-.67-.5-.11-.07-.22-.15-.33-.25-1.23-.92-2.44-1.85-3.65-2.8-.44-.34-.88-.69-1.31-1.05-.43-.34-.85-.68-1.28-1.02-.74-.59-1.47-1.19-2.2-1.79-.29-.24-.58-.47-.86-.72-.72-.6-1.43-1.2-2.14-1.8-.29-.25-.58-.49-.87-.75-.27-.23-.55-.46-.82-.7-.43-.37-.86-.74-1.29-1.13-.34-.29-.68-.59-1.02-.89-.96-.85-1.91-1.71-2.86-2.58-.09-.08-.18-.16-.27-.25-.68-.62-1.36-1.25-2.04-1.89-.45-.42-.9-.84-1.35-1.27-.23-.22-.45-.43-.68-.65-.53-.5-1.05-1.01-1.58-1.52-.14-.14-.28-.28-.42-.41-.41-.41-.81-.81-1.22-1.21-.25-.25-.51-.5-.76-.75l114.23-114.24h0l33.39-33.39,214.41-214.41c.86.86,1.71,1.73,2.56,2.6.85.87,1.69,1.75,2.52,2.63.81.85,1.61,1.71,2.4,2.58.06.06.12.12.17.18.57.62,1.13,1.24,1.69,1.86.4.44.8.88,1.19,1.33.68.76,1.35,1.53,2.02,2.31,2.83,3.26,5.58,6.6,8.23,10,.5.63.99,1.27,1.48,1.91,1.47,1.91,2.91,3.84,4.31,5.79.4.54.79,1.09,1.18,1.64.28.4.56.79.83,1.18.58.81,1.14,1.63,1.7,2.45.66.96,1.31,1.91,1.95,2.88.06.08.11.16.16.24.61.91,1.21,1.83,1.8,2.76.72,1.09,1.42,2.2,2.11,3.31.37.6.74,1.2,1.11,1.8.17.27.34.55.5.82.22.35.43.71.64,1.07.02.03.04.06.06.09.3.5.6,1,.89,1.5.01.01.02.03.03.04.19.32.38.64.56.96.11.19.23.38.33.57.04.08.09.15.13.23.47.79.93,1.59,1.37,2.39.03.04.05.08.07.12.25.44.5.88.76,1.33.44.8.89,1.61,1.33,2.43.04.06.07.13.1.19.04.06.07.13.1.19.43.78.85,1.56,1.26,2.35.25.47.5.95.75,1.43.01,0,.02.03.02.04.08.15.16.3.23.45.15.28.29.55.43.83.47.92.94,1.84,1.4,2.76h0c.6,1.21,1.19,2.43,1.77,3.65.03.08.07.16.11.24.07.12.13.25.18.39.6,1.24,1.18,2.49,1.74,3.74.07.14.14.27.19.41.59,1.31,1.17,2.62,1.74,3.94.61,1.39,1.2,2.79,1.77,4.2.43,1.03.85,2.07,1.26,3.12.41,1.04.82,2.09,1.22,3.14.37.97.74,1.95,1.09,2.93.36.98.72,1.96,1.06,2.95.35.98.69,1.97,1.03,2.96.34.99.67,1.99.99,2.99.32.99.64,1.99.95,3,.31.99.61,1.99.91,2.99,0,.02,0,.03.02.04.27.94.55,1.89.82,2.84.88,3.09,1.71,6.21,2.47,9.35.5,2.05.98,4.11,1.43,6.18h0c.23,1.05.44,2.09.66,3.13.21,1.01.41,2.02.6,3.04.21,1.07.41,2.16.6,3.24.38,2.1.73,4.21,1.05,6.32.12.79.24,1.59.35,2.39.11.73.21,1.46.3,2.2.05.34.09.67.13,1.01h0s0,.02,0,.03c.24,1.78.45,3.56.64,5.35.01.12.03.23.04.35.02.22.05.44.07.66.06.55.12,1.09.17,1.64.04.45.09.9.13,1.36.06.62.11,1.23.16,1.86.03.23.05.45.06.68.03.35.06.71.08,1.06.01.04.01.08.01.13.02.19.04.37.05.56.08.95.14,1.91.2,2.86.01.13.02.27.03.4.06.89.11,1.78.16,2.68.01.29.03.59.04.88.01.07.01.15.01.22.05.92.09,1.84.12,2.76.02.34.03.68.03,1.02,0,.14.02.28.02.42,0,.09.01.17.01.25.01.26.02.52.02.78.03.77.04,1.54.06,2.31v.16c.01.44.02.89.02,1.34.01.21.01.43.01.65.01.99.02,1.98.02,2.97Z"/>
    <g>
      <path class="cls-3" d="M503.18,189.22c-8.83-32.76-23.99-62.91-44.1-89.08l-89.07,89.08h133.18Z"/>
      <path class="cls-3" d="M100.14,459.08c26.16,20.11,56.32,35.27,89.08,44.1v-133.18l-89.08,89.07Z"/>
      <path class="cls-3" d="M322.78,503.18c32.76-8.83,62.91-23.99,89.07-44.1l-89.08-89.07v133.18h0Z"/>
      <path class="cls-3" d="M370.01,322.78l89.08,89.08c20.11-26.16,35.27-56.32,44.1-89.08h-133.18Z"/>
    </g>
    <g>
      <path class="cls-2" d="M512,256c0,.94-.01,1.89-.02,2.83,0,.39,0,.77-.01,1.16,0,.19,0,.39,0,.58,0,.18-.01.37-.01.55-.02.91-.04,1.83-.07,2.74-.01.07-.01.15-.01.22-.01.21-.01.43-.02.64-.02.7-.05,1.39-.08,2.09-.01.38-.03.77-.05,1.15,0,.15,0,.3-.02.44,0,.09-.01.17-.01.26-.02.42-.05.85-.07,1.27-.05.97-.11,1.94-.17,2.91,0,.05,0,.1-.01.15-.05.76-.1,1.52-.16,2.27-.02.27-.04.54-.06.81,0,.11-.02.21-.03.32-.02.35-.05.71-.08,1.06-.04.42-.07.85-.12,1.27-.06.73-.12,1.46-.2,2.18-.02.24-.04.48-.07.71-.24,2.5-.53,4.99-.85,7.46-.01.11-.02.21-.04.32h-220.44v220.44c-2.86.37-5.73.7-8.62.98-.99.1-1.99.19-2.99.27-.49.05-.97.09-1.45.12-.22.02-.45.03-.67.05-.94.07-1.88.14-2.82.2-1.07.07-2.15.14-3.23.19-.13,0-.27,0-.4.02-.18.01-.37.02-.55.03-.36.02-.72.03-1.08.04-.74.04-1.49.07-2.23.09-.21.02-.42.02-.63.03-.36.02-.71.03-1.06.03-.19.01-.38.01-.57.02-.5.02-1.01.03-1.51.04h-.05c-.14,0-.27,0-.41.01-.17,0-.35,0-.52,0-.15,0-.31,0-.46.01h-.52c-1.21.02-2.41.03-3.62.03s-2.44-.01-3.65-.03c-.43,0-.86-.01-1.28-.02h-.25c-.78-.02-1.54-.04-2.31-.06-.24,0-.48-.01-.72-.02-.17-.01-.34-.01-.51-.02-1.02-.03-2.05-.07-3.07-.12-.29-.01-.58-.02-.87-.04-1.18-.06-2.36-.12-3.54-.2-.22-.01-.43-.02-.64-.04-.43-.03-.86-.05-1.29-.09-.68-.04-1.37-.1-2.05-.15-.19,0-.38-.03-.57-.04-.34-.03-.69-.06-1.03-.09-1.11-.09-2.21-.19-3.31-.3-2.78-.27-5.55-.59-8.3-.95v-220.44l66.78-66.78h220.44c.49,3.73.9,7.48,1.22,11.26.02.22.04.45.06.68.03.35.06.71.08,1.06.01.04.01.08.01.13.09,1.14.18,2.28.25,3.42.09,1.32.16,2.64.23,3.96.01.07.01.15.01.22.06,1.26.11,2.52.15,3.78,0,.14.02.28.02.42,0,.09.01.17.01.25,0,.1.01.19,0,.28.01.16.02.33.02.5.03.77.04,1.54.06,2.31v.16c.01.44.02.89.02,1.34.01.21.01.43.01.65.01.99.02,1.98.02,2.97Z"/>
      <path class="cls-2" d="M322.78,322.78h0l114.24,114.24c5.25-5.25,10.27-10.74,15.05-16.43l-97.8-97.8h-31.48s0,0,0,0Z"/>
      <path class="cls-2" d="M189.22,322.78v31.48l-97.8,97.81c-.71-.6-1.42-1.2-2.13-1.8-.7-.61-1.41-1.22-2.11-1.83-1.3-1.14-2.6-2.3-3.88-3.47-.09-.08-.18-.16-.27-.25-.68-.63-1.37-1.26-2.04-1.89-.46-.42-.9-.85-1.35-1.27-.23-.22-.45-.43-.68-.65-.53-.5-1.05-1.01-1.58-1.52-.14-.14-.28-.28-.42-.41-.41-.41-.81-.81-1.22-1.21-.25-.25-.51-.5-.76-.75l114.23-114.24h0Z"/>
    </g>
  </g>
  <g>
    <path class="cls-1" d="M437.02,74.98c.41.41.82.82,1.21,1.23l-1.22-1.22-181.01,181.01-66.78,66.78-66.79,66.79-47.45,47.45c-13.75-13.75-25.95-29.07-36.3-45.65-.37-.6-.74-1.2-1.11-1.8-.17-.27-.34-.55-.5-.82-.22-.35-.43-.71-.64-1.07-.34-.54-.66-1.08-.98-1.63-.19-.32-.38-.64-.56-.96-.11-.19-.23-.38-.33-.57-.51-.87-1.01-1.74-1.5-2.62-.03-.04-.05-.08-.07-.12-.71-1.24-1.41-2.5-2.09-3.76-.04-.06-.07-.13-.1-.19-.47-.84-.92-1.69-1.36-2.54-.17-.32-.34-.65-.5-.97-.09-.15-.17-.3-.25-.46-.01-.01-.02-.03-.02-.04-.08-.15-.16-.3-.23-.45-.15-.28-.29-.55-.43-.83-.47-.91-.93-1.83-1.39-2.76h-.01c-.63-1.3-1.26-2.59-1.88-3.89-.07-.12-.13-.25-.18-.39-.59-1.24-1.17-2.49-1.74-3.74-.07-.14-.14-.27-.19-.41-.59-1.31-1.17-2.62-1.74-3.94-.6-1.4-1.19-2.8-1.77-4.2-.86-2.07-1.68-4.16-2.48-6.26-1.11-2.92-2.17-5.86-3.18-8.84-2.35-6.94-4.41-14.02-6.16-21.21-.5-2.05-.98-4.11-1.43-6.18-.68-3.12-1.3-6.25-1.86-9.41-.38-2.1-.73-4.21-1.05-6.32-1.94-12.71-2.95-25.73-2.95-38.99,0-1.53.01-3.05.04-4.57.02-1.17.05-2.34.09-3.51.03-1.1.07-2.21.12-3.31.01-.34.03-.68.05-1.01.06-1.23.13-2.46.2-3.69.08-1.33.17-2.65.28-3.98.11-1.33.22-2.65.34-3.97.13-1.32.26-2.64.4-3.95.14-1.31.3-2.62.46-3.93,2.47-19.91,7.23-39.1,14.02-57.32.31-.85.63-1.69.95-2.53,1.61-4.21,3.33-8.36,5.17-12.45.37-.82.74-1.64,1.11-2.45.38-.82.76-1.63,1.14-2.44h0c1.81-3.83,3.71-7.62,5.7-11.35h0c.13-.26.27-.5.4-.74.52-.97,1.05-1.94,1.58-2.9.8-1.45,1.62-2.89,2.45-4.32.57-1,1.15-2,1.76-2.99,2.03-3.4,4.15-6.74,6.34-10.04h0c.09-.14.18-.27.27-.4,1.64-2.46,3.31-4.89,5.04-7.29,1.8-2.53,3.67-5.02,5.58-7.48,11.42-14.76,24.43-28.23,38.76-40.16,8.34-6.96,17.13-13.39,26.32-19.24,1.24-.79,2.49-1.57,3.75-2.34,1.25-.77,2.51-1.53,3.78-2.28,1.27-.75,2.55-1.49,3.83-2.21,1.29-.73,2.58-1.45,3.87-2.15,2.59-1.42,5.22-2.79,7.87-4.11,3.97-1.99,8-3.88,12.08-5.65,1.33-.58,2.67-1.15,4.02-1.71.05-.03.1-.05.15-.07,2.73-1.13,5.47-2.22,8.25-3.25,1.4-.53,2.8-1.04,4.21-1.54s2.82-.99,4.24-1.46c1.42-.48,2.85-.94,4.28-1.39,1.43-.45,2.87-.89,4.31-1.32.72-.22,1.44-.43,2.17-.63.72-.21,1.45-.41,2.17-.61,1.45-.41,2.91-.8,4.37-1.17.55-.14,1.1-.28,1.65-.42,1.03-.26,2.07-.52,3.11-.76,1.35-.32,2.71-.63,4.08-.93.74-.17,1.48-.32,2.23-.48.74-.16,1.49-.31,2.23-.46,1.49-.31,2.98-.59,4.49-.86.99-.19,2-.37,3-.53.5-.09,1.01-.17,1.52-.26,1.51-.25,3.02-.48,4.54-.7.76-.11,1.52-.22,2.28-.32.23-.04.46-.07.7-.09,1.55-.22,3.11-.41,4.68-.59,2.03-.24,4.07-.45,6.12-.63.56-.05,1.11-.1,1.66-.14.71-.07,1.41-.12,2.12-.17,1.07-.09,2.13-.16,3.2-.23h.02c.94-.06,1.88-.11,2.83-.16,2.16-.12,4.34-.2,6.52-.26.52-.02,1.04-.03,1.56-.04.62-.01,1.24-.03,1.86-.03,1.22-.02,2.44-.03,3.67-.03,11.18,0,22.18.72,32.98,2.11,2.01.25,4.01.54,6.01.84,1.96.3,3.92.62,5.86.97,3.31.58,6.6,1.23,9.86,1.94,1.83.4,3.65.81,5.46,1.26,2.3.55,4.59,1.13,6.87,1.75,2.81.76,5.61,1.57,8.38,2.43.56.16,1.11.33,1.66.51,1.35.43,2.7.86,4.04,1.31.59.2,1.17.39,1.75.59,2.45.84,4.88,1.71,7.29,2.62,24.67,9.28,47.53,22.27,67.89,38.27.44.34.88.69,1.31,1.05,1.17.92,2.33,1.86,3.48,2.81.29.24.58.47.86.72,5.74,4.77,11.27,9.79,16.56,15.05.25.25.51.5.76.75Z"/>
    <g>
      <polygon class="cls-2" points="322.78 189.22 256 256 244.87 256 244.87 189.22 322.78 189.22"/>
      <path class="cls-2" d="M437.01,74.99l-47.45,47.45h-144.69V55.65h170.49c1.46,1.16,2.91,2.34,4.34,3.53,5.74,4.78,11.26,9.8,16.56,15.05.25.26.5.51.75.76Z"/>
      <path class="cls-2" d="M8.82,322.78h180.4l-66.79,66.79H37.57c-.17-.27-.34-.55-.5-.82-.22-.35-.43-.71-.64-1.07-.34-.54-.66-1.08-.98-1.63-.19-.32-.38-.64-.56-.96-.11-.19-.23-.38-.33-.57-.51-.87-1.01-1.74-1.5-2.62-.03-.04-.05-.08-.07-.12-.71-1.24-1.41-2.5-2.09-3.76-.04-.06-.07-.13-.1-.19-.63-1.17-1.26-2.34-1.86-3.51-.09-.15-.17-.3-.25-.46-.01-.01-.02-.03-.02-.04-.08-.15-.16-.3-.23-.45-.62-1.19-1.22-2.39-1.82-3.59h-.01c-.63-1.3-1.26-2.59-1.88-3.89-.07-.12-.13-.25-.18-.39-.59-1.24-1.17-2.49-1.74-3.74-.07-.14-.14-.27-.19-.41-.59-1.31-1.17-2.62-1.74-3.94-.6-1.4-1.19-2.8-1.77-4.2-4.04-9.86-7.48-20.01-10.29-30.43Z"/>
    </g>
    <path class="cls-3" d="M252.33.03c-.62,0-1.24.02-1.86.03-.52.01-1.04.02-1.56.04-2.18.06-4.36.14-6.52.26-.95.05-1.89.1-2.83.16h-.02c-1.07.07-2.13.14-3.2.23-.71.05-1.41.1-2.12.17-.55.04-1.1.09-1.66.14-2.05.18-4.09.39-6.12.63-1.57.18-3.13.37-4.68.59-.24.02-.47.05-.7.09-.76.1-1.52.21-2.28.32-1.52.22-3.03.45-4.54.7-.51.09-1.02.17-1.52.26-1,.16-2.01.34-3,.53-1.5.27-3,.56-4.49.86-.74.15-1.49.3-2.23.46-.75.16-1.49.31-2.23.48-1.37.3-2.73.61-4.08.93-1.04.24-2.08.5-3.11.76-.55.14-1.1.28-1.65.42-1.46.37-2.92.76-4.37,1.17-.72.2-1.45.4-2.17.61-.73.2-1.45.41-2.17.63-1.44.43-2.88.87-4.31,1.32-1.43.45-2.86.91-4.28,1.39-1.42.47-2.83.96-4.24,1.46s-2.81,1.01-4.21,1.54c-2.77,1.04-5.53,2.13-8.25,3.25-.05.02-.1.04-.15.07-1.35.56-2.69,1.13-4.02,1.71-4.08,1.78-8.11,3.67-12.08,5.65-2.65,1.33-5.27,2.7-7.87,4.11-1.29.7-2.58,1.42-3.87,2.15-1.28.72-2.56,1.46-3.83,2.21-1.27.75-2.53,1.51-3.78,2.28-1.26.77-2.51,1.55-3.75,2.34h23.33l-21.7,15.76,8.29,25.51-21.7-15.76-21.7,15.76,7.16-22.03c-14.32,11.93-27.33,25.41-38.76,40.16-1.9,2.46-3.76,4.96-5.58,7.48-1.81,2.53-3.58,5.09-5.31,7.69h7.48l-13.82,10.04c-.61.99-1.19,1.99-1.76,2.99-1.52,2.62-3,5.27-4.43,7.95l6.6,20.3-12.31-8.94c-.38.81-.76,1.62-1.14,2.44-.37.81-.74,1.63-1.11,2.45-1.83,4.09-3.55,8.25-5.17,12.45-.32.84-.64,1.68-.95,2.53l7.26,22.37h26.83l-21.7,15.76,8.29,25.51-21.7-15.76-13,9.44c-.16,1.31-.32,2.62-.46,3.93-.14,1.31-.27,2.63-.4,3.95-.12,1.32-.23,2.64-.34,3.97-.11,1.33-.2,2.65-.28,3.98-.07,1.23-.14,2.46-.2,3.69-.02.33-.04.67-.05,1.01-.05,1.1-.09,2.21-.12,3.31-.04,1.17-.07,2.34-.09,3.51-.03,1.52-.04,3.04-.04,4.57h256V0c-1.23,0-2.45.01-3.67.03ZM128.5,230.4l-21.7-15.76-21.7,15.76,8.29-25.51-21.7-15.76h26.82l8.29-25.51,8.29,25.51h26.82l-21.7,15.76,8.29,25.51ZM120.21,130.32l8.29,25.51-21.7-15.77-21.7,15.77,8.29-25.51-21.7-15.77h26.83l8.28-25.51,8.29,25.51h26.82l-21.7,15.77ZM220.33,230.4l-21.7-15.76-21.7,15.76,8.29-25.51-21.7-15.76h26.82l8.29-25.51,8.29,25.51h26.82l-21.7,15.76,8.29,25.51ZM212.04,130.32l8.29,25.51-21.7-15.77-21.7,15.77,8.29-25.51-21.7-15.77h26.82l8.29-25.51,8.29,25.51h26.82l-21.7,15.77ZM212.04,55.74l8.29,25.51-21.7-15.76-21.7,15.76,8.29-25.51-21.7-15.76h26.82l8.29-25.51,8.29,25.51h26.82l-21.7,15.76Z"/>
  </g>
</svg>