<?xml version="1.0" encoding="UTF-8"?>
<svg id="Layer_1" data-name="Layer 1" xmlns="http://www.w3.org/2000/svg" viewBox="0 0 512 512">
  <defs>
    <style>
      .cls-1 {
        fill: #f0f0f0;
      }

      .cls-2 {
        fill: #85c2ff;
      }

      .cls-3 {
        fill: #ff9811;
      }

      .cls-4 {
        fill: #6da544;
      }
    </style>
  </defs>
  <circle class="cls-1" cx="256" cy="256" r="256"/>
  <path class="cls-3" d="M256,0C154.51,0,66.81,59.06,25.4,144.7h461.2C445.19,59.06,357.49,0,256,0Z"/>
  <path class="cls-4" d="M256,512c101.49,0,189.19-59.07,230.6-144.7H25.4c41.41,85.63,129.1,144.7,230.6,144.7Z"/>
  <circle class="cls-2" cx="256" cy="256" r="89.04"/>
  <circle class="cls-1" cx="256" cy="256" r="55.65"/>
  <polygon class="cls-2" points="256 187.33 273.17 226.26 315.47 221.66 290.34 256 315.47 290.34 273.17 285.74 256 324.67 238.83 285.74 196.53 290.34 221.66 256 196.53 221.66 238.83 226.26 256 187.33"/>
  <g>
    <path d="M16,278.79v-35.65c0-4.74.82-8.85,2.46-12.35,1.64-3.5,3.92-6.41,6.84-8.72,2.92-2.31,6.38-4.03,10.39-5.16,4.01-1.13,8.4-1.7,13.16-1.7s8.7.59,12.51,1.76c3.81,1.18,7.1,2.95,9.87,5.32,2.77,2.37,4.93,5.32,6.47,8.87,1.54,3.55,2.31,7.69,2.31,12.42v35.21H16ZM48.21,236.56c0-3.72-.72-6.52-2.16-8.41-1.44-1.89-3.45-2.83-6.04-2.83-1.66,0-3.23.42-4.73,1.26-1.5.84-2.81,2.01-3.94,3.51-1.13,1.5-2.05,3.29-2.75,5.38-.7,2.09-1.08,4.4-1.13,6.93-.03.64-.05,1.26-.07,1.87-.02.61-.02,1.21-.02,1.79v22.88c3.95-3.4,7.26-6.6,9.94-9.59,2.67-2.99,4.82-5.81,6.43-8.46,1.61-2.64,2.76-5.15,3.44-7.52.68-2.37,1.02-4.64,1.02-6.82ZM68.65,246.06c0-.58,0-1.18-.02-1.79-.02-.61-.04-1.23-.07-1.87-.09-2.41-.49-4.63-1.22-6.67-.73-2.03-1.74-3.81-3.03-5.34-1.29-1.53-2.84-2.76-4.64-3.7-1.8-.94-3.81-1.53-6.01-1.76,1.74,1.31,3.1,3.01,4.07,5.12.97,2.11,1.46,4.55,1.46,7.34,0,2.27-.38,4.66-1.13,7.19-.76,2.53-1.89,5.14-3.4,7.82-1.51,2.69-3.38,5.43-5.6,8.22-2.22,2.79-4.79,5.56-7.69,8.32h27.28v-22.88Z"/>
    <path d="M166.53,268.99v-52.65h11.37v62.45h-81.5v-34.69c0-4.79.59-8.99,1.77-12.6,1.18-3.6,2.89-6.61,5.14-9.02,2.25-2.41,5.02-4.23,8.3-5.45,3.28-1.22,7.05-1.83,11.29-1.83,4.53,0,8.43.61,11.68,1.83,3.25,1.22,5.94,3.04,8.06,5.45,2.12,2.41,3.68,5.42,4.69,9.02,1,3.6,1.5,7.8,1.5,12.6v12.55h-41.05v12.33h58.75ZM107.78,246.85h29.68v-4.23c0-.67-.01-1.29-.04-1.87-.06-2.79-.46-5.17-1.2-7.15-.74-1.98-1.77-3.6-3.07-4.86s-2.86-2.19-4.66-2.79c-1.8-.59-3.76-.89-5.88-.89-1.95,0-3.79.26-5.53.78-1.74.52-3.28,1.39-4.62,2.61-1.34,1.22-2.42,2.83-3.25,4.84-.83,2-1.29,4.49-1.37,7.45-.03.67-.04,1.36-.04,2.07v4.03Z"/>
    <path d="M282.15,215.25c1.83,2.35,3.43,4.82,4.79,7.41,1.37,2.59,2.5,5.19,3.4,7.82.9,2.63,1.58,5.26,2.03,7.89.45,2.63.68,5.16.68,7.61,0,5.26-.85,9.99-2.55,14.19-1.7,4.2-4.05,7.76-7.04,10.68-2.99,2.92-6.52,5.16-10.57,6.73-4.05,1.57-8.43,2.35-13.14,2.35-1.37,0-2.78-.08-4.25-.24-1.47-.16-2.91-.39-4.34-.7-1.42-.3-2.8-.67-4.12-1.09-1.32-.42-2.51-.89-3.55-1.42-2,1.05-4.31,1.88-6.91,2.51-2.6.63-5.44.94-8.52.94-3.66,0-7.09-.44-10.28-1.33-3.2-.89-6.13-2.14-8.8-3.77-2.67-1.63-5.06-3.58-7.17-5.86-2.11-2.28-3.89-4.81-5.34-7.58-1.45-2.77-2.56-5.77-3.33-8.98-.77-3.21-1.15-6.54-1.15-10,0-4.45.67-8.37,2-11.77,1.34-3.4,3.11-6.24,5.32-8.52,2.21-2.28,4.73-4,7.56-5.16,2.83-1.16,5.76-1.74,8.78-1.74,1.74,0,3.32.17,4.73.5,1.41.33,2.66.81,3.77,1.44,1.1.63,2.09,1.38,2.96,2.27.87.89,1.64,1.87,2.31,2.94h.3c1.68-2.27,3.89-4.02,6.6-5.27,2.72-1.25,5.75-1.87,9.09-1.87,2.73,0,5.36.52,7.89,1.55,2.53,1.03,4.76,2.6,6.71,4.71,1.95,2.11,3.51,4.76,4.68,7.95,1.18,3.2,1.76,6.97,1.76,11.33,0,2.76-.36,5.55-1.09,8.37-.73,2.82-1.69,5.5-2.9,8.04-1.21,2.54-2.58,4.89-4.12,7.04-1.54,2.15-3.12,3.95-4.75,5.4.81.26,1.87.49,3.16.68,1.29.19,2.53.28,3.73.28,2.82,0,5.47-.56,7.95-1.68,2.48-1.12,4.66-2.72,6.54-4.82,1.87-2.09,3.36-4.62,4.45-7.58,1.09-2.96,1.63-6.29,1.63-9.98,0-2.27-.21-4.58-.63-6.95-.42-2.37-1.07-4.74-1.94-7.1s-1.99-4.72-3.36-7.06c-1.37-2.34-3.01-4.63-4.93-6.86l11.94-3.27ZM228.94,270.56c.84,0,1.72-.09,2.64-.26.92-.17,1.66-.38,2.24-.61-1.95-1.45-3.68-3.2-5.21-5.25s-2.81-4.28-3.86-6.69c-1.05-2.41-1.85-4.95-2.4-7.61-.55-2.66-.83-5.34-.83-8.04,0-.84.04-1.69.11-2.55.07-.86.15-1.69.24-2.51.09-.81.17-1.58.24-2.31s.11-1.38.11-1.96c0-1.02-.14-1.99-.41-2.92-.28-.93-.69-1.75-1.24-2.46-.55-.71-1.25-1.28-2.09-1.7-.84-.42-1.83-.63-2.96-.63-1.39,0-2.78.35-4.16,1.05-1.38.7-2.61,1.76-3.7,3.2-1.09,1.44-1.98,3.25-2.66,5.45-.68,2.19-1.02,4.8-1.02,7.82,0,4.1.65,7.85,1.94,11.27,1.29,3.41,3.07,6.36,5.32,8.85,2.25,2.48,4.9,4.42,7.93,5.8,3.04,1.38,6.3,2.07,9.78,2.07ZM233.34,241.97c0,4.94.82,9.35,2.46,13.23s4.32,7.36,8.04,10.44c1.63-1.48,3.09-3.15,4.4-4.99,1.31-1.84,2.43-3.81,3.36-5.88.93-2.08,1.64-4.25,2.14-6.52.49-2.27.74-4.58.74-6.93,0-2.59-.23-4.89-.7-6.91s-1.13-3.72-1.98-5.1c-.86-1.38-1.89-2.43-3.09-3.16s-2.56-1.09-4.07-1.09c-1.66,0-3.18.36-4.58,1.09-1.39.73-2.59,1.81-3.57,3.25-.99,1.44-1.76,3.21-2.31,5.32-.55,2.11-.83,4.53-.83,7.26Z"/>
    <path d="M339.37,247.15c0-3.43-.24-6.52-.72-9.26-.48-2.75-1.23-5.06-2.24-6.95-1.02-1.89-2.3-3.34-3.86-4.36-1.55-1.02-3.39-1.53-5.51-1.53-1.8,0-3.42.38-4.86,1.15s-2.67,1.87-3.7,3.29c-1.03,1.42-1.83,3.15-2.4,5.16-.57,2.02-.88,4.26-.94,6.73h-11.81c.09-3.69.68-7.13,1.77-10.31,1.09-3.18,2.64-5.95,4.64-8.3s4.45-4.21,7.34-5.56c2.89-1.35,6.2-2.03,9.91-2.03,4.18,0,7.81.78,10.87,2.33,3.06,1.55,5.59,3.73,7.58,6.54,1.99,2.8,3.47,6.14,4.45,10.02.97,3.88,1.46,8.13,1.46,12.75,0,4.94-.49,9.44-1.46,13.51-.97,4.07-2.46,7.55-4.45,10.44-1.99,2.89-4.52,5.14-7.58,6.73-3.07,1.6-6.69,2.4-10.87,2.4-3.72,0-7.02-.62-9.91-1.85-2.89-1.23-5.35-2.94-7.37-5.12-2.02-2.18-3.57-4.77-4.64-7.78-1.08-3.01-1.66-6.28-1.74-9.83h11.81c.09,2.27.41,4.31.98,6.14.57,1.83,1.36,3.38,2.38,4.64,1.02,1.26,2.24,2.24,3.68,2.92,1.44.68,3.06,1.02,4.86,1.02,2.12,0,3.96-.54,5.51-1.63,1.55-1.09,2.84-2.64,3.86-4.64,1.02-2,1.77-4.42,2.24-7.23.48-2.82.72-5.96.72-9.41Z"/>
    <path d="M408.62,268.33c2.56,0,4.75-.16,6.58-.48,1.83-.32,3.33-.83,4.51-1.53s2.04-1.59,2.59-2.68c.55-1.09.83-2.4.83-3.94,0-2.27-.89-4.09-2.66-5.47-1.77-1.38-4.53-2.07-8.28-2.07h-7.93v-9.59h6.1c2.99,0,5.2-.6,6.62-1.81,1.42-1.21,2.14-2.94,2.14-5.21,0-1.68-.52-3.17-1.55-4.47-1.03-1.29-2.45-2.38-4.25-3.27-1.8-.89-3.92-1.55-6.34-2-2.43-.45-5.02-.68-7.78-.68-3.34,0-6.37.28-9.09.83-2.72.55-5.13,1.33-7.23,2.33-2.11,1-3.89,2.22-5.36,3.64-1.47,1.42-2.62,2.99-3.46,4.71h.3c1.16-1.02,2.58-1.79,4.25-2.33,1.67-.54,3.57-.81,5.69-.81,1.74,0,3.45.31,5.12.94,1.67.63,3.17,1.55,4.49,2.77,1.32,1.22,2.39,2.72,3.2,4.49.81,1.77,1.22,3.79,1.22,6.06,0,2.79-.48,5.27-1.44,7.43-.96,2.16-2.27,4-3.94,5.49-1.67,1.5-3.63,2.64-5.88,3.42-2.25.78-4.67,1.18-7.26,1.18-2.85,0-5.4-.53-7.65-1.59-2.25-1.06-4.15-2.51-5.69-4.34-1.54-1.83-2.72-3.97-3.53-6.41-.81-2.44-1.22-5.04-1.22-7.8,0-4.5.89-8.6,2.68-12.29s4.32-6.84,7.61-9.46c3.28-2.62,7.26-4.63,11.94-6.06,4.68-1.42,9.89-2.14,15.65-2.14,4.85,0,9.22.47,13.1,1.42,3.88.94,7.18,2.27,9.91,3.99,2.73,1.71,4.82,3.78,6.28,6.19,1.45,2.41,2.18,5.08,2.18,8.02,0,1.1-.15,2.2-.44,3.29-.29,1.09-.74,2.14-1.35,3.14-.61,1-1.39,1.93-2.35,2.77-.96.84-2.11,1.55-3.44,2.14v.26c1.68.2,3.25.66,4.68,1.37,1.44.71,2.66,1.66,3.68,2.83,1.02,1.18,1.82,2.59,2.4,4.23.58,1.64.87,3.49.87,5.56,0,2.96-.55,5.56-1.66,7.78-1.1,2.22-2.72,4.08-4.86,5.56-2.14,1.48-4.77,2.59-7.89,3.31-3.12.73-6.69,1.09-10.7,1.09h-30.59c-1.95,0-3.4.4-4.36,1.2-.96.8-1.44,1.88-1.44,3.25s.48,2.48,1.44,3.25c.96.77,2.41,1.15,4.36,1.15h49.68v9.81h-50.12c-2.73,0-5.17-.28-7.32-.85-2.15-.57-3.97-1.42-5.45-2.57-1.48-1.15-2.61-2.59-3.4-4.34-.78-1.74-1.18-3.79-1.18-6.14s.41-4.53,1.22-6.34c.81-1.82,1.98-3.33,3.49-4.55,1.51-1.22,3.31-2.14,5.4-2.75,2.09-.61,4.43-.91,7.02-.91h29.85ZM379.55,242.36c-.96,0-1.84.16-2.64.48-.8.32-1.5.77-2.09,1.35-.6.58-1.06,1.26-1.39,2.05-.33.78-.5,1.64-.5,2.57s.15,1.85.46,2.66c.3.81.74,1.53,1.31,2.14.57.61,1.26,1.09,2.07,1.44s1.71.52,2.7.52c2.09,0,3.72-.62,4.88-1.85,1.16-1.23,1.74-2.93,1.74-5.08,0-.87-.15-1.69-.44-2.46-.29-.77-.72-1.44-1.29-2s-1.26-1.01-2.07-1.33c-.81-.32-1.73-.48-2.75-.48Z"/>
    <path d="M470.55,279.93c-3.63,0-7-.57-10.11-1.72-3.11-1.15-5.8-2.77-8.06-4.88-2.27-2.11-4.05-4.66-5.34-7.67-1.29-3.01-1.94-6.37-1.94-10.09s.65-7.08,1.94-10.09c1.29-3.01,3.07-5.58,5.34-7.71s4.95-3.78,8.06-4.92,6.48-1.72,10.11-1.72,7,.57,10.11,1.72c3.11,1.15,5.8,2.79,8.06,4.92s4.05,4.71,5.34,7.71c1.29,3.01,1.94,6.37,1.94,10.09s-.65,7.04-1.94,10.05c-1.29,3.01-3.07,5.57-5.34,7.69-2.27,2.12-4.95,3.76-8.06,4.9-3.11,1.15-6.48,1.72-10.11,1.72ZM470.55,270.08c1.92,0,3.7-.36,5.36-1.07,1.66-.71,3.08-1.71,4.27-2.99,1.19-1.28,2.13-2.8,2.81-4.58.68-1.77,1.02-3.73,1.02-5.88s-.34-4.12-1.02-5.9c-.68-1.79-1.62-3.33-2.81-4.62-1.19-1.29-2.61-2.29-4.27-3.01-1.66-.71-3.44-1.07-5.36-1.07s-3.7.36-5.36,1.07c-1.66.71-3.08,1.71-4.27,3.01-1.19,1.29-2.13,2.83-2.81,4.62-.68,1.79-1.02,3.75-1.02,5.9s.34,4.11,1.02,5.88c.68,1.77,1.62,3.3,2.81,4.58,1.19,1.28,2.61,2.27,4.27,2.99,1.66.71,3.44,1.07,5.36,1.07Z"/>
  </g>
</svg>