<?xml version="1.0" encoding="UTF-8"?>
<svg id="Layer_1" data-name="Layer 1" xmlns="http://www.w3.org/2000/svg" viewBox="0 0 512 512">
  <defs>
    <style>
      .cls-1 {
        fill: #f0f0f0;
      }

      .cls-2 {
        fill: #85c2ff;
      }

      .cls-3 {
        fill: #ff9811;
      }

      .cls-4 {
        fill: #6da544;
      }
    </style>
  </defs>
  <circle class="cls-1" cx="256" cy="256" r="256"/>
  <path class="cls-3" d="M256,0C154.51,0,66.81,59.06,25.4,144.7h461.2C445.19,59.06,357.49,0,256,0Z"/>
  <path class="cls-4" d="M256,512c101.49,0,189.19-59.07,230.6-144.7H25.4c41.41,85.63,129.1,144.7,230.6,144.7Z"/>
  <circle class="cls-2" cx="256" cy="256" r="89.04"/>
  <circle class="cls-1" cx="256" cy="256" r="55.65"/>
  <polygon class="cls-2" points="256 187.33 273.17 226.26 315.47 221.66 290.34 256 315.47 290.34 273.17 285.74 256 324.67 238.83 285.74 196.53 290.34 221.66 256 196.53 221.66 238.83 226.26 256 187.33"/>
  <g>
    <path d="M69.68,167.78c-6.21,8.3-11.29,16.39-15.24,24.26-3.95,7.87-7.07,15.45-9.37,22.74-2.3,7.29-3.87,14.23-4.71,20.81-.85,6.58-1.27,12.75-1.27,18.49,0,10.87,1.22,20.04,3.65,27.5,2.43,7.46,5.6,13.49,9.52,18.08,3.92,4.59,8.36,7.88,13.32,9.88,4.96,1.99,10.01,2.99,15.14,2.99,3.92,0,7.58-.54,10.99-1.62,3.41-1.08,6.36-2.65,8.86-4.71,2.5-2.06,4.46-4.57,5.88-7.55,1.42-2.97,2.13-6.35,2.13-10.13,0-2.97-.46-5.72-1.37-8.26-.91-2.53-2.23-4.73-3.95-6.58-1.72-1.86-3.82-3.31-6.28-4.36-2.47-1.05-5.25-1.57-8.36-1.57s-5.89.51-8.56,1.52c-2.67,1.01-5.72,2.5-9.17,4.46l-9.12-18.94c6.21-2.84,11.85-5.88,16.92-9.12,5.06-3.24,9.4-6.69,13.02-10.33,3.61-3.65,6.4-7.53,8.36-11.65,1.96-4.12,2.94-8.54,2.94-13.27,0-2.43-.25-4.47-.76-6.13-.51-1.65-1.2-2.99-2.08-4s-1.89-1.74-3.04-2.18c-1.15-.44-2.33-.66-3.54-.66-1.49,0-2.91.3-4.26.91-1.35.61-2.57,1.59-3.65,2.94-1.08,1.35-1.99,3.12-2.73,5.32-.74,2.2-1.25,4.88-1.52,8.05l-21.98-3.75c.47-4.52,1.54-8.73,3.19-12.61,1.65-3.88,3.9-7.24,6.73-10.08s6.26-5.06,10.28-6.69c4.02-1.62,8.63-2.43,13.83-2.43s9.91.81,14.13,2.43c4.22,1.62,7.83,3.87,10.84,6.74,3,2.87,5.32,6.23,6.94,10.08,1.62,3.85,2.43,8,2.43,12.46,0,3.65-.52,7.29-1.57,10.94-1.05,3.65-2.55,7.24-4.51,10.79-1.96,3.54-4.31,6.97-7.04,10.28-2.73,3.31-5.79,6.45-9.17,9.42l.1.4c5.33,1.15,9.89,2.9,13.67,5.27,3.78,2.36,6.89,5.15,9.32,8.36,2.43,3.21,4.2,6.69,5.32,10.43,1.11,3.75,1.67,7.58,1.67,11.5,0,5.54-1.1,10.94-3.29,16.21-2.2,5.27-5.52,9.98-9.98,14.13-4.46,4.15-10.04,7.49-16.76,10.03-6.72,2.53-14.57,3.8-23.55,3.8-11.34,0-21.17-2.04-29.47-6.13s-15.18-9.67-20.61-16.76c-5.44-7.09-9.45-15.36-12.05-24.82-2.6-9.45-3.9-19.55-3.9-30.29,0-15.66,2.8-31.7,8.41-48.11,5.6-16.41,14.28-33.09,26.03-50.04l19.24,11.55Z"/>
    <path d="M202.47,239.08l13.07,16.91c-3.92,3.04-7.17,5.99-9.77,8.86s-4.69,5.69-6.28,8.46c-1.59,2.77-2.72,5.54-3.39,8.31-.68,2.77-1.01,5.5-1.01,8.2,0,4.12.64,7.73,1.92,10.84,1.28,3.11,3.02,5.72,5.22,7.85,2.19,2.13,4.76,3.73,7.7,4.81,2.94,1.08,6.09,1.62,9.47,1.62,2.97,0,5.67-.41,8.1-1.22,2.43-.81,4.52-1.94,6.28-3.39,1.76-1.45,3.11-3.17,4.05-5.17.94-1.99,1.42-4.2,1.42-6.63,0-1.69-.29-3.43-.86-5.22-.57-1.79-1.64-3.66-3.19-5.62l-11.55,11.55-14.69-14.08,37.27-38.19,14.89,14.28-10.94,11.44c7.23,8.44,10.84,16.95,10.84,25.52,0,4.66-.98,9.1-2.94,13.32-1.96,4.22-4.78,7.94-8.46,11.14-3.68,3.21-8.14,5.74-13.37,7.6-5.23,1.86-11.13,2.79-17.68,2.79s-13.15-1.05-18.99-3.14c-5.84-2.09-10.89-5.06-15.14-8.91-4.26-3.85-7.6-8.44-10.03-13.78-2.43-5.33-3.65-11.24-3.65-17.73,0-3.17.29-6.21.86-9.11.57-2.9,1.4-5.74,2.48-8.51-4.32-1.49-8.02-3.44-11.09-5.88-3.07-2.43-5.59-5.22-7.54-8.36-1.96-3.14-3.39-6.58-4.31-10.33s-1.37-7.71-1.37-11.9c0-8.57,1.79-16.36,5.37-23.35,3.58-6.99,8.51-12.93,14.79-17.83,6.28-4.89,13.69-8.67,22.23-11.34,8.54-2.67,17.78-4,27.7-4s18.75,1.28,27.09,3.85c8.34,2.57,15.56,6.2,21.68,10.89,6.11,4.69,10.9,10.38,14.38,17.07,3.48,6.69,5.22,14.11,5.22,22.28,0,3.24-.3,6.58-.91,10.03-.61,3.44-1.62,6.85-3.04,10.23l-23.3-6.99c.54-1.96.96-3.86,1.27-5.72.3-1.86.46-3.86.46-6.03,0-5.6-.95-10.7-2.83-15.29-1.89-4.59-4.63-8.51-8.2-11.75-3.58-3.24-7.94-5.76-13.07-7.55-5.13-1.79-10.97-2.68-17.52-2.68s-12.63.9-18.23,2.68c-5.6,1.79-10.45,4.32-14.53,7.6-4.09,3.28-7.28,7.26-9.57,11.95-2.3,4.69-3.44,9.94-3.44,15.75,0,2.3.18,4.49.56,6.58.37,2.09.93,4.02,1.67,5.77.74,1.76,1.67,3.31,2.79,4.66s2.41,2.43,3.9,3.24c2.57-3.04,5.38-5.89,8.46-8.56,3.07-2.67,6.33-5.28,9.77-7.85Z"/>
    <path d="M204.29,356.17c0-2.03.35-3.92,1.06-5.67.71-1.76,1.71-3.28,2.99-4.56s2.82-2.3,4.61-3.04c1.79-.74,3.76-1.11,5.93-1.11s4.05.37,5.87,1.11c1.82.74,3.39,1.77,4.71,3.09,1.32,1.32,2.36,2.87,3.14,4.66.78,1.79,1.17,3.73,1.17,5.82s-.35,4.02-1.06,5.77c-.71,1.76-1.72,3.26-3.04,4.51-1.32,1.25-2.87,2.23-4.66,2.94-1.79.71-3.73,1.06-5.82,1.06s-4.05-.36-5.87-1.06-3.39-1.72-4.71-3.04-2.36-2.85-3.14-4.61c-.77-1.76-1.16-3.72-1.16-5.88Z"/>
    <path d="M266.28,171.43c-8.17-4.46-16.07-7.63-23.7-9.52-7.63-1.89-15.09-2.84-22.38-2.84s-14.74.93-22.74,2.79c-8,1.86-16.26,5.05-24.77,9.57l-8.41-14.79c3.71-2.43,7.8-4.59,12.26-6.48,4.46-1.89,9.08-3.49,13.88-4.81,4.79-1.32,9.72-2.33,14.79-3.04,5.06-.71,10.06-1.06,14.99-1.06,9.59,0,19.19,1.32,28.82,3.95,9.62,2.63,18.52,6.55,26.69,11.75l-9.42,14.49Z"/>
    <path d="M342.04,207.38c0-3.58-.73-6.08-2.18-7.5-1.45-1.42-3.19-2.13-5.22-2.13-1.42,0-2.63.24-3.65.71-1.01.47-1.84,1.11-2.48,1.92-.64.81-1.1,1.72-1.37,2.73-.27,1.01-.4,2.06-.4,3.14,0,2.36.66,4.91,1.97,7.65,1.32,2.73,2.89,5.28,4.71,7.65l-18.64,12.16c-3.44-4.05-6.25-8.46-8.41-13.22-2.16-4.76-3.24-9.5-3.24-14.23,0-3.65.71-7.12,2.13-10.43,1.42-3.31,3.46-6.21,6.13-8.71,2.67-2.5,5.89-4.49,9.67-5.98,3.78-1.49,8.04-2.23,12.76-2.23,4.25,0,7.88.66,10.89,1.98,3,1.32,5.72,3.26,8.15,5.82h.4c2.23-2.5,4.93-4.42,8.1-5.77,3.17-1.35,6.82-2.03,10.94-2.03,4.32,0,8.39.69,12.21,2.08,3.81,1.38,7.12,3.49,9.93,6.33,2.8,2.84,5.01,6.42,6.63,10.74,1.62,4.32,2.43,9.39,2.43,15.19,0,7.5-1.32,13.93-3.95,19.3s-6.01,9.96-10.13,13.78c-4.12,3.82-8.65,7.02-13.57,9.62-4.93,2.6-9.72,4.91-14.38,6.94-2.97,1.28-6.08,2.68-9.32,4.2-3.24,1.52-6.21,3.33-8.91,5.42-2.7,2.09-4.91,4.58-6.63,7.44-1.72,2.87-2.58,6.26-2.58,10.18s.81,7.26,2.43,10.23,3.93,5.47,6.94,7.49c3,2.03,6.6,3.56,10.79,4.61,4.19,1.05,8.85,1.57,13.98,1.57,6.95,0,13.42-1.1,19.4-3.29,5.98-2.19,11.14-5.2,15.5-9.01,4.36-3.81,7.76-8.31,10.23-13.47,2.46-5.17,3.7-10.75,3.7-16.76v-92.58h25.32v151.02h-25.32v-15.5l-.4-.1c-2.57,2.43-5.49,4.75-8.76,6.94-3.28,2.19-6.97,4.1-11.09,5.72s-8.66,2.92-13.62,3.9c-4.96.98-10.42,1.47-16.36,1.47-10.67,0-19.7-1.2-27.09-3.6-7.39-2.4-13.39-5.57-17.98-9.52-4.59-3.95-7.94-8.44-10.03-13.47-2.09-5.03-3.14-10.18-3.14-15.45,0-6.28,1.17-11.72,3.49-16.31s5.42-8.63,9.27-12.1c3.85-3.48,8.22-6.5,13.12-9.07,4.89-2.57,9.94-4.93,15.14-7.09,3.58-1.49,7.14-3.09,10.69-4.81s6.72-3.83,9.52-6.33c2.8-2.5,5.08-5.54,6.84-9.12,1.75-3.58,2.63-8,2.63-13.27,0-9.99-2.8-14.99-8.41-14.99-1.62,0-3.06.66-4.3,1.98-1.25,1.32-1.87,3.9-1.87,7.75v19.65h-22.59v-19.24ZM470.68,178.92h25.32v151.02h-25.32v-151.02Z"/>
  </g>
</svg>