<?xml version="1.0" encoding="UTF-8"?>
<svg id="Layer_1" data-name="Layer 1" xmlns="http://www.w3.org/2000/svg" viewBox="0 0 512 512">
  <defs>
    <style>
      .cls-1 {
        fill: #f0f0f0;
      }

      .cls-2 {
        fill: #85c2ff;
      }

      .cls-3 {
        fill: #ff9811;
      }

      .cls-4 {
        fill: #6da544;
      }
    </style>
  </defs>
  <circle class="cls-1" cx="256" cy="256" r="256"/>
  <path class="cls-3" d="M256,0C154.51,0,66.81,59.06,25.4,144.7h461.2C445.19,59.06,357.49,0,256,0Z"/>
  <path class="cls-4" d="M256,512c101.49,0,189.19-59.07,230.6-144.7H25.4c41.41,85.63,129.1,144.7,230.6,144.7Z"/>
  <circle class="cls-2" cx="256" cy="256" r="89.04"/>
  <circle class="cls-1" cx="256" cy="256" r="55.65"/>
  <polygon class="cls-2" points="256 187.33 273.17 226.26 315.47 221.66 290.34 256 315.47 290.34 273.17 285.74 256 324.67 238.83 285.74 196.53 290.34 221.66 256 196.53 221.66 238.83 226.26 256 187.33"/>
  <g>
    <path d="M60.32,219.97c3.86,6.11,6.57,12.08,8.12,17.93,1.56,5.85,2.33,11.48,2.33,16.89,0,6.57-.94,12.77-2.81,18.62-1.87,5.85-4.39,11.71-7.56,17.58,3.34,4.03,7.01,6.94,11.02,8.72,4,1.79,8.08,2.68,12.22,2.68s8.35-.79,12.44-2.38c4.09-1.58,7.95-3.84,11.58-6.78v-73.26h36.46v19.44h-13.91v109.37h-22.55v-33.43c-4.15,2.25-8.37,3.89-12.66,4.92-4.29,1.04-8.37,1.56-12.22,1.56-4.95,0-9.73-.76-14.34-2.29-4.61-1.53-9-3.61-13.17-6.26-4.18-2.65-8.09-5.76-11.75-9.33-3.66-3.57-6.98-7.4-9.98-11.49,2.02-2.42,3.93-5.17,5.75-8.25,1.81-3.08,3.41-6.33,4.79-9.76,1.38-3.43,2.48-6.9,3.28-10.41.81-3.51,1.21-6.91,1.21-10.19,0-2.48-.25-4.98-.73-7.52-.49-2.53-1.31-4.84-2.46-6.91h-29.37v-19.44h44.32Z"/>
    <path d="M125.81,210.47c1.56-2.65,2.82-5.41,3.8-8.29.98-2.88,1.47-5.73,1.47-8.55,0-1.78-.23-3.44-.69-4.97-.46-1.53-1.17-2.85-2.12-3.97-.95-1.12-2.17-2.02-3.67-2.68-1.5-.66-3.28-.99-5.36-.99s-3.89.33-5.44.99c-1.56.66-2.85,1.56-3.89,2.68-1.04,1.12-1.8,2.46-2.29,4.02-.49,1.56-.73,3.23-.73,5.01,0,2.82.5,5.72,1.51,8.68,1.01,2.97,2.26,5.66,3.76,8.08h-17.11c-2.42-3.17-4.13-6.36-5.14-9.59-1.01-3.23-1.51-6.51-1.51-9.85,0-3.8.65-7.39,1.94-10.76,1.3-3.37,3.21-6.32,5.75-8.86,2.53-2.53,5.69-4.54,9.46-6s8.16-2.2,13.17-2.2,9.34.73,13.17,2.2,7.04,3.47,9.63,6c2.59,2.53,4.56,5.5,5.92,8.9,1.35,3.4,2.03,7.03,2.03,10.89,0,3.11-.49,6.31-1.47,9.59-.98,3.28-2.68,6.51-5.1,9.68h-17.11Z"/>
    <path d="M271.12,219.97v19.44h-13.91v109.37h-22.55v-49.68h-41.47v49.68h-22.55v-49.68h-8.55c-1.73,0-3.31-.11-4.75-.34-1.44-.23-2.65-.63-3.63-1.21-.98-.57-1.74-1.37-2.29-2.38-.55-1.01-.82-2.32-.82-3.93,0-1.73.49-3.79,1.47-6.18.98-2.39,2.3-4.85,3.97-7.39s3.64-5.05,5.92-7.56c2.27-2.51,4.68-4.74,7.21-6.7,2.53-1.96,5.15-3.54,7.86-4.75,2.71-1.21,5.36-1.81,7.95-1.81,2.99,0,5.11.99,6.35,2.98,1.24,1.99,1.86,4.8,1.86,8.42v10.63h41.47v-39.48h-96.59v-19.44h133.05Z"/>
    <path d="M309.65,239.41v65.05h-22.55v-65.05h-22.03v-19.44h59.01v19.44h-14.43Z"/>
    <path d="M445.29,219.97v19.44h-13.05v109.37h-22.55v-20.48c-1.79.69-3.49,1.28-5.1,1.77-1.61.49-3.21.89-4.8,1.21-1.58.32-3.21.55-4.88.69-1.67.14-3.46.22-5.36.22-4.26,0-8.51-.68-12.74-2.03-4.23-1.35-8.28-3.11-12.14-5.27-3.86-2.16-7.5-4.59-10.93-7.3-3.43-2.71-6.47-5.46-9.11-8.25-2.65-2.79-4.88-5.47-6.7-8.04-1.81-2.56-3.04-4.77-3.67-6.61,1.15-1.56,2.61-3.27,4.36-5.14,1.76-1.87,3.69-3.74,5.79-5.61,2.1-1.87,4.32-3.67,6.65-5.4,2.33-1.73,4.68-3.25,7.04-4.58-5.3-3.57-9.89-8.21-13.78-13.91-3.89-5.7-6.75-12.58-8.6-20.65h-17.97v-19.44h127.52ZM359.84,239.41c1.21,4.03,2.91,7.68,5.1,10.93,2.19,3.25,4.8,6.02,7.82,8.29,3.02,2.28,6.41,4.03,10.15,5.27,3.74,1.24,7.8,1.86,12.18,1.86h14.6v-26.35h-49.85ZM389.3,285.2c-2.19,0-4.48.37-6.87,1.12-2.39.75-4.74,1.73-7.04,2.94-2.3,1.21-4.54,2.58-6.7,4.1-2.16,1.53-4.1,3.07-5.83,4.62,1.56,1.73,3.33,3.47,5.31,5.23,1.99,1.76,4.19,3.33,6.61,4.71s5.01,2.52,7.78,3.41c2.76.89,5.67,1.34,8.72,1.34,3.46,0,6.8-.56,10.02-1.68,3.23-1.12,6.02-2.49,8.38-4.1v-21.68h-20.39Z"/>
    <path d="M402.52,206.76c.17-5.01,1.08-9.76,2.72-14.25s4.1-8.45,7.39-11.88c3.28-3.43,7.44-6.13,12.48-8.12,5.04-1.99,11.1-2.98,18.19-2.98,5.18,0,10.12.63,14.82,1.9,4.69,1.27,8.81,3.36,12.35,6.26,3.54,2.91,6.36,6.75,8.47,11.53,2.1,4.78,3.15,10.68,3.15,17.71v13.05h13.91v19.44h-13.91v109.37h-22.55v-109.37h-19.44v-19.44h19.44v-13.74c0-3.57-.43-6.51-1.3-8.81-.86-2.3-2-4.12-3.41-5.44-1.41-1.32-3.05-2.25-4.92-2.76-1.87-.52-3.84-.78-5.92-.78-3.23,0-5.98.49-8.25,1.47-2.27.98-4.18,2.29-5.7,3.93-1.53,1.64-2.68,3.58-3.46,5.83-.78,2.25-1.25,4.61-1.43,7.08h-22.64Z"/>
  </g>
</svg>