<?xml version="1.0" encoding="UTF-8"?>
<svg id="Layer_1" data-name="Layer 1" xmlns="http://www.w3.org/2000/svg" viewBox="0 0 512 512">
  <defs>
    <style>
      .cls-1 {
        fill: #ffda44;
      }

      .cls-2 {
        fill: #f0f0f0;
      }

      .cls-3 {
        fill: #d80027;
      }

      .cls-4 {
        fill: #0052b4;
      }

      .cls-5 {
        fill: #6da544;
      }
    </style>
  </defs>
  <g>
    <path class="cls-5" d="M189.22,256l-5.41,58.31-1.41,15.29-15.44,15.44h0s-.01.01-.01.01l-91.96,91.96C28.65,390.69,0,326.69,0,256,0,145.93,69.47,52.1,166.96,15.93l14.11,152.15,4.02,43.4,4.13,44.52Z"/>
    <path class="cls-3" d="M437.02,74.98l-181.02,181.02-33.39,33.39-40.21,40.21-15.44,15.44V15.93C194.69,5.64,224.69,0,256,0c70.7,0,134.7,28.66,181.02,74.98Z"/>
    <path class="cls-1" d="M256,256l-33.39,33.39-40.21,40.21-15.44,15.44h0s-.01.01-.01.01c-49.18-.01-89.03-39.87-89.03-89.05s39.86-89.04,89.04-89.04c4.8,0,9.52.38,14.11,1.12,42.48,6.76,74.93,43.55,74.93,87.92Z"/>
    <path class="cls-3" d="M116.87,211.48v55.65c0,27.66,22.42,50.09,50.09,50.09s50.09-22.42,50.09-50.09v-55.65h-100.17Z"/>
    <path class="cls-2" d="M166.96,283.83c-9.21,0-16.7-7.49-16.7-16.7v-22.26h33.39v22.26c0,9.21-7.49,16.7-16.7,16.7Z"/>
  </g>
  <g>
    <path class="cls-5" d="M512,256c0,1.84-.02,3.68-.06,5.51-.01.71-.03,1.42-.05,2.12-.04,1.25-.08,2.51-.14,3.76-.01.16-.01.33-.02.5-.01.25-.02.51-.04.77-.02.42-.05.85-.07,1.27-.04.72-.08,1.44-.12,2.16-.09,1.44-.19,2.87-.31,4.3-.09,1.22-.19,2.44-.31,3.65-.12,1.32-.25,2.64-.4,3.95-.07.65-.14,1.31-.22,1.97-.07.65-.15,1.31-.24,1.96-.05.49-.12.98-.18,1.47h-.01c-.25,1.99-.52,3.98-.84,5.96-.19,1.2-.38,2.4-.58,3.59-.11.68-.23,1.35-.35,2.02-.1.59-.2,1.17-.32,1.76-.22,1.22-.45,2.44-.7,3.65-.24,1.21-.49,2.42-.75,3.63-.15.72-.31,1.43-.47,2.15-.12.56-.25,1.11-.38,1.66-.26,1.14-.53,2.27-.81,3.4-.14.6-.29,1.2-.45,1.79-.15.6-.31,1.2-.46,1.79-.26,1.02-.54,2.03-.81,3.05-.06.24-.12.47-.2.71-.32,1.15-.64,2.29-.97,3.43-.34,1.14-.68,2.28-1.03,3.42-.36,1.17-.73,2.33-1.1,3.49-.53,1.64-1.09,3.28-1.65,4.9-.41,1.18-.83,2.35-1.25,3.52-.07.19-.14.39-.22.58-.16.45-.32.9-.49,1.35-.31.85-.63,1.69-.95,2.53-.39,1.01-.78,2.01-1.18,3.02-.09.26-.2.52-.31.78-.29.71-.57,1.42-.87,2.12-.26.66-.53,1.3-.81,1.95-.24.57-.48,1.14-.74,1.72-4.38,10.18-9.41,20.01-15.04,29.45-.24.41-.5.81-.74,1.22-.17.28-.34.56-.52.84-.21.36-.43.72-.65,1.08-.2.33-.41.66-.62.99-.71,1.14-1.43,2.28-2.16,3.42-.13.2-.25.41-.39.61-.27.43-.56.86-.85,1.29-.93,1.42-1.87,2.83-2.83,4.23-.21.3-.4.59-.61.89-.12.16-.23.33-.34.49-.08.13-.18.25-.27.38-.64.93-1.3,1.86-1.96,2.78-.02.03-.05.07-.08.11-.96,1.35-1.95,2.7-2.94,4.03-.34.46-.7.92-1.05,1.38-.06.07-.11.15-.17.22-.1.14-.21.28-.32.42-1,1.31-2,2.6-3.03,3.89-.07.1-.15.19-.23.29-.73.91-1.46,1.82-2.2,2.73-.73.9-1.48,1.8-2.23,2.69-.48.58-.96,1.15-1.46,1.72-.13.16-.28.32-.42.48-.13.15-.26.3-.39.45-.02.03-.05.06-.07.09-.06.06-.11.13-.18.19-.63.73-1.27,1.47-1.92,2.19-.45.51-.9,1.03-1.36,1.54-.46.51-.92,1.01-1.39,1.52l-1.89,2.04c-.06.08-.13.15-.21.22-1.58,1.7-3.2,3.38-4.85,5.03-4.1,4.14-8.34,8.14-12.72,11.98-.88.77-1.76,1.53-2.64,2.29-.88.77-1.77,1.52-2.67,2.25-1.07.9-2.16,1.8-3.25,2.68-.01.01-.02.01-.03.02-1.01.81-2.03,1.62-3.06,2.42-.25.21-.51.41-.77.6-.53.42-1.07.83-1.61,1.24-.28.22-.56.43-.85.64-.57.44-1.14.87-1.72,1.29-.31.24-.63.48-.95.7-.61.45-1.22.9-1.84,1.34-.49.36-.98.71-1.47,1.06-.48.35-.97.7-1.47,1.03-.54.39-1.09.77-1.64,1.14-.28.21-.57.41-.87.6-.7.49-1.41.97-2.13,1.44-.41.28-.82.55-1.23.82-1.14.75-2.28,1.49-3.43,2.22-.31.21-.63.41-.95.6-.93.6-1.86,1.18-2.8,1.74-1.18.74-2.37,1.45-3.57,2.15t-.01.01c-.07.04-.13.08-.2.12-1.47.88-2.95,1.73-4.45,2.56-.44.26-.88.51-1.32.74-1.12.64-2.26,1.26-3.4,1.86-.59.33-1.19.64-1.79.95-.37.2-.75.4-1.13.59-.78.41-1.56.81-2.35,1.2-.37.2-.75.39-1.13.57-.94.48-1.89.95-2.84,1.4-2.27,1.11-4.57,2.18-6.88,3.21-.78.35-1.57.7-2.36,1.04-.88.39-1.77.76-2.67,1.14-.07.03-.14.06-.22.09-.38.17-.75.32-1.13.48-.56.24-1.12.47-1.69.7-.75.31-1.51.62-2.27.91-1.47.59-2.95,1.16-4.44,1.71-1.4.53-2.8,1.05-4.21,1.54-.4.14-.8.28-1.2.42-.4.15-.81.29-1.21.42-.61.21-1.22.42-1.83.62-1.42.48-2.84.95-4.28,1.39-1.43.45-2.87.89-4.31,1.32-.72.22-1.44.43-2.17.63-.72.21-1.45.41-2.17.61-1.45.41-2.91.8-4.37,1.17-.55.14-1.1.28-1.65.42-1.03.26-2.06.52-3.11.76-1.35.33-2.71.64-4.08.93l-1.11.24c-.37.09-.74.17-1.12.24-.74.16-1.49.31-2.23.46-1.49.31-2.98.59-4.49.86-.99.19-1.99.37-3,.53-.5.09-1.01.17-1.52.26-1.51.25-3.02.48-4.54.7-.76.11-1.52.22-2.28.32-.23.04-.46.07-.7.09-.54.08-1.09.15-1.64.22-3.03.39-6.09.72-9.16,1-.56.05-1.11.1-1.66.14-.83.08-1.67.14-2.5.2-.73.06-1.45.11-2.18.15-1.16.08-2.32.15-3.49.21-.13.01-.27.01-.4.02-.27.02-.54.03-.81.04-.68.04-1.36.07-2.04.09-.16.01-.31.02-.46.02-.28.01-.56.02-.84.03-.66.03-1.31.05-1.97.06-.45.02-.91.03-1.36.04-.7,0-1.41.03-2.11.03-1.2.02-2.41.03-3.62.03s-2.44-.01-3.65-.03c-.9-.01-1.79-.03-2.69-.05-.38-.01-.77-.02-1.15-.03-.44,0-.88-.02-1.33-.04-.91-.03-1.82-.07-2.72-.11-.37-.01-.75-.03-1.12-.05-.44-.02-.89-.05-1.33-.07-2.61-.14-5.21-.32-7.79-.54-.79-.06-1.58-.13-2.37-.21-.32-.02-.63-.05-.94-.09-.6-.06-1.19-.12-1.79-.18-.68-.07-1.36-.14-2.04-.22-1.23-.14-2.46-.29-3.68-.44-.2-.02-.4-.05-.59-.08-.41-.04-.81-.1-1.21-.16-1.54-.2-3.06-.42-4.59-.65-1.96-.3-3.91-.62-5.86-.97-3.31-.58-6.6-1.23-9.86-1.94-1.83-.4-3.65-.81-5.46-1.26-1.15-.28-2.3-.56-3.44-.85-1.15-.29-2.29-.59-3.43-.9-.71-.19-1.42-.39-2.13-.59-.69-.19-1.38-.39-2.07-.59-4.15-1.19-8.26-2.5-12.31-3.9-.51-.17-1.02-.35-1.52-.53-.42-.14-.83-.29-1.25-.44-.15-.05-.3-.11-.45-.16-.42-.15-.83-.31-1.25-.46-.54-.19-1.07-.39-1.6-.59-4.35-1.62-8.65-3.37-12.89-5.22-.95-.42-1.9-.84-2.84-1.27-.38-.17-.77-.34-1.15-.52-.18-.08-.35-.16-.53-.24l-1.29-.6c-1.57-.74-3.13-1.49-4.68-2.25-.26-.12-.52-.25-.77-.38-.92-.46-1.85-.92-2.77-1.4-.92-.47-1.83-.94-2.74-1.42h-.01c-.92-.49-1.83-.97-2.73-1.47-4.76-2.58-9.42-5.31-13.99-8.18-.56-.35-1.11-.7-1.66-1.06-3.57-2.27-7.08-4.64-10.52-7.09-.14-.1-.27-.19-.41-.29-1.22-.87-2.44-1.76-3.65-2.66-.5-.36-.99-.73-1.48-1.11-.16-.11-.33-.24-.49-.37-.01.01-.01,0-.02,0-.91-.69-1.81-1.38-2.71-2.09-.37-.28-.74-.56-1.1-.85-.44-.34-.88-.69-1.31-1.05-.43-.34-.85-.68-1.28-1.02-.74-.59-1.47-1.19-2.2-1.79-.29-.23-.57-.47-.86-.72-.72-.6-1.43-1.2-2.14-1.8-.15-.12-.29-.24-.43-.37-.22-.19-.44-.39-.67-.58-.19-.16-.39-.33-.59-.5-.2-.17-.4-.34-.6-.52-.57-.49-1.14-1-1.71-1.5-.96-.85-1.91-1.71-2.86-2.58-.09-.08-.18-.16-.27-.25-.68-.62-1.36-1.25-2.04-1.89-2.03-1.9-4.04-3.84-6.01-5.81l118.06-118.06c.06.06.12.12.19.18-.06-.06-.12-.13-.18-.19l62.05-62.05,26.1-26.1,37.76-37.76h.01l26.75-26.76,91.3-91.3c.86.86,1.71,1.73,2.56,2.6.85.87,1.69,1.75,2.52,2.63.81.85,1.61,1.71,2.4,2.58.06.06.12.12.17.18.55.6,1.1,1.21,1.65,1.81.41.46.82.92,1.23,1.38.68.76,1.35,1.53,2.02,2.31.67.77,1.34,1.55,2,2.33.74.87,1.47,1.74,2.18,2.62,1.38,1.66,2.72,3.35,4.05,5.05.5.63.99,1.27,1.48,1.91.63.81,1.25,1.63,1.86,2.45.22.29.44.59.65.88.59.79,1.17,1.59,1.75,2.39.05.06.1.13.14.19.37.5.73,1.01,1.09,1.52.43.6.85,1.2,1.26,1.8.44.61.86,1.22,1.27,1.83.64.92,1.26,1.84,1.87,2.77.1.14.2.28.29.42.59.89,1.17,1.78,1.75,2.69.24.36.47.71.7,1.07.47.74.94,1.49,1.41,2.24.38.6.75,1.2,1.11,1.8.41.66.81,1.32,1.2,1.98.31.51.62,1.02.92,1.54.35.58.69,1.17,1.02,1.76.48.79.93,1.59,1.37,2.39.81,1.41,1.6,2.83,2.36,4.26.43.78.85,1.56,1.26,2.35.25.47.5.95.75,1.43.01.01.02.03.02.04.08.15.16.3.23.45.15.28.29.55.43.83.31.61.63,1.23.93,1.84.16.31.32.62.47.93.6,1.2,1.19,2.42,1.77,3.64.73,1.51,1.44,3.04,2.13,4.57.55,1.2,1.08,2.41,1.6,3.62.09.18.16.35.23.53.61,1.39,1.2,2.79,1.77,4.2.43,1.03.85,2.07,1.26,3.12.64,1.6,1.26,3.21,1.86,4.83.31.83.61,1.66.91,2.49.05.15.11.3.16.45.15.42.3.83.44,1.25.26.73.51,1.46.77,2.2,2.12,6.2,4.01,12.51,5.66,18.92.26,1.02.51,2.03.76,3.05,1.03,4.23,1.96,8.51,2.78,12.82.18.92.35,1.84.51,2.77.52,2.88.99,5.79,1.4,8.71.11.73.21,1.46.3,2.2.05.34.1.69.14,1.04.11.89.23,1.78.33,2.68.11.89.21,1.78.31,2.67.15,1.36.29,2.73.42,4.1.05.59.11,1.18.15,1.78.4,4.57.67,9.17.81,13.8.02.3.03.6.03.9.02.64.04,1.29.05,1.93.02.63.03,1.25.03,1.88.01.22.01.43.01.65.01.99.02,1.98.02,2.97Z"/>
    <path class="cls-1" d="M467.48,256l-211.48,155.83-89.72-66.11,26.76-26.76c.06.06.12.12.19.18-.06-.06-.12-.13-.18-.19l62.05-62.05,26.1-26.1,37.76-37.76h.01l26.75-26.76,121.76,89.72Z"/>
    <path class="cls-2" d="M345.04,256c0,2.31-.09,4.59-.26,6.85-.06.75-.12,1.49-.2,2.22-.1.97-.21,1.93-.35,2.89-.04.41-.1.81-.17,1.21-.09.59-.18,1.17-.28,1.75-.12.72-.25,1.43-.39,2.14-1.63,8.47-4.47,16.5-8.32,23.92-1.82,3.51-3.9,6.87-6.16,10.09,0,0,0,0,.01.01-.15.22-.32.43-.47.65-.38.53-.77,1.07-1.16,1.59-.76,1.01-1.53,2.01-2.33,2.99-1.39,1.7-2.83,3.34-4.33,4.92-.6.64-1.21,1.26-1.83,1.88-.62.62-1.25,1.22-1.89,1.82-.63.6-1.28,1.19-1.94,1.77-.65.58-1.31,1.15-1.98,1.71-.67.55-1.34,1.1-2.02,1.64-.01,0-.02,0-.02.01-.68.53-1.36,1.05-2.05,1.56-.05.03-.09.07-.14.1-.67.5-1.35.98-2.04,1.46-.72.5-1.44.99-2.18,1.47-1.47.97-2.97,1.88-4.5,2.75-.76.43-1.53.86-2.31,1.27-.63.34-1.27.67-1.91.99-.41.2-.81.4-1.22.6-.51.25-1.04.5-1.56.73-.02.01-.04.02-.06.03-.34.16-.68.31-1.03.46-1.75.78-3.53,1.5-5.33,2.16-.69.25-1.37.49-2.06.72-.69.24-1.38.46-2.08.68-1.83.57-3.69,1.08-5.56,1.53-1.26.3-2.52.58-3.79.83-1.91.37-3.84.68-5.79.93-.46.06-.93.12-1.39.17-3.27.36-6.59.54-9.95.54-5.14,0-10.19-.43-15.09-1.27-1.64-.28-3.26-.6-4.86-.97-.06-.01-.11-.02-.16-.04-.72-.16-1.43-.34-2.14-.52-.72-.18-1.42-.38-2.13-.58-.7-.2-1.4-.4-2.1-.62s-1.39-.44-2.08-.68c-1.44-.48-2.85-1-4.25-1.56-.62-.24-1.24-.5-1.85-.76-.87-.36-1.72-.74-2.57-1.14-.46-.2-.92-.42-1.37-.64-2.17-1.04-4.29-2.17-6.35-3.38-.41-.24-.82-.48-1.22-.73-.61-.37-1.22-.75-1.82-1.14-.49-.31-.97-.62-1.45-.95-.45-.3-.9-.6-1.34-.92-1.91-1.32-3.77-2.72-5.57-4.2-.52-.42-1.03-.85-1.54-1.29-.46-.4-.92-.8-1.38-1.21-.09-.08-.19-.16-.29-.25-.5-.46-.99-.91-1.48-1.38-.51-.48-1.01-.96-1.51-1.46-.01,0-.02-.01-.02-.02-.07-.06-.13-.12-.2-.19-.06-.06-.12-.13-.18-.19l62.05-62.05,26.1-26.1,37.76-37.76c1.51,1.51,2.97,3.07,4.37,4.69.94,1.08,1.84,2.17,2.72,3.3,1.32,1.68,2.59,3.41,3.79,5.18.8,1.19,1.57,2.39,2.31,3.62,1.12,1.83,2.17,3.71,3.15,5.63,6.23,12.16,9.74,25.94,9.74,40.54Z"/>
    <g>
      <path class="cls-4" d="M328.92,307.08c-1.26,1.79-2.58,3.54-3.96,5.23-1.39,1.7-2.83,3.34-4.33,4.92-.6.64-1.21,1.26-1.83,1.88-.62.62-1.25,1.22-1.89,1.82-.63.6-1.28,1.19-1.94,1.77-.65.58-1.31,1.15-1.98,1.71-.67.55-1.34,1.1-2.02,1.64-.01,0-.02,0-.02.01-.68.53-1.36,1.05-2.05,1.56-.05.03-.09.07-.14.1-.67.5-1.35.98-2.04,1.46-.72.5-1.44.99-2.18,1.47-1.47.96-2.97,1.87-4.5,2.75-.76.43-1.53.86-2.31,1.27-.63.34-1.27.67-1.91.99-.41.2-.81.4-1.22.6-.51.25-1.04.5-1.56.73-.02.01-.04.02-.06.03-.34.16-.68.31-1.03.46-1.75.78-3.53,1.5-5.33,2.16-.69.25-1.37.49-2.06.72-.69.24-1.38.46-2.08.68-1.83.57-3.69,1.08-5.56,1.53-1.26.31-2.52.58-3.79.83-1.91.37-3.84.68-5.79.93-.46.06-.93.12-1.39.17-3.27.37-6.59.55-9.95.55-5.14,0-10.19-.44-15.09-1.28-1.64-.28-3.26-.6-4.86-.97-.06-.01-.11-.02-.16-.04-.72-.16-1.43-.34-2.14-.52-.72-.18-1.42-.38-2.13-.58-.7-.2-1.4-.4-2.1-.62s-1.39-.44-2.08-.68c-1.44-.48-2.85-1-4.25-1.56-.62-.24-1.24-.5-1.85-.76-.87-.36-1.72-.74-2.57-1.14-.46-.2-.92-.42-1.37-.64-2.17-1.04-4.29-2.17-6.35-3.38-.41-.24-.82-.48-1.22-.73-.61-.37-1.22-.75-1.82-1.14-.49-.31-.97-.62-1.45-.95-.45-.3-.9-.6-1.34-.92-1.91-1.32-3.77-2.72-5.57-4.2-.52-.42-1.03-.85-1.54-1.29-.46-.4-.92-.8-1.38-1.21-.09-.08-.19-.16-.29-.25-.5-.46-.99-.91-1.48-1.38-.51-.48-1.01-.96-1.51-1.46-.01,0-.02-.01-.02-.02-.07-.06-.13-.12-.2-.19-.06-.06-.12-.13-.18-.19l62.05-62.05c29.43,8.94,55.06,26.7,73.82,50.18Z"/>
      <path class="cls-4" d="M345.05,256c0,2.31-.09,4.59-.27,6.85-.06.75-.12,1.49-.2,2.22-.1.97-.21,1.93-.35,2.89-.04.41-.1.81-.17,1.21-.19,1.31-.42,2.6-.67,3.89-17.47-18.05-38.61-32.55-62.19-42.26l37.76-37.76h0c16.11,16.11,26.08,38.37,26.08,62.96Z"/>
    </g>
  </g>
</svg>