<?xml version="1.0" encoding="UTF-8"?>
<svg id="Layer_1" data-name="Layer 1" xmlns="http://www.w3.org/2000/svg" viewBox="0 0 512 512">
  <defs>
    <style>
      .cls-1 {
        fill: #f0f0f0;
      }

      .cls-2 {
        fill: #85c2ff;
      }

      .cls-3 {
        fill: #ff9811;
      }

      .cls-4 {
        fill: #6da544;
      }
    </style>
  </defs>
  <circle class="cls-1" cx="256" cy="256" r="256"/>
  <path class="cls-3" d="M256,0C154.51,0,66.81,59.06,25.4,144.7h461.2C445.19,59.06,357.49,0,256,0Z"/>
  <path class="cls-4" d="M256,512c101.49,0,189.19-59.07,230.6-144.7H25.4c41.41,85.63,129.1,144.7,230.6,144.7Z"/>
  <circle class="cls-2" cx="256" cy="256" r="89.04"/>
  <circle class="cls-1" cx="256" cy="256" r="55.65"/>
  <polygon class="cls-2" points="256 187.33 273.17 226.26 315.47 221.66 290.34 256 315.47 290.34 273.17 285.74 256 324.67 238.83 285.74 196.53 290.34 221.66 256 196.53 221.66 238.83 226.26 256 187.33"/>
  <g id="layer1">
    <g id="text4136">
      <path id="path4141" d="M30.02,296.41c2.5,7.49,7.96,13.24,16.37,17.25,8.48,3.95,19.34,5.92,32.57,5.92,14.46,0,25.9-2.32,34.32-6.97,8.42-4.7,13.59-11.53,15.5-20.47-5.17,4.82-11.44,7.23-18.81,7.23s-12.72-1.97-17.07-5.92c-4.3-4.01-6.45-9.32-6.45-15.94,0-4.99,1.6-9.38,4.79-13.15,3.19-3.83,7.49-6.27,12.89-7.32-4.65-1.22-10.66-1.83-18.03-1.83l4.01-13.06c17.3,2.44,30.28,7.49,38.93,15.16,8.71,7.61,13.06,17.83,13.06,30.66,0,14.11-5.37,25.26-16.11,33.45-10.68,8.13-26.04,12.19-46.08,12.19s-36.06-4.01-47.21-12.02c-11.15-8.07-16.72-18.93-16.72-32.57,0-10.39,3.05-18.9,9.15-25.52,6.1-6.68,13.91-10.02,23.43-10.02,7.37,0,13.18,2,17.42,6.01,4.3,4.01,6.45,9.32,6.45,15.94,0,7.37-2.53,13.21-7.58,17.51-4.99,4.3-11.87,6.45-20.64,6.45-5.46,0-10.19-.99-14.2-2.96ZM29.15,283.35c3.83,2.38,8.13,3.57,12.89,3.57,10.8,0,16.2-3.8,16.2-11.41,0-3.08-.93-5.4-2.79-6.97-1.86-1.63-4.44-2.44-7.75-2.44-4.76,0-8.8,1.51-12.11,4.53-3.25,3.02-5.4,7.26-6.45,12.72ZM128.01,276.03c-1.63-3.14-3.8-5.57-6.53-7.32-2.73-1.74-5.75-2.61-9.06-2.61-3.48,0-6.33.93-8.54,2.79-2.21,1.8-3.31,4.35-3.31,7.66s1.02,5.72,3.05,7.58c2.09,1.86,4.99,2.79,8.71,2.79s7.05-.96,9.84-2.87,4.73-4.59,5.84-8.01ZM79.06,335.7h0ZM148.48,335.7h0ZM79.15,255.65h0ZM31.16,222.99v-13.41h69.33c7.03,0,12.37.46,16.03,1.39,3.72.93,6.82,2.41,9.32,4.44,2.5,2.03,4.35,4.44,5.57,7.23,1.28,2.73,1.92,6.1,1.92,10.1,0,3.48-.7,6.82-2.09,10.02-1.39,3.14-3.45,5.66-6.18,7.58-2.73,1.92-5.95,3.28-9.67,4.09-3.66.81-8.62,1.22-14.89,1.22h-17.94v-13.41h20.03c4.59,0,7.9-.32,9.93-.96,2.09-.7,3.63-1.74,4.62-3.14,1.05-1.45,1.57-3.22,1.57-5.31,0-2.44-.61-4.44-1.83-6.01-1.16-1.57-2.76-2.58-4.79-3.05-1.97-.52-4.94-.78-8.88-.78H31.16Z"/>
      <path id="path4143" d="M168.94,285.35c.52,10.57,4.56,18.93,12.11,25.08,7.61,6.1,17.8,9.15,30.57,9.15s23.66-2.79,31.09-8.36c7.49-5.63,11.24-13.5,11.24-23.6,0-7.14-2.03-13.41-6.1-18.81-4.01-5.4-9.93-9.7-17.77-12.89l7.14-13.67c10.34,4.53,18.17,10.66,23.52,18.38,5.4,7.66,8.1,16.37,8.1,26.13,0,14.63-4.91,26.1-14.72,34.4-9.81,8.3-23.81,12.46-41.98,12.46s-31.82-4.53-41.98-13.59c-10.16-9.12-15.24-21.31-15.24-36.58,0-12.6,3.14-22.62,9.41-30.05,6.33-7.43,14.46-11.15,24.39-11.15,7.14,0,12.86,2.06,17.16,6.18,4.3,4.06,6.45,9.52,6.45,16.37,0,7.72-2.41,13.76-7.23,18.12s-11.67,6.53-20.56,6.53c-5.4,0-10.6-1.36-15.59-4.09h0ZM169.64,272.64c4.12,2.85,8.8,4.27,14.02,4.27,4.82,0,8.45-.99,10.89-2.96,2.44-1.97,3.66-4.79,3.66-8.45,0-3.25-.96-5.84-2.87-7.75-1.86-1.92-4.35-2.87-7.49-2.87-4.53,0-8.42,1.54-11.67,4.62-3.19,3.02-5.37,7.4-6.53,13.15ZM211.88,335.7h0ZM275.12,335.7h0ZM222.77,255.65h0Z"/>
      <path id="path4145" d="M258.92,311.66l7.14-11.5c4.94,6.62,9.87,11.53,14.81,14.72,4.99,3.14,10.36,4.7,16.11,4.7,6.1,0,10.74-1.92,13.94-5.75,3.19-3.89,4.79-9.49,4.79-16.81,0-8.83-2.55-16.64-7.66-23.43-5.05-6.79-12.92-12.66-23.6-17.59l6.62-13.76c12.25,5.34,21.89,12.77,28.92,22.3,7.03,9.52,10.54,20.03,10.54,31.53s-2.99,21.22-8.97,27.78c-5.98,6.5-14.55,9.76-25.69,9.76-7.2,0-13.88-1.83-20.03-5.49-6.1-3.66-11.73-9.15-16.9-16.46h0Z"/>
      <path id="path4147" d="M404.81,326.2c5.75-8.13,9.49-14.98,11.24-20.56,1.8-5.63,2.7-11.55,2.7-17.77,0-10.45-2.58-18.44-7.75-23.95-5.17-5.52-12.75-8.27-22.73-8.27-9.12,0-16.32,2.85-21.6,8.54-5.28,5.69-7.93,13.53-7.93,23.52,0,6.85,1.07,13.33,3.22,19.42,2.21,6.1,5.78,12.46,10.71,19.07l-14.89,6.53c-9.23-14.4-13.85-29.41-13.85-45.03,0-8.65,1.86-16.49,5.57-23.52,3.72-7.08,9-12.51,15.85-16.29,6.91-3.77,14.89-5.66,23.95-5.66,13.88,0,24.71,3.89,32.49,11.67,7.84,7.72,11.76,18.35,11.76,31.88,0,8.3-1.02,16.11-3.05,23.43-2.03,7.32-5.66,15.16-10.89,23.52l-14.81-6.53ZM388.69,335.7h0ZM440.69,335.7h0ZM388.17,331.34h0ZM373.37,225.86c1.16,4.47,2.29,7.87,3.4,10.19,1.1,2.32,2.26,3.95,3.48,4.88,1.28.87,2.85,1.31,4.7,1.31,2.32,0,4.53-.73,6.62-2.18,2.09-1.45,5.05-4.65,8.88-9.58l5.49-7.14c6.15-8.07,11.76-13.62,16.81-16.64,5.05-3.08,11.32-4.65,18.81-4.7l.96,13.76c-4.12.23-7.46.84-10.02,1.83-2.55.99-4.94,2.44-7.14,4.35-2.15,1.86-5.14,5.25-8.97,10.19l-4.09,5.31c-4.88,6.33-9.49,10.95-13.85,13.85-4.3,2.9-9.15,4.35-14.55,4.35-6.79,0-12.19-2.18-16.2-6.53-3.95-4.41-7-10.57-9.15-18.46l14.81-4.79h0ZM397.58,176.3h0Z"/>
      <path id="path4149" d="M424.41,311.66l7.14-11.5c4.94,6.62,9.87,11.53,14.81,14.72,4.99,3.14,10.36,4.7,16.11,4.7,6.1,0,10.74-1.92,13.94-5.75,3.19-3.89,4.79-9.49,4.79-16.81,0-8.83-2.55-16.64-7.66-23.43-5.05-6.79-12.92-12.66-23.6-17.59l6.62-13.76c12.25,5.34,21.89,12.77,28.92,22.3,7.03,9.52,10.54,20.03,10.54,31.53s-2.99,21.22-8.97,27.78c-5.98,6.5-14.55,9.76-25.69,9.76-7.2,0-13.88-1.83-20.03-5.49-6.1-3.66-11.73-9.15-16.9-16.46Z"/>
    </g>
  </g>
</svg>