<svg width="110" height="13" viewBox="0 0 110 13" fill="none" xmlns="http://www.w3.org/2000/svg">
<g clip-path="url(#clip0_2342_2080)">
<mask id="mask0_2342_2080" style="mask-type:luminance" maskUnits="userSpaceOnUse" x="0" y="0" width="110" height="13">
<path d="M109.5 0.11377H0.5V12.1138H109.5V0.11377Z" fill="white"/>
</mask>
<g mask="url(#mask0_2342_2080)">
<path d="M56.883 11.9656C56.5843 11.9656 56.2857 11.9591 55.987 11.9669C55.62 11.976 55.3452 11.7797 55.2372 11.4963C55.2054 11.4118 55.1148 11.3585 55.0799 11.2714C54.8988 10.8307 54.705 10.3926 54.5096 9.95577C54.4 9.71138 54.284 9.46959 54.1649 9.22909C54.1172 9.1329 54.0108 9.1251 53.8964 9.1251C52.3602 9.1277 50.8224 9.1264 49.2862 9.1264C49.013 9.1264 48.7397 9.1277 48.4665 9.1264C48.3362 9.1264 48.2774 9.17319 48.2155 9.27199C48.0089 9.59438 47.9454 9.95708 47.7532 10.286C47.661 10.4433 47.5816 10.624 47.5737 10.8112C47.5737 10.8398 47.553 10.8697 47.534 10.8957C47.4005 11.0881 47.2988 11.2896 47.2289 11.5041C47.159 11.7186 46.7428 11.9669 46.468 11.9669C45.858 11.9669 45.2479 11.9669 44.6395 11.9669C44.4266 11.9669 44.3519 11.8876 44.4314 11.729C44.5712 11.4482 44.6744 11.1557 44.8444 10.8827C44.981 10.6643 45.0938 10.4381 45.159 10.1924C45.2034 10.0221 45.3417 9.86868 45.4147 9.69708C45.51 9.47089 45.607 9.23949 45.7356 9.0302C45.931 8.71171 45.9882 8.34772 46.2599 8.05652C46.3266 7.98502 46.3361 7.87193 46.3552 7.78353C46.4219 7.44944 46.6173 7.15954 46.7873 6.86315C46.9192 6.63306 47.0288 6.39906 47.0891 6.14947C47.1018 6.09877 47.1416 6.06887 47.1654 6.02727C47.302 5.79718 47.4307 5.56189 47.5355 5.32399C47.6785 5.0016 47.8421 4.68571 47.9708 4.35942C48.0296 4.20862 48.109 4.06172 48.1901 3.91743C48.3028 3.71593 48.3839 3.50664 48.4776 3.29994C48.6015 3.02435 48.7111 2.74226 48.8843 2.48096C49.0495 2.23267 49.1512 1.95968 49.2655 1.69318C49.3402 1.51769 49.4022 1.33699 49.5293 1.1784C49.65 1.0289 49.677 0.846902 49.7501 0.681807C49.8517 0.455612 50.0233 0.394514 50.2997 0.399714C50.9987 0.411413 51.6961 0.403614 52.3951 0.402314C52.4857 0.402314 52.5397 0.403614 52.5842 0.501111C52.7462 0.852102 52.9607 1.18749 53.1148 1.53979C53.253 1.85828 53.4389 2.16117 53.5421 2.49266C53.6104 2.71236 53.7645 2.91515 53.8694 3.12835C54.0012 3.39614 54.1394 3.66133 54.2379 3.93693C54.2903 4.08252 54.4159 4.18782 54.4667 4.33602C54.5779 4.65971 54.7288 4.9769 54.8988 5.28369C55.0624 5.58008 55.1625 5.89468 55.3341 6.18847C55.4294 6.34967 55.4675 6.53946 55.5644 6.69416C55.7058 6.92035 55.7741 7.16345 55.8949 7.39224C56.0315 7.65223 56.1808 7.90963 56.2634 8.18522C56.3063 8.32952 56.4207 8.44131 56.4795 8.57911C56.5859 8.8313 56.7352 9.0731 56.829 9.32789C56.9084 9.54629 57.0577 9.73868 57.126 9.95708C57.2166 10.2457 57.4565 10.4836 57.5057 10.7917C57.5327 10.9633 57.6932 11.1206 57.7821 11.2883C57.879 11.4729 57.968 11.6614 58.049 11.8512C58.0903 11.9448 58.0141 11.9656 57.9156 11.9643C57.5724 11.9617 57.2293 11.9643 56.8862 11.9643L56.883 11.9656ZM51.2259 7.60413C51.8232 7.60413 52.419 7.60413 53.0163 7.60413C53.3832 7.60413 53.3817 7.60413 53.3022 7.32204C53.191 6.92685 52.9845 6.56156 52.7685 6.20017C52.7478 6.16637 52.7351 6.13647 52.7272 6.10137C52.6811 5.87648 52.5826 5.66458 52.4889 5.45269C52.4619 5.39029 52.3491 5.36429 52.3506 5.29149C52.3554 5.012 52.1537 4.78711 52.0647 4.53231C52.0345 4.44521 51.9551 4.36852 51.9328 4.28142C51.855 3.96553 51.6612 3.68473 51.542 3.38054C51.4705 3.19724 51.3895 3.01785 51.3578 2.82805C51.3419 2.73706 51.318 2.64736 51.2021 2.64866C51.0925 2.64866 51.0496 2.74616 51.0464 2.82935C51.0384 3.02045 50.9733 3.20244 50.8764 3.37144C50.7763 3.54304 50.7382 3.73153 50.6413 3.89923C50.5126 4.11892 50.4173 4.35032 50.3299 4.57911C50.2155 4.8807 50.0662 5.1706 49.9487 5.47089C49.8359 5.75948 49.6563 6.02597 49.5563 6.32107C49.4339 6.68246 49.2179 7.01915 49.086 7.38054C49.0225 7.55734 49.0495 7.60543 49.2846 7.60543C49.9312 7.60543 50.5793 7.60543 51.2259 7.60543V7.60413Z" fill="#CBCBCB"/>
<path d="M69.2019 11.9669C68.9287 11.9669 68.6555 11.9669 68.3822 11.9669C68.155 11.9669 67.9406 11.8434 67.9056 11.6601C67.8532 11.3858 67.6864 11.1427 67.6101 10.8788C67.5339 10.6136 67.4036 10.3614 67.3496 10.0884C67.3131 9.90378 67.1812 9.73218 67.1351 9.54758C67.0668 9.27459 66.8492 9.0432 66.8524 8.7481C66.8524 8.60901 66.7761 8.46211 66.6999 8.33212C66.6268 8.20862 66.6188 8.07602 66.5664 7.95122C66.4234 7.60413 66.2407 7.25964 66.1677 6.90475C66.1105 6.62916 65.8865 6.40036 65.9024 6.11567C65.9056 6.06627 65.8722 6.00777 65.7864 6.01687C65.7022 6.02467 65.7324 6.08577 65.7197 6.12737C65.6387 6.38476 65.6244 6.65126 65.5227 6.91125C65.4163 7.18424 65.2892 7.45594 65.2097 7.73933C65.151 7.95122 65.0429 8.15662 64.9683 8.36721C64.9031 8.54921 64.8332 8.73121 64.7633 8.9132C64.6918 9.0965 64.6156 9.27979 64.5409 9.46309C64.4377 9.71788 64.3392 9.97397 64.2645 10.2366C64.2375 10.3341 64.1771 10.4238 64.1374 10.5187C64.0516 10.728 63.9722 10.9399 63.8864 11.1505C63.7943 11.3767 63.7101 11.6055 63.5941 11.8239C63.548 11.911 63.44 11.9734 63.2859 11.9708C62.7013 11.963 62.1167 11.9682 61.5337 11.9669C61.3828 11.9669 61.2636 11.8629 61.2239 11.742C61.1397 11.4924 61.0555 11.2402 60.9236 11.0049C60.8585 10.8879 60.868 10.7605 60.8172 10.6383C60.7537 10.4875 60.6869 10.3341 60.6329 10.1794C60.5598 9.96747 60.4598 9.76208 60.393 9.54888C60.3422 9.38769 60.2294 9.24599 60.204 9.0731C60.1754 8.8807 60.096 8.68831 60.0007 8.51021C59.8434 8.21252 59.7655 7.89533 59.6305 7.59243C59.5527 7.41694 59.4748 7.23234 59.4256 7.04385C59.3684 6.82805 59.2731 6.61876 59.1777 6.41076C59.0491 6.12737 58.9553 5.83488 58.8473 5.54758C58.7599 5.31879 58.6694 5.0874 58.582 4.8586C58.493 4.62461 58.4104 4.38671 58.2992 4.15922C58.1706 3.89923 58.2738 3.77053 58.6281 3.77053C59.003 3.77053 59.3779 3.78353 59.7512 3.76663C59.9895 3.75493 60.2151 3.80043 60.4343 3.84203C60.6075 3.87453 60.7314 4.00972 60.7886 4.15402C60.9363 4.53231 61.0412 4.921 61.1476 5.30969C61.1842 5.44359 61.2239 5.58398 61.3033 5.70228C61.4034 5.85308 61.3621 6.01947 61.4399 6.17417C61.5623 6.41596 61.5956 6.68246 61.7164 6.92945C61.7863 7.07245 61.7974 7.22974 61.853 7.37924C61.961 7.66783 61.9785 7.98112 62.1135 8.25412C62.2549 8.54141 62.2692 8.8443 62.3836 9.1316C62.436 9.26419 62.4996 9.41499 62.4837 9.56968C62.4789 9.62168 62.4821 9.71528 62.579 9.71658C62.6854 9.71788 62.6695 9.63208 62.6695 9.57228C62.6695 9.48909 62.714 9.41499 62.7331 9.33829C62.8268 8.9743 62.9825 8.62721 63.1286 8.27882C63.3018 7.86673 63.4209 7.44424 63.5973 7.03215C63.7371 6.70716 63.8372 6.36396 63.9754 6.03507C64.0993 5.73998 64.1755 5.43579 64.3122 5.14199C64.4408 4.8651 64.5552 4.57391 64.6251 4.27362C64.6728 4.06562 64.8269 3.89143 65.1208 3.83033C65.5179 3.74843 65.9087 3.73023 66.3059 3.82253C66.371 3.83813 66.4441 3.82903 66.514 3.83033C66.7618 3.83553 67.0303 4.02532 67.0922 4.22422C67.1351 4.36201 67.1955 4.49591 67.2543 4.62851C67.3607 4.869 67.4259 5.1186 67.5196 5.36039C67.6308 5.65288 67.7277 5.94927 67.8596 6.23787C67.9898 6.52386 68.0391 6.83325 68.163 7.12185C68.2599 7.34544 68.3504 7.57163 68.4092 7.80043C68.4807 8.07342 68.6459 8.32172 68.6968 8.60121C68.7301 8.7858 68.8064 8.9704 68.9033 9.13939C68.9652 9.24859 68.9509 9.35129 68.9525 9.45659C68.9541 9.56188 69.0208 9.64118 69.0764 9.72438C69.0987 9.75688 69.1352 9.79848 69.1988 9.77638C69.2448 9.75948 69.2544 9.72438 69.2591 9.68668C69.2941 9.34219 69.3529 9.0003 69.4577 8.66621C69.5467 8.38411 69.6404 8.10202 69.7341 7.82123C69.8374 7.51184 69.9454 7.19984 70.0455 6.89175C70.1488 6.57326 70.2441 6.24827 70.3696 5.93237C70.4744 5.66588 70.5793 5.39029 70.6396 5.1082C70.6825 4.908 70.7635 4.71171 70.8541 4.52191C70.897 4.43221 70.9129 4.33731 70.9637 4.24762C71.175 3.87973 71.2544 3.81993 71.6357 3.82903C72.1504 3.84073 72.6651 3.83163 73.1798 3.83163C73.38 3.83163 73.4547 3.91353 73.3451 4.05132C73.2053 4.22682 73.2339 4.43351 73.1433 4.61551C73.0448 4.817 73.0083 5.0328 72.9209 5.23819C72.7906 5.54238 72.6175 5.83748 72.5746 6.16247C72.5666 6.22617 72.519 6.27817 72.4904 6.33016C72.3792 6.52386 72.376 6.74615 72.2362 6.92815C72.1599 7.02825 72.206 7.13874 72.1568 7.24404C71.9773 7.61843 71.8454 8.00712 71.6913 8.38801C71.5769 8.67141 71.4895 8.9613 71.3609 9.24209C71.2274 9.53458 71.0892 9.83098 70.9923 10.1313C70.8811 10.4706 70.7334 10.7995 70.6333 11.1414C70.5713 11.3507 70.4887 11.5574 70.3966 11.7602C70.3426 11.8798 70.2647 11.9864 70.0582 11.976C69.7738 11.9617 69.4863 11.9721 69.2004 11.9721L69.2019 11.9669Z" fill="#CBCBCB"/>
<path d="M100.361 6.0348C100.361 7.94706 100.359 9.85931 100.365 11.7715C100.365 11.9249 100.324 11.9782 100.126 11.973C99.676 11.96 99.2232 11.9691 98.7737 11.9665C98.5306 11.9652 98.2987 11.778 98.2621 11.5843C98.2224 11.375 98.162 11.1683 98.1064 10.9617C98.089 10.8941 98.0286 10.898 97.9746 10.9279C97.9031 10.9682 97.8348 11.0136 97.7712 11.0643C97.4901 11.2853 97.185 11.4725 96.8562 11.6493C96.5305 11.8248 96.1826 11.9262 95.8268 12.0146C95.4789 12.1017 95.1055 12.1316 94.7449 12.0848C94.3621 12.0354 93.9506 12.0354 93.6059 11.8872C93.3279 11.7676 93.0149 11.6831 92.7877 11.4868C92.6527 11.3698 92.5129 11.258 92.3668 11.1501C92.0903 10.9461 91.9299 10.6835 91.7774 10.4131C91.6138 10.1206 91.4851 9.82291 91.3882 9.51092C91.2976 9.22102 91.2929 8.92593 91.2293 8.63864C91.1483 8.27595 91.1531 7.91586 91.188 7.56227C91.2118 7.31917 91.2039 7.06568 91.3072 6.82388C91.358 6.70819 91.3818 6.56779 91.3818 6.45339C91.3818 6.2506 91.5455 6.1063 91.582 5.91651C91.6154 5.73321 91.779 5.56552 91.8949 5.39522C91.9648 5.29382 92.0347 5.19892 92.0602 5.07673C92.0967 4.90903 92.273 4.80243 92.4081 4.68284C92.5685 4.54374 92.7194 4.37344 92.9196 4.29415C93.1833 4.19015 93.3978 4.01985 93.6806 3.94706C93.8823 3.89506 94.0571 3.79236 94.2668 3.74686C94.4828 3.70136 94.702 3.65846 94.9181 3.64806C95.3168 3.62726 95.7203 3.62336 96.1175 3.64936C96.3606 3.66496 96.6338 3.66626 96.8133 3.85346C96.8244 3.86516 96.8387 3.87946 96.8562 3.88336C97.1723 3.97435 97.4424 4.13035 97.7204 4.27855C97.8475 4.34615 97.9174 4.29025 97.9174 4.13685C97.9174 2.88498 97.9174 1.63181 97.9174 0.379939C97.9174 0.33834 97.9206 0.296741 97.9174 0.255142C97.9095 0.156345 97.9603 0.114746 98.0842 0.114746C98.7959 0.117346 99.506 0.117346 100.218 0.114746C100.329 0.114746 100.362 0.151145 100.357 0.235643C100.353 0.35004 100.356 0.464437 100.356 0.578834C100.356 2.39749 100.356 4.21615 100.356 6.0348H100.361ZM97.9222 7.73516C97.9222 7.16968 97.919 6.60289 97.9238 6.0374C97.9238 5.91391 97.8745 5.81901 97.7712 5.73191C97.3947 5.41602 96.9468 5.23012 96.4098 5.15993C95.7585 5.07413 95.1739 5.20282 94.6242 5.47322C94.3954 5.58631 94.2461 5.75921 94.1079 5.94901C93.7505 6.44039 93.6059 6.97468 93.5868 7.53367C93.5694 8.02245 93.5614 8.51254 93.6583 8.99872C93.6647 9.03512 93.6901 9.06763 93.6964 9.09883C93.725 9.24442 93.8807 9.34842 93.8791 9.50832C93.8791 9.58761 93.9125 9.69811 94.0364 9.71761C94.1444 9.73451 94.1476 9.78261 94.1492 9.84891C94.1492 9.88921 94.1492 9.93081 94.1857 9.96591C94.5193 10.2727 94.899 10.5132 95.4328 10.5015C95.7124 10.495 95.992 10.5275 96.2748 10.4521C96.4289 10.4105 96.6052 10.4027 96.7498 10.3364C97.1422 10.1596 97.506 9.95161 97.7967 9.66431C97.8904 9.57201 97.9269 9.48622 97.9253 9.37182C97.9206 8.82713 97.9238 8.28115 97.9238 7.73646L97.9222 7.73516Z" fill="#CBCBCB"/>
<path d="M82.3697 8.8717C82.3697 9.98057 82.3697 10.8906 82.3697 11.7993C82.3697 11.9748 82.3093 12.0241 82.0869 12.0255C81.8327 12.0268 81.5738 12.0514 81.326 12.0203C81.0209 11.9813 80.6746 11.9995 80.4888 11.7083C80.4173 11.5952 80.449 11.4691 80.3569 11.3638C80.2965 11.2949 80.2727 11.2026 80.2457 11.1168C80.2092 10.9972 80.1456 11.0167 80.063 11.0817C79.777 11.3053 79.472 11.5107 79.1209 11.6602C78.8159 11.7902 78.4887 11.8799 78.163 11.9709C77.6324 12.119 77.0859 12.0995 76.5426 12.0865C76.236 12.0787 75.9374 12.0268 75.6403 11.9332C75.4274 11.8656 75.24 11.7733 75.0461 11.6849C74.6951 11.5224 74.4774 11.2611 74.29 10.9764C73.9563 10.4707 73.9468 9.92727 74.0803 9.39559C74.1883 8.9601 74.5219 8.60911 74.981 8.34781C75.1955 8.22562 75.3861 8.08002 75.6339 7.99422C75.9596 7.88112 76.271 7.74463 76.6125 7.66013C76.9398 7.57953 77.2718 7.53273 77.6022 7.47423C78.1074 7.38324 78.6174 7.33774 79.1337 7.32214C79.391 7.31434 79.6452 7.25844 79.9057 7.26364C79.9931 7.26494 80.0074 7.21684 80.0058 7.15834C80.0058 6.93475 80.0439 6.70595 79.9963 6.48886C79.9153 6.12097 79.8327 5.73748 79.4482 5.48138C79.2544 5.35139 79.0288 5.25389 78.7635 5.22919C78.422 5.19799 78.082 5.22919 77.742 5.22789C77.5705 5.22789 77.4227 5.27989 77.2734 5.32279C76.8349 5.44628 76.4568 5.67118 76.0501 5.84927C75.8436 5.93897 75.3241 5.88957 75.1367 5.77518C74.8158 5.58018 74.7411 5.25779 74.5267 5.0082C74.479 4.9536 74.5394 4.9029 74.5918 4.8613C74.8142 4.6897 75.0557 4.53761 75.3067 4.39331C75.6323 4.20482 75.985 4.07092 76.352 3.96172C76.7634 3.83952 77.1812 3.74073 77.6276 3.69263C78.1535 3.63543 78.673 3.65233 79.1924 3.65623C79.4689 3.65883 79.7485 3.71083 80.0201 3.80443C80.252 3.88372 80.4856 3.96172 80.7016 4.06312C80.9828 4.19572 81.2195 4.38031 81.4419 4.57531C81.5754 4.691 81.7295 4.8015 81.8057 4.9458C81.9852 5.28509 82.2331 5.59838 82.2934 5.98187C82.4539 7.01275 82.3014 8.04622 82.3649 8.8769L82.3697 8.8717ZM80.0122 9.18109C80.0122 9.0043 80.0042 8.8275 80.0153 8.6507C80.0249 8.50641 79.9391 8.46221 79.7866 8.47521C79.3052 8.51551 78.8271 8.57271 78.3473 8.61431C78.1868 8.62731 77.993 8.61691 77.8421 8.6936C77.6848 8.7742 77.5069 8.8067 77.3385 8.8392C76.9271 8.9185 76.6856 9.16939 76.4139 9.39299C76.3981 9.40599 76.3965 9.43069 76.3917 9.45018C76.344 9.64778 76.3043 9.83108 76.371 10.0456C76.4727 10.3719 76.7142 10.576 77.0589 10.6683C77.4688 10.7788 77.9168 10.758 78.3378 10.6852C78.6888 10.6241 79.024 10.5071 79.3275 10.329C79.7405 10.0872 80.1186 9.84797 80.0153 9.36569C80.0026 9.30459 80.0138 9.24089 80.0153 9.17849L80.0122 9.18109Z" fill="#CBCBCB"/>
<path d="M105.589 12.0912C105.332 12.0912 105.146 12.1068 104.965 12.0873C104.623 12.0522 104.285 12.0106 103.95 11.9248C103.622 11.8416 103.303 11.7506 102.995 11.6297C102.667 11.5023 102.358 11.3515 102.1 11.1409C102.04 11.0915 102.002 11.033 102.107 10.9602C102.251 10.8602 102.269 10.6886 102.383 10.5664C102.515 10.426 102.593 10.2505 102.788 10.1504C103.1 9.99045 103.406 10.0334 103.697 10.1842C104.097 10.3922 104.52 10.5573 104.974 10.6717C105.081 10.699 105.189 10.6912 105.295 10.6873C105.605 10.6782 105.916 10.7159 106.224 10.6587C106.596 10.5898 106.914 10.4299 107.1 10.1751C107.243 9.98005 107.287 9.73436 107.176 9.48476C107.004 9.09867 106.577 9.00248 106.194 8.84778C105.875 8.71778 105.514 8.69048 105.19 8.58519C104.803 8.45909 104.402 8.36939 104.024 8.2134C103.63 8.0509 103.247 7.8936 102.944 7.62321C102.66 7.36842 102.515 7.05902 102.377 6.74053C102.253 6.45584 102.291 6.16465 102.318 5.88255C102.348 5.58356 102.471 5.29107 102.653 5.02068C103.017 4.48119 103.567 4.1159 104.264 3.904C104.618 3.79611 104.981 3.72201 105.365 3.68431C105.737 3.64791 106.107 3.62711 106.472 3.64791C106.825 3.66871 107.176 3.71551 107.527 3.80001C107.961 3.9053 108.355 4.0587 108.744 4.2329C108.943 4.32129 109.108 4.45129 109.273 4.57349C109.362 4.63979 109.33 4.73208 109.289 4.81788C109.198 5.00118 109.033 5.14157 108.892 5.29627C108.839 5.35347 108.819 5.42757 108.746 5.47566C108.514 5.63166 108.261 5.63686 107.946 5.51466C107.545 5.35737 107.149 5.17927 106.696 5.13247C106.147 5.07527 105.595 5.04667 105.098 5.30147C104.569 5.57186 104.467 6.05415 104.83 6.43114C104.95 6.55724 105.151 6.64174 105.332 6.71713C105.726 6.88223 106.158 6.96673 106.579 7.07332C107.097 7.20462 107.602 7.36322 108.091 7.55821C108.458 7.70511 108.763 7.9131 109.022 8.1692C109.3 8.44349 109.433 8.76198 109.483 9.11687C109.514 9.34697 109.507 9.57316 109.47 9.79676C109.44 9.98265 109.379 10.1686 109.305 10.3467C109.154 10.7107 108.889 11.0187 108.55 11.2839C108.18 11.5751 107.719 11.7454 107.251 11.8988C106.995 11.982 106.717 11.9911 106.455 12.0418C106.137 12.1042 105.827 12.0639 105.589 12.0886V12.0912Z" fill="#CBCBCB"/>
<path d="M84.6223 7.86802C84.6223 6.56416 84.6255 5.26029 84.6191 3.95642C84.6191 3.80952 84.6604 3.75882 84.8479 3.76402C85.2403 3.77572 85.6359 3.77312 86.0282 3.76532C86.2316 3.76142 86.4032 3.81862 86.5684 3.90702C86.6653 3.95902 86.6907 4.03052 86.7257 4.12022C86.8067 4.32821 86.7749 4.53751 86.8019 4.7455C86.8146 4.8378 86.8797 4.9262 86.8845 5.02499C86.8845 5.05099 86.9179 5.06789 86.9528 5.07049C86.991 5.07309 87.0037 5.05229 87.0195 5.02759C87.1625 4.8027 87.3325 4.5934 87.5501 4.41141C87.7821 4.21641 87.9918 4.00452 88.3016 3.87712C88.6511 3.73413 89.0053 3.61713 89.4057 3.64183C89.698 3.66003 89.9998 3.58593 90.281 3.70683C90.3414 3.73283 90.3985 3.75882 90.4669 3.77572C90.5638 3.79912 90.6543 3.86282 90.6321 3.95772C90.5685 4.23461 90.6321 4.51671 90.5701 4.7936C90.5272 4.98599 90.5209 5.18359 90.4843 5.37728C90.4573 5.52678 90.3207 5.60738 90.1126 5.60478C89.7138 5.59828 89.323 5.51768 88.9211 5.54368C88.5271 5.56968 88.1792 5.66978 87.8838 5.89207C87.7233 6.01297 87.539 6.12867 87.4389 6.27946C87.2578 6.55246 87.0402 6.82155 87.0259 7.15044C87.0068 7.58203 87.064 8.01102 87.0593 8.44131C87.0561 8.7832 87.0497 9.12509 87.0307 9.46698C87.0068 9.89207 87.0783 10.3159 87.0593 10.7423C87.0434 11.1102 87.0323 11.4781 87.0275 11.846C87.0275 11.9434 86.9798 11.9694 86.8686 11.9694C86.1823 11.9668 85.4976 11.9629 84.8114 11.9707C84.6366 11.9733 84.6207 11.9123 84.6207 11.7953C84.6239 10.4862 84.6239 9.17709 84.6239 7.86802H84.6223Z" fill="#CBCBCB"/>
<path d="M33.5129 2.14119C34.0514 2.14769 34.5916 2.12559 35.1301 2.12169C35.9736 2.11519 36.8172 2.09959 37.6608 2.13599C38.2247 2.16069 38.7919 2.14119 39.3558 2.13989C39.4241 2.13989 39.4924 2.12299 39.5608 2.11259C39.5909 2.10869 39.6434 2.09049 39.6211 2.07229C39.5067 1.9748 39.6513 1.902 39.6497 1.8136C39.6418 1.41841 39.6497 1.02322 39.645 0.628032C39.6418 0.448636 39.5655 0.395337 39.3463 0.395337C36.5138 0.395337 33.6797 0.395337 30.8472 0.390137C30.6613 0.390137 30.6152 0.433036 30.6152 0.582533C30.6216 2.44798 30.6184 4.31474 30.6184 6.18019C30.6184 8.05084 30.6184 9.9228 30.6168 11.7935C30.6168 11.9092 30.6311 11.9742 30.8075 11.9742C33.6717 11.969 36.536 11.969 39.4019 11.9703C39.5512 11.9703 39.5814 11.9261 39.5814 11.8143C39.575 11.3411 39.575 10.8679 39.5814 10.396C39.583 10.2803 39.5401 10.2452 39.3971 10.2452C37.8101 10.2452 36.2231 10.2595 34.636 10.2218C34.2802 10.2127 33.9243 10.2127 33.5685 10.2244C33.3985 10.2296 33.354 10.1854 33.354 10.0489C33.3604 9.09212 33.362 8.13664 33.354 7.17987C33.354 7.02647 33.4207 7.00437 33.5844 7.00437C35.0713 7.00827 36.5567 7.00437 38.0436 7.00957C38.2231 7.00957 38.2851 6.97707 38.2803 6.82237C38.2676 6.40119 38.2613 5.98 38.2819 5.56011C38.2914 5.35731 38.185 5.29621 37.9404 5.29621C37.5257 5.29361 37.1127 5.31961 36.6996 5.33911C35.8577 5.37811 35.0109 5.35081 34.1658 5.34951C34.1467 5.34951 34.1261 5.35341 34.1086 5.34951C33.9545 5.31181 33.8084 5.31831 33.6463 5.34301C33.4112 5.37941 33.3588 5.32221 33.3588 5.12202C33.3588 4.18084 33.3588 3.24096 33.3588 2.29979C33.3588 2.21139 33.354 2.13989 33.5113 2.14119H33.5129Z" fill="#75A1C7"/>
<path d="M13.625 3.76214C12.9594 3.77124 12.2921 3.77254 11.6249 3.76344C11.4391 3.76084 11.393 3.80764 11.3946 3.95584C11.4009 5.2649 11.3993 6.57397 11.3977 7.88304C11.3962 9.19211 11.3993 10.5012 11.3946 11.8103C11.3946 11.9403 11.4391 11.9767 11.5979 11.9741C12.2699 11.9676 12.9435 11.9689 13.617 11.9741C13.7664 11.9754 13.8252 11.952 13.8236 11.8142C13.8188 9.18561 13.8188 6.55837 13.8236 3.92984C13.8236 3.80634 13.7918 3.75824 13.6266 3.76084L13.625 3.76214Z" fill="#75A1C7"/>
<path d="M9.17545 10.2493C8.29377 10.2558 7.41209 10.2519 6.5304 10.2519C6.49227 10.2116 6.43826 10.222 6.38901 10.2233C5.99663 10.2298 5.60424 10.2259 5.21026 10.2402C4.59546 10.261 3.97908 10.2428 3.36269 10.248C3.20224 10.2493 3.14505 10.1895 3.14346 10.0726C3.14346 9.98936 3.14346 9.90616 3.14346 9.82297C3.16094 8.94029 3.11169 8.05761 3.16888 7.17623C3.17841 7.03194 3.23402 7.00984 3.39129 7.00984C4.88936 7.01504 6.38743 7.01114 7.8855 7.01764C8.05389 7.01764 8.10314 6.97994 8.09996 6.84214C8.09043 6.39495 8.09837 5.94906 8.0936 5.50188C8.0936 5.45118 8.14603 5.36798 8.01735 5.35758C6.95456 5.35758 5.89019 5.35888 4.8274 5.35758C4.27615 5.35758 3.72649 5.35498 3.17524 5.35498C3.11963 4.27601 3.12599 3.19703 3.17524 2.11936C3.23878 2.11806 3.30233 2.11676 3.36587 2.11546C3.404 2.15706 3.44054 2.15836 3.47866 2.11546C3.51679 2.11416 3.55492 2.11156 3.59304 2.11156C5.45332 2.11416 7.312 2.11546 9.17228 2.12326C9.3502 2.12326 9.39151 2.08166 9.38992 1.94256C9.38039 1.44988 9.38674 0.955883 9.38674 0.461896C9.36609 0.340999 9.25012 0.395597 9.17863 0.395597C6.37313 0.394297 3.56604 0.395597 0.760534 0.395597C0.587904 0.395597 0.501589 0.466229 0.501589 0.607492C0.501589 2.10376 0.501589 3.60002 0.501589 5.09629C0.503177 7.32963 0.504766 9.56427 0.5 11.7976C0.5 11.9315 0.538127 11.9783 0.709698 11.9757C1.16087 11.9666 1.61045 11.9757 2.06161 11.9718C2.46036 11.9679 2.86069 11.99 3.25943 11.9627C3.32933 11.9627 3.39923 11.9588 3.46913 11.9601C5.3723 11.964 7.27388 11.9653 9.17704 11.9731C9.33908 11.9731 9.39627 11.9471 9.39151 11.8041C9.38039 11.3426 9.38198 10.8798 9.39151 10.4183C9.39468 10.2766 9.33591 10.248 9.17387 10.2493H9.17545Z" fill="#75A1C7"/>
<path d="M12.6234 0.113398C11.7608 0.0912985 11.0714 0.677583 11.0587 1.39257C11.0475 2.03735 11.7354 2.64964 12.5837 2.63794C13.4734 2.64964 14.1755 2.04775 14.1739 1.41987C14.1739 0.641184 13.4829 0.135497 12.6219 0.113398H12.6234Z" fill="#75A1C7"/>
<path d="M27.9223 6.1372C26.4878 6.1372 25.0533 6.1385 23.6187 6.1333C23.444 6.1333 23.4059 6.1827 23.4075 6.3127C23.4154 6.67669 23.4106 7.03938 23.4106 7.40337C23.4106 7.46057 23.4218 7.51387 23.4503 7.56847C23.5695 7.79856 23.8141 7.84406 24.0747 7.84796C24.5576 7.85576 25.039 7.85186 25.5219 7.84796C25.649 7.84796 25.7062 7.88046 25.7062 7.99096C25.7014 8.57334 25.7046 9.15443 25.7046 9.73681C25.7046 9.81741 25.6871 9.87461 25.5727 9.91621C25.3043 10.015 25.0231 10.0787 24.7514 10.1684C24.5989 10.2191 24.4051 10.1788 24.2907 10.3075C24.2653 10.3075 24.2399 10.3101 24.2161 10.3114C24.0636 10.3127 23.9095 10.314 23.7569 10.3166C23.7125 10.3166 23.6902 10.3387 23.6823 10.3738C22.8594 10.4076 22.0476 10.3543 21.2708 10.1125C20.4637 9.86161 19.7902 9.46122 19.2961 8.87233C18.8465 8.33675 18.5669 7.74396 18.4001 7.11478C18.0538 5.80701 18.4255 4.61884 19.3215 3.52687C19.6377 3.14078 20.0666 2.82879 20.5606 2.60909C21.0897 2.3738 21.6631 2.223 22.2716 2.1554C23.2406 2.04751 24.1716 2.1346 25.0803 2.4245C25.371 2.51809 25.6315 2.65979 25.927 2.74429C25.9127 2.80149 25.9556 2.82749 26.0096 2.85219C26.1828 2.93278 26.3591 3.00298 26.5418 3.06798C26.7817 3.15248 26.9946 3.13298 27.1614 2.98738C27.5442 2.65069 27.8445 2.2646 28.1193 1.86421C28.1622 1.80181 28.1272 1.75761 28.0669 1.70301C27.8858 1.54182 27.657 1.43132 27.4489 1.30132C27.0645 1.05953 26.6387 0.877536 26.1875 0.73194C25.8079 0.609743 25.4218 0.514845 25.0231 0.445947C24.7069 0.391348 24.3972 0.31335 24.0667 0.33545C23.6076 0.270452 23.1453 0.280851 22.683 0.283451C22.0794 0.287351 21.4868 0.361449 20.9086 0.496646C19.76 0.765739 18.7576 1.24283 17.8822 1.91101C16.6606 2.84439 15.8869 3.97796 15.7058 5.33642C15.5867 6.2191 15.6137 7.11348 15.9314 7.97926C16.1808 8.65784 16.5637 9.28312 17.1006 9.84341C18.3556 11.1538 20.0173 11.861 22.0174 12.0612C22.7625 12.1366 23.5107 12.1236 24.2574 12.0755C24.6307 12.0508 24.9977 11.991 25.3615 11.926C25.9302 11.8246 26.464 11.64 26.985 11.4307C27.039 11.4424 27.0692 11.4268 27.074 11.38C27.0819 11.3722 27.0899 11.3696 27.1026 11.3696C27.4664 11.2552 27.7619 11.0511 28.0685 10.8639C28.1527 10.8119 28.1828 10.756 28.1828 10.6676C28.1797 9.22853 28.1797 7.78946 28.1797 6.3504C28.1797 6.1489 28.1654 6.1372 27.9223 6.1372Z" fill="#75A1C7"/>
</g>
</g>
<defs>
<clipPath id="clip0_2342_2080">
<rect width="109" height="12" fill="white" transform="translate(0.5 0.11377)"/>
</clipPath>
</defs>
</svg>
