<svg width="51" height="43" viewBox="0 0 51 43" fill="none" xmlns="http://www.w3.org/2000/svg">
<path fill-rule="evenodd" clip-rule="evenodd" d="M25.3323 0.163086L18.4043 12.1631H32.2613L25.3323 0.163086ZM25.3323 2.16309L20.1363 11.1631H30.5293L25.3323 2.16309Z" fill="white"/>
<path fill-rule="evenodd" clip-rule="evenodd" d="M16.3323 15.1631L9.4043 27.1631H23.2613L16.3323 15.1631ZM16.3323 17.1631L11.1363 26.1631H21.5293L16.3323 17.1631Z" fill="white"/>
<path fill-rule="evenodd" clip-rule="evenodd" d="M25.3323 30.6631L18.4043 42.6631H32.2613L25.3323 30.6631ZM25.3323 32.6631L20.1363 41.6631H30.5293L25.3323 32.6631Z" fill="white"/>
<path fill-rule="evenodd" clip-rule="evenodd" d="M7.33199 30.6631L0.404297 42.6631H14.261L7.33199 30.6631ZM7.33199 32.6631L2.13629 41.6631H12.529L7.33199 32.6631Z" fill="white"/>
<path fill-rule="evenodd" clip-rule="evenodd" d="M43.3323 30.6631L36.4043 42.6631H50.2613L43.3323 30.6631ZM43.3323 32.6631L38.1363 41.6631H48.5293L43.3323 32.6631Z" fill="white"/>
<path fill-rule="evenodd" clip-rule="evenodd" d="M34.3323 15.1631L27.4043 27.1631H41.2613L34.3323 15.1631ZM34.3323 17.1631L29.1363 26.1631H39.5293L34.3323 17.1631Z" fill="white"/>
<path fill-rule="evenodd" clip-rule="evenodd" d="M25.3323 26.1631L18.4043 14.1631H32.2613L25.3323 26.1631ZM25.3323 24.1631L20.1363 15.1631H30.5293L25.3323 24.1631Z" fill="white"/>
<path fill-rule="evenodd" clip-rule="evenodd" d="M16.3323 41.6631L9.4043 29.6631H23.2613L16.3323 41.6631ZM16.3323 39.6631L11.1363 30.6631H21.5293L16.3323 39.6631Z" fill="white"/>
<path fill-rule="evenodd" clip-rule="evenodd" d="M34.3323 41.6631L27.4043 29.6631H41.2613L34.3323 41.6631ZM34.3323 39.6631L29.1363 30.6631H39.5293L34.3323 39.6631Z" fill="white"/>
</svg>
