<svg width="34" height="30" viewBox="0 0 34 30" fill="none" xmlns="http://www.w3.org/2000/svg">
<path d="M16.6259 23.5755C16.8393 23.96 17.0289 24.4614 17.1945 25.0796C17.3533 25.672 17.4398 26.201 17.4541 26.6665L14.3631 27.4947C14.1428 27.0844 13.9532 26.5831 13.7945 25.9906C13.6288 25.3724 13.5423 24.8435 13.5349 24.4037L12.3758 24.7143C12.1554 24.304 11.9659 23.8027 11.8071 23.2102C11.6415 22.5921 11.555 22.0631 11.5476 21.6234L9.61571 22.141C9.82917 22.5255 10.0187 23.0269 10.1844 23.6451C10.3431 24.2375 10.4296 24.7665 10.4439 25.232L8.89845 25.6461C9.11191 26.0306 9.30146 26.5319 9.46711 27.1501C9.62585 27.7426 9.71237 28.2715 9.72667 28.737L6.63571 29.5652C6.41534 29.155 6.22579 28.6536 6.06705 28.0612C5.9014 27.443 5.81488 26.914 5.80749 26.4743L7.35297 26.0602C7.1326 25.6499 6.94305 25.1485 6.78431 24.5561C6.61867 23.9379 6.53214 23.4089 6.52475 22.9692L8.07023 22.5551C7.84987 22.1448 7.66031 21.6435 7.50157 21.051C7.33593 20.4328 7.2494 19.9039 7.24201 19.4641L5.69653 19.8783C5.47616 19.468 5.28661 18.9666 5.12787 18.3742C4.96222 17.756 4.8757 17.227 4.8683 16.7873L3.32282 17.2014C3.10246 16.7911 2.91291 16.2898 2.75417 15.6973C2.58852 15.0791 2.502 14.5502 2.4946 14.1104L5.58557 13.2822C5.79903 13.6667 5.98858 14.1681 6.15422 14.7863C6.31297 15.3787 6.39949 15.9077 6.41379 16.3732L7.95927 15.9591C8.17273 16.3436 8.36228 16.8449 8.52793 17.4631C8.68667 18.0556 8.77319 18.5845 8.78749 19.05L10.7193 18.5324C10.499 18.1221 10.3094 17.6208 10.1507 17.0283C9.98504 16.4101 9.89852 15.8812 9.89112 15.4414L11.0502 15.1308C10.8299 14.7206 10.6403 14.2192 10.4816 13.6268C10.3159 13.0086 10.2294 12.4796 10.222 12.0399L13.313 11.2117C13.5264 11.5962 13.716 12.0975 13.8816 12.7157C14.0404 13.3082 14.1269 13.8371 14.1412 14.3026L12.9821 14.6132C13.1955 14.9977 13.3851 15.4991 13.5507 16.1173C13.7095 16.7097 13.796 17.2387 13.8103 17.7042L11.8785 18.2218C12.0919 18.6063 12.2815 19.1077 12.4471 19.7259C12.6059 20.3183 12.6924 20.8473 12.7067 21.3128L14.6385 20.7951C14.852 21.1797 15.0415 21.681 15.2072 22.2992C15.3659 22.8916 15.4524 23.4206 15.4667 23.8861L16.6259 23.5755ZM29.3515 8.57058C29.5103 9.16302 29.5968 9.69198 29.6111 10.1575L28.0656 10.5716C28.2791 10.9561 28.4686 11.4575 28.6343 12.0757C28.793 12.6681 28.8795 13.1971 28.8938 13.6625L30.4393 13.2484C30.6528 13.633 30.8423 14.1343 31.008 14.7525C31.1667 15.3449 31.2532 15.8739 31.2675 16.3394C31.481 16.7239 31.6706 17.2253 31.8362 17.8435C31.9949 18.4359 32.0815 18.9649 32.0958 19.4304L30.5503 19.8445C30.7637 20.229 30.9533 20.7304 31.1189 21.3485C31.2777 21.941 31.3642 22.4699 31.3785 22.9354L23.6511 25.006C23.4307 24.5957 23.2412 24.0944 23.0824 23.5019C22.9168 22.8837 22.8303 22.3548 22.8229 21.915L21.2774 22.3291C21.057 21.9189 20.8675 21.4175 20.7087 20.8251C20.5431 20.2069 20.4566 19.6779 20.4492 19.2382L23.5401 18.41C23.7536 18.7945 23.9431 19.2958 24.1088 19.914C24.2675 20.5065 24.3541 21.0354 24.3684 21.5009L29.0048 20.2586C28.7844 19.8483 28.5949 19.3469 28.4361 18.7545C28.2705 18.1363 28.184 17.6074 28.1766 17.1676C27.9562 16.7573 27.7667 16.256 27.6079 15.6636C27.4423 15.0454 27.3558 14.5164 27.3484 14.0767L23.4847 15.1119C23.2643 14.7017 23.0747 14.2003 22.916 13.6079C22.7504 12.9897 22.6638 12.4607 22.6564 12.021L26.5201 10.9857C26.2998 10.5754 26.1102 10.0741 25.9515 9.48163C25.7858 8.86343 25.6993 8.33447 25.6919 7.89473C25.4716 7.48446 25.282 6.9831 25.1233 6.39066C24.9576 5.77247 24.8711 5.24351 24.8637 4.80377L20.2272 6.0461C20.4407 6.43062 20.6303 6.93198 20.7959 7.55017C20.9547 8.14261 21.0412 8.67157 21.0555 9.13707L17.9645 9.96529C17.7441 9.55501 17.5546 9.05365 17.3958 8.46122C17.2302 7.84302 17.1437 7.31406 17.1363 6.87432L18.6818 6.46021C18.4614 6.04994 18.2719 5.54858 18.1131 4.95614C17.9475 4.33795 17.8609 3.80899 17.8535 3.36925L25.581 1.2987C25.7944 1.68322 25.984 2.18458 26.1496 2.80277C26.3084 3.3952 26.3949 3.92417 26.4092 4.38966L27.9547 3.97555C28.1681 4.36007 28.3577 4.86143 28.5233 5.47962C28.6821 6.07206 28.7686 6.60102 28.7829 7.06651C28.9963 7.45104 29.1859 7.95239 29.3515 8.57058Z" fill="white"/>
</svg>
