<svg width="40" height="25" viewBox="0 0 40 25" fill="none" xmlns="http://www.w3.org/2000/svg">
<g clip-path="url(#clip0_52_2121)">
<path fill-rule="evenodd" clip-rule="evenodd" d="M11.0993 9.03733C11.0993 9.52884 11.1527 9.92753 11.2457 10.2197C11.3522 10.5121 11.4857 10.831 11.6718 11.1765C11.7387 11.2828 11.7651 11.3891 11.7651 11.4821C11.7651 11.6149 11.6853 11.7479 11.5122 11.8806L10.6731 12.439C10.5531 12.5186 10.4331 12.5582 10.3269 12.5582C10.1936 12.5582 10.0604 12.4921 9.92719 12.3721C9.74057 12.173 9.5809 11.9604 9.44768 11.7476C9.31445 11.5218 9.18123 11.2696 9.03478 10.9639C7.99568 12.1862 6.69062 12.7975 5.11886 12.7975C4.00017 12.7975 3.10776 12.4786 2.45511 11.8409C1.80245 11.203 1.46939 10.3527 1.46939 9.28982C1.46939 8.16035 1.86882 7.24345 2.68164 6.5526C3.49396 5.86174 4.57274 5.51619 5.94466 5.51619C6.39747 5.51619 6.86376 5.55611 7.35649 5.62247C7.84923 5.68884 8.35568 5.79513 8.88833 5.91488V4.94508C8.88833 3.93513 8.67527 3.2308 8.26213 2.81888C7.836 2.40696 7.11674 2.20762 6.0911 2.20762C5.62506 2.20762 5.14555 2.261 4.65282 2.38051C4.15984 2.50002 3.68057 2.64623 3.21429 2.83211C3.00123 2.92517 2.84131 2.97831 2.748 3.005C2.65494 3.03145 2.58833 3.04492 2.53494 3.04492C2.34857 3.04492 2.25527 2.91194 2.25527 2.633V1.98182C2.25527 1.76925 2.28196 1.60982 2.34833 1.51676C2.41494 1.4237 2.5347 1.33064 2.72131 1.23757C3.18735 0.998554 3.74694 0.799207 4.39959 0.640024C5.05225 0.466881 5.74482 0.387289 6.47755 0.387289C8.06253 0.387289 9.22115 0.745819 9.96735 1.46337C10.6996 2.18092 11.0726 3.27047 11.0726 4.73202V9.03709L11.0993 9.03733ZM5.69168 11.057C6.13127 11.057 6.58384 10.9772 7.06359 10.8177C7.54311 10.6583 7.96923 10.3659 8.32874 9.96745C8.5418 9.71496 8.70172 9.43602 8.7818 9.11692C8.86164 8.79807 8.91478 8.41284 8.91478 7.961V7.40288C8.52857 7.30982 8.11568 7.23023 7.68955 7.17708C7.26343 7.12394 6.85029 7.09725 6.43739 7.09725C5.54498 7.09725 4.89257 7.27015 4.45298 7.62868C4.01339 7.9877 3.80033 8.49243 3.80033 9.15684C3.80033 9.78133 3.96 10.2464 4.29306 10.5652C4.61266 10.8973 5.07919 11.057 5.69168 11.057ZM16.3871 12.4921C16.1471 12.4921 15.9874 12.4519 15.8809 12.3591C15.7744 12.2793 15.6811 12.0932 15.6012 11.8409L12.4712 1.5699C12.3911 1.30419 12.3512 1.13153 12.3512 1.03847C12.3512 0.825901 12.4577 0.706391 12.671 0.706391H13.9763C14.2291 0.706391 14.4025 0.746064 14.4955 0.839126C14.6023 0.918962 14.6821 1.10484 14.762 1.35733L16.9998 10.1533L19.0773 1.35757C19.1442 1.09186 19.224 0.919207 19.3305 0.83937C19.4371 0.759779 19.6234 0.706636 19.8634 0.706636H20.9287C21.182 0.706636 21.3551 0.746309 21.4616 0.83937C21.5682 0.919207 21.6615 1.10508 21.7149 1.35757L23.8188 10.2596L26.1233 1.35757C26.2031 1.09162 26.2964 0.918962 26.3897 0.839126C26.4962 0.759534 26.6694 0.706391 26.9089 0.706391H28.1478C28.3609 0.706391 28.4809 0.812677 28.4809 1.03847C28.4809 1.10484 28.4674 1.17145 28.454 1.25104C28.4407 1.33088 28.414 1.43717 28.3609 1.58313L25.151 11.8541C25.0709 12.1199 24.9776 12.2925 24.8711 12.3724C24.7646 12.4519 24.5914 12.5051 24.3651 12.5051H23.2195C22.9665 12.5051 22.7934 12.4654 22.6866 12.3724C22.5801 12.2793 22.487 12.1066 22.4339 11.8409L20.3694 3.27072L18.3181 11.8275C18.2513 12.0932 18.1717 12.2658 18.0649 12.3589C17.9584 12.4519 17.772 12.4919 17.5322 12.4919H16.3869L16.3871 12.4921ZM33.502 12.8506C32.8095 12.8506 32.1169 12.7708 31.451 12.6114C30.7849 12.4522 30.2657 12.2793 29.9192 12.0799C29.7061 11.9604 29.5594 11.8277 29.5063 11.7079C29.4531 11.5884 29.4265 11.4557 29.4265 11.3357V10.6583C29.4265 10.3791 29.533 10.2464 29.7326 10.2464C29.8127 10.2464 29.8925 10.2596 29.9726 10.2863C30.0524 10.3128 30.1722 10.3659 30.3056 10.419C30.7582 10.6184 31.2509 10.7778 31.7704 10.8844C32.3033 10.9904 32.8227 11.0435 33.3556 11.0435C34.1946 11.0435 34.8473 10.8973 35.3001 10.6052C35.7531 10.3128 35.9929 9.88762 35.9929 9.34296C35.9929 8.97072 35.8729 8.66533 35.6329 8.41284C35.3934 8.16035 34.9406 7.93455 34.2879 7.72174L32.3567 7.12394C31.3844 6.81831 30.6651 6.36647 30.2256 5.76868C29.786 5.18411 29.5594 4.53292 29.5594 3.84206C29.5594 3.28394 29.6794 2.79243 29.9194 2.36729C30.1589 1.9419 30.4785 1.5699 30.8782 1.27749C31.2779 0.972105 31.7305 0.746064 32.2633 0.586881C32.7967 0.426962 33.3558 0.36084 33.9419 0.36084C34.2348 0.36084 34.5414 0.374064 34.834 0.413983C35.1407 0.453901 35.4203 0.507044 35.7 0.560187C35.9662 0.626554 36.2192 0.692921 36.4592 0.772758C36.6989 0.85235 36.8853 0.932187 37.0188 1.01202C37.2051 1.11831 37.3384 1.22459 37.4182 1.34411C37.498 1.45039 37.5382 1.59635 37.5382 1.78247V2.40696C37.5382 2.68615 37.4317 2.83211 37.2318 2.83211C37.1253 2.83211 36.9522 2.77896 36.7256 2.67292C35.9664 2.32737 35.1142 2.15447 34.1684 2.15447C33.4092 2.15447 32.8097 2.27423 32.3968 2.52672C31.9839 2.77896 31.7709 3.16443 31.7709 3.70908C31.7709 4.08133 31.9041 4.40019 32.1705 4.65243C32.4367 4.90492 32.9297 5.15741 33.6355 5.38345L35.5269 5.98125C36.4859 6.28688 37.1785 6.71202 37.5913 7.25692C38.0042 7.80157 38.2041 8.42606 38.2041 9.11692C38.2041 9.68827 38.0841 10.2067 37.8578 10.6583C37.618 11.1101 37.2985 11.5086 36.8856 11.8275C36.4727 12.1598 35.9797 12.3988 35.4071 12.5717C34.8076 12.7578 34.1814 12.8506 33.502 12.8506Z" fill="white"/>
<path fill-rule="evenodd" clip-rule="evenodd" d="M36.0894 19.3823C31.7216 22.6345 25.3753 24.3608 19.9188 24.3608C12.2718 24.3608 5.38138 21.5102 0.177052 16.7726C-0.234376 16.3979 0.137379 15.8895 0.628644 16.1839C6.25713 19.476 13.201 21.47 20.3836 21.47C25.2294 21.47 30.5532 20.4529 35.4522 18.3652C36.1824 18.0307 36.8064 18.8472 36.0894 19.3823ZM37.9085 17.2947C37.3506 16.572 34.2176 16.9467 32.797 17.1209C32.3721 17.1743 32.3057 16.7996 32.6909 16.5184C35.1867 14.752 39.289 15.2604 39.7673 15.8494C40.2451 16.4516 39.6343 20.5869 37.2977 22.5674C36.9392 22.8752 36.5941 22.7146 36.7533 22.3132C37.2842 20.9883 38.4661 18.004 37.9085 17.2947Z" fill="#FF9900"/>
</g>
<defs>
<clipPath id="clip0_52_2121">
<rect width="39.9184" height="24" fill="white" transform="translate(0 0.36084)"/>
</clipPath>
</defs>
</svg>
