<svg width="155" height="41" viewBox="0 0 155 41" fill="none" xmlns="http://www.w3.org/2000/svg">
<g clip-path="url(#clip0_2676_9955)">
<path d="M113.69 17.5625H111.133V26.5745H113.69V17.5625Z" fill="black"/>
<path d="M22.6397 29.2549H7.05273V33.1209H22.6397V29.2549Z" fill="black"/>
<path d="M3.87522 9.87354H0V40.7928H3.87522V9.87354Z" fill="black"/>
<path d="M7.05268 9.19482H3.875V36.9268H7.05268V9.19482Z" fill="black"/>
<path d="M80.7335 9.19482H72.9658V13.0608H80.7335V9.19482Z" fill="black"/>
<path d="M98.8178 2.1416H92.3936V4.69315H98.8178V2.1416Z" fill="black"/>
<path d="M107.877 2.1416H102.728V4.69315H107.877V2.1416Z" fill="black"/>
<path d="M117.566 2.1416H112.416V4.69315H117.566V2.1416Z" fill="black"/>
<path d="M146.276 2.1416H139.206V4.69315H146.276V2.1416Z" fill="black"/>
<path d="M117.566 9.87354H112.416V12.4251H117.566V9.87354Z" fill="black"/>
<path d="M107.877 9.87354H102.728V12.4251H107.877V9.87354Z" fill="black"/>
<path d="M98.8178 6.00781H92.3936V8.55936H98.8178V6.00781Z" fill="black"/>
<path d="M94.9512 4.68457H92.3936V12.4251H94.9512V4.68457Z" fill="black"/>
<path d="M113.69 3.41309H111.133V11.1536H113.69V3.41309Z" fill="black"/>
<path d="M122.75 2.1416H120.192V12.4251H122.75V2.1416Z" fill="black"/>
<path d="M144.021 2.1416H141.463V12.4251H144.021V2.1416Z" fill="black"/>
<path d="M127.563 30.5093H120.493V33.0608H127.563V30.5093Z" fill="black"/>
<path d="M125.307 30.5093H122.749V40.7928H125.307V30.5093Z" fill="black"/>
<path d="M126.591 5.99928V8.55083H127.865V12.4168H125.308V2.1333H127.865V5.99928H126.591Z" fill="black"/>
<path d="M100.093 3.41309H97.5352V7.27907H100.093V3.41309Z" fill="black"/>
<path d="M109.143 3.41309H107.274V11.0849H109.143V3.41309Z" fill="black"/>
<path d="M109.134 17.6401H107.266V26.5748H109.134V17.6401Z" fill="black"/>
<path d="M103.967 17.6401H102.099V26.5748H103.967V17.6401Z" fill="black"/>
<path d="M136.932 2.1416H129.862V4.69315H136.932V2.1416Z" fill="black"/>
<path d="M135.589 6.00781H129.862V8.55936H135.589V6.00781Z" fill="black"/>
<path d="M136.932 9.87354H129.862V12.4251H136.932V9.87354Z" fill="black"/>
<path d="M131.731 3.41309H129.862V11.0849H131.731V3.41309Z" fill="black"/>
<path d="M128.562 16.2656H121.492V18.8172H128.562V16.2656Z" fill="black"/>
<path d="M138.802 16.2656H131.731V18.8172H138.802V16.2656Z" fill="black"/>
<path d="M136.933 24.0059H131.172V26.5574H136.933V24.0059Z" fill="black"/>
<path d="M127.219 20.1313H121.492V22.6829H127.219V20.1313Z" fill="black"/>
<path d="M137.579 20.1313H132.403V22.6829H137.579V20.1313Z" fill="black"/>
<path d="M128.562 24.0059H121.492V26.5574H128.562V24.0059Z" fill="black"/>
<path d="M123.361 17.5371H121.492V25.2089H123.361V17.5371Z" fill="black"/>
<path d="M133.041 17.5371H131.172V21.4031H133.041V17.5371Z" fill="black"/>
<path d="M138.19 21.4116H136.321V25.2776H138.19V21.4116Z" fill="black"/>
<path d="M100.05 30.5093H92.9795V33.0608H100.05V30.5093Z" fill="black"/>
<path d="M98.1811 38.2412H92.4199V40.7928H98.1811V38.2412Z" fill="black"/>
<path d="M98.8269 34.3755H93.6514V36.927H98.8269V34.3755Z" fill="black"/>
<path d="M94.2886 31.7808H92.4199V35.6467H94.2886V31.7808Z" fill="black"/>
<path d="M99.438 35.647H97.5693V39.513H99.438V35.647Z" fill="black"/>
<path d="M103.976 3.41309H102.107V11.0849H103.976V3.41309Z" fill="black"/>
<path d="M107.877 30.5093H102.728V33.0608H107.877V30.5093Z" fill="black"/>
<path d="M117.557 34.3408H112.407V36.8924H117.557V34.3408Z" fill="black"/>
<path d="M107.877 38.2412H102.728V40.7928H107.877V38.2412Z" fill="black"/>
<path d="M109.143 31.7808H107.274V39.4526H109.143V31.7808Z" fill="black"/>
<path d="M113.018 30.5093H111.149V40.7928H113.018V30.5093Z" fill="black"/>
<path d="M118.831 32.3652V30.501H111.141V32.3652H118.831Z" fill="black"/>
<path d="M103.976 31.7808H102.107V39.4526H103.976V31.7808Z" fill="black"/>
<path d="M118.84 3.41309H116.282V5.96463H118.84V3.41309Z" fill="black"/>
<path d="M125.308 6.00781H122.75V8.55936H125.308V6.00781Z" fill="black"/>
<path d="M120.148 17.5625H117.591V26.5745H120.148V17.5625Z" fill="black"/>
<path d="M112.407 16.291H111.133V17.5625H112.407V16.291Z" fill="black"/>
<path d="M120.141 16.291H118.866V17.5625H120.141V16.291Z" fill="black"/>
<path d="M114.965 18.834H113.69V20.1055H114.965V18.834Z" fill="black"/>
<path d="M117.583 18.834H116.309V20.1055H117.583V18.834Z" fill="black"/>
<path d="M116.274 22.6572H114.999V23.9287H116.274V22.6572Z" fill="black"/>
<path d="M118.84 8.60205H116.282V11.1536H118.84V8.60205Z" fill="black"/>
<path d="M98.8265 16.291H93.6768V18.8426H98.8265V16.291Z" fill="black"/>
<path d="M108.188 16.291H103.038V18.8426H108.188V16.291Z" fill="black"/>
<path d="M118.211 20.1143H113.062V22.6658H118.211V20.1143Z" fill="black"/>
<path d="M108.188 21.4717H103.038V24.0232H108.188V21.4717Z" fill="black"/>
<path d="M98.8265 24.0229H93.6768V26.5745H98.8265V24.0229Z" fill="black"/>
<path d="M94.9512 17.5625H92.3936V25.303H94.9512V17.5625Z" fill="black"/>
<path d="M100.093 20.2002H96.2432V22.7517H100.093V20.2002Z" fill="black"/>
<path d="M100.102 22.7515H97.5439V25.303H100.102V22.7515Z" fill="black"/>
<path d="M3.87522 6.00781H0V9.87379H3.87522V6.00781Z" fill="#6414E6"/>
<path d="M7.75022 36.9268H3.875V40.7927H7.75022V36.9268Z" fill="#19BEE6"/>
<path d="M26.5149 29.2549H22.6396V33.1209H26.5149V29.2549Z" fill="#E619DC"/>
<path d="M34.1194 2.1416H30.2441V6.00758H34.1194V2.1416Z" fill="#FF6E00"/>
<path d="M49.758 9.19482H45.8828V13.0608H49.758V9.19482Z" fill="#E61973"/>
<path d="M54.2697 33.1211H50.3945V36.9871H54.2697V33.1211Z" fill="#1987E6"/>
<path d="M58.1281 2.1416H54.2529V6.00758H58.1281V2.1416Z" fill="#FFB919"/>
<path d="M76.841 36.9868H72.9658V40.8528H76.841V36.9868Z" fill="#FF4B00"/>
<path d="M84.6516 29.2549H80.7764V33.1209H84.6516V29.2549Z" fill="#FF1928"/>
<path d="M84.6516 18.2329H80.7764V22.0989H84.6516V18.2329Z" fill="#14E691"/>
<path d="M84.6521 22.0986H77.5303V29.255H84.6521V22.0986Z" fill="black"/>
<path d="M56.7844 29.2549H52.9092V33.1209H56.7844V29.2549Z" fill="black"/>
<path d="M72.9657 2.1416H58.1279V6.00758H72.9657V2.1416Z" fill="black"/>
<path d="M72.9663 36.9868H54.2705V40.8528H72.9663V36.9868Z" fill="black"/>
<path d="M80.777 33.1211H54.2705V36.9871H80.777V33.1211Z" fill="black"/>
<path d="M80.7685 18.2329H65.9824V24.6333H80.7685V18.2329Z" fill="black"/>
<path d="M80.7767 29.2549H73.6377V33.1209H80.7767V29.2549Z" fill="black"/>
<path d="M56.8452 9.19482H49.7578V13.0608H56.8452V9.19482Z" fill="black"/>
<path d="M34.903 6.00781H30.2441V9.87379H34.903V6.00781Z" fill="black"/>
<path d="M38.7524 9.87354H30.2441V13.0608H38.7524V9.87354Z" fill="black"/>
<path d="M38.7517 13.061H31.7246V22.2019H38.7517V13.061Z" fill="black"/>
<path d="M52.9099 13.061H45.8828V33.1212H52.9099V13.061Z" fill="black"/>
<path d="M38.7524 22.1934H30.2441V25.3806H38.7524V22.1934Z" fill="black"/>
<path d="M30.2527 9.19482H27.9189V13.0608H30.2527V9.19482Z" fill="black"/>
<path d="M30.2527 22.1934H27.9189V26.0593H30.2527V22.1934Z" fill="black"/>
<path d="M34.903 25.3291H30.2441V29.1951H34.903V25.3291Z" fill="black"/>
<path d="M30.2437 2.1416H3.875V6.00758H30.2437V2.1416Z" fill="black"/>
<path d="M30.2437 6.00781H3.875V9.1951H30.2437V6.00781Z" fill="black"/>
<path d="M80.7337 6.00781H49.7578V9.1951H80.7337V6.00781Z" fill="black"/>
<path d="M30.2437 26.0591H3.875V29.2464H30.2437V26.0591Z" fill="black"/>
<path d="M151.159 2.15869H150.53V5.98172H151.159V2.15869Z" fill="black"/>
<path d="M153.071 2.78613H152.442V4.0662H153.071V2.78613Z" fill="black"/>
<path d="M152.442 4.69336H151.813V5.32051H152.442V4.69336Z" fill="black"/>
<path d="M153.071 5.32031H152.442V5.94746H153.071V5.32031Z" fill="black"/>
<path d="M152.442 2.15869H151.159V2.78584H152.442V2.15869Z" fill="black"/>
<path d="M151.796 0.853027H149.867V1.48018H151.796V0.853027Z" fill="black"/>
<path d="M151.796 6.54883H149.867V7.17598H151.796V6.54883Z" fill="black"/>
<path d="M150.531 1.47998H149.23V2.10713H150.531V1.47998Z" fill="black"/>
<path d="M150.531 5.94775H149.23V6.5749H150.531V5.94775Z" fill="black"/>
<path d="M149.859 2.10742H149.23V2.73457H149.859V2.10742Z" fill="black"/>
<path d="M149.859 5.35498H149.23V5.98213H149.859V5.35498Z" fill="black"/>
<path d="M149.23 2.10742H148.602V5.9734H149.23V2.10742Z" fill="black"/>
<path d="M151.804 1.47998L153.733 1.47998V0.852833L151.804 0.852833V1.47998Z" fill="black"/>
<path d="M151.804 7.17627H153.733V6.54912H151.804V7.17627Z" fill="black"/>
<path d="M153.071 2.10742H154.371V1.48027H153.071V2.10742Z" fill="black"/>
<path d="M153.071 6.57471H154.371V5.94756H153.071V6.57471Z" fill="black"/>
<path d="M153.742 2.73438H154.371V2.10723H153.742V2.73438Z" fill="black"/>
<path d="M153.742 5.97314H154.371V5.346H153.742V5.97314Z" fill="black"/>
<path d="M154.371 5.98193H155V2.11595H154.371V5.98193Z" fill="black"/>
<path d="M152.442 4.06592H151.159V4.69307H152.442V4.06592Z" fill="black"/>
</g>
<defs>
<clipPath id="clip0_2676_9955">
<rect width="155" height="40" fill="white" transform="translate(0 0.853027)"/>
</clipPath>
</defs>
</svg>
