<svg width="154" height="40" viewBox="0 0 154 40" fill="none" xmlns="http://www.w3.org/2000/svg">
<g clip-path="url(#clip0_3032_11350)">
<path d="M40.1744 16.0945H43.4937V18.6197H58.7279V18.0496C59.2429 18.2543 59.8038 18.4265 60.4047 18.5681C61.4539 18.8263 62.5069 18.9564 63.5332 18.9564C65.7765 18.9564 67.6117 18.4016 68.9851 17.315L69.3056 17.5006C70.0916 17.9559 71.0415 18.3156 72.1251 18.5681C73.1743 18.8263 74.2273 18.9564 75.2536 18.9564C77.5294 18.9564 79.3855 18.3863 80.7628 17.2672V18.6197H89.3203V15.643C90.0281 16.4905 90.8846 17.1945 91.8804 17.7474C93.3225 18.549 94.9898 18.9545 96.8344 18.9545C98.6791 18.9545 100.346 18.549 101.789 17.7474C102.792 17.1907 103.65 16.479 104.35 15.6277V18.6178H112.027V14.9505L114.846 18.6178H121.889V0.315654H114.213V4.10732L111.416 0.315654H104.35V3.30958C103.645 2.45636 102.786 1.75044 101.789 1.20905C100.346 0.40748 98.6791 0.00191305 96.8344 0.00191305C94.9898 0.00191305 93.3225 0.40748 91.8804 1.20905C90.8865 1.76192 90.03 2.46592 89.3203 3.31532V0.315654H80.7628V0.97757C80.3011 0.749916 79.7823 0.560524 79.1985 0.405567C78.2542 0.13774 77.2718 0 76.2799 0C74.79 0 73.4528 0.260175 72.3044 0.77096C71.6081 1.07322 70.9939 1.45775 70.4693 1.9207L70.042 1.59357C69.3628 1.07131 68.5235 0.68296 67.4781 0.405567C66.5339 0.13774 65.5514 0 64.5595 0C63.0696 0 61.7324 0.260175 60.584 0.77096C59.8782 1.07705 59.2563 1.46922 58.726 1.93983V0.315654H44.2224L41.8531 5.03898L39.4266 0.315654H31.9907V18.6197H40.1706V16.0945H40.1744ZM96.1553 7.8703C96.3785 7.58334 96.5597 7.52977 96.8154 7.52977C97.05 7.52977 97.1645 7.59099 97.2446 7.65221L97.298 7.69047C97.4067 7.76699 97.567 7.90473 97.7119 8.2376L97.7272 8.27204C97.8741 8.59152 97.9485 8.99326 97.9485 9.46769C97.9485 10.1334 97.813 10.6194 97.5326 10.9541L97.5174 10.9714C97.3209 11.2143 97.1416 11.2985 96.8344 11.2985C96.512 11.2985 96.327 11.2124 96.1305 10.9714C95.8596 10.6366 95.7204 10.1315 95.7204 9.46578C95.7204 8.7656 95.8615 8.23378 96.1534 7.86838L96.1553 7.8703Z" fill="#181A4D"/>
<path d="M154 28.3839V21.3592H140.05V32.5123H137.148V21.3592H128.8V23.3889C128.491 23.0943 128.138 22.8303 127.742 22.5969C126.351 21.7628 124.369 21.3592 121.685 21.3592H113.881V28.1677L111.918 21.3592H102.233L100.02 29.3959C99.8771 29.2218 99.7264 29.0554 99.5662 28.8985L100.839 23.3851L99.8618 22.6352C99.1827 22.1129 98.3434 21.7246 97.298 21.4472C96.3537 21.1794 95.3713 21.0416 94.3793 21.0416C92.8895 21.0416 91.5523 21.3018 90.4039 21.8126C89.7076 22.1148 89.0933 22.4994 88.5668 22.9623L88.1395 22.6352C87.4604 22.1129 86.6211 21.7246 85.5757 21.4472C84.6314 21.1794 83.649 21.0416 82.657 21.0416C81.1672 21.0416 79.8299 21.2999 78.6816 21.8126C77.434 22.354 76.4497 23.1613 75.7648 24.202C75.6771 24.334 75.5931 24.4679 75.5168 24.6056C74.7748 23.6357 73.8477 22.8456 72.7527 22.2507C71.3105 21.4491 69.6433 21.0435 67.7986 21.0435C65.9539 21.0435 64.2867 21.4491 62.8445 22.2507C61.7629 22.8514 60.8453 23.6319 60.1014 24.5865C59.7408 23.9877 59.2658 23.4521 58.684 22.9929C57.3143 21.8929 55.3075 21.3573 52.5472 21.3573H44.7012V21.5983C43.6978 21.2291 42.5265 21.0416 41.1988 21.0416C39.3789 21.0416 37.7288 21.4702 36.2962 22.31C35.3386 22.8667 34.5107 23.5726 33.8163 24.4239V21.3573H26.1401V25.149L23.3435 21.3573H9.54762V31.7509C9.54762 32.0149 9.50566 32.2177 9.42363 32.3095C9.42363 32.3095 9.32443 32.365 9.0421 32.365C8.75978 32.365 8.64341 32.3076 8.58428 32.2655C8.55757 32.2139 8.47363 32.0168 8.47363 31.5424V21.3592H0V31.7528C0 33.4248 0.392969 34.9113 1.17318 36.1777C1.95531 37.4269 3.056 38.3968 4.44856 39.0587C5.76482 39.6843 7.28137 40 8.95817 40C10.635 40 12.2011 39.6652 13.5288 39.0071C14.6219 38.4734 15.5433 37.7598 16.2777 36.8817V39.6633H23.9539V35.996L26.7734 39.6633H33.8163V36.8989C34.4878 37.6871 35.2947 38.3433 36.2276 38.8579L36.2523 38.8713C37.6583 39.6193 39.2931 40 41.113 40C42.3701 40 43.57 39.7761 44.6993 39.3304V39.6633H53.11V38.7048C53.4514 38.9612 53.8272 39.1869 54.2335 39.3782L54.2641 39.3916C55.1778 39.801 56.2499 40 57.5394 40C58.0927 40 58.6039 39.9388 59.0598 39.8201C59.468 39.7283 59.8591 39.6078 60.2216 39.4624L61.5168 38.9421L61.4367 37.8306C61.8697 38.1883 62.3409 38.5097 62.8464 38.7909C64.2886 39.5925 65.9559 39.9981 67.8005 39.9981C69.6452 39.9981 71.3124 39.5925 72.7546 38.7909C73.4185 38.4217 74.0174 37.9855 74.5516 37.4881L74.4734 37.842L75.6828 38.5422C76.4706 38.9975 77.4187 39.3572 78.5042 39.6097C79.5533 39.868 80.6063 39.9981 81.6326 39.9981C83.876 39.9981 85.7111 39.4433 87.0846 38.3567L87.4051 38.5422C88.1929 38.9994 89.141 39.3572 90.2265 39.6097C91.2757 39.868 92.3287 39.9981 93.353 39.9981C94.8601 39.9981 96.184 39.7474 97.3075 39.2539L97.195 39.6614H106.167L106.775 36.8836H107.408L107.954 39.6614H121.248C124.081 39.6614 126.256 39.2367 127.898 38.3605C128.224 38.1845 128.526 37.9913 128.802 37.7808V39.6614H154.002V32.5314H153.561V28.382H154.002L154 28.3839ZM44.6993 31.5443L43.7874 31.9192C43.2361 32.1469 42.8985 32.2425 42.6963 32.2885C42.475 32.3401 42.2098 32.365 41.9084 32.365C41.0386 32.365 40.72 32.0838 40.6074 31.9709C40.493 31.8485 40.2068 31.5098 40.2068 30.5954C40.2068 29.5337 40.5502 29.1759 40.6628 29.0573C40.844 28.8679 41.1797 28.6154 41.9924 28.6154C42.2404 28.6154 42.517 28.6498 42.8107 28.7149L42.8451 28.7225L42.8794 28.7283C43.1636 28.7818 43.425 28.8679 43.6825 28.9923L44.6993 29.4839V31.5424V31.5443ZM68.4968 31.9977L68.4815 32.0149C68.2851 32.2579 68.1057 32.342 67.7986 32.342C67.4762 32.342 67.2912 32.2559 67.0947 32.0149C66.8238 31.682 66.6846 31.1751 66.6846 30.5093C66.6846 29.8091 66.8257 29.2773 67.1176 28.9119C67.3408 28.625 67.522 28.5714 67.7776 28.5714C68.0123 28.5714 68.1267 28.6326 68.2068 28.6938L68.2603 28.7321C68.369 28.8086 68.5292 28.9464 68.6742 29.2792L68.6895 29.3137C68.8364 29.6331 68.9107 30.0349 68.9107 30.5093C68.9107 31.1751 68.7753 31.661 68.4949 31.9958L68.4968 31.9977Z" fill="#181A4D"/>
<path d="M33.9022 16.7067V2.22868H38.2668L41.876 9.25723L45.4013 2.22868H49.7659V16.7067H45.4013V9.13097L42.7363 14.1814H40.9527L38.2668 9.13097V16.7067H33.9022ZM52.0798 16.7067V2.22868H56.8222V16.7067H52.0798ZM63.5351 17.0434C62.6538 17.0434 61.7591 16.9305 60.8492 16.7067C59.9392 16.4962 59.1705 16.2093 58.5409 15.8439L59.2964 12.4138C60.1071 12.848 60.8625 13.1369 61.5626 13.2766C62.2761 13.4028 62.9342 13.4659 63.5351 13.4659C64.094 13.4659 64.5137 13.3741 64.7941 13.1924C65.0879 13.0106 65.2348 12.7639 65.2348 12.4559C65.2348 12.1746 65.0745 11.9585 64.7521 11.8035C64.4298 11.6352 64.0101 11.4802 63.4931 11.3405C62.9895 11.2009 62.4516 11.0383 61.8774 10.8565C61.3032 10.6595 60.7576 10.407 60.2406 10.099C59.737 9.77567 59.325 9.3548 59.0026 8.83636C58.6802 8.30262 58.52 7.63688 58.52 6.83722C58.52 5.82713 58.7641 4.95669 59.2544 4.22782C59.7446 3.48364 60.4428 2.91546 61.3528 2.52329C62.2627 2.11581 63.3329 1.91302 64.5633 1.91302C65.3893 1.91302 66.1924 2.0259 66.9764 2.24972C67.7738 2.46016 68.4109 2.74712 68.8859 3.11251L68.1725 6.20591C67.459 5.9113 66.8162 5.70087 66.242 5.57461C65.6831 5.43495 65.1508 5.36417 64.6472 5.36417C64.0597 5.36417 63.6114 5.44834 63.3043 5.61669C62.9971 5.78504 62.8426 6.00887 62.8426 6.29009C62.8426 6.57131 63.0029 6.77409 63.3252 6.94244C63.6476 7.11079 64.0597 7.27148 64.5633 7.42644C65.0669 7.5814 65.6048 7.75549 66.179 7.95253C66.7532 8.14957 67.2912 8.40784 67.7948 8.73114C68.2984 9.05445 68.7104 9.47532 69.0328 9.99376C69.3552 10.5122 69.5155 11.1645 69.5155 11.9508C69.5155 13.5788 68.9832 14.8338 67.9207 15.7176C66.8715 16.6014 65.4103 17.0434 63.5351 17.0434ZM75.2555 17.0434C74.3742 17.0434 73.4795 16.9305 72.5696 16.7067C71.6596 16.4962 70.8909 16.2093 70.2613 15.8439L71.0168 12.4138C71.8275 12.848 72.5829 13.1369 73.283 13.2766C73.9965 13.4028 74.6546 13.4659 75.2555 13.4659C75.8144 13.4659 76.2341 13.3741 76.5145 13.1924C76.8083 13.0106 76.9552 12.7639 76.9552 12.4559C76.9552 12.1746 76.7949 11.9585 76.4725 11.8035C76.1502 11.6352 75.7305 11.4802 75.2135 11.3405C74.7099 11.2009 74.172 11.0383 73.5978 10.8565C73.0236 10.6595 72.478 10.407 71.961 10.099C71.4574 9.77567 71.0454 9.3548 70.723 8.83636C70.4006 8.30262 70.2404 7.63688 70.2404 6.83722C70.2404 5.82713 70.4845 4.95669 70.9748 4.22782C71.465 3.48364 72.1632 2.91546 73.0732 2.52329C73.9831 2.11581 75.0533 1.91302 76.2837 1.91302C77.1097 1.91302 77.9128 2.0259 78.6968 2.24972C79.4942 2.46016 80.1313 2.74712 80.6063 3.11251L79.8929 6.20591C79.1794 5.9113 78.5366 5.70087 77.9624 5.57461C77.4035 5.43495 76.8712 5.36417 76.3676 5.36417C75.7801 5.36417 75.3318 5.44834 75.0247 5.61669C74.7175 5.78504 74.563 6.00887 74.563 6.29009C74.563 6.57131 74.7233 6.77409 75.0456 6.94244C75.368 7.11079 75.7801 7.27148 76.2837 7.42644C76.7873 7.5814 77.3252 7.75549 77.8994 7.95253C78.4736 8.14957 79.0116 8.40784 79.5152 8.73114C80.0188 9.05445 80.4308 9.47532 80.7532 9.99376C81.0756 10.5122 81.2359 11.1645 81.2359 11.9508C81.2359 13.5788 80.7036 14.8338 79.6411 15.7176C78.5919 16.6014 77.1307 17.0434 75.2555 17.0434ZM82.6742 16.7067V2.22868H87.4165V16.7067H82.6742ZM96.8363 17.0434C95.3122 17.0434 93.9692 16.72 92.8075 16.0753C91.6457 15.4306 90.7377 14.5392 90.0796 13.4028C89.4367 12.2665 89.1143 10.9618 89.1143 9.48871C89.1143 8.01566 89.4367 6.68992 90.0796 5.55356C90.7377 4.41721 91.6457 3.52573 92.8075 2.88103C93.9692 2.23633 95.3122 1.91302 96.8363 1.91302C98.3605 1.91302 99.7035 2.23633 100.865 2.88103C102.027 3.51234 102.929 4.39617 103.572 5.53252C104.23 6.66887 104.558 7.98696 104.558 9.48871C104.558 10.9905 104.23 12.2665 103.572 13.4028C102.929 14.5392 102.027 15.4306 100.865 16.0753C99.7035 16.72 98.3605 17.0434 96.8363 17.0434ZM96.8363 13.2134C97.7177 13.2134 98.4388 12.8691 98.9977 12.1823C99.5719 11.4955 99.858 10.5906 99.858 9.46767C99.858 8.7101 99.7245 8.04436 99.4593 7.46853C99.2075 6.8927 98.8508 6.44504 98.3892 6.12174C97.9409 5.78504 97.4163 5.61669 96.8154 5.61669C95.934 5.61669 95.213 5.97443 94.654 6.68992C94.0951 7.39201 93.8147 8.31792 93.8147 9.46767C93.8147 10.6174 94.0951 11.4955 94.654 12.1823C95.213 12.8691 95.9417 13.2134 96.8363 13.2134ZM106.26 16.7067V2.22868H110.457L116.122 9.90958V2.22868H119.983V16.7067H115.787L110.121 9.34141V16.7067H106.26Z" fill="white"/>
<path d="M8.95814 38.0869C7.55986 38.0869 6.32754 37.8344 5.265 37.3294C4.20246 36.8243 3.37646 36.1012 2.78891 35.1619C2.20137 34.2073 1.90759 33.0709 1.90759 31.7528V23.2723H6.56599V31.5424C6.56599 32.4817 6.78918 33.1761 7.23747 33.6257C7.69912 34.06 8.30002 34.278 9.04208 34.278C9.82611 34.278 10.4194 34.0542 10.8257 33.6047C11.2454 33.1551 11.4552 32.5391 11.4552 31.7528V23.2723H16.1766V31.7528C16.1766 33.002 15.8694 34.102 15.2533 35.0567C14.6371 36.0113 13.7844 36.7535 12.6933 37.2873C11.6155 37.821 10.3717 38.0869 8.95814 38.0869ZM18.1853 37.7502V23.2723H22.382L28.0477 30.9532V23.2723H31.9087V37.7502H27.7119L22.0463 30.385V37.7502H18.1853ZM41.1129 38.0869C39.6021 38.0869 38.2801 37.7847 37.147 37.1821C36.0272 36.5641 35.1535 35.7014 34.524 34.5937C33.9079 33.486 33.6007 32.1947 33.6007 30.7217C33.6007 29.2486 33.9231 27.8674 34.566 26.7024C35.2241 25.5373 36.1188 24.6267 37.2519 23.9667C38.3984 23.2933 39.7147 22.9566 41.1969 22.9566C42.847 22.9566 44.1422 23.2799 45.0789 23.9246L44.5123 27.2705C44.106 27.0735 43.6806 26.9338 43.2323 26.8497C42.7993 26.7521 42.3853 26.7024 41.9943 26.7024C40.8478 26.7024 39.9455 27.0467 39.2873 27.7335C38.6292 28.4203 38.3011 29.3749 38.3011 30.5954C38.3011 31.7452 38.6159 32.65 39.2454 33.31C39.8882 33.9547 40.7772 34.278 41.9103 34.278C42.3586 34.278 42.763 34.236 43.1274 34.1518C43.5051 34.0676 43.9667 33.9127 44.5123 33.6888L45.0999 37.0137C43.8828 37.7292 42.5532 38.0869 41.1129 38.0869ZM57.5394 38.0869C56.5322 38.0869 55.7005 37.9396 55.0424 37.645C54.3842 37.337 53.8596 36.9161 53.4686 36.3824C53.0775 35.8487 52.7837 35.225 52.5873 34.5095C52.3908 33.794 52.2591 33.0231 52.1886 32.1947H51.2023V37.7502H46.6069V23.2723H52.5453C54.8401 23.2723 56.4902 23.6797 57.4975 24.4928C58.518 25.2924 59.0293 26.3791 59.0293 27.7545C59.0293 28.5829 58.8061 29.3252 58.3578 29.9852C57.9095 30.6299 57.1903 31.1713 56.1965 31.6055C56.2518 31.9135 56.3014 32.166 56.3433 32.3631C56.3853 32.5601 56.4483 32.7763 56.5322 33.0154C56.7134 33.5205 56.9385 33.8706 57.2037 34.0676C57.4841 34.2647 57.8618 34.3622 58.3368 34.3622C58.6439 34.3622 58.953 34.3201 59.2601 34.236L59.5119 37.6871C59.2315 37.8 58.932 37.8899 58.6096 37.9607C58.3025 38.0448 57.9457 38.0869 57.5394 38.0869ZM51.2023 29.3118H51.9997C53.0355 29.3118 53.7623 29.1989 54.182 28.9751C54.615 28.7359 54.8325 28.3361 54.8325 27.7756C54.8325 27.2992 54.657 26.9549 54.3079 26.7444C53.9588 26.5206 53.4056 26.4077 52.6502 26.4077H51.2023V29.3118ZM67.7986 38.0869C66.2744 38.0869 64.9314 37.7636 63.7697 37.1189C62.608 36.4742 61.6999 35.5827 61.0418 34.4464C60.3989 33.31 60.0766 32.0053 60.0766 30.5323C60.0766 29.0592 60.3989 27.7335 61.0418 26.5971C61.6999 25.4608 62.608 24.5693 63.7697 23.9246C64.9314 23.2799 66.2744 22.9566 67.7986 22.9566C69.3228 22.9566 70.6657 23.2799 71.8275 23.9246C72.9892 24.5559 73.8915 25.4397 74.5344 26.5761C75.1925 27.7125 75.5206 29.0305 75.5206 30.5323C75.5206 32.034 75.1925 33.31 74.5344 34.4464C73.8915 35.5827 72.9892 36.4742 71.8275 37.1189C70.6657 37.7636 69.3228 38.0869 67.7986 38.0869ZM67.7986 34.257C68.6799 34.257 69.401 33.9127 69.9599 33.2259C70.5341 32.5391 70.8203 31.6342 70.8203 30.5112C70.8203 29.7537 70.6867 29.0879 70.4216 28.5121C70.1698 27.9363 69.813 27.4886 69.3514 27.1653C68.9031 26.8286 68.3785 26.6603 67.7776 26.6603C66.8963 26.6603 66.1752 27.018 65.6163 27.7335C65.0573 28.4356 64.7769 29.3615 64.7769 30.5112C64.7769 31.661 65.0573 32.5391 65.6163 33.2259C66.1752 33.9127 66.9039 34.257 67.7986 34.257ZM81.6288 38.0869C80.7475 38.0869 79.8528 37.9741 78.9429 37.7502C78.0329 37.5398 77.2642 37.2528 76.6347 36.8874L77.3901 33.4573C78.2008 33.8916 78.9562 34.1805 79.6563 34.3201C80.3698 34.4464 81.0279 34.5095 81.6288 34.5095C82.1877 34.5095 82.6074 34.4177 82.8878 34.236C83.1816 34.0542 83.3285 33.8074 83.3285 33.4994C83.3285 33.2182 83.1683 33.002 82.8459 32.8471C82.5235 32.6787 82.1038 32.5238 81.5868 32.3841C81.0832 32.2445 80.5453 32.0819 79.9711 31.9001C79.3969 31.7031 78.8513 31.4506 78.3344 31.1426C77.8307 30.8192 77.4187 30.3984 77.0963 29.8799C76.7739 29.3462 76.6137 28.6805 76.6137 27.8808C76.6137 26.8707 76.8579 26.0003 77.3481 25.2714C77.8384 24.5272 78.5366 23.959 79.4465 23.5669C80.3564 23.1594 81.4266 22.9566 82.657 22.9566C83.483 22.9566 84.2861 23.0695 85.0702 23.2933C85.8675 23.5037 86.5047 23.7907 86.9797 24.1561L86.2662 27.2495C85.5528 26.9549 84.9099 26.7444 84.3357 26.6182C83.7768 26.4785 83.2446 26.4077 82.7409 26.4077C82.1534 26.4077 81.7051 26.4919 81.398 26.6603C81.0909 26.8286 80.9363 27.0524 80.9363 27.3337C80.9363 27.6149 81.0966 27.8177 81.419 27.986C81.7414 28.1544 82.1534 28.3151 82.657 28.47C83.1606 28.625 83.6986 28.7991 84.2728 28.9961C84.847 29.1932 85.3849 29.4514 85.8885 29.7747C86.3921 30.098 86.8042 30.5189 87.1266 31.0373C87.4489 31.5558 87.6092 32.2081 87.6092 32.9944C87.6092 34.6224 87.077 35.8774 86.0144 36.7612C84.9652 37.645 83.504 38.0869 81.6288 38.0869ZM93.3511 38.0869C92.4698 38.0869 91.5751 37.9741 90.6652 37.7502C89.7553 37.5398 88.9865 37.2528 88.357 36.8874L89.1124 33.4573C89.9231 33.8916 90.6785 34.1805 91.3786 34.3201C92.0921 34.4464 92.7502 34.5095 93.3511 34.5095C93.91 34.5095 94.3297 34.4177 94.6101 34.236C94.9039 34.0542 95.0508 33.8074 95.0508 33.4994C95.0508 33.2182 94.8906 33.002 94.5682 32.8471C94.2458 32.6787 93.8261 32.5238 93.3091 32.3841C92.8055 32.2445 92.2676 32.0819 91.6934 31.9001C91.1192 31.7031 90.5736 31.4506 90.0567 31.1426C89.553 30.8192 89.141 30.3984 88.8186 29.8799C88.4962 29.3462 88.336 28.6805 88.336 27.8808C88.336 26.8707 88.5802 26.0003 89.0704 25.2714C89.5607 24.5272 90.2589 23.959 91.1688 23.5669C92.0787 23.1594 93.1489 22.9566 94.3793 22.9566C95.2053 22.9566 96.0084 23.0695 96.7925 23.2933C97.5898 23.5037 98.227 23.7907 98.702 24.1561L97.9885 27.2495C97.2751 26.9549 96.6322 26.7444 96.058 26.6182C95.4991 26.4785 94.9669 26.4077 94.4633 26.4077C93.8757 26.4077 93.4274 26.4919 93.1203 26.6603C92.8132 26.8286 92.6587 27.0524 92.6587 27.3337C92.6587 27.6149 92.8189 27.8177 93.1413 27.986C93.4637 28.1544 93.8757 28.3151 94.3793 28.47C94.8829 28.625 95.4209 28.7991 95.9951 28.9961C96.5693 29.1932 97.1072 29.4514 97.6108 29.7747C98.1144 30.098 98.5265 30.5189 98.8489 31.0373C99.1713 31.5558 99.3315 32.2081 99.3315 32.9944C99.3315 34.6224 98.7993 35.8774 97.7367 36.7612C96.6875 37.645 95.2263 38.0869 93.3511 38.0869ZM99.6978 37.7502L103.685 23.2723H110.483L114.659 37.7502H109.518L108.973 34.9725H105.237L104.629 37.7502H99.6978ZM105.678 32.3841H108.469L107.105 26.05L105.678 32.3841ZM121.244 37.7502H115.788V23.2723H121.685C123.993 23.2723 125.685 23.5956 126.763 24.2403C127.841 24.8716 128.379 25.7477 128.379 26.8707C128.379 28.3304 127.616 29.3328 126.092 29.8799C128.051 30.2587 129.029 31.4161 129.029 33.3521C129.029 34.8386 128.35 35.9481 126.994 36.677C125.651 37.3925 123.734 37.7502 121.244 37.7502ZM120.468 28.9961H122.126C122.685 28.9961 123.14 28.8698 123.49 28.6173C123.839 28.3648 124.014 28.0281 124.014 27.6072C124.014 26.6392 123.356 26.1552 122.042 26.1552H120.468V28.9961ZM122.252 34.7831C122.952 34.7831 123.49 34.6434 123.867 34.3622C124.245 34.081 124.434 33.6888 124.434 33.1838C124.434 32.6366 124.245 32.2158 123.867 31.9212C123.49 31.6132 122.952 31.4582 122.252 31.4582H120.447V34.7831H122.252ZM130.706 37.7502V23.2723H135.239V34.4253H140.359L140.149 37.7502H130.706ZM141.957 37.7502V23.2723H152.092V26.4709H147.056V29.0382H151.652V31.6897H147.056V34.4464H152.092V37.7502H141.957Z" fill="#F9C94F"/>
<path fill-rule="evenodd" clip-rule="evenodd" d="M9.27957 22.9387C6.99759 21.6811 5.00274 19.5423 2.17046 16.0661C-1.24569 11.8734 -0.0952677 12.0941 2.7274 12.6357C4.45512 12.9671 6.80931 13.4188 9.12633 13.0522C13.4574 12.3669 20.8458 11.6628 25.8875 11.1824C27.9495 10.9859 29.619 10.8268 30.5262 10.7217C32.6096 10.4804 32.1135 11.2938 31.2864 12.6496C30.8727 13.3277 30.3763 14.1416 30.0784 15.0269C29.1855 17.6823 28.4325 19.8789 26.7952 20.9652C26.4237 21.2117 26.1847 21.48 25.9362 21.7589C25.8977 21.8021 25.859 21.8456 25.8195 21.8893L27.3545 23.3314L29.3323 21.8559C29.662 21.6099 30.1295 21.6764 30.3769 22.0043C30.6241 22.3323 30.5572 22.7976 30.2277 23.0435L29.9468 23.2531L30.2543 23.2021C30.6608 23.1347 31.0452 23.4079 31.113 23.8122C31.1807 24.2166 30.9061 24.599 30.4996 24.6664L29.5597 24.8223L30.0749 25.0259C30.4578 25.1773 30.645 25.6089 30.4927 25.9899C30.3405 26.3708 29.9065 26.5569 29.5237 26.4055L27.0384 25.423L26.646 25.7157C26.3163 25.9617 25.8485 25.8952 25.6013 25.5673C25.354 25.2393 25.4208 24.774 25.7505 24.5281L26.143 24.2353L24.6624 22.8443C23.5934 23.4602 21.658 24.0586 17.4606 24.5281C14.6274 24.5281 12.5335 24.2813 10.7227 23.6026L8.91366 25.4021L9.33402 25.7157C9.66372 25.9617 9.73052 26.427 9.48326 26.7549C9.23599 27.0829 8.76827 27.1493 8.43857 26.9034L8.04616 26.6106L5.56085 27.5932C5.17786 27.7446 4.74402 27.5585 4.59179 27.1775C4.4396 26.7965 4.62669 26.365 5.00964 26.2136L5.52479 26.0099L4.58487 25.8541C4.17837 25.7867 3.90373 25.4042 3.97149 24.9999C4.03924 24.5955 4.42372 24.3223 4.83022 24.3897L5.13763 24.4407L4.85679 24.2312C4.52708 23.9852 4.46028 23.52 4.70755 23.192C4.95481 22.864 5.42253 22.7976 5.75223 23.0435L7.70762 24.5023L9.27957 22.9387Z" fill="#171C4C"/>
<path fill-rule="evenodd" clip-rule="evenodd" d="M2.34895 9.42926C1.75769 9.36065 1.30982 9.30869 1.12338 9.42994C0.333163 9.54405 0.558967 10.2921 0.979982 10.9072C1.52175 11.7013 1.87438 12.0787 2.20893 12.4367C2.68374 12.9449 3.12214 13.414 4.01314 14.9804C5.09195 16.8779 6.06267 18.1492 6.46941 18.6536C7.07891 19.6328 7.91227 20.4961 8.91042 21.2141L7.8498 21.9359L5.75278 20.3715C5.42311 20.1255 4.95539 20.192 4.7081 20.52C4.46084 20.8479 4.52767 21.3132 4.85734 21.5591L5.13818 21.7687L4.83077 21.7177C4.42427 21.6503 4.0398 21.9235 3.97204 22.3278C3.90432 22.7322 4.17892 23.1147 4.58542 23.1821L5.52537 23.3379L5.01022 23.5416C4.62724 23.693 4.44015 24.1245 4.59238 24.5055C4.74457 24.8864 5.17845 25.0725 5.5614 24.9211L8.04671 23.9386L8.43912 24.2313C8.76882 24.4773 9.23655 24.4109 9.48381 24.0829C9.7311 23.7549 9.66427 23.2897 9.33457 23.0437L9.11062 22.8766L10.3016 22.066C12.777 23.3492 15.9196 23.8737 19.1087 23.3297C21.3521 22.9471 23.313 22.0878 24.8469 20.9212L25.975 21.689L25.7511 21.8561C25.4214 22.102 25.3546 22.5673 25.6018 22.8952C25.8491 23.2232 26.3168 23.2897 26.6465 23.0437L27.0389 22.7509L29.5242 23.7334C29.9071 23.8849 30.3411 23.6988 30.4933 23.3178C30.6455 22.9369 30.4584 22.5053 30.0754 22.3539L29.5603 22.1502L30.5002 21.9944C30.9067 21.927 31.1813 21.5446 31.1136 21.1402C31.0458 20.7358 30.6614 20.4626 30.2548 20.53L29.9474 20.581L30.2283 20.3715C30.5581 20.1255 30.625 19.6603 30.3775 19.3323C30.1304 19.0043 29.6626 18.9379 29.3329 19.1839L27.2359 20.7483L25.9989 19.9064C27.4232 18.4495 28.2803 16.6747 28.3763 14.8091C28.5111 14.27 28.6476 13.6566 28.7727 12.9778C29.0924 11.2453 29.3518 10.6803 29.6326 10.0685C29.8304 9.63734 30.039 9.18292 30.2871 8.28037C30.4805 7.58093 30.4426 6.80709 29.6506 6.91018C29.4318 6.84459 29.0223 7.01425 28.4817 7.23821C28.3274 7.30213 28.1623 7.37057 27.988 7.43913C27.988 7.43913 27.9868 7.42206 27.9816 7.39524C27.9787 7.31594 27.9387 7.22633 27.8376 7.1282L27.8381 7.13114C27.8444 7.13949 27.8502 7.14771 27.8555 7.15584C27.7544 7.06434 27.5769 7.01772 27.266 7.15516C26.7327 7.39067 25.9004 7.66876 24.7976 7.80498C23.442 6.84917 21.7024 6.17657 19.7706 5.87842C16.8242 4.32735 16.1922 3.9802 15.8236 2.91619C15.7201 2.617 15.5599 2.52972 15.4161 2.5234C15.4264 2.52149 15.437 2.51985 15.4481 2.51849L15.4508 2.51684C15.3017 2.51493 15.2017 2.54808 15.1356 2.59915C15.1103 2.61349 15.0957 2.62412 15.0957 2.62412C15.0309 2.46212 14.9722 2.30646 14.9174 2.16088C14.7253 1.65077 14.5797 1.26411 14.3757 1.16193C13.9122 0.564665 13.2606 1.05608 12.8287 1.65199C12.2703 2.4199 12.047 2.86239 11.8351 3.2822C11.5343 3.87801 11.2566 4.42812 10.0769 5.79795C9.33119 6.66339 8.7436 7.43485 8.3057 8.05136C6.06028 8.7945 4.35643 9.14559 3.48017 9.02404C3.1371 8.97638 2.98362 9.06846 2.91822 9.18286C2.92052 9.17368 2.92327 9.16424 2.92646 9.15459L2.92589 9.15165C2.8627 9.27237 2.85491 9.3686 2.87905 9.44503C2.88308 9.47193 2.88775 9.48847 2.88775 9.48847C2.69832 9.46982 2.51775 9.44883 2.34895 9.42926Z" fill="#171C4C"/>
<mask id="mask0_3032_11350" style="mask-type:luminance" maskUnits="userSpaceOnUse" x="0" y="0" width="32" height="27">
<path d="M31.9377 0.593811H0V26.4251H31.9377V0.593811Z" fill="white"/>
<path fill-rule="evenodd" clip-rule="evenodd" d="M2.34895 10.0231C1.75769 9.95446 1.30982 9.9025 1.12338 10.0238C0.333163 10.1379 0.558967 10.8859 0.979982 11.501C1.52175 12.2951 1.87438 12.6725 2.20893 13.0305C2.68374 13.5387 3.12214 14.0079 4.01314 15.5742C5.09195 17.4717 6.06267 18.7431 6.46941 19.2474C7.07891 20.2266 7.91227 21.0899 8.91042 21.8079L7.8498 22.5297L5.75278 20.9653C5.42311 20.7193 4.95539 20.7858 4.7081 21.1138C4.46084 21.4417 4.52767 21.907 4.85734 22.153L5.13818 22.3625L4.83077 22.3115C4.42427 22.2441 4.0398 22.5173 3.97204 22.9217C3.90432 23.326 4.17892 23.7085 4.58542 23.7759L5.52537 23.9317L5.01022 24.1354C4.62724 24.2868 4.44015 24.7183 4.59238 25.0993C4.74457 25.4803 5.17845 25.6663 5.5614 25.5149L8.04671 24.5324L8.43912 24.8252C8.76882 25.0711 9.23655 25.0047 9.48381 24.6767C9.7311 24.3487 9.66427 23.8835 9.33457 23.6375L9.11062 23.4704L10.3016 22.6598C12.777 23.9431 15.9196 24.4675 19.1087 23.9236C21.3521 23.5409 23.313 22.6816 24.8469 21.515L25.975 22.2828L25.7511 22.4499C25.4214 22.6958 25.3546 23.1611 25.6018 23.4891C25.8491 23.817 26.3168 23.8835 26.6465 23.6375L27.0389 23.3448L29.5242 24.3273C29.9071 24.4787 30.3411 24.2926 30.4933 23.9116C30.6455 23.5307 30.4584 23.0991 30.0754 22.9477L29.5603 22.744L30.5002 22.5882C30.9067 22.5208 31.1813 22.1384 31.1136 21.734C31.0458 21.3296 30.6614 21.0564 30.2548 21.1238L29.9474 21.1748L30.2283 20.9653C30.5581 20.7193 30.625 20.2541 30.3775 19.9261C30.1304 19.5982 29.6626 19.5317 29.3329 19.7777L27.2359 21.3421L25.9989 20.5003C27.4232 19.0433 28.2803 17.2685 28.3763 15.403C28.5111 14.8638 28.6476 14.2504 28.7727 13.5716C29.0924 11.8391 29.3518 11.2741 29.6326 10.6623C29.8304 10.2311 30.039 9.77673 30.2871 8.87418C30.4805 8.17474 30.4426 7.4009 29.6506 7.50399C29.4318 7.4384 29.0223 7.60806 28.4817 7.83202C28.3274 7.89594 28.1623 7.96438 27.988 8.03294C27.988 8.03294 27.9868 8.01587 27.9816 7.98906C27.9787 7.90975 27.9387 7.82014 27.8376 7.72201L27.8381 7.72495C27.8444 7.7333 27.8502 7.74152 27.8555 7.74966C27.7544 7.65815 27.5769 7.61153 27.266 7.74897C26.7327 7.98448 25.9004 8.26257 24.7976 8.39879C23.442 7.44298 21.7024 6.77038 19.7706 6.47223C16.8242 4.92116 16.1922 4.57401 15.8236 3.51C15.7201 3.21081 15.5599 3.12355 15.4161 3.11722C15.4264 3.11529 15.437 3.11366 15.4481 3.11229L15.4508 3.11066C15.3017 3.10873 15.2017 3.14189 15.1356 3.19296C15.1103 3.2073 15.0957 3.21793 15.0957 3.21793C15.0309 3.05594 14.9722 2.90027 14.9174 2.75469C14.7253 2.24458 14.5797 1.85792 14.3757 1.75574C13.9122 1.15848 13.2606 1.64989 12.8287 2.24581C12.2703 3.01372 12.047 3.4562 11.8351 3.87601C11.5343 4.47182 11.2566 5.02194 10.0769 6.39176C9.33119 7.2572 8.7436 8.02866 8.3057 8.64517C6.06028 9.38831 4.35643 9.7394 3.48017 9.61785C3.1371 9.57019 2.98362 9.66227 2.91822 9.77667C2.92052 9.76749 2.92327 9.75805 2.92646 9.7484L2.92589 9.74546C2.8627 9.86618 2.85491 9.96241 2.87905 10.0388C2.88308 10.0657 2.88775 10.0823 2.88775 10.0823C2.69832 10.0636 2.51775 10.0426 2.34895 10.0231Z" fill="#171C4C"/>
</mask>
<g mask="url(#mask0_3032_11350)">
<path d="M1.12337 10.0238L1.20914 10.6115C1.29511 10.5991 1.37732 10.5681 1.45003 10.5209L1.12337 10.0238ZM2.34895 10.0231L2.43972 9.43624C2.43254 9.43514 2.42533 9.43416 2.41811 9.43333L2.34895 10.0231ZM0.979978 11.501L1.47394 11.1676L1.47342 11.1668L0.979978 11.501ZM6.4694 19.2475L6.97697 18.9348C6.96419 18.9143 6.95019 18.8946 6.93503 18.8758L6.4694 19.2475ZM8.91041 21.808L9.24752 22.298C9.40786 22.1889 9.50481 22.009 9.50732 21.8157C9.50985 21.6224 9.41765 21.44 9.2602 21.3267L8.91041 21.808ZM7.84979 22.5298L7.49161 23.0049C7.69619 23.1575 7.97581 23.1636 8.18686 23.0199L7.84979 22.5298ZM5.13817 22.3626L5.04003 22.9483C5.3115 22.9933 5.57873 22.8479 5.68702 22.5961C5.79528 22.3444 5.71654 22.0517 5.49635 21.8875L5.13817 22.3626ZM5.52536 23.9318L5.74582 24.4836C5.99487 24.3851 6.14743 24.1337 6.11892 23.8686C6.09042 23.6035 5.88784 23.3898 5.6235 23.346L5.52536 23.9318ZM8.0467 24.5325L8.40487 24.0574C8.23859 23.9333 8.01938 23.9043 7.82624 23.9806L8.0467 24.5325ZM9.1106 23.4705L8.77353 22.9804C8.61468 23.0885 8.51797 23.2662 8.51379 23.4576C8.50961 23.649 8.59847 23.8307 8.75243 23.9456L9.1106 23.4705ZM10.3016 22.6599L10.5775 22.1333C10.382 22.032 10.1464 22.046 9.96447 22.1698L10.3016 22.6599ZM24.8469 21.5151L25.184 21.025C24.9713 20.8802 24.6891 20.8876 24.4843 21.0433L24.8469 21.5151ZM25.975 22.2829L26.3332 22.7579C26.4872 22.643 26.576 22.4614 26.5718 22.2699C26.5676 22.0785 26.471 21.9009 26.3121 21.7928L25.975 22.2829ZM27.0389 23.3448L27.2594 22.793C27.0662 22.7166 26.847 22.7457 26.6807 22.8698L27.0389 23.3448ZM29.5603 22.7441L29.4621 22.1584C29.1978 22.2022 28.9952 22.4159 28.9667 22.681C28.9382 22.946 29.0907 23.1975 29.3398 23.296L29.5603 22.7441ZM29.9474 21.1749L29.5893 20.6998C29.3691 20.8641 29.2903 21.1568 29.3986 21.4085C29.5069 21.6602 29.7741 21.8056 30.0456 21.7606L29.9474 21.1749ZM27.2359 21.3422L26.8988 21.8323C27.1098 21.9759 27.3894 21.9699 27.594 21.8172L27.2359 21.3422ZM25.9989 20.5003L25.5709 20.0863C25.4482 20.2119 25.3874 20.3851 25.4049 20.5594C25.4224 20.7337 25.5165 20.8915 25.6618 20.9904L25.9989 20.5003ZM28.3763 15.403L27.797 15.2597C27.7877 15.2967 27.7821 15.3346 27.7801 15.3726L28.3763 15.403ZM30.2871 8.87425L29.7115 8.71679L29.7112 8.71771L30.2871 8.87425ZM29.6506 7.50406L29.4783 8.07262C29.5592 8.09687 29.6443 8.10376 29.728 8.09286L29.6506 7.50406ZM28.4817 7.83209L28.7085 8.3814L28.7112 8.38027L28.4817 7.83209ZM28.4817 7.83209L28.2548 7.28283L28.2521 7.28396L28.4817 7.83209ZM27.988 8.03301L27.3923 8.07232C27.4049 8.2616 27.5077 8.43348 27.6689 8.53488C27.83 8.63627 28.0302 8.65498 28.2075 8.5852L27.988 8.03301ZM27.9816 7.98912L27.385 8.01053C27.3861 8.04174 27.3897 8.07279 27.3958 8.10341L27.9816 7.98912ZM27.8376 7.72208L28.2546 7.29714C28.0705 7.1184 27.7921 7.07707 27.5635 7.19456C27.335 7.31208 27.2078 7.56199 27.248 7.81475L27.8376 7.72208ZM27.8381 7.72502L27.2485 7.81769C27.2637 7.91359 27.3023 8.00436 27.361 8.08197L27.8381 7.72502ZM27.8555 7.74972L27.4536 8.18886C27.6754 8.38969 28.0125 8.39565 28.2413 8.20284C28.4701 8.01003 28.5197 7.67826 28.357 7.42764L27.8555 7.74972ZM24.7976 8.39886L24.4524 8.88333C24.5739 8.96902 24.7233 9.0064 24.8712 8.98814L24.7976 8.39886ZM19.7706 6.4723L19.4913 6.99714C19.55 7.02802 19.6134 7.04896 19.679 7.05908L19.7706 6.4723ZM15.4161 3.11729L15.306 2.53366C15.008 2.58929 14.7993 2.85833 14.8207 3.15921C14.8421 3.4601 15.0868 3.69722 15.3898 3.71055L15.4161 3.11729ZM15.4481 3.11239L15.5211 3.70176C15.6062 3.69131 15.688 3.66281 15.7609 3.61815L15.4481 3.11239ZM15.4508 3.11073L15.7636 3.61649C15.9899 3.47801 16.0969 3.20746 16.0262 2.95271C15.9555 2.69799 15.7241 2.52037 15.4585 2.51697L15.4508 3.11073ZM15.1356 3.19303L15.4314 3.70877C15.4559 3.69487 15.4793 3.67928 15.5016 3.66209L15.1356 3.19303ZM15.0957 3.218L14.5411 3.43772C14.6094 3.60841 14.7534 3.73804 14.9309 3.78876C15.1085 3.8395 15.2996 3.80556 15.4486 3.69692L15.0957 3.218ZM14.9174 2.75476L15.4764 2.54648L15.4762 2.54598L14.9174 2.75476ZM14.9174 2.75476L14.3543 2.95185C14.3556 2.95571 14.357 2.95957 14.3585 2.96337L14.9174 2.75476ZM14.9174 2.75476L15.4804 2.55726C15.479 2.55357 15.4778 2.55014 15.4764 2.54648L14.9174 2.75476ZM14.3757 1.75583L13.9031 2.11866C13.9577 2.18901 14.0274 2.24627 14.1073 2.28623L14.3757 1.75583ZM12.8287 2.24589L13.3124 2.59393L13.313 2.59318L12.8287 2.24589ZM8.30569 8.64524L8.49415 9.20869C8.61498 9.16869 8.71977 9.09135 8.79326 8.9879L8.30569 8.64524ZM2.91821 9.77674L2.33875 9.6341C2.26712 9.92198 2.42001 10.2183 2.69691 10.3282C2.97382 10.4382 3.28982 10.3281 3.43718 10.0703L2.91821 9.77674ZM2.92645 9.74847L3.49347 9.93416C3.5249 9.83918 3.53171 9.73781 3.51326 9.6395L2.92645 9.74847ZM2.92588 9.74553L3.51273 9.63656C3.46598 9.38757 3.26564 9.19547 3.01378 9.15818C2.76194 9.12089 2.51403 9.2466 2.39642 9.47127L2.92588 9.74553ZM2.87905 10.0389L3.46951 9.9515C3.46491 9.92083 3.45789 9.89051 3.44855 9.86091L2.87905 10.0389ZM2.88775 10.0823L2.82893 10.6733C3.02524 10.6926 3.21848 10.6142 3.34522 10.4638C3.47195 10.3134 3.5158 10.1105 3.4624 9.92157L2.88775 10.0823ZM2.34895 10.0231L2.41811 9.43333C2.41631 9.43312 2.41457 9.43291 2.41276 9.43273L2.34895 10.0231ZM2.34895 10.0231L2.25818 10.6101C2.26717 10.6114 2.27618 10.6126 2.28522 10.6136L2.34895 10.0231ZM1.45003 10.5209C1.39437 10.557 1.361 10.5556 1.39556 10.5507C1.42501 10.5464 1.47867 10.5432 1.56596 10.5458C1.74399 10.5513 1.97502 10.5776 2.27978 10.613L2.41811 9.43333C2.13161 9.40007 1.84308 9.36611 1.60274 9.35874C1.48085 9.355 1.35064 9.35717 1.2252 9.37516C1.10487 9.39241 0.945602 9.42997 0.796716 9.5268L1.45003 10.5209ZM1.47342 11.1668C1.38463 11.0371 1.31217 10.9089 1.26262 10.7935C1.2112 10.6738 1.19554 10.5936 1.19402 10.5527C1.19276 10.5186 1.20148 10.557 1.15969 10.605C1.12069 10.6498 1.10346 10.6267 1.20914 10.6115L1.0376 9.43615C0.74818 9.47795 0.462846 9.5912 0.257091 9.82757C0.0485538 10.0671 -0.00813091 10.3524 0.000905629 10.5964C0.01758 11.0467 0.259067 11.5029 0.486534 11.8352L1.47342 11.1668ZM2.64618 12.6263C2.32188 12.2793 1.99178 11.9267 1.47394 11.1676L0.486014 11.8345C1.05171 12.6637 1.42687 13.0659 1.77168 13.4349L2.64618 12.6263ZM4.53276 15.2819C3.61672 13.6716 3.14965 13.1652 2.64618 12.6263L1.77168 13.4349C2.2178 13.9123 2.62764 14.3444 3.49356 15.8667L4.53276 15.2819ZM6.93503 18.8758C6.54411 18.3911 5.59267 17.1462 4.53276 15.2819L3.49356 15.8667C4.59123 17.7974 5.58121 19.0951 6.00377 19.619L6.93503 18.8758ZM9.2602 21.3267C8.31787 20.6489 7.54092 19.8409 6.97697 18.9348L5.96186 19.56C6.61691 20.6124 7.50668 21.5311 8.56062 22.2892L9.2602 21.3267ZM8.18686 23.0199L9.24752 22.298L8.57331 21.3179L7.51268 22.0398L8.18686 23.0199ZM5.39459 21.4404L7.49161 23.0049L8.20797 22.0548L6.11095 20.4903L5.39459 21.4404ZM5.18566 21.4701C5.23512 21.4045 5.32866 21.3912 5.39459 21.4404L6.11095 20.4903C5.51751 20.0476 4.67561 20.1672 4.23051 20.7575L5.18566 21.4701ZM5.21551 21.678C5.14957 21.6288 5.1362 21.5357 5.18566 21.4701L4.23051 20.7575C3.78545 21.3479 3.90571 22.1853 4.49915 22.6281L5.21551 21.678ZM5.49635 21.8875L5.21551 21.678L4.49915 22.6281L4.77999 22.8376L5.49635 21.8875ZM4.73262 22.8973L5.04003 22.9483L5.23631 21.7768L4.9289 21.7258L4.73262 22.8973ZM4.56087 23.0193C4.57443 22.9385 4.65131 22.8838 4.73262 22.8973L4.9289 21.7258C4.1972 21.6045 3.50514 22.0962 3.38321 22.8241L4.56087 23.0193ZM4.68355 23.1902C4.60224 23.1767 4.54732 23.1002 4.56087 23.0193L3.38321 22.8241C3.26125 23.552 3.75557 24.2404 4.48727 24.3617L4.68355 23.1902ZM5.6235 23.346L4.68355 23.1902L4.48727 24.3617L5.42722 24.5175L5.6235 23.346ZM5.23067 24.6872L5.74582 24.4836L5.30487 23.3799L4.78972 23.5836L5.23067 24.6872ZM5.14712 24.8801C5.11668 24.8038 5.15408 24.7175 5.23067 24.6872L4.78972 23.5836C4.10035 23.8561 3.76363 24.6329 4.03761 25.3187L5.14712 24.8801ZM5.34093 24.9632C5.26434 24.9935 5.17757 24.9562 5.14712 24.8801L4.03761 25.3187C4.31158 26.0044 5.09253 26.3394 5.78187 26.0668L5.34093 24.9632ZM7.82624 23.9806L5.34093 24.9632L5.78187 26.0668L8.26718 25.0843L7.82624 23.9806ZM8.79729 24.3502L8.40487 24.0574L7.68852 25.0075L8.08093 25.3003L8.79729 24.3502ZM9.00623 24.3205C8.95677 24.3861 8.86322 24.3994 8.79729 24.3502L8.08093 25.3003C8.67437 25.743 9.5163 25.6234 9.96137 25.0331L9.00623 24.3205ZM8.97638 24.1126C9.04231 24.1618 9.05568 24.2549 9.00623 24.3205L9.96137 25.0331C10.4065 24.4427 10.2862 23.6053 9.69273 23.1625L8.97638 24.1126ZM8.75243 23.9456L8.97638 24.1126L9.69273 23.1625L9.46878 22.9954L8.75243 23.9456ZM9.96447 22.1698L8.77353 22.9804L9.44771 23.9606L10.6387 23.15L9.96447 22.1698ZM19.0078 23.3384C15.9424 23.8612 12.9328 23.3542 10.5775 22.1333L10.0257 23.1865C12.6213 24.532 15.8968 25.0739 19.2095 24.5089L19.0078 23.3384ZM24.4843 21.0433C23.0323 22.1477 21.1626 22.9708 19.0078 23.3384L19.2095 24.5089C21.5416 24.1111 23.5938 23.2156 25.2095 21.9868L24.4843 21.0433ZM26.3121 21.7928L25.184 21.025L24.5098 22.0051L25.6379 22.7729L26.3121 21.7928ZM26.1092 22.925L26.3332 22.7579L25.6168 21.8078L25.3929 21.9749L26.1092 22.925ZM26.0794 23.1328C26.0299 23.0672 26.0433 22.9742 26.1092 22.925L25.3929 21.9749C24.7994 22.4176 24.6792 23.2551 25.1242 23.8454L26.0794 23.1328ZM26.2883 23.1625C26.2224 23.2117 26.1288 23.1984 26.0794 23.1328L25.1242 23.8454C25.5693 24.4357 26.4112 24.5554 27.0047 24.1126L26.2883 23.1625ZM26.6807 22.8698L26.2883 23.1625L27.0047 24.1126L27.3971 23.8199L26.6807 22.8698ZM29.7447 23.7755L27.2594 22.793L26.8184 23.8967L29.3037 24.8792L29.7447 23.7755ZM29.9385 23.6924C29.908 23.7686 29.8215 23.8058 29.7447 23.7755L29.3037 24.8792C29.9931 25.1517 30.7742 24.8168 31.0479 24.131L29.9385 23.6924ZM29.8549 23.4996C29.9316 23.5299 29.9689 23.6162 29.9385 23.6924L31.0479 24.131C31.3219 23.4453 30.9852 22.6685 30.296 22.396L29.8549 23.4996ZM29.3398 23.296L29.8549 23.4996L30.296 22.396L29.7809 22.1923L29.3398 23.296ZM30.402 22.0025L29.4621 22.1584L29.6584 23.3299L30.5984 23.174L30.402 22.0025ZM30.5247 21.8317C30.5384 21.9126 30.4835 21.9891 30.402 22.0025L30.5984 23.174C31.33 23.0527 31.8243 22.3643 31.7025 21.6365L30.5247 21.8317ZM30.3531 21.7097C30.4342 21.6962 30.5112 21.7508 30.5247 21.8317L31.7025 21.6365C31.5804 20.9086 30.8885 20.4169 30.1567 20.5382L30.3531 21.7097ZM30.0456 21.7606L30.3531 21.7097L30.1567 20.5382L29.8492 20.5892L30.0456 21.7606ZM29.8701 20.4903L29.5893 20.6998L30.3056 21.65L30.5865 21.4404L29.8701 20.4903ZM29.9 20.2825C29.9495 20.3481 29.9361 20.4411 29.8701 20.4903L30.5865 21.4404C31.1798 20.9977 31.3001 20.1602 30.8551 19.5699L29.9 20.2825ZM29.691 20.2528C29.757 20.2036 29.8504 20.2169 29.9 20.2825L30.8551 19.5699C30.4101 18.9796 29.5681 18.8599 28.9747 19.3027L29.691 20.2528ZM27.594 21.8172L29.691 20.2528L28.9747 19.3027L26.8777 20.8671L27.594 21.8172ZM25.6618 20.9904L26.8988 21.8323L27.573 20.8521L26.336 20.0102L25.6618 20.9904ZM27.7801 15.3726C27.6926 17.0726 26.9105 18.7161 25.5709 20.0863L26.4269 20.9143C27.9358 19.3708 28.8679 17.4646 28.9725 15.4334L27.7801 15.3726ZM28.1855 13.4644C28.0628 14.1304 27.9289 14.7318 27.797 15.2597L28.9556 15.5463C29.0932 14.996 29.2323 14.3705 29.3599 13.6787L28.1855 13.4644ZM29.0896 10.4157C28.7901 11.0682 28.5149 11.6799 28.1855 13.4644L29.3599 13.6787C29.67 11.9983 29.9134 11.4802 30.1758 10.909L29.0896 10.4157ZM29.7112 8.71771C29.4751 9.57709 29.2808 9.99918 29.0896 10.4157L30.1758 10.909C30.3802 10.4633 30.6032 9.9765 30.8629 9.03081L29.7112 8.71771ZM29.728 8.09286C29.8319 8.07936 29.8337 8.10379 29.797 8.08108C29.7578 8.05694 29.7578 8.03102 29.7687 8.06549C29.7815 8.1064 29.7934 8.18633 29.785 8.31133C29.7769 8.43235 29.7516 8.5716 29.7115 8.71679L30.8626 9.03173C30.9688 8.64806 31.0443 8.14405 30.9082 7.71095C30.8348 7.4774 30.6888 7.23363 30.4259 7.07155C30.1653 6.91089 29.8653 6.87725 29.5732 6.91526L29.728 8.09286ZM28.7112 8.38027C28.9902 8.26472 29.2004 8.17814 29.3672 8.12555C29.4487 8.09984 29.5004 8.08871 29.5297 8.08488C29.5629 8.08051 29.5357 8.08984 29.4783 8.07262L29.823 6.93551C29.6561 6.88551 29.4956 6.89141 29.3736 6.90742C29.2477 6.92393 29.1222 6.95691 29.0065 6.99343C28.7786 7.06526 28.5138 7.17553 28.2521 7.28396L28.7112 8.38027ZM28.2075 8.5852C28.3876 8.51439 28.5575 8.44399 28.7112 8.38027L28.2521 7.28396C28.0972 7.34812 27.937 7.41451 27.7684 7.48081L28.2075 8.5852ZM27.3958 8.10341C27.3954 8.1015 27.3949 8.09851 27.3943 8.09387C27.394 8.0915 27.3937 8.08859 27.3933 8.08509C27.3932 8.0833 27.393 8.08137 27.3928 8.07924C27.3927 8.0782 27.3927 8.07707 27.3926 8.07594C27.3925 8.07535 27.3925 8.07475 27.3924 8.07416C27.3924 8.07386 27.3924 8.07357 27.3924 8.07324C27.3924 8.07309 27.3924 8.07294 27.3924 8.07279C27.3924 8.07288 27.3924 8.0727 27.3924 8.07279C27.3924 8.07276 27.3923 8.07235 27.3923 8.07232C27.3923 8.07226 27.3923 8.07232 27.988 8.03301C28.5836 7.99373 28.5836 7.99367 28.5836 7.99361C28.5836 7.99364 28.5836 7.99358 28.5836 7.99361C28.5836 7.99352 28.5836 7.99331 28.5836 7.99325C28.5836 7.99307 28.5836 7.99292 28.5836 7.99278C28.5835 7.99245 28.5835 7.99212 28.5835 7.99177C28.5834 7.99111 28.5834 7.99043 28.5834 7.98972C28.5832 7.98829 28.5831 7.98681 28.583 7.98523C28.5828 7.98206 28.5825 7.97858 28.5821 7.97478C28.5814 7.96724 28.5805 7.95836 28.5792 7.94839C28.5768 7.92852 28.573 7.90358 28.5674 7.87484L27.3958 8.10341ZM27.4206 8.14702C27.4352 8.16115 27.4276 8.15756 27.4152 8.13369C27.4018 8.1075 27.3869 8.06504 27.385 8.01053L28.5781 7.96772C28.5681 7.6907 28.4278 7.46537 28.2546 7.29714L27.4206 8.14702ZM28.4278 7.63239L28.4273 7.62945L27.248 7.81475L27.2485 7.81769L28.4278 7.63239ZM28.357 7.42764C28.3435 7.40691 28.3295 7.38708 28.3152 7.36811L27.361 8.08197C27.3593 8.07965 27.3568 8.0763 27.354 8.07184L28.357 7.42764ZM27.5082 8.29177C27.6067 8.24827 27.631 8.25798 27.6025 8.2562C27.5865 8.25522 27.5611 8.25094 27.531 8.23823C27.501 8.22552 27.4748 8.20801 27.4536 8.18886L28.2573 7.31062C27.9174 7.00279 27.4593 7.0138 27.0236 7.20635L27.5082 8.29177ZM24.8712 8.98814C26.0359 8.84429 26.9249 8.54939 27.5082 8.29177L27.0236 7.20635C26.5405 7.41974 25.7649 7.68099 24.724 7.80955L24.8712 8.98814ZM19.679 7.05908C21.5335 7.3453 23.183 7.98829 24.4524 8.88333L25.1428 7.91439C23.701 6.89777 21.8713 6.19557 19.8621 5.88548L19.679 7.05908ZM15.2592 3.70339C15.4863 4.359 15.8156 4.80912 16.4795 5.28896C17.0949 5.7337 18.0369 6.2315 19.4913 6.99714L20.0498 5.94742C18.5578 5.16203 17.7107 4.71072 17.1813 4.32815C16.7005 3.98065 16.5295 3.72504 16.388 3.31664L15.2592 3.70339ZM15.3898 3.71055C15.3696 3.70966 15.344 3.70562 15.3163 3.69529C15.288 3.68472 15.2649 3.67035 15.2483 3.6563C15.2157 3.62872 15.2314 3.62326 15.2592 3.70339L16.388 3.31664C16.3122 3.09761 16.1961 2.89903 16.0216 2.75144C15.8398 2.5977 15.6334 2.53245 15.4425 2.52406L15.3898 3.71055ZM15.3751 2.52303C15.3522 2.52583 15.3292 2.52934 15.306 2.53366L15.5262 3.70093C15.5235 3.70143 15.5218 3.70167 15.5211 3.70176L15.3751 2.52303ZM15.138 2.60497L15.1353 2.60663L15.7609 3.61815L15.7636 3.61649L15.138 2.60497ZM15.5016 3.66209C15.4673 3.68858 15.4373 3.69986 15.4227 3.70393C15.4097 3.70755 15.4138 3.70414 15.4431 3.70452L15.4585 2.51697C15.2204 2.51392 14.974 2.56608 14.7695 2.72394L15.5016 3.66209ZM15.0957 3.218C15.4486 3.69692 15.4487 3.69689 15.4486 3.69692C15.4487 3.69689 15.4486 3.69695 15.4486 3.69692C15.4486 3.69695 15.4483 3.69713 15.4483 3.69719C15.4482 3.69728 15.4481 3.69734 15.4479 3.69743C15.4477 3.6976 15.4475 3.69775 15.4473 3.6979C15.4468 3.69823 15.4464 3.69852 15.446 3.69885C15.4452 3.69944 15.4444 3.70001 15.4436 3.70054C15.4421 3.70161 15.4408 3.70256 15.4396 3.70336C15.4372 3.70503 15.4354 3.70621 15.4341 3.70704C15.4316 3.70868 15.4309 3.70909 15.4314 3.70877L14.8397 2.67727C14.815 2.69131 14.7942 2.70423 14.7781 2.71474C14.7701 2.72002 14.763 2.7248 14.7571 2.72887C14.7542 2.73092 14.7515 2.73282 14.7491 2.73451C14.7479 2.73537 14.7468 2.73618 14.7457 2.73695C14.7452 2.73733 14.7447 2.73769 14.7442 2.73805C14.7439 2.73822 14.7437 2.7384 14.7434 2.73858C14.7433 2.73867 14.7432 2.73876 14.7431 2.73885C14.7431 2.73879 14.743 2.73888 14.7431 2.73885C14.743 2.73888 14.7427 2.73909 15.0957 3.218ZM14.3584 2.96308C14.4129 3.10803 14.4736 3.26919 14.5411 3.43772L15.6503 2.99832C15.588 2.84283 15.5315 2.69271 15.4764 2.54648L14.3584 2.96308ZM14.1073 2.28623C14.0508 2.25797 14.0332 2.22851 14.0464 2.24555C14.0585 2.26119 14.0819 2.29692 14.1156 2.36499C14.1854 2.50556 14.2586 2.69811 14.3584 2.96308L15.4764 2.54648C15.3841 2.30131 15.2883 2.04513 15.1863 1.83942C15.0981 1.66162 14.938 1.37262 14.6441 1.22542L14.1073 2.28623ZM13.313 2.59318C13.5056 2.32739 13.7014 2.15474 13.8348 2.09518C13.891 2.07009 13.8974 2.08229 13.873 2.07704C13.8421 2.07038 13.8553 2.05704 13.9031 2.11866L14.8482 1.393C14.6643 1.15599 14.4223 0.980096 14.1254 0.916222C13.8349 0.853755 13.5646 0.914057 13.3459 1.01165C12.9297 1.19746 12.5838 1.56848 12.3445 1.89861L13.313 2.59318ZM12.3685 4.14255C12.5729 3.73775 12.7799 3.32614 13.3124 2.59393L12.345 1.89785C11.7607 2.70144 11.5211 3.1748 11.3016 3.60963L12.3685 4.14255ZM10.5301 6.77829C11.743 5.37001 12.0472 4.77916 12.3685 4.14255L11.3016 3.60963C11.0214 4.16464 10.7702 4.67411 9.62355 6.00549L10.5301 6.77829ZM8.79326 8.9879C9.2214 8.38511 9.79762 7.62844 10.5301 6.77829L9.62355 6.00549C8.86463 6.88622 8.26581 7.67235 7.81815 8.30257L8.79326 8.9879ZM3.39757 10.206C3.93985 10.2813 4.6669 10.2063 5.4987 10.0377C6.3458 9.86596 7.35738 9.5849 8.49415 9.20869L8.11726 8.08179C7.00858 8.44871 6.04552 8.71477 5.26025 8.87398C4.45972 9.03627 3.8966 9.07611 3.5626 9.0298L3.39757 10.206ZM3.43718 10.0703C3.42029 10.0998 3.39688 10.1288 3.36739 10.1533C3.33796 10.1776 3.3108 10.1905 3.29355 10.1966C3.26361 10.2071 3.28415 10.1903 3.39757 10.206L3.5626 9.0298C3.09984 8.96552 2.63689 9.06753 2.39928 9.48324L3.43718 10.0703ZM2.35943 9.56275C2.35179 9.58585 2.34483 9.60963 2.33875 9.6341L3.49771 9.9194C3.49619 9.92546 3.4947 9.93039 3.49347 9.93416L2.35943 9.56275ZM2.33907 9.8545L2.33962 9.85744L3.51326 9.6395L3.51273 9.63656L2.33907 9.8545ZM3.44855 9.86091C3.46446 9.9113 3.46565 9.95729 3.46094 9.9909C3.45658 10.0219 3.44873 10.0325 3.45536 10.0198L2.39642 9.47127C2.28162 9.69057 2.22569 9.95141 2.30953 10.2169L3.44855 9.86091ZM2.88775 10.0823C3.4624 9.92157 3.46237 9.92154 3.4624 9.92157C3.4624 9.9216 3.4624 9.92154 3.4624 9.92157C3.46243 9.92166 3.46249 9.92192 3.46252 9.92201C3.46258 9.92216 3.46261 9.92231 3.46264 9.92246C3.46273 9.92273 3.46282 9.92302 3.46288 9.92332C3.46306 9.92389 3.46321 9.92445 3.46336 9.92498C3.46365 9.92608 3.46395 9.92715 3.46422 9.92816C3.46476 9.93015 3.46524 9.93202 3.46568 9.93368C3.46652 9.93707 3.46718 9.93983 3.46768 9.94211C3.46867 9.94657 3.46921 9.94951 3.46951 9.9515L2.28858 10.1263C2.2929 10.1552 2.29777 10.1799 2.30211 10.1993C2.30429 10.2091 2.30636 10.2177 2.30822 10.225C2.30915 10.2286 2.31003 10.232 2.31084 10.235C2.31125 10.2365 2.31164 10.238 2.31201 10.2393C2.3122 10.24 2.31238 10.2407 2.31256 10.2413C2.31265 10.2416 2.31274 10.2419 2.31283 10.2422C2.31287 10.2424 2.31291 10.2425 2.31295 10.2427C2.31297 10.2427 2.31293 10.2426 2.31295 10.2427C2.31297 10.2427 2.31304 10.243 2.31305 10.243C2.31306 10.2431 2.31308 10.2431 2.88775 10.0823ZM2.27978 10.613C2.44799 10.6325 2.63355 10.654 2.82893 10.6733L2.94654 9.4914C2.76308 9.47335 2.58751 9.45298 2.41811 9.43333L2.27978 10.613Z" fill="#171C4C"/>
</g>
<mask id="mask1_3032_11350" style="mask-type:luminance" maskUnits="userSpaceOnUse" x="0" y="0" width="32" height="26">
<path d="M31.9377 0H0V25.8313H31.9377V0Z" fill="white"/>
<path fill-rule="evenodd" clip-rule="evenodd" d="M2.34895 9.42926C1.75769 9.36065 1.30982 9.30869 1.12338 9.42994C0.333163 9.54405 0.558967 10.2921 0.979982 10.9072C1.52175 11.7013 1.87438 12.0787 2.20893 12.4367C2.68374 12.9449 3.12214 13.414 4.01314 14.9804C5.09195 16.8779 6.06267 18.1492 6.46941 18.6536C7.07891 19.6328 7.91227 20.4961 8.91042 21.2141L7.8498 21.9359L5.75278 20.3715C5.42311 20.1255 4.95539 20.192 4.7081 20.52C4.46084 20.8479 4.52767 21.3132 4.85734 21.5591L5.13818 21.7687L4.83077 21.7177C4.42427 21.6503 4.0398 21.9235 3.97204 22.3278C3.90432 22.7322 4.17892 23.1147 4.58542 23.1821L5.52537 23.3379L5.01022 23.5416C4.62724 23.693 4.44015 24.1245 4.59238 24.5055C4.74457 24.8864 5.17845 25.0725 5.5614 24.9211L8.04671 23.9386L8.43912 24.2313C8.76882 24.4773 9.23655 24.4109 9.48381 24.0829C9.7311 23.7549 9.66427 23.2897 9.33457 23.0437L9.11062 22.8766L10.3016 22.066C12.777 23.3492 15.9196 23.8737 19.1087 23.3297C21.3521 22.9471 23.313 22.0878 24.8469 20.9212L25.975 21.689L25.7511 21.8561C25.4214 22.102 25.3546 22.5673 25.6018 22.8952C25.8491 23.2232 26.3168 23.2897 26.6465 23.0437L27.0389 22.7509L29.5242 23.7334C29.9071 23.8849 30.3411 23.6988 30.4933 23.3178C30.6455 22.9369 30.4584 22.5053 30.0754 22.3539L29.5603 22.1502L30.5002 21.9944C30.9067 21.927 31.1813 21.5446 31.1136 21.1402C31.0458 20.7358 30.6614 20.4626 30.2548 20.53L29.9474 20.581L30.2283 20.3715C30.5581 20.1255 30.625 19.6603 30.3775 19.3323C30.1304 19.0043 29.6626 18.9379 29.3329 19.1839L27.2359 20.7483L25.9989 19.9064C27.4232 18.4495 28.2803 16.6747 28.3763 14.8091C28.5111 14.27 28.6476 13.6566 28.7727 12.9778C29.0924 11.2453 29.3518 10.6803 29.6326 10.0685C29.8304 9.63734 30.039 9.18292 30.2871 8.28037C30.4805 7.58093 30.4426 6.80709 29.6506 6.91018C29.4318 6.84459 29.0223 7.01425 28.4817 7.23821C28.3274 7.30213 28.1623 7.37057 27.988 7.43913C27.988 7.43913 27.9868 7.42206 27.9816 7.39524C27.9787 7.31594 27.9387 7.22633 27.8376 7.1282L27.8381 7.13114C27.8444 7.13949 27.8502 7.14771 27.8555 7.15584C27.7544 7.06434 27.5769 7.01772 27.266 7.15516C26.7327 7.39067 25.9004 7.66876 24.7976 7.80498C23.442 6.84917 21.7024 6.17657 19.7706 5.87842C16.8242 4.32735 16.1922 3.9802 15.8236 2.91619C15.7201 2.617 15.5599 2.52972 15.4161 2.5234C15.4264 2.52149 15.437 2.51985 15.4481 2.51849L15.4508 2.51684C15.3017 2.51493 15.2017 2.54808 15.1356 2.59915C15.1103 2.61349 15.0957 2.62412 15.0957 2.62412C15.0309 2.46212 14.9722 2.30646 14.9174 2.16088C14.7253 1.65077 14.5797 1.26411 14.3757 1.16193C13.9122 0.564665 13.2606 1.05608 12.8287 1.65199C12.2703 2.4199 12.047 2.86239 11.8351 3.2822C11.5343 3.87801 11.2566 4.42812 10.0769 5.79795C9.33119 6.66339 8.7436 7.43485 8.3057 8.05136C6.06028 8.7945 4.35643 9.14559 3.48017 9.02404C3.1371 8.97638 2.98362 9.06846 2.91822 9.18286C2.92052 9.17368 2.92327 9.16424 2.92646 9.15459L2.92589 9.15165C2.8627 9.27237 2.85491 9.3686 2.87905 9.44503C2.88308 9.47193 2.88775 9.48847 2.88775 9.48847C2.69832 9.46982 2.51775 9.44883 2.34895 9.42926Z" fill="#171C4C"/>
</mask>
<g mask="url(#mask1_3032_11350)">
<path d="M1.12337 9.43001L1.20914 10.0177C1.29511 10.0052 1.37732 9.97431 1.45003 9.92704L1.12337 9.43001ZM2.34895 9.42933L2.43972 8.84243C2.43254 8.84133 2.42533 8.84035 2.41811 8.83952L2.34895 9.42933ZM0.979978 10.9072L1.47394 10.5738L1.47342 10.573L0.979978 10.9072ZM6.4694 18.6536L6.97697 18.341C6.96419 18.3205 6.95019 18.3008 6.93503 18.282L6.4694 18.6536ZM8.91041 21.2141L9.24752 21.7042C9.40786 21.5951 9.50481 21.4152 9.50732 21.2219C9.50985 21.0286 9.41765 20.8462 9.2602 20.7329L8.91041 21.2141ZM7.84979 21.936L7.49161 22.4111C7.69619 22.5637 7.97581 22.5698 8.18686 22.4261L7.84979 21.936ZM5.13817 21.7687L5.04003 22.3545C5.3115 22.3995 5.57873 22.254 5.68702 22.0023C5.79528 21.7506 5.71654 21.4579 5.49635 21.2937L5.13817 21.7687ZM5.52536 23.3379L5.74582 23.8898C5.99487 23.7913 6.14743 23.5398 6.11892 23.2748C6.09042 23.0097 5.88784 22.796 5.6235 22.7522L5.52536 23.3379ZM8.0467 23.9387L8.40487 23.4636C8.23859 23.3395 8.01938 23.3105 7.82624 23.3868L8.0467 23.9387ZM9.1106 22.8767L8.77353 22.3866C8.61468 22.4947 8.51797 22.6724 8.51379 22.8638C8.50961 23.0552 8.59847 23.2369 8.75243 23.3518L9.1106 22.8767ZM10.3016 22.0661L10.5775 21.5395C10.382 21.4382 10.1464 21.4522 9.96447 21.576L10.3016 22.0661ZM24.8469 20.9212L25.184 20.4312C24.9713 20.2864 24.6891 20.2938 24.4843 20.4495L24.8469 20.9212ZM25.975 21.6891L26.3332 22.1641C26.4872 22.0492 26.576 21.8676 26.5718 21.6761C26.5676 21.4847 26.471 21.3071 26.3121 21.1989L25.975 21.6891ZM27.0389 22.751L27.2594 22.1992C27.0662 22.1228 26.847 22.1519 26.6807 22.276L27.0389 22.751ZM29.5603 22.1503L29.4621 21.5646C29.1978 21.6084 28.9952 21.8221 28.9667 22.0871C28.9382 22.3522 29.0907 22.6037 29.3398 22.7021L29.5603 22.1503ZM29.9474 20.5811L29.5893 20.106C29.3691 20.2703 29.2903 20.563 29.3986 20.8147C29.5069 21.0664 29.7741 21.2118 30.0456 21.1668L29.9474 20.5811ZM27.2359 20.7484L26.8988 21.2385C27.1098 21.3821 27.3894 21.3761 27.594 21.2234L27.2359 20.7484ZM25.9989 19.9065L25.5709 19.4925C25.4482 19.6181 25.3874 19.7913 25.4049 19.9656C25.4224 20.1399 25.5165 20.2977 25.6618 20.3966L25.9989 19.9065ZM28.3763 14.8092L27.797 14.6659C27.7877 14.7029 27.7821 14.7407 27.7801 14.7788L28.3763 14.8092ZM30.2871 8.28043L29.7115 8.12298L29.7112 8.1239L30.2871 8.28043ZM29.6506 6.91025L29.4783 7.4788C29.5592 7.50306 29.6443 7.50995 29.728 7.49905L29.6506 6.91025ZM28.4817 7.23828L28.7085 7.78759L28.7112 7.78646L28.4817 7.23828ZM28.4817 7.23828L28.2548 6.68902L28.2521 6.69015L28.4817 7.23828ZM27.988 7.4392L27.3923 7.47851C27.4049 7.66779 27.5077 7.83967 27.6689 7.94106C27.83 8.04246 28.0302 8.06117 28.2075 7.99139L27.988 7.4392ZM27.9816 7.39531L27.385 7.41672C27.3861 7.44793 27.3897 7.47898 27.3958 7.50959L27.9816 7.39531ZM27.8376 7.12827L28.2546 6.70333C28.0705 6.52459 27.7921 6.48326 27.5635 6.60075C27.335 6.71827 27.2078 6.96818 27.248 7.22094L27.8376 7.12827ZM27.8381 7.13121L27.2485 7.22388C27.2637 7.31978 27.3023 7.41054 27.361 7.48816L27.8381 7.13121ZM27.8555 7.15591L27.4536 7.59504C27.6754 7.79588 28.0125 7.80184 28.2413 7.60903C28.4701 7.41622 28.5197 7.08445 28.357 6.83382L27.8555 7.15591ZM24.7976 7.80505L24.4524 8.28952C24.5739 8.37521 24.7233 8.41259 24.8712 8.39433L24.7976 7.80505ZM19.7706 5.87848L19.4913 6.40333C19.55 6.43421 19.6134 6.45514 19.679 6.46527L19.7706 5.87848ZM15.4161 2.52349L15.306 1.93985C15.008 1.99547 14.7993 2.26452 14.8207 2.5654C14.8421 2.86629 15.0868 3.10341 15.3898 3.11674L15.4161 2.52349ZM15.4481 2.51858L15.5211 3.10795C15.6062 3.0975 15.688 3.06899 15.7609 3.02434L15.4481 2.51858ZM15.4508 2.51693L15.7636 3.02268C15.9899 2.8842 16.0969 2.61365 16.0262 2.3589C15.9555 2.10417 15.7241 1.92656 15.4585 1.92316L15.4508 2.51693ZM15.1356 2.59922L15.4314 3.11496C15.4559 3.10106 15.4793 3.08547 15.5016 3.06828L15.1356 2.59922ZM15.0957 2.62419L14.5411 2.84391C14.6094 3.0146 14.7534 3.14423 14.9309 3.19494C15.1085 3.24569 15.2996 3.21175 15.4486 3.10311L15.0957 2.62419ZM14.9174 2.16096L15.4764 1.95267L15.4762 1.95217L14.9174 2.16096ZM14.9174 2.16096L14.3543 2.35805C14.3556 2.36191 14.357 2.36575 14.3585 2.36957L14.9174 2.16096ZM14.9174 2.16096L15.4804 1.96345C15.479 1.95976 15.4778 1.95633 15.4764 1.95267L14.9174 2.16096ZM14.3757 1.16202L13.9031 1.52485C13.9577 1.5952 14.0274 1.65246 14.1073 1.69242L14.3757 1.16202ZM12.8287 1.65208L13.3124 2.00012L13.313 1.99936L12.8287 1.65208ZM8.30569 8.05143L8.49415 8.61487C8.61498 8.57488 8.71977 8.49754 8.79326 8.39409L8.30569 8.05143ZM2.91821 9.18292L2.33875 9.04029C2.26712 9.32817 2.42001 9.62449 2.69691 9.73444C2.97382 9.84438 3.28982 9.73426 3.43718 9.47645L2.91821 9.18292ZM2.92645 9.15466L3.49347 9.34035C3.5249 9.24537 3.53171 9.144 3.51326 9.04569L2.92645 9.15466ZM2.92588 9.15172L3.51273 9.04275C3.46598 8.79376 3.26564 8.60166 3.01378 8.56437C2.76194 8.52708 2.51403 8.65279 2.39642 8.87746L2.92588 9.15172ZM2.87905 9.4451L3.46951 9.35769C3.46491 9.32702 3.45789 9.2967 3.44855 9.2671L2.87905 9.4451ZM2.88775 9.48854L2.82893 10.0795C3.02524 10.0988 3.21848 10.0204 3.34522 9.87001C3.47195 9.71962 3.5158 9.51665 3.4624 9.32776L2.88775 9.48854ZM2.34895 9.42933L2.41811 8.83952C2.41631 8.83931 2.41457 8.8391 2.41276 8.83892L2.34895 9.42933ZM2.34895 9.42933L2.25818 10.0163C2.26717 10.0176 2.27618 10.0188 2.28522 10.0198L2.34895 9.42933ZM1.45003 9.92704C1.39437 9.96324 1.361 9.96181 1.39556 9.95685C1.42501 9.95264 1.47867 9.94934 1.56596 9.95201C1.74399 9.95748 1.97502 9.98378 2.27978 10.0192L2.41811 8.83952C2.13161 8.80626 1.84308 8.7723 1.60274 8.76493C1.48085 8.76119 1.35064 8.76336 1.2252 8.78135C1.10487 8.7986 0.945602 8.83616 0.796716 8.93299L1.45003 9.92704ZM1.47342 10.573C1.38463 10.4433 1.31217 10.3151 1.26262 10.1997C1.2112 10.08 1.19554 9.99976 1.19402 9.9589C1.19276 9.92476 1.20148 9.96318 1.15969 10.0112C1.12069 10.056 1.10346 10.0329 1.20914 10.0177L1.0376 8.84234C0.74818 8.88414 0.462846 8.99738 0.257091 9.23376C0.0485538 9.47333 -0.00813091 9.75861 0.000905629 10.0026C0.01758 10.4529 0.259067 10.9091 0.486534 11.2414L1.47342 10.573ZM2.64618 12.0325C2.32188 11.6855 1.99178 11.3329 1.47394 10.5738L0.486014 11.2407C1.05171 12.0699 1.42687 12.4721 1.77168 12.8411L2.64618 12.0325ZM4.53276 14.6881C3.61672 13.0777 3.14965 12.5714 2.64618 12.0325L1.77168 12.8411C2.2178 13.3185 2.62764 13.7506 3.49356 15.2729L4.53276 14.6881ZM6.93503 18.282C6.54411 17.7973 5.59267 16.5524 4.53276 14.6881L3.49356 15.2729C4.59123 17.2036 5.58121 18.5013 6.00377 19.0252L6.93503 18.282ZM9.2602 20.7329C8.31787 20.0551 7.54092 19.2471 6.97697 18.341L5.96186 18.9662C6.61691 20.0186 7.50668 20.9373 8.56062 21.6953L9.2602 20.7329ZM8.18686 22.4261L9.24752 21.7042L8.57331 20.7241L7.51268 21.4459L8.18686 22.4261ZM5.39459 20.8466L7.49161 22.4111L8.20797 21.461L6.11095 19.8965L5.39459 20.8466ZM5.18566 20.8763C5.23512 20.8107 5.32866 20.7974 5.39459 20.8466L6.11095 19.8965C5.51751 19.4538 4.67561 19.5734 4.23051 20.1637L5.18566 20.8763ZM5.21551 21.0842C5.14957 21.035 5.1362 20.9419 5.18566 20.8763L4.23051 20.1637C3.78545 20.754 3.90571 21.5915 4.49915 22.0343L5.21551 21.0842ZM5.49635 21.2937L5.21551 21.0842L4.49915 22.0343L4.77999 22.2438L5.49635 21.2937ZM4.73262 22.3035L5.04003 22.3545L5.23631 21.183L4.9289 21.132L4.73262 22.3035ZM4.56087 22.4255C4.57443 22.3447 4.65131 22.29 4.73262 22.3035L4.9289 21.132C4.1972 21.0107 3.50514 21.5024 3.38321 22.2303L4.56087 22.4255ZM4.68355 22.5964C4.60224 22.5829 4.54732 22.5064 4.56087 22.4255L3.38321 22.2303C3.26125 22.9582 3.75557 23.6466 4.48727 23.7679L4.68355 22.5964ZM5.6235 22.7522L4.68355 22.5964L4.48727 23.7679L5.42722 23.9237L5.6235 22.7522ZM5.23067 24.0934L5.74582 23.8898L5.30487 22.7861L4.78972 22.9898L5.23067 24.0934ZM5.14712 24.2862C5.11668 24.21 5.15408 24.1237 5.23067 24.0934L4.78972 22.9898C4.10035 23.2623 3.76363 24.0391 4.03761 24.7249L5.14712 24.2862ZM5.34093 24.3694C5.26434 24.3996 5.17757 24.3624 5.14712 24.2862L4.03761 24.7249C4.31158 25.4106 5.09253 25.7456 5.78187 25.473L5.34093 24.3694ZM7.82624 23.3868L5.34093 24.3694L5.78187 25.473L8.26718 24.4905L7.82624 23.3868ZM8.79729 23.7564L8.40487 23.4636L7.68852 24.4137L8.08093 24.7065L8.79729 23.7564ZM9.00623 23.7267C8.95677 23.7922 8.86322 23.8056 8.79729 23.7564L8.08093 24.7065C8.67437 25.1492 9.5163 25.0296 9.96137 24.4392L9.00623 23.7267ZM8.97638 23.5188C9.04231 23.568 9.05568 23.6611 9.00623 23.7267L9.96137 24.4392C10.4065 23.8489 10.2862 23.0115 9.69273 22.5687L8.97638 23.5188ZM8.75243 23.3518L8.97638 23.5188L9.69273 22.5687L9.46878 22.4016L8.75243 23.3518ZM9.96447 21.576L8.77353 22.3866L9.44771 23.3668L10.6387 22.5562L9.96447 21.576ZM19.0078 22.7445C15.9424 23.2674 12.9328 22.7604 10.5775 21.5395L10.0257 22.5927C12.6213 23.9382 15.8968 24.4801 19.2095 23.9151L19.0078 22.7445ZM24.4843 20.4495C23.0323 21.5539 21.1626 22.377 19.0078 22.7445L19.2095 23.9151C21.5416 23.5173 23.5938 22.6218 25.2095 21.393L24.4843 20.4495ZM26.3121 21.1989L25.184 20.4312L24.5098 21.4113L25.6379 22.1791L26.3121 21.1989ZM26.1092 22.3312L26.3332 22.1641L25.6168 21.214L25.3929 21.3811L26.1092 22.3312ZM26.0794 22.539C26.0299 22.4734 26.0433 22.3804 26.1092 22.3312L25.3929 21.3811C24.7994 21.8238 24.6792 22.6613 25.1242 23.2516L26.0794 22.539ZM26.2883 22.5687C26.2224 22.6179 26.1288 22.6046 26.0794 22.539L25.1242 23.2516C25.5693 23.8419 26.4112 23.9616 27.0047 23.5188L26.2883 22.5687ZM26.6807 22.276L26.2883 22.5687L27.0047 23.5188L27.3971 23.2261L26.6807 22.276ZM29.7447 23.1817L27.2594 22.1992L26.8184 23.3029L29.3037 24.2854L29.7447 23.1817ZM29.9385 23.0986C29.908 23.1748 29.8215 23.212 29.7447 23.1817L29.3037 24.2854C29.9931 24.5579 30.7742 24.223 31.0479 23.5372L29.9385 23.0986ZM29.8549 22.9058C29.9316 22.9361 29.9689 23.0224 29.9385 23.0986L31.0479 23.5372C31.3219 22.8515 30.9852 22.0747 30.296 21.8021L29.8549 22.9058ZM29.3398 22.7021L29.8549 22.9058L30.296 21.8021L29.7809 21.5985L29.3398 22.7021ZM30.402 21.4087L29.4621 21.5646L29.6584 22.736L30.5984 22.5802L30.402 21.4087ZM30.5247 21.2379C30.5384 21.3188 30.4835 21.3953 30.402 21.4087L30.5984 22.5802C31.33 22.4589 31.8243 21.7705 31.7025 21.0426L30.5247 21.2379ZM30.3531 21.1159C30.4342 21.1024 30.5112 21.157 30.5247 21.2379L31.7025 21.0426C31.5804 20.3148 30.8885 19.8231 30.1567 19.9444L30.3531 21.1159ZM30.0456 21.1668L30.3531 21.1159L30.1567 19.9444L29.8492 19.9954L30.0456 21.1668ZM29.8701 19.8965L29.5893 20.106L30.3056 21.0562L30.5865 20.8466L29.8701 19.8965ZM29.9 19.6887C29.9495 19.7543 29.9361 19.8473 29.8701 19.8965L30.5865 20.8466C31.1798 20.4039 31.3001 19.5664 30.8551 18.9761L29.9 19.6887ZM29.691 19.659C29.757 19.6098 29.8504 19.6231 29.9 19.6887L30.8551 18.9761C30.4101 18.3858 29.5681 18.2661 28.9747 18.7089L29.691 19.659ZM27.594 21.2234L29.691 19.659L28.9747 18.7089L26.8777 20.2733L27.594 21.2234ZM25.6618 20.3966L26.8988 21.2385L27.573 20.2583L26.336 19.4164L25.6618 20.3966ZM27.7801 14.7788C27.6926 16.4788 26.9105 18.1223 25.5709 19.4925L26.4269 20.3205C27.9358 18.7769 28.8679 16.8708 28.9725 14.8396L27.7801 14.7788ZM28.1855 12.8706C28.0628 13.5366 27.9289 14.138 27.797 14.6659L28.9556 14.9525C29.0932 14.4021 29.2323 13.7767 29.3599 13.0849L28.1855 12.8706ZM29.0896 9.82188C28.7901 10.4744 28.5149 11.0861 28.1855 12.8706L29.3599 13.0849C29.67 11.4045 29.9134 10.8864 30.1758 10.3152L29.0896 9.82188ZM29.7112 8.1239C29.4751 8.98328 29.2808 9.40537 29.0896 9.82188L30.1758 10.3152C30.3802 9.86947 30.6032 9.38269 30.8629 8.437L29.7112 8.1239ZM29.728 7.49905C29.8319 7.48554 29.8337 7.50998 29.797 7.48727C29.7578 7.46313 29.7578 7.43721 29.7687 7.47168C29.7815 7.51259 29.7934 7.59252 29.785 7.71752C29.7769 7.83854 29.7516 7.97779 29.7115 8.12298L30.8626 8.43792C30.9688 8.05425 31.0443 7.55024 30.9082 7.11714C30.8348 6.88359 30.6888 6.63982 30.4259 6.47774C30.1653 6.31708 29.8653 6.28344 29.5732 6.32145L29.728 7.49905ZM28.7112 7.78646C28.9902 7.67091 29.2004 7.58433 29.3672 7.53174C29.4487 7.50603 29.5004 7.4949 29.5297 7.49107C29.5629 7.4867 29.5357 7.49602 29.4783 7.4788L29.823 6.34169C29.6561 6.29169 29.4956 6.2976 29.3736 6.31361C29.2477 6.33012 29.1222 6.3631 29.0065 6.39962C28.7786 6.47145 28.5138 6.58172 28.2521 6.69015L28.7112 7.78646ZM28.2075 7.99139C28.3876 7.92058 28.5575 7.85018 28.7112 7.78646L28.2521 6.69015C28.0972 6.75431 27.937 6.8207 27.7684 6.887L28.2075 7.99139ZM27.3958 7.50959C27.3954 7.50769 27.3949 7.50469 27.3943 7.50006C27.394 7.49769 27.3937 7.49478 27.3933 7.49127C27.3932 7.48949 27.393 7.48756 27.3928 7.48543C27.3927 7.48439 27.3927 7.48326 27.3926 7.48213C27.3925 7.48154 27.3925 7.48094 27.3924 7.48035C27.3924 7.48005 27.3924 7.47975 27.3924 7.47943C27.3924 7.47928 27.3924 7.47913 27.3924 7.47898C27.3924 7.47907 27.3924 7.47889 27.3924 7.47898C27.3924 7.47895 27.3923 7.47854 27.3923 7.47851C27.3923 7.47845 27.3923 7.47851 27.988 7.4392C28.5836 7.39991 28.5836 7.39986 28.5836 7.3998C28.5836 7.39983 28.5836 7.39977 28.5836 7.3998C28.5836 7.39971 28.5836 7.3995 28.5836 7.39944C28.5836 7.39926 28.5836 7.39911 28.5836 7.39896C28.5835 7.39864 28.5835 7.39831 28.5835 7.39796C28.5834 7.3973 28.5834 7.39662 28.5834 7.39591C28.5832 7.39448 28.5831 7.393 28.583 7.39142C28.5828 7.38825 28.5825 7.38477 28.5821 7.38097C28.5814 7.37343 28.5805 7.36455 28.5792 7.35458C28.5768 7.33471 28.573 7.30977 28.5674 7.28103L27.3958 7.50959ZM27.4206 7.55321C27.4352 7.56734 27.4276 7.56375 27.4152 7.53988C27.4018 7.51369 27.3869 7.47123 27.385 7.41672L28.5781 7.37391C28.5681 7.09689 28.4278 6.87156 28.2546 6.70333L27.4206 7.55321ZM28.4278 7.03857L28.4273 7.03564L27.248 7.22094L27.2485 7.22388L28.4278 7.03857ZM28.357 6.83382C28.3435 6.8131 28.3295 6.79327 28.3152 6.77429L27.361 7.48816C27.3593 7.48584 27.3568 7.48249 27.354 7.47803L28.357 6.83382ZM27.5082 7.69795C27.6067 7.65446 27.631 7.66417 27.6025 7.66238C27.5865 7.6614 27.5611 7.65713 27.531 7.64442C27.501 7.63171 27.4748 7.6142 27.4536 7.59504L28.2573 6.71681C27.9174 6.40898 27.4593 6.41999 27.0236 6.61254L27.5082 7.69795ZM24.8712 8.39433C26.0359 8.25048 26.9249 7.95558 27.5082 7.69795L27.0236 6.61254C26.5405 6.82593 25.7649 7.08718 24.724 7.21574L24.8712 8.39433ZM19.679 6.46527C21.5335 6.75149 23.183 7.39448 24.4524 8.28952L25.1428 7.32058C23.701 6.30396 21.8713 5.60176 19.8621 5.29167L19.679 6.46527ZM15.2592 3.10958C15.4863 3.76519 15.8156 4.21531 16.4795 4.69515C17.0949 5.13989 18.0369 5.63769 19.4913 6.40333L20.0498 5.3536C18.5578 4.56822 17.7107 4.11691 17.1813 3.73434C16.7005 3.38684 16.5295 3.13123 16.388 2.72283L15.2592 3.10958ZM15.3898 3.11674C15.3696 3.11585 15.344 3.11181 15.3163 3.10148C15.288 3.09091 15.2649 3.07654 15.2483 3.06249C15.2157 3.03491 15.2314 3.02945 15.2592 3.10958L16.388 2.72283C16.3122 2.5038 16.1961 2.30522 16.0216 2.15762C15.8398 2.0039 15.6334 1.93864 15.4425 1.93025L15.3898 3.11674ZM15.3751 1.92922C15.3522 1.93202 15.3292 1.93553 15.306 1.93985L15.5262 3.10712C15.5235 3.10762 15.5218 3.10786 15.5211 3.10795L15.3751 1.92922ZM15.138 2.01117L15.1353 2.01283L15.7609 3.02434L15.7636 3.02268L15.138 2.01117ZM15.5016 3.06828C15.4673 3.09477 15.4373 3.10605 15.4227 3.11012C15.4097 3.11374 15.4138 3.11032 15.4431 3.11071L15.4585 1.92316C15.2204 1.92011 14.974 1.97227 14.7695 2.13013L15.5016 3.06828ZM15.0957 2.62419C15.4486 3.10311 15.4487 3.10308 15.4486 3.10311C15.4487 3.10308 15.4486 3.10314 15.4486 3.10311C15.4486 3.10314 15.4483 3.10332 15.4483 3.10338C15.4482 3.10347 15.4481 3.10353 15.4479 3.10361C15.4477 3.10379 15.4475 3.10394 15.4473 3.10409C15.4468 3.10442 15.4464 3.10471 15.446 3.10504C15.4452 3.10563 15.4444 3.1062 15.4436 3.10673C15.4421 3.1078 15.4408 3.10875 15.4396 3.10955C15.4372 3.11122 15.4354 3.1124 15.4341 3.11323C15.4316 3.11487 15.4309 3.11528 15.4314 3.11496L14.8397 2.08345C14.815 2.0975 14.7942 2.11041 14.7781 2.12093C14.7701 2.12622 14.763 2.13098 14.7571 2.13507C14.7542 2.13711 14.7515 2.139 14.7491 2.1407C14.7479 2.14156 14.7468 2.14237 14.7457 2.14313C14.7452 2.14351 14.7447 2.14388 14.7442 2.14424C14.7439 2.14442 14.7437 2.1446 14.7434 2.14477C14.7433 2.14486 14.7432 2.14494 14.7431 2.14503C14.7431 2.14499 14.743 2.14507 14.7431 2.14503C14.743 2.14505 14.7428 2.14521 14.7428 2.14522C14.7428 2.14525 14.7427 2.14528 15.0957 2.62419ZM14.3584 2.36926C14.4129 2.5142 14.4736 2.67538 14.5411 2.84391L15.6503 2.40451C15.588 2.24903 15.5315 2.09889 15.4764 1.95267L14.3584 2.36926ZM14.1073 1.69242C14.0508 1.66416 14.0332 1.6347 14.0464 1.65174C14.0585 1.66738 14.0819 1.70311 14.1156 1.77118C14.1854 1.91175 14.2586 2.10431 14.3584 2.36926L15.4764 1.95267C15.3841 1.7075 15.2883 1.45132 15.1863 1.24561C15.0981 1.06781 14.938 0.778813 14.6441 0.631614L14.1073 1.69242ZM13.313 1.99936C13.5056 1.73358 13.7014 1.56093 13.8348 1.50137C13.891 1.47628 13.8974 1.48847 13.873 1.48323C13.8421 1.47657 13.8553 1.46323 13.9031 1.52485L14.8482 0.799187C14.6643 0.562178 14.4223 0.386285 14.1254 0.322411C13.8349 0.259944 13.5646 0.320246 13.3459 0.417844C12.9297 0.603651 12.5838 0.974665 12.3445 1.3048L13.313 1.99936ZM12.3685 3.54874C12.5729 3.14393 12.7799 2.73233 13.3124 2.00012L12.345 1.30404C11.7607 2.10762 11.5211 2.58099 11.3016 3.01582L12.3685 3.54874ZM10.5301 6.18448C11.743 4.7762 12.0472 4.18535 12.3685 3.54874L11.3016 3.01582C11.0214 3.57083 10.7702 4.0803 9.62355 5.41168L10.5301 6.18448ZM8.79326 8.39409C9.2214 7.7913 9.79762 7.03463 10.5301 6.18448L9.62355 5.41168C8.86463 6.29241 8.26581 7.07854 7.81815 7.70876L8.79326 8.39409ZM3.39757 9.61223C3.93985 9.68747 4.6669 9.61253 5.4987 9.44388C6.3458 9.27215 7.35738 8.99109 8.49415 8.61487L8.11726 7.48798C7.00858 7.8549 6.04552 8.12096 5.26025 8.28017C4.45972 8.44246 3.8966 8.4823 3.5626 8.43599L3.39757 9.61223ZM3.43718 9.47645C3.42029 9.50596 3.39688 9.53503 3.36739 9.55947C3.33796 9.58381 3.3108 9.59673 3.29355 9.60279C3.26361 9.61327 3.28415 9.59646 3.39757 9.61223L3.5626 8.43599C3.09984 8.3717 2.63689 8.47372 2.39928 8.88943L3.43718 9.47645ZM2.35943 8.96894C2.35179 8.99204 2.34483 9.01582 2.33875 9.04029L3.49771 9.32559C3.49619 9.33165 3.4947 9.33658 3.49347 9.34035L2.35943 8.96894ZM2.33907 9.26069L2.33962 9.26363L3.51326 9.04569L3.51273 9.04275L2.33907 9.26069ZM3.44855 9.2671C3.46446 9.31748 3.46565 9.36348 3.46094 9.39709C3.45658 9.42808 3.44873 9.43868 3.45536 9.42598L2.39642 8.87746C2.28162 9.09676 2.22569 9.3576 2.30953 9.62306L3.44855 9.2671ZM2.88775 9.48854C3.4624 9.32776 3.46237 9.32773 3.4624 9.32776C3.4624 9.32779 3.4624 9.32773 3.4624 9.32776C3.46243 9.32785 3.46249 9.32811 3.46252 9.3282C3.46258 9.32835 3.46261 9.3285 3.46264 9.32865C3.46273 9.32892 3.46282 9.32921 3.46288 9.32951C3.46306 9.33007 3.46321 9.33064 3.46336 9.33117C3.46365 9.33227 3.46395 9.33334 3.46422 9.33435C3.46476 9.33634 3.46524 9.33821 3.46568 9.33987C3.46652 9.34326 3.46718 9.34602 3.46768 9.3483C3.46867 9.35276 3.46921 9.3557 3.46951 9.35769L2.28858 9.53248C2.2929 9.56137 2.29777 9.58607 2.30211 9.60549C2.30429 9.61526 2.30636 9.62387 2.30822 9.63117C2.30915 9.63482 2.31003 9.63818 2.31084 9.64121C2.31125 9.64272 2.31164 9.64415 2.31201 9.64551C2.3122 9.64617 2.31238 9.64685 2.31256 9.64747C2.31265 9.6478 2.31274 9.6481 2.31283 9.64842C2.31287 9.64857 2.31291 9.64872 2.31295 9.64887C2.31297 9.64893 2.31293 9.64878 2.31295 9.64887C2.31297 9.6489 2.31304 9.64919 2.31305 9.64919C2.31306 9.64925 2.31308 9.64931 2.88775 9.48854ZM2.27978 10.0192C2.44799 10.0387 2.63355 10.0602 2.82893 10.0795L2.94654 8.89759C2.76308 8.87954 2.58751 8.85917 2.41811 8.83952L2.27978 10.0192Z" fill="#171C4C"/>
</g>
<path d="M19.1084 23.3299C25.3465 22.2659 29.4003 17.5168 28.1628 12.7225C26.9254 7.92812 20.8653 4.90411 14.6272 5.96812C8.38916 7.03216 4.33539 11.7813 5.57284 16.5756C6.81028 21.3699 12.8704 24.3939 19.1084 23.3299Z" fill="#D2DCE4"/>
<path d="M18.4758 20.6647C24.3968 19.8177 28.4795 15.818 27.5949 11.731C26.7102 7.644 21.1931 5.01747 15.2721 5.86444C9.35114 6.71143 5.26841 10.7112 6.15308 14.7982C7.03778 18.8852 12.5548 21.5117 18.4758 20.6647Z" fill="white"/>
<path d="M7.31633 9.57442C7.31633 9.57442 8.19077 7.98675 10.0768 5.79795C12.0878 3.46292 11.4777 3.50972 12.8286 1.65199C13.3639 0.913525 14.2365 0.335537 14.6703 1.79093C15.0507 3.06613 15.5989 3.60767 15.5989 3.60767L12.0208 7.45584L7.31633 9.57442Z" fill="#D2DCE4"/>
<path d="M11.8324 8.35994C11.8324 8.35994 22.8809 6.85902 20.3663 6.19255C16.9059 4.36922 16.2154 4.0487 15.8232 2.91643C15.5958 2.2594 15.0952 2.62436 15.0952 2.62436C14.7909 1.864 14.6239 1.24334 14.3417 1.14816C13.595 0.893271 12.8881 4.39324 12.8881 4.39324C12.0251 3.51607 11.8278 5.00173 9.46865 7.89103L11.8316 8.36406L11.8324 8.35994Z" fill="white"/>
<path d="M15.4477 2.51852C14.8103 2.5967 15.6047 3.60026 15.6047 3.60026C15.6047 3.60026 15.2896 3.14729 14.8959 3.4396C14.5021 3.73191 15.0332 4.81222 15.0332 4.81222C15.0332 4.81222 14.2439 3.63675 14.5122 3.20472C14.7832 2.77105 15.0481 3.07856 15.0481 3.07856C15.0481 3.07856 14.8454 2.50912 15.4504 2.51686L15.4477 2.51852Z" fill="#D2DCE4"/>
<path d="M6.67171 18.8971C6.67171 18.8971 5.43648 17.4835 4.01317 14.98C2.49436 12.3101 2.29066 12.8281 0.980005 10.9068C0.458265 10.1446 0.236319 9.17823 1.87624 9.46706C3.31329 9.71985 4.08238 9.5121 4.08238 9.5121L6.22629 14.7299L6.67171 18.8971Z" fill="#D2DCE4"/>
<path d="M7.3073 14.6799C7.3073 14.6799 12.2289 7.60429 11.8954 6.71356C7.89364 8.34657 4.77841 9.20411 3.48011 9.024C2.72676 8.91934 2.88766 9.48843 2.88766 9.48843C1.99893 9.4009 1.30698 9.26302 1.09545 9.45102C0.532643 9.94719 3.75731 12.0683 3.75731 12.0683C2.52172 12.3846 4.56652 12.5709 6.49895 15.7693L7.31115 14.6823L7.3073 14.6799Z" fill="white"/>
<path d="M2.926 9.15443C2.74259 9.70849 4.07692 9.50398 4.07692 9.50398C4.07692 9.50398 3.49252 9.56081 3.6243 10.0108C3.75611 10.4608 5.05928 10.5047 5.05928 10.5047C5.05928 10.5047 3.55442 10.6293 3.23078 10.2199C2.90656 9.80754 3.3243 9.72732 3.3243 9.72732C3.3243 9.72732 2.66909 9.64118 2.92543 9.15149L2.926 9.15443Z" fill="#D2DCE4"/>
<path d="M27.5622 17.4259C27.5622 17.4259 28.2618 15.7467 28.7722 12.9778C29.3172 10.0245 29.6867 10.4638 30.2865 8.28034C30.5262 7.4136 30.411 6.43257 28.9449 7.14774C27.66 7.77417 26.8564 7.7823 26.8564 7.7823L27.7779 13.2708L27.5622 17.4259Z" fill="#D2DCE4"/>
<path d="M25.5298 13.5744C25.5298 13.5744 17.4527 6.13505 19.67 7.35242C23.4539 8.40226 26.0888 7.67474 27.2659 7.15485C27.9489 6.85304 27.988 7.43885 27.988 7.43885C28.8058 7.11706 29.419 6.80001 29.6843 6.92258C30.3889 7.24476 28.0315 10.1321 28.0315 10.1321C29.3167 10.1024 28.3027 10.4195 27.542 13.9876L25.5269 13.5777L25.5298 13.5744Z" fill="white"/>
<path d="M27.838 7.13111C28.2003 7.6103 26.8588 7.77306 26.8588 7.77306C26.8588 7.77306 27.4353 7.67057 27.4618 8.135C27.4884 8.59946 26.2606 8.99079 26.2606 8.99079C26.2606 8.99079 27.7377 8.70602 27.9078 8.22882C28.0775 7.74869 27.652 7.78423 27.652 7.78423C27.652 7.78423 28.2476 7.52639 27.8375 7.12817L27.838 7.13111Z" fill="#D2DCE4"/>
<path d="M13.0406 19.4087C12.5431 19.8455 11.8604 19.9449 11.5118 19.6322C11.3143 19.4532 11.2729 19.1781 11.361 18.8939C11.0725 19.2888 10.9865 19.7961 11.325 19.9936C13.327 21.17 13.5601 20.9746 13.1188 20.4932C12.6155 19.9471 13.2075 19.3627 13.2743 19.1482C13.209 19.2391 13.1345 19.3263 13.0419 19.406L13.0406 19.4087Z" fill="#D2DCE4"/>
<path d="M11.1493 19.1629C10.6519 19.5998 9.63024 19.1616 9.28162 18.8489C9.08411 18.6699 9.14049 19.3989 9.22864 19.1147C8.94009 19.5097 11.2872 20.4091 11.571 20.6626C11.9196 20.9754 11.812 20.4378 11.3258 19.9935C10.9953 19.6882 11.3132 19.1157 11.383 18.9024C11.3177 18.9933 11.2433 19.0805 11.1507 19.1602L11.1493 19.1629Z" fill="#D2DCE4"/>
<path d="M14.8346 19.9086C14.3371 20.3454 13.6544 20.4448 13.3058 20.132C13.1083 19.9531 13.0669 19.6779 13.155 19.3937C12.8665 19.7887 12.8366 20.2373 13.119 20.4935C13.4676 20.8062 13.6924 21.5716 14.1898 21.1348C14.3359 21.0083 15.8692 20.62 15.9458 20.4716C14.665 20.6202 15.0483 19.7151 15.0683 19.6481C15.003 19.739 14.9286 19.8261 14.8359 19.9058L14.8346 19.9086Z" fill="#D2DCE4"/>
<path d="M9.25819 16.7939C8.51452 16.9929 7.78754 16.7732 7.62747 16.304C7.53744 16.0368 7.65749 15.7488 7.91093 15.5113C7.39737 15.7637 7.1039 16.1912 7.23398 16.5713C7.39071 17.0404 8.12103 17.2571 8.8647 17.0612C9.18482 16.9751 9.44829 16.8266 9.63837 16.6455C9.52166 16.7019 9.39827 16.7553 9.25819 16.791V16.7939Z" fill="#D2DCE4"/>
<path d="M8.86732 15.5941C8.31372 15.6238 7.84687 15.3655 7.82018 15.0181C7.80684 14.8192 7.94357 14.6351 8.16033 14.5074C7.75681 14.6084 7.47338 14.8637 7.49337 15.1488C7.51671 15.4991 7.98691 15.7545 8.53717 15.7248C8.77395 15.7129 8.98736 15.6446 9.1541 15.5496C9.06073 15.5734 8.96737 15.5912 8.86397 15.5971L8.86732 15.5941Z" fill="#D2DCE4"/>
<path d="M18.8705 23.0761C21.9812 23.0761 24.5029 20.5677 24.5029 17.4734C24.5029 14.3791 21.9812 11.8707 18.8705 11.8707C15.7599 11.8707 13.2382 14.3791 13.2382 17.4734C13.2382 20.5677 15.7599 23.0761 18.8705 23.0761Z" fill="#D2DCE4"/>
<path d="M19.126 21.4761C22.291 21.0314 24.5473 18.492 24.1656 15.8042C23.784 13.1164 20.9088 11.298 17.7439 11.7427C14.5789 12.1874 12.3226 14.7268 12.7043 17.4146C13.086 20.1024 15.9611 21.9208 19.126 21.4761Z" fill="white"/>
<path d="M21.6107 18.1033C21.4973 18.7565 20.2676 19.5315 19.5094 19.3474C18.7513 19.1633 18.3065 18.3171 18.5155 17.465C18.7274 16.6099 19.5124 16.0695 20.2735 16.2536C21.0347 16.4376 21.6943 17.6194 21.6107 18.1033Z" fill="#F09800"/>
<path d="M21.5817 18.1061C21.4683 18.7593 20.4206 17.9992 19.6595 17.8151C18.8984 17.631 18.5969 17.1292 18.6835 16.9838C19.0178 16.4196 19.6386 16.1108 20.2445 16.2563C21.0027 16.4434 21.6653 17.6221 21.5817 18.1061Z" fill="#FFCC48"/>
<path d="M15.958 12.3074C15.958 12.3074 14.7402 11.0604 14.8655 10.2765C14.9909 9.49267 15.9699 9.32046 16.4684 10.0301C16.4684 10.0301 17.4474 9.47485 17.8713 10.5883C17.8713 10.5883 18.6234 10.1845 18.7637 12.3074C18.7637 12.3074 18.5637 13.1625 17.531 12.3074C17.531 12.3074 16.5788 11.7997 15.961 12.3074H15.958Z" fill="#FF5F5F"/>
<path d="M17.528 12.3075C18.4652 13.0824 18.716 12.453 18.7548 12.3283C18.7577 12.3164 18.7607 12.3075 18.7607 12.3075C18.4473 12.7202 18.1668 12.2273 17.7608 11.6335C17.3549 11.0397 17.528 10.8972 17.528 10.8972C16.7967 11.1466 17.2355 12.3461 16.6743 12.0136C16.1132 11.681 16.161 10.5171 16.161 10.5171C15.6476 10.6359 16.1371 11.586 15.6834 11.3188C15.2297 11.0516 15.0387 9.87579 15.0387 9.87579C14.9521 9.98268 14.8924 10.1163 14.8655 10.2766C14.7402 11.0605 15.958 12.3075 15.958 12.3075C16.5758 11.7998 17.528 12.3075 17.528 12.3075Z" fill="#E9462E"/>
<path d="M16.0842 15.168L17.7842 16.5771" stroke="#171C4C" stroke-linecap="round"/>
<path d="M17.7002 15.0607L16.2836 16.7517" stroke="#171C4C" stroke-linecap="round"/>
<path d="M20.8168 14.1642L22.1756 15.2906" stroke="#171C4C" stroke-linecap="round"/>
<path d="M22.1696 13.9879L20.9905 15.5785" stroke="#171C4C" stroke-linecap="round"/>
<path d="M24.7064 19.9261L27.542 21.856" stroke="#F09800" stroke-width="5" stroke-linecap="round"/>
<path d="M29.7806 19.7776L26.1988 22.4498" stroke="#F09800" stroke-width="5" stroke-linecap="round"/>
<path d="M29.7997 23.0437L27.2933 22.0528C27.1529 21.9973 27.1749 21.7931 27.3239 21.7684L30.3772 21.2622" stroke="#F09800" stroke-width="5" stroke-linecap="round"/>
<path d="M24.7064 19.6292L27.542 21.5591" stroke="#FFCC48" stroke-width="2.5" stroke-linecap="round"/>
<path d="M29.7806 19.4807L26.1988 22.1529" stroke="#FFCC48" stroke-width="2.5" stroke-linecap="round"/>
<path d="M29.7997 22.7467L27.2933 21.7559C27.1529 21.7004 27.1749 21.4962 27.3239 21.4715L30.3772 20.9653" stroke="#FFCC48" stroke-width="2.5" stroke-linecap="round"/>
<path d="M10.3793 21.1138L7.54369 23.0437" stroke="#F09800" stroke-width="5" stroke-linecap="round"/>
<path d="M5.30505 20.9653L8.88683 23.6375" stroke="#F09800" stroke-width="5" stroke-linecap="round"/>
<path d="M5.28582 24.2313L7.79211 23.2404C7.93255 23.1849 7.91058 22.9808 7.76152 22.9561L4.70811 22.4498" stroke="#F09800" stroke-width="5" stroke-linecap="round"/>
<path d="M10.3793 20.8168L7.54369 22.7468" stroke="#FFCC48" stroke-width="2.5" stroke-linecap="round"/>
<path d="M5.30505 20.6684L8.88683 23.3406" stroke="#FFCC48" stroke-width="2.5" stroke-linecap="round"/>
<path d="M5.28582 23.9344L7.79211 22.9436C7.93255 22.888 7.91058 22.6839 7.76152 22.6592L4.70811 22.153" stroke="#FFCC48" stroke-width="2.5" stroke-linecap="round"/>
</g>
<defs>
<clipPath id="clip0_3032_11350">
<rect width="154" height="40" fill="white"/>
</clipPath>
</defs>
</svg>
