<svg width="55" height="40" viewBox="0 0 55 40" fill="none" xmlns="http://www.w3.org/2000/svg">
<path d="M1.93359 5.68359H6.35742V10.6934H11.1914V5.68359H15.6348V20H11.1914V14.209H6.35742V20H1.93359V5.68359ZM18.75 5.68359H23.1836V20H18.75V5.68359ZM26.3672 5.68359H30.791V16.4746H37.6953V20H26.3672V5.68359ZM38.7988 12.8516C38.7988 10.5143 39.4499 8.69466 40.752 7.39258C42.054 6.09049 43.8672 5.43945 46.1914 5.43945C48.5742 5.43945 50.4102 6.08073 51.6992 7.36328C52.9883 8.63932 53.6328 10.4297 53.6328 12.7344C53.6328 14.4076 53.3496 15.7812 52.7832 16.8555C52.2233 17.9232 51.4095 18.7565 50.3418 19.3555C49.2806 19.9479 47.9557 20.2441 46.3672 20.2441C44.7526 20.2441 43.4147 19.987 42.3535 19.4727C41.2988 18.9583 40.4427 18.1445 39.7852 17.0312C39.1276 15.918 38.7988 14.5247 38.7988 12.8516ZM43.2227 12.8711C43.2227 14.3164 43.4896 15.3548 44.0234 15.9863C44.5638 16.6178 45.2962 16.9336 46.2207 16.9336C47.1712 16.9336 47.9069 16.6243 48.4277 16.0059C48.9486 15.3874 49.209 14.2773 49.209 12.6758C49.209 11.3281 48.9355 10.3451 48.3887 9.72656C47.8483 9.10156 47.1126 8.78906 46.1816 8.78906C45.2897 8.78906 44.5736 9.10482 44.0332 9.73633C43.4928 10.3678 43.2227 11.4128 43.2227 12.8711Z" fill="white"/>
<g clip-path="url(#clip0_2276_7529)">
<path fill-rule="evenodd" clip-rule="evenodd" d="M0.0537109 34.0132V33.2268H2.10753V34.142C2.10753 34.9796 2.42781 35.3987 3.06791 35.3987H3.07603C3.71026 35.3987 4.02783 34.981 4.02783 34.1461C4.02783 33.669 3.89115 33.2218 3.61689 32.8041C3.34307 32.3864 3.01558 32.0046 2.63441 31.6585L1.60502 30.5851C1.17964 30.2096 0.823725 29.7443 0.537282 29.1896C0.250387 28.6345 0.10694 28.02 0.10694 27.3461C0.10694 26.3089 0.377595 25.5134 0.918905 24.9588C1.45976 24.4041 2.19504 24.127 3.12384 24.127C4.05264 24.127 4.76582 24.4041 5.26382 24.9583C5.76183 25.5125 6.01083 26.308 6.01083 27.3447V27.7561H4.1167V27.22C4.1167 26.3796 3.78199 25.9592 3.11212 25.9592C2.44224 25.9592 2.10753 26.3801 2.10753 27.2209C2.10753 27.5728 2.18061 27.9084 2.32631 28.2277C2.47202 28.547 2.66102 28.8345 2.89334 29.0912C3.12565 29.3474 3.38187 29.601 3.66155 29.8513C3.94122 30.1021 4.21774 30.3647 4.4902 30.639C4.76266 30.9134 5.01482 31.2068 5.24623 31.5202C5.47719 31.8332 5.6653 32.2032 5.81055 32.6295C5.9558 33.0563 6.02843 33.5198 6.02843 34.0209C6.02843 35.0554 5.77356 35.849 5.26382 36.4019C4.75409 36.9547 4.0346 37.2313 3.10535 37.2313C2.1761 37.2313 1.43495 36.9542 0.882367 36.4C0.329779 35.8459 0.0537109 35.0499 0.0537109 34.0132Z" fill="white"/>
<path fill-rule="evenodd" clip-rule="evenodd" d="M9.16759 30.4467H10.1189C10.4446 30.4467 10.6891 30.3541 10.8524 30.1696C11.0153 29.985 11.0969 29.6721 11.0969 29.2308V27.3093C11.0969 26.868 11.0153 26.5569 10.8524 26.375C10.6891 26.1932 10.4446 26.1024 10.1189 26.1024H9.16759V30.4467ZM7.16699 37.0879V24.2702H10.1144C12.1028 24.2702 13.0975 25.3292 13.0975 27.4467V29.1115C13.0975 31.2231 12.1037 32.2793 10.1167 32.2793H9.16759V37.0879H7.16699Z" fill="white"/>
<path fill-rule="evenodd" clip-rule="evenodd" d="M16.0309 30.0444H16.8131C17.2163 30.0444 17.5172 29.9401 17.7157 29.7315C17.9142 29.5229 18.0134 29.1746 18.0134 28.6857V27.4254C18.0193 26.5438 17.6814 26.1025 16.9998 26.1025H16.0309V30.0444ZM14.0303 37.088V24.2698H17.049C18.0784 24.2698 18.8303 24.5116 19.3035 24.9946C19.7772 25.4776 20.014 26.22 20.014 27.2218V28.2322C20.014 29.5501 19.5774 30.4177 18.704 30.8349C19.5891 31.2109 20.0316 32.1202 20.0316 33.5633V35.5356V35.6159C20.0316 36.2703 20.1029 36.761 20.245 37.088H18.2169C18.0991 36.7252 18.0373 36.2018 18.0315 35.5175V33.5097C18.0315 32.927 17.9291 32.5088 17.7247 32.2562C17.5199 32.0032 17.1866 31.8771 16.7242 31.8771H16.0309V37.088H14.0303Z" fill="white"/>
<path fill-rule="evenodd" clip-rule="evenodd" d="M21.3477 37.0881H23.3482V24.2699H21.3477V37.0881Z" fill="white"/>
<path fill-rule="evenodd" clip-rule="evenodd" d="M26.8072 35.2557H27.9544C28.304 35.2557 28.5647 35.1618 28.7366 34.9741C28.9084 34.7863 28.9946 34.4602 28.9946 33.9954V32.8779C28.9946 32.2938 28.8953 31.8888 28.6964 31.6625C28.4979 31.4357 28.1677 31.3228 27.7054 31.3228H26.8072V35.2557ZM26.8072 29.4902H27.593C27.9977 29.4902 28.2999 29.3858 28.4993 29.1772C28.6991 28.9686 28.7988 28.623 28.7988 28.1405V27.4253C28.8047 26.5437 28.4654 26.1024 27.7807 26.1024H26.8072V29.4902ZM24.8066 37.0883V24.2702H27.8299C28.8611 24.2702 29.6139 24.5115 30.088 24.994C30.5621 25.4766 30.7994 26.2185 30.7994 27.2199V27.6756C30.7994 28.9927 30.3668 29.8539 29.5012 30.2589C30.4972 30.6521 30.9947 31.5673 30.9947 33.0031V34.0489C30.9947 35.038 30.7371 35.7922 30.2216 36.3106C29.7055 36.8289 28.9499 37.0883 27.9544 37.0883H24.8066Z" fill="white"/>
<path fill-rule="evenodd" clip-rule="evenodd" d="M32.1953 37.0881V24.27H37.6544V26.1026H34.1959V29.6691H36.9431V31.5013H34.1959V35.2555H37.6544V37.0881H32.1953Z" fill="white"/>
<path fill-rule="evenodd" clip-rule="evenodd" d="M0 39.698H37.682V37.9185H0V39.698Z" fill="white"/>
</g>
<defs>
<clipPath id="clip0_2276_7529">
<rect width="38" height="16" fill="white" transform="translate(0 24)"/>
</clipPath>
</defs>
</svg>
