<svg width="541" height="541" viewBox="0 0 541 541" fill="none" xmlns="http://www.w3.org/2000/svg">
<g clip-path="url(#clip0_4071_1230)">
<path d="M338.431 259.532C339.047 262.825 338.436 266.738 338.052 270.126C334.613 299.971 322.301 332.908 306.945 358.239H306.937C286.917 391.257 260.244 422.114 239.274 454.706L191.987 519.353L191.129 512.84L295.254 360.11C301.544 348.553 303.222 328.762 303.883 315.483C304.131 310.404 303.409 303.638 304.023 298.906C304.123 298.14 304.368 297.568 304.831 296.974L338.431 259.532ZM166.453 384.606C171.568 387.377 176.044 391.076 181.668 392.824C179.965 395.617 177.694 397.932 175.687 400.461L175.679 400.473C168.77 409.183 161.678 417.822 153.431 425.248C152.72 424.937 153.423 424.314 153.637 423.951C156.762 418.594 160.64 414.753 163.126 408.609C163.28 408.232 163.982 407.564 163.283 407.276C157.487 413.698 151.658 420.108 145.483 426.151C139.6 431.911 131.878 439.507 124.925 443.668C124.454 443.95 123.415 444.794 123.4 443.609C126.45 439.442 129.845 434.947 132.353 430.402C133.035 429.175 134.967 425.672 135.111 424.493C135.18 423.893 134.965 423.764 134.435 423.98C128.26 428.716 122.296 434.245 115.947 438.715C112.737 440.975 109.258 442.618 106.123 444.731C100.532 448.5 95.7325 453.408 90.9203 458.126C90.4036 457.702 93.2264 454.059 93.6574 453.471C100.443 443.979 107.639 434.667 114.718 425.383C125.336 422.883 132.601 419.756 140.619 412.323C149.843 403.775 157.852 393.79 166.453 384.606ZM220.901 403.71L221.255 405.975L200.231 456.336V456.328L199.91 454.811L216.213 404.346C215.771 398.775 214.213 393.124 213.542 387.453C213.48 386.957 212.999 385.974 213.707 385.964L220.901 403.71ZM136.463 352.432L146.085 369.83L88.8836 437.369C99.763 415.827 112.406 395.299 125.3 375.021L105.216 390.366L136.463 352.424V352.432ZM399.767 77.645C406.2 85.624 413.219 93.2752 420.976 100.003L420.869 100.68C419.82 102.537 418.036 104.204 416.883 105.867L416.858 105.871C411.71 113.288 406.545 120.722 400.711 127.63C399.87 127.887 400.207 127.533 399.982 127.138C399.029 125.499 398.248 123.663 397.117 122.136C388.968 111.153 372.877 109.582 362.996 118.796C348.687 132.146 355.638 156.634 374.568 160.337C374.746 160.525 372.339 163.63 371.967 164.087C358.153 180.959 343.895 197.614 329.626 214.085C283.544 267.286 235.644 318.808 187.51 370.043C187.12 370.214 182.932 367.364 182.266 366.827C181.844 366.479 181.437 366.347 181.487 365.674C183.579 363.84 185.698 361.692 187.584 359.646C233.933 309.177 276.251 255.132 317 199.851L324.333 189.424L323.711 189.318C267.674 246.998 213.247 306.282 160.22 366.876C144.126 385.266 128.376 403.968 112.298 422.364C111.89 420.808 108.983 419.625 109.916 417.862C178.359 338.318 248.559 260.126 323.056 186.462L322.738 185.674C265.532 235.865 214.681 293.07 164.615 350.582C163.667 350.746 155.171 338.133 154.807 336.241C154.464 334.474 156.785 331.525 157.875 329.922C173.657 306.684 194.464 282.427 212.706 260.939C269.089 194.539 330.649 131.559 398.848 77.9324L399.767 77.645ZM172.138 378.119C176.885 381.368 181.464 385.242 186.912 387.179V387.17C187.14 387.421 185.276 389.582 184.884 389.764C182.346 390.9 171.427 383.993 169.306 381.684L172.138 378.119ZM436.994 112.481C437.749 111.934 441.308 113.783 441.24 114.603C439.163 117.926 437.226 121.405 435.071 124.663C423.114 142.731 409.317 161.011 396.202 178.272C338.721 253.93 274.732 326.342 202.63 387.613C199.429 388.748 188.561 382.851 185.506 380.856C184.003 379.875 176.241 374.283 175.539 373.334C174.565 372.027 177.554 369.918 178.783 369.256C183.585 372.126 187.934 375.808 192.741 378.66C194.328 379.602 199.592 382.762 201.064 382.435C202.201 382.174 206.369 378.55 207.61 377.548C225.757 362.903 243.843 344.694 260.359 328.051C290.958 297.234 320.914 264.459 349.1 231.302C380.952 193.832 411.351 154.701 436.994 112.481ZM143.005 344.673C145.439 350.272 149.142 355.095 152.631 360.015L152.668 360.463C149.832 363.802 149.674 362.68 147.375 359.868C146.028 358.221 140.272 349.556 140.429 348.005C140.5 347.342 142.371 344.337 143.005 344.673ZM261.893 182.478L261.485 183.799L227.83 220.83C208.014 223.242 187.067 224.203 169.091 233.899L23.0382 356.643H17.3741C17.6033 356.435 110.506 272.589 148.146 240.263C157.601 232.144 166.854 223.774 177.146 216.764C202.291 199.641 231.775 186.905 261.884 182.474L261.893 182.478ZM394.219 71.9496C396.364 70.6635 396.094 71.5568 397.191 73.595L396.63 74.4895C344.386 115.548 295.66 161.816 250.585 210.966H250.593C215.147 249.61 181.959 290.448 151.147 333.024C149.295 336.17 152.567 341.216 154.296 344.05C156.191 347.153 158.712 349.814 160.657 352.876L157.986 355.362C156.703 355.55 148.419 342.574 147.495 340.595C146.716 338.92 145.387 336.092 145.94 334.362C206.486 247.867 278.839 168.002 358.825 100.061C369.035 91.3853 383.073 78.629 394.219 71.9496ZM145.252 319.878C145.439 320.649 144.052 320.443 143.607 320.436C137.185 320.371 130.18 318.595 123.668 319L79.7404 337.628L122.464 313.739L123.837 313.694L145.252 319.878ZM362.988 124.774C379.037 102.766 412.027 129.408 393.934 150.805C377.575 170.161 348.011 145.317 362.988 124.774ZM388.687 123.773C370.178 110.313 352.104 138.477 369.885 151.117C387.391 163.564 405.69 136.138 388.687 123.773ZM402.674 66.2504C413.444 81.0152 426.676 94.229 441.991 103.922C443.216 104.701 444.735 105.484 446.128 105.867C446.804 106.731 444.52 110.39 443.574 110.208C428.969 102.622 416.946 92.174 406.479 79.2328C404.509 76.7992 400.18 71.8286 398.889 69.3399C398.689 68.9504 398.497 68.5849 398.53 68.1257L402.674 66.2504ZM482.921 20.0196C495.023 19.3542 486.568 37.8279 484.187 43.5515C476.905 61.0448 464.33 81.2089 453.406 96.8315C452.38 98.3055 451.574 100.017 450.32 101.358C449.193 100.058 446.322 99.9269 446.854 97.8122L467.956 65.1097C473.457 55.0839 479.86 43.8197 482.959 32.8093C483.571 30.6498 484.875 26.9592 483.537 25.1691C480.916 23.3251 470.742 27.2206 467.661 28.3983C445.685 36.8102 425.434 51.1674 407.377 65.8236C406.119 66.4824 404.112 62.7462 404.471 61.9954C415.917 53.1283 427.376 43.9544 439.936 36.6088C450.282 30.5594 471.152 20.6674 482.921 20.0196ZM465.512 33.8761C467.353 33.0765 475.567 29.6503 476.888 30.651L476.88 30.6551C464.233 52.3531 445.938 69.6009 430.186 88.8139C427.674 87.1975 425.503 85.0622 423.409 82.9257C421.127 80.5975 414.364 73.4152 413.041 70.932C412.843 70.558 412.629 70.1761 412.707 69.7341C429.21 56.2884 445.905 42.4265 465.512 33.8761Z" fill="white"/>
<path d="M276.497 71.1594C267.045 58.8512 267 34.0344 267 34.0344C267 34.0344 266.955 58.8512 257.503 71.1594C248.05 83.4676 229 83.5344 229 83.5344C229 83.5344 248.05 83.6012 257.503 95.9094C266.955 108.217 267 133.034 267 133.034C267 133.034 267.045 108.217 276.497 95.9094C285.95 83.6012 305 83.5344 305 83.5344C305 83.5344 285.95 83.4676 276.497 71.1594Z" fill="white"/>
<path d="M213.624 40.2844C208.524 33.5708 208.5 20.0344 208.5 20.0344C208.5 20.0344 208.476 33.5708 203.376 40.2844C198.277 46.998 188 47.0344 188 47.0344C188 47.0344 198.277 47.0708 203.376 53.7844C208.476 60.498 208.5 74.0344 208.5 74.0344C208.5 74.0344 208.524 60.498 213.624 53.7844C218.723 47.0708 229 47.0344 229 47.0344C229 47.0344 218.723 46.998 213.624 40.2844Z" fill="white"/>
</g>
<defs>
<clipPath id="clip0_4071_1230">
<rect width="540" height="540" fill="white" transform="translate(0.96875 0.0344238)"/>
</clipPath>
</defs>
</svg>
