<svg width="32" height="29" viewBox="0 0 32 29" fill="none" xmlns="http://www.w3.org/2000/svg">
<path fill-rule="evenodd" clip-rule="evenodd" d="M29 28.7129H3C1.344 28.7129 0 27.3689 0 25.7129C0 25.1409 0.16 24.6069 0.438 24.1529L13.804 2.00089C14.236 1.23289 15.058 0.712891 16 0.712891C17.04 0.712891 17.932 1.34489 18.316 2.24489L31.552 24.1349C31.836 24.5929 32 25.1349 32 25.7129C32 27.3689 30.656 28.7129 29 28.7129ZM18 22.7129C18 21.6089 17.104 20.7129 16 20.7129C14.896 20.7129 14 21.6089 14 22.7129C14 23.8169 14.896 24.7129 16 24.7129C17.104 24.7129 18 23.8169 18 22.7129ZM18 10.7129C18 9.60889 17.104 8.71289 16 8.71289C14.896 8.71289 14 9.60889 14 10.7129V16.7129C14 17.8169 14.896 18.7129 16 18.7129C17.104 18.7129 18 17.8169 18 16.7129V10.7129Z" fill="#232325"/>
</svg>
