<svg width="48" height="49" viewBox="0 0 48 49" fill="none" xmlns="http://www.w3.org/2000/svg">
<path fill-rule="evenodd" clip-rule="evenodd" d="M24 7.6767C32.83 7.6767 40 14.8467 40 23.6767C40 32.5067 32.83 39.6767 24 39.6767C15.17 39.6767 8 32.5067 8 23.6767C8 14.8467 15.17 7.6767 24 7.6767ZM26.6625 31.6767C27.7625 31.6767 28.6545 30.7847 28.6545 29.6847C28.6545 28.5847 27.7625 27.6907 26.6625 27.6907H25.9965V21.1907C25.9965 20.3047 25.5185 19.6767 24.6365 19.6767C24.6305 19.6767 21.3665 19.6767 21.3665 19.6767C20.2585 19.6767 19.3565 20.5767 19.3565 21.6867C19.3565 22.7967 20.2585 23.6967 21.3665 23.6967H21.9905V27.6907H21.3085C20.2085 27.6907 19.3145 28.5847 19.3145 29.6847C19.3145 30.7847 20.2085 31.6767 21.3085 31.6767H26.6625ZM24.0004 12.9927C25.4824 12.9927 26.6844 14.1947 26.6844 15.6767C26.6844 17.1587 25.4824 18.3607 24.0004 18.3607C22.5184 18.3607 21.3164 17.1587 21.3164 15.6767C21.3164 14.1947 22.5184 12.9927 24.0004 12.9927Z" fill="#232325"/>
</svg>
