<svg width="24" height="25" viewBox="0 0 24 25" fill="none" xmlns="http://www.w3.org/2000/svg">
<path fill-rule="evenodd" clip-rule="evenodd" d="M12 4.42017C16.415 4.42017 20 8.00517 20 12.4202C20 16.8352 16.415 20.4202 12 20.4202C7.585 20.4202 4 16.8352 4 12.4202C4 8.00517 7.585 4.42017 12 4.42017ZM8.41211 11.3701C7.85982 11.3701 7.41211 11.8178 7.41211 12.3701C7.41266 12.922 7.86021 13.3691 8.41211 13.3691H10.9512V15.9061L10.9502 15.9071C10.9502 16.4594 11.3979 16.9071 11.9502 16.9071C12.5021 16.9066 12.9492 16.459 12.9492 15.9071V13.3691H15.4881C16.04 13.3685 16.4871 12.921 16.4871 12.3691C16.486 11.8176 16.0386 11.3711 15.4871 11.3711H12.9492V8.8311C12.9486 8.27921 12.5011 7.8321 11.9492 7.8321C11.3977 7.83321 10.9512 8.2806 10.9512 8.8321V11.3711H8.41311L8.41211 11.3701Z" fill="#34C759"/>
</svg>
