<svg width="64" height="19" viewBox="0 0 64 19" fill="none" xmlns="http://www.w3.org/2000/svg">
<g clip-path="url(#clip0_284_4311)">
<path d="M2.76719 0.425903L-0.446655 7.92486H1.66135L2.24883 6.43894H5.70455L6.29206 7.92486H8.43462L5.22078 0.425903H2.76719ZM3.9767 2.1883L5.04799 4.8147H2.90542L3.9767 2.1883Z" fill="white" fill-opacity="0.3"/>
<path d="M8.67599 7.92486V0.425903H11.648L13.4104 5.26398L15.1037 0.425903H18.0411V7.92486H16.175V2.39566L14.2052 7.92486H12.5465L10.5422 2.39566V7.92486H8.67599Z" fill="white" fill-opacity="0.3"/>
<path d="M19.3549 7.92486V0.425903H25.4716V2.11918H21.221V3.39782H25.3679V4.95294H21.221V6.3007H25.4716V7.92486H19.3549Z" fill="white" fill-opacity="0.3"/>
<path d="M26.5424 0.425903V7.92486H28.4086V5.26398H29.2034L31.4496 7.92486H33.765L31.3114 5.1603C32.3135 5.09118 33.3848 4.1927 33.3848 2.84494C33.3848 1.25526 32.1407 0.425903 30.7585 0.425903H26.5424ZM28.4086 2.11918H30.5511C31.0695 2.11918 31.4496 2.5339 31.4496 2.91406C31.4496 3.39782 30.9658 3.70886 30.5857 3.70886H28.4086V2.11918Z" fill="white" fill-opacity="0.3"/>
<path d="M36.0118 7.92486H34.1112V0.425903H36.0118V7.92486Z" fill="white" fill-opacity="0.3"/>
<path d="M40.5733 7.92486H40.1586C38.1543 7.92486 36.9448 6.33526 36.9448 4.1927C36.9448 1.98102 38.1543 0.425903 40.677 0.425903H42.7504V2.1883H40.6078C39.5711 2.1883 38.8454 2.98318 38.8454 4.22726C38.8454 5.67862 39.6748 6.3007 40.8843 6.3007H41.3682L40.5733 7.92486Z" fill="white" fill-opacity="0.3"/>
<path d="M44.6508 0.425903L41.437 7.92486H43.5449L44.1325 6.43894H47.5882L48.1757 7.92486H50.3182L47.1044 0.425903H44.6508ZM45.8603 2.1883L46.9316 4.8147H44.8236L45.8603 2.1883Z" fill="white" fill-opacity="0.3"/>
<path d="M50.526 7.92486V0.425903H52.9105L55.9861 5.12574V0.425903H57.8522V7.92486H55.5369L52.4266 3.08686V7.92486H50.526Z" fill="white" fill-opacity="0.3"/>
<path d="M13.2033 17.6009V10.1019H19.3545V11.7953H15.104V13.0739H19.2509V14.6635H15.104V15.9767H19.3545V17.6009H13.2033Z" fill="white" fill-opacity="0.3"/>
<path d="M43.2002 17.6009V10.1019H49.3515V11.7953H45.1009V13.0739H49.2133V14.6635H45.1009V15.9767H49.3515V17.6009H43.2002Z" fill="white" fill-opacity="0.3"/>
<path d="M19.5623 17.6009L22.5688 13.9033L19.4932 10.1019H21.8777L23.6746 12.4518L25.5062 10.1019H27.787L24.7805 13.8687L27.7525 17.6009H25.4026L23.6401 15.2856L21.9122 17.6009H19.5623Z" fill="white" fill-opacity="0.3"/>
<path d="M27.994 10.1019V17.6009H29.9292V15.251H31.8989C33.5577 15.251 34.8364 14.3525 34.8364 12.6246C34.8364 11.2078 33.8342 10.1019 32.1408 10.1019H27.994ZM29.8946 11.7953H31.968C32.521 11.7953 32.9011 12.1408 32.9011 12.6592C32.9011 13.143 32.521 13.5231 31.968 13.5231H29.8946V11.7953Z" fill="white" fill-opacity="0.3"/>
<path d="M35.6315 10.1019V17.6009H37.4976V14.94H38.2924L40.5387 17.6009H42.8195L40.3659 14.8363C41.368 14.7672 42.4393 13.8687 42.4393 12.521C42.4393 10.9313 41.1953 10.1019 39.813 10.1019H35.6315ZM37.4976 11.7953H39.6402C40.1585 11.7953 40.5387 12.2099 40.5387 12.5901C40.5387 13.0739 40.0549 13.3849 39.6747 13.3849H37.4976V11.7953Z" fill="white" fill-opacity="0.3"/>
<path d="M50.2146 17.601V15.9767H53.9813C54.5343 15.9767 54.7762 15.6657 54.7762 15.3547C54.7762 15.0437 54.5343 14.7326 53.9813 14.7326H52.2881C50.8021 14.7326 50.0073 13.8342 50.0073 12.4864C50.0073 11.2769 50.7675 10.1365 52.9446 10.1365H56.5732L55.7784 11.8298H52.6337C52.0461 11.8298 51.8388 12.1408 51.8388 12.4518C51.8388 12.7629 52.0807 13.1085 52.53 13.1085H54.2924C55.9511 13.1085 56.6423 14.0415 56.6423 15.251C56.6423 16.5642 55.8475 17.6354 54.1887 17.6354H50.2146V17.601Z" fill="white" fill-opacity="0.3"/>
<path d="M57.0912 17.601V15.9767H60.8579C61.4109 15.9767 61.6528 15.6657 61.6528 15.3547C61.6528 15.0437 61.4109 14.7326 60.8579 14.7326H59.1646C57.6786 14.7326 56.8838 13.8342 56.8838 12.4864C56.8838 11.2769 57.6441 10.1365 59.8212 10.1365H63.4843L62.6895 11.8298H59.5448C58.9573 11.8298 58.7499 12.1408 58.7499 12.4518C58.7499 12.7629 58.9918 13.1085 59.4411 13.1085H61.2035C62.8623 13.1085 63.5534 14.0415 63.5534 15.251C63.5534 16.5642 62.7586 17.6354 61.0998 17.6354H57.0912V17.601Z" fill="white" fill-opacity="0.3"/>
</g>
<defs>
<clipPath id="clip0_284_4311">
<rect width="64" height="18" fill="white" transform="translate(0 0.36084)"/>
</clipPath>
</defs>
</svg>
