<svg width="59" height="17" viewBox="0 0 59 17" fill="none" xmlns="http://www.w3.org/2000/svg">
<path fill-rule="evenodd" clip-rule="evenodd" d="M38.8175 1.31891C40.1826 1.31891 41.2393 1.63635 41.9311 2.26291C42.5858 2.85235 42.9506 3.71251 42.9602 4.69491C42.9602 5.70483 42.6607 6.52787 42.0623 7.14483C41.2956 7.93971 40.0892 8.37939 38.6677 8.37939C38.4431 8.37939 38.2185 8.36979 38.0034 8.35123V12.3538H35.8991V1.57107L36.2268 1.51475C37.0835 1.38022 37.9503 1.31473 38.8175 1.31891ZM38.6959 6.51827C39.4997 6.51827 40.8463 6.29427 40.8463 4.76019C40.8463 3.43219 39.7519 3.15187 38.8546 3.15187C38.4994 3.15187 38.2185 3.16083 38.013 3.18899V6.48115C38.1999 6.50867 38.4245 6.51827 38.6959 6.51827ZM1.3999 12.3544L5.1407 1.39379H7.27318L11.0236 12.3544H8.77846L7.69366 9.15635H4.6543L3.59766 12.3544H1.3999ZM5.19702 7.33235H7.1599L6.3471 4.94771C6.30614 4.83635 6.27222 4.72819 6.23894 4.62131C6.21974 4.55859 6.1999 4.49587 6.17878 4.43315C6.14358 4.55219 6.1039 4.67123 6.0623 4.79347L6.02006 4.91955L5.19702 7.33235Z" fill="white" fill-opacity="0.3"/>
<path d="M13.5951 6.48117C13.5951 6.77109 13.7071 6.95797 14.717 7.35989C15.6431 7.70549 16.8866 8.35189 16.8866 9.91349C16.8866 11.4655 15.6335 12.5132 13.7724 12.5132C12.9589 12.5132 12.1359 12.3071 11.5189 11.9423L11.2476 11.7836L11.8088 10.0159L12.2389 10.2687C12.5941 10.4837 13.2207 10.7269 13.8005 10.7269C14.1749 10.7269 14.8015 10.6424 14.8015 10.044C14.8015 9.72597 14.717 9.46421 13.7167 9.09045C12.7061 8.72565 11.5093 8.00501 11.5093 6.64949C11.5093 5.17109 12.7343 4.10549 14.4277 4.10549C15.1848 4.10549 15.933 4.29237 16.4284 4.62005L16.6908 4.78837L16.1199 6.52789L15.6898 6.25653C15.305 6.01685 14.8618 5.88735 14.4085 5.88213C13.9029 5.88213 13.5951 6.10677 13.5951 6.48117ZM20.1877 2.36597L18.093 3.00213V4.25525H16.9615V6.06005H18.093V9.64213C18.093 10.6424 18.2895 11.3535 18.7106 11.8309C19.1221 12.27 19.7295 12.5221 20.4405 12.5221C21.0767 12.5221 21.5349 12.3916 21.75 12.3167L22.0303 12.2232L21.9183 10.4088L21.4319 10.5496C21.2911 10.5868 21.1234 10.6239 20.7772 10.6239C20.5244 10.6239 20.1788 10.6239 20.1788 9.60437V6.06005H22.077V4.25525H20.1877V2.36597ZM26.8092 4.12405L27.1932 4.18037L27.2021 6.28469L26.7157 6.18229C26.6223 6.16309 26.5192 6.16309 26.3509 6.16309C25.6405 6.16309 25.1164 6.68725 24.9576 7.52885C24.9384 7.66901 24.9199 7.87445 24.9199 8.07093V12.3544H22.797V6.93045C22.797 6.01333 22.7688 5.30293 22.7317 4.67637L22.7036 4.25525H24.6677L24.6959 4.84405C25.1631 4.36789 25.7711 4.09653 26.4354 4.09653C26.5845 4.09653 26.6972 4.10549 26.8092 4.12405Z" fill="white" fill-opacity="0.3"/>
<path fill-rule="evenodd" clip-rule="evenodd" d="M31.0549 4.10547C28.6889 4.10547 27.0338 5.85459 27.0338 8.36979C27.0338 10.8203 28.6325 12.5221 30.9333 12.5221C32.8789 12.5221 34.9641 11.1845 34.9641 8.24819C34.9737 5.80787 33.3647 4.10547 31.0549 4.10547ZM32.8226 8.29555C32.8226 9.70739 32.0559 10.7359 31.0082 10.7359C29.9605 10.7359 29.2034 9.71699 29.2034 8.33267C29.2034 7.43475 29.5868 5.91027 31.0364 5.91027C32.4482 5.89171 32.8226 7.46291 32.8226 8.29555ZM49.4037 10.2027V7.47251C49.4037 5.29331 48.2722 4.10611 46.2332 4.10611C45.2885 4.10611 44.2972 4.36723 43.6149 4.79731L43.3436 4.96563L43.9138 6.64883L44.3439 6.35955C44.7836 6.06003 45.4191 5.88211 46.0367 5.88211C46.4668 5.87315 46.7759 5.97619 46.9813 6.17203C47.1497 6.34035 47.2527 6.59315 47.2898 6.91123C45.6348 6.95795 44.4284 7.35091 43.6802 8.08947C43.1657 8.60403 42.9039 9.24915 42.9039 10.0255C42.9039 11.269 43.8018 12.5221 45.5407 12.5221C46.2799 12.5221 46.9724 12.2885 47.5145 11.877L47.5708 12.3634H49.581L49.5061 11.9051C49.4409 11.4565 49.4037 10.8856 49.4037 10.2027ZM45.8684 10.7455C45.5503 10.7455 45.0268 10.6335 45.0268 9.87571C45.0268 9.58579 45.1113 9.35219 45.2981 9.17427C45.5413 8.93107 46.093 8.65075 47.3269 8.63155V9.50195C47.3269 9.56723 47.318 9.67923 47.2898 9.79123C47.1401 10.2309 46.6818 10.7448 45.869 10.7448L45.8684 10.7455Z" fill="white" fill-opacity="0.3"/>
<path d="M53.7052 8.81013L55.2482 4.25525H57.4927L55.2956 9.99797C54.3977 12.3544 53.7148 13.8041 52.6863 14.7205C51.8255 15.4405 51.0774 15.6184 50.8623 15.6556L50.5167 15.7208L49.974 13.9071L50.3484 13.7855C50.5257 13.7388 50.9564 13.5794 51.3769 13.2146L51.3865 13.2056C51.7602 12.9061 52.1346 12.4012 52.3868 11.868L52.4015 11.8309C52.4182 11.7881 52.438 11.7375 52.4527 11.7093C52.4527 11.6901 52.4335 11.6344 52.3868 11.541L52.3778 11.5218L49.4786 4.25525H51.7884L53.4716 8.82869C53.5183 8.93109 53.5561 9.04373 53.5932 9.15573C53.6124 9.10005 53.631 9.04117 53.6495 8.98293L53.7052 8.81013Z" fill="white" fill-opacity="0.3"/>
<path d="M9.14389 4.40501C10.509 3.01173 12.8277 2.17909 15.3436 2.17909C16.3253 2.17909 17.2796 2.30069 18.1865 2.55349L18.2613 2.57205L19.8703 2.08565L19.1497 1.80533C17.7749 1.28117 16.1948 1.00085 14.5673 1.00085C12.2012 1.00085 9.99445 1.57109 8.35797 2.60917L8.18005 2.72181L8.86293 4.71285L9.14325 4.40437L9.14389 4.40501Z" fill="white" fill-opacity="0.3"/>
</svg>
