<svg width="19" height="17" viewBox="0 0 19 17" fill="none" xmlns="http://www.w3.org/2000/svg">
<g clip-path="url(#clip0_45_7668)">
<path fill-rule="evenodd" clip-rule="evenodd" d="M7.8803 16.1208C12.3425 17.1901 16.8599 14.5821 17.9719 10.2959C19.0847 6.01056 16.3701 1.66834 11.9087 0.600783C7.4483 -0.46855 2.92919 2.14034 1.81808 6.42656C0.705187 10.711 3.42074 15.0532 7.8803 16.1217V16.1208ZM11.7354 5.20256C12.8892 5.58478 13.7327 6.15634 13.5665 7.22034C13.4465 7.99989 12.9976 8.37767 12.4003 8.50923C13.2199 8.91989 13.6376 9.54923 13.2394 10.6381C12.747 11.9919 11.5754 12.1066 10.0172 11.823L9.63941 13.279L8.72563 13.0603L9.09897 11.6239C8.85538 11.566 8.61241 11.5055 8.37008 11.4426L7.99674 12.8852L7.08385 12.6666L7.46163 11.2088C7.37596 11.1873 7.29033 11.1657 7.20474 11.1439L6.81008 11.0461L5.62163 10.7617L6.07497 9.75723C6.07497 9.75723 6.74785 9.92967 6.73897 9.91723C6.99763 9.97767 7.1123 9.81589 7.15763 9.70834L7.75497 7.40612L7.82074 7.42212L7.85185 7.43012C7.82081 7.41832 7.78904 7.40852 7.75674 7.40078L8.18341 5.75812C8.19408 5.57145 8.12741 5.33589 7.75674 5.24701C7.77185 5.23812 7.09363 5.08878 7.09363 5.08878L7.3363 4.15101L8.59674 4.45323L8.59585 4.45767C8.78519 4.50301 8.97985 4.54656 9.17897 4.59012L9.55319 3.14834L10.467 3.36701L10.0999 4.78034C10.3452 4.83367 10.5914 4.88789 10.8314 4.94567L11.1959 3.54123L12.1096 3.76078L11.7354 5.20256ZM8.84652 10.4301C9.59141 10.6194 11.2199 11.0328 11.4794 10.0328C11.7452 9.01056 10.1647 8.67012 9.39408 8.50389L9.16919 8.45412L8.66785 10.3857L8.84563 10.4301H8.84652ZM11.7621 7.20523C11.5256 8.11456 10.1692 7.76701 9.54874 7.60789L9.39763 7.56967L9.85274 5.81767C9.90519 5.83012 9.9683 5.84345 10.0412 5.85856C10.6847 5.99545 12.003 6.27634 11.7612 7.20523H11.7621Z" fill="white" fill-opacity="0.3"/>
</g>
<defs>
<clipPath id="clip0_45_7668">
<rect width="17.7778" height="16" fill="white" transform="translate(0.93808 0.36084)"/>
</clipPath>
</defs>
</svg>
