<svg width="42" height="17" viewBox="0 0 42 17" fill="none" xmlns="http://www.w3.org/2000/svg">
<g opacity="0.3" clip-path="url(#clip0_45_7648)">
<path fill-rule="evenodd" clip-rule="evenodd" d="M20.1059 12.8675V8.17686H22.5628C23.5752 8.17686 24.4259 7.84797 25.1157 7.1902C25.4601 6.88158 25.7337 6.50217 25.9178 6.07796C26.1019 5.65375 26.1921 5.19476 26.1823 4.73242C26.1892 4.27246 26.0976 3.81635 25.9136 3.39473C25.7296 2.97311 25.4576 2.59574 25.1157 2.28797C24.7774 1.96055 24.3777 1.70336 23.9395 1.53127C23.5013 1.35917 23.0334 1.27558 22.5628 1.28531H18.6197V12.8675H20.1059ZM20.1041 6.75464V2.71109H22.5974C22.8721 2.70317 23.1453 2.75376 23.399 2.8595C23.6526 2.96524 23.8808 3.12372 24.0685 3.32442C24.2578 3.50841 24.4082 3.72848 24.511 3.97162C24.6137 4.21475 24.6666 4.47602 24.6666 4.73997C24.6666 5.00392 24.6137 5.26519 24.511 5.50833C24.4082 5.75147 24.2578 5.97154 24.0685 6.15553C23.8786 6.35231 23.6496 6.50724 23.3962 6.61041C23.1429 6.71357 22.8708 6.7627 22.5974 6.75464H20.1041ZM32.2108 5.5662C31.5743 4.97864 30.7068 4.68442 29.6081 4.68442C28.1965 4.68442 27.1299 5.20175 26.4099 6.23731L27.7192 7.0622C28.2028 6.36086 28.8605 6.01064 29.6908 6.01064C30.2205 6.0043 30.7331 6.19792 31.1263 6.55286C31.5174 6.87731 31.7432 7.36175 31.7397 7.8702V8.20975C31.169 7.8862 30.4419 7.72531 29.5592 7.72531C28.5245 7.72531 27.6979 7.96886 27.0792 8.45331C26.4588 8.93775 26.1494 9.58931 26.1494 10.4089C26.1427 10.7776 26.2183 11.1432 26.3706 11.479C26.523 11.8148 26.7484 12.1125 27.0303 12.3502C27.617 12.8675 28.3477 13.1262 29.2197 13.1262C30.2419 13.1262 31.0605 12.6729 31.6765 11.768H31.7405V12.8675H33.1628V7.98397C33.1637 6.95997 32.8463 6.15375 32.2099 5.5662H32.2108ZM28.177 11.4124C28.0235 11.3015 27.8988 11.1556 27.8131 10.9868C27.7275 10.8179 27.6834 10.6311 27.6845 10.4418C27.6845 10.0106 27.8863 9.65064 28.2934 9.35464C28.697 9.06397 29.2001 8.9182 29.8045 8.9182C30.6339 8.9182 31.2801 9.10309 31.7441 9.47197C31.7441 10.0969 31.4979 10.6418 31.0045 11.1058C30.5619 11.5502 29.9601 11.7991 29.3334 11.8C28.9151 11.808 28.5059 11.6711 28.177 11.4124Z" fill="white"/>
<path d="M41.3263 4.94312L36.3619 16.3609H34.8277L36.6695 12.3662L33.4055 4.944H35.0215L37.3806 10.6364H37.4135L39.7077 4.94312H41.3263Z" fill="white"/>
<path d="M14.0979 7.1671C14.0979 6.71376 14.0597 6.26043 13.9832 5.81421H7.71301V8.37687H11.3041C11.2306 8.78597 11.0751 9.17596 10.8468 9.52334C10.6186 9.87073 10.3224 10.1683 9.97612 10.3982V12.0622H12.1201C13.3743 10.904 14.0979 9.1911 14.0979 7.1671Z" fill="#FBBC04"/>
<path d="M7.713 13.6694C9.50678 13.6694 11.0179 13.0792 12.1192 12.0632L9.97611 10.3992C9.37967 10.8045 8.61078 11.0356 7.713 11.0356C5.97789 11.0356 4.50589 9.86583 3.97967 8.28894H1.77167V10.0027C2.32466 11.1047 3.17315 12.0311 4.22234 12.6786C5.27153 13.3261 6.48009 13.6692 7.713 13.6694Z" fill="#34A853"/>
<path d="M3.97967 8.28803C3.70144 7.46194 3.70144 6.56746 3.97967 5.74137V4.02759H1.77167C1.30615 4.95468 1.06372 5.97774 1.06372 7.01514C1.06372 8.05255 1.30615 9.0756 1.77167 10.0027L3.97967 8.28803Z" fill="#FBBC04"/>
<path d="M7.713 2.99467C8.66121 2.97942 9.57732 3.33801 10.2632 3.9929L12.161 2.09423C10.9582 0.963142 9.364 0.34191 7.713 0.360896C6.48009 0.361125 5.27153 0.704153 4.22234 1.35166C3.17315 1.99916 2.32466 2.92563 1.77167 4.02756L3.97967 5.74134C4.50678 4.16534 5.97878 2.99467 7.713 2.99467Z" fill="#34A853"/>
<path fill-rule="evenodd" clip-rule="evenodd" d="M20.1059 12.8675V8.17686H22.5628C23.5752 8.17686 24.4259 7.84797 25.1157 7.1902C25.4601 6.88158 25.7337 6.50217 25.9178 6.07796C26.1019 5.65375 26.1921 5.19476 26.1823 4.73242C26.1892 4.27246 26.0976 3.81635 25.9136 3.39473C25.7296 2.97311 25.4576 2.59574 25.1157 2.28797C24.7774 1.96055 24.3777 1.70336 23.9395 1.53127C23.5013 1.35917 23.0334 1.27558 22.5628 1.28531H18.6197V12.8675H20.1059ZM20.1041 6.75464V2.71109H22.5974C22.8721 2.70317 23.1453 2.75376 23.399 2.8595C23.6526 2.96524 23.8808 3.12372 24.0685 3.32442C24.2577 3.50847 24.408 3.72856 24.5107 3.97169C24.6134 4.21482 24.6662 4.47606 24.6662 4.73997C24.6662 5.00389 24.6134 5.26513 24.5107 5.50826C24.408 5.75139 24.2577 5.97148 24.0685 6.15553C23.8786 6.35231 23.6496 6.50724 23.3962 6.61041C23.1429 6.71357 22.8708 6.7627 22.5974 6.75464H20.1041ZM32.2108 5.5662C31.5743 4.97864 30.7068 4.68442 29.6081 4.68442C28.1965 4.68442 27.1299 5.20175 26.4099 6.23731L27.7192 7.0622C28.2028 6.36086 28.8605 6.01064 29.6908 6.01064C30.2205 6.0043 30.7331 6.19792 31.1263 6.55286C31.5174 6.87731 31.7432 7.36175 31.7397 7.8702V8.20975C31.169 7.8862 30.4419 7.72531 29.5592 7.72531C28.5245 7.72531 27.6979 7.96886 27.0792 8.45331C26.4588 8.93775 26.1494 9.58931 26.1494 10.4089C26.1427 10.7776 26.2183 11.1432 26.3706 11.479C26.523 11.8148 26.7484 12.1125 27.0303 12.3502C27.617 12.8675 28.3477 13.1262 29.2197 13.1262C30.2419 13.1262 31.0605 12.6729 31.6765 11.768H31.7405V12.8675H33.1628V7.98397C33.1637 6.95997 32.8463 6.15375 32.2099 5.5662H32.2108ZM28.177 11.4124C28.0235 11.3015 27.8988 11.1556 27.8131 10.9868C27.7275 10.8179 27.6834 10.6311 27.6845 10.4418C27.6845 10.0106 27.8863 9.65064 28.2934 9.35464C28.697 9.06397 29.2001 8.9182 29.8045 8.9182C30.6339 8.9182 31.2801 9.10309 31.7441 9.47197C31.7441 10.0969 31.4979 10.6418 31.0045 11.1058C30.5619 11.5502 29.9601 11.7991 29.3334 11.8C28.9151 11.808 28.5059 11.6711 28.177 11.4124Z" fill="white"/>
<path d="M41.3263 4.94312L36.3619 16.3609H34.8277L36.6695 12.3662L33.4055 4.944H35.0215L37.3806 10.6364H37.4135L39.7077 4.94312H41.3263ZM14.0979 7.16712C14.0979 6.71378 14.0597 6.26045 13.9832 5.81423H7.71301V8.37689H11.3041C11.2306 8.78599 11.0751 9.17598 10.8468 9.52336C10.6186 9.87075 10.3224 10.1683 9.97612 10.3982V12.0622H12.1201C13.3752 10.904 14.0979 9.19111 14.0979 7.16712Z" fill="white"/>
<path d="M7.713 13.6694C9.50678 13.6694 11.0179 13.0792 12.1192 12.0632L9.97611 10.3992C9.37967 10.8045 8.61078 11.0356 7.713 11.0356C5.97789 11.0356 4.50589 9.86583 3.97967 8.28894H1.77167V10.0027C2.32466 11.1047 3.17315 12.0311 4.22234 12.6786C5.27153 13.3261 6.48009 13.6692 7.713 13.6694Z" fill="white"/>
<path d="M3.97967 8.28803C3.70144 7.46194 3.70144 6.56746 3.97967 5.74137V4.02759H1.77167C1.30615 4.95468 1.06372 5.97774 1.06372 7.01514C1.06372 8.05255 1.30615 9.0756 1.77167 10.0027L3.97967 8.28803Z" fill="white"/>
<path d="M7.713 2.99467C8.66121 2.97942 9.57732 3.33801 10.2632 3.9929L12.161 2.09423C10.9582 0.963142 9.364 0.34191 7.713 0.360896C6.48009 0.361125 5.27153 0.704153 4.22234 1.35166C3.17315 1.99916 2.32466 2.92563 1.77167 4.02756L3.97967 5.74134C4.50678 4.16534 5.97878 2.99467 7.713 2.99467Z" fill="white"/>
</g>
<defs>
<clipPath id="clip0_45_7648">
<rect width="40.8889" height="16" fill="white" transform="translate(0.441895 0.36084)"/>
</clipPath>
</defs>
</svg>
