<svg width="17" height="17" viewBox="0 0 17 17" fill="none" xmlns="http://www.w3.org/2000/svg">
<g clip-path="url(#clip0_45_7721)">
<path d="M14.812 0.63348C15.1535 0.633649 15.4809 0.76937 15.7223 1.01082C15.9638 1.25227 16.0995 1.5797 16.0997 1.92116V14.8005C16.0997 15.142 15.964 15.4696 15.7225 15.711C15.481 15.9525 15.1535 16.0882 14.812 16.0882H1.93263C1.76351 16.0883 1.59603 16.055 1.43976 15.9904C1.28349 15.9257 1.14151 15.8308 1.02192 15.7112C0.902331 15.5916 0.807484 15.4497 0.742802 15.2934C0.67812 15.1371 0.64487 14.9696 0.644954 14.8005V1.92116C0.644954 1.57965 0.78062 1.25212 1.02211 1.01063C1.26359 0.769146 1.59112 0.63348 1.93263 0.63348H14.812ZM14.812 0.36084H1.93263C1.51897 0.361348 1.12239 0.525901 0.829883 0.818408C0.537376 1.11091 0.372823 1.50749 0.372314 1.92116L0.372314 14.8005C0.372823 15.2142 0.537376 15.6108 0.829883 15.9033C1.12239 16.1958 1.51897 16.3603 1.93263 16.3608H14.812C15.2257 16.3605 15.6224 16.196 15.9149 15.9035C16.2075 15.6109 16.372 15.2142 16.3723 14.8005V1.92116C16.3718 1.50749 16.2073 1.11091 15.9147 0.818408C15.6222 0.525901 15.2257 0.361348 14.812 0.36084Z" fill="white" fill-opacity="0.3"/>
<path fill-rule="evenodd" clip-rule="evenodd" d="M14.8114 0.633423H1.93264C1.76354 0.633423 1.59609 0.66673 1.43986 0.731442C1.28364 0.796154 1.14168 0.891003 1.02211 1.01058C0.780624 1.25206 0.644958 1.57959 0.644958 1.9211V14.8011C0.644958 15.1426 0.780624 15.4701 1.02211 15.7116C1.14168 15.8312 1.28364 15.9261 1.43986 15.9908C1.59609 16.0555 1.76354 16.0888 1.93264 16.0888H14.8107C14.9799 16.0889 15.1475 16.0556 15.3038 15.9909C15.4602 15.9262 15.6022 15.8313 15.7219 15.7116C15.8415 15.592 15.9364 15.4499 16.0011 15.2936C16.0659 15.1372 16.0991 14.9697 16.099 14.8005V1.9211C16.0989 1.57953 15.9631 1.25201 15.7215 1.01054C15.4799 0.769068 15.1523 0.633423 14.8107 0.633423H14.8114ZM9.2728 5.76046L9.27408 8.52782L10.0382 8.3499L10.0376 6.82222C10.0376 6.47086 10.172 6.2411 10.4389 6.1355C10.5586 6.08494 10.6872 6.0587 10.8171 6.05678V5.35086C10.75 5.33881 10.681 5.34343 10.6162 5.3643C10.1822 5.47502 9.99536 5.95182 9.99536 5.95182V5.58958L9.2728 5.76046ZM5.46672 9.42766C5.46672 9.42766 5.34896 9.25166 5.34896 8.62894V7.25102L4.97776 7.33934V6.7723L5.3496 6.68398V6.0651L6.1176 5.88398V6.50286L6.66032 6.37358V6.94062L6.1176 7.06926V8.47214C6.1176 9.11022 6.2872 9.2331 6.2872 9.2331L5.46672 9.42766ZM6.96112 6.65518C6.81072 6.93038 6.74096 7.28942 6.74096 7.78158C6.74096 8.58798 6.9848 9.14734 7.90064 8.92974C8.86704 8.70126 8.94384 8.0427 8.95024 7.77774C8.95152 7.71374 8.9496 7.65614 8.9496 7.65614L8.25456 7.82254C8.25456 7.82254 8.25264 7.90446 8.24944 7.93646C8.22896 8.13486 8.15792 8.29486 7.90192 8.34862C7.60624 8.41134 7.50832 8.1899 7.50832 7.7227V7.69838L8.99312 7.34958C8.99312 7.34958 8.9912 7.2331 8.99568 6.99374C9.00784 6.32494 8.70384 5.82638 7.86096 6.01774C7.43344 6.11566 7.14032 6.32814 6.96112 6.65518ZM7.51152 7.23054C7.51728 6.83054 7.64592 6.58926 7.89168 6.53294C8.16496 6.47086 8.25776 6.63022 8.25904 6.9323C8.25904 6.99438 8.25904 7.0347 8.25776 7.05262L7.51152 7.23054ZM13.4168 6.16302C13.388 5.32078 13.6062 4.65198 14.5464 4.43886C15.1461 4.30254 15.3733 4.45806 15.4891 4.6091C15.5998 4.7531 15.6427 4.94702 15.6427 5.21838V5.2683L14.9074 5.44302V5.34062C14.9074 5.0187 14.8178 4.89582 14.5842 4.9547C14.3058 5.0251 14.1938 5.28878 14.1938 5.81358V6.0587C14.1938 6.59182 14.2674 6.8363 14.588 6.7691C14.8658 6.7115 14.9042 6.46766 14.908 6.25326C14.9093 6.21998 14.9106 6.11246 14.9106 6.11246L15.6446 5.93838C15.6446 5.93838 15.6459 5.99278 15.6459 6.05358C15.644 6.7531 15.2747 7.19342 14.5842 7.3547C13.6325 7.57742 13.4462 7.02766 13.4168 6.16302ZM11.8142 6.26542C11.2491 6.49966 10.8734 6.7019 10.8734 7.34318C10.8734 7.81422 11.1678 8.15854 11.7221 8.02798C12.2507 7.90318 12.4037 7.51726 12.4037 7.51726C12.428 7.60366 12.4594 7.6875 12.4978 7.76878L13.1973 7.60302C13.1973 7.60302 13.0872 7.51598 13.0872 6.92334V5.69838C13.0866 5.18126 12.8338 4.84846 12.0754 5.02318C11.4917 5.15758 11.1538 5.41614 11.0398 5.7995C11.0024 5.93661 10.9858 6.07857 10.9906 6.22062L11.7035 6.0523C11.7024 6.0049 11.7039 5.95747 11.708 5.91022C11.7108 5.82413 11.7426 5.7415 11.7982 5.67574C11.8539 5.60999 11.9301 5.56496 12.0146 5.54798C12.2674 5.48398 12.339 5.61518 12.3358 5.76878C12.3339 5.95182 12.323 6.05614 11.8142 6.26606V6.26542ZM11.9589 6.6859C12.0888 6.62318 12.213 6.55022 12.3307 6.4683V6.85358C12.3307 7.1467 12.1739 7.3579 11.9474 7.4155C11.7362 7.46734 11.6203 7.34446 11.6203 7.15694C11.6203 6.93998 11.7259 6.79982 11.9589 6.6859ZM1.45072 11.3675C1.37092 11.3672 1.29268 11.3454 1.2242 11.3044C1.15571 11.2634 1.09951 11.2048 1.06149 11.1347C1.02347 11.0645 1.00502 10.9854 1.00808 10.9057C1.01113 10.8259 1.03559 10.7485 1.07888 10.6814L1.08336 10.675L1.09232 10.6731L2.1368 10.4267V11.2203L2.12016 11.2235C1.88336 11.2811 1.60048 11.3451 1.5416 11.3579C1.51173 11.3643 1.48126 11.3675 1.45072 11.3675ZM1.13712 12.2526C1.18911 12.3049 1.25333 12.3434 1.32395 12.3647C1.39458 12.3859 1.46938 12.3892 1.5416 12.3742C1.60048 12.3621 1.88336 12.2961 2.12016 12.2398L2.1368 12.2353V11.4417L1.09232 11.6888L1.08336 11.6907L1.07888 11.6984C1.02384 11.7836 0.999668 11.8851 1.01038 11.9859C1.0211 12.0868 1.06541 12.1809 1.13712 12.2526ZM1.45072 13.3989C1.37095 13.3988 1.29267 13.3772 1.22413 13.3364C1.15559 13.2956 1.09932 13.2371 1.06126 13.167C1.02319 13.0969 1.00474 13.0178 1.00784 12.9381C1.01094 12.8584 1.03548 12.781 1.07888 12.7141L1.08336 12.7064L2.1368 12.4581V13.2517L2.12016 13.2561C1.87056 13.3163 1.59216 13.379 1.5416 13.3905C1.51166 13.3963 1.48121 13.3991 1.45072 13.3989ZM1.3272 5.95566V10.3953L2.1368 10.2033V5.76558L1.3272 5.95694V5.95566ZM3.3432 10.0177C3.3432 9.88535 3.2906 9.75837 3.19699 9.66475C3.10337 9.57114 2.97639 9.51854 2.844 9.51854C2.7116 9.51854 2.58463 9.57114 2.49101 9.66475C2.39739 9.75837 2.3448 9.88535 2.3448 10.0177L2.34544 14.1662C2.34578 14.5246 2.48819 14.8681 2.74145 15.1216C2.9947 15.3751 3.33815 15.5179 3.69648 15.5185L5.11024 15.5166V13.7861L5.11088 11.8558C5.11103 11.7482 5.08458 11.6423 5.03389 11.5473C4.9832 11.4524 4.90983 11.3715 4.82032 11.3118L3.5608 10.4561V12.3985C3.5608 12.4271 3.54947 12.4544 3.52931 12.4746C3.50914 12.4947 3.48179 12.5061 3.45328 12.5061C3.42476 12.5061 3.39741 12.4947 3.37725 12.4746C3.35709 12.4544 3.34576 12.4271 3.34576 12.3985V12.1201L3.3432 10.0177ZM3.59664 7.12174C3.7208 7.02574 3.8648 6.9579 4.01776 6.92206C4.59376 6.78702 4.77936 7.12302 4.77936 7.60494V9.59022L4.012 9.77006V7.89358C4.012 7.59918 3.87376 7.54094 3.70928 7.57678C3.48976 7.62542 3.3368 7.87118 3.3368 8.17966V9.46606C3.23372 9.37509 3.10749 9.31439 2.97207 9.29067C2.83665 9.26695 2.6973 9.28114 2.56944 9.33166L2.5688 7.33934L3.29712 7.16654V7.47886C3.37008 7.33998 3.47248 7.21774 3.59664 7.12174Z" fill="white" fill-opacity="0.3"/>
</g>
<defs>
<clipPath id="clip0_45_7721">
<rect width="16" height="16" fill="white" transform="translate(0.372314 0.36084)"/>
</clipPath>
</defs>
</svg>
