<svg width="66" height="17" viewBox="0 0 66 17" fill="none" xmlns="http://www.w3.org/2000/svg">
<g clip-path="url(#clip0_45_7689)">
<path fill-rule="evenodd" clip-rule="evenodd" d="M18.2041 3.26835C18.5295 4.27102 18.8539 5.27457 19.1508 6.16435C19.5179 7.25146 19.8921 8.34568 20.2664 9.44079C20.6406 10.535 21.0148 11.6292 21.3819 12.7172C21.5508 13.2123 21.7197 13.7217 21.8913 14.239C22.1206 14.9323 22.3535 15.6372 22.597 16.3323H19.6024L18.4441 12.9715L13.2193 12.9999L12.0886 16.3608H9.06637L14.4041 0.373238H17.2575C17.5535 1.26302 17.8797 2.26657 18.2041 3.26835ZM15.8175 4.89235L14.0664 10.3448H17.6255L15.8175 4.89235ZM9.08414 0.938571C10.2993 1.53146 10.949 2.60524 11.2033 3.9039C11.5144 5.48613 11.4575 7.0399 10.8077 8.50835C10.3277 9.49679 9.50814 10.1181 8.49126 10.5137C7.28237 10.9768 5.60237 10.9715 4.26637 10.967L3.8877 10.9661V16.3323H0.921478V0.373238H5.83703C7.19259 0.373238 8.03881 0.486127 9.08414 0.938571ZM6.09126 8.28257C6.91081 8.16968 7.4477 7.68879 7.72948 6.89857C7.9837 6.22035 7.9277 5.48524 7.81481 4.7519C7.75792 4.18657 7.5037 3.64968 6.96681 3.31102C6.1757 2.83102 3.88859 2.88702 3.88859 2.88702V8.39635C3.88859 8.39635 5.38548 8.3679 6.09126 8.28346V8.28257ZM28.2468 0.373238L25.4788 6.1919L22.7108 0.373238H19.4344C20.2255 2.12435 21.0726 3.98924 21.8344 5.65502C22.4566 6.98302 23.8966 10.3163 23.8966 10.3163L23.869 16.3323H26.9757V10.3163C28.021 8.0559 29.1224 5.62746 30.1677 3.36702C30.5917 2.43546 31.1001 1.36168 31.5233 0.373238C30.4504 0.373238 29.2637 0.344793 28.2468 0.373238ZM45.7526 9.4559H50.5259V6.77235H45.7526V3.04524H51.1197V0.360793H42.7588V16.3208H52.0237V13.6363H45.7535L45.7526 9.4559ZM35.2264 9.4559H39.9997V6.77235H35.2264V3.04524H40.5926V0.360793H32.2317V16.3208H41.4681V13.6363H35.2264V9.4559ZM63.7935 5.07813C63.7935 7.1679 62.4655 8.83457 60.7144 9.51279L64.4708 16.3199H60.9117L57.3526 9.85146H56.1668V16.3199H53.1446V0.360793H59.1046C61.7028 0.360793 63.7935 2.0559 63.7935 5.07813ZM56.1668 7.25324H58.4548C59.4993 7.25324 60.3473 6.2639 60.3473 5.07813C60.3473 3.72168 59.4148 2.98746 58.285 2.98746H56.1668V7.25324Z" fill="white" fill-opacity="0.3"/>
</g>
<defs>
<clipPath id="clip0_45_7689">
<rect width="64.8889" height="16" fill="white" transform="translate(0.710815 0.36084)"/>
</clipPath>
</defs>
</svg>
