<svg width="37" height="17" viewBox="0 0 37 17" fill="none" xmlns="http://www.w3.org/2000/svg">
<mask id="mask0_45_7664" style="mask-type:luminance" maskUnits="userSpaceOnUse" x="0" y="0" width="36" height="17">
<path d="M0.500687 0.36084H35.7238V16.3608H0.500687V0.36084Z" fill="white"/>
</mask>
<g mask="url(#mask0_45_7664)">
<path d="M17.762 9.40967H18.3096V10.6363H18.7051L19.4145 9.40967H20.0136L19.1611 10.8497V10.8594L20.0642 12.431H19.4456L18.7149 11.1128H18.3202V12.431H17.7727V9.40878H17.762V9.40967ZM21.2909 10.2106C21.9487 10.2106 22.4874 10.687 22.4874 11.3466C22.4874 12.0159 21.9602 12.4817 21.3007 12.4817C20.642 12.4817 20.114 12.0159 20.114 11.3466C20.1051 10.6772 20.6314 10.2106 21.2909 10.2106ZM22.9131 10.2612H23.4296V11.9652H24.1096V10.2621H24.626V11.9652H25.3051V10.2621H25.8225V12.431H22.9336V10.2621H22.9131V10.2612ZM27.354 10.2106C27.9718 10.2106 28.3167 10.6674 28.3167 11.2354C28.3149 11.3066 28.3078 11.3777 28.2971 11.4479H26.8065C26.8367 11.823 27.1309 12.0257 27.4554 12.0257C27.6776 12.0257 27.9016 11.9243 28.0731 11.7928L28.2865 12.1777C28.0405 12.3789 27.7331 12.49 27.4154 12.4923C26.6954 12.4923 26.2482 11.975 26.2482 11.3563C26.2482 10.6772 26.7051 10.2106 27.354 10.2106ZM28.57 11.975C28.834 11.9341 29.0269 11.7119 29.0269 10.9403V10.2621H30.6091V12.431H30.0714V10.6977H29.5434V10.9403C29.5434 11.8826 29.29 12.431 28.57 12.4514V11.975ZM32.1496 10.2106C32.7674 10.2106 33.1122 10.6674 33.1122 11.2354C33.1105 11.3066 33.1034 11.3777 33.0927 11.4479H31.602C31.6322 11.823 31.9265 12.0257 32.2509 12.0257C32.4731 12.0257 32.6971 11.9243 32.8696 11.7928L33.0829 12.1777C32.8365 12.3793 32.5284 12.4904 32.21 12.4923C31.49 12.4923 31.0447 11.975 31.0447 11.3563C31.0447 10.6772 31.5007 10.2106 32.1496 10.2106ZM33.5585 10.2612H34.0962V11.0932H34.3602L34.8874 10.2621H35.4847L34.7958 11.2959V11.3057L35.5665 12.431H34.938L34.3691 11.5492H34.0865V12.431H33.5487V10.2621H33.5585V10.2612ZM21.2909 12.0159C21.6465 12.0159 21.9398 11.7421 21.9398 11.3359C21.9398 10.9412 21.6465 10.6568 21.2909 10.6568C20.9354 10.6568 20.6518 10.9314 20.6518 11.3359C20.6518 11.7421 20.9362 12.0159 21.2909 12.0159ZM27.7691 11.0728C27.7691 10.7883 27.5771 10.6168 27.3336 10.6168C27.0598 10.6168 26.8571 10.799 26.8065 11.0728H27.7691ZM32.5656 11.0728C32.5656 10.7883 32.3727 10.6168 32.13 10.6168C31.8545 10.6168 31.6527 10.799 31.602 11.0728H32.5656ZM25.3362 2.83011V7.95011C25.3366 7.96889 25.3332 7.98754 25.3262 8.00496C25.3191 8.02238 25.3087 8.0382 25.2954 8.05148C25.2821 8.06476 25.2663 8.07523 25.2489 8.08224C25.2315 8.08926 25.2128 8.0927 25.194 8.09233H24.1505C24.1317 8.09282 24.1129 8.08948 24.0955 8.0825C24.078 8.07553 24.0621 8.06507 24.0488 8.05176C24.0355 8.03846 24.025 8.02259 24.0181 8.00511C24.0111 7.98763 24.0078 7.96892 24.0082 7.95011V2.83011C24.0078 2.8113 24.0111 2.79259 24.0181 2.77511C24.025 2.75763 24.0355 2.74176 24.0488 2.72846C24.0621 2.71515 24.078 2.70469 24.0955 2.69772C24.1129 2.69074 24.1317 2.6874 24.1505 2.68789H25.1949C25.2137 2.6874 25.2324 2.69074 25.2499 2.69772C25.2674 2.70469 25.2833 2.71515 25.2966 2.72846C25.3099 2.74176 25.3203 2.75763 25.3273 2.77511C25.3343 2.79259 25.3367 2.8113 25.3362 2.83011ZM33.4874 2.68789C33.5402 2.69205 33.5903 2.71362 33.6296 2.74922C33.6598 2.77944 33.6598 2.82922 33.65 2.87011L31.9256 8.00078C31.9151 8.02715 31.8972 8.04989 31.874 8.06616C31.8508 8.08244 31.8233 8.09154 31.7949 8.09233H30.8616C30.8011 8.09233 30.7505 8.06122 30.73 8.00078L29.7256 5.00967L28.722 8.00078C28.7115 8.02719 28.6934 8.04989 28.67 8.06603C28.6466 8.08216 28.6189 8.09101 28.5905 8.09144H27.6571C27.5967 8.09144 27.546 8.06122 27.5256 8.00078L25.802 2.87011C25.7922 2.83011 25.7922 2.78922 25.8225 2.74922C25.8429 2.70833 25.8936 2.68789 25.9336 2.68789H27.0998C27.1602 2.68789 27.2118 2.72789 27.2322 2.78922L28.154 5.82033L29.1682 2.78922C29.1786 2.76264 29.1967 2.73975 29.2201 2.72345C29.2435 2.70715 29.2713 2.69817 29.2998 2.69767H30.1211C30.1825 2.69767 30.2331 2.72789 30.2527 2.78922L31.2669 5.82033L32.1896 2.78922C32.1978 2.76047 32.215 2.7351 32.2386 2.71686C32.2623 2.69862 32.2912 2.68846 32.3211 2.68789H33.4874ZM35.2518 2.68789C35.3229 2.68789 35.3834 2.74922 35.394 2.83011V7.95011C35.3944 7.96889 35.391 7.98754 35.3839 8.00496C35.3769 8.02238 35.3665 8.0382 35.3532 8.05148C35.3399 8.06476 35.3241 8.07523 35.3066 8.08224C35.2892 8.08926 35.2706 8.0927 35.2518 8.09233H34.2074C34.1885 8.09282 34.1698 8.08948 34.1524 8.0825C34.1349 8.07553 34.119 8.06507 34.1057 8.05176C34.0924 8.03846 34.0819 8.02259 34.075 8.00511C34.068 7.98763 34.0646 7.96892 34.0651 7.95011V2.83011C34.0646 2.8113 34.068 2.79259 34.075 2.77511C34.0819 2.75763 34.0924 2.74176 34.1057 2.72846C34.119 2.71515 34.1349 2.70469 34.1524 2.69772C34.1698 2.69074 34.1885 2.6874 34.2074 2.68789H35.2518ZM23.3994 7.90922C23.4607 7.98033 23.41 8.08167 23.3185 8.08167H22.0402C22.0151 8.08236 21.9902 8.07727 21.9674 8.06679C21.9446 8.05631 21.9245 8.04072 21.9087 8.02122L21.6962 7.75722C21.2395 8.05199 20.7083 8.21048 20.1647 8.21411C19.4295 8.19153 18.7319 7.8836 18.2198 7.35554C17.7077 6.82749 17.4213 6.1208 17.4213 5.38522C17.4213 4.64964 17.7077 3.94296 18.2198 3.4149C18.7319 2.88685 19.4295 2.57891 20.1647 2.55633C20.9148 2.55657 21.6342 2.85461 22.1648 3.38497C22.6953 3.91533 22.9935 4.63462 22.994 5.38478C22.9942 5.9271 22.8394 6.45819 22.5478 6.91544L23.3994 7.90922ZM12.7238 10.3937C12.9869 10.495 13.0882 10.8897 13.1087 11.0621C13.1487 11.3768 13.058 11.4986 12.9567 11.4986C12.8554 11.4986 12.7131 11.3768 12.5611 11.1341C12.4091 10.8906 12.3478 10.6168 12.4296 10.4746C12.4794 10.383 12.5922 10.343 12.7238 10.3937ZM11.1816 11.5394C11.3705 11.5477 11.5503 11.6234 11.6882 11.7528C12.0029 12.0159 12.0945 12.3199 11.9327 12.543C11.881 12.6021 11.817 12.6491 11.7451 12.6806C11.6731 12.7121 11.5952 12.7273 11.5167 12.7252C11.3423 12.727 11.1731 12.6658 11.0402 12.5528C10.7558 12.3101 10.6758 11.9039 10.8571 11.6817C10.8963 11.6342 10.9461 11.5966 11.0024 11.5719C11.0588 11.5472 11.1201 11.5361 11.1816 11.5394ZM7.63491 14.4692C6.7187 14.4696 5.8114 14.2894 4.96483 13.939C4.11827 13.5887 3.34902 13.0749 2.70104 12.4272C2.05306 11.7795 1.53904 11.0104 1.18834 10.164C0.83764 9.31755 0.657135 8.41032 0.657135 7.49411C0.657135 5.64408 1.39206 3.86982 2.70023 2.56165C4.0084 1.25348 5.78266 0.518555 7.63269 0.518555C9.48272 0.518555 11.257 1.25348 12.5652 2.56165C13.8733 3.86982 14.6082 5.64408 14.6082 7.49411C14.6082 8.80078 14.2438 10.0283 13.6251 11.0728C13.6047 11.103 13.554 11.0932 13.5434 11.0523C13.3007 9.33944 12.2562 8.39544 10.7345 8.11189C10.6029 8.09144 10.5834 8.01055 10.7558 7.991C11.2216 7.95011 11.8811 7.95989 12.2251 8.02122C12.3005 7.37459 12.2382 6.71935 12.0424 6.09849C11.8466 5.47762 11.5217 4.90519 11.0891 4.41874C10.6565 3.9323 10.1259 3.54285 9.53208 3.27595C8.93831 3.00906 8.2948 2.87075 7.6438 2.87011C6.42056 2.87105 5.24769 3.3574 4.38272 4.22236C3.51776 5.08733 3.03141 6.2602 3.03047 7.48344C3.03141 8.70684 3.51788 9.87985 4.38304 10.7448C5.24819 11.6098 6.42129 12.0961 7.64469 12.0968H7.85802C7.78542 11.6852 7.75445 11.2674 7.76558 10.8497C7.77625 10.5652 7.83669 10.5252 7.95847 10.7483C8.59847 11.8532 9.51047 12.847 11.2945 13.2426C12.7549 13.567 14.2145 13.9421 15.786 15.9394C15.9282 16.1119 15.7149 16.295 15.5531 16.1528C13.9514 14.7332 12.4909 14.2666 11.162 14.2666C9.67225 14.2763 8.65802 14.4692 7.63402 14.4692H7.63491ZM20.866 6.77411L20.3078 6.09411C20.2474 6.023 20.298 5.91189 20.3887 5.91189H21.5647C21.626 5.75011 21.6562 5.567 21.6562 5.38478C21.6562 4.54389 21.0278 3.81322 20.1656 3.81322C19.3042 3.81322 18.6758 4.54389 18.6758 5.38478C18.6758 6.22655 19.3042 6.94655 20.1656 6.94655C20.4091 6.95633 20.6527 6.88522 20.866 6.77411Z" fill="white" fill-opacity="0.3"/>
</g>
</svg>
