<svg width="52" height="17" viewBox="0 0 52 17" fill="none" xmlns="http://www.w3.org/2000/svg">
<path fill-rule="evenodd" clip-rule="evenodd" d="M14.8129 8.51017C14.8129 10.2816 14.1092 11.9804 12.8566 13.233C11.6041 14.4856 9.90519 15.1893 8.13378 15.1893C6.36237 15.1893 4.66351 14.4856 3.41094 13.233C2.15836 11.9804 1.45467 10.2816 1.45467 8.51017C1.45467 6.73876 2.15836 5.0399 3.41094 3.78732C4.66351 2.53474 6.36237 1.83105 8.13378 1.83105C9.90519 1.83105 11.6041 2.53474 12.8566 3.78732C14.1092 5.0399 14.8129 6.73876 14.8129 8.51017ZM8.84578 9.12617V9.12794C10.4725 9.05505 11.6876 8.7715 11.6876 8.43194C11.6876 8.09239 10.4742 7.80972 8.84578 7.73594V8.84439C8.79867 8.84883 8.54534 8.87017 8.03867 8.87017C7.61645 8.87017 7.30978 8.85239 7.20401 8.84439V7.73505C5.57378 7.80705 4.35601 8.0915 4.35601 8.43106C4.35601 8.7715 5.57378 9.05506 7.20401 9.12705V9.12528C7.30978 9.13061 7.60667 9.14217 8.03067 9.14217C8.56134 9.14217 8.79956 9.12794 8.84578 9.12439V9.12617ZM8.84578 6.62839V7.62128L8.84756 7.62217C10.6893 7.7075 12.0742 8.07372 12.0742 8.51105C12.0742 8.94839 10.6893 9.31372 8.84756 9.39817V12.5795H7.20489V9.39817C5.36045 9.31283 3.97201 8.9475 3.97201 8.50928C3.97201 8.07105 5.35867 7.70661 7.20489 7.62128V6.62928H4.93378V5.11639H11.1169V6.62928L8.84578 6.62839Z" fill="white" fill-opacity="0.3"/>
<path d="M20.4867 5.52975V7.13419H22.0458V8.33775H20.476V10.7786C20.476 11.3173 20.7729 11.5804 21.2093 11.5804C21.4271 11.5804 21.6796 11.512 21.8849 11.4089L22.276 12.6C21.8751 12.76 21.5418 12.8293 21.1178 12.8409C19.8911 12.8871 19.0893 12.1884 19.0893 10.7786V8.33775H18.0351V7.13419H19.0893V5.67908L20.4867 5.52975ZM47.3676 7.05864L47.4707 7.71197C47.9062 7.01241 48.4911 6.9093 49.0645 6.9093C49.6485 6.9093 50.2102 7.13775 50.5196 7.44708L49.8884 8.66219C49.6022 8.42219 49.3391 8.29508 48.8804 8.29508C48.1471 8.29508 47.4707 8.68441 47.4707 9.72708V12.7066H46.0724V7.05775L47.3676 7.05864ZM43.9409 9.22486C43.8493 8.49153 43.276 8.12352 42.4742 8.12352C41.7187 8.12352 41.0982 8.49153 40.892 9.22486H43.9409ZM40.8698 10.3822C40.9613 11.0817 41.5684 11.5857 42.5542 11.5857C43.0698 11.5857 43.7471 11.3902 44.068 11.0586L44.9613 11.9413C44.3658 12.56 43.3916 12.8586 42.5311 12.8586C40.5827 12.8586 39.4244 11.6551 39.4244 9.84441C39.4244 8.1253 40.5942 6.88708 42.428 6.88708C44.3187 6.88708 45.5 8.05597 45.2822 10.3822H40.8698ZM34.7036 4.6853V7.82575C35.2084 7.17241 35.8271 6.97686 36.4689 6.97686C38.0733 6.97686 38.7845 8.06575 38.7845 9.72797V12.7084H37.3862V9.73952C37.3862 8.70841 36.8476 8.27286 36.1018 8.27286C35.276 8.27286 34.7036 8.97241 34.7036 9.82041V12.7093H33.3062V4.68708L34.7036 4.6853ZM30.9907 5.46486V7.0693H32.5498V8.27286H30.98V10.7137C30.98 11.2533 31.2787 11.5164 31.7133 11.5164C31.9311 11.5164 32.1845 11.4471 32.3898 11.344L32.78 12.536C32.3791 12.696 32.0458 12.7653 31.6218 12.7769C30.3951 12.8231 29.5933 12.1226 29.5933 10.7146V8.27197H28.54V7.0693H29.5942V5.61419L30.9907 5.46486ZM27.1284 9.22486C27.0369 8.49153 26.4636 8.12352 25.6618 8.12352C24.9053 8.12352 24.2858 8.49153 24.0796 9.22486H27.1284ZM24.0573 10.3822C24.148 11.0817 24.756 11.5857 25.7418 11.5857C26.2573 11.5857 26.9338 11.3902 27.2547 11.0586L28.148 11.9413C27.5525 12.56 26.5782 12.8586 25.7178 12.8586C23.7693 12.8586 22.612 11.6551 22.612 9.84441C22.612 8.1253 23.7809 6.88708 25.6138 6.88708C27.5053 6.88708 28.6849 8.05597 28.468 10.3822H24.0573Z" fill="white" fill-opacity="0.3"/>
</svg>
