<svg width="42" height="47" viewBox="0 0 42 47" fill="none" xmlns="http://www.w3.org/2000/svg">
<path d="M22.6421 1.46776L38.8551 10.7322C40.0951 11.4408 40.8601 12.7596 40.8601 14.1878V32.6385C40.8601 34.0667 40.0951 35.3855 38.8551 36.0941L22.6421 45.3585C21.4181 46.0574 19.9161 46.0574 18.6931 45.3585L2.48011 36.0941C1.23991 35.3855 0.474609 34.0667 0.474609 32.6385V14.1878C0.474609 12.7596 1.23991 11.4408 2.48011 10.7322L18.6931 1.46776C19.9161 0.768559 21.4181 0.768559 22.6421 1.46776Z" fill="#240E41" stroke="url(#paint0_linear_2412_2073)" stroke-width="0.838522"/>
<path fill-rule="evenodd" clip-rule="evenodd" d="M15.8792 12.9431L11.2382 17.5738L12.9652 19.2955L14.6932 21.0171L17.6282 18.0894L20.5642 15.1617L23.4992 18.0894L26.4352 21.0171L28.1622 19.2955L29.8892 17.5738L25.2482 12.9431C22.6962 10.3963 20.5882 8.3125 20.5642 8.3125C20.5402 8.3125 18.4322 10.3963 15.8792 12.9431ZM7.00817 21.7937L5.32617 23.4734L7.00817 25.1532C7.93317 26.0771 8.72917 26.833 8.77817 26.833C8.82617 26.833 9.62317 26.0771 10.5482 25.1532L12.2302 23.4734L10.5482 21.7937C9.62317 20.8698 8.82617 20.1139 8.77817 20.1139C8.72917 20.1139 7.93317 20.8698 7.00817 21.7937ZM18.8372 21.7939L17.1542 23.4739L18.8592 25.1747L20.5642 26.8755L22.2692 25.1747L23.9732 23.4739L22.2912 21.7939C21.3662 20.8699 20.5892 20.1139 20.5642 20.1139C20.5392 20.1139 19.7622 20.8699 18.8372 21.7939ZM30.5802 21.7937L28.8982 23.4734L30.5802 25.1532C31.5052 26.0771 32.3012 26.833 32.3502 26.833C32.3982 26.833 33.1952 26.0771 34.1202 25.1532L35.8022 23.4734L34.1202 21.7937C33.1952 20.8698 32.3982 20.1139 32.3502 20.1139C32.3012 20.1139 31.5052 20.8698 30.5802 21.7937ZM12.9432 27.6734L11.2392 29.3753L15.9012 34.026L20.5642 38.6768L25.2262 34.0258L29.8892 29.3747L28.1622 27.652L26.4352 25.9292L23.5002 28.8572L20.5642 31.7852L17.6492 28.8783C16.0462 27.2796 14.7152 25.9715 14.6912 25.9715C14.6672 25.9715 13.8812 26.7373 12.9432 27.6734Z" fill="#F0B90B"/>
<defs>
<linearGradient id="paint0_linear_2412_2073" x1="58.4761" y1="62.5684" x2="6.37511" y2="7.16126" gradientUnits="userSpaceOnUse">
<stop stop-color="#F0B90B" stop-opacity="0"/>
<stop offset="1" stop-color="#F0B90B"/>
</linearGradient>
</defs>
</svg>
