<svg width="110" height="110" viewBox="0 0 110 110" fill="none" xmlns="http://www.w3.org/2000/svg">
<g clip-path="url(#clip0_2342_909)">
<g clip-path="url(#clip1_2342_909)">
<path d="M106 0H4C1.79086 0 0 1.79086 0 4V106C0 108.209 1.79086 110 4 110H106C108.209 110 110 108.209 110 106V4C110 1.79086 108.209 0 106 0Z" fill="white"/>
<path d="M38.6488 11.8921H35.6758V14.8651H38.6488V11.8921Z" fill="black"/>
<path d="M41.6214 11.8921H38.6484V14.8651H41.6214V11.8921Z" fill="black"/>
<path d="M50.5413 11.8921H47.5684V14.8651H50.5413V11.8921Z" fill="black"/>
<path d="M53.514 11.8921H50.541V14.8651H53.514V11.8921Z" fill="black"/>
<path d="M56.4866 11.8921H53.5137V14.8651H56.4866V11.8921Z" fill="black"/>
<path d="M65.4046 11.8921H62.4316V14.8651H65.4046V11.8921Z" fill="black"/>
<path d="M71.3519 11.8921H68.3789V14.8651H71.3519V11.8921Z" fill="black"/>
<path d="M38.6488 14.8647H35.6758V17.8377H38.6488V14.8647Z" fill="black"/>
<path d="M44.5941 14.8647H41.6211V17.8377H44.5941V14.8647Z" fill="black"/>
<path d="M47.5667 14.8647H44.5938V17.8377H47.5667V14.8647Z" fill="black"/>
<path d="M56.4866 14.8647H53.5137V17.8377H56.4866V14.8647Z" fill="black"/>
<path d="M59.4593 14.8647H56.4863V17.8377H59.4593V14.8647Z" fill="black"/>
<path d="M65.4046 14.8647H62.4316V17.8377H65.4046V14.8647Z" fill="black"/>
<path d="M71.3519 14.8647H68.3789V17.8377H71.3519V14.8647Z" fill="black"/>
<path d="M38.6488 17.8379H35.6758V20.8109H38.6488V17.8379Z" fill="black"/>
<path d="M44.5941 17.8379H41.6211V20.8109H44.5941V17.8379Z" fill="black"/>
<path d="M50.5413 17.8379H47.5684V20.8109H50.5413V17.8379Z" fill="black"/>
<path d="M68.3792 17.8379H65.4062V20.8109H68.3792V17.8379Z" fill="black"/>
<path d="M74.3245 17.8379H71.3516V20.8109H74.3245V17.8379Z" fill="black"/>
<path d="M41.6214 20.811H38.6484V23.784H41.6214V20.811Z" fill="black"/>
<path d="M50.5413 20.811H47.5684V23.784H50.5413V20.811Z" fill="black"/>
<path d="M53.514 20.811H50.541V23.784H53.514V20.811Z" fill="black"/>
<path d="M68.3792 20.811H65.4062V23.784H68.3792V20.811Z" fill="black"/>
<path d="M74.3245 20.811H71.3516V23.784H74.3245V20.811Z" fill="black"/>
<path d="M38.6488 23.7837H35.6758V26.7567H38.6488V23.7837Z" fill="black"/>
<path d="M44.5941 23.7837H41.6211V26.7567H44.5941V23.7837Z" fill="black"/>
<path d="M59.4593 23.7837H56.4863V26.7567H59.4593V23.7837Z" fill="black"/>
<path d="M62.432 23.7837H59.459V26.7567H62.432V23.7837Z" fill="black"/>
<path d="M65.4046 23.7837H62.4316V26.7567H65.4046V23.7837Z" fill="black"/>
<path d="M71.3519 23.7837H68.3789V26.7567H71.3519V23.7837Z" fill="black"/>
<path d="M62.432 26.7568H59.459V29.7298H62.432V26.7568Z" fill="black"/>
<path d="M68.3792 26.7568H65.4062V29.7298H68.3792V26.7568Z" fill="black"/>
<path d="M71.3519 26.7568H68.3789V29.7298H71.3519V26.7568Z" fill="black"/>
<path d="M38.6488 29.7295H35.6758V32.7025H38.6488V29.7295Z" fill="black"/>
<path d="M44.5941 29.7295H41.6211V32.7025H44.5941V29.7295Z" fill="black"/>
<path d="M50.5413 29.7295H47.5684V32.7025H50.5413V29.7295Z" fill="black"/>
<path d="M56.4866 29.7295H53.5137V32.7025H56.4866V29.7295Z" fill="black"/>
<path d="M62.432 29.7295H59.459V32.7025H62.432V29.7295Z" fill="black"/>
<path d="M68.3792 29.7295H65.4062V32.7025H68.3792V29.7295Z" fill="black"/>
<path d="M74.3245 29.7295H71.3516V32.7025H74.3245V29.7295Z" fill="black"/>
<path d="M41.6214 32.7026H38.6484V35.6756H41.6214V32.7026Z" fill="black"/>
<path d="M50.5413 32.7026H47.5684V35.6756H50.5413V32.7026Z" fill="black"/>
<path d="M53.514 32.7026H50.541V35.6756H53.514V32.7026Z" fill="black"/>
<path d="M56.4866 32.7026H53.5137V35.6756H56.4866V32.7026Z" fill="black"/>
<path d="M59.4593 32.7026H56.4863V35.6756H59.4593V32.7026Z" fill="black"/>
<path d="M62.432 32.7026H59.459V35.6756H62.432V32.7026Z" fill="black"/>
<path d="M65.4046 32.7026H62.4316V35.6756H65.4046V32.7026Z" fill="black"/>
<path d="M68.3792 32.7026H65.4062V35.6756H68.3792V32.7026Z" fill="black"/>
<path d="M74.3245 32.7026H71.3516V35.6756H74.3245V32.7026Z" fill="black"/>
<path d="M14.8656 35.6758H11.8926V38.6488H14.8656V35.6758Z" fill="black"/>
<path d="M23.7835 35.6758H20.8105V38.6488H23.7835V35.6758Z" fill="black"/>
<path d="M26.7562 35.6758H23.7832V38.6488H26.7562V35.6758Z" fill="black"/>
<path d="M29.7288 35.6758H26.7559V38.6488H29.7288V35.6758Z" fill="black"/>
<path d="M32.7034 35.6758H29.7305V38.6488H32.7034V35.6758Z" fill="black"/>
<path d="M35.6761 35.6758H32.7031V38.6488H35.6761V35.6758Z" fill="black"/>
<path d="M38.6488 35.6758H35.6758V38.6488H38.6488V35.6758Z" fill="black"/>
<path d="M41.6214 35.6758H38.6484V38.6488H41.6214V35.6758Z" fill="black"/>
<path d="M44.5941 35.6758H41.6211V38.6488H44.5941V35.6758Z" fill="black"/>
<path d="M53.514 35.6758H50.541V38.6488H53.514V35.6758Z" fill="black"/>
<path d="M59.4593 35.6758H56.4863V38.6488H59.4593V35.6758Z" fill="black"/>
<path d="M65.4046 35.6758H62.4316V38.6488H65.4046V35.6758Z" fill="black"/>
<path d="M71.3519 35.6758H68.3789V38.6488H71.3519V35.6758Z" fill="black"/>
<path d="M77.2972 35.6758H74.3242V38.6488H77.2972V35.6758Z" fill="black"/>
<path d="M86.2171 35.6758H83.2441V38.6488H86.2171V35.6758Z" fill="black"/>
<path d="M92.1624 35.6758H89.1895V38.6488H92.1624V35.6758Z" fill="black"/>
<path d="M95.1351 35.6758H92.1621V38.6488H95.1351V35.6758Z" fill="black"/>
<path d="M98.1077 35.6758H95.1348V38.6488H98.1077V35.6758Z" fill="black"/>
<path d="M41.6214 38.6484H38.6484V41.6214H41.6214V38.6484Z" fill="black"/>
<path d="M44.5941 38.6484H41.6211V41.6214H44.5941V38.6484Z" fill="black"/>
<path d="M47.5667 38.6484H44.5938V41.6214H47.5667V38.6484Z" fill="black"/>
<path d="M50.5413 38.6484H47.5684V41.6214H50.5413V38.6484Z" fill="black"/>
<path d="M53.514 38.6484H50.541V41.6214H53.514V38.6484Z" fill="black"/>
<path d="M56.4866 38.6484H53.5137V41.6214H56.4866V38.6484Z" fill="black"/>
<path d="M71.3519 38.6484H68.3789V41.6214H71.3519V38.6484Z" fill="black"/>
<path d="M83.2425 38.6484H80.2695V41.6214H83.2425V38.6484Z" fill="black"/>
<path d="M86.2171 38.6484H83.2441V41.6214H86.2171V38.6484Z" fill="black"/>
<path d="M89.1898 38.6484H86.2168V41.6214H89.1898V38.6484Z" fill="black"/>
<path d="M92.1624 38.6484H89.1895V41.6214H92.1624V38.6484Z" fill="black"/>
<path d="M98.1077 38.6484H95.1348V41.6214H98.1077V38.6484Z" fill="black"/>
<path d="M14.8656 41.6216H11.8926V44.5946H14.8656V41.6216Z" fill="black"/>
<path d="M17.8382 41.6216H14.8652V44.5946H17.8382V41.6216Z" fill="black"/>
<path d="M20.8109 41.6216H17.8379V44.5946H20.8109V41.6216Z" fill="black"/>
<path d="M23.7835 41.6216H20.8105V44.5946H23.7835V41.6216Z" fill="black"/>
<path d="M26.7562 41.6216H23.7832V44.5946H26.7562V41.6216Z" fill="black"/>
<path d="M32.7034 41.6216H29.7305V44.5946H32.7034V41.6216Z" fill="black"/>
<path d="M41.6214 41.6216H38.6484V44.5946H41.6214V41.6216Z" fill="black"/>
<path d="M47.5667 41.6216H44.5938V44.5946H47.5667V41.6216Z" fill="black"/>
<path d="M53.514 41.6216H50.541V44.5946H53.514V41.6216Z" fill="black"/>
<path d="M71.3519 41.6216H68.3789V44.5946H71.3519V41.6216Z" fill="black"/>
<path d="M74.3245 41.6216H71.3516V44.5946H74.3245V41.6216Z" fill="black"/>
<path d="M89.1898 41.6216H86.2168V44.5946H89.1898V41.6216Z" fill="black"/>
<path d="M14.8656 44.5947H11.8926V47.5677H14.8656V44.5947Z" fill="black"/>
<path d="M17.8382 44.5947H14.8652V47.5677H17.8382V44.5947Z" fill="black"/>
<path d="M47.5667 44.5947H44.5938V47.5677H47.5667V44.5947Z" fill="black"/>
<path d="M53.514 44.5947H50.541V47.5677H53.514V44.5947Z" fill="black"/>
<path d="M59.4593 44.5947H56.4863V47.5677H59.4593V44.5947Z" fill="black"/>
<path d="M62.432 44.5947H59.459V47.5677H62.432V44.5947Z" fill="black"/>
<path d="M65.4046 44.5947H62.4316V47.5677H65.4046V44.5947Z" fill="black"/>
<path d="M68.3792 44.5947H65.4062V47.5677H68.3792V44.5947Z" fill="black"/>
<path d="M71.3519 44.5947H68.3789V47.5677H71.3519V44.5947Z" fill="black"/>
<path d="M74.3245 44.5947H71.3516V47.5677H74.3245V44.5947Z" fill="black"/>
<path d="M86.2171 44.5947H83.2441V47.5677H86.2171V44.5947Z" fill="black"/>
<path d="M89.1898 44.5947H86.2168V47.5677H89.1898V44.5947Z" fill="black"/>
<path d="M95.1351 44.5947H92.1621V47.5677H95.1351V44.5947Z" fill="black"/>
<path d="M14.8656 47.5674H11.8926V50.5404H14.8656V47.5674Z" fill="black"/>
<path d="M17.8382 47.5674H14.8652V50.5404H17.8382V47.5674Z" fill="black"/>
<path d="M20.8109 47.5674H17.8379V50.5404H20.8109V47.5674Z" fill="black"/>
<path d="M23.7835 47.5674H20.8105V50.5404H23.7835V47.5674Z" fill="black"/>
<path d="M32.7034 47.5674H29.7305V50.5404H32.7034V47.5674Z" fill="black"/>
<path d="M41.6214 47.5674H38.6484V50.5404H41.6214V47.5674Z" fill="black"/>
<path d="M50.5413 47.5674H47.5684V50.5404H50.5413V47.5674Z" fill="black"/>
<path d="M53.514 47.5674H50.541V50.5404H53.514V47.5674Z" fill="black"/>
<path d="M59.4593 47.5674H56.4863V50.5404H59.4593V47.5674Z" fill="black"/>
<path d="M65.4046 47.5674H62.4316V50.5404H65.4046V47.5674Z" fill="black"/>
<path d="M71.3519 47.5674H68.3789V50.5404H71.3519V47.5674Z" fill="black"/>
<path d="M80.2698 47.5674H77.2969V50.5404H80.2698V47.5674Z" fill="black"/>
<path d="M86.2171 47.5674H83.2441V50.5404H86.2171V47.5674Z" fill="black"/>
<path d="M89.1898 47.5674H86.2168V50.5404H89.1898V47.5674Z" fill="black"/>
<path d="M92.1624 47.5674H89.1895V50.5404H92.1624V47.5674Z" fill="black"/>
<path d="M98.1077 47.5674H95.1348V50.5404H98.1077V47.5674Z" fill="black"/>
<path d="M14.8656 50.5405H11.8926V53.5135H14.8656V50.5405Z" fill="black"/>
<path d="M17.8382 50.5405H14.8652V53.5135H17.8382V50.5405Z" fill="black"/>
<path d="M20.8109 50.5405H17.8379V53.5135H20.8109V50.5405Z" fill="black"/>
<path d="M26.7562 50.5405H23.7832V53.5135H26.7562V50.5405Z" fill="black"/>
<path d="M35.6761 50.5405H32.7031V53.5135H35.6761V50.5405Z" fill="black"/>
<path d="M44.5941 50.5405H41.6211V53.5135H44.5941V50.5405Z" fill="black"/>
<path d="M47.5667 50.5405H44.5938V53.5135H47.5667V50.5405Z" fill="black"/>
<path d="M53.514 50.5405H50.541V53.5135H53.514V50.5405Z" fill="black"/>
<path d="M56.4866 50.5405H53.5137V53.5135H56.4866V50.5405Z" fill="black"/>
<path d="M62.432 50.5405H59.459V53.5135H62.432V50.5405Z" fill="black"/>
<path d="M71.3519 50.5405H68.3789V53.5135H71.3519V50.5405Z" fill="black"/>
<path d="M74.3245 50.5405H71.3516V53.5135H74.3245V50.5405Z" fill="black"/>
<path d="M77.2972 50.5405H74.3242V53.5135H77.2972V50.5405Z" fill="black"/>
<path d="M86.2171 50.5405H83.2441V53.5135H86.2171V50.5405Z" fill="black"/>
<path d="M92.1624 50.5405H89.1895V53.5135H92.1624V50.5405Z" fill="black"/>
<path d="M14.8656 53.5137H11.8926V56.4866H14.8656V53.5137Z" fill="black"/>
<path d="M17.8382 53.5137H14.8652V56.4866H17.8382V53.5137Z" fill="black"/>
<path d="M26.7562 53.5137H23.7832V56.4866H26.7562V53.5137Z" fill="black"/>
<path d="M32.7034 53.5137H29.7305V56.4866H32.7034V53.5137Z" fill="black"/>
<path d="M35.6761 53.5137H32.7031V56.4866H35.6761V53.5137Z" fill="black"/>
<path d="M38.6488 53.5137H35.6758V56.4866H38.6488V53.5137Z" fill="black"/>
<path d="M44.5941 53.5137H41.6211V56.4866H44.5941V53.5137Z" fill="black"/>
<path d="M50.5413 53.5137H47.5684V56.4866H50.5413V53.5137Z" fill="black"/>
<path d="M53.514 53.5137H50.541V56.4866H53.514V53.5137Z" fill="black"/>
<path d="M59.4593 53.5137H56.4863V56.4866H59.4593V53.5137Z" fill="black"/>
<path d="M62.432 53.5137H59.459V56.4866H62.432V53.5137Z" fill="black"/>
<path d="M65.4046 53.5137H62.4316V56.4866H65.4046V53.5137Z" fill="black"/>
<path d="M80.2698 53.5137H77.2969V56.4866H80.2698V53.5137Z" fill="black"/>
<path d="M92.1624 53.5137H89.1895V56.4866H92.1624V53.5137Z" fill="black"/>
<path d="M95.1351 53.5137H92.1621V56.4866H95.1351V53.5137Z" fill="black"/>
<path d="M14.8656 56.4863H11.8926V59.4593H14.8656V56.4863Z" fill="black"/>
<path d="M20.8109 56.4863H17.8379V59.4593H20.8109V56.4863Z" fill="black"/>
<path d="M23.7835 56.4863H20.8105V59.4593H23.7835V56.4863Z" fill="black"/>
<path d="M26.7562 56.4863H23.7832V59.4593H26.7562V56.4863Z" fill="black"/>
<path d="M29.7288 56.4863H26.7559V59.4593H29.7288V56.4863Z" fill="black"/>
<path d="M35.6761 56.4863H32.7031V59.4593H35.6761V56.4863Z" fill="black"/>
<path d="M38.6488 56.4863H35.6758V59.4593H38.6488V56.4863Z" fill="black"/>
<path d="M41.6214 56.4863H38.6484V59.4593H41.6214V56.4863Z" fill="black"/>
<path d="M44.5941 56.4863H41.6211V59.4593H44.5941V56.4863Z" fill="black"/>
<path d="M59.4593 56.4863H56.4863V59.4593H59.4593V56.4863Z" fill="black"/>
<path d="M65.4046 56.4863H62.4316V59.4593H65.4046V56.4863Z" fill="black"/>
<path d="M68.3792 56.4863H65.4062V59.4593H68.3792V56.4863Z" fill="black"/>
<path d="M71.3519 56.4863H68.3789V59.4593H71.3519V56.4863Z" fill="black"/>
<path d="M83.2425 56.4863H80.2695V59.4593H83.2425V56.4863Z" fill="black"/>
<path d="M86.2171 56.4863H83.2441V59.4593H86.2171V56.4863Z" fill="black"/>
<path d="M92.1624 56.4863H89.1895V59.4593H92.1624V56.4863Z" fill="black"/>
<path d="M14.8656 59.4595H11.8926V62.4324H14.8656V59.4595Z" fill="black"/>
<path d="M23.7835 59.4595H20.8105V62.4324H23.7835V59.4595Z" fill="black"/>
<path d="M29.7288 59.4595H26.7559V62.4324H29.7288V59.4595Z" fill="black"/>
<path d="M32.7034 59.4595H29.7305V62.4324H32.7034V59.4595Z" fill="black"/>
<path d="M35.6761 59.4595H32.7031V62.4324H35.6761V59.4595Z" fill="black"/>
<path d="M41.6214 59.4595H38.6484V62.4324H41.6214V59.4595Z" fill="black"/>
<path d="M44.5941 59.4595H41.6211V62.4324H44.5941V59.4595Z" fill="black"/>
<path d="M47.5667 59.4595H44.5938V62.4324H47.5667V59.4595Z" fill="black"/>
<path d="M56.4866 59.4595H53.5137V62.4324H56.4866V59.4595Z" fill="black"/>
<path d="M59.4593 59.4595H56.4863V62.4324H59.4593V59.4595Z" fill="black"/>
<path d="M74.3245 59.4595H71.3516V62.4324H74.3245V59.4595Z" fill="black"/>
<path d="M80.2698 59.4595H77.2969V62.4324H80.2698V59.4595Z" fill="black"/>
<path d="M92.1624 59.4595H89.1895V62.4324H92.1624V59.4595Z" fill="black"/>
<path d="M14.8656 62.4326H11.8926V65.4056H14.8656V62.4326Z" fill="black"/>
<path d="M20.8109 62.4326H17.8379V65.4056H20.8109V62.4326Z" fill="black"/>
<path d="M26.7562 62.4326H23.7832V65.4056H26.7562V62.4326Z" fill="black"/>
<path d="M29.7288 62.4326H26.7559V65.4056H29.7288V62.4326Z" fill="black"/>
<path d="M53.514 62.4326H50.541V65.4056H53.514V62.4326Z" fill="black"/>
<path d="M56.4866 62.4326H53.5137V65.4056H56.4866V62.4326Z" fill="black"/>
<path d="M65.4046 62.4326H62.4316V65.4056H65.4046V62.4326Z" fill="black"/>
<path d="M68.3792 62.4326H65.4062V65.4056H68.3792V62.4326Z" fill="black"/>
<path d="M71.3519 62.4326H68.3789V65.4056H71.3519V62.4326Z" fill="black"/>
<path d="M74.3245 62.4326H71.3516V65.4056H74.3245V62.4326Z" fill="black"/>
<path d="M80.2698 62.4326H77.2969V65.4056H80.2698V62.4326Z" fill="black"/>
<path d="M83.2425 62.4326H80.2695V65.4056H83.2425V62.4326Z" fill="black"/>
<path d="M86.2171 62.4326H83.2441V65.4056H86.2171V62.4326Z" fill="black"/>
<path d="M89.1898 62.4326H86.2168V65.4056H89.1898V62.4326Z" fill="black"/>
<path d="M98.1077 62.4326H95.1348V65.4056H98.1077V62.4326Z" fill="black"/>
<path d="M14.8656 65.4053H11.8926V68.3782H14.8656V65.4053Z" fill="black"/>
<path d="M17.8382 65.4053H14.8652V68.3782H17.8382V65.4053Z" fill="black"/>
<path d="M20.8109 65.4053H17.8379V68.3782H20.8109V65.4053Z" fill="black"/>
<path d="M32.7034 65.4053H29.7305V68.3782H32.7034V65.4053Z" fill="black"/>
<path d="M35.6761 65.4053H32.7031V68.3782H35.6761V65.4053Z" fill="black"/>
<path d="M41.6214 65.4053H38.6484V68.3782H41.6214V65.4053Z" fill="black"/>
<path d="M47.5667 65.4053H44.5938V68.3782H47.5667V65.4053Z" fill="black"/>
<path d="M50.5413 65.4053H47.5684V68.3782H50.5413V65.4053Z" fill="black"/>
<path d="M59.4593 65.4053H56.4863V68.3782H59.4593V65.4053Z" fill="black"/>
<path d="M68.3792 65.4053H65.4062V68.3782H68.3792V65.4053Z" fill="black"/>
<path d="M74.3245 65.4053H71.3516V68.3782H74.3245V65.4053Z" fill="black"/>
<path d="M80.2698 65.4053H77.2969V68.3782H80.2698V65.4053Z" fill="black"/>
<path d="M98.1077 65.4053H95.1348V68.3782H98.1077V65.4053Z" fill="black"/>
<path d="M14.8656 68.3784H11.8926V71.3514H14.8656V68.3784Z" fill="black"/>
<path d="M17.8382 68.3784H14.8652V71.3514H17.8382V68.3784Z" fill="black"/>
<path d="M26.7562 68.3784H23.7832V71.3514H26.7562V68.3784Z" fill="black"/>
<path d="M35.6761 68.3784H32.7031V71.3514H35.6761V68.3784Z" fill="black"/>
<path d="M44.5941 68.3784H41.6211V71.3514H44.5941V68.3784Z" fill="black"/>
<path d="M50.5413 68.3784H47.5684V71.3514H50.5413V68.3784Z" fill="black"/>
<path d="M56.4866 68.3784H53.5137V71.3514H56.4866V68.3784Z" fill="black"/>
<path d="M59.4593 68.3784H56.4863V71.3514H59.4593V68.3784Z" fill="black"/>
<path d="M62.432 68.3784H59.459V71.3514H62.432V68.3784Z" fill="black"/>
<path d="M65.4046 68.3784H62.4316V71.3514H65.4046V68.3784Z" fill="black"/>
<path d="M68.3792 68.3784H65.4062V71.3514H68.3792V68.3784Z" fill="black"/>
<path d="M74.3245 68.3784H71.3516V71.3514H74.3245V68.3784Z" fill="black"/>
<path d="M80.2698 68.3784H77.2969V71.3514H80.2698V68.3784Z" fill="black"/>
<path d="M83.2425 68.3784H80.2695V71.3514H83.2425V68.3784Z" fill="black"/>
<path d="M86.2171 68.3784H83.2441V71.3514H86.2171V68.3784Z" fill="black"/>
<path d="M89.1898 68.3784H86.2168V71.3514H89.1898V68.3784Z" fill="black"/>
<path d="M92.1624 68.3784H89.1895V71.3514H92.1624V68.3784Z" fill="black"/>
<path d="M98.1077 68.3784H95.1348V71.3514H98.1077V68.3784Z" fill="black"/>
<path d="M14.8656 71.3516H11.8926V74.3245H14.8656V71.3516Z" fill="black"/>
<path d="M17.8382 71.3516H14.8652V74.3245H17.8382V71.3516Z" fill="black"/>
<path d="M26.7562 71.3516H23.7832V74.3245H26.7562V71.3516Z" fill="black"/>
<path d="M29.7288 71.3516H26.7559V74.3245H29.7288V71.3516Z" fill="black"/>
<path d="M32.7034 71.3516H29.7305V74.3245H32.7034V71.3516Z" fill="black"/>
<path d="M35.6761 71.3516H32.7031V74.3245H35.6761V71.3516Z" fill="black"/>
<path d="M41.6214 71.3516H38.6484V74.3245H41.6214V71.3516Z" fill="black"/>
<path d="M50.5413 71.3516H47.5684V74.3245H50.5413V71.3516Z" fill="black"/>
<path d="M53.514 71.3516H50.541V74.3245H53.514V71.3516Z" fill="black"/>
<path d="M56.4866 71.3516H53.5137V74.3245H56.4866V71.3516Z" fill="black"/>
<path d="M59.4593 71.3516H56.4863V74.3245H59.4593V71.3516Z" fill="black"/>
<path d="M65.4046 71.3516H62.4316V74.3245H65.4046V71.3516Z" fill="black"/>
<path d="M71.3519 71.3516H68.3789V74.3245H71.3519V71.3516Z" fill="black"/>
<path d="M74.3245 71.3516H71.3516V74.3245H74.3245V71.3516Z" fill="black"/>
<path d="M77.2972 71.3516H74.3242V74.3245H77.2972V71.3516Z" fill="black"/>
<path d="M80.2698 71.3516H77.2969V74.3245H80.2698V71.3516Z" fill="black"/>
<path d="M83.2425 71.3516H80.2695V74.3245H83.2425V71.3516Z" fill="black"/>
<path d="M86.2171 71.3516H83.2441V74.3245H86.2171V71.3516Z" fill="black"/>
<path d="M92.1624 71.3516H89.1895V74.3245H92.1624V71.3516Z" fill="black"/>
<path d="M95.1351 71.3516H92.1621V74.3245H95.1351V71.3516Z" fill="black"/>
<path d="M98.1077 71.3516H95.1348V74.3245H98.1077V71.3516Z" fill="black"/>
<path d="M38.6488 74.3242H35.6758V77.2972H38.6488V74.3242Z" fill="black"/>
<path d="M50.5413 74.3242H47.5684V77.2972H50.5413V74.3242Z" fill="black"/>
<path d="M56.4866 74.3242H53.5137V77.2972H56.4866V74.3242Z" fill="black"/>
<path d="M62.432 74.3242H59.459V77.2972H62.432V74.3242Z" fill="black"/>
<path d="M71.3519 74.3242H68.3789V77.2972H71.3519V74.3242Z" fill="black"/>
<path d="M74.3245 74.3242H71.3516V77.2972H74.3245V74.3242Z" fill="black"/>
<path d="M86.2171 74.3242H83.2441V77.2972H86.2171V74.3242Z" fill="black"/>
<path d="M92.1624 74.3242H89.1895V77.2972H92.1624V74.3242Z" fill="black"/>
<path d="M98.1077 74.3242H95.1348V77.2972H98.1077V74.3242Z" fill="black"/>
<path d="M38.6488 77.2974H35.6758V80.2703H38.6488V77.2974Z" fill="black"/>
<path d="M41.6214 77.2974H38.6484V80.2703H41.6214V77.2974Z" fill="black"/>
<path d="M44.5941 77.2974H41.6211V80.2703H44.5941V77.2974Z" fill="black"/>
<path d="M50.5413 77.2974H47.5684V80.2703H50.5413V77.2974Z" fill="black"/>
<path d="M56.4866 77.2974H53.5137V80.2703H56.4866V77.2974Z" fill="black"/>
<path d="M59.4593 77.2974H56.4863V80.2703H59.4593V77.2974Z" fill="black"/>
<path d="M74.3245 77.2974H71.3516V80.2703H74.3245V77.2974Z" fill="black"/>
<path d="M80.2698 77.2974H77.2969V80.2703H80.2698V77.2974Z" fill="black"/>
<path d="M86.2171 77.2974H83.2441V80.2703H86.2171V77.2974Z" fill="black"/>
<path d="M89.1898 77.2974H86.2168V80.2703H89.1898V77.2974Z" fill="black"/>
<path d="M38.6488 80.2705H35.6758V83.2435H38.6488V80.2705Z" fill="black"/>
<path d="M44.5941 80.2705H41.6211V83.2435H44.5941V80.2705Z" fill="black"/>
<path d="M47.5667 80.2705H44.5938V83.2435H47.5667V80.2705Z" fill="black"/>
<path d="M56.4866 80.2705H53.5137V83.2435H56.4866V80.2705Z" fill="black"/>
<path d="M59.4593 80.2705H56.4863V83.2435H59.4593V80.2705Z" fill="black"/>
<path d="M65.4046 80.2705H62.4316V83.2435H65.4046V80.2705Z" fill="black"/>
<path d="M68.3792 80.2705H65.4062V83.2435H68.3792V80.2705Z" fill="black"/>
<path d="M71.3519 80.2705H68.3789V83.2435H71.3519V80.2705Z" fill="black"/>
<path d="M74.3245 80.2705H71.3516V83.2435H74.3245V80.2705Z" fill="black"/>
<path d="M86.2171 80.2705H83.2441V83.2435H86.2171V80.2705Z" fill="black"/>
<path d="M92.1624 80.2705H89.1895V83.2435H92.1624V80.2705Z" fill="black"/>
<path d="M38.6488 83.2432H35.6758V86.2161H38.6488V83.2432Z" fill="black"/>
<path d="M50.5413 83.2432H47.5684V86.2161H50.5413V83.2432Z" fill="black"/>
<path d="M53.514 83.2432H50.541V86.2161H53.514V83.2432Z" fill="black"/>
<path d="M56.4866 83.2432H53.5137V86.2161H56.4866V83.2432Z" fill="black"/>
<path d="M59.4593 83.2432H56.4863V86.2161H59.4593V83.2432Z" fill="black"/>
<path d="M62.432 83.2432H59.459V86.2161H62.432V83.2432Z" fill="black"/>
<path d="M65.4046 83.2432H62.4316V86.2161H65.4046V83.2432Z" fill="black"/>
<path d="M71.3519 83.2432H68.3789V86.2161H71.3519V83.2432Z" fill="black"/>
<path d="M74.3245 83.2432H71.3516V86.2161H74.3245V83.2432Z" fill="black"/>
<path d="M77.2972 83.2432H74.3242V86.2161H77.2972V83.2432Z" fill="black"/>
<path d="M80.2698 83.2432H77.2969V86.2161H80.2698V83.2432Z" fill="black"/>
<path d="M83.2425 83.2432H80.2695V86.2161H83.2425V83.2432Z" fill="black"/>
<path d="M86.2171 83.2432H83.2441V86.2161H86.2171V83.2432Z" fill="black"/>
<path d="M89.1898 83.2432H86.2168V86.2161H89.1898V83.2432Z" fill="black"/>
<path d="M95.1351 83.2432H92.1621V86.2161H95.1351V83.2432Z" fill="black"/>
<path d="M38.6488 86.2163H35.6758V89.1893H38.6488V86.2163Z" fill="black"/>
<path d="M44.5941 86.2163H41.6211V89.1893H44.5941V86.2163Z" fill="black"/>
<path d="M47.5667 86.2163H44.5938V89.1893H47.5667V86.2163Z" fill="black"/>
<path d="M50.5413 86.2163H47.5684V89.1893H50.5413V86.2163Z" fill="black"/>
<path d="M53.514 86.2163H50.541V89.1893H53.514V86.2163Z" fill="black"/>
<path d="M59.4593 86.2163H56.4863V89.1893H59.4593V86.2163Z" fill="black"/>
<path d="M62.432 86.2163H59.459V89.1893H62.432V86.2163Z" fill="black"/>
<path d="M68.3792 86.2163H65.4062V89.1893H68.3792V86.2163Z" fill="black"/>
<path d="M71.3519 86.2163H68.3789V89.1893H71.3519V86.2163Z" fill="black"/>
<path d="M80.2698 86.2163H77.2969V89.1893H80.2698V86.2163Z" fill="black"/>
<path d="M83.2425 86.2163H80.2695V89.1893H83.2425V86.2163Z" fill="black"/>
<path d="M89.1898 86.2163H86.2168V89.1893H89.1898V86.2163Z" fill="black"/>
<path d="M92.1624 86.2163H89.1895V89.1893H92.1624V86.2163Z" fill="black"/>
<path d="M95.1351 86.2163H92.1621V89.1893H95.1351V86.2163Z" fill="black"/>
<path d="M56.4866 89.189H53.5137V92.1619H56.4866V89.189Z" fill="black"/>
<path d="M62.432 89.189H59.459V92.1619H62.432V89.189Z" fill="black"/>
<path d="M65.4046 89.189H62.4316V92.1619H65.4046V89.189Z" fill="black"/>
<path d="M80.2698 89.189H77.2969V92.1619H80.2698V89.189Z" fill="black"/>
<path d="M83.2425 89.189H80.2695V92.1619H83.2425V89.189Z" fill="black"/>
<path d="M89.1898 89.189H86.2168V92.1619H89.1898V89.189Z" fill="black"/>
<path d="M92.1624 89.189H89.1895V92.1619H92.1624V89.189Z" fill="black"/>
<path d="M95.1351 89.189H92.1621V92.1619H95.1351V89.189Z" fill="black"/>
<path d="M98.1077 89.189H95.1348V92.1619H98.1077V89.189Z" fill="black"/>
<path d="M50.5413 92.1621H47.5684V95.1351H50.5413V92.1621Z" fill="black"/>
<path d="M59.4593 92.1621H56.4863V95.1351H59.4593V92.1621Z" fill="black"/>
<path d="M65.4046 92.1621H62.4316V95.1351H65.4046V92.1621Z" fill="black"/>
<path d="M68.3792 92.1621H65.4062V95.1351H68.3792V92.1621Z" fill="black"/>
<path d="M77.2972 92.1621H74.3242V95.1351H77.2972V92.1621Z" fill="black"/>
<path d="M80.2698 92.1621H77.2969V95.1351H80.2698V92.1621Z" fill="black"/>
<path d="M89.1898 92.1621H86.2168V95.1351H89.1898V92.1621Z" fill="black"/>
<path d="M95.1351 92.1621H92.1621V95.1351H95.1351V92.1621Z" fill="black"/>
<path d="M38.6488 95.1353H35.6758V98.1082H38.6488V95.1353Z" fill="black"/>
<path d="M44.5941 95.1353H41.6211V98.1082H44.5941V95.1353Z" fill="black"/>
<path d="M50.5413 95.1353H47.5684V98.1082H50.5413V95.1353Z" fill="black"/>
<path d="M53.514 95.1353H50.541V98.1082H53.514V95.1353Z" fill="black"/>
<path d="M59.4593 95.1353H56.4863V98.1082H59.4593V95.1353Z" fill="black"/>
<path d="M62.432 95.1353H59.459V98.1082H62.432V95.1353Z" fill="black"/>
<path d="M71.3519 95.1353H68.3789V98.1082H71.3519V95.1353Z" fill="black"/>
<path d="M74.3245 95.1353H71.3516V98.1082H74.3245V95.1353Z" fill="black"/>
<path d="M77.2972 95.1353H74.3242V98.1082H77.2972V95.1353Z" fill="black"/>
<path d="M80.2698 95.1353H77.2969V98.1082H80.2698V95.1353Z" fill="black"/>
<path d="M83.2425 95.1353H80.2695V98.1082H83.2425V95.1353Z" fill="black"/>
<path d="M86.2171 95.1353H83.2441V98.1082H86.2171V95.1353Z" fill="black"/>
<path d="M89.1898 95.1353H86.2168V98.1082H89.1898V95.1353Z" fill="black"/>
<path fill-rule="evenodd" clip-rule="evenodd" d="M11.8926 11.8921H32.7034V32.7029H11.8926V11.8921ZM14.8656 14.8651H29.7304V29.7299H14.8656V14.8651Z" fill="black"/>
<path fill-rule="evenodd" clip-rule="evenodd" d="M77.2969 11.8921H98.1077V32.7029H77.2969V11.8921ZM80.2698 14.8651H95.1347V29.7299H80.2698V14.8651Z" fill="black"/>
<path d="M26.7568 17.8379H17.8379V26.7568H26.7568V17.8379Z" fill="black"/>
<path d="M92.1631 17.8379H83.2441V26.7568H92.1631V17.8379Z" fill="black"/>
<path fill-rule="evenodd" clip-rule="evenodd" d="M11.8926 77.2974H32.7034V98.1082H11.8926V77.2974ZM14.8656 80.2703H29.7304V95.1352H14.8656V80.2703Z" fill="black"/>
<path d="M26.7568 83.2432H17.8379V92.1621H26.7568V83.2432Z" fill="black"/>
</g>
</g>
<defs>
<clipPath id="clip0_2342_909">
<rect width="110" height="110" fill="white"/>
</clipPath>
<clipPath id="clip1_2342_909">
<rect width="110" height="110" fill="white"/>
</clipPath>
</defs>
</svg>
