<svg width="34" height="30" viewBox="0 0 34 30" fill="none" xmlns="http://www.w3.org/2000/svg">
<path d="M16.6259 23.5755C16.8393 23.96 17.0289 24.4614 17.1945 25.0796C17.3533 25.672 17.4398 26.201 17.4541 26.6665L14.3631 27.4947C14.1428 27.0844 13.9532 26.5831 13.7945 25.9906C13.6288 25.3724 13.5423 24.8435 13.5349 24.4037L12.3758 24.7143C12.1554 24.304 11.9659 23.8027 11.8071 23.2102C11.6415 22.5921 11.555 22.0631 11.5476 21.6234L9.61571 22.141C9.82917 22.5255 10.0187 23.0269 10.1844 23.6451C10.3431 24.2375 10.4296 24.7665 10.4439 25.232L8.89845 25.6461C9.11191 26.0306 9.30146 26.5319 9.46711 27.1501C9.62585 27.7426 9.71237 28.2715 9.72667 28.737L6.63571 29.5652C6.41534 29.155 6.22579 28.6536 6.06705 28.0612C5.9014 27.443 5.81488 26.914 5.80749 26.4743L7.35297 26.0602C7.1326 25.6499 6.94305 25.1485 6.78431 24.5561C6.61867 23.9379 6.53214 23.4089 6.52475 22.9692L8.07023 22.5551C7.84987 22.1448 7.66031 21.6435 7.50157 21.051C7.33593 20.4328 7.2494 19.9039 7.24201 19.4641L5.69653 19.8783C5.47616 19.468 5.28661 18.9666 5.12787 18.3742C4.96222 17.756 4.8757 17.227 4.8683 16.7873L3.32282 17.2014C3.10246 16.7911 2.91291 16.2898 2.75417 15.6973C2.58852 15.0791 2.502 14.5502 2.4946 14.1104L5.58557 13.2822C5.79903 13.6667 5.98858 14.1681 6.15422 14.7863C6.31297 15.3787 6.39949 15.9077 6.41379 16.3732L7.95927 15.9591C8.17273 16.3436 8.36228 16.8449 8.52793 17.4631C8.68667 18.0556 8.77319 18.5845 8.78749 19.05L10.7193 18.5324C10.499 18.1221 10.3094 17.6208 10.1507 17.0283C9.98504 16.4101 9.89852 15.8812 9.89112 15.4414L11.0502 15.1308C10.8299 14.7206 10.6403 14.2192 10.4816 13.6268C10.3159 13.0086 10.2294 12.4796 10.222 12.0399L13.313 11.2117C13.5264 11.5962 13.716 12.0975 13.8816 12.7157C14.0404 13.3082 14.1269 13.8371 14.1412 14.3026L12.9821 14.6132C13.1955 14.9977 13.3851 15.4991 13.5507 16.1173C13.7095 16.7097 13.796 17.2387 13.8103 17.7042L11.8785 18.2218C12.0919 18.6063 12.2815 19.1077 12.4471 19.7259C12.6059 20.3183 12.6924 20.8473 12.7067 21.3128L14.6385 20.7951C14.852 21.1797 15.0415 21.681 15.2072 22.2992C15.3659 22.8916 15.4524 23.4206 15.4667 23.8861L16.6259 23.5755ZM29.3515 8.57058C29.5103 9.16302 29.5968 9.69198 29.6111 10.1575L27.6792 10.6751C27.8927 11.0596 28.0823 11.561 28.2479 12.1792C28.4066 12.7716 28.4932 13.3006 28.5075 13.7661L26.5756 14.2837C26.7891 14.6682 26.9786 15.1696 27.1443 15.7878C27.303 16.3802 27.3895 16.9092 27.4038 17.3747L25.472 17.8923C25.6854 18.2768 25.875 18.7782 26.0406 19.3964C26.1994 19.9888 26.2859 20.5178 26.3002 20.9833L32.0958 19.4304C32.3092 19.8149 32.4988 20.3162 32.6644 20.9344C32.8232 21.5269 32.9097 22.0558 32.924 22.5213L22.1056 25.4201C21.8852 25.0098 21.6957 24.5085 21.537 23.916C21.3713 23.2978 21.2848 22.7689 21.2774 22.3291L23.2092 21.8115C22.9889 21.4012 22.7993 20.8999 22.6406 20.3074C22.4749 19.6892 22.3884 19.1603 22.381 18.7205L24.3129 18.2029C24.0925 17.7926 23.903 17.2913 23.7442 16.6988C23.5786 16.0806 23.4921 15.5517 23.4847 15.1119L25.4165 14.5943C25.1961 14.184 25.0066 13.6827 24.8478 13.0902C24.6822 12.472 24.5957 11.9431 24.5883 11.5033L26.5201 10.9857C26.2998 10.5754 26.1102 10.0741 25.9515 9.48163C25.7858 8.86343 25.6993 8.33447 25.6919 7.89473C25.4716 7.48446 25.282 6.9831 25.1233 6.39066C24.9576 5.77247 24.8711 5.24351 24.8637 4.80377L19.4545 6.25316C19.668 6.63768 19.8575 7.13904 20.0232 7.75723C20.1819 8.34966 20.2684 8.87863 20.2827 9.34412L17.9645 9.96529C17.7441 9.55501 17.5546 9.05365 17.3958 8.46122C17.2302 7.84302 17.1437 7.31406 17.1363 6.87432L18.6818 6.46021C18.4614 6.04994 18.2719 5.54858 18.1131 4.95614C17.9475 4.33795 17.8609 3.80899 17.8535 3.36925L25.581 1.2987C25.7944 1.68322 25.984 2.18458 26.1496 2.80277C26.3084 3.3952 26.3949 3.92417 26.4092 4.38966L27.9547 3.97555C28.1681 4.36007 28.3577 4.86143 28.5233 5.47962C28.6821 6.07206 28.7686 6.60102 28.7829 7.06651C28.9963 7.45104 29.1859 7.95239 29.3515 8.57058Z" fill="white"/>
</svg>
