<svg width="72" height="25" viewBox="0 0 72 25" fill="none" xmlns="http://www.w3.org/2000/svg">
<g clip-path="url(#clip0_2342_2209)">
<mask id="mask0_2342_2209" style="mask-type:luminance" maskUnits="userSpaceOnUse" x="0" y="0" width="71" height="24">
<path d="M70.6647 0.11377H0.5V23.4721H70.6647V0.11377Z" fill="white"/>
</mask>
<g mask="url(#mask0_2342_2209)">
<path d="M21.8418 16.836C22.3563 16.836 22.8335 16.8421 23.3106 16.833C23.5222 16.8288 23.4966 16.9929 23.5212 17.1201C23.7898 18.4987 24.0564 19.8773 24.3368 21.3235C24.6772 19.8926 25.0088 18.5274 25.3197 17.1571C25.3748 16.9129 25.4535 16.8267 25.7015 16.8288C26.6509 16.835 26.6498 16.8258 26.8653 17.7745C27.1202 18.8946 27.376 20.0157 27.6347 21.1511C27.7744 21.0578 27.7528 20.9183 27.7764 20.8065C28.0303 19.6064 28.285 18.4074 28.5241 17.2042C28.5802 16.9222 28.6795 16.8011 28.9786 16.8278C29.379 16.8626 29.7854 16.836 30.2222 16.836C29.9064 18.1345 29.5995 19.3962 29.2935 20.6567C29.0977 21.4619 28.896 22.2661 28.7139 23.0743C28.6628 23.303 28.5723 23.3851 28.3451 23.3729C27.9653 23.3522 27.5825 23.3513 27.2028 23.3729C26.9657 23.3871 26.8889 23.2867 26.8378 23.063C26.6183 22.0917 26.3823 21.1234 26.1491 20.1552C26.1275 20.0649 26.155 19.9234 26.0143 19.9203C25.8726 19.9172 25.8952 20.067 25.8746 20.1521C25.6394 21.1183 25.4033 22.0856 25.1908 23.0579C25.1358 23.3112 25.0334 23.3831 24.7963 23.3718C24.3919 23.3522 23.9856 23.3615 23.5802 23.3687C23.4405 23.3708 23.353 23.341 23.3155 23.181C22.8306 21.0793 22.3405 18.9798 21.8428 16.835L21.8418 16.836Z" fill="white"/>
<path d="M24.6876 2.73884C24.6876 3.14604 24.6876 3.49786 24.6876 3.84968C24.6876 5.31027 24.6837 6.76984 24.6926 8.23044C24.6935 8.46737 24.6522 8.57816 24.3954 8.55764C24.0905 8.53303 23.7816 8.54533 23.4746 8.55456C23.2994 8.55969 23.209 8.52687 23.209 8.30737C23.2159 5.72055 23.2149 3.13271 23.209 0.54589C23.209 0.34075 23.2778 0.264849 23.4647 0.28844C23.4894 0.291516 23.5149 0.292543 23.5385 0.28844C24.3719 0.124327 24.8904 0.456655 25.3242 1.24336C26.2363 2.89372 27.3667 4.40663 28.2492 6.08878C28.3506 6.06108 28.2975 5.96672 28.2975 5.90723C28.2915 4.15328 28.2885 2.39831 28.2659 0.644357C28.262 0.352033 28.3447 0.260746 28.6182 0.284337C28.8868 0.307928 29.1593 0.306902 29.4279 0.284337C29.6679 0.263822 29.7093 0.366393 29.7083 0.592047C29.7014 3.14091 29.7005 5.68978 29.7083 8.23864C29.7083 8.48687 29.6473 8.55866 29.4043 8.55969C28.261 8.56585 28.264 8.572 27.6432 7.57912C26.8522 6.31341 26.0523 5.05384 25.2643 3.78505C25.0625 3.45991 24.8923 3.11425 24.6867 2.74089L24.6876 2.73884Z" fill="#C01C21"/>
<path d="M45.0708 4.20667C46.7907 4.98928 46.5555 7.42019 45.3139 8.14639C44.8062 8.44282 44.266 8.59257 43.6964 8.60487C42.7627 8.62539 41.8281 8.60693 40.8934 8.61923C40.6838 8.62232 40.6543 8.53103 40.6553 8.34639C40.6592 5.74419 40.6602 3.14199 40.6543 0.540814C40.6543 0.339777 40.7055 0.279261 40.9013 0.282337C41.836 0.292595 42.7706 0.285415 43.7042 0.290543C43.8626 0.290543 44.0231 0.315159 44.1795 0.346956C45.0227 0.516197 45.6868 0.935709 45.9071 1.85782C46.1344 2.80863 45.8697 3.60151 45.0718 4.20769L45.0708 4.20667ZM42.1252 6.0078C42.1252 6.35449 42.1419 6.63656 42.1203 6.91657C42.0996 7.19146 42.1675 7.30942 42.4587 7.2889C42.8493 7.26224 43.2428 7.28582 43.6354 7.28172C44.3634 7.27352 44.7993 6.82939 44.8003 6.10216C44.8012 5.38725 44.3507 4.92979 43.6344 4.91953C43.4997 4.91748 43.3649 4.91748 43.2301 4.91953C42.8758 4.92568 42.4056 4.79337 42.1999 4.98004C41.9629 5.19339 42.1635 5.69804 42.1262 6.00883L42.1252 6.0078ZM42.1252 2.57272C42.1252 2.91224 42.1281 3.19328 42.1242 3.47534C42.1222 3.61381 42.1606 3.68767 42.3111 3.68459C42.7401 3.67536 43.171 3.70407 43.5981 3.66715C44.1628 3.61791 44.4953 3.1902 44.4835 2.5994C44.4717 2.00757 44.1598 1.66703 43.5734 1.61062C43.4278 1.59626 43.2792 1.58601 43.1326 1.59524C42.807 1.61575 42.3889 1.44548 42.1812 1.66908C41.9904 1.87423 42.1498 2.30296 42.1262 2.57375L42.1252 2.57272Z" fill="white"/>
<path d="M59.4039 8.61446C58.9907 8.61446 58.5735 8.60523 58.1574 8.61856C57.9606 8.62471 57.9124 8.51087 57.8642 8.35085C57.7088 7.838 57.5337 7.33131 57.386 6.81537C57.3211 6.58767 57.2305 6.47997 56.9817 6.4851C56.2447 6.50253 55.5059 6.50048 54.7689 6.4851C54.5565 6.481 54.4679 6.55793 54.4089 6.76204C54.2554 7.28823 54.0635 7.8021 53.9199 8.33034C53.856 8.56522 53.7507 8.62984 53.5322 8.61753C53.2135 8.6001 52.8928 8.60318 52.574 8.61651C52.3526 8.62574 52.332 8.54573 52.3988 8.34777C53.2883 5.73121 54.1747 3.11362 55.0532 0.492957C55.1094 0.324742 55.1861 0.263199 55.3436 0.284739C55.3682 0.287817 55.3927 0.284739 55.4173 0.284739C55.8217 0.291919 56.3068 0.157552 56.6098 0.34423C56.9177 0.533985 56.9265 1.08786 57.0613 1.48276C57.8249 3.72699 58.5804 5.97328 59.3351 8.22058C59.3744 8.33752 59.4491 8.45137 59.4069 8.61241L59.4039 8.61446ZM55.8847 1.96894C55.5413 3.06542 55.2314 4.0542 54.9215 5.04399C54.8526 5.26246 55.0011 5.23272 55.1212 5.23375C55.6122 5.23375 56.1031 5.22041 56.5941 5.23888C56.8568 5.24913 56.902 5.17836 56.8173 4.91989C56.5074 3.97521 56.2162 3.02439 55.8847 1.96894Z" fill="white"/>
<path d="M35.0341 8.70299C32.7043 8.70299 30.8467 6.8116 30.8399 4.42889C30.833 2.0308 32.6965 0.114796 35.04 0.11377C37.3845 0.112744 39.2538 2.02055 39.2538 4.41556C39.2538 6.80646 37.3875 8.70299 35.0341 8.70299ZM33.878 7.38804C34.0531 7.53061 34.2667 7.55318 34.4742 7.59216C34.6681 7.63934 34.8638 7.65062 35.0616 7.62087C35.2662 7.63934 35.4709 7.65267 35.6647 7.55933C35.8704 7.55933 36.0573 7.49574 36.2304 7.38291C36.4302 7.33881 36.6161 7.27009 36.7371 7.08239C36.9388 7.01674 37.1041 6.90186 37.2015 6.69774C37.3944 6.57568 37.5469 6.41773 37.6088 6.18182C37.7672 6.03719 37.8597 5.85461 37.8902 5.6382C38.02 5.4546 38.0613 5.2392 38.0929 5.02072C38.1135 4.81969 38.1332 4.61762 38.1538 4.41659C38.1578 4.19298 38.144 3.97246 38.0554 3.76424C38.0574 3.5468 38.0033 3.3478 37.8823 3.17036C37.8449 2.9488 37.7436 2.76315 37.594 2.60417C37.4966 2.41134 37.4042 2.21543 37.1808 2.14671C37.0922 1.93029 36.9456 1.78977 36.7165 1.75386C36.5984 1.56001 36.4104 1.49436 36.2088 1.45539C36.0297 1.3241 35.828 1.26563 35.6126 1.25127C35.4217 1.21434 35.2318 1.16716 35.0361 1.21947C34.8196 1.12921 34.6188 1.20101 34.4191 1.2841C34.2185 1.27589 34.0374 1.33948 33.8711 1.45334C33.6536 1.5077 33.4441 1.57437 33.3113 1.78361C33.1057 1.83079 32.9729 1.97542 32.8657 2.15081C32.6836 2.27493 32.534 2.42673 32.477 2.65546C32.3176 2.78982 32.2438 2.97548 32.1888 3.17241C32.0785 3.37242 32.0156 3.58885 31.9939 3.81758C31.9762 4.01656 31.9585 4.21657 31.9408 4.41556C31.9133 4.64122 31.9133 4.86277 32.0245 5.06995C32.0245 5.28125 32.0815 5.47306 32.1947 5.64845C32.2369 5.87206 32.3235 6.07001 32.4908 6.22285C32.5656 6.42388 32.6994 6.57466 32.8617 6.70082C32.9985 6.87314 33.1372 7.04238 33.3605 7.09674C33.5002 7.2588 33.6803 7.34188 33.879 7.38701L33.878 7.38804Z" fill="#C01C21"/>
<path d="M10.7638 0.285156C11.2787 0.285156 11.6215 0.537136 11.792 1.0411C12.5929 3.4197 13.3897 5.80035 14.2004 8.17587C14.3028 8.4764 14.2772 8.58821 13.9485 8.55436C13.5728 8.51641 13.1024 8.70719 12.8417 8.47743C12.5998 8.26613 12.5702 7.78714 12.4542 7.42301C12.2436 6.76588 11.8097 6.43731 11.1525 6.43731C10.6487 6.43731 10.145 6.44551 9.64127 6.43321C9.44843 6.42911 9.36086 6.49577 9.30478 6.69169C9.15032 7.23018 8.96536 7.75944 8.804 8.29691C8.74891 8.48153 8.66626 8.56564 8.46851 8.55539C8.13794 8.53794 7.80441 8.54102 7.47384 8.55334C7.25147 8.56256 7.23279 8.47845 7.29969 8.28255C8.17828 5.68958 9.0539 3.09558 9.92461 0.499527C9.98464 0.319005 10.0801 0.268745 10.2493 0.281053C10.4205 0.294387 10.5927 0.28413 10.7648 0.28413L10.7638 0.285156ZM10.7737 1.77242C10.4903 2.93864 10.1293 3.95408 9.80852 4.98389C9.75343 5.16134 9.79868 5.2116 9.96791 5.20852C10.3103 5.20134 10.6537 5.20647 10.997 5.20647C11.5224 5.20647 11.7041 4.95073 11.5421 4.43924C11.2764 3.59407 10.9941 2.75402 10.7747 1.77344L10.7737 1.77242Z" fill="#C01C21"/>
<path d="M44.886 20.1158C44.886 19.1302 44.8968 18.1444 44.8791 17.1587C44.8742 16.8818 44.953 16.8182 45.2057 16.8305C46.1001 16.8746 46.9993 16.7588 47.8897 16.9105C49.3774 17.1639 50.3149 18.3157 50.3455 19.8912C50.37 21.1764 50.0286 22.2668 48.8913 22.9437C48.424 23.2216 47.9104 23.3519 47.3761 23.3632C46.6393 23.3786 45.9023 23.357 45.1654 23.3735C44.9332 23.3786 44.8781 23.3057 44.8811 23.0729C44.8929 22.0872 44.886 21.1016 44.886 20.1158ZM46.4326 20.1137V21.3046C46.4326 21.9898 46.4326 21.9928 47.0918 21.9806C47.7569 21.9683 48.299 21.716 48.5686 21.0452C48.8048 20.4585 48.8067 19.8471 48.603 19.246C48.4309 18.7353 48.0747 18.4275 47.5759 18.2921C47.2877 18.2141 46.9914 18.2295 46.6973 18.2152C46.4848 18.205 46.4228 18.286 46.4277 18.5014C46.4395 19.0389 46.4316 19.5764 46.4316 20.1148L46.4326 20.1137Z" fill="white"/>
<path d="M68.4857 0.14992C68.9412 0.158126 69.6507 0.361215 70.2862 0.827909C70.4652 0.960224 70.5342 1.07305 70.3974 1.2946C70.2184 1.58386 70.1435 2.02285 69.8995 2.16644C69.6546 2.31005 69.3939 1.88643 69.1027 1.77668C68.6304 1.59924 68.1631 1.46692 67.6652 1.62795C67.2884 1.75001 67.0089 1.98695 66.9441 2.4157C66.8791 2.84854 67.127 3.11009 67.4449 3.31934C67.8305 3.57371 68.2674 3.71628 68.6766 3.91835C68.9974 4.0763 69.325 4.22708 69.626 4.41991C70.3541 4.88866 70.7181 5.56049 70.6581 6.47644C70.5971 7.39547 70.1622 8.04474 69.3909 8.44682C68.2398 9.04788 66.3489 8.70426 65.426 7.75858C65.3158 7.64574 65.2922 7.56984 65.3886 7.43957C65.5755 7.1852 65.7565 6.92672 65.9268 6.66004C66.033 6.49286 66.1157 6.48157 66.2701 6.61388C66.6755 6.95852 67.1359 7.19546 67.6554 7.29495C67.9879 7.35855 68.3165 7.3606 68.6333 7.21803C69.2896 6.92262 69.3998 6.14104 68.8488 5.66819C68.532 5.39638 68.1523 5.24047 67.7813 5.07123C67.2982 4.8507 66.8171 4.63019 66.3744 4.32145C65.0285 3.38395 65.2646 1.4864 66.398 0.678156C66.8969 0.323264 67.4567 0.147869 68.4857 0.14992Z" fill="white"/>
<path d="M47.264 4.42374C47.264 3.15597 47.2719 1.88718 47.2581 0.619417C47.2552 0.347606 47.3299 0.277858 47.5857 0.27991C48.9621 0.292217 50.3376 0.295295 51.714 0.278884C51.9983 0.275807 52.0584 0.366069 52.0554 0.646084C52.0436 1.58973 52.0554 1.58973 51.1601 1.58973C50.4478 1.58973 49.7345 1.59794 49.0222 1.5846C48.8008 1.58049 48.7212 1.64307 48.729 1.88411C48.7457 2.40824 48.7457 2.93442 48.729 3.45959C48.7221 3.69447 48.7841 3.76729 49.0153 3.76216C49.7158 3.74678 50.4163 3.76729 51.1158 3.75088C51.3608 3.74473 51.4237 3.82371 51.4237 4.07397C51.4267 5.08224 51.4355 5.08224 50.4851 5.08224C50.006 5.08224 49.5259 5.09866 49.0478 5.07608C48.7782 5.06275 48.7182 5.16327 48.728 5.4238C48.7467 5.93562 48.7457 6.44848 48.728 6.9603C48.7202 7.20852 48.7831 7.29263 49.033 7.28647C49.7571 7.26904 50.4832 7.29263 51.2074 7.27417C51.4878 7.26699 51.5055 7.35314 51.4228 7.60034C51.0844 8.61168 51.0903 8.61373 50.0473 8.61373C49.2612 8.61373 48.4742 8.59835 47.6881 8.62091C47.3644 8.63015 47.2473 8.55937 47.2542 8.18807C47.2788 6.93363 47.264 5.6792 47.264 4.42374Z" fill="white"/>
<path d="M43.2795 23.3677C42.7246 23.3677 42.2582 23.3563 41.7929 23.3728C41.5991 23.38 41.5076 23.2938 41.4268 23.1298C41.1415 22.5492 40.8316 21.9819 40.5621 21.3942C40.3909 21.0219 40.0938 21.1717 39.8576 21.1871C39.6244 21.2025 39.7474 21.4558 39.7435 21.5983C39.7278 22.0969 39.7268 22.5974 39.7415 23.0958C39.7484 23.3195 39.6737 23.3821 39.469 23.3718C39.1503 23.3563 38.8294 23.3502 38.5117 23.3728C38.2539 23.3913 38.1812 23.3051 38.1831 23.0333C38.1959 21.4465 38.1831 19.8588 38.192 18.271C38.1949 17.8022 38.1399 17.3304 38.2283 16.8627C38.6809 16.8534 39.1326 16.835 39.5851 16.8371C40.1125 16.8391 40.6418 16.7991 41.1661 16.8811C41.9306 16.9991 42.4649 17.4268 42.6665 18.2146C42.8869 19.0771 42.7551 19.8772 42.0821 20.4916C41.8972 20.6608 41.8716 20.7501 41.9965 20.9727C42.4285 21.7419 42.8329 22.5276 43.2795 23.3677ZM39.7366 18.9858C39.7366 19.8249 39.8802 19.949 40.6379 19.7562C40.9596 19.6741 41.1435 19.4557 41.181 19.1121C41.2449 18.5212 40.9812 18.2546 40.3082 18.2197C39.9271 18.2005 39.7366 18.4299 39.7366 18.9079V18.9858Z" fill="white"/>
<path d="M6.89758 6.44447C6.69883 7.03424 6.49715 7.623 6.3053 8.21483C6.25906 8.35637 6.16461 8.41688 6.04458 8.45689C4.02964 9.13693 1.57 8.37792 0.751427 5.9111C-0.0386093 3.5325 1.09283 1.02569 3.30946 0.337441C4.72031 -0.100534 6.05343 0.125121 7.26751 1.02671C7.48297 1.18672 7.5302 1.32314 7.359 1.55289C7.17896 1.79496 7.08549 2.17652 6.85822 2.2914C6.60242 2.42064 6.37417 2.04523 6.12329 1.91189C4.7577 1.18775 3.21992 1.50776 2.47121 2.69757C1.44209 4.33357 2.16917 7.11733 4.48418 7.2917C5.22403 7.34708 5.88716 7.09578 6.48928 6.65884C6.60833 6.57268 6.7254 6.48139 6.84347 6.39318C6.86117 6.41061 6.87888 6.42703 6.89758 6.44447Z" fill="#C01C21"/>
<path d="M14.6785 6.55761C15.3169 7.01302 15.8964 7.30739 16.5822 7.27868C16.8872 7.26534 17.1667 7.1843 17.3889 6.9566C17.7392 6.59761 17.7127 6.01194 17.3319 5.66319C17.0505 5.40574 16.7101 5.25496 16.3727 5.09906C15.9457 4.90212 15.5138 4.72057 15.1094 4.47441C14.3154 3.9913 13.8126 3.32254 13.9209 2.31735C14.033 1.27729 14.6312 0.613666 15.5629 0.306982C16.657 -0.0530399 17.698 0.128509 18.6661 0.773675C18.8854 0.920351 18.9848 1.05882 18.8077 1.32345C18.661 1.54192 18.55 1.78912 18.4417 2.03324C18.359 2.21786 18.2882 2.24659 18.12 2.11529C17.7215 1.80245 17.2699 1.60552 16.7682 1.55013C16.5192 1.52244 16.2752 1.54295 16.042 1.63629C15.6849 1.77988 15.4321 2.03221 15.3908 2.44352C15.3523 2.82097 15.5688 3.06715 15.8492 3.25997C16.2103 3.50819 16.6167 3.66 17.0112 3.8354C17.4066 4.01079 17.7992 4.19234 18.1544 4.44979C19.4541 5.39036 19.4137 7.38945 18.0658 8.25821C17.264 8.77518 16.3904 8.7803 15.5 8.569C15.3947 8.54438 15.3297 8.49207 15.2924 8.3813C15.1025 7.80485 14.9057 7.23046 14.6785 6.55761Z" fill="#C01C21"/>
<path d="M36.6992 23.368C36.2387 23.368 35.7743 23.3659 35.31 23.37C35.2116 23.37 35.1456 23.3433 35.122 23.2366C35.1112 23.1874 35.0915 23.1402 35.0768 23.091C34.9735 22.7371 34.9685 22.2601 34.7412 22.0612C34.4944 21.8458 34.0358 22.0038 33.6699 22.0006C32.8435 21.9924 32.8484 21.9996 32.6171 22.8244C32.4283 23.4971 32.5729 23.3515 31.9107 23.368C31.6529 23.3741 31.3942 23.3566 31.1374 23.3731C30.9082 23.3874 30.8984 23.292 30.9603 23.1012C31.6166 21.0898 32.2718 19.0784 32.9182 17.0639C32.9763 16.8814 33.0638 16.8127 33.2359 16.8373C33.2478 16.8393 33.2606 16.8373 33.2724 16.8373C33.7141 16.8425 34.2474 16.6896 34.571 16.8957C34.8958 17.1019 34.9076 17.7071 35.0502 18.1379C35.5806 19.7452 36.099 21.3575 36.6204 22.9679C36.6588 23.0868 36.7257 23.2007 36.6992 23.368ZM34.394 20.6713C34.2041 19.9698 34.0201 19.2929 33.8371 18.6149C33.6778 18.9544 33.5951 19.2836 33.5194 19.6138C33.4377 19.9677 33.2724 20.299 33.2626 20.6713H34.394Z" fill="white"/>
<path d="M18.2686 16.8358C18.8025 16.8358 19.1556 17.1021 19.3281 17.6348C19.9165 19.4369 20.5019 21.2401 21.101 23.0381C21.1965 23.3233 21.1344 23.389 20.8609 23.3726C20.5176 23.352 20.1722 23.3541 19.8289 23.3726C19.642 23.3829 19.5613 23.3039 19.5269 23.1336C19.5239 23.1213 19.521 23.1089 19.5171 23.0966C19.4078 22.7345 19.4275 22.2238 19.1589 22.0484C18.8923 21.874 18.4456 21.9971 18.0776 21.9961C17.5535 21.9947 17.2191 22.2587 17.0741 22.7879C16.9685 23.1736 16.7284 23.3664 16.354 23.3664C16.0962 23.3664 15.8374 23.3541 15.5796 23.3705C15.3544 23.3848 15.3376 23.2956 15.4016 23.1008C16.0608 21.0904 16.7169 19.079 17.3653 17.0655C17.4225 16.8891 17.5001 16.8173 17.6782 16.8307C17.874 16.8451 18.0707 16.8337 18.2676 16.8337L18.2686 16.8358ZM17.6742 20.675H18.8294C18.67 20.0606 18.5174 19.4698 18.361 18.88C18.3433 18.8144 18.3659 18.7097 18.2646 18.7005C18.1613 18.6913 18.1613 18.7928 18.1436 18.8605C17.9891 19.4513 17.8376 20.0432 17.6742 20.675Z" fill="white"/>
<path d="M65.1628 0.344056C64.96 0.764593 64.8568 1.28565 64.5499 1.52566C64.2526 1.75747 63.7441 1.56669 63.3299 1.59336C62.9668 1.61695 62.4985 1.42719 62.2702 1.67747C62.0617 1.90723 62.2132 2.38622 62.2122 2.75547C62.2063 4.58738 62.2043 6.41928 62.2152 8.25118C62.2171 8.5271 62.1649 8.65531 61.8737 8.61942C61.5116 8.57531 61.0414 8.77839 60.8121 8.53736C60.6016 8.31478 60.7551 7.83065 60.7541 7.46242C60.7482 5.63052 60.7443 3.79861 60.758 1.96671C60.76 1.66208 60.6812 1.57387 60.39 1.58516C59.7761 1.60874 59.1612 1.58516 58.5473 1.59644C58.3604 1.59951 58.2531 1.54721 58.199 1.34924C58.1321 1.10307 58.0524 0.858957 57.9521 0.626123C57.8409 0.368672 57.8704 0.276359 58.1705 0.282513C59.0432 0.29995 59.9159 0.288668 60.7875 0.288668C62.1148 0.288668 63.4419 0.287642 64.7692 0.290719C64.8883 0.290719 65.0142 0.254819 65.1608 0.346106L65.1628 0.344056Z" fill="white"/>
<path d="M53.9925 23.468C53.1483 23.4763 52.4724 23.2189 51.8673 22.7316C51.704 22.5993 51.6735 22.4854 51.8142 22.3265C51.8388 22.2988 51.8584 22.2649 51.8791 22.2331C52.0602 21.9593 52.1871 21.5787 52.437 21.4382C52.7292 21.2741 52.9427 21.7254 53.2378 21.8167C53.5684 21.9182 53.8862 22.0608 54.2404 21.9552C54.4303 21.8988 54.5759 21.7879 54.6172 21.5777C54.6615 21.35 54.5277 21.2095 54.3564 21.1192C54.0731 20.9684 53.7819 20.833 53.4907 20.6986C53.1651 20.5479 52.8403 20.3971 52.5521 20.1735C51.5259 19.3755 51.5948 17.8021 52.6878 17.1005C53.5547 16.5436 55.061 16.6441 55.8657 17.2974C56.0261 17.4277 56.0468 17.5364 55.9494 17.7139C55.7959 17.9908 55.6513 18.2739 55.5234 18.5642C55.4416 18.7488 55.3719 18.7837 55.2056 18.6513C54.9282 18.4318 54.6073 18.2985 54.2621 18.2391C54.0407 18.2011 53.8184 18.2 53.6147 18.3181C53.3136 18.4914 53.29 18.8093 53.5606 19.0309C53.7367 19.1755 53.9462 19.2534 54.1518 19.3396C54.5503 19.5078 54.9537 19.6627 55.3196 19.9027C55.9395 20.3089 56.2415 20.8843 56.1688 21.6485C56.0999 22.3839 55.7279 22.91 55.0974 23.2373C54.7254 23.4301 54.3269 23.4896 53.9915 23.4691L53.9925 23.468Z" fill="white"/>
<path d="M21.8069 4.38444C21.8069 5.65118 21.8 6.91895 21.8128 8.18569C21.8158 8.4575 21.7706 8.58674 21.4764 8.55699C21.197 8.52828 20.9116 8.53648 20.6302 8.55494C20.402 8.57033 20.336 8.48622 20.34 8.25134C20.3527 7.45847 20.3449 6.66458 20.3449 5.87068C20.3449 4.14238 20.3518 2.4151 20.338 0.68679C20.335 0.379079 20.3941 0.243687 20.7148 0.277535C20.9825 0.306254 21.255 0.29805 21.5246 0.279587C21.7529 0.264201 21.8158 0.345231 21.8138 0.582168C21.803 1.84891 21.8089 3.11667 21.8089 4.38341L21.8069 4.38444Z" fill="#C01C21"/>
<path d="M20.4137 12.6276C20.3025 12.9487 20.1765 13.2656 20.085 13.5927C20.0142 13.8461 19.8351 13.7928 19.6747 13.7866C19.5085 13.7795 19.3068 13.8739 19.2261 13.5938C19.1297 13.2553 18.9988 12.9281 18.8158 12.606C18.7844 13.0461 18.7223 13.4881 18.7312 13.9271C18.7392 14.2984 18.5895 14.3415 18.2826 14.3497C17.9471 14.359 17.8723 14.2616 17.9088 13.921C18.0012 13.044 18.0632 12.164 18.1163 11.2839C18.1311 11.0347 18.2098 10.9577 18.4449 10.97C19.1681 11.0059 18.9683 10.8326 19.2173 11.5454C19.357 11.9455 19.4868 12.3496 19.6551 12.8532C19.8529 12.2532 20.0339 11.7598 20.1775 11.2552C20.3221 10.7454 20.7019 11.0316 20.9725 10.9844C21.2598 10.9342 21.1722 11.2131 21.185 11.3629C21.2617 12.242 21.3266 13.122 21.3926 14.0009C21.4044 14.1549 21.4752 14.3938 21.2056 14.3261C20.9981 14.2738 20.6271 14.5918 20.5937 14.0728C20.5632 13.5908 20.5278 13.1097 20.4943 12.6286H20.4127L20.4137 12.6276Z" fill="white"/>
<path d="M69.8267 19.3047C69.8188 19.6831 69.6919 20.0062 69.4528 20.2821C69.1301 20.6545 68.7405 20.9417 68.3509 21.2309C68.2092 21.3355 68.0931 21.3304 67.9524 21.2268C67.5824 20.9529 67.2135 20.6791 66.8996 20.3345C66.6064 20.0124 66.4677 19.6318 66.4983 19.1836C66.5494 18.4236 67.3454 17.9938 67.9612 18.4112C68.1029 18.5077 68.1787 18.5426 68.3322 18.4256C68.648 18.1866 69.0051 18.2031 69.3416 18.3867C69.6909 18.5774 69.8198 18.9138 69.8286 19.3047H69.8267Z" fill="white"/>
<path d="M13.0953 13.3951C13.0953 13.5612 13.0953 13.7275 13.0953 13.8936C13.0953 14.3265 12.873 14.4957 12.4844 14.3018C12.3407 14.23 12.2561 14.2392 12.1282 14.2854C11.5044 14.5141 10.9308 14.4074 10.4665 13.9151C9.96273 13.3808 9.87024 12.7222 10.0985 12.0299C10.3199 11.3601 10.8108 11.0073 11.474 10.9242C11.897 10.8708 12.3073 10.9457 12.6821 11.1693C12.8159 11.2483 13.0127 11.3365 12.8277 11.5355C12.6929 11.6791 12.7274 12.0873 12.3211 11.8535C11.6127 11.4463 10.9053 11.7786 10.8374 12.5171C10.8029 12.8955 10.9122 13.232 11.225 13.4566C11.5369 13.6802 11.8705 13.669 12.203 13.4956C12.2916 13.4495 12.384 13.4002 12.3751 13.2741C12.3633 13.114 12.2423 13.153 12.1528 13.153C11.7966 13.152 11.9688 12.8699 11.9354 12.7038C11.899 12.5222 11.9599 12.436 12.1666 12.4258C13.0972 12.3787 13.0972 12.3715 13.0972 13.3962L13.0953 13.3951Z" fill="white"/>
<path d="M48.4902 10.9141C49.4573 10.9223 50.1747 11.6752 50.1578 12.665C50.1411 13.661 49.419 14.3975 48.4597 14.3964C47.4847 14.3943 46.7734 13.6394 46.7793 12.6137C46.7852 11.6198 47.5044 10.9059 48.4902 10.9141ZM49.3167 12.6332C49.3147 12.0988 48.938 11.6855 48.4578 11.6896C47.9708 11.6936 47.6107 12.1019 47.6146 12.6466C47.6186 13.1892 47.9836 13.6138 48.4519 13.62C48.934 13.6272 49.3196 13.1871 49.3167 12.6332Z" fill="white"/>
<path d="M29.4573 12.6329C29.4573 12.159 29.4641 11.6851 29.4533 11.2123C29.4494 11.0308 29.5006 10.964 29.6797 10.9712C30.084 10.9876 30.4914 10.961 30.8938 10.9958C31.7231 11.0656 32.2446 11.6872 32.2692 12.598C32.2938 13.5047 31.8038 14.1899 30.996 14.2986C30.5484 14.3591 30.0889 14.3232 29.6354 14.3407C29.4445 14.3478 29.4543 14.2268 29.4543 14.0924C29.4563 13.6063 29.4543 13.1201 29.4543 12.6329H29.4573ZM30.2631 12.6524C30.2631 12.9088 30.267 13.1641 30.2621 13.4206C30.2591 13.5611 30.3034 13.6155 30.45 13.6257C31.0079 13.6667 31.3905 13.3283 31.4369 12.7344C31.4831 12.1343 31.1614 11.7436 30.6045 11.6872C30.329 11.6595 30.2257 11.7456 30.2591 12.039C30.2817 12.241 30.2621 12.4482 30.2631 12.6524Z" fill="white"/>
<path d="M60.815 14.3381C60.5218 14.3381 60.2807 14.3309 60.0407 14.3412C59.8951 14.3474 59.8576 14.2428 59.8075 14.1412C59.6767 13.8807 59.5419 13.6233 59.4149 13.3607C59.3491 13.2232 59.2457 13.1945 59.1119 13.2088C58.9319 13.2283 58.9948 13.3709 58.988 13.4714C58.9791 13.6119 58.9673 13.7556 58.9889 13.8929C59.0489 14.2643 58.9131 14.3649 58.558 14.3535C58.256 14.3433 58.1664 14.2715 58.1743 13.9494C58.1969 13.0673 58.193 12.1852 58.1753 11.3031C58.1694 11.0261 58.254 10.9543 58.5059 10.9697C58.8483 10.9913 59.1927 10.9728 59.536 10.9779C59.9482 10.9841 60.2876 11.14 60.45 11.5564C60.6182 11.9882 60.5966 12.4303 60.2728 12.7708C60.0968 12.9555 60.1292 13.0693 60.2335 13.2509C60.4263 13.5874 60.6015 13.935 60.8159 14.3391L60.815 14.3381ZM59.231 11.6878C59.1001 11.6692 58.925 11.6878 58.9939 11.9329C59.0469 12.1195 58.7774 12.4601 59.2084 12.4837C59.4651 12.498 59.6826 12.4385 59.713 12.1195C59.7446 11.7903 59.5379 11.7051 59.231 11.6867V11.6878Z" fill="white"/>
<path d="M4.00411 20.9847C3.57515 21.0451 3.18752 20.9847 2.9504 20.5507C2.74576 20.1753 2.83234 19.6225 3.15111 19.2277C3.44726 18.8615 3.82604 18.5979 4.19892 18.327C4.29238 18.2594 4.37306 18.2583 4.46751 18.327C4.88073 18.6266 5.31166 18.9107 5.60681 19.3477C6.04267 19.9938 5.82818 20.8021 5.18671 20.9785C5.00568 21.0288 4.82366 20.999 4.64263 20.9724C4.60426 21.3631 4.57081 21.3734 4.19793 21.3559C3.89196 21.3416 4.09955 21.1467 4.06905 21.0369C4.06413 21.0052 4.05823 20.9733 4.0533 20.9416C4.03756 20.957 4.02182 20.9713 4.0051 20.9867L4.00411 20.9847Z" fill="white"/>
<path d="M62.5356 20.9608C62.4924 21.0768 62.6753 21.2481 62.5277 21.2953C62.3507 21.3517 62.1224 21.3578 61.9552 21.287C61.8194 21.2296 62.0151 21.043 61.963 20.8973C61.8617 20.8091 61.7653 20.923 61.664 20.9332C61.2596 20.9722 60.9153 20.7527 60.809 20.3711C60.6929 19.9557 60.8493 19.5537 61.236 19.3895C61.4278 19.3084 61.4761 19.2161 61.483 19.0069C61.4977 18.5772 61.8263 18.2715 62.2277 18.2592C62.6399 18.2459 62.9754 18.5567 63.0246 18.9987C63.0404 19.1383 62.9843 19.2746 63.1909 19.3598C63.6405 19.5454 63.8167 19.9424 63.6986 20.368C63.5844 20.7793 63.2165 20.9866 62.7324 20.9127C62.696 20.9076 62.6606 20.8973 62.6252 20.8891C62.5927 20.8562 62.5533 20.8317 62.5189 20.8748C62.5081 20.8891 62.5287 20.9312 62.5356 20.9608Z" fill="white"/>
<path d="M16.5075 14.3385C16.2538 14.4061 16.0776 14.2933 16.0462 13.9692C16.0196 13.6984 15.8779 13.5958 15.6211 13.6348C15.5129 13.6512 15.3987 13.6512 15.2896 13.6348C15.0525 13.5989 14.9265 13.6922 14.8784 13.9394C14.8507 14.0799 14.8646 14.2902 14.7022 14.322C14.4887 14.3641 14.2614 14.3425 14.0421 14.3231C13.9299 14.3138 13.9781 14.2061 13.9997 14.1405C14.3284 13.1363 14.6609 12.1342 14.9855 11.129C15.025 11.008 15.0849 10.9823 15.1961 10.971C15.8543 10.9023 15.8691 10.9054 16.0825 11.5537C16.3413 12.3413 16.5951 13.1302 16.849 13.92C16.9838 14.3374 16.9818 14.3385 16.5075 14.3385ZM15.4696 11.8613C15.3732 12.2091 15.2965 12.4871 15.2207 12.765C15.202 12.8348 15.1548 12.9312 15.2649 12.9466C15.3968 12.965 15.5345 12.9629 15.6654 12.9424C15.7726 12.925 15.7284 12.8296 15.7097 12.7588C15.6378 12.4901 15.5661 12.2204 15.4696 11.8613Z" fill="white"/>
<path d="M22.7225 12.6222C22.7225 12.1739 22.7333 11.7258 22.7176 11.2775C22.7097 11.0499 22.7608 10.9596 22.999 10.9678C23.5018 10.9862 24.0064 10.9924 24.5092 10.9667C24.826 10.9503 24.7571 11.1555 24.7601 11.3349C24.763 11.5247 24.8083 11.733 24.4974 11.6939C24.2671 11.6653 24.031 11.6991 23.7979 11.6858C23.5971 11.6734 23.5106 11.733 23.5155 11.9617C23.5194 12.175 23.5489 12.3125 23.7949 12.2806C23.8913 12.2683 23.9907 12.2787 24.0891 12.2787C24.5524 12.2787 24.5426 12.2787 24.521 12.7669C24.5131 12.9597 24.4412 13.011 24.276 12.9997C24.1412 12.9905 24.0054 13.0059 23.8706 12.9956C23.6464 12.9782 23.5096 13.0038 23.5096 13.3135C23.5096 13.6294 23.6601 13.6325 23.8755 13.6213C24.0714 13.611 24.2711 13.6387 24.4649 13.6141C24.7552 13.5772 24.8319 13.6869 24.8338 13.9885C24.8358 14.2849 24.7552 14.3547 24.4846 14.3423C23.9946 14.3188 23.5018 14.3259 23.0108 14.3403C22.7893 14.3464 22.7078 14.2859 22.7176 14.0408C22.7363 13.5679 22.7235 13.093 22.7235 12.6201L22.7225 12.6222Z" fill="white"/>
<path d="M40.5121 12.6584C40.5121 12.1845 40.52 11.7106 40.5082 11.2367C40.5033 11.0459 40.5416 10.9639 40.7473 10.97C41.2629 10.9854 41.7793 10.9865 42.2949 10.97C42.591 10.9608 42.5212 11.1649 42.5212 11.3301C42.5212 11.4962 42.5861 11.7106 42.2929 11.6931C42.0597 11.6788 41.8247 11.7064 41.5934 11.6859C41.3573 11.6644 41.3081 11.7649 41.3052 11.9916C41.3012 12.2399 41.3947 12.3086 41.6082 12.2819C41.6928 12.2716 41.7803 12.2798 41.8659 12.2798C42.3037 12.2798 42.3589 12.3568 42.289 12.8194C42.2703 12.9455 42.2241 13.002 42.1041 12.9999C41.9565 12.9969 41.8089 13.0091 41.6623 12.9979C41.438 12.9794 41.3032 13.004 41.3022 13.3117C41.3022 13.6195 41.435 13.641 41.6594 13.6246C41.8424 13.6112 42.0273 13.6215 42.2123 13.6215C42.5576 13.6225 42.7317 13.9138 42.591 14.2441C42.5429 14.3559 42.4552 14.3374 42.3746 14.3374C41.8217 14.3395 41.2688 14.3302 40.7159 14.3425C40.5082 14.3476 40.5092 14.2339 40.5112 14.0799C40.5161 13.606 40.5121 13.1323 40.5121 12.6584Z" fill="white"/>
<path d="M51.3432 12.6347C51.3432 12.1608 51.35 11.688 51.3402 11.2141C51.3363 11.0336 51.3865 10.9649 51.5675 10.97C51.9601 10.9823 52.3536 10.9638 52.7461 10.9782C53.3552 11.0008 53.736 11.4459 53.7409 12.1167C53.7458 12.7906 53.3729 13.2501 52.7796 13.3004C52.1637 13.3527 52.1381 13.3547 52.1696 13.9814C52.1893 14.3661 51.9994 14.3404 51.7495 14.3435C51.4917 14.3466 51.3048 14.3548 51.3353 13.9774C51.3717 13.5322 51.3432 13.0819 51.3432 12.6347ZM52.4166 11.692C52.147 11.6172 52.1185 11.8244 52.1676 12.0224C52.2169 12.2172 51.9444 12.5814 52.4107 12.5834C52.751 12.5844 52.9233 12.4388 52.9174 12.1311C52.9115 11.809 52.7363 11.6778 52.4166 11.692Z" fill="white"/>
<path d="M54.8588 12.6504C54.8588 12.1765 54.8686 11.7016 54.8539 11.2287C54.848 11.0216 54.9178 10.9682 55.1057 10.9723C55.6212 10.9836 56.1387 10.9908 56.6543 10.9703C56.9298 10.959 56.915 11.122 56.9032 11.3088C56.8914 11.4831 56.9799 11.718 56.6592 11.6954C56.4024 11.677 56.1427 11.7036 55.8849 11.6882C55.6577 11.6749 55.6597 11.8154 55.6636 11.9816C55.6675 12.1365 55.6369 12.3037 55.8741 12.2832C55.9961 12.273 56.1201 12.2811 56.2431 12.2811C56.6366 12.2811 56.7635 12.4729 56.6504 12.8709C56.617 12.9868 56.549 13.0002 56.4585 13.0002C56.3109 13.0002 56.1633 13.0093 56.0157 12.9991C55.7954 12.9837 55.6538 13.0002 55.6538 13.311C55.6538 13.6155 55.7856 13.6432 56.0108 13.6258C56.182 13.6125 56.3552 13.6227 56.5274 13.6237C56.9947 13.6237 56.9898 13.6269 56.9652 14.1162C56.9573 14.2751 56.9209 14.3459 56.7557 14.3438C56.1899 14.3366 55.6251 14.3366 55.0594 14.3438C54.8932 14.3459 54.8548 14.273 54.8568 14.1141C54.8647 13.6269 54.8598 13.1407 54.8598 12.6535L54.8588 12.6504Z" fill="white"/>
<path d="M34.4452 14.3379C34.1648 14.3051 33.7103 14.4938 33.5155 14.2631C33.3482 14.0651 33.4663 13.6035 33.4653 13.2579C33.4624 12.6046 33.4742 11.9511 33.4594 11.2978C33.4545 11.0598 33.4997 10.9583 33.7556 10.9685C34.2584 10.9901 34.764 10.9921 35.2668 10.9685C35.5472 10.9552 35.5265 11.1223 35.5118 11.3029C35.498 11.4681 35.6111 11.7162 35.2805 11.6937C35.0355 11.6773 34.7876 11.709 34.5437 11.6855C34.3016 11.6629 34.2672 11.7706 34.2613 11.9921C34.2543 12.2374 34.3321 12.3132 34.5535 12.2824C34.6626 12.267 34.7768 12.2957 34.884 12.2773C35.1998 12.223 35.2815 12.3614 35.2638 12.6763C35.2501 12.9153 35.2087 13.0404 34.9539 13.0014C34.8457 12.9851 34.7325 13.0045 34.6223 12.9974C34.4128 12.984 34.2613 12.9758 34.2554 13.2978C34.2494 13.6374 34.4079 13.6354 34.6341 13.6221C34.8182 13.6118 35.0031 13.62 35.187 13.62C35.5344 13.621 35.7036 13.9031 35.5678 14.2405C35.5206 14.3565 35.433 14.3339 35.3533 14.3349C35.0709 14.339 34.7876 14.3359 34.4452 14.3359V14.3379Z" fill="white"/>
<path d="M37.9493 13.2039C38.1452 12.5526 38.3164 11.9874 38.4856 11.4223C38.6056 11.0212 39.0031 10.8263 39.3819 10.974C39.4931 11.0171 39.4566 11.0797 39.432 11.1514C39.0897 12.1638 38.7551 13.1782 38.4 14.1855C38.2918 14.4911 38.0134 14.2942 37.8155 14.3311C37.6827 14.3558 37.5263 14.3835 37.4565 14.1712C37.1259 13.1659 36.7835 12.1649 36.446 11.1628C36.4273 11.1064 36.3841 11.0468 36.447 10.9915C36.6212 10.8386 37.2734 11.0335 37.3404 11.2602C37.5076 11.8222 37.6719 12.3865 37.8392 12.9485C37.856 13.0039 37.8854 13.0562 37.9493 13.2039Z" fill="white"/>
<path d="M10.1787 21.3222C10.1295 21.2637 10.0881 21.2165 10.0488 21.1683C9.72412 20.7693 9.40535 20.3651 9.07281 19.9744C8.96163 19.8441 8.95081 19.7559 9.06591 19.6216C9.39944 19.2307 9.72608 18.8327 10.0439 18.4276C10.159 18.28 10.2338 18.2728 10.3508 18.4224C10.6686 18.8276 10.9982 19.2225 11.3239 19.6205C11.3957 19.7087 11.4774 19.7847 11.3721 19.9128C11.012 20.3478 10.6588 20.7877 10.3007 21.2247C10.2711 21.2607 10.2278 21.2842 10.1796 21.3232L10.1787 21.3222Z" fill="white"/>
<path d="M43.8026 12.6561C43.8026 12.1955 43.8154 11.7339 43.7977 11.2734C43.7888 11.0386 43.8527 10.938 44.082 10.9729C44.142 10.9821 44.206 10.9821 44.2659 10.9729C44.5267 10.9298 44.628 11.0077 44.6153 11.3145C44.5877 11.9657 44.6241 12.6211 44.5995 13.2725C44.5887 13.572 44.6831 13.654 44.9507 13.6243C45.1456 13.6027 45.3433 13.6192 45.5401 13.6202C45.8864 13.6202 46.0536 13.9002 45.9198 14.2407C45.8746 14.3567 45.786 14.3351 45.7064 14.3362C45.1534 14.3382 44.6005 14.331 44.0486 14.3413C43.8557 14.3443 43.7937 14.2798 43.7986 14.0776C43.8114 13.6038 43.8026 13.1299 43.8026 12.6561Z" fill="white"/>
<path d="M31.9391 4.41641C32.0355 4.41641 32.1339 4.42771 32.2293 4.41436C32.4547 4.3836 32.5452 4.46565 32.5708 4.7149C32.6003 4.99286 32.4419 4.99184 32.2707 5.01748C32.187 5.02979 32.1054 5.05235 32.0228 5.07082C31.9116 4.86465 31.9116 4.64207 31.9391 4.41641Z" fill="white"/>
<path d="M38.1551 4.41889C38.0694 4.41889 37.9809 4.43736 37.9002 4.41889C37.7615 4.38608 37.5391 4.54506 37.5106 4.23941C37.486 3.97888 37.5509 3.80143 37.8392 3.79528C37.912 3.79323 37.9838 3.77681 38.0557 3.76758C38.1443 3.9758 38.158 4.19633 38.1541 4.41992L38.1551 4.41889Z" fill="white"/>
<path d="M35.0369 1.22054C35.0369 1.3344 35.0241 1.44927 35.0388 1.56108C35.0742 1.82468 34.8883 1.78468 34.7427 1.8216C34.5645 1.86673 34.4997 1.79289 34.4839 1.61852C34.4741 1.50671 34.4417 1.39594 34.4199 1.28517C34.6197 1.20208 34.8204 1.13028 35.0369 1.22054Z" fill="white"/>
<path d="M32.8604 6.70183C32.9371 6.61977 33.0227 6.54386 33.0896 6.45258C33.2166 6.27923 33.3188 6.30283 33.4762 6.43412C33.6445 6.57464 33.6475 6.68541 33.5235 6.84235C33.4615 6.92133 33.4133 7.01159 33.3582 7.09672C33.1349 7.04236 32.9961 6.87415 32.8594 6.7008L32.8604 6.70183Z" fill="white"/>
<path d="M32.1869 3.17432C32.2863 3.21842 32.3827 3.27895 32.487 3.30458C32.7212 3.36203 32.6986 3.49639 32.6493 3.69538C32.5933 3.92103 32.4929 3.93436 32.3139 3.8718C32.2125 3.8359 32.0993 3.8359 31.9922 3.81949C32.0138 3.59076 32.0767 3.37433 32.1869 3.17432Z" fill="white"/>
<path d="M37.8897 5.64008C37.7993 5.60522 37.7107 5.56214 37.6172 5.53649C37.4116 5.47905 37.3614 5.37751 37.4333 5.15083C37.4991 4.93953 37.5858 4.89543 37.7727 4.96004C37.875 4.99595 37.9862 5.00312 38.0935 5.02262C38.062 5.24109 38.0196 5.45648 37.8897 5.64008Z" fill="white"/>
<path d="M37.8829 3.17117C37.7934 3.21323 37.7029 3.2522 37.6153 3.29835C37.456 3.38349 37.3448 3.40503 37.2405 3.18861C37.1421 2.98449 37.1402 2.86654 37.3458 2.76602C37.4334 2.72294 37.512 2.65934 37.5947 2.60498C37.7442 2.76397 37.8456 2.94962 37.8829 3.17117Z" fill="white"/>
<path d="M33.8789 7.38824C33.9153 7.28157 33.9567 7.17592 33.9862 7.06617C34.0422 6.85488 34.1544 6.8518 34.3394 6.90925C34.5361 6.97079 34.5981 7.05387 34.5302 7.25695C34.4949 7.36261 34.4929 7.48056 34.4761 7.59236C34.2685 7.55338 34.054 7.53081 33.8789 7.38824Z" fill="white"/>
<path d="M37.1807 2.14871C37.0095 2.32923 36.9052 2.72309 36.5658 2.34256C36.3081 2.05434 36.6741 1.95382 36.7164 1.75586C36.9456 1.79074 37.0922 1.93228 37.1807 2.14871Z" fill="white"/>
<path d="M32.1934 5.6495C32.3036 5.60232 32.4207 5.56949 32.522 5.5059C32.7404 5.36949 32.7777 5.55103 32.8663 5.68643C32.9824 5.86387 32.9155 5.95619 32.765 6.04132C32.6696 6.09568 32.581 6.16235 32.4895 6.2239C32.3223 6.07106 32.2357 5.8731 32.1934 5.6495Z" fill="white"/>
<path d="M33.8713 1.4541C33.9067 1.54949 33.9323 1.65103 33.9814 1.73719C34.0848 1.92079 34.0445 2.01823 33.8615 2.12285C33.6824 2.22543 33.5791 2.21927 33.4827 2.03156C33.4375 1.94335 33.3695 1.86643 33.3125 1.78437C33.4453 1.57513 33.6548 1.50846 33.8713 1.4541Z" fill="white"/>
<path d="M36.2092 1.4566C36.0862 1.61251 36.1845 1.95817 35.8677 1.93766C35.6404 1.9233 35.4319 1.83919 35.5736 1.512C35.607 1.43506 35.6011 1.33865 35.6129 1.25146C35.8284 1.26582 36.031 1.32531 36.2092 1.4566Z" fill="white"/>
<path d="M32.8641 2.15186C32.934 2.22161 32.9979 2.29854 33.0747 2.35905C33.2488 2.49547 33.24 2.60727 33.1003 2.78779C32.9606 2.96831 32.8582 2.94678 32.7146 2.82779C32.6389 2.76523 32.5552 2.71395 32.4746 2.65754C32.5316 2.42879 32.6812 2.27699 32.8631 2.15288L32.8641 2.15186Z" fill="white"/>
<path d="M37.2014 6.69866C37.1463 6.63301 37.0971 6.56019 37.0351 6.50274C36.8876 6.3653 36.8 6.26581 36.979 6.04528C37.1689 5.81143 37.2831 5.94477 37.4307 6.04938C37.4906 6.09246 37.5497 6.1376 37.6087 6.18273C37.5478 6.41865 37.3942 6.57557 37.2014 6.69866Z" fill="white"/>
<path d="M36.2302 7.38388C36.1909 7.29157 36.1583 7.19413 36.1102 7.10694C36.0039 6.91514 36.0443 6.81256 36.2381 6.69461C36.4654 6.55717 36.5411 6.6823 36.6277 6.84539C36.668 6.92129 36.6995 7.00335 36.735 7.08232C36.6139 7.27106 36.4279 7.33978 36.2283 7.38286L36.2302 7.38388Z" fill="white"/>
<path d="M35.0616 7.62099C35.0616 7.50817 35.0675 7.39431 35.0576 7.28251C35.0409 7.09789 35.092 7.01275 35.2907 7.0066C35.4669 7.00147 35.6007 6.98608 35.6056 7.22815C35.6076 7.33892 35.644 7.44971 35.6646 7.56048C35.4709 7.65381 35.2662 7.63946 35.0616 7.62099Z" fill="white"/>
<path d="M36.1516 4.21105C35.7924 4.12796 35.5692 4.18847 35.4619 4.42849C35.3271 4.73107 35.2444 5.05622 35.635 5.26136C35.7738 5.33418 35.8209 5.46034 35.7551 5.61522C35.6971 5.75164 35.5898 5.80396 35.455 5.76908C35.2986 5.72908 35.2316 5.60599 35.2641 5.44906C35.3193 5.18648 35.2641 4.96493 35.033 4.84698C34.7221 4.68799 34.418 4.64183 34.2203 5.05211C34.1474 5.20391 34.0018 5.20494 33.867 5.13725C33.7303 5.06852 33.7254 4.93313 33.7609 4.80595C33.8002 4.66338 33.9173 4.59568 34.0481 4.63466C34.302 4.71056 34.5144 4.64286 34.6266 4.41003C34.7771 4.09616 34.8519 3.76794 34.4496 3.55869C34.2999 3.48074 34.2901 3.33509 34.3511 3.19559C34.4101 3.05918 34.5312 3.02841 34.662 3.06738C34.8174 3.11354 34.8874 3.23662 34.8401 3.39049C34.7565 3.66435 34.8489 3.87153 35.0723 3.98128C35.3635 4.12386 35.6694 4.20488 35.8643 3.79768C35.9331 3.65408 36.061 3.60793 36.2076 3.68281C36.3326 3.74742 36.3858 3.85615 36.3483 3.99975C36.306 4.1618 36.1919 4.21515 36.1536 4.2131L36.1516 4.21105Z" fill="white"/>
</g>
</g>
<defs>
<clipPath id="clip0_2342_2209">
<rect width="71" height="24" fill="white" transform="translate(0.5 0.11377)"/>
</clipPath>
</defs>
</svg>
