<svg width="77" height="77" viewBox="0 0 77 77" fill="none" xmlns="http://www.w3.org/2000/svg">
<rect x="0.0894775" y="28.2351" width="56" height="56" rx="28" transform="rotate(-30 0.0894775 28.2351)" fill="#F13D77"/>
<path d="M26.5121 54.4183C26.2536 54.0488 26.0183 53.6998 25.8061 53.3713C25.6108 53.033 25.4119 52.708 25.2094 52.3964C25.0141 52.0581 24.8237 51.7283 24.6381 51.4069C24.4428 51.0686 24.2328 50.705 24.0082 50.3159C23.2465 48.9966 22.5622 47.6551 21.9554 46.2915C21.3556 44.9012 20.7087 43.5268 20.0147 42.1684C19.9268 42.0162 19.806 41.8265 19.6524 41.5995C19.5059 41.3458 19.3946 41.0943 19.3183 40.8451C19.2324 40.579 19.218 40.3393 19.2752 40.1258C19.3226 39.8955 19.495 39.7058 19.7923 39.5567C20.0824 39.4342 20.3574 39.4221 20.617 39.5203C20.8767 39.6184 21.122 39.77 21.3531 39.9749C22.1703 41.7809 22.9959 43.582 23.83 45.3783C24.6712 47.1479 25.5948 48.9038 26.6007 50.646C26.835 51.0519 27.0863 51.4481 27.3545 51.8345C27.6396 52.2112 27.8994 52.6025 28.1338 53.0084C28.2119 53.1437 28.2864 53.2924 28.3574 53.4544C28.4284 53.6164 28.4776 53.7797 28.5049 53.9443C28.5323 54.1089 28.5161 54.2761 28.4563 54.446C28.4036 54.5892 28.2927 54.7096 28.1236 54.8072C27.8191 54.983 27.5322 55.0134 27.2628 54.8983C26.9934 54.7832 26.7431 54.6232 26.5121 54.4183ZM27.9987 48.7901C27.4128 47.7752 26.886 46.7262 26.4185 45.6429C25.9412 44.5428 25.4785 43.468 25.0305 42.4186C24.9524 42.2833 24.9276 42.1623 24.9562 42.0556C24.9848 41.9488 25.0085 41.8337 25.0274 41.71C25.0176 41.6931 25.015 41.6495 25.0195 41.5792C25.0241 41.509 25.0214 41.4654 25.0117 41.4485C24.9138 40.693 25.0353 39.9464 25.376 39.2084C25.7069 38.4535 26.2023 37.8856 26.8619 37.5047C27.234 37.2899 27.5763 37.16 27.8886 37.115C28.1911 37.0531 28.4891 37.0614 28.7826 37.1401C29.0663 37.2018 29.3575 37.3156 29.6563 37.4814C29.9452 37.6303 30.2706 37.8033 30.6324 38.0003C30.9435 38.2267 31.2537 38.5099 31.5629 38.8501C31.872 39.1904 32.1607 39.5537 32.4289 39.9401C32.7141 40.3167 32.9823 40.7032 33.2336 41.0993C33.4751 41.4786 33.6935 41.8374 33.8888 42.1757C34.1772 42.7534 34.4514 43.3845 34.7112 44.0689C34.9782 44.7266 35.1811 45.4101 35.3199 46.1193C35.449 46.8116 35.4775 47.5055 35.4055 48.2011C35.3504 48.887 35.145 49.5468 34.7893 50.1807C34.6475 50.443 34.4755 50.7114 34.2733 50.9861C34.0879 51.251 33.8684 51.4567 33.6146 51.6031C33.0226 51.9449 32.4491 52.0844 31.8941 52.0214C31.3461 51.9318 30.822 51.727 30.3215 51.407C29.8379 51.0773 29.394 50.6796 28.9898 50.2138C28.5927 49.7214 28.2624 49.2468 27.9987 48.7901ZM30.4875 48.7063C30.5728 48.815 30.6861 48.9526 30.8273 49.1191C30.9855 49.2759 31.1521 49.4277 31.3272 49.5747C31.5192 49.712 31.7134 49.8141 31.91 49.881C32.1065 49.948 32.2978 49.9277 32.4838 49.8203C32.6192 49.7422 32.7265 49.6351 32.8058 49.4991C32.9021 49.3533 32.973 49.2222 33.0185 49.1057C33.2629 48.5135 33.3753 47.9074 33.3556 47.2873C33.3528 46.6574 33.2677 46.0412 33.1003 45.4388C32.9231 44.8194 32.6951 44.2293 32.4165 43.6685C32.128 43.0908 31.8373 42.5482 31.5444 42.0408C31.5053 41.9731 31.4418 41.8632 31.3539 41.7109C31.266 41.5587 31.1697 41.4113 31.0649 41.2689C30.9672 41.0997 30.8745 40.939 30.7866 40.7868C30.6987 40.6346 30.6401 40.5331 30.6108 40.4824C30.4865 40.3061 30.3026 40.0852 30.0591 39.8198C29.8059 39.5375 29.5371 39.2867 29.2527 39.0676C28.9585 38.8315 28.6465 38.6621 28.3165 38.5594C28.0035 38.4469 27.7117 38.4688 27.4411 38.625C27.2888 38.7129 27.1405 38.8662 26.9961 39.0849C26.842 39.2866 26.711 39.5089 26.603 39.7516C26.512 39.9846 26.4525 40.2332 26.4246 40.4974C26.4039 40.7349 26.4424 40.9382 26.54 41.1073C26.6181 41.2427 26.7154 41.3331 26.8319 41.3786C26.9653 41.4143 27.0809 41.5168 27.1785 41.6859L27.3396 41.965C27.352 42.0255 27.4061 42.1973 27.5018 42.4803C27.6047 42.7366 27.7089 43.0148 27.8144 43.3147C27.9199 43.6146 28.0206 43.9061 28.1163 44.1891C28.2192 44.4454 28.2768 44.6039 28.2892 44.6644C28.4657 45.1263 28.6724 45.582 28.9094 46.0316C29.1633 46.4714 29.4075 46.8942 29.6418 47.3002C29.6711 47.3509 29.7248 47.4439 29.803 47.5793C29.8811 47.7146 29.9641 47.8583 30.052 48.0106C30.1568 48.153 30.2483 48.2919 30.3264 48.4273C30.4045 48.5626 30.4582 48.6556 30.4875 48.7063ZM36.5236 43.8682C35.9377 42.8534 35.411 41.8043 34.9434 40.7211C34.4661 39.6209 34.0035 38.5461 33.5555 37.4967C33.4773 37.3614 33.4526 37.2404 33.4812 37.1337C33.5098 37.027 33.5335 36.9118 33.5523 36.7882C33.5425 36.7712 33.5399 36.7276 33.5445 36.6574C33.549 36.5871 33.5464 36.5435 33.5366 36.5266C33.4388 35.7712 33.5602 35.0245 33.9009 34.2865C34.2319 33.5316 34.7272 32.9637 35.3869 32.5829C35.759 32.368 36.1012 32.2381 36.4135 32.1931C36.7161 32.1312 37.0141 32.1396 37.3075 32.2182C37.5913 32.2799 37.8825 32.3937 38.1812 32.5595C38.4701 32.7084 38.7955 32.8814 39.1574 33.0785C39.4685 33.3048 39.7786 33.5881 40.0878 33.9283C40.397 34.2685 40.6857 34.6318 40.9539 35.0182C41.239 35.3949 41.5072 35.7813 41.7585 36.1775C42 36.5567 42.2184 36.9155 42.4137 37.2538C42.7022 37.8315 42.9763 38.4626 43.2362 39.147C43.5032 39.8048 43.7061 40.4882 43.8449 41.1974C43.9739 41.8897 44.0025 42.5837 43.9305 43.2793C43.8754 43.9651 43.67 44.625 43.3143 45.2588C43.1725 45.5211 43.0005 45.7896 42.7982 46.0642C42.6128 46.3291 42.3933 46.5348 42.1396 46.6813C41.5476 47.0231 40.974 47.1625 40.419 47.0996C39.8711 47.0099 39.3469 46.8051 38.8464 46.4852C38.3629 46.1554 37.919 45.7577 37.5147 45.2919C37.1177 44.7995 36.7873 44.3249 36.5236 43.8682ZM39.0125 43.7845C39.0977 43.8931 39.211 44.0307 39.3522 44.1972C39.5104 44.354 39.677 44.5059 39.8521 44.6529C40.0441 44.7901 40.2384 44.8922 40.4349 44.9591C40.6314 45.0261 40.8227 45.0059 41.0088 44.8984C41.1441 44.8203 41.2514 44.7132 41.3308 44.5772C41.427 44.4314 41.4979 44.3003 41.5434 44.1838C41.7879 43.5916 41.9002 42.9855 41.8805 42.3654C41.8777 41.7355 41.7926 41.1194 41.6252 40.5169C41.448 39.8975 41.2201 39.3074 40.9414 38.7466C40.653 38.1689 40.3623 37.6263 40.0693 37.1189C40.0302 37.0512 39.9668 36.9413 39.8789 36.7891C39.791 36.6368 39.6946 36.4895 39.5898 36.347C39.4922 36.1779 39.3994 36.0172 39.3115 35.8649C39.2236 35.7127 39.165 35.6112 39.1357 35.5605C39.0114 35.3842 38.8275 35.1633 38.5841 34.8979C38.3309 34.6156 38.062 34.3649 37.7776 34.1457C37.4834 33.9096 37.1714 33.7402 36.8415 33.6375C36.5285 33.525 36.2366 33.5469 35.966 33.7032C35.8138 33.791 35.6655 33.9443 35.5211 34.163C35.3669 34.3648 35.2359 34.587 35.128 34.8297C35.0369 35.0627 34.9775 35.3113 34.9496 35.5755C34.9288 35.813 34.9673 36.0163 35.0649 36.1855C35.1431 36.3208 35.2404 36.4112 35.3569 36.4567C35.4903 36.4924 35.6058 36.5949 35.7035 36.764L35.8646 37.0431C35.877 37.1036 35.931 37.2754 36.0268 37.5584C36.1297 37.8147 36.2339 38.0929 36.3394 38.3928C36.4449 38.6927 36.5455 38.9842 36.6412 39.2672C36.7441 39.5236 36.8018 39.682 36.8141 39.7425C36.9906 40.2044 37.1974 40.6602 37.4344 41.1097C37.6883 41.5495 37.9324 41.9723 38.1668 42.3783C38.1961 42.429 38.2498 42.5221 38.3279 42.6574C38.406 42.7927 38.489 42.9365 38.5769 43.0887C38.6817 43.2312 38.7732 43.3701 38.8513 43.5054C38.9294 43.6407 38.9832 43.7337 39.0125 43.7845ZM50.0291 38.608C49.7797 38.098 49.5001 37.5941 49.1902 37.0964C48.8803 36.5988 48.5161 36.1437 48.0976 35.7313L47.9961 35.7899C47.5056 36.0731 47.0603 36.4543 46.6603 36.9333C46.2674 37.3856 45.8088 37.7632 45.2845 38.0659C44.7094 38.3979 44.2509 38.2679 43.9091 37.6759C43.8213 37.5237 43.7685 37.3737 43.7509 37.226C43.7502 37.0686 43.6805 36.9284 43.5419 36.8054C43.5998 36.7495 43.7084 36.6642 43.8678 36.5496C44.0174 36.4181 44.1091 36.3426 44.143 36.3231L45.0056 35.8251C45.1552 35.6936 45.3507 35.5243 45.592 35.3173C45.8236 35.0934 46.0516 34.8829 46.276 34.6856C46.4907 34.4715 46.6679 34.2902 46.8078 34.1418C46.9645 33.9837 47.0429 33.9046 47.0429 33.9046L44.7975 29.0779C44.6653 28.7708 44.6353 28.5626 44.7075 28.4533C44.7797 28.3439 44.9342 28.2209 45.171 28.0842C45.2048 28.0646 45.2689 28.0389 45.3632 28.007C45.4647 27.9484 45.5324 27.9094 45.5662 27.8898C45.7601 27.9132 45.9615 27.9886 46.1705 28.1161L46.6978 29.0295C47.0298 29.6046 47.3401 30.181 47.6285 30.7587C47.9169 31.3364 48.2272 31.9128 48.5592 32.4879L48.6607 32.4293L51.908 29.6749C52.0628 29.6306 52.1959 29.5876 52.3072 29.5459C52.4353 29.4945 52.5563 29.4697 52.6702 29.4716C52.7743 29.4566 52.881 29.4852 52.9904 29.5574C53.0899 29.6127 53.1934 29.7334 53.3009 29.9194L53.3448 29.9955C53.2805 30.2357 53.1833 30.4384 53.0532 30.6037C52.9133 30.7521 52.765 30.9054 52.6083 31.0635C52.4586 31.195 52.3139 31.335 52.1741 31.4834C52.0342 31.6318 51.9139 31.814 51.8131 32.0301L49.6275 34.1038C49.5624 34.1865 49.5495 34.2616 49.5885 34.3293C49.6178 34.38 49.652 34.4392 49.6911 34.5069C49.945 34.9467 50.2376 35.3754 50.5689 35.793C50.9074 36.184 51.2085 36.6078 51.4721 37.0645C51.6577 37.3859 51.6991 37.7115 51.5964 38.0414C51.4839 38.3544 51.2755 38.5988 50.971 38.7746L50.8949 38.8186L50.0291 38.608ZM46.3247 34.1839L46.3832 34.2854L46.1803 34.4026L46.1217 34.3011L46.3247 34.1839Z" fill="#DEFF61"/>
</svg>
