<svg width="184" height="49" viewBox="0 0 184 49" fill="none" xmlns="http://www.w3.org/2000/svg">
<g clip-path="url(#clip0_4071_2037)">
<mask id="mask0_4071_2037" style="mask-type:luminance" maskUnits="userSpaceOnUse" x="0" y="0" width="184" height="49">
<path d="M183.123 0.0344238H0.96875V48.0344H183.123V0.0344238Z" fill="white"/>
</mask>
<g mask="url(#mask0_4071_2037)">
<path d="M135.2 24.0344H129.209V30.0344H135.2V24.0344Z" fill="white"/>
<path d="M177.132 24.0344H171.142V30.0344H177.132V24.0344Z" fill="white"/>
<path d="M171.142 12.0344H165.151V18.0344H171.142V12.0344Z" fill="white"/>
<path d="M165.151 18.0344H159.161V24.0344H165.151V18.0344Z" fill="white"/>
<path d="M141.19 30.0344H135.199V36.0344H141.19V30.0344Z" fill="white"/>
<path d="M171.142 30.0344H165.151V36.0344H171.142V30.0344Z" fill="white"/>
<path d="M159.161 42.0344V48.0344H0.96875V6.03442H6.95919V42.0344H141.189V36.0344H147.18V42.0344H159.161Z" fill="white"/>
<path d="M165.151 36.0344H159.161V42.0344H165.151V36.0344Z" fill="white"/>
<path d="M183.123 6.03442H177.132V24.0344H183.123V6.03442Z" fill="white"/>
<path d="M177.132 0.0344238H159.161V6.03442H177.132V0.0344238Z" fill="white"/>
<path d="M159.161 6.03442H147.18V12.0344H159.161V6.03442Z" fill="white"/>
<path d="M159.161 6.03442V12.0344H147.18V6.03442H129.209V24.0344H135.2V30.0344H141.19V36.0344H147.18V42.0344H159.161V36.0344H165.152V30.0344H171.142V24.0344H177.132V6.03442H159.161ZM171.142 18.0344H165.152V24.0344H159.161V18.0344H165.152V12.0344H171.142V18.0344Z" fill="#FF5F5F"/>
<path d="M147.18 0.0344238V6.03442H129.209V24.0344H123.218V6.03442H6.95917V0.0344238H147.18Z" fill="white"/>
<path d="M50.0021 16.0356V14.0356H36.0245V16.0356H34.0277V32.0356H36.0245V34.0356H50.0021V32.0356H51.999V16.0356H50.0021ZM48.0053 30.0356H38.0213V18.0356H48.0053V30.0356Z" fill="white"/>
<path d="M113.234 16.0356V14.0356H97.2595V34.0356H101.253V26.0356H113.234V24.0356H115.231V16.0356H113.234ZM111.237 22.0356H101.253V18.0356H111.237V22.0356Z" fill="white"/>
<path d="M94.1528 14.0356V34.0356H90.1591V26.0356H80.1751V34.0356H76.1815V14.0356H80.1751V22.0356H90.1591V14.0356H94.1528Z" fill="white"/>
<path d="M71.079 16.0356V14.0356H57.1014V16.0356H55.1046V32.0356H57.1014V34.0356H71.079V32.0356H73.0759V16.0356H71.079ZM69.0822 30.0356H59.0982V18.0356H69.0822V30.0356Z" fill="white"/>
<path d="M30.9216 30.0356V34.0356H14.9471V30.0356H20.9376V22.0356H16.9439V18.0356H18.9407V16.0356H20.9376V14.0356H24.9312V30.0356H30.9216Z" fill="white"/>
</g>
</g>
<defs>
<clipPath id="clip0_4071_2037">
<rect width="182.154" height="48" fill="white" transform="translate(0.96875 0.0344238)"/>
</clipPath>
</defs>
</svg>
