<svg width="70" height="70" viewBox="0 0 70 70" fill="none" xmlns="http://www.w3.org/2000/svg">
<rect x="15.0808" y="0.844238" width="56" height="56" rx="28" transform="rotate(15 15.0808 0.844238)" fill="white" fill-opacity="0.05"/>
<path d="M19.0703 39.0658C19.1158 38.896 19.1606 38.7665 19.2048 38.6772C19.2728 38.5741 19.4138 38.5007 19.6278 38.4569C19.6517 38.4431 19.7014 38.4463 19.7768 38.4665C19.8574 38.4679 19.9379 38.4692 20.0184 38.4706C20.1178 38.477 20.1958 38.4878 20.2524 38.5029C20.3329 38.5043 20.3826 38.5075 20.4014 38.5126C20.5197 38.524 20.6549 38.5097 20.8072 38.4696C20.9834 38.4157 21.1502 38.3593 21.3075 38.3004C21.4888 38.2276 21.6487 38.1593 21.7871 38.0953C21.9256 38.0313 22.0282 37.988 22.0949 37.9654C22.7684 37.6404 23.2753 37.2201 23.6156 36.7047C23.9748 36.1943 24.2479 35.5901 24.4349 34.8921C24.4602 34.7978 24.4956 34.6657 24.5411 34.4959C24.5865 34.3261 24.6226 34.1538 24.6492 33.979C24.6998 33.7903 24.7145 33.6224 24.6932 33.4752C24.6771 33.3091 24.62 33.1826 24.522 33.0956C24.4893 33.0666 24.3975 33.0319 24.2466 32.9915C24.1145 32.9561 24.0296 32.9334 23.9919 32.9233C23.558 32.807 23.1176 32.7901 22.6709 32.8726C22.2481 32.9413 21.8177 33.0383 21.3797 33.1636C20.9657 33.2751 20.5353 33.372 20.0886 33.4545C19.6657 33.5232 19.228 33.4969 18.7752 33.3756C18.4733 33.2947 18.2628 33.1372 18.1435 32.903C18.0293 32.65 18.0102 32.382 18.086 32.099C18.1669 31.7972 18.4548 31.4396 18.9497 31.0263C19.4447 30.6129 19.9943 30.1839 20.5988 29.7393C21.2032 29.2946 21.7957 28.8569 22.3762 28.4261C22.9617 27.9764 23.3925 27.5762 23.6684 27.2255L23.4421 27.1648C23.0081 27.0485 22.5867 27.0367 22.1777 27.1293C21.7737 27.2031 21.3836 27.3007 21.0073 27.4223C20.631 27.5439 20.2572 27.6561 19.8859 27.7588C19.5386 27.8477 19.1951 27.8467 18.8555 27.7557C18.6102 27.69 18.3707 27.5651 18.1369 27.3812C17.9082 27.1783 17.8368 26.9165 17.9227 26.5958C17.9935 26.3317 18.2058 26.1055 18.5595 25.9172C18.9183 25.71 19.3545 25.5539 19.8679 25.4489C20.3864 25.3249 20.947 25.2325 21.5497 25.1716C22.1713 25.1157 22.7664 25.0831 23.3351 25.0737C23.9226 25.0694 24.4529 25.0901 24.9259 25.136C25.404 25.163 25.7656 25.2093 26.0109 25.275C26.7089 25.4621 26.9594 25.9235 26.7622 26.6593L26.6636 27.0271C26.1154 27.7902 25.524 28.4506 24.8892 29.0084C24.2595 29.5474 23.6172 30.1336 22.9622 30.7669L23.2452 30.8427C23.5093 30.9135 23.7502 30.9578 23.9678 30.9757C24.2043 30.9986 24.4546 31.0454 24.7187 31.1162C25.4733 31.3184 26.0019 31.7229 26.3044 32.3297C26.6119 32.9176 26.7665 33.5858 26.7681 34.3344C26.7428 34.4287 26.6898 34.6268 26.6089 34.9287C26.5519 35.2167 26.5133 35.3985 26.4931 35.4739C26.1544 36.7379 25.5996 37.752 24.8288 38.516C24.0629 39.2611 23.0652 39.8531 21.8354 40.292C21.196 40.5655 20.565 40.6188 19.9424 40.452C19.6406 40.3711 19.3948 40.1941 19.2052 39.9208C19.0394 39.6338 18.9945 39.3488 19.0703 39.0658ZM27.582 37.0699C27.8853 35.938 28.2546 34.8237 28.69 33.7272C29.1304 32.6117 29.5632 31.5246 29.9885 30.4658C30.0289 30.3149 30.097 30.2118 30.1927 30.1565C30.2884 30.1013 30.3866 30.0366 30.4873 29.9625C30.4924 29.9436 30.5213 29.911 30.5742 29.8645C30.6271 29.818 30.6561 29.7853 30.6612 29.7664C31.1261 29.1631 31.74 28.721 32.5028 28.4401C33.2706 28.1403 34.0224 28.089 34.7581 28.2861C35.1732 28.3973 35.507 28.5475 35.7597 28.7365C36.0174 28.9066 36.2222 29.1233 36.3741 29.3864C36.5311 29.6307 36.6566 29.917 36.7505 30.2455C36.8495 30.5551 36.9573 30.9075 37.0739 31.3027C37.1338 31.6828 37.1528 32.1024 37.1309 32.5615C37.1089 33.0207 37.0562 33.4818 36.9726 33.9447C36.9078 34.4126 36.8242 34.8755 36.7218 35.3333C36.6244 35.7723 36.5251 36.1804 36.424 36.5577C36.2195 37.1702 35.9671 37.8103 35.6669 38.478C35.3906 39.1319 35.0507 39.7586 34.6474 40.3583C34.2492 40.9391 33.7786 41.4499 33.2359 41.8909C32.712 42.3369 32.1001 42.6582 31.4004 42.8549C31.1147 42.9401 30.8032 43.0083 30.466 43.0595C30.1476 43.1157 29.8469 43.1059 29.5639 43.0301C28.9036 42.8532 28.3995 42.5462 28.0515 42.1092C27.7275 41.6584 27.5016 41.143 27.374 40.5628C27.2652 39.9877 27.2326 39.3926 27.2761 38.7774C27.3435 38.1485 27.4455 37.5793 27.582 37.0699ZM29.4011 38.7706C29.3846 38.9077 29.3674 39.085 29.3495 39.3027C29.3505 39.5254 29.3609 39.7506 29.3808 39.9783C29.4195 40.2111 29.4847 40.4207 29.5763 40.607C29.6679 40.7933 29.8175 40.9143 30.025 40.9699C30.1759 41.0103 30.3275 41.0105 30.4798 40.9704C30.651 40.9354 30.7938 40.8928 30.9083 40.8426C31.5 40.5967 32.008 40.2476 32.4326 39.7951C32.8759 39.3478 33.2515 38.8519 33.5591 38.3075C33.8718 37.7442 34.1279 37.1658 34.3274 36.5722C34.5319 35.9598 34.71 35.3705 34.8617 34.8046C34.8819 34.7291 34.9147 34.6065 34.9602 34.4367C35.0057 34.2669 35.0418 34.0946 35.0684 33.9197C35.119 33.7311 35.167 33.5519 35.2125 33.3821C35.258 33.2123 35.2883 33.0991 35.3035 33.0425C35.3402 32.8299 35.3664 32.5437 35.3819 32.1839C35.4025 31.8052 35.3897 31.4378 35.3436 31.0817C35.3025 30.7068 35.2016 30.3663 35.041 30.0604C34.8992 29.7596 34.6773 29.5687 34.3755 29.4878C34.2057 29.4423 33.9924 29.4458 33.7357 29.4984C33.484 29.532 33.2342 29.5965 32.9863 29.6918C32.7572 29.7922 32.5394 29.926 32.3328 30.093C32.1502 30.2463 32.0336 30.4173 31.9831 30.6059C31.9426 30.7569 31.9475 30.8896 31.9977 31.0041C32.0668 31.1237 32.076 31.2779 32.0255 31.4665L31.942 31.7778C31.908 31.8294 31.8248 31.989 31.6924 32.2569C31.5839 32.5109 31.4609 32.7812 31.3234 33.0679C31.1859 33.3546 31.051 33.6318 30.9185 33.8997C30.81 34.1537 30.7388 34.3065 30.7047 34.358C30.5029 34.8094 30.3268 35.2779 30.1765 35.7633C30.0451 36.2538 29.9187 36.7255 29.7974 37.1782C29.7822 37.2348 29.7544 37.3386 29.714 37.4895C29.6736 37.6405 29.6306 37.8008 29.5851 37.9706C29.5585 38.1455 29.5249 38.3083 29.4845 38.4593C29.4441 38.6102 29.4162 38.714 29.4011 38.7706ZM40.8513 42.9002C41.0356 42.3632 41.1942 41.8092 41.327 41.2382C41.4598 40.6671 41.524 40.0878 41.5197 39.5003L41.4065 39.47C40.8594 39.3234 40.275 39.278 39.6535 39.3339C39.0558 39.3759 38.4645 39.3186 37.8797 39.1619C37.2383 38.99 37.006 38.574 37.1829 37.9136C37.2284 37.7439 37.2972 37.6005 37.3892 37.4836C37.5 37.3718 37.5499 37.2234 37.5388 37.0384C37.6193 37.0398 37.7564 37.0563 37.9501 37.088C38.1489 37.1008 38.2671 37.1123 38.3049 37.1224L39.267 37.3802C39.4658 37.393 39.7237 37.4116 40.0407 37.4358C40.3628 37.4413 40.6729 37.4536 40.971 37.4728C41.2743 37.4732 41.5278 37.4703 41.7316 37.4643C41.9543 37.4633 42.0656 37.4628 42.0656 37.4628L43.8908 32.4621C44.0145 32.1515 44.1405 31.983 44.2689 31.9568C44.3972 31.9305 44.5935 31.9527 44.8576 32.0235C44.8953 32.0336 44.9588 32.0608 45.0481 32.1049C45.1613 32.1352 45.2368 32.1554 45.2745 32.1656C45.3951 32.3192 45.4842 32.5149 45.5418 32.7528L45.2688 33.7715C45.0969 34.413 44.9087 35.0399 44.7042 35.6524C44.4996 36.2648 44.3114 36.8918 44.1395 37.5332L44.2527 37.5635L48.4966 37.9121C48.6374 37.9903 48.7619 38.054 48.87 38.1031C48.997 38.1574 49.1001 38.2255 49.1793 38.3073C49.2635 38.3703 49.3187 38.466 49.345 38.5944C49.3763 38.7039 49.3642 38.8624 49.3086 39.0699L49.2858 39.1548C49.0705 39.2791 48.8585 39.3537 48.6496 39.3786C48.4458 39.3847 48.2325 39.3882 48.0098 39.3892C47.811 39.3764 47.6098 39.373 47.4059 39.379C47.2021 39.3851 46.9882 39.4288 46.7641 39.5103L43.7523 39.4313C43.6479 39.4437 43.5855 39.4877 43.5653 39.5631C43.5501 39.6197 43.5324 39.6858 43.5122 39.7612C43.3808 40.2517 43.2846 40.7618 43.2235 41.2914C43.1864 41.8072 43.0996 42.3197 42.9632 42.8291C42.8671 43.1876 42.6661 43.4471 42.3602 43.6078C42.0594 43.7496 41.7391 43.775 41.3995 43.684L41.3147 43.6613L40.8513 42.9002ZM41.3602 37.1525L41.3299 37.2656L41.1035 37.205L41.1338 37.0918L41.3602 37.1525Z" fill="#DEFF61"/>
</svg>
