<svg width="125" height="49" viewBox="0 0 125 49" fill="none" xmlns="http://www.w3.org/2000/svg">
<g clip-path="url(#clip0_2625_2481)">
<path d="M43.331 15.7279C43.331 15.7279 42.3111 11.8946 35.634 10.5851L9.35597 4.59302C9.35597 4.59302 -1.67954 3.48984 0.224785 13.0454L9.49142 43.0851C9.49142 43.0851 13.7144 52.9502 20.7819 46.1803L41.8888 23.22C41.8888 23.22 44.5979 20.101 43.3389 15.72L43.331 15.7279Z" fill="#FE346E"/>
<path d="M44.4207 22.1008C44.341 26.6563 40.8352 28.8389 40.8352 28.8389L38.7635 30.0452L33.4171 33.1643L31.951 34.0214L13.8958 44.5531C12.7564 45.0611 11.7524 45.3309 10.86 45.4182C4.7168 46.069 4.01562 38.2674 4.01562 38.2674V6.83092C4.21482 6.16425 4.43792 5.56108 4.69289 5.0214C7.98363 -2.10559 15.2424 1.44203 15.2424 1.44203L28.1025 8.86267L38.5882 14.9103C41.3292 16.3865 42.7873 18.0214 43.5522 19.3547C44.4685 20.9341 44.4207 22.1008 44.4207 22.1008Z" fill="#2C003D"/>
<path d="M38.7636 23.2275V30.045L33.4172 33.164V23.6006C33.4172 22.3625 33.1144 21.4021 32.5089 20.7117C31.8953 20.0212 31.0428 19.6799 29.9352 19.6799C28.7241 19.6799 27.768 20.0767 27.0748 20.8783C26.4134 21.672 26.0868 22.8307 26.0868 24.3466V35.9418H20.7403V23.6006C20.7403 22.3625 20.4375 21.4021 19.824 20.7117C19.2185 20.0212 18.3659 19.6799 17.2584 19.6799C16.0711 19.6799 15.115 20.0926 14.3979 20.918C13.7127 21.7196 13.3621 22.8545 13.3621 24.3466V35.9418H8.01562V15.3069H13.3621V17.4894C14.6051 15.6482 16.5253 14.7275 19.1228 14.7275C21.7204 14.7275 23.5689 15.7196 24.7561 17.6958C26.1107 15.7196 28.1664 14.7275 30.9312 14.7275C33.3057 14.7275 35.202 15.4974 36.6044 17.0371C38.0465 18.5767 38.7636 20.6402 38.7636 23.2275Z" fill="white"/>
<path d="M119.201 15.593L113.926 28.8787L108.986 15.593H103.137L110.898 34.6089L110.292 35.9978C109.822 37.0057 109.265 37.712 108.611 38.1247C107.958 38.5295 107.113 38.7359 106.077 38.7359C105.615 38.7359 104.826 38.6803 103.711 38.5692V43.1882C104.938 43.5136 106.117 43.6803 107.265 43.6803C109.145 43.6803 110.723 43.1882 112.006 42.212C113.28 41.2279 114.388 39.6882 115.312 37.5851L125.001 15.593H119.201ZM99.3526 17.4105C97.7988 15.9025 95.6873 15.1406 93.0181 15.1406C89.4724 15.1406 86.5323 16.5374 84.1897 19.3152L87.0502 22.7041C87.9744 21.7279 88.8509 21.0216 89.6636 20.5851C90.4843 20.1486 91.3927 19.9263 92.4046 19.9263C93.6316 19.9263 94.5639 20.2359 95.2013 20.847C95.8387 21.4581 96.1654 22.339 96.1654 23.4819V24.3866H91.0979C88.7553 24.3866 86.8908 24.9105 85.5203 25.9581C84.1419 27.0057 83.4487 28.4422 83.4487 30.2676C83.4487 32.093 84.0861 33.5295 85.353 34.6486C86.6199 35.7676 88.3171 36.3232 90.4445 36.3232C92.9783 36.3232 95.034 35.5057 96.6116 33.8708V35.8311H101.679V23.8073C101.679 21.0613 100.906 18.9263 99.3526 17.4105ZM96.1654 28.2676C96.1654 29.4422 95.7591 30.4025 94.9543 31.1486C94.1495 31.9025 93.1376 32.2755 91.9106 32.2755C91.0421 32.2755 90.3329 32.0771 89.8071 31.6803C89.2732 31.2835 89.0103 30.7438 89.0103 30.0692C89.0103 28.7041 89.9505 28.0216 91.8309 28.0216H96.1654V28.2676ZM73.7279 5.17236V35.8311H79.2417V5.17236H73.7279ZM67.4014 18.1486C65.5289 16.1486 63.1944 15.1406 60.3897 15.1406C57.585 15.1406 55.2823 16.1406 53.8879 18.1247V15.593H48.8203V43.1882H54.342V33.8708C55.84 35.5057 57.8559 36.3232 60.3897 36.3232C63.1944 36.3232 65.5289 35.3073 67.4014 33.2755C69.2659 31.2438 70.1981 28.72 70.1981 25.6882C70.1981 22.6565 69.2659 20.1486 67.4014 18.1486ZM63.1067 29.7438C62.1107 30.7755 60.8677 31.2914 59.3698 31.2914C57.8718 31.2914 56.6766 30.7993 55.7125 29.7993C54.7404 28.8073 54.2544 27.4343 54.2544 25.6882C54.2544 23.9422 54.7404 22.5851 55.7125 21.6009C56.6766 20.6247 57.8957 20.1327 59.3698 20.1327C60.8438 20.1327 62.1426 20.6486 63.1306 21.6882C64.1107 22.72 64.5967 24.0692 64.5967 25.7359C64.5967 27.4025 64.1027 28.7041 63.1067 29.7438Z" fill="white"/>
</g>
<defs>
<clipPath id="clip0_2625_2481">
<rect width="125" height="48" fill="white" transform="translate(0 0.561035)"/>
</clipPath>
</defs>
</svg>
