<svg width="92" height="25" viewBox="0 0 92 25" fill="none" xmlns="http://www.w3.org/2000/svg">
<g clip-path="url(#clip0_2344_7551)">
<path d="M41.302 4.06934H38.9238V6.42461H41.302V4.06934Z" fill="white"/>
<path d="M41.302 6.62598H38.9238V8.98147H41.302V6.62598Z" fill="white"/>
<path d="M41.302 9.19971H38.9238V11.5552H41.302V9.19971Z" fill="white"/>
<path d="M41.302 11.7568H38.9238V14.1121H41.302V11.7568Z" fill="white"/>
<path d="M41.302 14.3306H38.9238V16.6858H41.302V14.3306Z" fill="white"/>
<path d="M43.8762 4.06934H41.498V6.42461H43.8762V4.06934Z" fill="white"/>
<path d="M43.8762 6.62598H41.498V8.98147H43.8762V6.62598Z" fill="white"/>
<path d="M43.8762 9.19971H41.498V11.5552H43.8762V9.19971Z" fill="white"/>
<path d="M43.8762 11.7568H41.498V14.1121H43.8762V11.7568Z" fill="white"/>
<path d="M43.8762 14.3306H41.498V16.6858H43.8762V14.3306Z" fill="white"/>
<path d="M43.8762 16.8872H41.498V19.2425H43.8762V16.8872Z" fill="white"/>
<path d="M46.5168 16.8872H44.1387V19.2425H46.5168V16.8872Z" fill="white"/>
<path d="M46.5168 6.62598H44.1387V8.98147H46.5168V6.62598Z" fill="white"/>
<path d="M49.1655 6.62598H46.7871V8.98147H49.1655V6.62598Z" fill="white"/>
<path d="M38.6535 6.62598H36.2754V8.98147H38.6535V6.62598Z" fill="white"/>
<path d="M49.1655 16.8872H46.7871V19.2425H49.1655V16.8872Z" fill="white"/>
<path d="M53.591 1.49512H51.2129V3.85039H53.591V1.49512Z" fill="white"/>
<path d="M53.591 4.06934H51.2129V6.42461H53.591V4.06934Z" fill="white"/>
<path d="M53.591 6.62598H51.2129V8.98147H53.591V6.62598Z" fill="white"/>
<path d="M58.7375 6.62598H56.3594V8.98147H58.7375V6.62598Z" fill="white"/>
<path d="M63.8918 6.62598H61.5137V8.98147H63.8918V6.62598Z" fill="white"/>
<path d="M53.591 9.19971H51.2129V11.5552H53.591V9.19971Z" fill="white"/>
<path d="M58.7375 9.19971H56.3594V11.5552H58.7375V9.19971Z" fill="white"/>
<path d="M63.8918 9.19971H61.5137V11.5552H63.8918V9.19971Z" fill="white"/>
<path d="M53.591 11.7568H51.2129V14.1121H53.591V11.7568Z" fill="white"/>
<path d="M63.8918 11.7568H61.5137V14.1121H63.8918V11.7568Z" fill="white"/>
<path d="M53.591 14.3306H51.2129V16.6858H53.591V14.3306Z" fill="white"/>
<path d="M63.8918 14.3306H61.5137V16.6858H63.8918V14.3306Z" fill="white"/>
<path d="M53.591 16.8872H51.2129V19.2425H53.591V16.8872Z" fill="white"/>
<path d="M63.8918 16.8872H61.5137V19.2425H63.8918V16.8872Z" fill="white"/>
<path d="M56.1652 1.49512H53.7871V3.85039H56.1652V1.49512Z" fill="white"/>
<path d="M56.1652 4.06934H53.7871V6.42461H56.1652V4.06934Z" fill="white"/>
<path d="M56.1652 6.62598H53.7871V8.98147H56.1652V6.62598Z" fill="white"/>
<path d="M61.3195 6.62598H58.9414V8.98147H61.3195V6.62598Z" fill="white"/>
<path d="M56.1652 9.19971H53.7871V11.5552H56.1652V9.19971Z" fill="white"/>
<path d="M61.3195 9.19971H58.9414V11.5552H61.3195V9.19971Z" fill="white"/>
<path d="M56.1652 11.7568H53.7871V14.1121H56.1652V11.7568Z" fill="white"/>
<path d="M61.3195 11.7568H58.9414V14.1121H61.3195V11.7568Z" fill="white"/>
<path d="M56.1652 14.3306H53.7871V16.6858H56.1652V14.3306Z" fill="white"/>
<path d="M61.3195 14.3306H58.9414V16.6858H61.3195V14.3306Z" fill="white"/>
<path d="M56.1652 16.8872H53.7871V19.2425H56.1652V16.8872Z" fill="white"/>
<path d="M61.3195 16.8872H58.9414V19.2425H61.3195V16.8872Z" fill="white"/>
<path d="M85.6264 6.62598H83.248V8.98147H85.6264V6.62598Z" fill="white"/>
<path d="M90.7807 6.62598H88.4023V8.98147H90.7807V6.62598Z" fill="white"/>
<path d="M85.6264 9.19971H83.248V11.5552H85.6264V9.19971Z" fill="white"/>
<path d="M90.7807 9.19971H88.4023V11.5552H90.7807V9.19971Z" fill="white"/>
<path d="M85.6264 11.7568H83.248V14.1121H85.6264V11.7568Z" fill="white"/>
<path d="M85.6264 14.3306H83.248V16.6858H85.6264V14.3306Z" fill="white"/>
<path d="M85.6264 16.8872H83.248V19.2425H85.6264V16.8872Z" fill="white"/>
<path d="M83.0541 6.62598H80.6758V8.98147H83.0541V6.62598Z" fill="white"/>
<path d="M83.0541 9.19971H80.6758V11.5552H83.0541V9.19971Z" fill="white"/>
<path d="M88.2084 9.19971H85.8301V11.5552H88.2084V9.19971Z" fill="white"/>
<path d="M83.0541 11.7568H80.6758V14.1121H83.0541V11.7568Z" fill="white"/>
<path d="M83.0541 14.3306H80.6758V16.6858H83.0541V14.3306Z" fill="white"/>
<path d="M83.0541 16.8872H80.6758V19.2425H83.0541V16.8872Z" fill="white"/>
<path d="M70.8996 6.62598H68.5215V8.98147H70.8996V6.62598Z" fill="white"/>
<path d="M76.0461 6.62598H73.668V8.98147H76.0461V6.62598Z" fill="white"/>
<path d="M70.8996 9.19971H68.5215V11.5552H70.8996V9.19971Z" fill="white"/>
<path d="M76.0461 9.19971H73.668V11.5552H76.0461V9.19971Z" fill="white"/>
<path d="M70.8996 11.7568H68.5215V14.1121H70.8996V11.7568Z" fill="white"/>
<path d="M76.0461 11.7568H73.668V14.1121H76.0461V11.7568Z" fill="white"/>
<path d="M70.8996 14.3306H68.5215V16.6858H70.8996V14.3306Z" fill="white"/>
<path d="M70.8996 16.8872H68.5215V19.2425H70.8996V16.8872Z" fill="white"/>
<path d="M76.0461 16.8872H73.668V19.2425H76.0461V16.8872Z" fill="white"/>
<path d="M73.4719 6.62598H71.0938V8.98147H73.4719V6.62598Z" fill="white"/>
<path d="M78.6262 6.62598H76.248V8.98147H78.6262V6.62598Z" fill="white"/>
<path d="M68.3176 9.19971H65.9395V11.5552H68.3176V9.19971Z" fill="white"/>
<path d="M78.6262 9.19971H76.248V11.5552H78.6262V9.19971Z" fill="white"/>
<path d="M68.3176 11.7568H65.9395V14.1121H68.3176V11.7568Z" fill="white"/>
<path d="M73.4719 11.7568H71.0938V14.1121H73.4719V11.7568Z" fill="white"/>
<path d="M78.6262 11.7568H76.248V14.1121H78.6262V11.7568Z" fill="white"/>
<path d="M68.3176 14.3306H65.9395V16.6858H68.3176V14.3306Z" fill="white"/>
<path d="M73.4719 16.8872H71.0938V19.2425H73.4719V16.8872Z" fill="white"/>
<path d="M78.6262 16.8872H76.248V19.2425H78.6262V16.8872Z" fill="white"/>
<path d="M23.927 6.62598H21.5488V8.98147H23.927V6.62598Z" fill="white"/>
<path d="M29.0813 6.62598H26.7031V8.98147H29.0813V6.62598Z" fill="white"/>
<path d="M23.927 9.19971H21.5488V11.5552H23.927V9.19971Z" fill="white"/>
<path d="M34.2356 9.19971H31.8574V11.5552H34.2356V9.19971Z" fill="white"/>
<path d="M23.927 11.7568H21.5488V14.1121H23.927V11.7568Z" fill="white"/>
<path d="M34.2356 11.7568H31.8574V14.1121H34.2356V11.7568Z" fill="white"/>
<path d="M23.927 14.3306H21.5488V16.6858H23.927V14.3306Z" fill="white"/>
<path d="M34.2356 14.3306H31.8574V16.6858H34.2356V14.3306Z" fill="white"/>
<path d="M23.927 16.8872H21.5488V19.2425H23.927V16.8872Z" fill="white"/>
<path d="M29.0813 16.8872H26.7031V19.2425H29.0813V16.8872Z" fill="white"/>
<path d="M23.927 19.4609H21.5488V21.8162H23.927V19.4609Z" fill="white"/>
<path d="M23.927 22.0352H21.5488V24.3907H23.927V22.0352Z" fill="white"/>
<path d="M26.4992 6.62598H24.1211V8.98147H26.4992V6.62598Z" fill="white"/>
<path d="M31.6535 6.62598H29.2754V8.98147H31.6535V6.62598Z" fill="white"/>
<path d="M26.4992 9.19971H24.1211V11.5552H26.4992V9.19971Z" fill="white"/>
<path d="M31.6535 9.19971H29.2754V11.5552H31.6535V9.19971Z" fill="white"/>
<path d="M26.4992 11.7568H24.1211V14.1121H26.4992V11.7568Z" fill="white"/>
<path d="M31.6535 11.7568H29.2754V14.1121H31.6535V11.7568Z" fill="white"/>
<path d="M26.4992 14.3306H24.1211V16.6858H26.4992V14.3306Z" fill="white"/>
<path d="M31.6535 14.3306H29.2754V16.6858H31.6535V14.3306Z" fill="white"/>
<path d="M26.4992 16.8872H24.1211V19.2425H26.4992V16.8872Z" fill="white"/>
<path d="M31.6535 16.8872H29.2754V19.2425H31.6535V16.8872Z" fill="white"/>
<path d="M26.4992 19.4609H24.1211V21.8162H26.4992V19.4609Z" fill="white"/>
<path d="M26.4992 22.0352H24.1211V24.3907H26.4992V22.0352Z" fill="white"/>
<path d="M2.15947 1.49512H-0.21875V3.85039H2.15947V1.49512Z" fill="white"/>
<path d="M2.15947 4.06934H-0.21875V6.42461H2.15947V4.06934Z" fill="white"/>
<path d="M2.15947 6.62598H-0.21875V8.98147H2.15947V6.62598Z" fill="white"/>
<path d="M7.31377 6.62598H4.93555V8.98147H7.31377V6.62598Z" fill="white"/>
<path d="M12.5013 14.3306H10.123V16.6858H12.5013V14.3306Z" fill="white"/>
<path d="M12.5013 16.8872H10.123V19.2425H12.5013V16.8872Z" fill="white"/>
<path d="M2.15947 9.19971H-0.21875V11.5552H2.15947V9.19971Z" fill="white"/>
<path d="M7.31377 9.19971H4.93555V11.5552H7.31377V9.19971Z" fill="white"/>
<path d="M2.15947 11.7568H-0.21875V14.1121H2.15947V11.7568Z" fill="white"/>
<path d="M2.15947 14.3306H-0.21875V16.6858H2.15947V14.3306Z" fill="white"/>
<path d="M12.5013 9.19971H10.123V11.5552H12.5013V9.19971Z" fill="white"/>
<path d="M2.15947 16.8872H-0.21875V19.2425H2.15947V16.8872Z" fill="white"/>
<path d="M12.5013 11.7568H10.123V14.1121H12.5013V11.7568Z" fill="white"/>
<path d="M4.73174 1.49512H2.35352V3.85039H4.73174V1.49512Z" fill="white"/>
<path d="M4.73174 4.06934H2.35352V6.42461H4.73174V4.06934Z" fill="white"/>
<path d="M4.73174 6.62598H2.35352V8.98147H4.73174V6.62598Z" fill="white"/>
<path d="M9.91924 14.3306H7.54102V16.6858H9.91924V14.3306Z" fill="white"/>
<path d="M9.91924 16.8872H7.54102V19.2425H9.91924V16.8872Z" fill="white"/>
<path d="M4.73174 9.19971H2.35352V11.5552H4.73174V9.19971Z" fill="white"/>
<path d="M4.73174 11.7568H2.35352V14.1121H4.73174V11.7568Z" fill="white"/>
<path d="M9.88603 6.62598H7.50781V8.98147H9.88603V6.62598Z" fill="white"/>
<path d="M4.73174 14.3306H2.35352V16.6858H4.73174V14.3306Z" fill="white"/>
<path d="M9.91924 9.19971H7.54102V11.5552H9.91924V9.19971Z" fill="white"/>
<path d="M4.73174 16.8872H2.35352V19.2425H4.73174V16.8872Z" fill="white"/>
<path d="M9.91924 11.7568H7.54102V14.1121H9.91924V11.7568Z" fill="white"/>
<path d="M19.5013 14.3306H17.123V16.6858H19.5013V14.3306Z" fill="white"/>
<path d="M19.5013 16.8872H17.123V19.2425H19.5013V16.8872Z" fill="white"/>
<path d="M19.5013 6.62598H17.123V8.98147H19.5013V6.62598Z" fill="white"/>
<path d="M19.5013 9.19971H17.123V11.5552H19.5013V9.19971Z" fill="white"/>
<path d="M19.5013 11.7568H17.123V14.1121H19.5013V11.7568Z" fill="white"/>
<path d="M19.5013 1.49512H17.123V3.85039H19.5013V1.49512Z" fill="white"/>
<path d="M16.9192 14.3306H14.541V16.6858H16.9192V14.3306Z" fill="white"/>
<path d="M16.9192 16.8872H14.541V19.2425H16.9192V16.8872Z" fill="white"/>
<path d="M16.9192 6.62598H14.541V8.98147H16.9192V6.62598Z" fill="white"/>
<path d="M16.9192 9.19971H14.541V11.5552H16.9192V9.19971Z" fill="white"/>
<path d="M16.9192 11.7568H14.541V14.1121H16.9192V11.7568Z" fill="white"/>
<path d="M16.9192 1.49512H14.541V3.85039H16.9192V1.49512Z" fill="white"/>
</g>
<defs>
<clipPath id="clip0_2344_7551">
<rect width="91" height="24" fill="white" transform="translate(0.5 0.737793)"/>
</clipPath>
</defs>
</svg>
