<svg width="42" height="43" viewBox="0 0 42 43" fill="none" xmlns="http://www.w3.org/2000/svg">
<g clip-path="url(#clip0_2344_7689)">
<mask id="mask0_2344_7689" style="mask-type:luminance" maskUnits="userSpaceOnUse" x="0" y="0" width="42" height="43">
<path d="M42 0.737793H0V42.7378H42V0.737793Z" fill="white"/>
</mask>
<g mask="url(#mask0_2344_7689)">
<path d="M38.9096 0.737793H3.09961V42.7378H38.9096V0.737793Z" fill="#B59959"/>
<path d="M36.4895 3.7876H5.51953V34.2676H36.4895V3.7876Z" fill="black"/>
<path d="M12.2398 38.2478V39.1378H14.0998V39.7378H11.5098V36.2578H14.0498V36.8678H12.2398V37.6278H13.8698V38.2478H12.2398Z" fill="black"/>
<path d="M17.0005 39.5578C16.7148 39.7771 16.3601 39.887 16.0005 39.8678C15.6404 39.8907 15.2845 39.7804 15.0005 39.5578C14.8785 39.4474 14.7828 39.311 14.7205 39.1587C14.6582 39.0064 14.6309 38.8421 14.6405 38.6778V36.2578H15.3605V38.7378C15.3605 39.1078 15.5805 39.2878 16.0005 39.2878C16.4205 39.2878 16.6305 39.1078 16.6305 38.7378V36.2578H17.3505V38.6778C17.3614 38.8413 17.3356 39.0051 17.2751 39.1574C17.2145 39.3096 17.1207 39.4464 17.0005 39.5578Z" fill="black"/>
<path d="M20 38.0777C20.1415 38.0965 20.2722 38.1636 20.37 38.2677C20.4488 38.381 20.5001 38.5111 20.52 38.6477L20.7 39.7377H20L19.92 38.8477C19.9142 38.7167 19.8608 38.5923 19.77 38.4977C19.6609 38.416 19.5258 38.3769 19.39 38.3877H18.7V39.7377H18V36.2577H19.6C19.751 36.2429 19.9035 36.2592 20.048 36.3056C20.1925 36.3521 20.3259 36.4277 20.44 36.5277C20.5281 36.6189 20.5966 36.7272 20.6413 36.8458C20.686 36.9645 20.706 37.091 20.7 37.2177C20.7122 37.4227 20.647 37.6247 20.5174 37.784C20.3878 37.9432 20.2032 38.048 20 38.0777ZM18.7 36.8677V37.8077H19.39C19.5509 37.8218 19.7114 37.7754 19.84 37.6777C19.8898 37.6323 19.9291 37.5766 19.955 37.5144C19.981 37.4522 19.9929 37.385 19.99 37.3177C19.9931 37.2575 19.9841 37.1972 19.9635 37.1405C19.9429 37.0838 19.9111 37.0319 19.87 36.9877C19.7633 36.9007 19.6273 36.8578 19.49 36.8677H18.7Z" fill="black"/>
<path d="M24 39.3477C23.8511 39.5153 23.6675 39.6486 23.4621 39.7383C23.2566 39.8281 23.0342 39.8723 22.81 39.8677C22.587 39.8742 22.3654 39.8309 22.1613 39.741C21.9571 39.651 21.7756 39.5167 21.63 39.3477C21.3283 38.9662 21.1641 38.4941 21.1641 38.0077C21.1641 37.5213 21.3283 37.0492 21.63 36.6677C21.7821 36.5061 21.9669 36.3788 22.1721 36.2943C22.3773 36.2098 22.5982 36.17 22.82 36.1777C23.0415 36.1719 23.2619 36.2125 23.4668 36.2969C23.6717 36.3813 23.8567 36.5076 24.01 36.6677C24.1724 36.8473 24.2976 37.0573 24.3783 37.2856C24.459 37.5139 24.4935 37.7559 24.48 37.9977C24.5045 38.4934 24.3319 38.9787 24 39.3477ZM22.13 38.8977C22.2056 39.007 22.3075 39.0955 22.4264 39.1549C22.5453 39.2143 22.6772 39.2428 22.81 39.2377C22.9427 39.2419 23.0743 39.213 23.193 39.1536C23.3117 39.0943 23.4138 39.0063 23.49 38.8977C23.6746 38.6351 23.7661 38.3183 23.75 37.9977C23.7632 37.6868 23.6716 37.3804 23.49 37.1277C23.4114 37.0222 23.3086 36.9371 23.1903 36.8797C23.0719 36.8222 22.9415 36.7941 22.81 36.7977C22.6782 36.7924 22.5472 36.8198 22.4286 36.8773C22.3099 36.9349 22.2074 37.0209 22.13 37.1277C21.9585 37.3848 21.8711 37.6888 21.88 37.9977C21.8638 38.3154 21.9478 38.6302 22.12 38.8977H22.13Z" fill="black"/>
<path d="M25 36.2578H26.39C26.7172 36.2399 27.039 36.3471 27.29 36.5578C27.498 36.7862 27.6133 37.0839 27.6133 37.3928C27.6133 37.7017 27.498 37.9995 27.29 38.2278C27.0252 38.4498 26.6848 38.5608 26.34 38.5378H25.74V39.7378H25V36.2578ZM25.73 37.9178H26.27C26.4371 37.9313 26.6036 37.8853 26.74 37.7878C26.7961 37.7378 26.8404 37.676 26.8697 37.6068C26.8991 37.5377 26.9129 37.4629 26.91 37.3878C26.9138 37.3174 26.9024 37.247 26.8765 37.1814C26.8506 37.1158 26.8109 37.0566 26.76 37.0078C26.6425 36.9102 26.4926 36.8602 26.34 36.8678H25.73V37.9178Z" fill="black"/>
<path d="M28.68 38.2478V39.1378H30.55V39.7378H28V36.2578H30.5V36.8678H28.68V37.6278H30.31V38.2478H28.68Z" fill="black"/>
<path d="M14.0496 32.0677H13.2896L13.0596 31.3577H11.8296L11.5996 32.0677H10.8496L12.0496 28.6577H12.8696L14.0496 32.0677ZM12.1596 30.3577L11.9996 30.7377H12.8596L12.7196 30.3177L12.4296 29.3177L12.1596 30.3577Z" fill="#B59959"/>
<path d="M17.1795 30.3577L17.6195 28.6577H18.3495L17.3495 32.0677H16.6695L16.1595 29.7377L15.6295 32.0677H14.9395L13.9395 28.6577H14.6895L15.1295 30.3577L15.2895 31.0477L15.4295 30.3577L15.7995 28.6577H16.4995L16.8695 30.3577L17.0095 31.0477L17.1795 30.3577Z" fill="#B59959"/>
<path d="M21.45 32.0677H20.69L20.47 31.3577H19.23L19 32.0677H18.25L19.46 28.6577H20.27L21.45 32.0677ZM19.56 30.3577L19.42 30.7777H20.28L20.14 30.3577L19.85 29.3577L19.56 30.3577Z" fill="#B59959"/>
<path d="M23.8889 30.4279C24.0269 30.4489 24.1537 30.5159 24.2489 30.6179C24.3319 30.7252 24.3837 30.8532 24.3989 30.9879L24.5289 32.0679H23.8089L23.7289 31.1879C23.7196 31.0626 23.6706 30.9434 23.5889 30.8479C23.4777 30.7714 23.3433 30.736 23.2089 30.7479H22.5889V32.0679H21.8789V28.6579H23.4589C23.6083 28.6451 23.7587 28.6624 23.9013 28.7087C24.0439 28.7551 24.1757 28.8296 24.2889 28.9279C24.3727 29.0176 24.438 29.1229 24.4809 29.2379C24.5238 29.3529 24.5435 29.4753 24.5389 29.5979C24.5518 29.792 24.4925 29.984 24.3726 30.1372C24.2527 30.2903 24.0804 30.3939 23.8889 30.4279ZM22.5889 29.2579V30.1679H23.2589C23.415 30.1798 23.5704 30.1374 23.6989 30.0479C23.7485 30.0045 23.7878 29.9506 23.8137 29.89C23.8397 29.8294 23.8517 29.7638 23.8489 29.6979C23.852 29.6377 23.843 29.5774 23.8224 29.5207C23.8018 29.464 23.77 29.4121 23.7289 29.3679C23.6217 29.2901 23.4912 29.2513 23.3589 29.2579H22.5889Z" fill="#B59959"/>
<path d="M25.1094 28.6577H26.3594C27.4394 28.6577 27.9794 29.2277 27.9794 30.3577C28.0086 30.8114 27.8698 31.2599 27.5894 31.6177C27.4475 31.7734 27.272 31.8949 27.0762 31.9729C26.8805 32.0508 26.6695 32.0832 26.4594 32.0677H25.1094V28.6577ZM25.8194 31.4677H26.3694C26.4981 31.4798 26.6279 31.4626 26.7491 31.4176C26.8703 31.3726 26.9798 31.3009 27.0694 31.2077C27.2243 30.9527 27.2944 30.6551 27.2694 30.3577C27.2965 30.0557 27.2226 29.7532 27.0594 29.4977C26.9541 29.4002 26.829 29.3265 26.6927 29.2817C26.5564 29.2368 26.412 29.2218 26.2694 29.2377H25.8194V31.4677Z" fill="#B59959"/>
<path d="M29.7597 32.1779C29.3996 32.1883 29.0468 32.0754 28.7597 31.8579C28.6316 31.757 28.5288 31.6277 28.4593 31.4801C28.3899 31.3326 28.3558 31.1709 28.3597 31.0079H28.9997C28.9993 31.0909 29.018 31.1729 29.0545 31.2474C29.0909 31.322 29.144 31.3872 29.2097 31.4379C29.3648 31.5541 29.5564 31.6109 29.7497 31.5979C29.9071 31.6047 30.0632 31.5665 30.1997 31.4879C30.2545 31.4552 30.2994 31.408 30.3293 31.3516C30.3593 31.2952 30.3733 31.2317 30.3697 31.1679C30.3722 31.1195 30.3625 31.0712 30.3415 31.0275C30.3206 30.9839 30.289 30.9462 30.2497 30.9179C30.1296 30.8361 29.9931 30.7815 29.8497 30.7579L29.2197 30.5979C28.9874 30.547 28.7752 30.4287 28.6097 30.2579C28.4614 30.09 28.3827 29.8718 28.3897 29.6479C28.3886 29.5067 28.4175 29.3668 28.4744 29.2376C28.5312 29.1083 28.6149 28.9925 28.7197 28.8979C28.9799 28.6747 29.3177 28.5632 29.6597 28.5879C30.0183 28.564 30.3735 28.6705 30.6597 28.8878C30.7812 28.9879 30.8797 29.1129 30.9487 29.2544C31.0177 29.3958 31.0556 29.5505 31.0597 29.7078H30.3797C30.3609 29.551 30.282 29.4076 30.1597 29.3079C30.0208 29.207 29.8511 29.1575 29.6797 29.1679C29.5346 29.1584 29.3905 29.1971 29.2697 29.2779C29.2228 29.3126 29.1848 29.3578 29.1588 29.4099C29.1327 29.4621 29.1193 29.5196 29.1197 29.5779C29.1197 29.7579 29.2497 29.8878 29.5197 29.9578L30.1997 30.1278C30.8097 30.2778 31.1197 30.5978 31.1197 31.1278C31.126 31.2771 31.0966 31.4257 31.034 31.5613C30.9714 31.697 30.8774 31.8159 30.7597 31.9079C30.4668 32.1092 30.1141 32.2044 29.7597 32.1779Z" fill="#B59959"/>
<path d="M13.439 15.8277C12.4554 15.8911 11.4821 15.5963 10.699 14.9977C10.371 14.7048 10.1114 14.3434 9.93861 13.939C9.7658 13.5346 9.68401 13.0972 9.69901 12.6577H11.999C12.0043 12.8744 12.0531 13.0879 12.1424 13.2854C12.2317 13.483 12.3598 13.6606 12.519 13.8077C12.8445 14.0383 13.2418 14.1447 13.639 14.1077C14.479 14.1077 14.989 13.8777 14.989 13.1777C14.989 12.7877 14.729 12.4277 14.099 12.1777C13.4979 11.9475 12.8834 11.7539 12.259 11.5977C11.6626 11.3958 11.0997 11.106 10.589 10.7377C10.1551 10.2979 9.91097 9.70548 9.90901 9.08768C9.88537 8.71021 9.9509 8.33248 10.1003 7.98503C10.2497 7.63759 10.4788 7.33018 10.769 7.08768C11.5737 6.56774 12.5223 6.31572 13.479 6.36768C14.4025 6.3017 15.3187 6.5716 16.059 7.12768C16.3957 7.41966 16.6701 7.77643 16.866 8.17673C17.0618 8.57704 17.1751 9.01267 17.199 9.45768H14.999C14.9741 9.10379 14.8176 8.77204 14.5603 8.52775C14.3031 8.28345 13.9637 8.1443 13.609 8.13768C12.749 8.13768 12.399 8.55768 12.399 8.96768C12.3907 9.19212 12.4582 9.41283 12.5906 9.59424C12.7231 9.77564 12.9127 9.90719 13.129 9.96768C13.909 10.2277 14.369 10.3477 14.719 10.4577C15.939 10.8177 17.259 11.4577 17.299 12.9977C17.3266 13.4033 17.2544 13.8095 17.0888 14.1808C16.9232 14.5521 16.6692 14.8772 16.349 15.1277C15.4699 15.6445 14.457 15.8882 13.439 15.8277Z" fill="#B59959"/>
<path d="M27.8587 12.428V10.578H32.3787C32.3787 13.038 31.8687 14.028 31.3787 14.518C30.3787 15.518 29.6087 15.828 27.6787 15.828C27.0661 15.8429 26.4573 15.7284 25.8919 15.4922C25.3265 15.2559 24.8172 14.9031 24.3973 14.4568C23.9774 14.0105 23.6563 13.4807 23.455 12.902C23.2536 12.3232 23.1765 11.7085 23.2287 11.098C23.1811 10.4664 23.2702 9.83201 23.4898 9.23792C23.7094 8.64383 24.0544 8.10402 24.5013 7.6552C24.9482 7.20639 25.4866 6.85911 26.0797 6.637C26.6729 6.41488 27.3069 6.32314 27.9387 6.36801C31.0987 6.36801 32.0387 8.26801 32.3887 9.61801H30.0587C29.9293 9.18836 29.6506 8.81914 29.2728 8.57706C28.895 8.33498 28.4431 8.23601 27.9987 8.29801C27.6538 8.31206 27.3155 8.39739 27.0051 8.54864C26.6948 8.69989 26.4191 8.91378 26.1955 9.17682C25.9719 9.43987 25.8053 9.74638 25.706 10.077C25.6067 10.4077 25.577 10.7553 25.6187 11.098C25.6187 12.008 26.0087 13.978 28.0887 13.978C28.5717 13.9998 29.048 13.8589 29.4415 13.5779C29.8349 13.2968 30.1227 12.8919 30.2587 12.428H27.8587Z" fill="#B59959"/>
<path d="M19.1204 17.8076V26.8376H16.8604V22.0576L15.4804 25.2176L14.7804 26.8376H13.9204L13.2204 25.2176L11.9204 22.2476V26.8376H9.65039V17.8076H12.2604L14.3504 22.6176L16.4404 17.8076H19.1204Z" fill="#B59959"/>
<path d="M25.9992 17.8076H22.9992L19.6992 26.8076H21.9992L22.6692 24.9776H26.3992L26.9992 26.8376H29.2592L25.9992 17.8076ZM23.3292 23.1276L24.4992 19.9176L25.6792 23.1276H23.3292Z" fill="#B59959"/>
<path d="M21.5493 9.5376H19.2793V15.8376H21.5493V9.5376Z" fill="#B59959"/>
<path d="M21.5493 6.43799H19.2793V8.47799H21.5493V6.43799Z" fill="#B59959"/>
<path d="M29.6098 17.8076H27.3398L30.6398 26.8376" fill="#BE8AFF"/>
<path d="M32.2598 26.8376H30.6398L27.3398 17.8076H32.2598V26.8376Z" fill="#FF0000"/>
</g>
</g>
<defs>
<clipPath id="clip0_2344_7689">
<rect width="42" height="42" fill="white" transform="translate(0 0.737793)"/>
</clipPath>
</defs>
</svg>
