<svg width="84" height="25" viewBox="0 0 84 25" fill="none" xmlns="http://www.w3.org/2000/svg">
<path d="M22.3575 3.50092C22.3575 4.21491 22.0623 4.89804 21.5364 5.40421C21.0106 5.90833 20.2956 6.19227 19.5514 6.19227C18.8073 6.19227 18.0943 5.90833 17.5663 5.40421C17.0405 4.9001 16.7454 4.21491 16.7454 3.50092C16.7454 2.78693 17.0405 2.1038 17.5663 1.59764C18.0923 1.09352 18.8052 0.80957 19.5514 0.80957C20.2956 0.80957 21.0084 1.09352 21.5364 1.59764C22.0602 2.10175 22.3575 2.78693 22.3575 3.50092Z" fill="#FF2400"/>
<path d="M22.3576 7.79102H16.7454V20.7316H22.3576V7.79102Z" fill="#FF2400"/>
<path d="M49.6522 13.2603V7.79102H40.7183V13.2603H49.6522Z" fill="#FF2400"/>
<path d="M7.56411 15.7913C11.7422 15.7913 15.1282 12.4373 15.1282 8.3014C15.1282 4.1655 11.7422 0.811523 7.56411 0.811523C3.38607 0.811523 0 4.1655 0 8.3014V20.7317H5.47302V15.5011V8.31374C5.47302 8.30963 5.47302 8.30551 5.47302 8.3014C5.47302 7.15734 6.41048 6.22933 7.56619 6.22933C8.72194 6.22933 9.6594 7.15734 9.6594 8.3014C9.6594 9.44549 8.72194 10.3734 7.56619 10.3734C7.3999 10.3734 7.23777 10.3549 7.08395 10.3179V15.7769C7.23985 15.7851 7.40198 15.7913 7.56411 15.7913Z" fill="#FF2400"/>
<path d="M75.5788 15.7913C79.7567 15.7913 83.1429 12.4373 83.1429 8.3014C83.1429 4.1655 79.7567 0.811523 75.5788 0.811523C71.4007 0.811523 68.0146 4.1655 68.0146 8.3014V20.7317H73.4876V15.7913V8.3014C73.4876 7.15734 74.4251 6.22933 75.5808 6.22933C76.7365 6.22933 77.674 7.15734 77.674 8.3014C77.674 9.44549 76.7365 10.3734 75.5808 10.3734C75.4145 10.3734 75.2524 10.3549 75.0986 10.3179V15.7769C75.2566 15.7851 75.4166 15.7913 75.5788 15.7913Z" fill="#FF2400"/>
<path d="M39.1031 8.29945V20.7297H33.6301V8.45789C33.6301 7.9085 33.4097 7.38174 33.0169 6.99284C32.624 6.60394 32.0919 6.38582 31.5369 6.38582C30.9819 6.38582 30.4498 6.60394 30.0569 6.99284C29.6641 7.38174 29.4437 7.9085 29.4437 8.45789C29.4437 8.46406 29.4437 8.46818 29.4437 8.47435V15.4992V20.7297H23.9707V8.29945C23.9707 4.16355 27.3568 0.80957 31.5348 0.80957C35.7149 0.80957 39.1031 4.16355 39.1031 8.29945Z" fill="#FF2400"/>
<path d="M51.2693 13.242V1.07715H56.7423V6.04022V13.0547C56.7423 13.063 56.7423 13.0733 56.7423 13.0815C56.7423 13.6309 56.9626 14.1576 57.3555 14.5466C57.7483 14.9355 58.2805 15.1535 58.8355 15.1535C59.3905 15.1535 59.9226 14.9355 60.3155 14.5466C60.7083 14.1576 60.9286 13.6309 60.9286 13.0815V1.07715H66.4016V13.242C66.4016 17.3779 63.0135 20.7319 58.8375 20.7319C54.6553 20.7319 51.2693 17.3779 51.2693 13.242Z" fill="#FF2400"/>
<path d="M0 22.8096H83.1429V23.0953C83.1429 24.0421 82.3754 24.8096 81.4286 24.8096H1.71429C0.767512 24.8096 0 24.0421 0 23.0953V22.8096Z" fill="#00CFA6"/>
</svg>
