<svg width="32" height="33" viewBox="0 0 32 33" fill="none" xmlns="http://www.w3.org/2000/svg">
<g clip-path="url(#clip0_2342_2266)">
<mask id="mask0_2342_2266" style="mask-type:luminance" maskUnits="userSpaceOnUse" x="0" y="0" width="32" height="32">
<path d="M31.5749 0.11377H0V31.6887H31.5749V0.11377Z" fill="white"/>
</mask>
<g mask="url(#mask0_2342_2266)">
<path d="M23.3348 2.10591C23.3969 2.29835 23.4578 2.49081 23.5197 2.68325C23.868 3.2754 23.8413 3.9204 23.7644 4.56225C23.5283 6.529 22.5251 8.08339 21.0295 9.33322C19.4676 10.6402 17.675 11.5168 15.673 11.9609C15.2499 12.1258 14.7948 12.129 14.3557 12.2146C12.6604 12.4493 11.0632 12.1448 9.4992 11.4692C6.71518 10.2658 5.80391 7.12221 6.79744 4.66798C7.58158 2.73084 9.0676 1.40486 10.7673 0.2745C10.8794 0.200482 10.997 0.194138 11.122 0.216343C10.9884 0.653048 10.5804 0.878274 10.3293 1.22721C9.2663 2.70652 8.84432 4.28732 9.55902 6.02675C9.9842 7.05982 10.7833 7.76193 11.8068 8.21661C13.1528 8.98957 14.5822 9.06887 16.0693 8.74003C18.1322 8.28217 19.9611 7.38761 21.4835 5.91995C22.3125 5.12161 22.9064 4.18475 23.149 3.05017C23.2323 2.8112 23.1682 2.56377 23.1896 2.32162C23.1982 2.22434 23.1661 2.09957 23.3338 2.10697L23.3348 2.10591Z" fill="white"/>
<path d="M25.6971 25.9927C21.7358 26.4453 18.3856 25.1859 15.594 22.4166C14.1497 20.9838 13.262 19.2677 13.091 17.2237V17.211C12.9179 14.4279 14.8121 12.1123 17.8706 11.6924C17.9304 11.684 17.9978 11.7295 18.0619 11.7485C18.1345 11.9769 17.9946 12.1567 17.9123 12.3449C17.3675 13.582 17.0469 14.8806 17.0117 16.2202C16.9433 18.849 18.079 20.8876 20.2722 22.3532C21.0318 22.8608 21.7795 23.3936 22.6545 23.7035C24.1031 24.3833 25.5902 24.8211 27.2173 24.45C27.7451 24.3295 28.199 24.0693 28.6446 23.7838C28.7449 23.7447 28.7908 23.8039 28.8251 23.8832C28.8401 24.2036 28.6253 24.3886 28.4074 24.5695C27.6552 25.1912 26.839 25.6903 25.8541 25.8616C25.7783 25.8754 25.7366 25.9356 25.6971 25.9927Z" fill="white"/>
<path d="M13.9729 8.30953C11.895 8.33596 10.3524 7.04699 10.2658 5.2103C10.1441 2.61544 12.739 0.980703 15.2089 2.0952C17.4449 3.12934 17.6949 6.35652 15.5166 7.8263C15.0583 8.13506 14.5219 8.25666 13.9729 8.30953Z" fill="white"/>
<path d="M7.76128 23.6891C5.74324 23.8413 3.84059 23.4057 1.97852 22.5967C2.2221 22.5502 2.44003 22.5513 2.63233 22.5999C3.49231 22.8167 4.36405 22.9764 5.25395 22.9108C8.26872 22.6909 10.7407 20.2609 10.9769 17.2653C11.0784 15.9838 10.6638 14.8164 10.0186 13.722C9.57099 12.9628 9.01227 12.286 8.41508 11.6358C8.3168 11.529 8.07536 11.4814 8.17364 11.2456C8.52298 11.2477 8.72275 11.5205 8.9674 11.6961C10.368 12.6974 11.5078 13.9198 12.2332 15.4953C12.8005 16.7293 13.0131 18.0267 12.7887 19.3484C12.4223 21.5066 11.041 22.7976 8.97594 23.4332C8.58495 23.5854 8.16723 23.6076 7.76128 23.688V23.6891Z" fill="white"/>
<path d="M8.98788 23.391C10.1961 22.948 11.2324 22.266 11.9385 21.179C13.0688 19.4417 12.9171 17.605 12.2035 15.7905C11.4236 13.8068 9.9344 12.3984 8.17383 11.2458C8.18985 10.9846 8.34261 11.1358 8.41419 11.1845C10.5209 12.6204 12.2878 14.3228 12.9193 16.8986C12.9492 17.0224 12.9834 17.1313 13.0902 17.2084V17.2222C12.9854 17.8958 13.149 18.5683 13.0549 19.2514C12.7783 21.2604 11.0316 23.1183 8.99108 23.4936C8.96544 23.4714 8.9569 23.4482 8.96437 23.4249C8.97185 23.4017 8.97933 23.39 8.98788 23.39V23.391Z" fill="#FCAA0C"/>
<path d="M22.6548 23.7021C22.6035 23.7021 22.5426 23.72 22.5009 23.7009C18.2159 21.6982 15.9767 19.0717 17.2245 13.8937C17.405 13.1439 17.6828 12.4249 18.0621 11.7471C18.4541 11.6646 18.4018 11.8221 18.2757 12.0886C17.5204 13.6832 17.1498 15.3581 17.2844 17.124C17.42 18.9067 18.0898 20.4357 19.485 21.62C20.4562 22.4437 21.5373 23.0983 22.6548 23.7021Z" fill="#FCAA0D"/>
<path d="M15.6902 11.9195C17.8696 11.3115 19.8555 10.3515 21.4687 8.74103C23.1523 7.05977 23.9824 5.08244 23.5188 2.68321C23.5882 2.43261 23.5508 2.18306 23.5209 1.92188C23.8627 2.37338 23.93 2.90632 23.9792 3.4329C24.1501 5.25903 23.5572 6.85146 22.3618 8.21868C20.5884 10.2468 18.3247 11.4522 15.6913 12.0095C15.6678 11.9905 15.6592 11.9703 15.6667 11.9502C15.6742 11.9302 15.6827 11.9195 15.6902 11.9195Z" fill="#FCAA0D"/>
<path d="M11.8067 8.2166C10.4499 7.87929 9.21609 6.35558 9.08789 4.86782C8.92231 2.95499 9.7246 1.45877 11.1209 0.216328C11.2128 0.185663 11.2939 0.0534884 11.3965 0.148654C11.4745 0.221614 11.4083 0.313608 11.343 0.375995C10.9981 0.705903 10.6732 1.05484 10.4105 1.45137C9.34749 3.0565 9.01418 4.72719 9.98207 6.50256C10.4008 7.27128 11.1081 7.73971 11.8067 8.21766V8.2166Z" fill="#FCAA0C"/>
<path d="M13.9737 8.30954C14.5868 8.14565 15.1905 7.96695 15.6904 7.54504C17.3742 6.12496 17.2801 3.62316 15.4907 2.32573C15.3924 2.25488 15.3038 2.17241 15.2097 2.09521C16.4575 2.50337 17.0269 3.45186 17.2352 4.65517C17.5611 6.53946 15.9062 8.38039 13.9737 8.30954Z" fill="#FBAA0F"/>
<path d="M25.6973 25.9924C25.7218 25.7334 25.96 25.801 26.1031 25.7503C27.1618 25.3781 28.103 24.8441 28.7814 23.9273C28.8082 23.829 28.8551 23.756 28.9748 23.7751C29.2023 23.739 29.2707 23.4895 29.5977 23.3647C28.6468 24.898 27.321 25.6594 25.6973 25.9935V25.9924Z" fill="#F8AA14"/>
<path d="M15.6899 11.9199C15.6899 11.9495 15.6909 11.9792 15.6919 12.0088C15.2603 12.1653 14.817 12.2446 14.3555 12.2139C14.8 12.1155 15.2454 12.0183 15.6899 11.9199Z" fill="#F4A611"/>
<path d="M23.3332 2.10622C23.1259 2.39277 23.3867 2.76921 23.1484 3.04941V1.66211C23.2755 1.83341 23.3418 1.95078 23.3332 2.10622Z" fill="white"/>
<path d="M8.98814 23.3911C8.98814 23.426 8.99028 23.4609 8.99134 23.4958C8.59715 23.6555 8.18798 23.7242 7.76172 23.6893C8.17089 23.5899 8.57898 23.4905 8.98814 23.3911Z" fill="#F0A516"/>
<path d="M28.9738 23.7745C28.9097 23.8252 28.8445 23.876 28.7805 23.9267C28.7346 23.8792 28.6885 23.8305 28.6426 23.783C28.8083 23.6106 28.9727 23.4382 29.1544 23.25C29.2355 23.4964 28.993 23.5957 28.9727 23.7745H28.9738Z" fill="white"/>
<path d="M1.44141 27.7337H1.62089V27.4292H1.82493V27.7337H2.05355V27.8944H1.82493V28.4887C1.82493 28.5861 1.8495 28.6347 1.94351 28.6347C1.96701 28.6347 2.00334 28.6347 2.03111 28.6272V28.7753C1.98303 28.7922 1.91787 28.7944 1.86552 28.7944C1.69246 28.7944 1.62089 28.7055 1.62089 28.5289V27.8934H1.44141V27.7327V27.7337Z" fill="white"/>
<path d="M2.44233 27.2729V27.8831C2.49467 27.7954 2.58868 27.7097 2.76709 27.7097C2.9455 27.7097 3.12283 27.8059 3.12283 28.1126V28.7819H2.91986V28.1453C2.91986 27.9751 2.84935 27.8821 2.70086 27.8821C2.51604 27.8821 2.44233 28.0058 2.44233 28.213V28.7819H2.23828V27.2729H2.44233Z" fill="white"/>
<path d="M3.56165 28.2963C3.56273 28.493 3.66314 28.6399 3.83621 28.6399C3.99432 28.6399 4.0456 28.5617 4.07765 28.4877H4.28276C4.24217 28.621 4.12786 28.806 3.8298 28.806C3.49435 28.806 3.35547 28.5405 3.35547 28.2699C3.35547 27.9547 3.51678 27.7095 3.84155 27.7095C4.18661 27.7095 4.30092 27.9781 4.30092 28.2096C4.30092 28.2424 4.30092 28.2678 4.29771 28.2963H3.56165ZM4.09474 28.1588C4.0926 27.996 4.01248 27.8649 3.83941 27.8649C3.66634 27.8649 3.58516 27.9865 3.56806 28.1588H4.09474Z" fill="white"/>
<path d="M5.07422 27.3525H5.64256C5.95557 27.3525 6.09659 27.5153 6.09659 27.7109C6.09659 27.8759 6.00258 27.9838 5.89361 28.0219C5.99403 28.0547 6.14252 28.1551 6.14252 28.3613C6.14252 28.6256 5.93741 28.7811 5.65752 28.7811H5.07422V27.3525ZM5.60623 27.9415C5.80387 27.9415 5.88186 27.8633 5.88186 27.7311C5.88186 27.6084 5.79212 27.5249 5.63188 27.5249H5.28468V27.9415H5.60623ZM5.28468 28.6098H5.62653C5.80601 28.6098 5.92246 28.5284 5.92246 28.3592C5.92246 28.2112 5.82631 28.1128 5.59662 28.1128H5.28468V28.6087V28.6098Z" fill="white"/>
<path d="M6.64908 28.3712L6.50166 28.7816H6.28906L6.79865 27.353H7.06359L7.5956 28.7816H7.36805L7.21529 28.3712H6.64801H6.64908ZM7.16294 28.1915C7.03153 27.8299 6.95782 27.6321 6.92684 27.519H6.92471C6.88944 27.6438 6.80719 27.8817 6.70143 28.1915H7.16294Z" fill="white"/>
<path d="M7.8125 27.3525H8.02723V28.6014H8.77398L8.74514 28.7811H7.8125V27.3525Z" fill="white"/>
<path d="M9.06112 27.5323H8.59961V27.3525H9.73735V27.5323H9.27585V28.7811H9.06005V27.5323H9.06112Z" fill="white"/>
<path d="M10.1561 27.3525V28.7811H9.94141V27.3525H10.1561Z" fill="white"/>
<path d="M11.6882 28.3693C11.6253 28.6168 11.4394 28.7997 11.105 28.7997C10.668 28.7997 10.4512 28.4761 10.4512 28.0722C10.4512 27.6682 10.6702 27.332 11.1136 27.332C11.4618 27.332 11.6477 27.5297 11.6882 27.7687H11.4735C11.4255 27.6217 11.3271 27.5054 11.105 27.5054C10.7984 27.5054 10.6734 27.7814 10.6734 28.0648C10.6734 28.3482 10.7899 28.6252 11.1124 28.6252C11.3315 28.6252 11.4222 28.4972 11.4715 28.3693H11.6862H11.6882Z" fill="white"/>
<path d="M13.2578 28.5452C13.2578 28.6414 13.2663 28.7525 13.2727 28.782H13.0772C13.0686 28.7588 13.0622 28.708 13.0601 28.6519C13.0227 28.7197 12.9404 28.8074 12.7397 28.8074C12.4886 28.8074 12.3828 28.6457 12.3828 28.486C12.3828 28.2512 12.5698 28.1434 12.8839 28.1434H13.059V28.0588C13.059 27.9699 13.0302 27.8653 12.8443 27.8653C12.6776 27.8653 12.6488 27.9457 12.6307 28.026H12.4341C12.4479 27.8737 12.5442 27.7098 12.8507 27.7109C13.1146 27.7109 13.2599 27.8166 13.2599 28.0578V28.5462L13.2578 28.5452ZM13.058 28.2777H12.8967C12.6926 28.2777 12.589 28.3347 12.589 28.4733C12.589 28.5759 12.6584 28.6519 12.7845 28.6519C13.0259 28.6519 13.058 28.4902 13.058 28.3105V28.2777Z" fill="white"/>
<path d="M13.5627 27.9981C13.5627 27.9073 13.5627 27.8152 13.5605 27.7338H13.7593C13.7646 27.7645 13.7678 27.867 13.7668 27.8988C13.8074 27.8131 13.8939 27.7095 14.0947 27.7095C14.2955 27.7095 14.4473 27.8343 14.4473 28.1092V28.7817H14.2432V28.1346C14.2432 27.9844 14.1856 27.8819 14.0296 27.8819C13.8447 27.8819 13.7657 28.0162 13.7657 28.2223V28.7827H13.5617V27.9992L13.5627 27.9981Z" fill="white"/>
<path d="M15.6458 27.2729V28.4869C15.6458 28.5853 15.6458 28.6815 15.648 28.7809H15.4513C15.4461 28.7523 15.4427 28.6772 15.4417 28.6402C15.3894 28.7438 15.2857 28.8063 15.1148 28.8063C14.8435 28.8063 14.6758 28.5895 14.6758 28.268C14.6758 27.9466 14.8563 27.7097 15.1501 27.7097C15.3306 27.7097 15.4139 27.7805 15.4407 27.8366V27.2729H15.6447H15.6458ZM14.8873 28.2616C14.8873 28.5048 15.0005 28.6371 15.1629 28.6371C15.4011 28.6371 15.4503 28.4594 15.4503 28.2447C15.4503 28.0301 15.4054 27.8779 15.1768 27.8779C14.9963 27.8779 14.8883 28.0184 14.8883 28.2616H14.8873Z" fill="white"/>
<path d="M16.6175 28.3799C16.6559 28.5459 16.7713 28.6326 16.9722 28.6326C17.1858 28.6326 17.2723 28.5353 17.2723 28.4063C17.2723 28.2678 17.2018 28.1938 16.9198 28.1261C16.5694 28.0425 16.4551 27.9221 16.4551 27.7233C16.4551 27.5043 16.6185 27.332 16.9444 27.332C17.2959 27.332 17.439 27.5297 17.4593 27.7222H17.2414C17.2178 27.6027 17.1431 27.5001 16.9369 27.5001C16.7703 27.5001 16.6762 27.5731 16.6762 27.7031C16.6762 27.8332 16.7542 27.8808 17.0031 27.94C17.4166 28.0394 17.4924 28.197 17.4924 28.3841C17.4924 28.6199 17.3151 28.8007 16.9561 28.8007C16.5971 28.8007 16.4294 28.6072 16.3984 28.3809H16.6163L16.6175 28.3799Z" fill="white"/>
<path d="M18.9402 28.3693C18.8772 28.6168 18.6913 28.7997 18.357 28.7997C17.92 28.7997 17.7031 28.4761 17.7031 28.0722C17.7031 27.6682 17.9221 27.332 18.3654 27.332C18.7137 27.332 18.8996 27.5297 18.9402 27.7687H18.7255C18.6774 27.6217 18.5791 27.5054 18.357 27.5054C18.0503 27.5054 17.9254 27.7814 17.9254 28.0648C17.9254 28.3482 18.0418 28.6252 18.3644 28.6252C18.5834 28.6252 18.6742 28.4972 18.7233 28.3693H18.9381H18.9402Z" fill="white"/>
<path d="M19.4186 28.3717L19.2711 28.7821H19.0586L19.5682 27.3535H19.8331L20.3651 28.7821H20.1376L19.9848 28.3717H19.4175H19.4186ZM19.9325 28.192C19.8011 27.8304 19.7274 27.6326 19.6963 27.5195H19.6943C19.659 27.6443 19.5767 27.8822 19.471 28.192H19.9325Z" fill="white"/>
<path d="M20.582 28.7806V27.3521H20.8608C21.0628 27.6841 21.4911 28.3692 21.5691 28.5247H21.5723C21.5584 28.3481 21.5595 28.1187 21.5595 27.885V27.3521H21.7604V28.7806H21.4975C21.3138 28.4761 20.8629 27.7306 20.7764 27.5699H20.7732C20.7839 27.7253 20.7839 27.977 20.7839 28.2349V28.7816H20.5831L20.582 28.7806Z" fill="white"/>
<path d="M22.1436 27.3521H22.6703C23.0784 27.3521 23.3529 27.6259 23.3529 28.051C23.3529 28.4761 23.0859 28.7806 22.6617 28.7806H22.1426L22.1436 27.3521ZM22.3573 28.6029H22.6468C22.9748 28.6029 23.1286 28.3692 23.1286 28.0542C23.1286 27.7814 22.9876 27.5297 22.6479 27.5297H22.3573V28.6029Z" fill="white"/>
<path d="M23.8631 27.3525V28.7811H23.6484V27.3525H23.8631Z" fill="white"/>
<path d="M24.2461 28.7806V27.3521H24.5249C24.7268 27.6841 25.1552 28.3692 25.2331 28.5247H25.2363C25.2225 28.3481 25.2235 28.1187 25.2235 27.885V27.3521H25.4244V28.7806H25.1616C24.9779 28.4761 24.527 27.7306 24.4405 27.5699H24.4373C24.448 27.7253 24.448 27.977 24.448 28.2349V28.7816H24.2471L24.2461 28.7806Z" fill="white"/>
<path d="M26.0124 28.3717L25.8649 28.7821H25.6523L26.1619 27.3535H26.4268L26.9589 28.7821H26.7314L26.5786 28.3717H26.0113H26.0124ZM26.5273 28.192C26.3959 27.8304 26.3222 27.6326 26.2912 27.5195H26.289C26.2537 27.6443 26.1716 27.8822 26.0658 28.192H26.5273Z" fill="white"/>
<path d="M27.4131 28.7811L26.8906 27.3525H27.1203L27.3671 28.0547C27.4398 28.2619 27.5092 28.4659 27.5413 28.5992H27.5455C27.5754 28.4786 27.6523 28.2672 27.7272 28.061L27.9846 27.3525H28.2047L27.6651 28.7811H27.4119H27.4131Z" fill="white"/>
<path d="M28.6288 27.3521V28.7806H28.4141V27.3521H28.6288Z" fill="white"/>
<path d="M29.2174 28.3712L29.07 28.7816H28.8574L29.3669 27.353H29.6319L30.164 28.7816H29.9363L29.7836 28.3712H29.2174ZM29.7324 28.1915C29.601 27.8299 29.5273 27.6321 29.4962 27.519H29.4941C29.4588 27.6438 29.3765 27.8817 29.2708 28.1915H29.7324Z" fill="white"/>
<path d="M30.3828 28.7806V27.3521H30.6616C30.8635 27.6841 31.2919 28.3692 31.37 28.5247H31.3732C31.3592 28.3481 31.3603 28.1187 31.3603 27.885V27.3521H31.5611V28.7806H31.2983C31.1146 28.4761 30.6638 27.7306 30.5773 27.5699H30.574C30.5847 27.7253 30.5847 27.977 30.5847 28.2349V28.7816H30.3838L30.3828 28.7806Z" fill="white"/>
<path d="M20.6733 31.3349H20.5398C20.5312 31.3095 20.5259 31.2598 20.5238 31.1836C20.4693 31.2683 20.3646 31.3518 20.1595 31.3518C19.8166 31.3518 19.6328 31.0949 19.6328 30.7597C19.6328 30.4076 19.8304 30.1421 20.1915 30.1421C20.4735 30.1421 20.6476 30.2945 20.6808 30.5027H20.5046C20.4671 30.3811 20.3784 30.2849 20.1883 30.2849C19.9191 30.2849 19.8166 30.4996 19.8166 30.7512C19.8166 30.986 19.9212 31.207 20.1829 31.207C20.4447 31.207 20.5013 31.0366 20.5013 30.8559V30.8442H20.1808V30.6962H20.6733V31.3349Z" fill="#FFAB0A"/>
<path d="M21.5852 31.1399C21.5852 31.2191 21.5916 31.3101 21.597 31.3344H21.4368C21.4304 31.3155 21.425 31.2742 21.4229 31.2276C21.3919 31.2837 21.3246 31.3556 21.159 31.3556C20.9529 31.3556 20.8652 31.2223 20.8652 31.0912C20.8652 30.8977 21.019 30.81 21.2776 30.81H21.4218V30.7402C21.4218 30.6672 21.3973 30.5805 21.2445 30.5805C21.1077 30.5805 21.0831 30.646 21.0682 30.7127H20.9069C20.9186 30.5869 20.9966 30.4526 21.2499 30.4536C21.4667 30.4536 21.5864 30.5414 21.5864 30.7391V31.1409L21.5852 31.1399ZM21.4208 30.9199H21.2883C21.1205 30.9199 21.035 30.9664 21.035 31.0806C21.035 31.1653 21.0927 31.2276 21.1964 31.2276C21.3951 31.2276 21.4218 31.0944 21.4218 30.9464L21.4208 30.9199Z" fill="#FFAB0A"/>
<path d="M21.8342 30.6948C21.8342 30.6208 21.8342 30.5436 21.832 30.4728H21.9934C21.9954 30.4982 21.9998 30.5584 21.9998 30.5996C22.0403 30.5246 22.1151 30.4526 22.2508 30.4526C22.3747 30.4526 22.4559 30.5151 22.4891 30.6028C22.536 30.5236 22.6173 30.4526 22.7647 30.4526C22.9121 30.4526 23.0393 30.5373 23.0393 30.7688V31.3345H22.8747V30.7889C22.8747 30.6927 22.8394 30.5933 22.7112 30.5933C22.583 30.5933 22.52 30.6916 22.52 30.8396V31.3345H22.3555V30.7942C22.3555 30.6874 22.3256 30.5944 22.1953 30.5944C22.0649 30.5944 22.0008 30.6958 22.0008 30.8577V31.3356H21.8342V30.6948Z" fill="#FFAB0A"/>
<path d="M23.2891 30.0933H23.4568V30.2846H23.2891V30.0933ZM23.2891 30.4728H23.4568V31.3347H23.2891V30.4728Z" fill="#FFAB0A"/>
<path d="M23.7071 30.6905C23.7071 30.6165 23.7071 30.5393 23.7051 30.4737H23.8685C23.8728 30.498 23.8749 30.5826 23.8749 30.6091C23.9091 30.5393 23.9796 30.4536 24.1452 30.4536C24.3108 30.4536 24.4358 30.5562 24.4358 30.7825V31.3355H24.2681V30.8025C24.2681 30.6789 24.22 30.5942 24.0928 30.5942C23.9412 30.5942 23.876 30.7053 23.876 30.8745V31.3355H23.7083V30.6905H23.7071Z" fill="#FFAB0A"/>
<path d="M25.4127 31.252C25.4127 31.528 25.2995 31.6888 25.0067 31.6888C24.7323 31.6888 24.6554 31.5365 24.6404 31.4234H24.8113C24.8348 31.5111 24.9053 31.5587 25.0132 31.5587C25.2034 31.5587 25.2482 31.4403 25.2482 31.2478V31.1834C25.2023 31.2753 25.1233 31.3292 24.9811 31.3292C24.7643 31.3292 24.6211 31.1537 24.6211 30.9052C24.6211 30.6261 24.7856 30.4526 24.9983 30.4526C25.1607 30.4526 25.23 30.5288 25.2482 30.5827C25.2504 30.5468 25.2536 30.4907 25.2557 30.4738H25.4149C25.4149 30.5288 25.4127 30.6398 25.4127 30.7223V31.252ZM24.7964 30.8978C24.7964 31.0733 24.8882 31.1897 25.0228 31.1897C25.2023 31.1897 25.2547 31.0701 25.2547 30.8872C25.2547 30.7043 25.2076 30.5912 25.0281 30.5912C24.8786 30.5912 24.7964 30.7138 24.7964 30.8978Z" fill="#FFAB0A"/>
<path d="M26.2919 30.9972L26.1713 31.3344H25.9961L26.4149 30.1587H26.6328L27.0697 31.3344H26.8828L26.7578 30.9972H26.2909H26.2919ZM26.7151 30.8492C26.6071 30.552 26.5463 30.3881 26.5206 30.2961H26.5184C26.4896 30.3987 26.4213 30.5953 26.3347 30.8492H26.7151Z" fill="#FFAB0A"/>
<path d="M27.2506 30.4727C27.3531 30.8649 27.4108 31.0902 27.4258 31.1821H27.428C27.444 31.0986 27.4985 30.8998 27.6181 30.4727H27.7805C27.9097 30.9484 27.9482 31.0859 27.9622 31.1674H27.9642C27.9846 31.0753 28.0177 30.9464 28.148 30.4727H28.3169L28.0508 31.3344H27.8692C27.7869 31.0182 27.711 30.7496 27.693 30.6524H27.6908C27.6748 30.7496 27.6032 30.9982 27.5091 31.3344H27.3233L27.0723 30.4727H27.2496H27.2506Z" fill="#FFAB0A"/>
<path d="M29.1087 31.1399C29.1087 31.2191 29.1151 31.3101 29.1204 31.3344H28.9601C28.9537 31.3155 28.9485 31.2742 28.9463 31.2276C28.9153 31.2837 28.848 31.3556 28.6825 31.3556C28.4762 31.3556 28.3887 31.2223 28.3887 31.0912C28.3887 30.8977 28.5425 30.81 28.801 30.81H28.9453V30.7402C28.9453 30.6672 28.9206 30.5805 28.7679 30.5805C28.6311 30.5805 28.6066 30.646 28.5916 30.7127H28.4303C28.442 30.5869 28.52 30.4526 28.7732 30.4536C28.9901 30.4536 29.1097 30.5414 29.1097 30.7391V31.1409L29.1087 31.1399ZM28.9441 30.9199H28.8117C28.6439 30.9199 28.5585 30.9664 28.5585 31.0806C28.5585 31.1653 28.6162 31.2276 28.7198 31.2276C28.9185 31.2276 28.9453 31.0944 28.9453 30.9464V30.9199H28.9441Z" fill="#FFAB0A"/>
<path d="M29.3595 30.7073C29.3595 30.5932 29.3595 30.5244 29.3574 30.4737H29.5219C29.524 30.497 29.5272 30.5678 29.5272 30.645C29.571 30.5319 29.6736 30.4568 29.8178 30.4536V30.6175C29.6405 30.6207 29.5272 30.7042 29.5272 30.9263V31.3365H29.3595V30.7085V30.7073Z" fill="#FFAB0A"/>
<path d="M30.6973 30.0933V31.0925C30.6973 31.173 30.6974 31.2522 30.6995 31.3347H30.5381C30.5339 31.3115 30.5307 31.249 30.5297 31.2184C30.4869 31.3041 30.4014 31.3548 30.2615 31.3548C30.0382 31.3548 29.9004 31.1762 29.9004 30.9118C29.9004 30.6474 30.0489 30.4518 30.2903 30.4518C30.4388 30.4518 30.5072 30.5099 30.5297 30.5565V30.0923L30.6973 30.0933ZM30.0735 30.9076C30.0735 31.1074 30.1664 31.2163 30.3 31.2163C30.4965 31.2163 30.5361 31.0704 30.5361 30.8938C30.5361 30.7172 30.4997 30.5914 30.3106 30.5914C30.1622 30.5914 30.0735 30.7077 30.0735 30.9076Z" fill="#FFAB0A"/>
<path d="M31.031 31.086C31.0546 31.1749 31.1229 31.2278 31.2351 31.2278C31.3558 31.2278 31.4017 31.178 31.4017 31.104C31.4017 31.03 31.3622 30.9941 31.2041 30.956C30.9488 30.8946 30.8974 30.8164 30.8974 30.699C30.8974 30.5817 30.9883 30.4526 31.219 30.4526C31.4498 30.4526 31.5427 30.5837 31.5534 30.7033H31.3921C31.3803 30.6525 31.3419 30.5785 31.2126 30.5785C31.0983 30.5785 31.0642 30.6325 31.0642 30.6853C31.0642 30.7456 31.0983 30.7752 31.2543 30.8122C31.5235 30.8745 31.5737 30.9644 31.5737 31.0924C31.5737 31.2415 31.4552 31.3557 31.2287 31.3557C31.0022 31.3557 30.8857 31.2405 30.8633 31.086H31.031Z" fill="#FFAB0A"/>
<path d="M18.6377 30.7441H0V30.9895H18.6377V30.7441Z" fill="white"/>
</g>
</g>
<defs>
<clipPath id="clip0_2342_2266">
<rect width="32" height="32" fill="white" transform="translate(0 0.11377)"/>
</clipPath>
</defs>
</svg>
