<svg width="85" height="40" viewBox="0 0 85 40" fill="none" xmlns="http://www.w3.org/2000/svg">
<path d="M1.50391 5.68359H8.85742C10.459 5.68359 11.6569 6.06445 12.4512 6.82617C13.252 7.58789 13.6523 8.67187 13.6523 10.0781C13.6523 11.5234 13.2161 12.653 12.3437 13.4668C11.4779 14.2806 10.153 14.6875 8.36914 14.6875H5.94727V20H1.50391V5.68359ZM5.94727 11.7871H7.03125C7.88411 11.7871 8.48307 11.6406 8.82812 11.3477C9.17318 11.0482 9.3457 10.6673 9.3457 10.2051C9.3457 9.75586 9.19596 9.375 8.89648 9.0625C8.597 8.75 8.03385 8.59375 7.20703 8.59375H5.94727V11.7871ZM15.9766 5.68359H20.4004V16.4746H27.3047V20H15.9766V5.68359ZM29.4922 5.68359H33.9258V20H29.4922V5.68359ZM37.1387 5.68359H41.2695L46.6602 13.6035V5.68359H50.8301V20H46.6602L41.2988 12.1387V20H37.1387V5.68359ZM53.7891 5.68359H58.2129V11.0937L62.8516 5.68359H68.7305L63.5156 11.084L68.9648 20H63.5156L60.498 14.1113L58.2129 16.5039V20H53.7891V5.68359ZM69.1894 12.8516C69.1894 10.5143 69.8405 8.69466 71.1426 7.39258C72.4447 6.09049 74.2578 5.43945 76.582 5.43945C78.9648 5.43945 80.8008 6.08073 82.0898 7.36328C83.3789 8.63932 84.0234 10.4297 84.0234 12.7344C84.0234 14.4076 83.7402 15.7812 83.1738 16.8555C82.6139 17.9232 81.8001 18.7565 80.7324 19.3555C79.6712 19.9479 78.3463 20.2441 76.7578 20.2441C75.1432 20.2441 73.8053 19.987 72.7441 19.4727C71.6894 18.9583 70.8333 18.1445 70.1758 17.0312C69.5182 15.918 69.1894 14.5247 69.1894 12.8516ZM73.6133 12.8711C73.6133 14.3164 73.8802 15.3548 74.4141 15.9863C74.9544 16.6178 75.6868 16.9336 76.6113 16.9336C77.5618 16.9336 78.2975 16.6243 78.8184 16.0059C79.3392 15.3874 79.5996 14.2773 79.5996 12.6758C79.5996 11.3281 79.3262 10.3451 78.7793 9.72656C78.2389 9.10156 77.5033 8.78906 76.5723 8.78906C75.6803 8.78906 74.9642 9.10482 74.4238 9.73633C73.8835 10.3678 73.6133 11.4128 73.6133 12.8711Z" fill="white"/>
<path d="M4.95658 31.335C4.56709 31.335 4.25195 31.6503 4.25195 32.039C4.25195 32.4278 4.56709 32.7438 4.95658 32.7438C5.34606 32.7438 5.66039 32.4286 5.66039 32.039C5.66039 31.6495 5.34525 31.335 4.95658 31.335Z" fill="#4DEC80"/>
<path d="M11.3604 29.1705L10.6954 28.7615L7.00746 26.4903C6.40788 26.1209 5.65073 26.1241 5.05439 26.4984L3.22495 27.6445V26.188C3.22495 24.9796 2.24639 24 1.03835 24H0V35.7175C0 36.3172 0.313525 36.8733 0.825833 37.1837L4.98489 39.7055C5.6273 40.0951 6.43131 40.0983 7.07695 39.7144L11.2102 37.2572C11.6425 37.0002 11.9366 36.5702 12.0271 36.0852C12.0465 35.9818 12.0562 35.8759 12.0562 35.7684V30.4152C12.0562 29.9076 11.7928 29.4364 11.3604 29.1705ZM6.33596 37.1699C4.12916 37.1699 2.34013 35.3804 2.34013 33.1722C2.34013 30.964 4.12916 29.1753 6.33596 29.1753C7.42684 29.1753 8.41509 29.6126 9.13668 30.3207L6.33596 33.1213L9.18759 35.9737C8.46196 36.7125 7.45269 37.1699 6.33596 37.1699Z" fill="#4DEC80"/>
<path d="M18.0078 36.2881V28.2078H21.316C22.2178 28.2078 22.886 28.3889 23.3224 28.7502C23.7579 29.1123 23.9761 29.6619 23.9761 30.4007C23.9761 31.1936 23.7006 31.7626 23.1487 32.1094C23.8266 32.4254 24.1733 33.0526 24.1878 33.991C24.1951 35.5227 23.2788 36.2881 21.4388 36.2881H18.0078ZM19.8962 31.4749H21.1924C21.5051 31.4749 21.7378 31.4054 21.8905 31.2671C22.0432 31.1289 22.12 30.9075 22.12 30.6036C22.12 30.2996 22.0432 30.0782 21.8905 29.94C21.7378 29.8017 21.5051 29.7322 21.1924 29.7322H19.8962V31.4757V31.4749ZM19.8962 34.7645H21.2821C21.6247 34.7645 21.88 34.6918 22.0473 34.5455C22.2145 34.3992 22.2986 34.1648 22.2986 33.8415C22.2986 33.5182 22.2145 33.3088 22.0473 33.1658C21.88 33.0235 21.6247 32.9524 21.2821 32.9524H19.8962V34.7645Z" fill="white"/>
<path d="M29.5238 29.7314C29.9174 29.7314 30.3084 29.7759 30.6979 29.864C30.9315 29.9173 31.1383 29.9755 31.3177 30.0386V28.3638C31.0923 28.2854 30.8191 28.2143 30.4983 28.1496C30.0773 28.0656 29.6475 28.0228 29.2079 28.0228C27.7889 28.0228 26.7296 28.3711 26.029 29.0678C25.3284 29.7646 24.9785 30.8242 24.9785 32.2484C24.9785 33.6725 25.3284 34.7322 26.029 35.4281C26.7296 36.1248 27.7889 36.4732 29.2079 36.4732C29.6563 36.4732 30.0911 36.4328 30.5121 36.352C30.8305 36.2905 31.0987 36.2243 31.3177 36.1523V34.4752C31.1593 34.5237 30.9848 34.5697 30.7941 34.6142C30.3682 34.7144 29.9448 34.7645 29.5238 34.7645C28.7546 34.7645 28.201 34.5722 27.8625 34.1874C27.5231 33.8027 27.3542 33.1561 27.3542 32.2484C27.3542 31.3407 27.5231 30.6933 27.8625 30.3085C28.201 29.9238 28.7546 29.7314 29.5238 29.7314Z" fill="white"/>
<path d="M40.3132 31.9711V34.8227C40.1136 34.8534 39.9019 34.8688 39.6781 34.8688C39.0058 34.8688 38.5177 34.674 38.2147 34.2852C37.9117 33.8972 37.7597 33.245 37.7597 32.3292C37.7597 31.4134 37.9197 30.7612 38.2397 30.3724C38.5589 29.9836 39.0841 29.7888 39.8146 29.7888C40.238 29.7888 40.6566 29.8357 41.072 29.9278C41.4307 30.007 41.72 30.096 41.943 30.1921V28.5077C41.7022 28.4075 41.3685 28.3153 40.9419 28.2305C40.5144 28.1464 40.0675 28.1036 39.6029 28.1036C38.2575 28.1036 37.2555 28.4519 36.5953 29.1487C35.9352 29.8454 35.6055 30.905 35.6055 32.3292C35.6055 33.7534 35.9352 34.813 36.5953 35.5089C37.2555 36.2057 38.2575 36.554 39.6029 36.554C40.3641 36.554 41.1447 36.436 41.943 36.2024C41.9439 36.2024 41.9455 36.2016 41.9463 36.2016V31.9711H40.3132Z" fill="white"/>
<path d="M48.3199 36.3689L47.8237 34.7993H45.0311L44.5236 36.3689H42.5156L45.482 28.2879H47.4092L50.3756 36.3689H48.3215H48.3199ZM45.6808 32.9653L47.2023 32.9621L46.4161 30.4241L45.6808 32.9653Z" fill="white"/>
<path d="M56.8642 28.2887H58.9457V36.3697H57.0872V31.3593L54.9063 35.0773L52.6906 31.3593V36.3697H50.8789V28.2887H52.9645L54.9063 31.7173L56.8642 28.2887Z" fill="white"/>
<path d="M65.4037 29.9165V28.2887H59.9922V36.3689H65.4037V34.7419H61.9541V33.114H65.1977V31.4749H61.9541V29.9165H65.4037Z" fill="white"/>
<path d="M33.8521 36.5532C34.4274 36.5532 34.8937 36.0868 34.8937 35.5114C34.8937 34.936 34.4274 34.4695 33.8521 34.4695C33.2769 34.4695 32.8105 34.936 32.8105 35.5114C32.8105 36.0868 33.2769 36.5532 33.8521 36.5532Z" fill="white"/>
</svg>
