<svg width="107" height="40" viewBox="0 0 107 40" fill="none" xmlns="http://www.w3.org/2000/svg">
<path d="M1.50391 5.68359H8.85742C10.459 5.68359 11.6569 6.06445 12.4512 6.82617C13.252 7.58789 13.6523 8.67187 13.6523 10.0781C13.6523 11.5234 13.2161 12.653 12.3437 13.4668C11.4779 14.2806 10.153 14.6875 8.36914 14.6875H5.94727V20H1.50391V5.68359ZM5.94727 11.7871H7.03125C7.88411 11.7871 8.48307 11.6406 8.82812 11.3477C9.17318 11.0482 9.3457 10.6673 9.3457 10.2051C9.3457 9.75586 9.19596 9.375 8.89648 9.0625C8.597 8.75 8.03385 8.59375 7.20703 8.59375H5.94727V11.7871ZM15.9766 5.68359H20.4004V16.4746H27.3047V20H15.9766V5.68359ZM29.4922 5.68359H33.9258V20H29.4922V5.68359ZM37.1387 5.68359H41.2695L46.6602 13.6035V5.68359H50.8301V20H46.6602L41.2988 12.1387V20H37.1387V5.68359ZM53.7891 5.68359H58.2129V11.0937L62.8516 5.68359H68.7305L63.5156 11.084L68.9648 20H63.5156L60.498 14.1113L58.2129 16.5039V20H53.7891V5.68359ZM69.1894 12.8516C69.1894 10.5143 69.8405 8.69466 71.1426 7.39258C72.4447 6.09049 74.2578 5.43945 76.582 5.43945C78.9648 5.43945 80.8008 6.08073 82.0898 7.36328C83.3789 8.63932 84.0234 10.4297 84.0234 12.7344C84.0234 14.4076 83.7402 15.7812 83.1738 16.8555C82.6139 17.9232 81.8001 18.7565 80.7324 19.3555C79.6712 19.9479 78.3463 20.2441 76.7578 20.2441C75.1432 20.2441 73.8053 19.987 72.7441 19.4727C71.6894 18.9583 70.8333 18.1445 70.1758 17.0312C69.5182 15.918 69.1894 14.5247 69.1894 12.8516ZM73.6133 12.8711C73.6133 14.3164 73.8802 15.3548 74.4141 15.9863C74.9544 16.6178 75.6868 16.9336 76.6113 16.9336C77.5618 16.9336 78.2975 16.6243 78.8184 16.0059C79.3392 15.3874 79.5996 14.2773 79.5996 12.6758C79.5996 11.3281 79.3262 10.3451 78.7793 9.72656C78.2389 9.10156 77.5033 8.78906 76.5723 8.78906C75.6803 8.78906 74.9642 9.10482 74.4238 9.73633C73.8835 10.3678 73.6133 11.4128 73.6133 12.8711Z" fill="white"/>
<g clip-path="url(#clip0_2448_953)">
<g clip-path="url(#clip1_2448_953)">
<path d="M97 22C102.523 22 107 17.5228 107 12C107 6.47715 102.523 2 97 2C91.4772 2 87 6.47715 87 12C87 17.5228 91.4772 22 97 22Z" fill="#F0F0F0"/>
<path d="M87 12C87 15.7904 89.1089 19.088 92.2174 20.7841V3.2159C89.1089 4.91195 87 8.20957 87 12Z" fill="#F0F0F0"/>
<path d="M96.9994 2C95.267 2 93.6375 2.44074 92.2168 3.2159V20.7841C93.6375 21.5593 95.267 22 96.9994 22C102.522 22 106.999 17.5228 106.999 12C106.999 6.47719 102.522 2 96.9994 2Z" fill="#496E2D"/>
<path d="M101.276 13.6538C100.011 14.5679 98.2446 14.2834 97.3306 13.0183C96.4164 11.7531 96.701 9.98652 97.9661 9.07246C98.3606 8.78746 98.8038 8.61899 99.2547 8.56043C98.3872 8.4307 97.4702 8.62617 96.7032 9.18043C95.1461 10.3055 94.7958 12.4798 95.9209 14.0369C97.0459 15.5939 99.2202 15.9442 100.777 14.819C101.544 14.2648 102.018 13.4557 102.167 12.5913C101.97 13.0009 101.671 13.3688 101.276 13.6538Z" fill="#F0F0F0"/>
<path d="M101.222 8.52184L101.935 9.28984L102.885 8.84953L102.375 9.76453L103.088 10.5326L102.06 10.3301L101.549 11.2452L101.424 10.2049L100.396 10.0024L101.347 9.56207L101.222 8.52184Z" fill="#F0F0F0"/>
</g>
</g>
<rect x="87.7843" y="2.78431" width="18.4314" height="18.4314" rx="9.21569" stroke="white" stroke-width="1.56863"/>
<g clip-path="url(#clip2_2448_953)">
<path d="M25.6781 24H25V39.8423H25.6781V24Z" fill="#FFCC29"/>
<path d="M38.9022 24H38.1562V39.8423H38.9022V24Z" fill="#FFCC29"/>
<path d="M91.0723 39.8648H91.8182V24H91.0723V39.8648Z" fill="#FFCC29"/>
<path d="M78.5741 24H77.8281V39.8423H78.5741V24Z" fill="#FFCC29"/>
<path d="M52.1257 24H51.4023V39.8423H52.1257V24Z" fill="#FFCC29"/>
<path d="M65.3495 24H64.6035V39.8423H65.3495V24Z" fill="#FFCC29"/>
<path d="M31.2386 26.6591L27.9609 37.2056H29.4754L30.244 34.5464H33.6346L34.4032 37.2056H35.8951L32.6627 26.6591H31.2386ZM30.5604 33.3971L31.8941 28.7999H31.9393L33.2504 33.3971H30.5604Z" fill="white"/>
<path d="M18.9658 32.9689V31.8422H22.2434V35.6731C21.9496 36.1464 21.5427 36.552 21.068 36.8224C20.4351 37.2055 19.7117 37.3407 18.9884 37.3407C17.9938 37.3407 16.9992 37.0253 16.2984 36.3267C15.6203 35.6731 15.2812 34.6816 15.2812 33.4422V30.3548C15.2812 29.1379 15.6203 28.1915 16.2532 27.5379C16.9088 26.8393 17.8355 26.5013 18.8075 26.5013C19.7343 26.5013 20.6159 26.7041 21.294 27.3351C21.927 27.921 22.2208 28.7548 22.2434 29.6112V29.6562H20.8193C20.8419 29.1154 20.6611 28.552 20.2994 28.1464C19.9378 27.7633 19.3953 27.6281 18.8301 27.6281C18.2424 27.6281 17.6773 27.876 17.3156 28.3492C16.9314 28.8224 16.7731 29.476 16.7731 30.3774V33.5323C16.7731 34.4337 16.9766 35.1098 17.3835 35.583C17.7903 36.0562 18.3781 36.3041 19.011 36.3041C19.4179 36.3041 19.8473 36.2365 20.1864 36.0337C20.4577 35.876 20.6385 35.6281 20.7741 35.3577V32.9689H18.9658Z" fill="white"/>
<path d="M47.4012 26.6591H49.3452V37.2056H47.8533V33.1492L47.989 29.0929H47.9437L45.6381 37.2056H44.6435L42.3379 29.0929H42.3152L42.4283 33.1492V37.2056H40.959V26.6591H42.8578L45.1408 34.9971L47.4012 26.6591Z" fill="white"/>
<path d="M73.6221 26.6591H75.0914V37.2056H73.6221L69.6211 29.3633H69.5533V37.2056H68.084V26.6591H69.5533L73.5543 34.5014L73.6221 34.4788V26.6591Z" fill="white"/>
<path d="M55.8555 26.6591H60.851V27.8084H59.0879V36.0338H60.851V37.2056H55.8555V36.0112H57.6186V27.7859H55.8555V26.6591Z" fill="white"/>
<path d="M0.678133 39.8648H11.7995C12.1838 39.8648 12.4776 39.5718 12.4776 39.1887V24.6761C12.4776 24.293 12.1838 24 11.7995 24H0.678133C0.293857 24 0 24.293 0 24.6761V39.1662C0 39.5493 0.316462 39.8648 0.678133 39.8648Z" fill="#FFCC29"/>
<path d="M9.58429 32.5859C9.31304 32.1352 8.86095 31.8422 8.34105 31.7295C8.77053 31.5492 9.1322 31.2563 9.35825 30.8507C9.58429 30.445 9.69732 29.9718 9.69732 29.5211C9.69732 28.6647 9.42606 27.876 8.77053 27.3802C8.11501 26.8845 7.34645 26.6591 6.44228 26.6591H3.07422V37.2281H6.87176C7.68552 37.2281 8.49928 36.9577 9.1096 36.4168C9.69731 35.9211 9.99117 35.1323 9.99117 34.1183C9.99117 33.5098 9.85555 33.0366 9.58429 32.5859ZM5.0408 28.3042H6.08061C6.5327 28.3042 6.84916 28.3943 7.12041 28.6647C7.39166 28.9352 7.48208 29.3408 7.45948 29.7239C7.45948 30.0845 7.39166 30.4676 7.12041 30.738C6.87176 30.9859 6.5779 31.1211 6.17103 31.1211H5.0182V28.3042H5.0408ZM7.43687 35.2225C7.18822 35.4929 6.78134 35.5605 6.41967 35.5605H5.06341V32.5408H6.5779C6.96218 32.5408 7.32385 32.6535 7.52729 32.9464C7.75333 33.2845 7.79854 33.6901 7.79854 34.0957C7.77594 34.5014 7.70813 34.9295 7.43687 35.2225Z" fill="black"/>
<path d="M85.038 32.969V31.8422H88.3157V35.6732C88.0218 36.1465 87.6149 36.5521 87.1402 36.8225C86.5073 37.2056 85.784 37.3408 85.0606 37.3408C84.066 37.3408 83.0715 37.0253 82.3707 36.3268C81.6926 35.6732 81.3535 34.6817 81.3535 33.4422V30.3324C81.3535 29.1155 81.6926 28.169 82.3255 27.5155C82.981 26.8169 83.9078 26.4789 84.8798 26.4789C85.8066 26.4789 86.6882 26.6817 87.3663 27.3127C87.9992 27.8986 88.2931 28.7324 88.3157 29.5887V29.6338H86.8916C86.9142 29.093 86.7334 28.5296 86.3717 28.1239C86.01 27.7408 85.4675 27.6056 84.9024 27.6056C84.3147 27.6056 83.7496 27.8535 83.3879 28.3268C83.0036 28.8 82.8454 29.4535 82.8454 30.3549V33.5099C82.8454 34.4113 83.0489 35.0873 83.4557 35.5606C83.8626 36.0338 84.4503 36.2817 85.0832 36.2817C85.4901 36.2817 85.9196 36.2141 86.2587 36.0113C86.5299 35.8535 86.7108 35.6056 86.8464 35.3352V32.969H85.038Z" fill="white"/>
</g>
<defs>
<clipPath id="clip0_2448_953">
<rect x="87" y="2" width="20" height="20" rx="10" fill="white"/>
</clipPath>
<clipPath id="clip1_2448_953">
<rect width="20" height="20" fill="white" transform="translate(87 2)"/>
</clipPath>
<clipPath id="clip2_2448_953">
<rect width="92" height="16" fill="white" transform="translate(0 24)"/>
</clipPath>
</defs>
</svg>
