<svg width="16" height="17" viewBox="0 0 16 17" fill="none" xmlns="http://www.w3.org/2000/svg">
<path fill-rule="evenodd" clip-rule="evenodd" d="M6.601 1.05386C7.257 0.87686 7.932 1.26886 8.108 1.92786L8.771 4.41186C8.947 5.07086 8.557 5.74886 7.901 5.92586C7.852 5.93886 7.803 5.94886 7.754 5.95586L6.583 6.19586C6.583 6.19586 5.881 6.29886 5.899 7.00186C5.92 7.89186 7.402 10.4699 8.159 10.9339C8.757 11.2999 9.196 10.7409 9.196 10.7409L9.989 9.84286C10.02 9.80386 10.053 9.76686 10.088 9.73086C10.569 9.24886 11.348 9.24886 11.829 9.73086L13.64 11.5499C14.12 12.0319 14.12 12.8149 13.64 13.2969C13.64 13.2969 12.558 14.4299 11.215 15.2529C9.601 16.2429 8.06 15.3549 7.572 15.1089C6.424 14.5279 4.845 12.6779 3.801 10.8959L3.752 10.8109C2.737 9.01186 1.932 6.71286 2.005 5.42586C2.036 4.87786 2.041 3.09386 3.701 2.18486C5.083 1.42786 6.601 1.05386 6.601 1.05386Z" fill="white"/>
<path fill-rule="evenodd" clip-rule="evenodd" d="M6.601 1.05386C7.257 0.87686 7.932 1.26886 8.108 1.92786L8.771 4.41186C8.947 5.07086 8.557 5.74886 7.901 5.92586C7.852 5.93886 7.803 5.94886 7.754 5.95586L6.583 6.19586C6.583 6.19586 5.881 6.29886 5.899 7.00186C5.92 7.89186 7.402 10.4699 8.159 10.9339C8.757 11.2999 9.196 10.7409 9.196 10.7409L9.989 9.84286C10.02 9.80386 10.053 9.76686 10.088 9.73086C10.569 9.24886 11.348 9.24886 11.829 9.73086L13.64 11.5499C14.12 12.0319 14.12 12.8149 13.64 13.2969C13.64 13.2969 12.558 14.4299 11.215 15.2529C9.601 16.2429 8.06 15.3549 7.572 15.1089C6.424 14.5279 4.845 12.6779 3.801 10.8959L3.752 10.8109C2.737 9.01186 1.932 6.71286 2.005 5.42586C2.036 4.87786 2.041 3.09386 3.701 2.18486C5.083 1.42786 6.601 1.05386 6.601 1.05386Z" fill="url(#paint0_linear_266_2994)"/>
<defs>
<linearGradient id="paint0_linear_266_2994" x1="2.0004" y1="8.36089" x2="14" y2="8.36089" gradientUnits="userSpaceOnUse">
<stop stop-color="#FFF173"/>
<stop offset="1" stop-color="#FFB800"/>
</linearGradient>
</defs>
</svg>
