<svg width="16" height="17" viewBox="0 0 16 17" fill="none" xmlns="http://www.w3.org/2000/svg">
<path fill-rule="evenodd" clip-rule="evenodd" d="M8 16.7324C12.4183 16.7324 16 13.1507 16 8.73242C16 4.31414 12.4183 0.732422 8 0.732422C3.58172 0.732422 0 4.31414 0 8.73242C0 13.1507 3.58172 16.7324 8 16.7324ZM8.8 4.73242C8.8 4.29059 8.44183 3.93242 8 3.93242C7.55817 3.93242 7.2 4.29059 7.2 4.73242V8.73242C7.2 8.9446 7.28429 9.14808 7.43431 9.29811L9.83431 11.6981C10.1467 12.0105 10.6533 12.0105 10.9657 11.6981C11.2781 11.3857 11.2781 10.8792 10.9657 10.5667L8.8 8.40105V4.73242Z" fill="white"/>
</svg>
