<svg width="200" height="30" viewBox="0 0 200 30" fill="none" xmlns="http://www.w3.org/2000/svg">
<g clip-path="url(#clip0_2342_535)">
<mask id="mask0_2342_535" style="mask-type:luminance" maskUnits="userSpaceOnUse" x="0" y="0" width="200" height="30">
<path d="M200 0H0V30H200V0Z" fill="white"/>
</mask>
<g mask="url(#mask0_2342_535)">
<path d="M0 23.6577V30H19.5979L22.564 23.6577H0Z" fill="#FCDD11"/>
<path d="M0 15.9866V22.4296L24.6292 19.2886L27.8369 12.4229L0 15.9866Z" fill="#FCDD11"/>
<path d="M0 8.07383V14.7181L30.078 7.67114L33.6592 0L0 8.07383Z" fill="#FCDD11"/>
<path d="M18.1258 19.6513C18.3378 19.6207 18.5309 19.5217 18.6703 19.3723C18.8097 19.2228 18.8863 19.0326 18.8863 18.8359C18.8863 18.6392 18.8097 18.449 18.6703 18.2995C18.5309 18.15 18.3378 18.0511 18.1258 18.0205C17.9138 18.0511 17.7207 18.15 17.5813 18.2995C17.4419 18.449 17.3652 18.6392 17.3652 18.8359C17.3652 19.0326 17.4419 19.2228 17.5813 19.3723C17.7207 19.5217 17.9138 19.6207 18.1258 19.6513Z" fill="#FCDD11"/>
<path d="M48.2929 18.524H54.8842L57.0372 13.8126H48.2929V10.5508H58.5533L60.8822 5.51732L60.9042 5.47705H41.8555V27.0206H60.9261V21.9468H48.2929V18.524Z" fill="#FCDD11"/>
<path d="M123.278 5.47635H113.193V27.02H119.785V20.8589H123.036C125.655 20.982 128.241 20.2706 130.353 18.8455C131.279 18.1635 132.015 17.2893 132.501 16.2951C132.986 15.3008 133.205 14.215 133.143 13.1274C133.202 12.0686 132.994 11.0115 132.537 10.0376C132.08 9.06364 131.386 8.19888 130.507 7.50991C128.444 6.05343 125.876 5.33099 123.278 5.47635ZM125.475 15.4227C124.701 15.9251 123.763 16.167 122.816 16.1073H119.719V10.4898H122.772C123.758 10.4397 124.733 10.695 125.541 11.2146C125.859 11.4612 126.113 11.7701 126.285 12.1185C126.456 12.467 126.54 12.8461 126.53 13.2281C126.565 13.6394 126.494 14.0526 126.322 14.434C126.151 14.8154 125.882 15.1542 125.541 15.4227H125.475Z" fill="#FCDD11"/>
<path d="M141.844 5.47705H135.318V27.0206H149.73L152.148 21.7857H141.844V5.47705Z" fill="#FCDD11"/>
<path d="M163.241 5.31543L154.827 23.5571L153.244 27.0202H160.099L161.769 23.1745H170.843L172.556 27.0202H179.543L169.524 5.31543H163.241ZM163.68 18.5235L166.339 12.4833L168.953 18.5235H163.68Z" fill="#FCDD11"/>
<path d="M192.705 5.47705L187.828 13.3294L182.994 5.47705H175.568L184.51 18.9468V27.0206H191.057V18.8663L199.999 5.47705H192.705Z" fill="#FCDD11"/>
<path d="M80.1713 5.47705L74.8324 19.1079L69.4935 5.47705H62.1992L71.7345 27.1817H77.7765L87.3337 5.47705H80.1713Z" fill="#FCDD11"/>
<path d="M98.3408 5.09375C95.9248 5.09375 93.5629 5.7503 91.5541 6.98039C89.5452 8.21047 87.9795 9.95883 87.0549 12.0044C86.1304 14.0499 85.8884 16.3008 86.3597 18.4723C86.8311 20.6439 87.9945 22.6386 89.703 24.2042C91.4113 25.7698 93.5879 26.836 95.9576 27.2679C98.3273 27.6999 100.783 27.4782 103.016 26.6309C105.248 25.7836 107.156 24.3487 108.498 22.5078C109.84 20.6668 110.557 18.5025 110.557 16.2884C110.557 13.3194 109.269 10.472 106.979 8.37258C104.688 6.27318 101.581 5.09375 98.3408 5.09375ZM98.3408 22.1676C97.0719 22.1676 95.8316 21.8228 94.7765 21.1768C93.7216 20.5307 92.8993 19.6125 92.4137 18.5383C91.928 17.464 91.801 16.2819 92.0486 15.1414C92.2961 14.001 92.9072 12.9534 93.8043 12.1312C94.7016 11.3089 95.8448 10.749 97.0891 10.5222C98.3337 10.2953 99.6235 10.4117 100.796 10.8567C101.968 11.3017 102.97 12.0552 103.675 13.0221C104.38 13.9889 104.756 15.1256 104.756 16.2884C104.75 17.8441 104.072 19.3344 102.869 20.4326C101.667 21.5308 100.038 22.1474 98.3408 22.1474V22.1676Z" fill="#FCDD11"/>
</g>
</g>
<defs>
<clipPath id="clip0_2342_535">
<rect width="200" height="30" fill="white"/>
</clipPath>
</defs>
</svg>
