<svg width="84" height="25" viewBox="0 0 84 25" fill="none" xmlns="http://www.w3.org/2000/svg">
<g clip-path="url(#clip0_2342_1394)">
<path d="M53.4584 23.1757C43.694 23.1757 33.9295 23.1746 24.1651 23.1822C23.9063 23.1822 23.8165 23.1365 23.8293 22.8523C23.8539 22.2969 23.8357 22.2959 24.3768 22.2959C43.8319 22.2959 63.287 22.2959 82.742 22.2959C82.9895 22.2959 83.1128 22.4175 83.1121 22.6606C83.1113 23.004 82.9449 23.1757 82.6127 23.1757C72.8942 23.1757 63.1768 23.1757 53.4584 23.1757Z" fill="white"/>
<path d="M29.9428 1.3725C31.1671 1.3725 32.1818 1.3725 33.1976 1.3725C33.5398 1.3725 33.5771 1.4128 33.5783 1.76125C33.5783 2.07159 33.5793 2.38193 33.5783 2.69119C33.5771 3.01894 33.5376 3.05815 33.2062 3.05924C31.3606 3.05924 29.5151 3.05924 27.6696 3.05924C27.4483 3.05924 27.228 3.05706 27.0077 3.09735C26.3918 3.20842 26.102 3.485 26.0518 4.11548C25.9791 5.03344 25.9801 5.95684 26.0508 6.8748C26.102 7.54012 26.4174 7.84611 27.0708 7.91581C27.8524 7.99965 28.6383 7.94085 29.4221 7.95174C30.0401 7.96045 30.6581 7.95828 31.2762 7.95174C31.7488 7.94738 31.9092 7.78405 31.9199 7.30819C31.9263 7.00765 31.9102 6.70602 31.9252 6.40656C31.937 6.18987 31.8525 6.13651 31.6515 6.13869C30.6367 6.14741 29.622 6.14305 28.6062 6.14196C28.186 6.14196 28.1496 6.10385 28.1486 5.67699C28.1486 5.46139 28.1508 5.24469 28.1486 5.02909C28.1454 4.80804 28.2416 4.70242 28.4651 4.7035C30.0337 4.70568 31.6023 4.7035 33.1708 4.7035C33.374 4.7035 33.5644 4.75686 33.5633 4.9986C33.559 6.12563 33.6392 7.25484 33.5216 8.37751C33.436 9.19093 32.9666 9.59383 32.1679 9.59709C30.5352 9.60254 28.9014 9.60254 27.2685 9.59709C26.7597 9.59491 26.2549 9.53721 25.7705 9.36951C24.8981 9.06788 24.4757 8.39928 24.3207 7.51291C24.2415 7.05665 24.2426 6.59604 24.2512 6.13651C24.2672 5.30132 24.1806 4.46067 24.3036 3.63092C24.5121 2.22186 25.237 1.54783 26.6377 1.41933C27.8075 1.31153 28.9805 1.40409 29.9417 1.37033L29.9428 1.3725Z" fill="white"/>
<path d="M42.2045 9.60464C40.5995 9.60464 38.9946 9.60246 37.3897 9.60246C37.0935 9.60246 36.8016 9.5796 36.5139 9.49792C36.0328 9.35963 35.7291 9.05039 35.6479 8.5473C35.5581 7.9974 35.5559 7.43987 35.6361 6.89106C35.7174 6.3368 36.0991 5.99488 36.684 5.88272C36.9385 5.83372 37.1962 5.82174 37.4549 5.82283C38.8941 5.82392 40.3333 5.81739 41.7725 5.82937C41.996 5.83155 42.0719 5.78581 42.0623 5.54407C42.0356 4.88418 41.7822 4.59344 41.0989 4.58147C39.8543 4.55968 38.6086 4.5684 37.3629 4.56513C36.9759 4.56513 36.5878 4.56513 36.2006 4.56513C35.9183 4.56513 35.7772 4.41667 35.7772 4.11976C35.7772 3.88456 35.7826 3.65044 35.7762 3.41524C35.7697 3.22141 35.8607 3.14083 36.0424 3.14519C36.0606 3.14519 36.0798 3.14519 36.098 3.14519C37.8141 3.14845 39.5292 3.14954 41.2454 3.15935C41.4935 3.16043 41.7427 3.18874 41.9875 3.22794C43.1166 3.40761 43.6641 4.01196 43.7025 5.17601C43.7325 6.08635 43.7132 6.99777 43.7164 7.90811C43.6908 8.01591 43.7314 8.13896 43.5817 8.21082C42.9626 8.5081 42.5285 9.00138 42.2056 9.60573L42.2045 9.60464ZM39.8191 6.88452C39.1357 6.88452 38.4536 6.88017 37.7703 6.8867C37.3897 6.88997 37.2325 7.04787 37.2069 7.42789C37.2004 7.52154 37.2025 7.61628 37.2069 7.70992C37.225 8.12807 37.3736 8.29794 37.7831 8.30012C39.093 8.30883 40.4039 8.30448 41.7137 8.30556C41.9404 8.30556 42.057 8.19885 42.0559 7.96473C42.0548 7.70121 42.0409 7.43769 42.0612 7.17527C42.0783 6.94986 42.027 6.87146 41.7854 6.87909C41.131 6.89868 40.4755 6.88562 39.8201 6.88562L39.8191 6.88452Z" fill="white"/>
<path d="M45.7812 7.44745C45.779 6.63947 45.7353 5.8304 45.8048 5.02461C45.8956 3.96291 46.4217 3.40539 47.461 3.22789C47.7721 3.17453 48.0844 3.15385 48.3977 3.15275C50.5844 3.14949 52.772 3.11791 54.9587 3.16909C55.227 3.17563 55.4911 3.22463 55.7498 3.28996C56.5475 3.4925 56.9967 4.0032 57.1024 4.83949C57.1346 5.08994 57.1506 5.34475 57.1527 5.59737C57.1592 6.64056 57.156 7.68373 57.157 8.72583C56.9186 8.99589 56.7271 9.30296 56.5304 9.6035C56.3273 9.6035 56.1251 9.60132 55.9231 9.60132C55.5392 9.60132 55.5094 9.56975 55.5094 9.1908C55.5094 8.14979 55.5094 7.10879 55.5094 6.06778C55.5094 5.80536 55.5061 5.54402 55.4537 5.28376C55.3896 4.96254 55.2003 4.7687 54.8935 4.7012C54.733 4.66526 54.5651 4.64784 54.4004 4.64675C53.7739 4.64022 53.1473 4.6522 52.5219 4.63912C52.3357 4.63586 52.2919 4.69357 52.294 4.87433C52.3026 5.79338 52.2972 6.71242 52.2972 7.63148C51.8097 7.63691 51.3221 7.63801 50.8345 7.64889C50.7169 7.65216 50.672 7.59554 50.6474 7.49754C50.6464 6.6264 50.6464 5.75527 50.6399 4.88413C50.6399 4.79049 50.7072 4.63804 50.5116 4.64349C49.7492 4.66526 48.9836 4.58577 48.2245 4.68704C47.7358 4.75237 47.5295 4.97669 47.4707 5.46888C47.3841 6.18756 47.4525 6.90951 47.431 7.63038C46.9713 7.64344 46.5105 7.64454 46.0518 7.67612C45.8603 7.68918 45.7802 7.63474 45.7855 7.44527L45.7812 7.44745Z" fill="white"/>
<path d="M42.6811 19.6589C42.6747 19.83 42.572 19.8779 42.4224 19.8767C40.5864 19.8702 38.7506 19.8669 36.9146 19.8572C36.7318 19.8572 36.5468 19.8256 36.3661 19.7885C35.3407 19.5806 34.8659 19.0579 34.7814 17.994C34.7109 17.1044 34.7109 16.2104 34.7814 15.3207C34.8702 14.209 35.4369 13.635 36.5254 13.4892C36.8654 13.4435 37.2043 13.4271 37.5466 13.4271C38.6447 13.4271 39.7418 13.4303 40.8399 13.4249C41.1349 13.4227 41.4236 13.4631 41.7145 13.4914C41.7626 14.6685 41.6471 15.8543 41.9058 17.0195C41.9316 17.1349 41.8343 17.1011 41.7957 17.1371C41.243 17.1393 40.6901 17.1425 40.1384 17.1425C38.9686 17.1425 37.7989 17.1413 36.6291 17.1469C36.5489 17.1469 36.4068 17.0641 36.3981 17.2492C36.3651 17.994 36.5618 18.3371 37.1937 18.4339C37.3028 18.4503 37.4139 18.4579 37.5241 18.4589C39.1814 18.4589 40.8399 18.4589 42.4972 18.4589C42.7313 18.5973 42.633 18.8434 42.679 19.0427C42.68 19.2376 42.6811 19.4325 42.6822 19.6274C42.6768 19.6295 42.6725 19.6317 42.6672 19.635C42.6715 19.6449 42.6768 19.6547 42.6811 19.6633V19.6589ZM38.7697 16.0873C39.3975 16.0873 40.0251 16.0873 40.6517 16.0873C41.3221 16.0873 41.2633 16.1548 41.2601 15.4689C41.2579 14.8982 41.0932 14.736 40.5276 14.7349C39.5685 14.7338 38.6083 14.7349 37.6492 14.7349C37.4268 14.7349 37.2065 14.7523 36.9905 14.8068C36.6955 14.8819 36.5147 15.0702 36.441 15.3741C36.4003 15.5418 36.4132 15.7105 36.3949 15.8772C36.3757 16.0601 36.4452 16.0939 36.6109 16.0928C37.3305 16.0841 38.0501 16.0884 38.7697 16.0895V16.0873Z" fill="white"/>
<path d="M28.6197 11.6489C30.0685 11.6489 31.5174 11.6489 32.9662 11.6489C33.3501 11.6489 33.3896 11.6925 33.3896 12.0867C33.3896 12.3785 33.3918 12.6692 33.3896 12.9611C33.3864 13.278 33.3288 13.3347 33.0143 13.3347C31.9345 13.3347 30.8545 13.3389 29.7745 13.3303C29.5649 13.3281 29.4955 13.3728 29.4965 13.6068C29.5072 15.543 29.5029 17.479 29.5029 19.4151C29.5029 19.8507 29.4794 19.8747 29.0485 19.8757C28.7256 19.8769 28.4016 19.867 28.0798 19.8801C27.8146 19.8909 27.7247 19.7767 27.7259 19.5121C27.7323 17.5945 27.7291 15.678 27.7301 13.7604C27.7301 13.3357 27.7323 13.3357 27.3035 13.3357C26.2887 13.3357 25.273 13.3357 24.2582 13.3357C23.8776 13.3357 23.837 13.2922 23.8359 12.8947C23.8359 12.6225 23.8359 12.3491 23.8359 12.077C23.837 11.6936 23.8808 11.6501 24.2733 11.6501C25.7221 11.6501 27.1709 11.6501 28.6197 11.6501V11.6489Z" fill="white"/>
<path d="M72.1767 5.22732C72.1789 6.10826 72.1799 6.9881 72.1821 7.86795C72.1254 8.00297 72.2537 8.18917 72.0666 8.29262C71.5181 8.59425 71.1481 9.07011 70.8348 9.60259C70.5707 9.61456 70.5461 9.44579 70.5461 9.23344C70.5504 8.17284 70.5504 7.11224 70.5461 6.05163C70.5461 5.83602 70.5322 5.61934 70.5076 5.4059C70.4585 4.98014 70.2638 4.76779 69.8511 4.69266C69.6801 4.66109 69.5036 4.64693 69.3293 4.64693C68.3339 4.64258 67.3383 4.64475 66.3429 4.64584C66.3151 4.64584 66.2873 4.64584 66.2595 4.64584C65.3313 4.65564 65.0438 4.94965 65.0373 5.90027C65.033 6.47305 65.0341 7.04473 65.033 7.61749C64.4813 7.67739 63.9285 7.64908 63.3757 7.63165C63.3906 6.75943 63.3276 5.88503 63.4131 5.0139C63.5168 3.94675 64.0375 3.40012 65.0769 3.22698C65.3966 3.17362 65.7185 3.15402 66.0413 3.15294C67.3598 3.14858 68.6782 3.11918 69.9954 3.17362C70.1879 3.18125 70.3814 3.20738 70.5707 3.24331C71.6325 3.44694 72.1222 4.06 72.1745 5.23603V5.22841L72.1767 5.22732Z" fill="white"/>
<path d="M70.8336 9.6024C71.1458 9.06992 71.5157 8.59298 72.0654 8.29244C72.2536 8.18899 72.1242 8.00387 72.1809 7.86776C72.1851 7.93309 72.1948 7.99843 72.1916 8.06267C72.1873 8.15959 72.2065 8.21295 72.3146 8.15959C72.9893 7.82311 73.7248 7.75342 74.4541 7.65543C75.0668 7.64671 75.6784 7.638 76.2911 7.63037C76.4012 7.6369 76.5113 7.64998 76.6215 7.64998C78.0415 7.64998 79.4604 7.65106 80.8803 7.64998C81.0728 7.64998 81.2664 7.6369 81.4587 7.63037C81.632 7.63582 81.8042 7.64127 81.9774 7.64671C82.3687 7.65869 82.7803 7.56069 83.1107 7.87865C83.1246 8.61584 83.1524 9.35413 83.098 10.0913C82.8445 10.2329 82.5783 10.2917 82.2842 10.2732C81.9667 10.2536 81.6459 10.2764 81.3262 10.2808C79.1481 10.2808 76.9712 10.2808 74.7931 10.283C74.6743 10.283 74.5546 10.308 74.4359 10.3265C73.6372 10.4561 73.2694 10.8383 73.1731 11.6539C73.1399 11.9327 73.0084 12.2844 73.156 12.4749C73.2972 12.659 73.6586 12.5327 73.9216 12.5338C76.7274 12.5382 79.5331 12.536 82.3388 12.537C82.8894 12.537 83.0017 12.6524 83.0017 13.2143C83.0017 13.553 83.0017 13.8906 83.0017 14.2292C82.9996 14.7585 82.8809 14.8793 82.3655 14.8793C79.393 14.8793 76.4215 14.8847 73.449 14.8717C73.157 14.8705 73.0886 14.9588 73.1165 15.2311C73.1486 15.5479 73.1538 15.8691 73.2266 16.1817C73.3495 16.7087 73.6746 17.0289 74.1879 17.1562C74.5493 17.2455 74.9171 17.2683 75.287 17.2683C77.6779 17.2683 80.0677 17.2683 82.4586 17.2683C82.9857 17.2683 83.114 17.3991 83.1129 17.9316C83.1129 18.3922 83.1151 18.8528 83.1129 19.3134C83.1119 19.7022 82.9589 19.8785 82.5826 19.8785C79.8784 19.8763 77.1743 19.8709 74.4701 19.8567C74.0456 19.8546 73.6254 19.7827 73.2095 19.6902C71.6772 19.3492 70.7855 18.4042 70.5021 16.8274C70.4359 16.4571 70.3834 16.0847 70.3813 15.7079C70.3727 14.1585 70.2947 12.6079 70.4454 11.0605C70.4947 10.553 70.654 10.0739 70.8315 9.60023L70.8336 9.6024ZM72.1787 8.71167C72.1691 8.59298 72.1723 8.47428 72.0023 8.60169C71.643 8.87283 71.3212 9.17446 71.1309 9.59805C70.779 10.2057 70.6626 10.8808 70.6294 11.5668C70.5652 12.9378 70.5952 14.3098 70.6112 15.6807C70.6155 16.0673 70.6657 16.4484 70.7353 16.8274C71.0015 18.2756 71.8483 19.1565 73.264 19.4648C73.6982 19.5595 74.1376 19.6281 74.5803 19.6303C77.2374 19.6423 79.8945 19.6411 82.5516 19.6477C82.79 19.6477 82.8766 19.5475 82.8702 19.3068C82.8584 18.8473 82.8681 18.3867 82.8681 17.926C82.8681 17.5177 82.8499 17.4981 82.4436 17.4981C80.0719 17.4981 77.7015 17.4981 75.3299 17.4981C74.8765 17.4981 74.4252 17.4818 73.99 17.337C73.4981 17.1736 73.1753 16.8426 73.0342 16.3319C72.8973 15.8375 72.8908 15.3312 72.8941 14.8226C72.8941 14.6854 72.9635 14.6409 73.0833 14.6409C73.1848 14.6409 73.2865 14.6387 73.388 14.6387C76.3863 14.6387 79.3855 14.6387 82.3837 14.6387C82.7322 14.6387 82.7664 14.6038 82.7676 14.2564C82.7686 13.9091 82.7718 13.5617 82.7708 13.2133C82.7708 12.7908 82.743 12.7646 82.3345 12.7646C79.3631 12.7646 76.3926 12.7646 73.4212 12.7646C73.31 12.7646 73.1999 12.7614 73.0886 12.7668C72.9475 12.7734 72.8919 12.7123 72.893 12.5664C72.893 12.1712 72.9122 11.7791 72.986 11.3893C73.124 10.6663 73.5623 10.2568 74.2563 10.1175C74.4637 10.0761 74.6765 10.0478 74.8882 10.0467C76.9551 10.038 79.0219 10.0369 81.0878 10.0325C81.1979 10.0325 81.3069 10.0173 81.4171 10.0097C81.8191 10.0794 82.2233 10.0369 82.6264 10.0347C82.805 10.0347 82.8745 9.91492 82.8723 9.73199C82.8659 9.23435 82.8584 8.7378 82.8745 8.24017C82.883 7.96249 82.7632 7.87865 82.5131 7.87974C80.0719 7.88518 77.6308 7.88409 75.1897 7.89171C74.9727 7.89171 74.7492 7.84925 74.5386 7.94289C74.5129 7.93201 74.4873 7.91132 74.4615 7.9124C73.7313 7.95379 73.0203 8.079 72.3476 8.39371C72.1969 8.46449 72.1884 8.57992 72.1777 8.70949L72.1787 8.71167Z" fill="#CE2254"/>
<path d="M16.0823 9.35547C16.1357 9.37943 16.186 9.40229 16.2363 9.42516C17.5066 9.99793 18.7768 10.5739 20.0503 11.1402C20.2021 11.2078 20.2299 11.2621 20.1583 11.4222C19.5862 12.7105 19.0206 14.0019 18.4646 15.2966C18.3887 15.4719 18.3245 15.4828 18.1642 15.4098C16.9131 14.8371 15.6599 14.2697 14.4025 13.7112C14.2207 13.6305 14.1833 13.5728 14.2741 13.3714C14.8441 12.1029 15.3947 10.8255 15.9529 9.55148C15.9839 9.4796 15.9861 9.38596 16.0823 9.35547Z" fill="white"/>
<path d="M15.2564 4.97599C15.2286 5.04241 15.2062 5.0925 15.1849 5.14368C14.632 6.4395 14.0771 7.73313 13.5317 9.03221C13.4665 9.18792 13.4163 9.22168 13.2569 9.15089C11.9739 8.57704 10.6876 8.0108 9.40017 7.44783C9.27079 7.39121 9.24619 7.34329 9.30714 7.20065C9.87171 5.88959 10.4277 4.57527 10.9816 3.25986C11.0404 3.12047 11.0949 3.08998 11.2435 3.1575C12.5214 3.73244 13.8044 4.29542 15.0865 4.86274C15.1495 4.89106 15.2254 4.90412 15.2564 4.9749V4.97599Z" fill="white"/>
<path d="M76.292 7.63047C75.6793 7.63919 75.0666 7.64682 74.455 7.65553C74.3299 6.69183 74.3288 5.72487 74.4443 4.76336C74.5416 3.95212 75.0345 3.48061 75.7991 3.28352C76.1958 3.18117 76.5999 3.15286 77.0062 3.15068C78.2883 3.14414 79.5714 3.12454 80.8534 3.16484C81.2245 3.17682 81.5869 3.24105 81.9366 3.36738C82.5578 3.5906 82.9139 4.03923 83.0293 4.69693C83.0881 5.03123 83.1117 5.36662 83.1106 5.70636C83.1084 6.4294 83.1106 7.15353 83.1106 7.87766C82.7802 7.56079 82.3675 7.65879 81.9772 7.64681C81.8039 7.64137 81.6318 7.63592 81.4586 7.63047C81.4522 6.89872 81.4703 6.16698 81.4319 5.4374C81.402 4.85918 81.1721 4.63923 80.6075 4.57389C79.8644 4.48896 79.117 4.54449 78.3717 4.54013C77.8478 4.53686 77.3217 4.49876 76.7988 4.57607C76.3155 4.64793 76.0696 4.89512 76.0482 5.39167C76.0257 5.92523 76.0396 6.45989 76.0418 6.99455C76.0418 7.23738 76.1263 7.45189 76.2909 7.63047H76.292Z" fill="white"/>
<path d="M63.3793 7.63085C63.932 7.64828 64.4849 7.67658 65.0366 7.6167C65.1318 7.66897 65.2355 7.64936 65.336 7.64936C66.2865 7.64936 67.2371 7.64827 68.1877 7.65046C68.6667 7.65154 68.7972 7.78657 68.7972 8.26896C68.7972 8.73828 68.7972 9.20869 68.7972 9.67802C68.7961 10.1223 68.6549 10.2693 68.2187 10.2693C66.5025 10.2704 64.7863 10.2693 63.0703 10.2693C62.3229 10.2693 61.5754 10.2704 60.828 10.2693C60.5692 10.2693 60.3126 10.2933 60.057 10.3368C59.3845 10.4522 59.005 10.8269 58.8948 11.5107C58.8552 11.76 58.8574 12.0159 58.8232 12.2675C58.791 12.5005 58.8884 12.5408 59.098 12.5408C62.0972 12.5342 65.0954 12.5364 68.0947 12.5364C68.5727 12.5364 68.6956 12.6606 68.6998 13.155C68.703 13.5022 68.703 13.8508 68.702 14.1981C68.701 14.7643 68.5897 14.8797 68.0412 14.8797C66.417 14.8797 64.7928 14.8797 63.1686 14.8797C63.0681 14.8797 62.9676 14.8907 62.866 14.8972C61.6192 14.821 60.3725 14.895 59.1258 14.8733C59.2444 14.8863 59.3642 14.8787 59.4828 14.8885C59.8069 14.9135 60.1362 14.8275 60.4559 14.9364C59.9865 14.9364 59.5182 14.943 59.0487 14.9298C58.8649 14.9255 58.8135 14.9897 58.82 15.1706C58.8328 15.5081 58.852 15.8435 58.9279 16.1734C59.0477 16.7004 59.3685 17.0239 59.8785 17.1545C60.3468 17.2743 60.8248 17.2841 61.3049 17.2591C61.8064 17.2635 62.3068 17.2667 62.8083 17.2732C62.8703 17.2732 62.9109 17.2493 62.9473 17.2046C63.0318 17.3168 63.1526 17.2667 63.2563 17.2667C64.8987 17.2699 66.541 17.2689 68.1834 17.2689C68.6785 17.2689 68.7972 17.3919 68.7972 17.9048C68.7972 18.3371 68.7972 18.7694 68.7972 19.2017C68.7972 19.7733 68.6935 19.8801 68.1396 19.8801C66.4331 19.8801 64.7255 19.8757 63.0189 19.8801C61.8844 19.8833 60.75 19.9204 59.6177 19.8071C59.2134 19.7669 58.8157 19.6852 58.4286 19.5556C57.0397 19.0928 56.3852 18.0408 56.1671 16.6351C56.0795 16.0667 56.0698 15.495 56.0527 14.9222C56.0527 14.4224 56.0527 13.9227 56.0527 13.4239C56.0559 13.2736 56.0656 13.1244 56.0634 12.9741C56.0453 11.8254 56.0795 10.6853 56.5296 9.60397C56.7274 9.30233 56.9177 8.99636 57.1561 8.7263C57.8127 8.14155 58.6018 7.87694 59.4444 7.73865C59.994 7.70381 60.5447 7.66787 61.0943 7.63303C61.8556 7.65807 62.6158 7.66352 63.3771 7.62976L63.3793 7.63085ZM62.9494 17.564C62.9078 17.5063 62.851 17.4943 62.7826 17.4953C62.2907 17.5019 61.7978 17.5041 61.306 17.5085C60.8291 17.4899 60.35 17.5085 59.8785 17.3951C59.2455 17.2427 58.8467 16.8616 58.7002 16.2061C58.6061 15.7814 58.6029 15.3523 58.5933 14.9222C58.5697 14.6892 58.6927 14.6543 58.8916 14.6555C60.0838 14.6631 61.276 14.6587 62.4683 14.6555C62.5666 14.6555 62.6704 14.6838 62.7634 14.6249C62.7815 14.6293 62.7997 14.6369 62.8168 14.6369C64.6067 14.6391 66.3978 14.6403 68.1877 14.6435C68.3877 14.6435 68.4721 14.5487 68.47 14.3516C68.4668 13.976 68.4689 13.6003 68.4678 13.2235C68.4678 12.7792 68.455 12.7684 68.0144 12.7684C65.3104 12.7684 62.6062 12.7684 59.902 12.7684C59.5417 12.7684 59.1824 12.7618 58.822 12.7706C58.6563 12.7749 58.5922 12.7215 58.5933 12.5474C58.5965 12.1804 58.6039 11.8134 58.6692 11.4519C58.8061 10.6853 59.2455 10.2497 60.0057 10.1103C60.3532 10.0472 60.7029 10.0406 61.0536 10.0406C63.3888 10.0406 65.7241 10.0406 68.0593 10.0406C68.1428 10.0406 68.2262 10.0428 68.3085 10.0374C68.4828 10.0254 68.5747 9.93936 68.5726 9.7488C68.5683 9.22284 68.5683 8.69581 68.5726 8.16987C68.5726 7.98039 68.4817 7.88892 68.3042 7.89002C67.2157 7.89437 66.1272 7.90199 65.0388 7.90853C64.4859 7.87804 63.932 7.88348 63.3793 7.90853C62.619 7.87477 61.8588 7.87586 61.0985 7.90853C60.5447 7.89002 59.9908 7.86933 59.4465 8.01197C58.9376 8.04354 58.4574 8.19055 58.0084 8.42903C57.6748 8.60543 57.3562 8.80906 57.1487 9.14663C56.9979 9.26531 56.8931 9.41668 56.8311 9.59961C56.6654 9.85333 56.5756 10.1397 56.5029 10.4294C56.2559 11.4149 56.2837 12.421 56.3029 13.425C56.2805 13.9247 56.2783 14.4246 56.3029 14.9234C56.2719 15.4874 56.3147 16.0471 56.3949 16.6046C56.6322 18.2402 57.4694 19.1461 59.0594 19.4837C59.8026 19.6416 60.5553 19.6699 61.3124 19.6395C61.8598 19.6395 62.4073 19.6395 62.9547 19.6395C64.7265 19.6427 66.4972 19.6459 68.2689 19.6514C68.4946 19.6514 68.578 19.5447 68.5748 19.3215C68.5673 18.8239 68.5651 18.3251 68.5748 17.8275C68.579 17.5781 68.4656 17.4987 68.2379 17.4997C66.54 17.5029 64.842 17.5019 63.144 17.5019C63.0735 17.5019 62.9922 17.4779 62.9483 17.5662L62.9494 17.564Z" fill="#CE2254"/>
<path d="M42.6782 19.0382C42.6323 18.8389 42.7306 18.5928 42.4965 18.4545C42.2858 18.0767 42.0698 17.7009 41.9736 17.272C41.95 17.1685 41.8785 17.15 41.7961 17.1358C41.8357 17.0999 41.9319 17.1326 41.9063 17.0182C41.6464 15.8531 41.763 14.6672 41.7148 13.4902C41.7277 12.9021 41.7352 12.3141 41.7533 11.7261C41.7758 10.9922 41.917 10.2822 42.2057 9.60599C42.5286 9.00164 42.9627 8.50836 43.5818 8.21109C43.7325 8.13921 43.6908 8.01617 43.7165 7.90837C43.7218 8.04884 43.7443 8.13377 43.9229 8.05864C44.4361 7.84085 44.9804 7.7483 45.53 7.70474C45.7171 7.6895 45.7855 7.62198 45.7823 7.44775C45.7781 7.63831 45.8572 7.69276 46.0485 7.6797C46.5073 7.64811 46.9681 7.64703 47.4279 7.63396C48.4501 7.6394 49.4733 7.64376 50.4955 7.65356C50.6111 7.65464 50.6335 7.5904 50.6453 7.50111C50.6699 7.59911 50.7148 7.65574 50.8324 7.65247C51.32 7.6405 51.8076 7.6394 52.2951 7.63505C52.8939 7.64049 53.4927 7.64376 54.0915 7.65247C54.4839 7.65792 54.6229 7.79948 54.6272 8.2002C54.6325 8.69783 54.6304 9.19547 54.6272 9.6931C54.625 10.2201 54.5074 10.3388 53.9932 10.3388C51.5691 10.3388 49.1441 10.3388 46.72 10.341C46.4719 10.341 46.2218 10.3541 45.9758 10.3824C45.0776 10.4891 44.6767 10.856 44.5932 11.7708C44.4736 13.0709 44.5131 14.3765 44.5773 15.6799C44.5847 15.8324 44.559 16.0055 44.6949 16.1286C44.7056 16.4912 44.9002 16.7449 45.1825 16.929C45.5363 17.1588 45.9427 17.1881 46.3479 17.2045C46.3757 17.2077 46.4025 17.2153 46.4302 17.2153C48.9687 17.2153 51.5082 17.2153 54.0466 17.2153C54.1225 17.2153 54.2187 17.2513 54.2508 17.1326C54.269 17.1642 54.2807 17.2165 54.3064 17.2251C54.6218 17.3297 54.6272 17.5899 54.6262 17.8589C54.624 18.3336 54.6176 18.8095 54.6282 19.2843C54.6336 19.5119 54.5823 19.7046 54.4229 19.8657C51.567 19.9028 48.711 19.9278 45.856 19.8581C44.9675 19.8363 44.0939 19.6839 43.3187 19.1906C43.1113 19.0588 42.9241 18.8945 42.7157 18.7355C42.7018 18.8454 42.69 18.9434 42.6772 19.0414L42.6782 19.0382ZM54.2519 17.6771C54.2594 17.4832 54.1674 17.4375 53.9824 17.4385C51.5125 17.4451 49.0424 17.4429 46.5724 17.444C46.5009 17.444 46.425 17.4212 46.3586 17.4723C45.7984 17.371 45.2124 17.3537 44.7676 16.9039C44.7013 16.8364 44.7259 16.9671 44.6959 16.9965C44.666 16.8996 44.7013 16.795 44.6414 16.6981C44.388 16.2854 44.327 15.8183 44.3206 15.3478C44.3077 14.3058 44.3153 13.2637 44.3164 12.2227C44.3164 11.9308 44.357 11.6423 44.4297 11.3603C44.5815 10.7657 44.9397 10.3758 45.5332 10.2245C45.9031 10.1308 46.2784 10.108 46.6569 10.108C49.1087 10.1091 51.5616 10.1091 54.0135 10.108C54.3598 10.108 54.4015 10.0677 54.4027 9.72468C54.4048 9.21724 54.3995 8.7109 54.4037 8.20346C54.4048 8.01617 54.3534 7.88767 54.145 7.88877C53.5279 7.89312 52.911 7.89965 52.2941 7.9051C51.8449 7.90075 51.3949 7.9051 50.9457 7.88659C50.7436 7.87788 50.6335 7.93232 50.6421 8.15119C50.5982 8.05972 50.7073 7.8855 50.4935 7.88659C49.4701 7.8953 48.4479 7.89965 47.4247 7.90619C46.9424 7.90401 46.4602 7.90837 45.979 7.89747C45.8326 7.89421 45.7972 7.9737 45.7748 8.08804C45.7577 8.00419 45.7813 7.89747 45.6283 7.91816C44.9685 8.00745 44.3057 8.07606 43.7101 8.42125C43.1584 8.65863 42.7638 9.06589 42.488 9.59946C42.2003 10.1025 42.0773 10.6567 42.0217 11.2263C41.9448 12.007 41.918 12.7911 41.9918 13.575C41.9415 13.6285 41.9458 13.696 41.9469 13.7613C41.9608 14.5312 41.9597 15.3021 41.9961 16.0709C42.0132 16.4324 42.042 16.8026 42.1918 17.1434C42.1971 17.1892 42.196 17.236 42.2077 17.2796C42.5852 18.6864 44.1538 19.758 45.5866 19.5881C45.6016 19.5859 45.6154 19.5663 45.6293 19.5544C45.7438 19.6229 45.8689 19.6404 45.9994 19.6404C48.0309 19.6426 50.0626 19.6458 52.0941 19.6469C52.1561 19.6469 52.2182 19.624 52.2802 19.6121C52.5774 19.6926 52.88 19.6436 53.1794 19.6426C53.5344 19.6414 53.8915 19.6926 54.2444 19.6087C54.4048 19.5783 54.4027 19.4509 54.4027 19.3278C54.4048 18.8052 54.4058 18.2825 54.4048 17.7608C54.4048 17.6661 54.4112 17.5616 54.2968 17.505C54.2775 17.5725 54.2636 17.6236 54.2487 17.6759L54.2519 17.6771Z" fill="#CE2254"/>
<path d="M8.55702 15.2681C8.60834 15.2888 8.65111 15.3063 8.69388 15.3237C9.74175 15.7581 10.7875 16.197 11.8375 16.6227C11.9957 16.687 12.0225 16.7338 11.9551 16.8971C11.521 17.9599 11.0955 19.0259 10.6763 20.0953C10.6153 20.2488 10.5694 20.2935 10.4015 20.2227C9.36538 19.7828 8.32606 19.3527 7.28247 18.9323C7.09855 18.8583 7.07716 18.7907 7.15094 18.61C7.58293 17.557 8.001 16.4975 8.4255 15.4423C8.45329 15.3738 8.44795 15.2681 8.55595 15.2681H8.55702Z" fill="white"/>
<path d="M4.95564 14.1867C4.93747 14.2282 4.91822 14.2706 4.90004 14.3142C4.45951 15.3747 4.0147 16.4333 3.58164 17.4971C3.51536 17.6593 3.45761 17.679 3.30364 17.6114C2.26433 17.1541 1.22287 16.7033 0.178207 16.26C0.0210266 16.1937 0.00284925 16.1414 0.0702124 15.9824C0.521438 14.9272 0.96411 13.8678 1.39716 12.8038C1.46559 12.6351 1.5276 12.6307 1.6773 12.6972C2.707 13.1512 3.74203 13.5944 4.77493 14.0431C4.84443 14.0735 4.94494 14.0681 4.95564 14.1867Z" fill="white"/>
<path d="M54.4246 19.8622C54.5828 19.701 54.6341 19.5083 54.6298 19.2807C54.6191 18.8059 54.6255 18.3301 54.6277 17.8553C54.6287 17.5864 54.6245 17.3261 54.308 17.2216C54.2823 17.2128 54.2706 17.1617 54.2524 17.129C54.2502 16.6216 54.248 16.1152 54.248 15.6078C54.248 14.2184 54.248 12.8278 54.248 11.4383C54.248 11.1128 54.2973 11.0649 54.617 11.0627C54.9217 11.0605 55.2253 11.0605 55.5301 11.0627C55.8584 11.0649 55.8958 11.1018 55.8969 11.4383C55.899 12.0296 55.899 12.6219 55.8969 13.2133C55.8969 13.3287 55.8744 13.4529 56.0552 13.4245C56.0552 13.9243 56.0552 14.4241 56.0552 14.9228C55.8402 14.8803 55.9 15.0416 55.899 15.1483C55.8969 16.5715 55.899 17.9958 55.898 19.419C55.898 19.86 55.883 19.8763 55.4446 19.8753C55.1045 19.8741 54.7646 19.8665 54.4246 19.8622Z" fill="white"/>
<path d="M81.3295 10.2808C81.6492 10.2764 81.97 10.2536 82.2875 10.2732C82.5816 10.2906 82.8468 10.2318 83.1013 10.0913C83.0724 10.3047 83.0585 10.5225 83.0115 10.7316C82.8307 11.5494 82.2512 12.0176 81.2878 12.1374C80.9766 12.1766 80.6645 12.1972 80.35 12.1972C78.6243 12.194 76.8996 12.1972 75.1738 12.1962C74.8652 12.1962 74.7108 12.0343 74.7108 11.7106C74.7108 11.5135 74.7226 11.3153 74.7076 11.1192C74.6873 10.8612 74.7878 10.7752 75.0412 10.7762C76.72 10.785 78.3998 10.7795 80.0784 10.7817C80.3009 10.7817 80.5222 10.7817 80.7392 10.7305C80.9991 10.6695 81.2322 10.5661 81.3285 10.2819L81.3295 10.2808Z" fill="white"/>
<path d="M5.64211 2.23302C5.69878 2.25588 5.7501 2.27657 5.80143 2.29835C6.58305 2.6283 7.36254 2.96259 8.14845 3.28274C8.31097 3.34915 8.327 3.41014 8.26179 3.56585C7.92497 4.3662 7.5967 5.16983 7.27486 5.97672C7.21391 6.12916 7.16366 6.16401 7.00113 6.09214C6.22486 5.74913 5.44322 5.41919 4.65946 5.09578C4.49907 5.02935 4.45417 4.97491 4.53008 4.79524C4.86476 4.00469 5.18019 3.20542 5.50738 2.4116C5.53519 2.34409 5.53197 2.2352 5.64211 2.23193V2.23302Z" fill="#CE2254"/>
<path d="M12.204 13.8785C12.1495 13.8535 12.1164 13.8383 12.0822 13.823C11.2845 13.4822 10.4879 13.1381 9.68703 12.8027C9.5352 12.7396 9.50418 12.6862 9.57583 12.5196C9.91477 11.7301 10.2398 10.9352 10.5585 10.137C10.6247 9.97153 10.6782 9.93451 10.8514 10.0118C11.6267 10.3581 12.4083 10.6902 13.1931 11.0158C13.3535 11.0822 13.3717 11.1432 13.3054 11.3C12.9654 12.0993 12.6381 12.904 12.3067 13.7076C12.2789 13.774 12.2565 13.8415 12.203 13.8785H12.204Z" fill="white"/>
<path d="M5.37677 6.72804C5.42275 6.74873 5.46552 6.76832 5.50722 6.78793C6.27066 7.13965 7.0309 7.4979 7.79863 7.84091C7.97398 7.91931 8.03494 7.97376 7.9387 8.17847C7.57836 8.94725 7.233 9.72364 6.89938 10.5055C6.82133 10.6874 6.7529 10.6895 6.59786 10.6165C5.82906 10.2539 5.05813 9.89787 4.28399 9.54942C4.14712 9.48736 4.11291 9.43618 4.17921 9.28808C4.54168 8.48881 4.89347 7.6852 5.25167 6.88375C5.27839 6.82386 5.27839 6.72695 5.37783 6.72804H5.37677Z" fill="white"/>
<path d="M13.8087 16.6456C13.8504 16.663 13.8921 16.6816 13.9348 16.699C14.7101 17.0246 15.4831 17.3556 16.2615 17.6725C16.4422 17.7466 16.4626 17.8195 16.3866 17.9992C16.0583 18.7734 15.7408 19.5541 15.435 20.3382C15.3655 20.5157 15.3131 20.5658 15.1238 20.483C14.3551 20.1433 13.5798 19.8177 12.8024 19.4986C12.6335 19.43 12.6025 19.3658 12.6763 19.1915C13.0056 18.4064 13.3189 17.6148 13.643 16.8285C13.674 16.7546 13.6675 16.626 13.8097 16.6468L13.8087 16.6456Z" fill="#CE2254"/>
<path d="M19.9127 5.10732C19.8967 5.14979 19.8806 5.19443 19.8635 5.2369C19.5598 5.99043 19.2519 6.74178 18.9557 7.49858C18.8948 7.65429 18.8381 7.69132 18.6766 7.62054C17.941 7.30148 17.2 6.99224 16.4568 6.68951C16.3082 6.62853 16.2548 6.57627 16.3265 6.4053C16.6418 5.64633 16.9466 4.883 17.2492 4.11967C17.3048 3.9792 17.3593 3.94 17.51 4.00533C18.2628 4.332 19.022 4.64562 19.7779 4.96467C19.8421 4.99189 19.9299 4.99734 19.9138 5.10732H19.9127Z" fill="#CE2254"/>
<path d="M61.0952 7.63353C60.5456 7.66838 59.9949 7.70431 59.4453 7.73916C59.4453 6.34861 59.4453 4.95698 59.4453 3.56643C59.4453 3.19837 59.502 3.14175 59.8602 3.14284C60.1554 3.14284 60.4515 3.15047 60.7466 3.14284C61.0065 3.13631 61.1027 3.25174 61.1005 3.51743C61.092 4.88947 61.0963 6.2615 61.0952 7.63353Z" fill="white"/>
<path d="M6.57245 11.6421C6.58955 11.6508 6.6056 11.6596 6.62271 11.666C7.21186 11.9285 7.80209 12.1909 8.39232 12.4501C8.48213 12.4892 8.48749 12.5329 8.44899 12.621C8.19343 13.2124 7.94323 13.8058 7.6941 14.3992C7.65346 14.4951 7.61176 14.5212 7.50805 14.4755C6.92744 14.2153 6.34363 13.9626 5.76089 13.7078C5.66358 13.6653 5.65503 13.6131 5.69993 13.5117C5.95442 12.9303 6.19821 12.3445 6.44628 11.7608C6.47086 11.7041 6.4837 11.629 6.57352 11.6421H6.57245Z" fill="#CE2254"/>
<path d="M62.9465 17.2042C62.9101 17.2489 62.8695 17.2739 62.8075 17.2729C62.306 17.2663 61.8056 17.2631 61.3041 17.2587C61.2999 16.7795 61.3223 16.2993 61.286 15.8235C61.2389 15.2039 61.0581 15.0362 60.4551 14.9372C60.1354 14.8282 59.8061 14.9143 59.4821 14.8892C59.3634 14.8805 59.2436 14.8881 59.125 14.8739C60.3717 14.8947 61.6185 14.8218 62.8652 14.8979C63.0085 15.6624 62.9401 16.4355 62.9465 17.2054V17.2042Z" fill="white"/>
<path d="M21.4922 8.26775C21.4697 8.31458 21.4504 8.35704 21.4313 8.39951C21.2142 8.87428 20.9875 9.34361 20.7844 9.8249C20.7084 10.0046 20.6368 10.0035 20.4839 9.92617C20.0316 9.69642 19.5739 9.48081 19.1142 9.26738C18.987 9.20858 18.9302 9.16611 19.0083 9.00822C19.2425 8.53237 19.4585 8.0467 19.6744 7.56214C19.7279 7.44126 19.7707 7.39226 19.9129 7.46414C20.3984 7.70915 20.8923 7.93673 21.3831 8.17084C21.4291 8.19262 21.4965 8.1948 21.4922 8.26775Z" fill="white"/>
<path d="M59.4404 1.5881C59.4531 0.720232 59.2938 0.752899 60.2498 0.757255C60.4433 0.757255 60.6358 0.75181 60.8293 0.759433C61.0014 0.765966 61.1009 0.85308 61.0987 1.04255C61.0955 1.40734 61.0966 1.77321 61.0976 2.138C61.0976 2.32311 61.0014 2.41785 60.8271 2.42003C60.4594 2.42438 60.0915 2.4233 59.7237 2.42003C59.5355 2.41785 59.435 2.32421 59.4404 2.12275C59.4446 1.94526 59.4403 1.76668 59.4414 1.58918L59.4404 1.5881Z" fill="white"/>
<path d="M3.48865 10.4116C3.47261 10.4442 3.45658 10.478 3.43947 10.5106C3.25769 10.8678 3.07164 11.2228 2.89736 11.5832C2.83213 11.7182 2.77011 11.7248 2.64608 11.654C2.31675 11.4678 1.981 11.2947 1.64312 11.1248C1.51588 11.0605 1.46135 11.0116 1.54795 10.858C1.73508 10.5259 1.90188 10.1818 2.06761 9.8377C2.13069 9.70812 2.18095 9.65258 2.33065 9.73861C2.6664 9.93244 3.01498 10.1034 3.35607 10.2863C3.40846 10.3146 3.48545 10.3234 3.48865 10.4105V10.4116Z" fill="#CE2254"/>
<path d="M8.93645 0.754119C8.82523 0.999124 8.7119 1.24413 8.6007 1.49022C8.44673 1.82924 8.20293 1.91962 7.86932 1.76137C7.65333 1.659 7.43628 1.55556 7.21815 1.45865C7.11764 1.41401 7.08235 1.37589 7.14331 1.25284C7.30903 0.919634 7.45659 0.577713 7.60522 0.235794C7.65441 0.122547 7.70145 0.0789901 7.82869 0.144325C8.15696 0.31093 8.4927 0.462289 8.82631 0.620182C8.88298 0.647404 8.95462 0.660472 8.93645 0.754119Z" fill="white"/>
<path d="M12.0916 2.04578C11.8136 1.91076 11.5473 1.78553 11.2864 1.64942C11.2212 1.61566 11.2704 1.55358 11.2939 1.5035C11.3923 1.29334 11.4928 1.08318 11.5848 0.869748C11.635 0.754323 11.6853 0.728189 11.8125 0.782635C12.5941 1.11693 12.6284 1.21058 12.1963 1.94125C12.1675 1.99025 12.1429 2.03271 12.0916 2.04578Z" fill="#CE2254"/>
<path d="M19.6719 22.322C19.8259 22.2567 19.8943 22.3264 19.9574 22.4168C20.0975 22.6149 20.2429 22.8088 20.3808 23.0081C20.4118 23.0538 20.507 23.1049 20.4214 23.167C20.3562 23.2139 20.2825 23.1779 20.2312 23.1071C20.1178 22.9471 20.0012 22.7902 19.8869 22.6313C19.8174 22.5344 19.75 22.4342 19.6719 22.3232V22.322Z" fill="#CE2254"/>
<path d="M3.2793 22.3224C3.43006 22.2615 3.50063 22.3192 3.56585 22.414C3.70379 22.6132 3.85028 22.807 3.9882 23.0062C4.02029 23.052 4.11438 23.1032 4.03205 23.1663C3.96789 23.2143 3.89198 23.1805 3.84172 23.1097C3.65887 22.8527 3.4739 22.5957 3.2793 22.3224Z" fill="#CE2254"/>
<path d="M5.74023 22.3231C5.83753 22.2763 5.91452 22.2752 5.96477 22.3405C6.14441 22.5769 6.31763 22.8197 6.49192 23.0603C6.51971 23.0995 6.53896 23.1496 6.47588 23.1725C6.40851 23.1964 6.34971 23.1725 6.30693 23.1126C6.11982 22.8512 5.93163 22.5899 5.74023 22.3231Z" fill="#CE2254"/>
<path d="M6.56055 22.3256C6.6386 22.281 6.71773 22.2701 6.75728 22.3202C6.95189 22.5684 7.13687 22.8254 7.32292 23.0813C7.34751 23.1151 7.3411 23.1598 7.30154 23.1739C7.22135 23.2022 7.15933 23.163 7.11228 23.0965C6.92944 22.8407 6.74659 22.5848 6.56161 22.3256H6.56055Z" fill="#CE2254"/>
<path d="M22.9551 22.329C23.0288 22.2767 23.109 22.2713 23.1464 22.318C23.3411 22.5664 23.5261 22.8233 23.7121 23.0793C23.7356 23.1119 23.7356 23.1598 23.695 23.174C23.618 23.2001 23.5527 23.1707 23.5036 23.101C23.3218 22.8441 23.1389 22.586 22.9551 22.329Z" fill="#CE2254"/>
<path d="M2.46289 22.3234C2.5634 22.2787 2.63825 22.2744 2.68958 22.343C2.86814 22.5804 3.04136 22.8221 3.21564 23.0627C3.23704 23.0933 3.25629 23.1368 3.21886 23.1618C3.15791 23.2021 3.09161 23.1891 3.04778 23.1302C2.92909 22.9757 2.81467 22.8177 2.70027 22.6598C2.62435 22.5554 2.55057 22.4486 2.46289 22.3234Z" fill="#CE2254"/>
<path d="M22.127 22.3212C22.2777 22.2613 22.3462 22.3168 22.4114 22.4126C22.5472 22.6119 22.6959 22.8036 22.8338 23.0028C22.8658 23.0486 22.9578 23.0998 22.8808 23.1629C22.8155 23.2163 22.7418 23.1771 22.6927 23.1085C22.5087 22.8526 22.3248 22.5967 22.1281 22.3223L22.127 22.3212Z" fill="#CE2254"/>
<path d="M7.37608 22.3221C7.52149 22.2622 7.5942 22.3133 7.6605 22.4092C7.79843 22.6084 7.94491 22.8023 8.08285 23.0016C8.11493 23.0484 8.20474 23.104 8.13311 23.1649C8.07216 23.2172 7.9941 23.1812 7.94385 23.1126C7.75887 22.8568 7.57388 22.5998 7.375 22.3232L7.37608 22.3221Z" fill="#CE2254"/>
<path d="M18.8516 22.3254C18.9317 22.2808 19.0098 22.2688 19.0505 22.321C19.244 22.5704 19.429 22.8263 19.615 23.0822C19.6374 23.1127 19.6354 23.1606 19.5925 23.1747C19.5263 23.1965 19.4642 23.1759 19.4215 23.117C19.2323 22.8546 19.043 22.5911 18.8516 22.3265V22.3254Z" fill="#CE2254"/>
<path d="M22.0543 23.1771C21.6993 23.004 21.5732 22.6119 21.293 22.3354C21.5293 22.3006 21.848 22.6479 22.0543 23.1771Z" fill="#CE2254"/>
<path d="M1.64648 22.3286C1.7192 22.2797 1.78656 22.2742 1.82292 22.3112C2.05174 22.5421 2.21426 22.8263 2.40673 23.0865C2.43132 23.1192 2.42384 23.1616 2.38 23.1748C2.31157 23.1955 2.25489 23.1748 2.21213 23.1138C2.025 22.8513 1.83681 22.5911 1.64756 22.3286H1.64648Z" fill="#CE2254"/>
<path d="M4.91602 22.319C5.02188 22.2808 5.0978 22.2743 5.14805 22.3418C5.32661 22.5803 5.49984 22.8231 5.67519 23.0637C5.69872 23.0965 5.71796 23.1334 5.67519 23.1585C5.60035 23.2009 5.53618 23.1835 5.48486 23.1106C5.30202 22.8536 5.11705 22.5977 4.91602 22.319Z" fill="#CE2254"/>
<path d="M10.6973 22.3125C11.0811 22.4628 11.2041 22.8536 11.4189 23.1618C11.0308 23.0181 10.9346 22.6 10.6973 22.3125Z" fill="#CE2254"/>
<path d="M11.4756 22.3232C11.6232 22.2589 11.6949 22.3166 11.759 22.4092C11.8969 22.6063 12.0412 22.8 12.1792 22.9972C12.2124 23.044 12.2968 23.0973 12.2241 23.1594C12.1578 23.2161 12.0861 23.1747 12.038 23.1071C11.8552 22.8523 11.6713 22.5965 11.4746 22.3232H11.4756Z" fill="#CE2254"/>
<path d="M12.294 22.3226C12.447 22.2627 12.5165 22.3215 12.5806 22.4151C12.7174 22.6144 12.864 22.8072 13.0019 23.0043C13.0339 23.05 13.1238 23.1012 13.0447 23.1632C12.9783 23.2144 12.9067 23.1763 12.8565 23.1066C12.6737 22.8508 12.4897 22.596 12.293 22.3215L12.294 22.3226Z" fill="#CE2254"/>
<path d="M13.9375 22.3188C14.0893 22.2589 14.1556 22.3254 14.2186 22.4168C14.3566 22.6149 14.5021 22.8077 14.6421 23.0048C14.6752 23.0516 14.7629 23.1027 14.6817 23.1638C14.6132 23.2149 14.5438 23.1714 14.4945 23.1039C14.3374 22.885 14.178 22.6672 14.0209 22.4484C13.9941 22.4113 13.9716 22.3721 13.9375 22.3188Z" fill="#CE2254"/>
<path d="M20.543 22.2959C20.9161 22.4592 21.038 22.8523 21.3107 23.1518C21.0615 23.1572 20.8519 22.9252 20.543 22.2959Z" fill="#CE2254"/>
<path d="M0.00106926 22.3223C0.142211 22.2602 0.214921 22.3103 0.281214 22.4061C0.419148 22.6054 0.565636 22.7981 0.705709 22.9963C0.738856 23.0431 0.830811 23.0965 0.759171 23.1564C0.683254 23.2206 0.610545 23.1695 0.553874 23.09C0.377447 22.8396 0.195673 22.5924 0 22.3223H0.00106926Z" fill="#CE2254"/>
<path d="M18.0323 22.3246C18.1809 22.2647 18.2451 22.317 18.3039 22.4009C18.4472 22.6045 18.5969 22.8038 18.7402 23.0074C18.7734 23.0542 18.8535 23.1119 18.7734 23.1686C18.7038 23.2175 18.6365 23.1686 18.5894 23.1021C18.4087 22.8484 18.2258 22.5958 18.0312 22.3258L18.0323 22.3246Z" fill="#CE2254"/>
<path d="M4.10459 22.3264C4.18371 22.2829 4.26177 22.2677 4.30133 22.3188C4.49594 22.5682 4.68092 22.8241 4.86697 23.0799C4.89156 23.1137 4.88729 23.1572 4.84451 23.1704C4.78036 23.1899 4.71728 23.1823 4.67236 23.1192C4.48417 22.8557 4.29492 22.5932 4.10352 22.3264H4.10459Z" fill="#CE2254"/>
<path d="M8.19922 22.3211C8.29651 22.2852 8.37137 22.2689 8.42483 22.3407C8.60233 22.5793 8.77554 22.8209 8.94984 23.0617C8.97229 23.0932 8.99154 23.1292 8.95838 23.1597C8.92097 23.1945 8.86109 23.1945 8.83115 23.1651C8.75951 23.0954 8.69535 23.0148 8.63547 22.9331C8.48899 22.7328 8.34785 22.5292 8.20029 22.3201L8.19922 22.3211Z" fill="#CE2254"/>
<path d="M9.01758 22.3269C9.16941 22.2453 9.23891 22.3269 9.30735 22.4238C9.44742 22.6209 9.59283 22.8159 9.73077 23.0152C9.76071 23.0587 9.85588 23.1098 9.75964 23.1697C9.7019 23.2057 9.63561 23.1807 9.5907 23.1186C9.40144 22.8561 9.21111 22.5937 9.01758 22.3269Z" fill="#CE2254"/>
<path d="M13.1211 22.3298C13.1939 22.2819 13.2698 22.2721 13.2986 22.3092C13.4986 22.565 13.69 22.8275 13.8813 23.0888C13.9059 23.1226 13.9028 23.165 13.8568 23.1748C13.7927 23.1901 13.7307 23.1836 13.6857 23.1193C13.4986 22.8558 13.3093 22.5934 13.1211 22.3298Z" fill="#CE2254"/>
<path d="M14.7578 22.327C14.8422 22.2812 14.9203 22.2671 14.9706 22.3334C15.1567 22.5774 15.3351 22.8268 15.5159 23.0761C15.5383 23.1065 15.5459 23.1534 15.502 23.1708C15.4218 23.2035 15.3566 23.1664 15.3106 23.1011C15.1267 22.8453 14.9439 22.5883 14.7578 22.327Z" fill="#CE2254"/>
<path d="M15.5723 22.3199C15.7295 22.2601 15.7969 22.3254 15.861 22.4168C15.9936 22.6074 16.1358 22.7914 16.2663 22.9831C16.3015 23.0343 16.4052 23.0931 16.3154 23.1639C16.2524 23.2139 16.1785 23.1693 16.1294 23.0996C15.9476 22.8427 15.7637 22.5889 15.5723 22.3199Z" fill="#CE2254"/>
<path d="M16.3926 22.3232C16.5562 22.2579 16.6204 22.3352 16.6824 22.4223C16.8171 22.6117 16.9561 22.7968 17.0887 22.9885C17.125 23.0408 17.2299 23.0963 17.1379 23.167C17.0781 23.2129 17.001 23.1758 16.9508 23.1039C16.7701 22.8469 16.5851 22.5932 16.3926 22.3242V22.3232Z" fill="#CE2254"/>
<path d="M10.6103 23.1542C10.4114 23.1607 10.1933 22.919 9.86719 22.3299C10.0629 22.3037 10.3954 22.6718 10.6103 23.1542Z" fill="#CE2254"/>
<path d="M17.209 22.322C17.364 22.2655 17.4281 22.32 17.4869 22.4027C17.6313 22.6063 17.7821 22.8056 17.9254 23.0103C17.9564 23.0549 18.044 23.1083 17.9552 23.1671C17.8986 23.2052 17.8302 23.1791 17.7874 23.1192C17.5982 22.8589 17.41 22.5976 17.21 22.322H17.209Z" fill="#CE2254"/>
<path d="M0.826172 22.332C0.902089 22.2808 0.974798 22.2721 1.00474 22.3102C1.20469 22.564 1.39608 22.8252 1.58962 23.0855C1.61635 23.1215 1.60352 23.1618 1.56289 23.1737C1.49659 23.1933 1.43886 23.1792 1.39394 23.1171C1.20575 22.8547 1.0165 22.5944 0.827241 22.333L0.826172 22.332Z" fill="#CE2254"/>
<path d="M42.6804 19.6603C42.676 19.6501 42.6704 19.64 42.666 19.631C42.6715 19.6287 42.6771 19.6253 42.6815 19.623C42.6859 19.6332 42.6914 19.6433 42.697 19.6535C42.6914 19.6557 42.6849 19.658 42.6804 19.6603Z" fill="#CE2254"/>
<path d="M72.1758 5.22754V5.23579L72.1998 5.23108L72.1758 5.22754Z" fill="#CE2254"/>
<path d="M81.4188 10.0121C81.3087 10.0197 81.1997 10.035 81.0895 10.035C79.0226 10.0393 76.9558 10.0415 74.8899 10.0491C74.6793 10.0491 74.4655 10.0785 74.2581 10.1199C73.5641 10.2593 73.1257 10.6677 72.9878 11.3917C72.914 11.7816 72.8948 12.1736 72.8948 12.5689C72.8948 12.7148 72.9504 12.7758 73.0905 12.7692C73.2006 12.7638 73.3118 12.767 73.4229 12.767C76.3945 12.767 79.3649 12.767 82.3363 12.767C82.7458 12.767 82.7726 12.7932 82.7726 13.2157C82.7726 13.563 82.7704 13.9104 82.7693 14.2589C82.7683 14.6063 82.7341 14.6411 82.3854 14.6411C79.3873 14.6411 76.388 14.6411 73.3899 14.6411C73.2882 14.6411 73.1867 14.6432 73.0851 14.6432C72.9653 14.6432 72.8968 14.6879 72.8958 14.8251C72.8926 15.3337 72.899 15.84 73.0359 16.3344C73.1781 16.8451 73.5 17.1772 73.9918 17.3395C74.428 17.4832 74.8782 17.5006 75.3316 17.5006C77.7032 17.5006 80.0738 17.5006 82.4454 17.5006C82.8517 17.5006 82.8698 17.519 82.8698 17.9285C82.8698 18.3891 82.8602 18.8498 82.872 19.3092C82.8783 19.55 82.7917 19.6512 82.5533 19.6501C79.8962 19.6425 77.2391 19.6446 74.582 19.6327C74.1405 19.6305 73.6999 19.5608 73.2658 19.4672C71.8501 19.1601 71.0043 18.2781 70.737 16.8298C70.6675 16.4508 70.6172 16.0698 70.613 15.6832C70.5969 14.3112 70.5669 12.9391 70.6311 11.5692C70.6632 10.8833 70.7797 10.207 71.1315 9.6005C71.3775 9.60158 71.6234 9.59614 71.8694 9.60595C72.1078 9.61574 72.1998 9.50576 72.1869 9.27055C72.1762 9.08544 72.1815 8.89923 72.1805 8.71412C72.1911 8.58345 72.1997 8.46911 72.3505 8.39833C73.022 8.08255 73.7342 7.95841 74.4644 7.91703C74.489 7.91594 74.5158 7.93663 74.5414 7.94752C74.69 8.42991 75.014 8.74352 75.4631 8.93081C75.8791 9.10395 76.3174 9.16711 76.7622 9.17038C78.2485 9.17909 79.7337 9.18236 81.22 9.17799C81.4093 9.17799 81.4905 9.22046 81.4637 9.42627C81.4381 9.62118 81.4349 9.81937 81.421 10.0165L81.4188 10.0121Z" fill="#CE2254"/>
<path d="M81.4206 10.012C81.4335 9.81489 81.4377 9.6167 81.4634 9.42179C81.4912 9.21598 81.4099 9.17351 81.2196 9.17351C79.7334 9.17787 78.2481 9.1746 76.7619 9.16589C76.317 9.16372 75.8787 9.10055 75.4627 8.92632C75.0137 8.73903 74.6896 8.42542 74.541 7.94303C74.7517 7.84939 74.9751 7.89186 75.1923 7.89186C77.6334 7.88532 80.0744 7.88641 82.5155 7.87988C82.7668 7.87988 82.8866 7.96264 82.8769 8.24031C82.861 8.73686 82.8684 9.2345 82.8749 9.73213C82.8769 9.91506 82.8074 10.0348 82.6289 10.0348C82.2258 10.037 81.8216 10.0795 81.4196 10.0098L81.4206 10.012Z" fill="#CE2254"/>
<path d="M72.1798 8.71221C72.1809 8.89733 72.1756 9.08353 72.1863 9.26865C72.2001 9.50385 72.1071 9.61384 71.8687 9.60404C71.6227 9.59424 71.3768 9.59968 71.1309 9.59859C71.3213 9.175 71.6431 8.87337 72.0023 8.60224C72.1724 8.47374 72.1712 8.59352 72.1798 8.71221Z" fill="#CE2254"/>
<path d="M61.0979 7.90593C61.8581 7.87435 62.6184 7.87326 63.3786 7.90593C63.3786 8.35674 63.3829 8.80756 63.3765 9.25836C63.3733 9.49139 63.462 9.609 63.7016 9.60355C64.0427 9.59702 64.3837 9.59593 64.7248 9.60355C64.9462 9.609 65.0445 9.51535 65.0413 9.28668C65.0338 8.82715 65.0381 8.36654 65.0381 7.90702C66.1267 7.90048 67.2152 7.89287 68.3036 7.8885C68.4812 7.8885 68.573 7.97998 68.572 8.16835C68.5688 8.69431 68.5688 9.22134 68.572 9.74729C68.5742 9.93676 68.4822 10.0239 68.3079 10.0359C68.2255 10.0413 68.1422 10.0391 68.0588 10.0391C65.7235 10.0391 63.3883 10.0391 61.053 10.0391C60.7022 10.0391 60.3527 10.0457 60.0052 10.1088C59.2459 10.2482 58.8065 10.6838 58.6686 11.4503C58.6044 11.8119 58.597 12.1788 58.5927 12.5458C58.5916 12.72 58.6558 12.7734 58.8215 12.769C59.1807 12.7593 59.5411 12.7669 59.9014 12.7669C62.6055 12.7669 65.3097 12.7669 68.0139 12.7669C68.4544 12.7669 68.4661 12.7788 68.4673 13.2221C68.4673 13.5977 68.4661 13.9734 68.4693 14.3502C68.4715 14.5483 68.386 14.6431 68.1871 14.6419C66.3971 14.6387 64.6062 14.6376 62.8162 14.6355C62.798 14.6355 62.7799 14.6278 62.7627 14.6235C62.6206 14.1334 62.2773 13.8416 61.8293 13.663C61.3235 13.4605 60.79 13.4267 60.2542 13.4256C58.937 13.4256 57.6185 13.4246 56.3013 13.4235C56.282 12.4184 56.2532 11.4133 56.5012 10.4268C56.5739 10.136 56.6637 9.85073 56.8294 9.59702C57.1353 9.57633 57.1663 9.53168 57.147 9.14403C57.3545 8.80646 57.6731 8.60284 58.0067 8.42643C58.4558 8.18796 58.9359 8.04096 59.4448 8.00938C59.4448 8.42316 59.4513 8.83587 59.4438 9.24966C59.4396 9.49684 59.5326 9.61444 59.7859 9.60572C60.1089 9.59484 60.4318 9.59376 60.7547 9.60572C61.0028 9.61444 61.1075 9.51643 61.1011 9.25946C61.0904 8.80864 61.0979 8.35783 61.0979 7.90702V7.90593Z" fill="#CE2254"/>
<path d="M61.3126 19.6368C60.5566 19.6672 59.8028 19.6389 59.0597 19.481C57.4697 19.1434 56.6325 18.2374 56.3951 16.6019C56.3148 16.0455 56.2721 15.4846 56.3031 14.9206C57.0666 14.9206 57.83 14.9195 58.5935 14.9185C58.602 15.3486 58.6052 15.7776 58.7004 16.2022C58.8458 16.8589 59.2457 17.2389 59.8787 17.3914C60.3492 17.5046 60.8282 17.4872 61.3062 17.5046C61.3083 18.2146 61.3115 18.9246 61.3137 19.6346L61.3126 19.6368Z" fill="#CE2254"/>
<path d="M62.9492 17.5636C62.993 17.4764 63.0743 17.4993 63.1449 17.4993C64.8429 17.4993 66.5408 17.5003 68.2388 17.4971C68.4666 17.4971 68.5799 17.5755 68.5756 17.8249C68.566 18.3225 68.5681 18.8213 68.5756 19.3189C68.5788 19.5421 68.4954 19.6499 68.2698 19.6487C66.4981 19.6433 64.7273 19.6401 62.9557 19.6369C62.9535 18.9453 62.9513 18.2539 62.9503 17.5636H62.9492Z" fill="#CE2254"/>
<path d="M58.592 14.921C57.8286 14.921 57.0651 14.9222 56.3016 14.9232C56.276 14.4234 56.2781 13.9237 56.3016 13.4238C57.62 13.4238 58.9374 13.4249 60.2547 13.426C60.7915 13.426 61.324 13.4609 61.8298 13.6634C62.2766 13.8419 62.6199 14.1338 62.7632 14.6238C62.6702 14.6826 62.5665 14.6543 62.4681 14.6543C61.2759 14.6575 60.0836 14.6608 58.8914 14.6543C58.6915 14.6532 58.5685 14.688 58.592 14.921Z" fill="#CE2254"/>
<path d="M62.9492 17.5638C62.9514 18.2553 62.9535 18.9468 62.9546 19.6371C62.4072 19.6371 61.8597 19.6371 61.3123 19.6371C61.3101 18.9271 61.3069 18.2172 61.3047 17.5072C61.7966 17.5029 62.2895 17.5007 62.7813 17.4941C62.8498 17.4941 62.9065 17.5061 62.9482 17.5627L62.9492 17.5638Z" fill="#CE2254"/>
<path d="M65.0367 7.90732C65.0367 8.36684 65.0324 8.82745 65.0399 9.28698C65.0432 9.51674 64.9458 9.6093 64.7234 9.60385C64.3823 9.59623 64.0412 9.59623 63.7001 9.60385C63.4606 9.60821 63.3719 9.4917 63.3751 9.25867C63.3815 8.80785 63.3772 8.35704 63.3772 7.90623C63.93 7.88228 64.4839 7.87575 65.0367 7.90623V7.90732Z" fill="#CE2254"/>
<path d="M61.0977 7.90632C61.0977 8.35713 61.0902 8.80793 61.1009 9.25875C61.1073 9.51574 61.0025 9.61374 60.7544 9.60503C60.4316 9.59305 60.1087 9.59413 59.7857 9.60503C59.5323 9.61374 59.4392 9.49614 59.4435 9.24895C59.4511 8.83625 59.4457 8.42246 59.4446 8.00867C59.9889 7.86603 60.5428 7.88672 61.0966 7.90523L61.0977 7.90632Z" fill="#CE2254"/>
<path d="M57.1476 9.14404C57.1669 9.53279 57.1359 9.57635 56.8301 9.59704C56.8921 9.4141 56.9969 9.26274 57.1476 9.14404Z" fill="#CE2254"/>
<path d="M47.4251 7.90635C48.4484 7.89981 49.4706 7.89545 50.4938 7.88674C50.7078 7.88457 50.5997 8.05988 50.6426 8.15135C50.6426 8.51287 50.6426 8.87439 50.6436 9.23591C50.6083 9.50269 50.7205 9.61594 50.9869 9.60614C51.3086 9.59416 51.6316 9.59743 51.9545 9.60614C52.1983 9.61267 52.3073 9.51685 52.2998 9.25769C52.287 8.80796 52.2946 8.35716 52.2946 7.90635C52.9115 7.9009 53.5284 7.89437 54.1454 7.89002C54.3539 7.88892 54.4052 8.01741 54.4042 8.20471C54.3998 8.71106 54.4042 9.21849 54.4031 9.72592C54.402 10.0689 54.3593 10.1092 54.0139 10.1092C51.5621 10.1092 49.1092 10.1092 46.6574 10.1092C46.2778 10.1092 45.9025 10.1321 45.5336 10.2257C44.9392 10.3771 44.5809 10.767 44.4302 11.3614C44.3585 11.6435 44.3179 11.9321 44.3168 12.2239C44.3157 13.266 44.3082 14.3081 44.3211 15.3491C44.3275 15.8195 44.3885 16.2866 44.6418 16.6993C44.7018 16.7963 44.6664 16.9008 44.6964 16.9988C44.6996 17.308 44.6835 17.6173 44.7103 17.9233C44.7691 18.6082 44.9509 19.231 45.632 19.5567C45.6181 19.5686 45.6042 19.5882 45.5892 19.5904C44.1564 19.7603 42.5878 18.6888 42.2104 17.2819C42.1986 17.2384 42.1997 17.1904 42.1943 17.1458C42.6713 17.1229 42.8626 16.9858 42.869 16.5894C42.8797 15.9447 42.9225 15.2968 42.8252 14.6543C42.7472 14.1415 42.5237 13.7342 41.9944 13.5775C41.9206 12.7934 41.9485 12.0105 42.0244 11.2286C42.0799 10.6592 42.2029 10.1049 42.4905 9.60179C42.6915 9.60179 42.8926 9.61159 43.0925 9.59634C43.4732 9.56694 43.6549 9.39162 43.6988 9.00833C43.7201 8.81559 43.7084 8.6185 43.7116 8.42358C44.3062 8.07948 44.9702 8.0098 45.6298 7.9205C45.7817 7.89981 45.7582 8.00652 45.7752 8.09037C45.7752 8.15352 45.7764 8.21669 45.7774 8.27875C45.7774 8.59889 45.7774 8.91795 45.7774 9.23809C45.7806 9.31104 45.7528 9.38727 45.8009 9.45478V9.45696C45.8533 9.60179 45.9741 9.60506 46.0971 9.60506C46.4382 9.60506 46.7793 9.59852 47.1193 9.60724C47.345 9.61267 47.4348 9.51358 47.4304 9.28709C47.423 8.82757 47.4262 8.36804 47.4262 7.90853L47.4251 7.90635Z" fill="#CE2254"/>
<path d="M44.6953 16.1253C44.6997 15.7028 44.69 15.2825 44.7883 14.8655C44.9637 14.1229 45.4503 13.7243 46.1506 13.5522C46.5473 13.4542 46.9515 13.4248 47.3588 13.4248C48.8815 13.4248 50.4041 13.4248 51.9256 13.4248C52.2721 13.4248 52.286 13.4412 52.287 13.7886C52.287 14.0324 52.2764 14.2774 52.2903 14.5214C52.3042 14.7718 52.1962 14.8459 51.962 14.8448C50.5324 14.8372 49.1018 14.8405 47.6721 14.8405C46.6018 14.8405 46.3549 15.092 46.3517 16.1852C46.3517 16.5239 46.3505 16.8615 46.3495 17.2001C45.9432 17.1838 45.5369 17.1544 45.184 16.9246C44.9017 16.7406 44.706 16.4879 44.6965 16.1243L44.6953 16.1253Z" fill="white"/>
<path d="M45.6309 19.5544C44.9497 19.2299 44.768 18.6071 44.7092 17.9211C44.6824 17.615 44.6985 17.3047 44.6953 16.9965C44.7251 16.9671 44.7005 16.8365 44.7669 16.9028C45.2117 17.3537 45.7976 17.3712 46.3579 17.4713C46.4274 18.1715 46.6712 18.4121 47.3576 18.4514C47.5052 18.46 47.6528 18.46 47.8004 18.46C49.1936 18.46 50.5857 18.4634 51.979 18.4556C52.2057 18.4546 52.2997 18.5319 52.2891 18.7661C52.2762 19.047 52.2838 19.329 52.2826 19.611C52.2206 19.623 52.1586 19.6458 52.0966 19.6458C50.065 19.6448 48.0335 19.6404 46.0018 19.6394C45.8703 19.6394 45.7463 19.6208 45.6319 19.5533L45.6309 19.5544Z" fill="#CE2254"/>
<path d="M52.2842 19.6121C52.2852 19.3301 52.2777 19.048 52.2906 18.7671C52.3013 18.5329 52.2071 18.4556 51.9804 18.4568C50.5873 18.4644 49.1951 18.461 47.8018 18.461C47.6542 18.461 47.5068 18.461 47.3592 18.4524C46.6716 18.4132 46.4278 18.1725 46.3594 17.4724C46.4246 17.4212 46.5017 17.4441 46.5732 17.4429C49.0432 17.4419 51.5132 17.4441 53.9832 17.4375C54.1682 17.4375 54.2601 17.4822 54.2527 17.6771C54.2505 18.3217 54.2495 18.9653 54.2473 19.6088C53.8945 19.6927 53.5373 19.6414 53.1824 19.6426C52.883 19.6426 52.5804 19.6927 52.283 19.6121H52.2842Z" fill="#CE2254"/>
<path d="M41.9947 13.5742C42.524 13.7321 42.7475 14.1383 42.8255 14.6512C42.9239 15.2937 42.8801 15.9416 42.8694 16.5862C42.863 16.9825 42.6715 17.1197 42.1947 17.1426C42.0439 16.8018 42.0161 16.4316 41.999 16.07C41.9626 15.3013 41.9637 14.5303 41.9498 13.7605C41.9487 13.6951 41.9445 13.6275 41.9947 13.5742Z" fill="#CE2254"/>
<path d="M45.7777 8.2765C45.7777 8.21335 45.7767 8.15128 45.7755 8.08812C45.798 7.97378 45.8333 7.89429 45.9798 7.89756C46.4621 7.90845 46.9431 7.90519 47.4255 7.90627C47.4255 8.3658 47.4223 8.82531 47.4297 9.28484C47.434 9.51134 47.3442 9.61043 47.1185 9.60498C46.7774 9.59627 46.4375 9.6028 46.0963 9.6028C45.9734 9.6028 45.8526 9.59845 45.8001 9.45471V9.45253C45.752 9.38502 45.7798 9.3088 45.7767 9.23584C45.7767 8.91679 45.7767 8.59665 45.7767 8.27759L45.7777 8.2765Z" fill="#CE2254"/>
<path d="M52.2939 7.90525C52.2939 8.35606 52.2864 8.80687 52.2993 9.25659C52.3067 9.51576 52.1976 9.61158 51.9538 9.60505C51.632 9.59634 51.3081 9.59416 50.9862 9.60505C50.721 9.61485 50.6077 9.5016 50.643 9.23482C50.643 8.87329 50.643 8.51178 50.6419 8.15026C50.6334 7.93029 50.7424 7.87694 50.9455 7.88565C51.3947 7.90525 51.8437 7.8998 52.2939 7.90416V7.90525Z" fill="#CE2254"/>
<path d="M43.7113 8.41992C43.7081 8.61483 43.72 8.81193 43.6985 9.00467C43.6547 9.38905 43.4729 9.56437 43.0922 9.59268C42.8923 9.60792 42.6913 9.59704 42.4902 9.59812C42.7661 9.06347 43.1586 8.6573 43.7113 8.41992Z" fill="#CE2254"/>
<path d="M54.2461 19.61C54.2483 18.9665 54.2493 18.3219 54.2514 17.6782C54.2664 17.626 54.2803 17.5738 54.2995 17.5073C54.415 17.5628 54.4076 17.6674 54.4076 17.7632C54.4076 18.2859 54.4076 18.8085 54.4054 19.3302C54.4054 19.4532 54.4065 19.5806 54.2471 19.6111L54.2461 19.61Z" fill="#CE2254"/>
<path d="M50.6445 9.23559H50.6567L50.6445 9.23438V9.23559Z" fill="#CE2254"/>
<path d="M45.7773 8.27637L45.793 8.27753H45.7773V8.27637Z" fill="#CE2254"/>
</g>
<defs>
<clipPath id="clip0_2342_1394">
<rect width="84" height="24" fill="white" transform="translate(0 0.11377)"/>
</clipPath>
</defs>
</svg>
