<svg width="87" height="41" viewBox="0 0 87 41" fill="none" xmlns="http://www.w3.org/2000/svg">
<g clip-path="url(#clip0_2418_2463)">
<path d="M74.8305 16.5096C70.5116 16.7787 72.4508 22.4174 77.2256 22.1198C81.8962 21.8287 79.4321 16.223 74.8305 16.5096Z" fill="#F19021"/>
<path d="M73.0081 13.0268C70.2561 13.0268 67.5659 13.8449 65.2777 15.3775C62.9895 16.9102 61.2061 19.0887 60.1529 21.6374C59.0998 24.1861 58.8242 26.9907 59.3611 29.6964C59.898 32.4021 61.2232 34.8875 63.1692 36.8382C65.1151 38.7889 67.5945 40.1174 70.2936 40.6556C72.9927 41.1938 75.7904 40.9175 78.333 39.8618C80.8755 38.8061 83.0486 37.0183 84.5775 34.7245C86.1065 32.4307 86.9225 29.7339 86.9225 26.9752C86.9225 23.2759 85.4566 19.728 82.8471 17.1122C80.2376 14.4964 76.6985 13.0268 73.0081 13.0268ZM73.0081 39.4617C70.5451 39.4622 68.1373 38.7304 66.0891 37.359C64.041 35.9876 62.4445 34.0381 61.5017 31.7572C60.5588 29.4762 60.3119 26.9661 60.7921 24.5445C61.2724 22.1228 62.4582 19.8983 64.1997 18.1523C65.9412 16.4062 68.16 15.2171 70.5757 14.7353C72.9914 14.2534 75.4954 14.5005 77.7709 15.4453C80.0465 16.39 81.9915 17.99 83.36 20.0429C84.7284 22.0959 85.4588 24.5095 85.4588 26.9785C85.4588 30.2889 84.1471 33.4637 81.8122 35.8047C79.4773 38.1457 76.3105 39.4612 73.0081 39.4617ZM72.5885 3.28932C69.2852 5.79234 69.8593 9.63089 69.8593 9.63089C69.8593 9.63089 67.7831 4.22836 65.0868 0.925781C64.7231 5.17729 66.052 10.8105 66.052 10.8105C66.052 10.8105 64.3637 7.31787 60.2266 7.12238C63.6581 9.09931 64.9893 12.6611 65.2939 13.6166C67.3388 12.3512 69.6774 11.6419 72.0791 11.5584C71.8084 10.6688 70.8465 6.92029 72.5885 3.28932Z" fill="#F19021"/>
<path d="M1.21176 28.3424V31.2616H0V23.7405H2.55061C3.41542 23.7405 4.06549 23.9466 4.50081 24.3588C4.93614 24.7711 5.15526 25.3356 5.15819 26.0524C5.15819 26.7634 4.93504 27.3228 4.48876 27.7306C4.04248 28.1385 3.39789 28.3424 2.55499 28.3424H1.21176ZM3.92123 26.0524C3.92123 25.6263 3.80254 25.3012 3.56515 25.0771C3.32777 24.8531 2.94722 24.7414 2.42351 24.7422H1.21176V27.3517H2.42351C3.42126 27.3517 3.9205 26.9186 3.92123 26.0524ZM10.1597 31.2616L8.28947 28.2578H7.42831V31.2616H6.21656V23.7405H8.86358C9.72035 23.7405 10.3704 23.9499 10.8138 24.3687C11.2571 24.7875 11.4785 25.3418 11.4777 26.0316C11.4777 26.6173 11.313 27.1002 10.9836 27.4802C10.6542 27.8602 10.1794 28.1015 9.5593 28.204L11.5314 31.2616H10.1597ZM7.42831 27.3945H8.76497C9.74373 27.3945 10.2327 26.9614 10.232 26.0953C10.232 25.6838 10.1133 25.3623 9.87593 25.1309C9.63818 24.9003 9.26896 24.785 8.76497 24.785H7.42831V27.3945ZM17.0468 29.6318H13.8793L13.3052 31.2616H12.0091L14.7723 23.858H16.1648L18.917 31.2616H17.6198L17.0468 29.6318ZM16.706 28.6949L15.4625 25.1804L14.219 28.6949H16.706ZM25.0382 24.3369C25.633 24.7772 26.0515 25.416 26.2182 26.1381H24.9429C24.784 25.738 24.5029 25.3985 24.1398 25.1683C23.7441 24.9199 23.2842 24.7939 22.8174 24.8059C22.3753 24.7986 21.9397 24.9126 21.5574 25.1353C21.1835 25.3575 20.8812 25.6827 20.6864 26.0722C20.4698 26.5176 20.3642 27.009 20.3786 27.5044C20.3644 28.0168 20.4737 28.525 20.6974 28.986C20.8957 29.383 21.2083 29.7112 21.5947 29.9283C22.0069 30.1528 22.47 30.2663 22.939 30.2578C23.5277 30.2681 24.0992 30.0582 24.5419 29.6691C24.9875 29.2825 25.2566 28.7517 25.3494 28.0766H22.5939V27.1815H26.3661V28.3424C26.2866 28.8834 26.085 29.3991 25.7767 29.8503C25.464 30.3057 25.0445 30.6772 24.5551 30.9322C24.018 31.2086 23.421 31.3474 22.8174 31.3363C22.1403 31.3502 21.4719 31.181 20.8825 30.8465C20.3298 30.5272 19.88 30.0557 19.5864 29.4879C19.2858 28.8689 19.1295 28.1895 19.1295 27.5011C19.1295 26.8126 19.2858 26.1332 19.5864 25.5143C19.8788 24.9488 20.3267 24.4792 20.8771 24.1612C21.4656 23.83 22.1317 23.6628 22.8065 23.6768C23.6998 23.6768 24.4437 23.8968 25.0382 24.3369ZM34.9218 23.858V31.2616H33.6991V25.7119L31.5638 31.2616H30.501L28.3536 25.7119V31.2616H27.1429V23.858H28.6089L31.0532 29.7702L33.4548 23.858H34.9218ZM40.8513 29.6318H37.6894L37.1153 31.2616H35.8148L38.5779 23.858H39.9694L42.7227 31.2616H41.4254L40.8513 29.6318ZM40.5117 28.6949L39.2682 25.1804L38.0246 28.6949H40.5117ZM47.9082 23.7405V24.7202H45.8145V31.2616H44.5918V24.7202H42.5101V23.7405H47.9082ZM49.7675 23.7405V31.2616H48.5568V23.7405H49.7675ZM56.6228 24.3687C57.2376 24.8462 57.6722 25.5189 57.8554 26.2765H56.5691C56.4049 25.8376 56.11 25.4599 55.7244 25.1947C55.3037 24.9183 54.8083 24.7787 54.3056 24.7949C53.8839 24.7881 53.4692 24.9025 53.1102 25.1244C52.7514 25.3546 52.4641 25.6811 52.2809 26.0667C52.0815 26.5162 51.9785 27.0026 51.9785 27.4945C51.9785 27.9864 52.0815 28.4728 52.2809 28.9223C52.4637 29.3084 52.7511 29.6353 53.1102 29.8657C53.4691 30.0877 53.8839 30.202 54.3056 30.1952C54.8082 30.2117 55.3036 30.0725 55.7244 29.7965C56.1079 29.5338 56.4025 29.1603 56.5691 28.7257H57.8554C57.6733 29.4819 57.2383 30.1529 56.6228 30.6268C56.0136 31.0925 55.2485 31.3253 54.3275 31.3253C53.6681 31.3379 53.0177 31.17 52.4463 30.8399C51.9037 30.5203 51.4647 30.0504 51.1819 29.4868C50.8876 28.866 50.7349 28.1873 50.7349 27.5C50.7349 26.8126 50.8876 26.1339 51.1819 25.5132C51.4657 24.9488 51.9044 24.4775 52.4463 24.1546C53.0167 23.8215 53.6675 23.6521 54.3275 23.6647C55.2478 23.6655 56.0129 23.9001 56.6228 24.3687ZM63.5712 28.3424V31.2616H62.3606V23.7405H64.9112C65.7745 23.7405 66.4246 23.9466 66.8614 24.3588C67.2982 24.7711 67.5173 25.3356 67.5188 26.0524C67.5188 26.7634 67.2956 27.3228 66.8493 27.7306C66.4031 28.1385 65.7585 28.3424 64.9156 28.3424H63.5712ZM66.2851 26.0524C66.2851 25.6263 66.1664 25.3012 65.929 25.0771C65.6916 24.8531 65.3107 24.7414 64.7863 24.7422H63.5712V27.3517H64.783C65.7844 27.3517 66.2851 26.9186 66.2851 26.0524ZM69.5972 30.3138H72.1905V31.2616H68.3854V23.7405H69.5972V30.3138ZM77.7376 29.6318H74.5713L73.9972 31.2616H72.7L75.4642 23.858H76.8556L79.6089 31.2616H78.3117L77.7376 29.6318ZM77.398 28.6949L76.1544 25.1804L74.9109 28.6949H77.398ZM84.4724 23.7405L81.9755 28.5236V31.2616H80.7561V28.5236L78.2482 23.7405H79.6517L81.374 27.2243L83.0952 23.7405H84.4724Z" fill="white"/>
</g>
<defs>
<clipPath id="clip0_2418_2463">
<rect width="87" height="40" fill="white" transform="translate(0 0.925781)"/>
</clipPath>
</defs>
</svg>
