<svg width="50" height="49" viewBox="0 0 50 49" fill="none" xmlns="http://www.w3.org/2000/svg">
<path d="M9.77515 18.7984C9.77515 23.3084 11.7941 27.3964 14.9761 30.1984L14.9961 44.6884C14.9961 45.8404 15.5971 46.3204 16.3931 46.3204C17.0731 46.3204 17.5771 45.9364 18.1011 45.4184L24.4081 39.1994C24.7581 38.8924 24.9901 38.7774 25.2231 38.7774C25.4561 38.7774 25.7081 38.8924 26.0381 39.1994L32.3461 45.4184C32.8891 45.9554 33.4131 46.3204 34.0531 46.3204C34.8881 46.3204 35.4701 45.8404 35.4701 44.6884V30.1404C38.6141 27.3574 40.6131 23.2894 40.6321 18.7984C40.6521 10.3534 33.6651 3.46338 25.2041 3.46338C16.7231 3.46338 9.77515 10.3534 9.77515 18.7984ZM12.9391 18.7984C12.9391 11.9844 18.3141 6.51438 25.2231 6.51438C32.1131 6.51438 37.4891 11.9844 37.5081 18.7984C37.5281 25.5924 32.1131 31.0624 25.2231 31.0424C18.3141 31.0234 12.9391 25.5924 12.9391 18.7984Z" fill="black"/>
</svg>
