<svg width="50" height="49" viewBox="0 0 50 49" fill="none" xmlns="http://www.w3.org/2000/svg">
<path d="M24.8051 45.0344C25.1521 45.0344 25.6851 44.8994 26.1831 44.6274C37.4991 38.4494 41.4211 35.6234 41.4211 28.4454V13.5704C41.4211 11.2394 40.5181 10.4164 38.5661 9.58442C36.3781 8.67342 29.0061 6.08042 26.8611 5.34742C26.2101 5.13942 25.4661 5.00342 24.8051 5.00342C24.1451 5.00342 23.4001 5.17442 22.7651 5.34742C20.6201 5.96042 13.2311 8.68942 11.0451 9.58442C9.10809 10.4004 8.18909 11.2394 8.18909 13.5704V28.4454C8.18909 35.6234 12.1271 38.4334 23.4261 44.6274C23.9411 44.8994 24.4581 45.0344 24.8051 45.0344ZM24.8051 40.9034C24.5221 40.9034 24.2421 40.7994 23.6701 40.4524C14.6751 34.9684 11.8841 33.4924 11.8841 27.7104V14.1984C11.8841 13.5044 12.0161 13.2284 12.5741 13.0084C15.4871 11.8514 21.1421 9.96442 23.7771 8.92842C24.2191 8.76242 24.5251 8.70542 24.8051 8.70542C25.0851 8.70542 25.3871 8.77842 25.8331 8.92842C28.4671 9.96442 34.0901 11.9644 37.0521 13.0084C37.5901 13.2114 37.7261 13.5044 37.7261 14.1984V27.7104C37.7261 33.5244 34.8361 35.0864 25.9401 40.4524C25.3831 40.7954 25.0881 40.9034 24.8051 40.9034Z" fill="black"/>
</svg>
