<svg width="215" height="209" viewBox="0 0 215 209" fill="none" xmlns="http://www.w3.org/2000/svg">
<path d="M114.458 151.771C109.758 166.294 101.34 173.571 86.0908 177.751C94.1159 174.958 104.28 168.346 114.458 151.771Z" fill="white" fill-opacity="0.05"/>
<path d="M114.458 151.771C109.758 166.294 101.34 173.571 86.0908 177.751C94.1159 174.958 104.28 168.346 114.458 151.771Z" fill="url(#paint0_linear_3989_1108)"/>
<path fill-rule="evenodd" clip-rule="evenodd" d="M163.39 66.3716C168.219 67.6656 171.084 72.6296 169.79 77.4587L125.527 242.651C124.233 247.48 119.27 250.346 114.441 249.052L9.29482 220.878C4.4658 219.584 1.60008 214.62 2.89386 209.791L47.157 44.5992C48.4509 39.7701 53.4148 36.9039 58.2439 38.1979L163.39 66.3716ZM126.263 144.928C110.352 130.025 72.3838 119.851 51.1531 124.802L46.8769 144.066C41.8232 170.398 68.3855 179.889 72.1668 196.525C83.7695 183.972 111.519 189.033 120.299 163.739L126.263 144.928ZM121.817 96.4316C111.486 95.0477 116.642 95.9153 105.129 99.5147C99.6955 100.827 94.1439 102.149 90.6017 108.042C83.3644 106.458 75.9035 105.567 68.2705 105.46C59.7163 105.343 51.4325 108.384 49.1682 116.834C48.4366 119.565 48.4628 122.341 49.0809 124.919L49.4839 123.129L50.7099 122.864C51.8179 122.608 52.9782 122.443 54.1028 122.27C56.9855 121.856 59.9272 121.655 62.829 121.602C79.8598 121.261 103.137 127.498 117.716 136.309C120.202 137.806 122.639 139.487 124.939 141.251C125.835 141.926 126.749 142.685 127.58 143.462L128.509 144.304L127.963 146.056C129.788 144.132 131.198 141.741 131.93 139.01C134.194 130.56 128.56 123.71 121.074 119.608C113.953 115.723 106.635 112.575 99.089 110.276C101.223 108.633 104.022 107.959 106.811 107.322C112.98 105.85 118.986 104.414 121.817 96.4316Z" fill="white" fill-opacity="0.05"/>
<path fill-rule="evenodd" clip-rule="evenodd" d="M163.39 66.3716C168.219 67.6656 171.084 72.6296 169.79 77.4587L125.527 242.651C124.233 247.48 119.27 250.346 114.441 249.052L9.29482 220.878C4.4658 219.584 1.60008 214.62 2.89386 209.791L47.157 44.5992C48.4509 39.7701 53.4148 36.9039 58.2439 38.1979L163.39 66.3716ZM126.263 144.928C110.352 130.025 72.3838 119.851 51.1531 124.802L46.8769 144.066C41.8232 170.398 68.3855 179.889 72.1668 196.525C83.7695 183.972 111.519 189.033 120.299 163.739L126.263 144.928ZM121.817 96.4316C111.486 95.0477 116.642 95.9153 105.129 99.5147C99.6955 100.827 94.1439 102.149 90.6017 108.042C83.3644 106.458 75.9035 105.567 68.2705 105.46C59.7163 105.343 51.4325 108.384 49.1682 116.834C48.4366 119.565 48.4628 122.341 49.0809 124.919L49.4839 123.129L50.7099 122.864C51.8179 122.608 52.9782 122.443 54.1028 122.27C56.9855 121.856 59.9272 121.655 62.829 121.602C79.8598 121.261 103.137 127.498 117.716 136.309C120.202 137.806 122.639 139.487 124.939 141.251C125.835 141.926 126.749 142.685 127.58 143.462L128.509 144.304L127.963 146.056C129.788 144.132 131.198 141.741 131.93 139.01C134.194 130.56 128.56 123.71 121.074 119.608C113.953 115.723 106.635 112.575 99.089 110.276C101.223 108.633 104.022 107.959 106.811 107.322C112.98 105.85 118.986 104.414 121.817 96.4316Z" fill="url(#paint1_linear_3989_1108)"/>
<path d="M73.1883 -52.5725C74.4823 -57.4017 79.446 -60.2674 84.2751 -58.9735L122.275 -48.7915C127.104 -47.4975 129.97 -42.5338 128.676 -37.7047L110.449 30.3182C109.155 35.1473 104.191 38.0131 99.3623 36.7192L61.3626 26.5372C56.5335 25.2432 53.6677 20.2795 54.9617 15.4504L73.1883 -52.5725Z" fill="white" fill-opacity="0.05"/>
<path d="M140.334 -34.5808C141.628 -39.4099 146.592 -42.2757 151.421 -40.9818L189.421 -30.7998C194.25 -29.5058 197.116 -24.5421 195.822 -19.713L177.595 48.3099C176.301 53.139 171.337 56.0048 166.508 54.7109L128.509 44.5289C123.679 43.2349 120.814 38.2712 122.108 33.4421L140.334 -34.5808Z" fill="white" fill-opacity="0.05"/>
<path d="M207.48 -16.5891C208.774 -21.4182 213.738 -24.284 218.567 -22.9901L256.567 -12.8081C261.396 -11.5141 264.262 -6.5504 262.968 -1.72129L244.741 66.3016C243.447 71.1307 238.483 73.9965 233.654 72.7026L195.655 62.5206C190.825 61.2266 187.96 56.2629 189.254 51.4338L207.48 -16.5891Z" fill="white" fill-opacity="0.05"/>
<path d="M181.444 80.58C182.738 75.7509 187.702 72.8851 192.531 74.1791L230.53 84.3611C235.359 85.655 238.225 90.6188 236.931 95.4479L218.705 163.471C217.411 168.3 212.447 171.166 207.618 169.872L169.618 159.69C164.789 158.396 161.923 153.432 163.217 148.603L181.444 80.58Z" fill="white" fill-opacity="0.05"/>
<path d="M155.407 177.749C156.701 172.92 161.665 170.054 166.494 171.348L204.494 181.53C209.323 182.824 212.189 187.788 210.895 192.617L192.668 260.64C191.374 265.469 186.411 268.335 181.581 267.041L143.582 256.859C138.753 255.565 135.887 250.601 137.181 245.772L155.407 177.749Z" fill="white" fill-opacity="0.05"/>
<defs>
<linearGradient id="paint0_linear_3989_1108" x1="149.237" y1="70.2564" x2="-7.81552" y2="154.863" gradientUnits="userSpaceOnUse">
<stop stop-color="#F8B900"/>
<stop offset="1" stop-color="#E67508"/>
</linearGradient>
<linearGradient id="paint1_linear_3989_1108" x1="149.237" y1="70.2564" x2="-7.81552" y2="154.863" gradientUnits="userSpaceOnUse">
<stop stop-color="#F8B900"/>
<stop offset="1" stop-color="#E67508"/>
</linearGradient>
</defs>
</svg>
