<svg width="227" height="41" viewBox="0 0 227 41" fill="none" xmlns="http://www.w3.org/2000/svg">
<g clip-path="url(#clip0_3989_1024)">
<mask id="mask0_3989_1024" style="mask-type:luminance" maskUnits="userSpaceOnUse" x="0" y="0" width="227" height="41">
<path d="M226.684 0.0344238H0.683594V40.0344H226.684V0.0344238Z" fill="white"/>
</mask>
<g mask="url(#mask0_3989_1024)">
<path fill-rule="evenodd" clip-rule="evenodd" d="M68.4914 0.0344238H80.5059C80.0157 0.452691 79.6169 0.981927 79.3926 1.7331C77.7391 1.80992 76.0773 2.04893 74.4239 2.4672C72.571 2.93668 70.9591 4.07198 70.9591 6.02674C70.9591 6.65841 71.1253 7.25593 71.4078 7.77663L71.3912 7.3669L71.6404 7.23886C71.8648 7.11935 72.1057 7.01692 72.3384 6.91449C72.9366 6.65841 73.5598 6.445 74.1829 6.26575C77.8388 5.20728 83.2229 5.20728 86.8788 6.26575C87.502 6.445 88.1251 6.66694 88.7234 6.91449C88.956 7.00839 89.197 7.11935 89.4213 7.23886L89.6706 7.3669L89.654 7.77663C89.9365 7.25593 90.1026 6.65841 90.1026 6.02674C90.1026 4.07198 88.4907 2.91961 86.6378 2.4672C84.8764 2.0404 83.1149 1.78431 81.3534 1.72456C81.719 1.24654 82.284 0.939247 82.849 0.640485C83.2063 0.444155 83.5636 0.256362 83.8876 0.0344238H92.5703C93.7502 0.0344238 94.714 1.02461 94.714 2.23672V37.8236C94.714 39.0357 93.7502 40.0259 92.5703 40.0259H68.4914C67.3115 40.0259 66.3477 39.0357 66.3477 37.8236V2.23672C66.3394 1.02461 67.3032 0.0344238 68.4914 0.0344238ZM82.3256 17.3626C85.3749 15.5786 86.7708 13.5214 86.9453 10.1155C85.7073 14.2811 83.8959 16.2956 82.3256 17.3626ZM72.0392 12.0361C72.4713 18.0114 78.7528 18.515 80.5309 21.8953C82.309 18.515 88.5904 18.0028 89.0225 12.0361L89.2219 7.63152C84.9262 5.33532 76.1438 5.33532 71.8481 7.63152L72.0392 12.0361Z" fill="url(#paint0_linear_3989_1024)"/>
<path fill-rule="evenodd" clip-rule="evenodd" d="M35.6554 0.0344238H59.7344C60.9142 0.0344238 61.878 1.02461 61.878 2.23672V37.8236C61.878 39.0357 60.9142 40.0259 59.7344 40.0259H35.6554C34.4755 40.0259 33.5117 39.0357 33.5117 37.8236V2.23672C33.5117 1.02461 34.4755 0.0344238 35.6554 0.0344238ZM49.6225 27.4096C52.6719 25.6255 54.0678 23.5683 54.2422 20.1624C53.0042 24.328 51.1929 26.3426 49.6225 27.4096ZM39.2116 22.4074C39.6436 28.3827 45.9251 28.8948 47.7032 32.2666C49.4813 28.8863 55.7627 28.3741 56.1948 22.4074L56.3942 18.0028C52.0986 15.7066 43.3161 15.7066 39.0205 18.0028L39.2116 22.4074ZM46.5649 12.1044C44.9114 12.1812 43.2497 12.4202 41.5962 12.8385C39.7433 13.308 38.1314 14.4433 38.1314 16.398C38.1314 17.0297 38.2976 17.6272 38.5801 18.1479L38.5635 17.7382L38.8128 17.6102C39.0371 17.4907 39.278 17.3882 39.5107 17.2858C40.1089 17.0297 40.7321 16.8163 41.3553 16.637C45.0111 15.5786 50.3953 15.5786 54.0511 16.637C54.6743 16.8163 55.2975 17.0382 55.8957 17.2858C56.1283 17.3797 56.3693 17.4907 56.5936 17.6102L56.8429 17.7382L56.8263 18.1479C57.1088 17.6272 57.275 17.0297 57.275 16.398C57.275 14.4433 55.663 13.2909 53.8102 12.8385C52.0487 12.4117 50.2872 12.1556 48.5258 12.0959C48.8914 11.6178 49.4564 11.3105 50.0214 11.0118C51.2677 10.3374 52.4808 9.68017 52.6303 7.7937C50.3205 8.09247 51.4837 7.9815 49.2071 9.42409C48.1103 10.0216 46.9886 10.6277 46.5649 12.1044Z" fill="url(#paint1_linear_3989_1024)"/>
<path fill-rule="evenodd" clip-rule="evenodd" d="M2.82727 0.0344238H6.29205L6.37513 1.90382C6.80719 7.87906 13.0887 8.38269 14.8668 11.763C16.6448 8.38269 22.9263 7.87053 23.3584 1.90382L23.4415 0.0344238H26.9062C28.0861 0.0344238 29.0499 1.02461 29.0499 2.23672V37.8236C29.0499 39.0357 28.0861 40.0259 26.9062 40.0259H23.4498L23.5578 37.6614C19.2621 35.3652 10.4797 35.3652 6.18403 37.6614L6.29205 40.0259H2.82727C1.64742 40.0344 0.683594 39.0357 0.683594 37.8236V2.23672C0.683594 1.02461 1.64742 0.0344238 2.82727 0.0344238ZM21.4473 0.0344238C20.226 3.59396 18.5725 5.39507 17.1185 6.37672C19.8853 4.75486 21.2895 2.90254 21.6551 0.0344238H21.4473ZM13.7368 31.7715C12.0833 31.8483 10.4215 32.0873 8.76807 32.5056C6.91521 32.9751 5.3033 34.1104 5.3033 36.0651C5.3033 36.6968 5.46947 37.2943 5.75197 37.815L5.73535 37.4053L5.98462 37.2773C6.20896 37.1577 6.44991 37.0553 6.68256 36.9529C7.2808 36.6968 7.90396 36.4834 8.52712 36.3041C12.183 35.2457 17.5671 35.2457 21.223 36.3041C21.8462 36.4834 22.4693 36.7053 23.0676 36.9529C23.3002 37.0468 23.5412 37.1577 23.7655 37.2773L24.0148 37.4053L23.9982 37.815C24.2807 37.2943 24.4468 36.6968 24.4468 36.0651C24.4468 34.1104 22.8349 32.958 20.9821 32.5056C19.2206 32.0788 17.4591 31.8227 15.6976 31.7629C16.0632 31.2849 16.6282 30.9776 17.1932 30.6789C18.4396 30.0045 19.6526 29.3472 19.8022 27.4608C17.4924 27.7595 18.6556 27.6486 16.379 29.0912C15.2822 29.6802 14.1605 30.2862 13.7368 31.7715Z" fill="url(#paint2_linear_3989_1024)"/>
<path fill-rule="evenodd" clip-rule="evenodd" d="M117.972 23.0392C122.8 23.0392 125.766 19.9577 125.766 15.7665V15.7068C125.766 11.5753 122.891 9.98763 119.95 9.47546L125.426 4.10628V0.418701H110.794V4.60991H119.302L114.134 9.94494L114.873 13.0606H116.851C119.51 13.0606 121.088 14.0764 121.088 15.886V15.9458C121.088 17.6018 119.817 18.6432 118.022 18.6432C115.829 18.6432 114.283 17.6871 112.796 15.9714L109.531 19.198C111.384 21.4515 114.076 23.0392 117.972 23.0392Z" fill="white"/>
<path fill-rule="evenodd" clip-rule="evenodd" d="M149.952 23.0391C156.632 23.0391 161.485 17.8577 161.485 11.5325V11.4727C161.485 5.14752 156.69 0.0344238 150.01 0.0344238C143.33 0.0344238 138.477 5.21581 138.477 11.5325V11.5922C138.477 17.926 143.272 23.0391 149.952 23.0391ZM150.01 18.5235C146.171 18.5235 143.454 15.3481 143.454 11.5325V11.4727C143.454 7.65713 146.113 4.55 149.952 4.55C153.791 4.55 156.508 7.72541 156.508 11.541V11.6008C156.508 15.4164 153.849 18.5235 150.01 18.5235Z" fill="white"/>
<path fill-rule="evenodd" clip-rule="evenodd" d="M162.473 22.6552H167.325L169.302 17.6701H178.459L180.436 22.6552H185.413L176.149 0.256592H171.754L162.473 22.6552ZM171.014 13.3509L173.889 6.13794L176.764 13.3509H171.014Z" fill="white"/>
<path fill-rule="evenodd" clip-rule="evenodd" d="M188.762 22.6551H193.531V15.8604L196.032 13.1886L202.745 22.6551H208.462L199.247 9.85105L208.063 0.418701H202.313L193.531 10.1413V0.418701H188.762V22.6551Z" fill="white"/>
<path fill-rule="evenodd" clip-rule="evenodd" d="M218.732 22.9794C223.402 22.9794 226.684 20.504 226.684 16.0823V16.0225C226.684 12.1471 224.208 10.5253 219.821 9.34734C216.082 8.36569 215.151 7.88767 215.151 6.428V6.35971C215.151 5.27563 216.107 4.42203 217.935 4.42203C219.763 4.42203 221.649 5.25003 223.56 6.6158L226.036 2.92822C223.842 1.11857 221.15 0.102783 217.993 0.102783C213.573 0.102783 210.415 2.77457 210.415 6.80359V6.86334C210.415 11.2765 213.232 12.5227 217.594 13.6666C221.217 14.6226 221.956 15.2543 221.956 16.492V16.5518C221.956 17.8578 220.785 18.6516 218.832 18.6516C216.356 18.6516 214.32 17.6017 212.368 15.9542L209.551 19.4199C212.144 21.8014 215.459 22.9794 218.732 22.9794Z" fill="white"/>
<path fill-rule="evenodd" clip-rule="evenodd" d="M114.283 40.0342C115.937 40.0342 117.216 39.3684 118.147 38.5575V34.5284H114.217V36.2954H116.219V37.6185C115.712 37.9941 115.073 38.1733 114.35 38.1733C112.746 38.1733 111.616 36.9271 111.616 35.2284V35.2028C111.616 33.6236 112.763 32.3091 114.209 32.3091C115.256 32.3091 115.879 32.6505 116.568 33.248L117.823 31.6945C116.884 30.875 115.895 30.4226 114.275 30.4226C111.541 30.4226 109.539 32.5822 109.539 35.2284V35.254C109.531 38.0026 111.467 40.0342 114.283 40.0342Z" fill="white"/>
<path fill-rule="evenodd" clip-rule="evenodd" d="M131.68 39.8723H133.707L134.53 37.7895H138.352L139.175 39.8723H141.252L137.38 30.5168H135.544L131.68 39.8723ZM135.245 35.9884L136.449 32.9752L137.654 35.9884H135.245Z" fill="white"/>
<path fill-rule="evenodd" clip-rule="evenodd" d="M155.07 39.8724H157.014V33.846L159.532 37.7811H159.59L162.133 33.8118V39.8724H164.11V30.5852H161.967L159.59 34.5118L157.214 30.5852H155.07V39.8724Z" fill="white"/>
<path d="M180.759 30.5852H178.773V39.8724H180.759V30.5852Z" fill="white"/>
<path fill-rule="evenodd" clip-rule="evenodd" d="M195.426 39.8724H197.395V33.9655L201.774 39.8724H203.461V30.5852H201.5V36.3043L197.262 30.5852H195.426V39.8724Z" fill="white"/>
<path fill-rule="evenodd" clip-rule="evenodd" d="M222.39 40.0342C224.043 40.0342 225.323 39.3684 226.253 38.5575V34.5284H222.323V36.2954H224.326V37.6185C223.819 37.9941 223.179 38.1733 222.456 38.1733C220.853 38.1733 219.714 36.9271 219.714 35.2284V35.2028C219.714 33.6236 220.861 32.3091 222.307 32.3091C223.354 32.3091 223.977 32.6505 224.666 33.248L225.921 31.6945C224.982 30.875 223.993 30.4226 222.373 30.4226C219.64 30.4226 217.637 32.5822 217.637 35.2284V35.254C217.637 38.0026 219.581 40.0342 222.39 40.0342Z" fill="white"/>
</g>
</g>
<defs>
<linearGradient id="paint0_linear_3989_1024" x1="93.3201" y1="1.60233" x2="67.1052" y2="37.3912" gradientUnits="userSpaceOnUse">
<stop stop-color="#F8B900"/>
<stop offset="1" stop-color="#E67508"/>
</linearGradient>
<linearGradient id="paint1_linear_3989_1024" x1="60.4916" y1="1.60241" x2="34.2766" y2="37.3912" gradientUnits="userSpaceOnUse">
<stop stop-color="#F8B900"/>
<stop offset="1" stop-color="#E67508"/>
</linearGradient>
<linearGradient id="paint2_linear_3989_1024" x1="27.6625" y1="1.60232" x2="1.44744" y2="37.3912" gradientUnits="userSpaceOnUse">
<stop stop-color="#F8B900"/>
<stop offset="1" stop-color="#E67508"/>
</linearGradient>
<clipPath id="clip0_3989_1024">
<rect width="226" height="40" fill="white" transform="translate(0.683594 0.0344238)"/>
</clipPath>
</defs>
</svg>
