<svg width="129" height="129" viewBox="0 0 129 129" fill="none" xmlns="http://www.w3.org/2000/svg">
<path d="M64.6831 1.58276L111.684 11.9497C114.298 12.5288 116.163 14.8282 116.163 17.4909V74.1914C116.163 85.5801 110.426 96.2198 100.879 102.533L64.6831 126.486L28.487 102.533C18.9346 96.214 13.2031 85.5801 13.2031 74.197V17.4909C13.2031 14.8282 15.0678 12.5288 17.6819 11.9497L64.6831 1.58276ZM64.6831 13.2158L24.6431 22.0442V74.1914C24.6431 81.782 28.4641 88.873 34.8305 93.0858L64.6831 112.843L94.5357 93.0858C100.902 88.873 104.723 81.7878 104.723 74.197V22.0442L64.6831 13.2215V13.2158ZM90.1486 42.5851L98.2425 50.613L61.8404 86.744L37.5703 62.6547L45.6584 54.627L61.8346 70.6825L90.1486 42.5793V42.5851Z" fill="url(#paint0_linear_3989_1058)"/>
<defs>
<linearGradient id="paint0_linear_3989_1058" x1="98.5516" y1="6.47998" x2="13.5882" y2="104.837" gradientUnits="userSpaceOnUse">
<stop stop-color="#F8B900"/>
<stop offset="1" stop-color="#E67508"/>
</linearGradient>
</defs>
</svg>
