<svg width="180" height="40" viewBox="0 0 180 40" fill="none" xmlns="http://www.w3.org/2000/svg">
<g clip-path="url(#clip0_2450_2802)">
<path fill-rule="evenodd" clip-rule="evenodd" d="M137.596 15.2959C137.669 15.3284 137.74 15.3633 137.808 15.4005C138.181 15.5914 138.526 15.8325 138.834 16.1171C139.321 16.5496 139.707 17.0857 139.961 17.6863C140.174 18.1895 140.291 18.7274 140.309 19.2734V19.3296L149.661 8.59045L149.79 8.44241L155.598 1.75966C156.026 1.26815 156.09 0.826975 155.893 0.456862C155.883 0.453862 155.874 0.448553 155.866 0.441361C155.858 0.434167 155.853 0.425286 155.849 0.415409C155.83 0.37297 155.807 0.332337 155.78 0.294012C155.727 0.226071 155.665 0.163601 155.598 0.107472C155.479 0.0308863 155.337 -0.00634631 155.195 0.00088475H149.505C149.027 0.000595278 148.552 0.0392139 148.081 0.116359C146.521 0.686166 145.125 1.63401 144.018 2.87592C141.689 5.55405 139.663 9.92319 138.249 13.5189L137.596 15.2959ZM142.571 6.49117C142.294 7.14492 142.068 7.81903 141.894 8.50754C141.778 8.97241 141.688 9.44318 141.605 9.9199V9.92042C141.57 10.1482 141.534 10.3761 141.502 10.6009C141.42 11.2849 141.349 11.9688 141.314 12.6735C141.289 13.1771 141.252 13.67 141.217 14.1599C141.202 14.3557 141.188 14.5509 141.175 14.7462C141.137 15.2288 141.08 15.7114 141.014 16.1911C141.003 16.268 140.991 16.345 140.978 16.422C140.973 16.4605 140.966 16.4989 140.96 16.5375C140.848 17.2946 140.689 18.0441 140.486 18.7818C140.897 18.0858 141.221 17.3421 141.452 16.5671L144.244 12.7624L145.717 10.7697L141.776 15.3264C141.809 15.1637 141.837 15.0008 141.868 14.8379C141.923 14.5418 141.967 14.2458 142.005 13.9497L145.691 8.88654L142.133 12.9548C142.135 12.9294 142.139 12.9035 142.143 12.8774C142.15 12.8365 142.156 12.795 142.156 12.7535L142.265 11.6579L142.286 11.6757L144.901 8.01308L145.455 7.23436L144.78 8.01012L142.389 10.6927C142.442 10.2584 142.507 9.82613 142.583 9.39582L145.414 5.3838L142.804 8.28251C142.921 7.7614 143.054 7.2462 143.216 6.73988C143.653 5.4365 144.182 4.16601 144.797 2.93809C143.876 3.99901 143.126 5.19775 142.571 6.49117Z" fill="white"/>
<path d="M52.0866 7.86226C51.8166 7.86226 51.6079 7.77589 51.4607 7.60314C51.3133 7.40574 51.2643 7.1713 51.3133 6.89985L52.0498 3.45741C52.0988 3.18596 52.2338 2.96387 52.4548 2.79112C52.7003 2.59371 52.9457 2.495 53.1912 2.495H57.7938C58.0638 2.495 58.2724 2.59371 58.4198 2.79112C58.567 2.96387 58.6162 3.18596 58.567 3.45741L57.7938 6.89985C57.7693 7.1713 57.6465 7.40574 57.4257 7.60314C57.2047 7.77589 56.9592 7.86226 56.6892 7.86226H52.0866Z" fill="white"/>
<path d="M47.4469 29.7755C47.1769 29.7755 46.9683 29.6891 46.8209 29.5163C46.6983 29.3189 46.6614 29.0968 46.7105 28.8501L50.3558 11.4528C50.4049 11.206 50.5399 10.9962 50.7608 10.8235C50.9818 10.6261 51.2273 10.5274 51.4973 10.5274H56.0997C56.3697 10.5274 56.5662 10.6138 56.689 10.7865C56.8362 10.9592 56.8852 11.1813 56.8362 11.4528L53.1541 28.8501C53.105 29.1216 52.97 29.3437 52.7491 29.5163C52.5528 29.6891 52.3195 29.7755 52.0495 29.7755H47.4469Z" fill="white"/>
<path fill-rule="evenodd" clip-rule="evenodd" d="M0.184104 29.5904C0.306835 29.7138 0.478673 29.7755 0.699588 29.7755H5.74403C6.33315 29.7755 6.79955 29.5041 7.14321 28.9612L9.27881 25.3707H18.889L19.4781 28.8871C19.5764 29.4793 19.9568 29.7755 20.6196 29.7755H25.2957C25.5658 29.7755 25.7867 29.6768 25.9586 29.4793C26.1305 29.282 26.2041 29.0105 26.1795 28.665L22.6079 4.93803C22.5097 4.22239 22.0924 3.86458 21.356 3.86458H15.391C14.6792 3.86458 14.1147 4.22239 13.6973 4.93803L0.110465 28.665C0.0368269 28.813 0 28.9488 0 29.0722C0 29.2696 0.0613731 29.4424 0.184104 29.5904ZM18.5208 19.8183H11.9667L17.232 10.3793L18.5208 19.8183Z" fill="white"/>
<path d="M31.0602 29.5534C31.2074 29.7014 31.4529 29.7755 31.7965 29.7755H35.9941C36.3378 29.7755 36.6079 29.7014 36.8041 29.5534C37.0251 29.3807 37.2338 29.1462 37.4301 28.8501L47.9977 11.6749C48.1204 11.4774 48.1818 11.3047 48.1818 11.1566C48.1818 10.9592 48.1204 10.8112 47.9977 10.7125C47.8749 10.5891 47.7031 10.5274 47.4822 10.5274H42.7691C42.2536 10.5274 41.8486 10.7865 41.5541 11.3047L35.1473 22.3724L33.4904 11.3787C33.4168 11.1073 33.3063 10.8975 33.1589 10.7495C33.0363 10.6014 32.8153 10.5274 32.4962 10.5274H28.3723C28.0041 10.5274 27.7341 10.6261 27.5622 10.8235C27.4149 11.0209 27.3658 11.28 27.4149 11.6008L30.7657 28.8501C30.8393 29.1462 30.9374 29.3807 31.0602 29.5534Z" fill="white"/>
<path fill-rule="evenodd" clip-rule="evenodd" d="M58.9968 28.48C60.1259 29.5904 61.7215 30.1457 63.7835 30.1457C65.0845 30.1457 66.1645 29.9483 67.0237 29.5534C67.8828 29.1339 68.742 28.517 69.6011 27.7026L69.3433 28.8501C69.2942 29.0968 69.3433 29.3189 69.4907 29.5163C69.638 29.6891 69.8466 29.7755 70.1166 29.7755H74.4983C74.7438 29.7755 74.9769 29.6891 75.1978 29.5163C75.4188 29.3437 75.5538 29.1216 75.6029 28.8501L79.2849 11.4528C79.334 11.206 79.2849 10.9962 79.1376 10.8235C78.9904 10.6261 78.7818 10.5274 78.5118 10.5274H74.1669C73.8968 10.5274 73.6514 10.6137 73.4304 10.7865C73.2341 10.9592 73.1113 11.1813 73.0623 11.4528L72.8413 12.3782C72.3258 11.6625 71.6753 11.1196 70.8898 10.7495C70.1043 10.3546 69.0242 10.1572 67.6496 10.1572C65.1704 10.1572 63.133 10.9222 61.5374 12.4522C59.9419 13.9575 58.7881 16.0797 58.0763 18.8188L57.5239 21.447C57.4012 22.0886 57.3398 22.8289 57.3398 23.6679C57.3398 25.7408 57.8921 27.3447 58.9968 28.48ZM69.1225 24.0011C68.4597 24.6674 67.5882 25.0005 66.5082 25.0005C65.6736 25.0005 65.0845 24.7907 64.7407 24.3712C64.3971 23.9517 64.2252 23.3471 64.2252 22.5575C64.2252 22.1626 64.2621 21.7432 64.3357 21.2989C64.4094 20.6079 64.569 19.843 64.8145 19.0039C65.1581 17.8441 65.6367 16.9434 66.2505 16.3018C66.8641 15.6355 67.6987 15.3024 68.7542 15.3024C69.6133 15.3024 70.2393 15.5245 70.6321 15.9687C71.0248 16.4129 71.2212 17.0175 71.2212 17.7825C71.2212 17.9551 71.1967 18.2389 71.1476 18.6338C71.0248 19.4482 70.8285 20.3736 70.5584 21.41C70.2884 22.4464 69.8097 23.3101 69.1225 24.0011Z" fill="white"/>
<path d="M89.9229 29.7755C85.3326 29.7755 83.0374 28.048 83.0374 24.5933C83.0374 23.9024 83.1233 23.1743 83.2952 22.4093L84.7312 15.5614H81.8592C81.5891 15.5614 81.3805 15.4751 81.2332 15.3024C81.086 15.105 81.0491 14.8829 81.1227 14.6361L81.7487 11.4528C81.7978 11.206 81.9328 10.9962 82.1537 10.8235C82.3747 10.6261 82.6201 10.5274 82.8902 10.5274H85.7989L87.0877 4.41982C87.1368 4.14837 87.2718 3.92626 87.4927 3.75353C87.7137 3.58079 87.9468 3.49442 88.1923 3.49442H92.7213C92.9913 3.49442 93.1876 3.59313 93.3104 3.79055C93.4576 3.96329 93.5068 4.17304 93.4576 4.41982L92.1689 10.5274H96.7715C97.0415 10.5274 97.238 10.6137 97.3606 10.7865C97.508 10.9592 97.557 11.1813 97.508 11.4528L96.8451 14.6361C96.7961 14.9075 96.6611 15.1296 96.4401 15.3024C96.2192 15.4751 95.986 15.5614 95.7405 15.5614H91.1011L89.7755 21.8542C89.6774 22.2737 89.6283 22.6932 89.6283 23.1126C89.6283 23.5816 89.7388 23.927 89.9598 24.1491C90.2052 24.3712 90.6103 24.4822 91.1748 24.4822H94.1573C94.4273 24.4822 94.6236 24.5809 94.7464 24.7784C94.8936 24.9512 94.9428 25.1732 94.8936 25.4446L94.1573 28.8501C94.1081 29.1216 93.9731 29.3437 93.7523 29.5163C93.5314 29.6891 93.2981 29.7755 93.0526 29.7755H89.9229Z" fill="white"/>
<path d="M97.2389 29.5163C97.3861 29.6891 97.5948 29.7755 97.8648 29.7755H102.725C102.995 29.7755 103.241 29.6891 103.462 29.5163C103.683 29.3437 103.818 29.1216 103.867 28.8501L105.855 19.5221C106.051 18.5351 106.469 17.7701 107.107 17.2272C107.745 16.6843 108.555 16.4129 109.537 16.4129H113.256C113.526 16.4129 113.771 16.3264 113.992 16.1538C114.213 15.9563 114.336 15.7342 114.36 15.4875L115.207 11.4528C115.256 11.1813 115.207 10.9592 115.06 10.7865C114.937 10.6138 114.753 10.5274 114.508 10.5274H112.372C111.096 10.5274 110.016 10.7371 109.132 11.1566C108.248 11.5515 107.487 12.1314 106.849 12.8964L107.144 11.4898C107.193 11.2183 107.144 10.9962 106.996 10.8235C106.874 10.6261 106.677 10.5274 106.407 10.5274H101.915C101.645 10.5274 101.4 10.6261 101.179 10.8235C100.958 10.9962 100.823 11.2183 100.774 11.4898L97.1285 28.8501C97.0794 29.0968 97.1161 29.3189 97.2389 29.5163Z" fill="white"/>
<path d="M119.549 7.86226C119.279 7.86226 119.071 7.77589 118.924 7.60314C118.776 7.40574 118.727 7.1713 118.776 6.89985L119.513 3.45741C119.562 3.18596 119.697 2.96387 119.918 2.79112C120.163 2.59371 120.409 2.495 120.654 2.495H125.257C125.527 2.495 125.735 2.59371 125.883 2.79112C126.03 2.96387 126.079 3.18596 126.03 3.45741L125.257 6.89985C125.232 7.1713 125.109 7.40574 124.888 7.60314C124.667 7.77589 124.422 7.86226 124.152 7.86226H119.549Z" fill="white"/>
<path d="M114.91 29.7755C114.64 29.7755 114.431 29.6891 114.284 29.5163C114.161 29.3189 114.124 29.0968 114.173 28.8501L117.819 11.4528C117.868 11.206 118.003 10.9962 118.224 10.8235C118.445 10.6261 118.69 10.5274 118.96 10.5274H123.563C123.833 10.5274 124.029 10.6138 124.152 10.7865C124.299 10.9592 124.348 11.1813 124.299 11.4528L120.617 28.8501C120.568 29.1216 120.433 29.3437 120.212 29.5163C120.016 29.6891 119.782 29.7755 119.512 29.7755H114.91Z" fill="white"/>
<path fill-rule="evenodd" clip-rule="evenodd" d="M127.423 11.8489L130.997 19.0679C130.94 19.3512 130.909 19.6443 130.909 19.9446C130.909 22.3558 132.854 24.3104 135.253 24.3104C137.651 24.3104 139.596 22.3558 139.596 19.9446C139.596 17.852 138.13 16.1033 136.176 15.6776L133.867 11.2196C133.67 10.7754 133.34 10.5533 132.873 10.5533H128.307C128.037 10.5533 127.804 10.6644 127.607 10.8865C127.436 11.0839 127.35 11.306 127.35 11.5528C127.35 11.6021 127.374 11.7008 127.423 11.8489ZM135.253 21.6092C136.167 21.6092 136.909 20.8639 136.909 19.9446C136.909 19.0251 136.167 18.2799 135.253 18.2799C134.338 18.2799 133.597 19.0251 133.597 19.9446C133.597 20.8639 134.338 21.6092 135.253 21.6092Z" fill="white"/>
<path fill-rule="evenodd" clip-rule="evenodd" d="M132.824 24.5995C132.892 24.6367 132.963 24.6716 133.037 24.7041L132.383 26.4811C130.969 30.0768 128.943 34.4459 126.615 37.1241C125.506 38.3659 124.11 39.3138 122.55 39.8837C122.08 39.9608 121.604 39.9993 121.128 39.9991H115.437C115.295 40.0063 115.154 39.9691 115.034 39.8925C114.967 39.8365 114.906 39.7739 114.851 39.7061C114.825 39.6676 114.802 39.627 114.784 39.5846C114.78 39.5747 114.774 39.5658 114.766 39.5587C114.759 39.5514 114.749 39.5462 114.739 39.5432C114.542 39.173 114.607 38.7318 115.034 38.2404L120.842 31.5576L120.972 31.4096L130.323 20.6704V20.7266C130.341 21.2726 130.459 21.8105 130.671 22.3137C130.926 22.9143 131.311 23.4504 131.798 23.8829C132.106 24.1675 132.451 24.4086 132.824 24.5995ZM128.738 31.4925C128.564 32.1809 128.338 32.8551 128.061 33.5088C127.507 34.8022 126.756 36.0011 125.834 37.0618C126.451 35.834 126.979 34.5636 127.416 33.2601C127.578 32.7538 127.71 32.2386 127.828 31.7175L125.219 34.6162L128.049 30.6042C128.126 30.1738 128.191 29.7416 128.244 29.3074L125.852 31.9899L125.177 32.7657L125.731 31.987L128.347 28.3243L128.367 28.3421L128.476 27.2466C128.476 27.205 128.483 27.1634 128.489 27.1226C128.493 27.0964 128.498 27.0707 128.5 27.0451L124.942 31.1134L128.627 26.0503C128.665 25.7542 128.709 25.4582 128.765 25.1621C128.794 24.9992 128.824 24.8363 128.856 24.6736L124.915 29.2303L126.388 27.2376L129.18 23.4329C129.412 22.6579 129.736 21.9142 130.146 21.2182C129.943 21.9559 129.785 22.7054 129.672 23.4625C129.666 23.5011 129.66 23.5395 129.654 23.578C129.641 23.655 129.629 23.732 129.619 23.8089C129.551 24.2886 129.495 24.7712 129.457 25.2538C129.444 25.4491 129.429 25.6442 129.415 25.84C129.38 26.3299 129.344 26.8229 129.319 27.3264C129.283 28.0312 129.213 28.7151 129.13 29.3991C129.098 29.6239 129.062 29.8517 129.027 30.0795V30.0801C128.945 30.5568 128.853 31.0276 128.738 31.4925Z" fill="white"/>
<path d="M135.252 25.1584C137.125 25.1584 138.767 24.1599 139.678 22.6634L142.566 28.4957C142.614 28.6437 142.639 28.7425 142.639 28.7918C142.639 29.0386 142.553 29.2607 142.381 29.458C142.185 29.6801 141.952 29.7912 141.681 29.7912H137.116C136.65 29.7912 136.318 29.5691 136.122 29.125L133.986 25.0021C134.392 25.1042 134.816 25.1584 135.252 25.1584Z" fill="white"/>
</g>
<g clip-path="url(#clip1_2450_2802)">
<g clip-path="url(#clip2_2450_2802)">
<path d="M168 24C174.627 24 180 18.6274 180 12C180 5.37258 174.627 0 168 0C161.373 0 156 5.37258 156 12C156 18.6274 161.373 24 168 24Z" fill="#F0F0F0"/>
<path d="M168.001 0C163.243 0 159.132 2.76867 157.191 6.78262H178.81C176.869 2.76867 172.758 0 168.001 0Z" fill="#FF9811"/>
<path d="M168.001 24C172.758 24 176.869 21.2313 178.81 17.2174H157.191C159.132 21.2313 163.243 24 168.001 24Z" fill="#6DA544"/>
<path d="M168.002 16.1739C170.307 16.1739 172.176 14.3052 172.176 12C172.176 9.69483 170.307 7.82611 168.002 7.82611C165.697 7.82611 163.828 9.69483 163.828 12C163.828 14.3052 165.697 16.1739 168.002 16.1739Z" fill="#0052B4"/>
<path d="M168.003 14.6087C169.444 14.6087 170.612 13.4407 170.612 12C170.612 10.5593 169.444 9.39132 168.003 9.39132C166.562 9.39132 165.395 10.5593 165.395 12C165.395 13.4407 166.562 14.6087 168.003 14.6087Z" fill="#F0F0F0"/>
<path d="M167.995 8.7809L168.8 10.6061L170.783 10.3904L169.604 12L170.783 13.6095L168.8 13.3939L167.995 15.2191L167.19 13.3939L165.207 13.6095L166.385 12L165.207 10.3904L167.19 10.6061L167.995 8.7809Z" fill="#0052B4"/>
</g>
</g>
<rect x="156.75" y="0.75" width="22.5" height="22.5" rx="11.25" stroke="white" stroke-width="1.5"/>
<defs>
<clipPath id="clip0_2450_2802">
<rect width="156" height="40" fill="white"/>
</clipPath>
<clipPath id="clip1_2450_2802">
<rect x="156" width="24" height="24" rx="12" fill="white"/>
</clipPath>
<clipPath id="clip2_2450_2802">
<rect width="24" height="24" fill="white" transform="translate(156)"/>
</clipPath>
</defs>
</svg>
