<svg width="121" height="17" viewBox="0 0 121 17" fill="none" xmlns="http://www.w3.org/2000/svg">
<mask id="mask0_83_2756" style="mask-type:luminance" maskUnits="userSpaceOnUse" x="0" y="0" width="48" height="17">
<path d="M47.7145 0.36084H0.666656V16.3608H47.7145V0.36084Z" fill="white"/>
</mask>
<g mask="url(#mask0_83_2756)">
<path d="M4.28507 0.55738H10.2927L7.1402 11.1572C6.91895 11.9008 7.38839 12.514 8.16183 12.514C8.93553 12.514 9.73201 11.9008 9.953 11.1572L13.1056 0.55738L18.4329 0.557251L14.7928 14.1072C14.4715 15.3024 13.1948 16.2807 11.9556 16.2807H2.73857C1.26585 16.2807 0.373168 15.1185 0.754902 13.6973L4.28507 0.55738Z" fill="white"/>
<path d="M25.1151 6.34766L31.2843 6.34778L30.1637 10.0179H23.9922L22.2791 16.281H16.4792L19.3151 6.34766H25.1151Z" fill="white"/>
<path d="M37.1182 0.398315H44.9641C46.1118 0.398315 48.06 1.31787 47.6613 2.78022L47.5042 3.35597H40.5029C40.1433 3.35597 39.7691 3.64434 39.6719 3.99661L37.496 11.8761C37.3988 12.2285 37.6134 12.5167 37.9731 12.5167H45.0062L44.4963 14.3865C44.2011 15.4697 43.0372 16.3608 41.8901 16.3608H33.6071C32.1472 16.3608 31.2503 15.2303 31.6142 13.8491L34.669 2.25328C34.9378 1.23293 36.0399 0.398315 37.1182 0.398315Z" fill="white"/>
<path d="M31.9035 4.20552H25.7468L25.7437 4.2161H19.9439L21.0597 0.36084C25.0446 0.36084 29.0296 0.36084 33.0142 0.36084L31.9035 4.20552Z" fill="white"/>
</g>
<rect x="51.7145" y="0.36084" width="1" height="16" fill="white"/>
<g clip-path="url(#clip0_83_2756)">
<path d="M75.1967 5.24617L72.818 14.8899C73.4153 14.8899 73.9839 14.6744 74.5225 14.2467C75.0612 13.82 75.4047 13.3059 75.5583 12.7086L77.3951 5.24724H80.2569L80.2367 5.32831H85.1337L83.0004 13.6376C82.9972 13.6547 82.9876 13.6814 82.9727 13.7262C82.9599 13.7635 82.9513 13.7955 82.9449 13.8222L82.9417 13.835C82.8393 14.4504 83.0783 14.8035 83.6564 14.8942L83.6777 14.8974L83.2991 16.3523H82.8553C81.8292 16.3523 81.058 16.1304 80.5396 15.691C80.0201 15.2483 79.8228 14.652 79.9497 13.9011C79.9604 13.8243 79.9785 13.7486 80.0031 13.675L80.0148 13.6376L81.7919 6.78324H79.8804L78.8351 11.051C78.4959 12.46 77.7108 13.6878 76.4777 14.7342L76.434 14.7704C75.1753 15.8243 73.8495 16.3523 72.4553 16.3523H69.5967L71.9529 6.70964L72.2569 5.24724L75.1967 5.24617ZM95.8047 5.24617L93.7055 13.9054C93.7012 13.9342 93.6927 13.963 93.682 13.9907C93.6703 14.0184 93.6607 14.0483 93.6553 14.0782C93.5753 14.588 93.8079 14.8568 94.354 14.8867L93.9956 16.3523H92.9972C92.0084 16.3523 91.3364 16.0536 90.9769 15.4552C90.2591 16.0526 89.4847 16.3512 88.6505 16.3512H88.2068C87.2436 16.3512 86.466 16.0846 85.8729 15.5534C85.2777 15.0222 85.0484 14.348 85.1796 13.532C85.1903 13.436 85.2116 13.34 85.2436 13.2483L86.4265 8.35017C86.6377 7.46484 87.1817 6.72457 88.0607 6.13364C88.9385 5.54377 89.8868 5.24724 90.9065 5.24724H95.8036L95.8047 5.24617ZM107.401 5.24617C108.369 5.24617 109.145 5.51391 109.737 6.04617C110.319 6.56884 110.55 7.23231 110.433 8.03444L110.428 8.06964L110.382 8.35124L109.172 13.2472C108.962 14.108 108.419 14.8408 107.54 15.4456C106.675 16.0387 105.735 16.3416 104.715 16.3523H104.238C103.259 16.3523 102.467 16.0899 101.87 15.5662C101.269 15.0392 101.038 14.363 101.171 13.532C101.182 13.4499 101.2 13.3678 101.223 13.2878L101.235 13.2483L102.448 8.35124C102.658 7.47871 103.198 6.74164 104.069 6.14324C104.925 5.55657 105.869 5.25791 106.902 5.24724L107.401 5.24617ZM67.458 0.36084C68.578 0.36084 69.4655 0.63604 70.1257 1.18431C70.7807 1.73684 71.0367 2.46644 70.8884 3.37524C70.8831 3.40724 70.8735 3.46377 70.8511 3.55231C70.8276 3.63764 70.8191 3.69311 70.8137 3.72511L68.1972 14.2275C68.1268 14.6435 68.2996 14.8675 68.7135 14.8963L68.3455 16.3523H67.202C66.5012 16.3523 65.9753 16.1795 65.6319 15.8328C65.2831 15.4862 65.1625 14.9998 65.2649 14.3768C65.2767 14.2808 65.2991 14.187 65.33 14.0963L66.2548 10.4088H63.6479L62.1609 16.3523H59.298L60.7807 10.4088H56.7145C56.7145 9.36884 57.5412 8.52297 58.5727 8.52297C59.2681 8.52297 60.1524 8.51871 61.1103 8.51764H61.2543L62.4532 3.72511C62.7049 2.71071 63.2959 1.89577 64.2292 1.28244C65.1625 0.669107 66.2367 0.36084 67.458 0.36084ZM101.879 2.58164L101.235 5.09151H102.467L102.104 6.51871H100.896L99.1999 13.2664C99.1988 13.2835 99.1892 13.3091 99.1775 13.3518C99.1625 13.3944 99.1529 13.4307 99.1487 13.4595C99.0484 14.0707 99.2916 14.4046 99.8761 14.46L99.5124 15.9075H98.514C97.7087 15.9075 97.1071 15.6974 96.7071 15.2803C96.3103 14.86 96.1705 14.2904 96.2889 13.5672C96.2975 13.516 96.3081 13.4659 96.322 13.4179C96.3412 13.3454 96.354 13.2952 96.3583 13.2664L98.0543 6.51871H96.6569L97.0196 5.09151H98.4137L99.0367 2.58164H101.879ZM115.861 4.95817L115.639 5.88191C116.503 5.26644 117.532 4.95817 118.719 4.95817H119.707L118.92 7.94377H117.315L117.664 6.52724C116.947 6.77044 116.307 7.20991 115.737 7.84777C115.169 8.48244 114.788 9.16511 114.593 9.89577L113.062 15.8616H110.116L112.93 4.95817H115.861ZM92.6025 6.71177H90.5663C89.9721 6.71177 89.5828 7.07764 89.3972 7.80511L88.0351 13.4222C88.0308 13.451 88.0212 13.4958 88.0041 13.5544L87.9753 13.6611C87.8473 14.4803 88.1919 14.8878 89.0121 14.8878C89.4495 14.8878 89.8655 14.7278 90.2548 14.4078C90.6441 14.0856 90.8969 13.6984 91.0111 13.2483L92.6025 6.71177ZM106.801 6.73311C106.46 6.73311 106.15 6.88351 105.876 7.18217C105.609 7.47231 105.414 7.84777 105.294 8.30751L105.283 8.35017L104.095 13.2483C104.087 13.2888 104.078 13.3283 104.066 13.3678C104.05 13.419 104.039 13.4584 104.034 13.4883C103.97 13.8968 104.012 14.2307 104.162 14.492C104.312 14.7566 104.53 14.8867 104.815 14.8867C105.127 14.8867 105.427 14.7448 105.713 14.46C105.992 14.1838 106.196 13.7934 106.324 13.2899L106.335 13.2472L107.523 8.35124L107.561 8.11124C107.633 7.67497 107.592 7.33684 107.446 7.09471C107.3 6.85364 107.086 6.73311 106.801 6.73311ZM67.0911 1.81684C66.7049 1.81684 66.3519 1.95764 66.0404 2.23817C65.73 2.51977 65.5252 2.87924 65.4271 3.31551L64.1033 8.51657L64.098 8.54857H66.7007L66.7103 8.51657L68.034 3.31231L68.0671 3.11604C68.1268 2.74164 68.0671 2.42804 67.8953 2.18484C67.7183 1.93631 67.4537 1.81471 67.0911 1.81471V1.81684ZM84.7444 0.36084C85.1583 0.36084 85.4911 0.506973 85.7407 0.79604C85.9881 1.08511 86.0777 1.43284 86.0095 1.83711C85.9423 2.24244 85.7321 2.59337 85.3887 2.88991C85.042 3.18644 84.6601 3.33471 84.2431 3.33471C83.8281 3.33471 83.4964 3.18857 83.25 2.89951C83.0004 2.60937 82.9097 2.25737 82.9833 1.83711C83.0505 1.43284 83.2575 1.08511 83.602 0.79604C83.9487 0.506973 84.3284 0.36084 84.7444 0.36084Z" fill="white"/>
</g>
<defs>
<clipPath id="clip0_83_2756">
<rect width="64" height="16" fill="white" transform="translate(56.7145 0.36084)"/>
</clipPath>
</defs>
</svg>
