<svg width="231" height="65" viewBox="0 0 231 65" fill="none" xmlns="http://www.w3.org/2000/svg">
<path d="M69.9299 38.1062C73.0199 41.4416 76.8259 43.1091 81.3478 43.1088C83.2682 43.1088 85.4419 42.6173 87.8687 41.6342L88.2587 34.3474L66.9236 33.5521C67.6798 35.2189 68.6944 36.7558 69.9299 38.1062ZM33.3755 32.2982L30.9615 42.3977H42.2482L43.1388 37.2377H50.4976L51.3093 42.3977H62.5963L60.6835 33.3178L33.3755 32.2982ZM44.5658 0.771944L37.2638 31.3209L64.572 32.3418L57.9214 0.771944H44.5658ZM48.4939 27.5466L49.5938 21.1756L50.3529 16.2522C50.3701 16.1643 50.4057 15.9096 50.458 15.4885C50.5103 15.0675 50.5975 14.313 50.72 13.2242C50.7893 12.6802 50.8547 12.1801 50.9162 11.724C50.9776 11.2678 51.0256 10.8552 51.0603 10.4862L51.4007 14.3302C51.488 15.1194 51.5579 15.7731 51.6104 16.2913C51.6628 16.8095 51.7064 17.2176 51.7411 17.5156C52.0731 20.1838 52.2564 21.711 52.2911 22.0971C52.3072 22.3365 52.3423 22.5742 52.3959 22.808L53.1031 27.5474H48.4939V27.5466ZM83.7695 30.8381C82.8911 30.3421 82.1488 29.6366 81.609 28.7844C80.9753 27.7723 80.5191 26.6595 80.26 25.4939C79.9292 24.0431 79.7712 22.5584 79.7891 21.0705C79.7891 17.6656 80.4176 14.9979 81.6745 13.0676C82.9314 11.1543 84.6772 10.1977 86.9119 10.1979C88.6233 10.1979 90.2906 11.0138 91.9137 12.6458V1.03464C90.1878 0.387715 88.3617 0.0491615 86.5187 0.0344238C81.0886 0.0344238 76.7504 1.96504 73.504 5.82629C70.2563 9.7053 68.6327 14.8478 68.6331 21.2538C68.6331 25.6801 69.3672 29.4457 70.8126 32.5736L92.1467 33.3703L92.385 28.9151C90.4817 30.67 88.5876 31.5476 86.7027 31.548C85.6802 31.5675 84.67 31.323 83.7695 30.8381ZM131.485 19.452C132.049 20.4462 132.735 21.3663 133.527 22.191C134.464 23.1644 135.48 24.0583 136.565 24.8632L138.345 26.2576C139.637 27.2929 140.284 28.3548 140.284 29.4432C140.289 29.8041 140.212 30.1614 140.057 30.4877C139.903 30.8139 139.676 31.1004 139.393 31.3251C138.741 31.8458 137.922 32.1126 137.089 32.0761C134.592 32.0761 132.27 30.6016 130.123 27.6527V34.7891L149.536 35.5139C150.656 33.4431 151.229 31.0569 151.229 28.3372C151.229 25.9857 150.723 23.9322 149.71 22.1768C148.715 20.4219 147.066 18.7104 144.761 17.0425L143.032 15.7532C141.548 14.6825 140.806 13.6029 140.807 12.5143C140.807 12.1842 140.883 11.8586 141.028 11.5622C141.173 11.2657 141.384 11.0061 141.644 10.8032C142.214 10.3017 142.955 10.038 143.713 10.0664C144.813 10.0664 145.93 10.4656 147.065 11.2641C148.281 12.1495 149.313 13.2629 150.103 14.5424V2.11502C147.467 0.729448 144.848 0.0363302 142.247 0.0356662C139.33 0.0356662 136.843 0.913288 134.783 2.66853C134.03 3.28542 133.361 3.99801 132.793 4.78823C130.993 7.29658 130.007 10.2967 129.966 13.3835C129.961 14.4474 130.084 15.5079 130.333 16.5423C130.584 17.5595 130.971 18.5381 131.485 19.451V19.452ZM0.765625 42.3977H11.686V31.4887L0.765625 31.0808V42.3977ZM20.7848 30.7059L31.7055 31.1137V0.771944H20.7866V15.1462H15.5748V0.771944H4.65468V30.1035L15.5748 30.5111V25.0711H20.7866V30.7059H20.7848ZM16.8965 42.3977H27.8189V32.091L16.8982 31.6832V42.3977H16.8965ZM114.645 0.771944L108.203 18.1998L108.491 0.771944H97.5703V33.5725L108.377 33.9762L108.202 22.6758L112.637 34.1353L124.048 34.5613L117.448 20.3853L126.169 0.771944H114.645ZM162.386 0.771944L154.042 35.681L183.327 36.7744L175.742 0.771944H162.386ZM166.315 27.5466L167.415 21.1756L168.174 16.2522C168.191 16.1644 168.226 15.9098 168.279 15.4885C168.332 15.0672 168.419 14.3124 168.541 13.2242C168.61 12.6802 168.676 12.1801 168.737 11.724C168.799 11.2678 168.847 10.8552 168.88 10.4862L169.221 14.3302C169.309 15.1194 169.379 15.7731 169.431 16.2913C169.484 16.8095 169.527 17.2176 169.562 17.5156C169.894 20.1838 170.077 21.711 170.112 22.0971C170.128 22.3364 170.163 22.5741 170.216 22.808L170.923 27.5474H166.315V27.5466ZM189.767 42.3977H200.399L200.937 38.5542L188.814 38.1015L189.767 42.3977ZM93.682 34.5498V42.3977H104.603L104.488 34.9527L93.682 34.5498ZM219.687 0.771944L217.695 13.3825C217.416 15.1375 217.163 17.0945 216.935 19.2536C216.708 21.4127 216.499 23.8872 216.308 26.6771C215.661 20.4645 214.901 15.085 214.03 10.5385L212.197 0.771944H202.795L200.753 12.3813C200.176 15.7345 199.703 19.2712 199.337 22.9915L198.998 26.1771L198.631 22.4649C198.369 19.9206 197.898 16.4192 197.217 11.9605L195.436 0.771944H184.646L192.703 37.1252L204.827 37.5779L206.356 26.6781C206.53 25.4497 206.679 24.2826 206.801 23.1767C206.924 22.0709 207.029 21.018 207.115 20.018C207.289 18.0523 207.421 16.7095 207.509 15.9898C207.543 16.3408 207.603 16.8495 207.693 17.5166C207.782 18.1837 207.885 19.0168 208.007 20.018C208.251 22.0364 208.617 24.4231 209.107 27.1783L210.982 37.8079L222.787 38.2484L230.344 0.77294H219.687V0.771944ZM207.733 42.3977H218.26L218.9 39.2247L207.095 38.784L207.733 42.3977ZM168.334 37.3368L169.131 42.3977H180.418L179.439 37.7514L168.334 37.3368ZM126.234 41.3977C129.167 42.5381 131.917 43.1084 134.484 43.1088C138.202 43.1088 141.275 41.8099 143.702 39.2123C144.464 38.3919 145.118 37.4769 145.647 36.4898L126.234 35.7652V41.3977ZM108.749 35.1123L111.568 42.3977H123.354L120.16 35.5383L108.749 35.1123ZM148.782 42.3977H160.069L160.959 37.2377L150.153 36.6583L148.782 42.3977ZM11.5307 55.8932H18.641C18.6441 56.562 18.6136 57.2306 18.5498 57.8963C18.4954 58.4662 18.3727 59.0275 18.1843 59.5681C17.9444 60.2609 17.5925 60.9096 17.1425 61.4883C16.7117 62.0387 16.1895 62.511 15.5987 62.8845C14.9956 63.2637 14.3396 63.5516 13.6521 63.7388C12.9256 63.9371 12.1755 64.0359 11.4224 64.0326C10.4194 64.0453 9.4234 63.8645 8.48895 63.5C7.63469 63.1645 6.85976 62.6546 6.21363 62.0028C5.56718 61.3401 5.06331 60.552 4.73311 59.6871C4.37009 58.7339 4.19023 57.7208 4.203 56.7009C4.19155 55.6882 4.36808 54.6822 4.72365 53.7339C5.04827 52.8689 5.55291 52.0828 6.20417 51.4275C6.86407 50.7775 7.65117 50.2709 8.51609 49.9395C9.47885 49.5736 10.5021 49.393 11.5319 49.4071C12.8539 49.3778 14.1599 49.7013 15.3154 50.3443C16.4512 51.0255 17.3507 52.0387 17.8922 53.2474L14.4927 54.6616C14.2553 54.005 13.8254 53.4352 13.2592 53.0267C12.7455 52.6935 12.1442 52.5207 11.5319 52.5305C11.0284 52.5239 10.5296 52.6271 10.0701 52.833C9.63501 53.0327 9.25064 53.3279 8.9456 53.6968C8.62051 54.0978 8.37271 54.5556 8.2148 55.0471C8.03151 55.6171 7.94203 56.213 7.94987 56.8117C7.94486 57.3649 8.02181 57.9157 8.1782 58.4464C8.31664 58.9229 8.54969 59.3666 8.86343 59.7511C9.16982 60.12 9.55775 60.4128 9.99661 60.6061C10.4934 60.8166 11.0291 60.9197 11.5685 60.9084C11.9132 60.9097 12.2567 60.8698 12.5919 60.7894C12.9083 60.7155 13.2087 60.5848 13.4786 60.4037C13.7419 60.2239 13.9628 59.9887 14.1259 59.7147C14.3088 59.3981 14.4273 59.0485 14.4745 58.6859H11.5312V55.8944L11.5307 55.8932ZM55.1583 61.2403H50.0417L49.22 63.6471H45.3992L50.6443 49.793H54.5555L59.8013 63.6471H55.9812L55.1583 61.2403ZM54.2081 58.5014L52.5994 53.8893L50.9914 58.5014H54.2081ZM87.0702 63.6464L89.4095 49.7923H92.9552L95.7158 57.1817L98.4572 49.7953H102.003L104.343 63.6494H100.778L99.5917 55.6738L96.3383 63.6484H94.9106L91.823 55.6738L90.6348 63.6484H87.0707L87.0702 63.6464ZM136.51 49.7923V63.6464H132.928V49.7923H136.51H136.51ZM165.717 63.6464V49.7923H169.299L175.915 58.2629V49.7943H179.479V63.6484H175.914L169.299 55.1778V63.6484H165.716L165.717 63.6464ZM215.648 55.8944H222.759C222.759 56.6292 222.727 57.2973 222.667 57.8976C222.613 58.4675 222.49 59.0288 222.301 59.5693C222.062 60.262 221.71 60.9106 221.26 61.4896C220.83 62.04 220.308 62.5122 219.717 62.8857C219.113 63.2648 218.457 63.5527 217.77 63.74C217.043 63.9383 216.292 64.0371 215.539 64.0338C214.536 64.0464 213.54 63.8655 212.605 63.5012C211.751 63.1654 210.976 62.6555 210.33 62.004C209.684 61.3407 209.181 60.5527 208.851 59.6884C208.147 57.7669 208.143 55.6589 208.841 53.7351C209.165 52.8698 209.67 52.0835 210.322 51.4287C210.982 50.7789 211.768 50.2723 212.633 49.9407C213.595 49.5749 214.618 49.3943 215.648 49.4084C216.97 49.3789 218.275 49.7025 219.43 50.3456C220.567 51.0265 221.467 52.0397 222.01 53.2486L218.609 54.6629C218.372 54.0062 217.942 53.4364 217.376 53.028C216.862 52.6947 216.261 52.522 215.648 52.5317C215.145 52.5252 214.646 52.6285 214.187 52.8343C213.752 53.0336 213.368 53.3289 213.064 53.698C212.738 54.0988 212.49 54.5567 212.332 55.0483C212.148 55.6182 212.058 56.2142 212.065 56.813C212.061 57.3662 212.138 57.917 212.294 58.4476C212.433 58.9246 212.666 59.3685 212.981 59.7523C213.288 60.1213 213.676 60.4141 214.114 60.6074C214.611 60.8182 215.146 60.9212 215.686 60.9097C216.03 60.911 216.374 60.871 216.709 60.7906C217.025 60.7167 217.326 60.586 217.595 60.405C217.859 60.2249 218.081 59.9898 218.245 59.716C218.426 59.3987 218.544 59.0493 218.591 58.6871H215.648V55.8944Z" fill="white"/>
</svg>
