<svg width="89" height="20" viewBox="0 0 89 20" fill="none" xmlns="http://www.w3.org/2000/svg">
<path fill-rule="evenodd" clip-rule="evenodd" d="M71.5094 0.00231934L70.6672 4.71277H75.9872L73.2829 19.9996H79.268L82.0166 4.75724H87.381L88.2232 0.00231934H71.5094ZM38.4369 15.2447L39.0576 11.7785H42.9588H43.89C47.348 11.7785 46.4168 15.2447 43.3136 15.2447H38.4369ZM49.9637 9.42327C51.2047 8.62338 51.8697 7.33465 52.0917 5.95708C52.7124 2.71306 50.584 0.00231934 45.7517 0.00231934H35.2892L32.3632 15.9557L34.9346 19.9552H42.3824C47.2594 19.9552 50.8946 17.6443 51.6039 13.6449C52.1803 10.4009 50.008 9.46769 49.9637 9.42327ZM44.1559 7.91234H39.8114L40.3874 4.71277H43.801H44.6437C47.8354 4.75724 46.9488 7.91234 44.1559 7.91234ZM58.786 12.2673L58.254 15.2891H67.9628L67.1206 19.9996H51.4267L55.0175 0.00231934H70.1351L69.2928 4.71277H60.1604L59.6726 7.51239H67.5637L66.7214 12.2229L58.786 12.2673Z" fill="#0BBBEF"/>
<path fill-rule="evenodd" clip-rule="evenodd" d="M22.2997 2.00247C21.0583 0.447123 18.9747 -0.0416985 17.1126 0.00273999H11.7927L16.7136 7.64616L22.2997 2.00247ZM8.02432 18.3558L26.1123 0.00273999H34.7573L26.201 8.71268L33.4273 19.9556H28.994C24.738 19.9556 23.8956 18.578 23.1863 17.6892L20.881 14.0897L15.0733 20H1.68466C2.30533 16.4894 2.926 12.9343 3.591 9.42368L4.16731 7.73501L0 9.73473L0.0443332 4.57991L6.96034 0.00273999H11.3937L8.02432 18.3558Z" fill="#FEFEFE"/>
</svg>
