<svg width="100" height="24" viewBox="0 0 100 24" fill="none" xmlns="http://www.w3.org/2000/svg">
<path fill-rule="evenodd" clip-rule="evenodd" d="M23.8066 8.38271C23.8249 8.32181 19.8976 -1.24756 8.50235 1.21245C6.33135 1.67352 -0.599189 4.83528 0.0416692 13.3134C0.179893 18.7843 7.09787 25.6849 16.3067 23.0016C26.08 19.6523 24.0531 11.183 24.0531 11.183C24.0531 11.183 24.9578 18.1502 18.2815 21.2917C23.6094 18.0304 24.2377 13.7367 23.3745 9.92057C23.6828 13.1055 22.3141 14.3901 22.3141 14.3901C22.3141 14.3901 22.0348 18.4605 15.836 20.906C13.1237 21.7818 9.92229 21.4956 7.86632 20.4227C0.230157 16.7216 2.48331 9.4914 2.48331 9.4914C2.48331 9.4914 3.73506 3.57773 10.857 1.98573C16.675 0.873172 21.8859 4.91647 23.8066 8.38271ZM4.44455 2.94653C4.44455 2.94653 10.395 -1.50081 17.949 1.79338C18.7387 2.28151 23.0681 4.10259 25.1946 11.0998C25.2255 11.1269 24.2087 4.5511 18.0108 1.51886C15.9259 0.486531 9.42062 -0.907311 4.44455 2.94653Z" fill="#FFE000"/>
<path fill-rule="evenodd" clip-rule="evenodd" d="M3.43542 12.5894C9.44576 4.02335 18.9243 2.75517 21.0131 7.81727C23.2421 13.6352 15.7867 20.0767 7.57055 18.9168C7.50096 18.8858 5.28937 18.7785 5.60351 17.4176C6.19604 11.8277 10.1011 8.20294 10.1011 8.20294L13.2281 7.13581C13.2281 7.13581 9.69805 10.5528 8.16115 16.827C15.0878 18.0787 20.4022 11.936 19.2945 8.66014C19.0345 7.29917 13.3914 2.69234 3.43542 12.5894Z" fill="#FFE000"/>
<path d="M38.6827 16.8589C38.1249 17.523 35.9395 18.0807 33.9898 18.0807C30.1969 18.0807 27.646 15.959 27.646 12.7876C27.646 9.87326 29.8962 7.66554 32.8753 7.66554C33.8187 7.66554 34.7186 7.92266 35.4687 8.39436V6.40123C35.4687 6.01555 35.4475 5.7159 35.4049 5.52258C35.4049 5.43656 35.3402 5.2442 35.2764 4.94359C35.2338 4.79376 35.2126 4.64394 35.2126 4.53665C35.2126 4.3008 35.3624 4.04368 35.6195 3.89386C35.9626 3.7015 36.4121 3.48692 37.0124 3.2936C37.9123 2.97172 38.2767 2.88666 38.4913 2.88666C38.8557 2.88666 38.9842 3.12251 38.9842 3.83006V15.381C38.9823 16.2161 38.9176 16.5805 38.6827 16.8589ZM35.4677 11.2874C35.0173 11.0303 34.3107 10.837 33.753 10.837C32.4461 10.837 31.5027 11.7369 31.5027 12.9374C31.5027 14.1804 32.5312 15.1229 33.9241 15.1229C34.4818 15.1229 35.1024 14.9518 35.4668 14.6947L35.4677 11.2874ZM50.4704 17.5239C49.6778 17.8236 48.6058 18.0382 48.049 18.0382C47.4488 18.0382 47.1704 17.8236 47.0206 17.2243L46.9993 17.1595C46.228 17.7598 45.1773 18.0807 44.1063 18.0807C41.6849 18.0807 40.0562 16.6878 40.0562 14.5874C40.0562 12.4444 41.7275 11.0728 44.3421 11.0728C45.3281 11.0728 45.9921 11.2661 46.892 11.7804L46.9781 11.8229V11.1376C46.9781 10.345 46.3353 9.852 45.3281 9.852C44.5567 9.852 43.5495 10.0666 42.6061 10.431C42.3065 10.5383 42.1344 10.6021 42.0493 10.6233C41.9208 10.6659 41.8135 10.6881 41.7275 10.6881C41.2345 10.6881 40.8276 9.95929 40.8276 9.08065C40.8276 8.80227 40.8711 8.58768 40.9349 8.48039C41.0209 8.35183 41.2345 8.22327 41.5138 8.13724C42.7782 7.75157 44.4707 7.51572 45.9283 7.51572C47.2352 7.51572 48.457 7.7941 49.2931 8.24454C50.193 8.75877 50.4926 9.42283 50.4926 10.8805V14.5884C50.4926 15.8952 50.5139 16.0673 50.6637 16.5167C50.771 16.7951 50.8135 17.0097 50.8135 17.117C50.8126 17.3093 50.7062 17.4379 50.4704 17.5239ZM46.9771 13.8373C46.5489 13.4942 45.7988 13.237 45.1985 13.237C44.3199 13.237 43.7409 13.7087 43.7409 14.4801C43.7409 15.2089 44.3624 15.7444 45.1985 15.7444C45.7128 15.7444 46.5276 15.5086 46.9771 15.2727V13.8373ZM57.5865 5.43656C56.2797 5.47909 55.7432 5.95079 55.7432 7.06528V7.7941H57.2221C57.5218 7.7941 57.6726 7.83663 57.7576 7.96616C57.8862 8.13724 57.9935 8.60895 57.9935 8.99462C57.9935 9.87326 57.7363 10.3662 57.2434 10.3662H55.7432V19.1739C55.7432 19.4523 55.7432 19.6456 55.7219 19.7094C55.7007 19.9453 55.5074 20.1811 55.229 20.3309C54.9071 20.4808 54.5214 20.6306 54.0507 20.8026C53.1073 21.1458 52.8511 21.2308 52.6365 21.2308C52.3156 21.2308 52.2509 21.0598 52.2509 20.3735V10.3662H51.3925C51.0494 10.3662 50.8135 10.1729 50.8135 9.89453C50.8135 9.72247 50.8773 9.55138 51.0706 9.31553L52.2489 7.7941V7.19384C52.2489 5.69367 52.6133 4.68647 53.406 3.97892C54.2208 3.27137 55.5064 2.86443 56.9631 2.86443C57.6919 2.86443 57.9065 2.97172 58.1626 3.44342L58.5696 4.15097C58.7629 4.49412 58.8054 4.62268 58.8054 4.85853C58.8073 5.308 58.5937 5.41529 57.5865 5.43656ZM68.6445 17.5239C67.8518 17.8236 66.7799 18.0382 66.2231 18.0382C65.6229 18.0382 65.3445 17.8236 65.1947 17.2243L65.1734 17.1595C64.402 17.7598 63.3513 18.0807 62.2803 18.0807C59.859 18.0807 58.2303 16.6878 58.2303 14.5874C58.2303 12.4444 59.9015 11.0728 62.5162 11.0728C63.5021 11.0728 64.1662 11.2661 65.0661 11.7804L65.1521 11.8229V11.1376C65.1521 10.345 64.5093 9.852 63.5021 9.852C62.7308 9.852 61.7236 10.0666 60.7802 10.431C60.4805 10.5383 60.3085 10.6021 60.2225 10.6233C60.0939 10.6659 59.9866 10.6881 59.9015 10.6881C59.4086 10.6881 59.0016 9.95929 59.0016 9.08065C59.0016 8.80227 59.0442 8.58768 59.1089 8.48039C59.195 8.35183 59.4086 8.22327 59.6879 8.13724C60.9522 7.75157 62.6457 7.51572 64.1024 7.51572C65.4092 7.51572 66.631 7.7941 67.4671 8.24454C68.367 8.75877 68.6677 9.42283 68.6677 10.8805V14.5884C68.6677 15.8952 68.6889 16.0673 68.8387 16.5167C68.946 16.7951 68.9886 17.0097 68.9886 17.117C68.9876 17.3093 68.8803 17.4379 68.6445 17.5239ZM65.1512 13.8373C64.7229 13.4942 63.9729 13.237 63.3726 13.237C62.494 13.237 61.915 13.7087 61.915 14.4801C61.915 15.2089 62.5365 15.7444 63.3726 15.7444C63.8868 15.7444 64.7017 15.5086 65.1512 15.2727V13.8373ZM75.0965 18.0807C73.6389 18.0807 72.2248 17.781 71.089 17.202C70.4037 16.8589 70.2539 16.538 70.2539 15.3587V6.40123C70.2539 6.01555 70.2326 5.7159 70.1901 5.52258C70.1901 5.43656 70.1253 5.2442 70.0615 4.94359C70.019 4.79376 69.9977 4.64394 69.9977 4.53665C69.9977 4.3008 70.1475 4.04368 70.4046 3.89386C70.7478 3.7015 71.1973 3.48692 71.7975 3.2936C72.6974 2.97172 73.0618 2.88666 73.2764 2.88666C73.6408 2.88666 73.7694 3.12251 73.7694 3.83006V8.33057C74.648 7.88013 75.5054 7.66651 76.5126 7.66651C77.9915 7.66651 79.0412 8.09471 79.8986 9.05938C80.7985 10.0453 81.3127 11.3957 81.3127 12.745C81.3108 15.959 78.8257 18.0807 75.0965 18.0807ZM75.5682 10.837C74.9892 10.837 74.4325 10.9655 73.7684 11.2874V14.6096C74.1754 14.8667 74.8181 15.0378 75.4832 15.0378C76.8122 15.0378 77.7334 14.1804 77.7334 12.9161C77.7325 11.6943 76.8325 10.837 75.5682 10.837ZM91.7492 13.5802H85.9196C86.0481 14.6299 87.0766 15.38 88.3622 15.38C89.0697 15.38 89.9484 15.1867 90.5912 14.887L91.4911 14.4588C91.5984 14.4163 91.7695 14.3728 91.8555 14.3728C92.1339 14.3728 92.3059 14.6512 92.3059 15.1229C92.3059 15.7019 92.1774 16.4297 92.0275 16.6656C91.5771 17.3944 89.67 18.0797 88.0413 18.0797C84.7626 18.0797 82.319 15.873 82.319 12.9152C82.319 10.0647 84.8051 7.66458 87.7619 7.66458C90.7188 7.66458 92.9912 9.8288 92.9912 12.6368C92.9922 13.3878 92.7351 13.5802 91.7492 13.5802ZM87.8914 10.3875C87.0128 10.3875 86.37 10.8592 86.1342 11.6518H89.5202C89.4342 10.923 88.7488 10.3875 87.8914 10.3875ZM99.2084 10.3662H97.9866V14.0519L98.0079 14.5874C98.0079 15.1016 98.1577 15.2727 98.5434 15.2727C98.7358 15.2727 98.8643 15.2514 99.1002 15.1016C99.3786 14.9518 99.4433 14.9093 99.5719 14.9093C99.8928 14.9093 100 15.2949 100 16.2596C100 17.203 99.8715 17.5239 99.3786 17.7172C98.8218 17.9318 97.8359 18.0817 97.0858 18.0817C96.2284 18.0817 95.4358 17.8245 95.0076 17.3741C94.6219 16.9884 94.4933 16.4742 94.4933 15.3162V10.3662H93.636C93.3141 10.3662 93.057 10.1729 93.057 9.89453C93.057 9.72247 93.143 9.55138 93.3354 9.31553L94.4924 7.7941V6.57328V6.33743V6.23014C94.4924 5.88699 94.5349 5.75843 94.6847 5.62988C94.8781 5.50132 95.1352 5.41529 95.9491 5.17944C96.9563 4.87979 97.2781 4.79377 97.4918 4.79377C97.8562 4.79377 97.9847 5.05088 97.9847 5.75843V7.7941H99.2065C99.5061 7.7941 99.6347 7.83663 99.742 7.96616C99.8706 8.13724 99.9779 8.60895 99.9779 8.99462C99.9798 9.87326 99.7014 10.3662 99.2084 10.3662Z" fill="white"/>
</svg>
