<svg width="91" height="13" viewBox="0 0 91 13" fill="none" xmlns="http://www.w3.org/2000/svg">
<g clip-path="url(#clip0_1607_9585)">
<path d="M0 7.17638C0 3.03273 1.8072 0.944336 4.65803 0.944336C6.63098 0.944336 8.12269 1.90566 8.53648 4.0775L8.60278 4.42614L6.91217 4.79078L6.84587 4.47644C6.53039 3.01787 5.7188 2.45434 4.62488 2.45434C3.08287 2.45434 1.85635 3.79745 1.85635 7.06207C1.85635 10.1449 2.96742 11.4378 4.52543 11.4378C5.6365 11.4378 6.92932 10.8582 6.92932 8.81898V8.47148H4.49228V7.02892H8.61993V12.7477H7.14422L7.04477 11.3383C6.49724 12.4814 5.42046 12.9466 4.16079 12.9466C1.64146 12.9443 0 10.9394 0 7.17638Z" fill="#232325"/>
<path d="M14.9839 11.9496C14.4695 12.496 13.7905 12.928 12.6966 12.944C11.1386 12.944 10.127 11.8993 10.127 10.5573C10.127 9.09873 11.3375 8.38546 12.3982 8.08711L14.9679 7.35783V7.05949C14.9679 6.13131 14.3872 5.66722 13.4762 5.66722C12.6303 5.66722 11.9513 6.19761 11.653 6.7943L11.6027 6.89374L10.2927 6.19761L10.3761 6.03186C10.7408 5.28544 11.7524 4.25781 13.6248 4.25781C15.4971 4.25781 16.6916 5.20314 16.6916 6.90975V11.2694C16.6916 11.6832 16.7088 12.2308 16.7911 12.5954L16.8242 12.7451H15.1005L15.0833 12.6617C15.033 12.4297 14.9999 12.1976 14.9839 11.9496ZM13.1435 11.6341C13.906 11.6341 14.5861 11.186 14.9667 10.7059V8.6175L13.1767 9.16503C12.4977 9.37993 11.8999 9.72857 11.8999 10.4418C11.8999 11.1551 12.3811 11.6352 13.1435 11.6352V11.6341Z" fill="#232325"/>
<path d="M26.7014 5.7505C26.0224 5.7505 25.3091 6.21459 24.9113 6.61238V12.745H23.1875V7.02617C23.1875 6.1803 22.7566 5.74936 21.9279 5.74936C21.2489 5.74936 20.5356 6.21345 20.1378 6.61124V12.7438H18.4141V4.45768H20.0555V5.36986C20.6854 4.70687 21.5804 4.25879 22.5086 4.25879C23.6688 4.25879 24.3649 4.78918 24.6964 5.51846C25.3262 4.77203 26.2876 4.25879 27.282 4.25879C28.9898 4.25879 29.6859 5.40301 29.6859 6.64553V12.745H27.9622V7.02617C27.9622 6.1803 27.5312 5.74936 26.7025 5.74936L26.7014 5.7505Z" fill="#232325"/>
<path d="M33.2161 11.9833L33.0504 12.7458H31.5918V1.14355H33.3156V5.1386C33.8128 4.57507 34.5752 4.25958 35.3708 4.25958C37.2603 4.25958 38.5371 5.66899 38.5371 8.48667C38.5371 11.3043 37.194 12.9458 35.3045 12.9458C34.4586 12.9458 33.6802 12.5972 33.2161 11.9845V11.9833ZM34.973 11.5524C35.9515 11.5524 36.7802 10.6574 36.7802 8.53582C36.7802 6.41427 35.9183 5.66785 34.9399 5.66785C34.2769 5.66785 33.7293 5.99934 33.3156 6.43028V10.7568C33.7465 11.2049 34.31 11.5524 34.973 11.5524Z" fill="#232325"/>
<path d="M39.9609 1.14355H41.6847V12.7458H39.9609V1.14355Z" fill="#232325"/>
<path d="M43.209 8.71793C43.209 6.09914 44.5189 4.25879 46.8062 4.25879C48.4145 4.25879 50.104 5.22011 50.104 8.20354V8.98198H44.8996V9.08142C44.8996 10.6897 45.7455 11.5848 46.8714 11.5848C47.6007 11.5848 48.2145 11.2864 48.6283 10.54L48.7277 10.3571L50.0869 10.9378L50.0046 11.1035C49.3907 12.33 48.2968 12.9439 46.8222 12.9439C44.7338 12.9439 43.209 11.4682 43.209 8.71678V8.71793ZM48.4797 7.8389V7.72231C48.4797 6.21345 47.6841 5.64991 46.8062 5.64991C45.9284 5.64991 45.0653 6.3129 44.9167 7.83776H48.4808L48.4797 7.8389Z" fill="#232325"/>
<path d="M54.679 1.14355H57.1824L60.4641 12.7458H58.6238L57.811 9.69604H53.9657L53.153 12.7458H51.4121L54.679 1.14355ZM57.4144 8.27063L55.8895 2.56897L54.3647 8.27063H57.4144Z" fill="#EF681C"/>
<path d="M60.0312 4.45801H61.755L63.1141 10.3757L64.623 4.45801H66.2473L67.723 10.3757L69.1324 4.45801H70.7076L68.5689 12.7453H66.8611L65.3694 6.84475L63.8606 12.7453H62.1699L60.0312 4.45801Z" fill="#EF681C"/>
<path d="M75.7944 11.9496C75.28 12.496 74.6011 12.928 73.5071 12.944C71.9491 12.944 70.9375 11.8993 70.9375 10.5573C70.9375 9.09873 72.1469 8.38546 73.2088 8.08711L75.7784 7.35783V7.05949C75.7784 6.13131 75.1977 5.66722 74.2867 5.66722C73.442 5.66722 72.7618 6.19761 72.4635 6.7943L72.4144 6.89374L71.1044 6.19761L71.1878 6.03186C71.5525 5.28544 72.5641 4.25781 74.4365 4.25781C76.3088 4.25781 77.5033 5.20314 77.5033 6.90975V11.2694C77.5033 11.6832 77.5205 12.2308 77.6028 12.5954L77.6359 12.7451H75.9122L75.895 12.6617C75.8459 12.4297 75.8127 12.1976 75.7956 11.9496H75.7944ZM73.9552 11.6341C74.7176 11.6341 75.3978 11.186 75.7784 10.7059V8.6175L73.9884 9.16503C73.3082 9.37993 72.7115 9.72857 72.7115 10.4418C72.7115 11.1551 73.1928 11.6352 73.9552 11.6352V11.6341Z" fill="#EF681C"/>
<path d="M79.1758 4.45839H80.7841V6.0164C81.878 4.73959 82.8565 4.35894 83.6852 4.3418V5.9501C82.525 5.9501 81.6128 6.59708 80.9007 7.24292V12.7457H79.1769V4.45839H79.1758Z" fill="#EF681C"/>
<path d="M83.8672 8.71793C83.8672 6.09914 85.1771 4.25879 87.4644 4.25879C89.0727 4.25879 90.7634 5.22011 90.7634 8.20354V8.98198H85.5589V9.08142C85.5589 10.6897 86.4048 11.5848 87.5319 11.5848C88.2612 11.5848 88.875 11.2864 89.2888 10.54L89.3882 10.3571L90.7474 10.9378L90.6651 11.1035C90.0512 12.33 88.9573 12.9439 87.4827 12.9439C85.3943 12.9439 83.8695 11.4682 83.8695 8.71678L83.8672 8.71793ZM89.1379 7.8389V7.72231C89.1379 6.21345 88.3423 5.64991 87.4633 5.64991C86.5843 5.64991 85.7224 6.3129 85.5738 7.83776H89.1379V7.8389Z" fill="#EF681C"/>
</g>
<defs>
<clipPath id="clip0_1607_9585">
<rect width="90.7613" height="12" fill="white" transform="translate(0 0.944336)"/>
</clipPath>
</defs>
</svg>
