<svg width="91" height="13" viewBox="0 0 91 13" fill="none" xmlns="http://www.w3.org/2000/svg">
<g opacity="0.3" clip-path="url(#clip0_45_7497)">
<path d="M0 6.59288C0 2.44924 1.8072 0.36084 4.65803 0.36084C6.63098 0.36084 8.12269 1.32217 8.53648 3.49401L8.60278 3.84265L6.91217 4.20729L6.84587 3.89294C6.53039 2.43438 5.7188 1.87084 4.62488 1.87084C3.08287 1.87084 1.85635 3.21395 1.85635 6.47858C1.85635 9.56145 2.96742 10.8543 4.52543 10.8543C5.6365 10.8543 6.92932 10.2747 6.92932 8.23548V7.88799H4.49228V6.44543H8.61993V12.1642H7.14422L7.04477 10.7548C6.49724 11.8979 5.42046 12.3631 4.16079 12.3631C1.64146 12.3608 0 10.3559 0 6.59288Z" fill="white"/>
<path d="M14.9834 11.3663C14.469 11.9127 13.7901 12.3448 12.6961 12.3608C11.1381 12.3608 10.1265 11.316 10.1265 9.97405C10.1265 8.51548 11.337 7.8022 12.3978 7.50386L14.9674 6.77458V6.47624C14.9674 5.54806 14.3867 5.08397 13.4757 5.08397C12.6298 5.08397 11.9508 5.61436 11.6525 6.21104L11.6022 6.31049L10.2922 5.61436L10.3757 5.44861C10.7403 4.70218 11.7519 3.67456 13.6243 3.67456C15.4967 3.67456 16.6912 4.61988 16.6912 6.32649V10.6862C16.6912 11.1 16.7083 11.6475 16.7906 12.0121L16.8238 12.1619H15.1L15.0829 12.0784C15.0326 11.8464 14.9994 11.6144 14.9834 11.3663ZM13.1431 11.0508C13.9055 11.0508 14.5856 10.6027 14.9663 10.1226V8.03425L13.1762 8.58178C12.4972 8.79668 11.8994 9.14532 11.8994 9.85859C11.8994 10.5719 12.3806 11.052 13.1431 11.052V11.0508Z" fill="white"/>
<path d="M26.7011 5.16749C26.0221 5.16749 25.3088 5.63158 24.911 6.02937V12.162H23.1873V6.44316C23.1873 5.59729 22.7563 5.16635 21.9276 5.16635C21.2486 5.16635 20.5353 5.63044 20.1375 6.02823V12.1608H18.4138V3.87468H20.0552V4.78685C20.6851 4.12387 21.5801 3.67578 22.5083 3.67578C23.6685 3.67578 24.3646 4.20617 24.6961 4.93545C25.326 4.18902 26.2873 3.67578 27.2818 3.67578C28.9895 3.67578 29.6856 4.82 29.6856 6.06252V12.162H27.9619V6.44316C27.9619 5.59729 27.531 5.16635 26.7022 5.16635L26.7011 5.16749Z" fill="white"/>
<path d="M33.2155 11.3995L33.0497 12.1619H31.5912V0.559692H33.3149V4.55474C33.8122 3.9912 34.5746 3.67571 35.3702 3.67571C37.2597 3.67571 38.5365 5.08513 38.5365 7.90281C38.5365 10.7205 37.1934 12.3619 35.3039 12.3619C34.458 12.3619 33.6796 12.0133 33.2155 11.4006V11.3995ZM34.9724 10.9685C35.9508 10.9685 36.7796 10.0735 36.7796 7.95196C36.7796 5.83041 35.9177 5.08398 34.9392 5.08398C34.2762 5.08398 33.7287 5.41547 33.3149 5.84641V10.173C33.7459 10.621 34.3094 10.9685 34.9724 10.9685Z" fill="white"/>
<path d="M39.9608 0.559692H41.6845V12.1619H39.9608V0.559692Z" fill="white"/>
<path d="M43.2094 8.13492C43.2094 5.51613 44.5193 3.67578 46.8066 3.67578C48.4149 3.67578 50.1044 4.63711 50.1044 7.62053V8.39897H44.9V8.49841C44.9 10.1067 45.7459 11.0017 46.8718 11.0017C47.6011 11.0017 48.2149 10.7034 48.6287 9.95698L48.7281 9.77409L50.0873 10.3548L50.005 10.5205C49.3911 11.747 48.2972 12.3609 46.8226 12.3609C44.7342 12.3609 43.2094 10.8852 43.2094 8.13377V8.13492ZM48.4801 7.25589V7.1393C48.4801 5.63044 47.6845 5.0669 46.8066 5.0669C45.9288 5.0669 45.0657 5.72989 44.9171 7.25475H48.4812L48.4801 7.25589Z" fill="white"/>
<path d="M54.679 0.559692H57.1823L60.4641 12.1619H58.6237L57.811 9.11218H53.9657L53.153 12.1619H51.4121L54.679 0.559692ZM57.4144 7.68676L55.8895 1.98511L54.3646 7.68676H57.4144Z" fill="#EF681C"/>
<path d="M60.032 3.87463H61.7558L63.1149 9.79233L64.6237 3.87463H66.2481L67.7238 9.79233L69.1332 3.87463H70.7083L68.5696 12.1619H66.8619L65.3702 6.26137L63.8613 12.1619H62.1707L60.032 3.87463Z" fill="#EF681C"/>
<path d="M75.795 11.3663C75.2806 11.9127 74.6016 12.3448 73.5077 12.3608C71.9497 12.3608 70.9381 11.316 70.9381 9.97405C70.9381 8.51548 72.1475 7.8022 73.2094 7.50386L75.779 6.77458V6.47624C75.779 5.54806 75.1983 5.08397 74.2873 5.08397C73.4426 5.08397 72.7624 5.61436 72.4641 6.21104L72.4149 6.31049L71.105 5.61436L71.1884 5.44861C71.5531 4.70218 72.5647 3.67456 74.437 3.67456C76.3094 3.67456 77.5039 4.61988 77.5039 6.32649V10.6862C77.5039 11.1 77.521 11.6475 77.6033 12.0121L77.6365 12.1619H75.9127L75.8956 12.0784C75.8464 11.8464 75.8133 11.6144 75.7961 11.3663H75.795ZM73.9558 11.0508C74.7182 11.0508 75.3984 10.6027 75.779 10.1226V8.03425L73.9889 8.58178C73.3088 8.79668 72.7121 9.14532 72.7121 9.85859C72.7121 10.5719 73.1934 11.052 73.9558 11.052V11.0508Z" fill="#EF681C"/>
<path d="M79.1762 3.87465H80.7845V5.43266C81.8784 4.15585 82.8569 3.7752 83.6856 3.75806V5.36636C82.5254 5.36636 81.6132 6.01334 80.9011 6.65918V12.1619H79.1774V3.87465H79.1762Z" fill="#EF681C"/>
<path d="M83.8663 8.13492C83.8663 5.51613 85.1762 3.67578 87.4635 3.67578C89.0718 3.67578 90.7624 4.63711 90.7624 7.62053V8.39897H85.558V8.49841C85.558 10.1067 86.4039 11.0017 87.531 11.0017C88.2603 11.0017 88.8741 10.7034 89.2879 9.95698L89.3873 9.77409L90.7464 10.3548L90.6641 10.5205C90.0503 11.747 88.9564 12.3609 87.4818 12.3609C85.3934 12.3609 83.8686 10.8852 83.8686 8.13377L83.8663 8.13492ZM89.137 7.25589V7.1393C89.137 5.63044 88.3414 5.0669 87.4624 5.0669C86.5834 5.0669 85.7215 5.72989 85.5729 7.25475H89.137V7.25589Z" fill="#EF681C"/>
</g>
<defs>
<clipPath id="clip0_45_7497">
<rect width="90.7613" height="12" fill="white" transform="translate(0 0.36084)"/>
</clipPath>
</defs>
</svg>
