<svg width="115" height="115" viewBox="0 0 115 115" fill="none" xmlns="http://www.w3.org/2000/svg">
<path d="M32.587 38.6639L32.587 32.2739L13.9302 32.2739C13.4347 32.2739 13.0331 32.6756 13.0331 33.171L13.0331 33.2813C13.0331 36.254 15.4429 38.6639 18.4156 38.6639L32.587 38.6639Z" fill="#CBC8C7"/>
<path d="M32.5869 44.9815L32.5869 38.6639L18.8786 38.6639C18.3832 38.6639 17.9816 39.0611 17.9816 39.5509L17.9816 39.66C17.9816 42.5989 20.3914 44.9815 23.3641 44.9815L32.5869 44.9815Z" fill="#BDBFBD"/>
<path d="M9.26976 25.9562C8.77436 25.9562 8.37268 26.3579 8.37268 26.8533L8.37268 26.9636C8.37268 29.9363 10.7825 32.3461 13.7552 32.3461L29.1818 32.3461C29.9745 32.3461 30.6171 32.9887 30.6171 33.7814L30.6171 43.1877C30.6171 44.1784 31.4204 44.9818 32.4112 44.9818L39.8896 44.9818C45.1433 44.9818 49.4023 40.7229 49.4023 35.469C49.4023 30.2153 45.1433 25.9563 39.8896 25.9563L9.26976 25.9562Z" fill="#D6D2D1"/>
<path d="M9.26976 25.9562C8.77436 25.9562 8.37268 26.3579 8.37268 26.8533L8.37268 26.9636C8.37268 29.9363 10.7825 32.3461 13.7552 32.3461L29.1818 32.3461C29.9745 32.3461 30.6171 32.9887 30.6171 33.7814L30.6171 43.1877C30.6171 44.1784 31.4204 44.9818 32.4112 44.9818L39.8896 44.9818C45.1433 44.9818 49.4023 40.7229 49.4023 35.469C49.4023 30.2153 45.1433 25.9563 39.8896 25.9563L9.26976 25.9562Z" fill="url(#paint0_radial_903_3719)"/>
<path d="M65.881 17.8728L22.5682 61.1855C19.4853 64.2685 19.4853 69.2669 22.5682 72.3498L47.1717 96.9533C50.2546 100.036 55.253 100.036 58.336 96.9533L101.649 53.6405C104.732 50.5576 104.732 45.5592 101.649 42.4763L77.0452 17.8728C73.9623 14.7899 68.9639 14.7899 65.881 17.8728Z" fill="url(#paint1_linear_903_3719)"/>
<path d="M65.881 17.8728L22.5682 61.1855C19.4853 64.2685 19.4853 69.2669 22.5682 72.3498L47.1717 96.9533C50.2546 100.036 55.253 100.036 58.336 96.9533L101.649 53.6405C104.732 50.5576 104.732 45.5592 101.649 42.4763L77.0452 17.8728C73.9623 14.7899 68.9639 14.7899 65.881 17.8728Z" fill="url(#paint2_linear_903_3719)"/>
<path d="M65.881 17.8728L22.5682 61.1855C19.4853 64.2685 19.4853 69.2669 22.5682 72.3498L47.1717 96.9533C50.2546 100.036 55.253 100.036 58.336 96.9533L101.649 53.6405C104.732 50.5576 104.732 45.5592 101.649 42.4763L77.0452 17.8728C73.9623 14.7899 68.9639 14.7899 65.881 17.8728Z" fill="url(#paint3_linear_903_3719)"/>
<path d="M65.881 17.8728L22.5682 61.1855C19.4853 64.2685 19.4853 69.2669 22.5682 72.3498L47.1717 96.9533C50.2546 100.036 55.253 100.036 58.336 96.9533L101.649 53.6405C104.732 50.5576 104.732 45.5592 101.649 42.4763L77.0452 17.8728C73.9623 14.7899 68.9639 14.7899 65.881 17.8728Z" fill="url(#paint4_radial_903_3719)"/>
<path d="M65.881 17.8728L22.5682 61.1855C19.4853 64.2685 19.4853 69.2669 22.5682 72.3498L47.1717 96.9533C50.2546 100.036 55.253 100.036 58.336 96.9533L101.649 53.6405C104.732 50.5576 104.732 45.5592 101.649 42.4763L77.0452 17.8728C73.9623 14.7899 68.9639 14.7899 65.881 17.8728Z" fill="url(#paint5_radial_903_3719)"/>
<path d="M58.8495 10.8418L15.5367 54.1546C12.4538 57.2375 12.4538 62.2359 15.5367 65.3188L40.1402 89.9223C43.2231 93.0052 48.2215 93.0053 51.3045 89.9223L94.6172 46.6096C97.7001 43.5267 97.7001 38.5282 94.6172 35.4453L70.0137 10.8418C66.9308 7.75892 61.9324 7.75891 58.8495 10.8418Z" fill="url(#paint6_radial_903_3719)"/>
<path fill-rule="evenodd" clip-rule="evenodd" d="M62.9949 15.0117L19.7069 58.2999C18.8965 59.1102 18.8965 60.4242 19.7069 61.2345L44.2248 85.7524C45.035 86.5627 46.3491 86.5627 47.1593 85.7524L90.4474 42.4643C91.258 41.6537 91.258 40.34 90.4474 39.5294L65.9298 15.0117C65.1192 14.2013 63.8056 14.2013 62.9949 15.0117ZM18.2396 56.8323C16.6187 58.4532 16.6187 61.0812 18.2396 62.7021L42.7571 87.2197C44.378 88.8405 47.0061 88.8405 48.6269 87.2197L91.9147 43.9315C93.5356 42.3107 93.5356 39.683 91.9147 38.0621L67.3971 13.5443C65.7763 11.9235 63.1485 11.9235 61.5277 13.5443L18.2396 56.8323Z" fill="url(#paint7_linear_903_3719)"/>
<path d="M72.8998 49.2509C77.8974 44.2533 78.2122 36.4655 73.603 31.8562C68.9937 27.247 61.2058 27.5618 56.2082 32.5594C51.2106 37.5569 50.8958 45.3448 55.5051 49.9541C60.1143 54.5633 67.9022 54.2485 72.8998 49.2509Z" fill="#289D5B"/>
<path d="M72.8998 49.2509C77.8974 44.2533 78.2122 36.4655 73.603 31.8562C68.9937 27.247 61.2058 27.5618 56.2082 32.5594C51.2106 37.5569 50.8958 45.3448 55.5051 49.9541C60.1143 54.5633 67.9022 54.2485 72.8998 49.2509Z" fill="url(#paint8_linear_903_3719)"/>
<path d="M72.8998 49.2509C77.8974 44.2533 78.2122 36.4655 73.603 31.8562C68.9937 27.247 61.2058 27.5618 56.2082 32.5594C51.2106 37.5569 50.8958 45.3448 55.5051 49.9541C60.1143 54.5633 67.9022 54.2485 72.8998 49.2509Z" fill="url(#paint9_radial_903_3719)"/>
<path d="M36.057 35.3971L44.1889 27.2653L79.075 62.1516L70.6374 70.5892L36.057 35.3971Z" fill="#127531"/>
<path d="M77.6382 76.9176L85.7395 68.8163L79.0749 62.152L70.6377 70.5893L77.6382 76.9176Z" fill="#0B3F2E"/>
<path d="M43.9187 25.7725L35.3589 34.3323L78.1578 77.1312L86.7176 68.5714L43.9187 25.7725Z" fill="url(#paint10_linear_903_3719)"/>
<path d="M43.9187 25.7725L35.3589 34.3323L78.1578 77.1312L86.7176 68.5714L43.9187 25.7725Z" fill="url(#paint11_linear_903_3719)"/>
<path d="M33.497 57.8967C32.8343 57.2339 32.8343 56.1596 33.497 55.4968C34.1597 54.8344 35.234 54.8344 35.8968 55.4968L37.218 56.818C39.6559 55.3371 42.1408 55.9396 43.57 57.1019C44.3842 57.7639 44.4811 58.6682 43.9027 59.3797C43.3246 60.0909 42.279 60.1989 41.5674 59.6205C41.1016 59.2419 39.6494 58.2408 37.8456 60.0443C35.2623 62.6275 38.6099 66.0974 41.6058 63.1012C42.8897 61.8173 44.9914 61.2033 46.459 61.443C47.9866 61.6921 49.1721 62.4592 50.014 63.5781C51.286 65.6005 51.1159 67.724 49.9637 69.5638L51.2358 70.8358C51.8982 71.4986 51.8982 72.5729 51.2358 73.2357C50.573 73.8981 49.4987 73.8981 48.8359 73.2357L47.5922 71.992C45.5594 73.3075 43.1678 73.2981 41.1242 71.6841C40.4048 71.1157 40.2239 70.1286 40.7923 69.4091C41.3607 68.6896 42.4046 68.5673 43.124 69.1357C43.4814 69.4177 44.0627 69.7418 44.6882 69.8096C45.2228 69.8681 45.8928 69.7285 46.7113 68.9096C47.7314 67.8898 47.8986 66.9766 47.7354 66.2959C47.3837 64.3546 45.0323 63.863 43.6465 65.2488C41.7138 67.029 40.3323 67.4693 38.7864 67.4032C37.5305 67.3498 36.2617 66.8212 35.3542 65.9137C34.7726 65.3324 34.0004 64.2197 33.8618 62.8052C33.7502 61.6662 33.9882 60.4071 34.7813 59.1809L33.497 57.8967Z" fill="#27A15A"/>
<path d="M34.3576 56.9012C33.6949 56.2385 33.6949 55.1641 34.3576 54.5014C35.0203 53.839 36.0946 53.839 36.7574 54.5014L38.0786 55.8226C40.5165 54.3417 43.0014 54.9442 44.4306 56.1064C45.2448 56.7685 45.3417 57.6727 44.7633 58.3843C44.1852 59.0955 43.1396 59.2035 42.428 58.6251C41.9622 58.2465 40.51 57.2454 38.7062 59.0489C36.1229 61.6321 39.4705 65.102 42.4664 62.1057C43.7503 60.8218 45.852 60.2079 47.3196 60.4476C48.8472 60.6966 50.0327 61.4638 50.8746 62.5826C52.1466 64.605 51.9765 66.7286 50.8243 68.5683L52.0964 69.8404C52.7588 70.5032 52.7588 71.5775 52.0964 72.2403C51.4336 72.9027 50.3593 72.9027 49.6965 72.2403L48.4528 70.9966C46.42 72.312 44.0284 72.3027 41.9848 70.6887C41.2654 70.1203 41.0845 69.1331 41.6529 68.4137C42.2213 67.6942 43.2651 67.5719 43.9846 68.1402C44.342 68.4223 44.9233 68.7463 45.5488 68.8141C46.0834 68.8726 46.7534 68.733 47.5719 67.9142C48.592 66.8944 48.7592 65.9811 48.596 65.3004C48.2443 63.3592 45.8929 62.8676 44.5071 64.2534C42.5744 66.0335 41.1929 66.4738 39.647 66.4078C38.3911 66.3543 37.1223 65.8258 36.2148 64.9183C35.6332 64.337 34.861 63.2242 34.7224 61.8097C34.6108 60.6708 34.8488 59.4116 35.6418 58.1855L34.3576 56.9012Z" fill="url(#paint12_linear_903_3719)"/>
<path d="M75.9161 83.331L82.3059 83.331L82.3059 101.988C82.3059 102.483 81.9043 102.885 81.4088 102.885L81.2986 102.885C78.3257 102.885 75.9161 100.475 75.9161 97.5024L75.9161 83.331Z" fill="#C8C2C3"/>
<path d="M75.9161 83.331L82.3059 83.331L82.3059 101.988C82.3059 102.483 81.9043 102.885 81.4088 102.885L81.2986 102.885C78.3257 102.885 75.9161 100.475 75.9161 97.5024L75.9161 83.331Z" fill="#CBC8C7"/>
<path d="M69.526 83.331L75.9157 83.331L75.9157 97.0391C75.9157 97.5347 75.5142 97.9362 75.0187 97.9362L74.9085 97.9362C71.9359 97.9362 69.526 95.5263 69.526 92.5537L69.526 83.331Z" fill="#C8C2C3"/>
<path d="M69.526 83.331L75.9157 83.331L75.9157 97.0391C75.9157 97.5347 75.5142 97.9362 75.0187 97.9362L74.9085 97.9362C71.9359 97.9362 69.526 95.5263 69.526 92.5537L69.526 83.331Z" fill="#BDBFBD"/>
<path d="M79.0749 66.5154C73.8011 66.5154 69.526 70.7744 69.526 76.0281L69.526 83.5065C69.526 84.4976 70.3323 85.3007 71.327 85.3007L80.769 85.3007C81.5645 85.3007 82.2097 85.9433 82.2097 86.736L82.2097 102.163C82.2097 105.135 84.6286 107.545 87.6126 107.545L87.7235 107.545C88.2208 107.545 88.6238 107.144 88.6238 106.648L88.6238 76.0281C88.6238 70.7744 84.3487 66.5154 79.0749 66.5154Z" fill="#DBD7D7"/>
<path d="M79.0749 66.5154C73.8011 66.5154 69.526 70.7744 69.526 76.0281L69.526 83.5065C69.526 84.4976 70.3323 85.3007 71.327 85.3007L80.769 85.3007C81.5645 85.3007 82.2097 85.9433 82.2097 86.736L82.2097 102.163C82.2097 105.135 84.6286 107.545 87.6126 107.545L87.7235 107.545C88.2208 107.545 88.6238 107.144 88.6238 106.648L88.6238 76.0281C88.6238 70.7744 84.3487 66.5154 79.0749 66.5154Z" fill="url(#paint13_radial_903_3719)"/>
<defs>
<radialGradient id="paint0_radial_903_3719" cx="0" cy="0" r="1" gradientUnits="userSpaceOnUse" gradientTransform="translate(14.2322 26.6872) scale(27.9616 4.94705)">
<stop stop-color="#E3E1E1"/>
<stop offset="1" stop-color="#E3E1E1" stop-opacity="0"/>
</radialGradient>
<linearGradient id="paint1_linear_903_3719" x1="101.3" y1="49.22" x2="52.2646" y2="98.2554" gradientUnits="userSpaceOnUse">
<stop stop-color="#12724A"/>
<stop offset="1" stop-color="#116245"/>
</linearGradient>
<linearGradient id="paint2_linear_903_3719" x1="103.134" y1="43.9619" x2="97.9373" y2="49.1588" gradientUnits="userSpaceOnUse">
<stop stop-color="#1C8F60"/>
<stop offset="1" stop-color="#1C8F60" stop-opacity="0"/>
</linearGradient>
<linearGradient id="paint3_linear_903_3719" x1="48.4127" y1="98.1943" x2="53.7932" y2="92.8138" gradientUnits="userSpaceOnUse">
<stop offset="0.556818" stop-color="#195840"/>
<stop offset="1" stop-color="#195840" stop-opacity="0"/>
</linearGradient>
<radialGradient id="paint4_radial_903_3719" cx="0" cy="0" r="1" gradientUnits="userSpaceOnUse" gradientTransform="translate(73.4914 72.6517) rotate(114.806) scale(14.7004 13.948)">
<stop offset="0.306788" stop-color="#0E593C"/>
<stop offset="1" stop-color="#0E593C" stop-opacity="0"/>
</radialGradient>
<radialGradient id="paint5_radial_903_3719" cx="0" cy="0" r="1" gradientUnits="userSpaceOnUse" gradientTransform="translate(73.2674 77.137) rotate(138.249) scale(18.187 3.85656)">
<stop offset="0.396008" stop-color="#0F4F35"/>
<stop offset="1" stop-color="#0F4F35" stop-opacity="0"/>
</radialGradient>
<radialGradient id="paint6_radial_903_3719" cx="0" cy="0" r="1" gradientUnits="userSpaceOnUse" gradientTransform="translate(12.553 59.9506) rotate(3.25931) scale(53.7689 70.5106)">
<stop stop-color="#31DE74"/>
<stop offset="1" stop-color="#20CF5E"/>
</radialGradient>
<linearGradient id="paint7_linear_903_3719" x1="59.3876" y1="17.0294" x2="53.3958" y2="80.4941" gradientUnits="userSpaceOnUse">
<stop stop-color="#24A35B"/>
<stop offset="1" stop-color="#27A05A"/>
</linearGradient>
<linearGradient id="paint8_linear_903_3719" x1="62.5668" y1="44.9101" x2="66.0521" y2="41.4248" gradientUnits="userSpaceOnUse">
<stop offset="0.22807" stop-color="#269553"/>
<stop offset="1" stop-color="#269553" stop-opacity="0"/>
</linearGradient>
<radialGradient id="paint9_radial_903_3719" cx="0" cy="0" r="1" gradientUnits="userSpaceOnUse" gradientTransform="translate(65.8686 42.2197) rotate(-85.8023) scale(13.3647 13.1362)">
<stop offset="0.587108" stop-color="#249755" stop-opacity="0"/>
<stop offset="0.986856" stop-color="#16793D"/>
</radialGradient>
<linearGradient id="paint10_linear_903_3719" x1="42.8795" y1="33.2928" x2="76.7518" y2="67.1651" gradientUnits="userSpaceOnUse">
<stop stop-color="#FFD425"/>
<stop offset="1" stop-color="#FFAD24"/>
</linearGradient>
<linearGradient id="paint11_linear_903_3719" x1="84.5165" y1="70.7727" x2="76.9962" y2="63.2523" gradientUnits="userSpaceOnUse">
<stop offset="0.893939" stop-color="#CC8139"/>
<stop offset="1" stop-color="#CC8139" stop-opacity="0"/>
</linearGradient>
<linearGradient id="paint12_linear_903_3719" x1="34.3424" y1="54.5168" x2="52.0809" y2="72.2553" gradientUnits="userSpaceOnUse">
<stop stop-color="#EFEAEA"/>
<stop offset="1" stop-color="#EAE3E3"/>
</linearGradient>
<radialGradient id="paint13_radial_903_3719" cx="0" cy="0" r="1" gradientUnits="userSpaceOnUse" gradientTransform="translate(72.2534 68.0918) scale(13.0151 10.6686)">
<stop stop-color="#E3E1E1"/>
<stop offset="1" stop-color="#E3E1E1" stop-opacity="0"/>
</radialGradient>
</defs>
</svg>
