<svg width="72" height="24" viewBox="0 0 72 24" fill="none" xmlns="http://www.w3.org/2000/svg">
<path fill-rule="evenodd" clip-rule="evenodd" d="M27.1718 12.7341L23.6132 17.1877L22.1546 12.7341H8.50529L5.4964 23.8718H19.1034L20.7594 17.7025L21.8657 21.1489H23.8951L26.8335 17.501L25.1001 23.8718H28.257L31.2658 12.7341H27.1718Z" fill="#F8FF13"/>
<path d="M22.8804 11.1377L23.8739 9.28015H27.82V11.1377H30.8572V0H25.5933L19.3571 11.1377H22.8804ZM27.2281 3.02127H27.82V6.57218H25.3255L27.2281 3.02127Z" fill="#F8FF13"/>
<path d="M42.928 4.12533C43.6255 1.5442 42.5052 0 40.0178 0H34.2608L31.2305 11.1377H34.3876L35.2119 8.07164H37.171L38.0519 11.1377H41.3002L40.3911 7.86276C41.5642 7.45493 42.4376 6.40779 42.6744 5.12498L42.928 4.12533ZM39.3695 5.40844H35.9517L36.6 2.98397H39.9968L39.3695 5.40844Z" fill="#F8FF13"/>
<path fill-rule="evenodd" clip-rule="evenodd" d="M48.3609 0H45.2041L42.1953 11.1377H45.352L48.3609 0Z" fill="#F8FF13"/>
<path d="M28.7643 23.8718H32.2877L33.2812 22.0068H37.2344V23.8718H40.2643V12.7341H34.9792L28.7643 23.8718ZM37.2201 15.7554V19.3063H34.7538L36.6566 15.7554H37.2201Z" fill="#F8FF13"/>
<path fill-rule="evenodd" clip-rule="evenodd" d="M51.3345 12.7341H41.7582L40.8987 15.9121H44.3514L42.2092 23.8718H45.3662L47.5082 15.9121H50.475L51.3345 12.7341Z" fill="#F8FF13"/>
<path fill-rule="evenodd" clip-rule="evenodd" d="M54.3366 15.912H59.1212L59.9879 12.7341H54.893C53.1348 12.572 51.5422 13.8342 51.1938 15.6659L50.0874 19.7389C49.3828 22.3499 50.5173 23.8643 52.9976 23.8643H56.9719L57.8246 20.6789H53.0753L54.3366 15.912Z" fill="#F8FF13"/>
<path fill-rule="evenodd" clip-rule="evenodd" d="M67.7603 12.7341L66.6892 16.7103H63.0812L64.1523 12.7341H60.9955L57.9935 23.8718H61.1505L62.2216 19.8957H65.8293L64.7585 23.8718H67.9152L70.917 12.7341H67.7603Z" fill="#F8FF13"/>
<path d="M13.6563 11.1377L14.4596 8.15369H18.1803C19.9395 8.31932 21.5342 7.05558 21.8797 5.22196L22.1827 4.12533C22.8733 1.57404 21.7458 0 19.2513 0H3.00187L0 11.1377H13.6563ZM19.2513 2.98397L18.6172 5.38607H15.2066L15.8549 2.98397H19.2513Z" fill="#F8FF13"/>
</svg>
