<svg width="76" height="24" viewBox="0 0 76 24" fill="none" xmlns="http://www.w3.org/2000/svg">
<g clip-path="url(#clip0_82_2968)">
<path fill-rule="evenodd" clip-rule="evenodd" d="M37.8466 15.3279H71.2116H75.5556V19.663C75.5556 22.0573 73.6107 23.9982 71.2116 23.9982H71.2049H4.35054H4.34406C1.9449 23.9982 0 22.0573 0 19.663V15.3279H4.34406H37.8466ZM19.4111 22.1904C19.7392 22.3246 20.1103 22.3917 20.5244 22.3917C21.0031 22.3917 21.4253 22.2897 21.791 22.0857C22.1568 21.8818 22.4526 21.5866 22.6784 21.2001L21.9282 20.7251C21.7776 20.9667 21.5867 21.1572 21.3554 21.2968C21.1295 21.4363 20.8552 21.5061 20.5325 21.5061C20.2743 21.5061 20.0404 21.4605 19.8306 21.3692C19.6262 21.2726 19.4488 21.1438 19.2982 20.9828C19.1529 20.8164 19.04 20.6232 18.9593 20.4031C18.8787 20.183 18.8383 19.9469 18.8383 19.6946C18.8383 19.4423 18.8787 19.2062 18.9593 18.9861C19.04 18.7607 19.1529 18.5675 19.2982 18.4065C19.4434 18.2401 19.6208 18.1085 19.8306 18.0119C20.0404 17.9153 20.2743 17.867 20.5325 17.867C21.1241 17.867 21.584 18.1166 21.912 18.6158L22.6704 18.1166C22.423 17.7301 22.1164 17.4457 21.7507 17.2632C21.3904 17.0753 20.9816 16.9814 20.5244 16.9814C20.1318 16.9814 19.7715 17.0539 19.4434 17.1988C19.1153 17.3383 18.8329 17.5316 18.5963 17.7785C18.365 18.02 18.1821 18.3072 18.0477 18.6399C17.9186 18.9673 17.8541 19.3189 17.8541 19.6946C17.8541 20.081 17.9159 20.438 18.0396 20.7654C18.1633 21.0928 18.3408 21.3773 18.5721 21.6188C18.8033 21.8603 19.083 22.0509 19.4111 22.1904ZM26.7457 21.1679H28.8675L29.3193 22.2951H30.3358L28.0204 17.0056H27.5848L25.2936 22.2951H26.294L26.7457 21.1679ZM27.8107 18.5111L28.5368 20.3467H27.0765L27.8107 18.5111ZM33.03 21.0874C33.2612 21.9569 33.8744 22.3917 34.8694 22.3917C35.1491 22.3917 35.3992 22.3568 35.6196 22.287C35.8456 22.2119 36.0365 22.1072 36.1924 21.973C36.3538 21.8335 36.4775 21.6671 36.5636 21.4739C36.6496 21.2806 36.6927 21.0633 36.6927 20.8217C36.6927 20.3816 36.577 20.0327 36.3457 19.7751C36.1199 19.5175 35.7568 19.3189 35.2566 19.1793C35.0308 19.1203 34.8452 19.0639 34.7 19.0103C34.5548 18.9566 34.4391 18.9002 34.3531 18.8412C34.2724 18.7768 34.2132 18.7097 34.1756 18.6399C34.1433 18.5701 34.1272 18.4869 34.1272 18.3903V18.3662C34.1272 18.2105 34.189 18.0871 34.3127 17.9958C34.4364 17.8992 34.6085 17.8509 34.8291 17.8509C35.2755 17.8509 35.5497 18.0388 35.652 18.4145L36.5071 18.0602C36.2651 17.3464 35.7192 16.9895 34.8694 16.9895C34.6058 16.9895 34.3692 17.0244 34.1594 17.0941C33.9497 17.1639 33.7722 17.2632 33.627 17.392C33.4818 17.5208 33.3688 17.6765 33.2881 17.859C33.2128 18.0361 33.1752 18.232 33.1752 18.4467C33.1752 18.8761 33.2962 19.2169 33.5382 19.4692C33.7803 19.7161 34.1594 19.9039 34.6758 20.0327C34.8855 20.0864 35.0576 20.1401 35.1921 20.1937C35.3319 20.2474 35.4395 20.3065 35.5148 20.3709C35.5955 20.4353 35.652 20.5077 35.6842 20.5883C35.7165 20.6688 35.7326 20.7573 35.7326 20.854C35.7326 21.0633 35.66 21.2297 35.5148 21.3531C35.3696 21.4712 35.1706 21.5302 34.9178 21.5302C34.6435 21.5302 34.4257 21.4739 34.2643 21.3612C34.1084 21.2431 33.9846 21.0445 33.8932 20.7654L33.03 21.0874ZM41.0761 17.0941H40.0838V22.2951H41.0761V17.0941ZM49.1124 22.3353V17.0941H48.1689V20.3709L45.2484 17.0458H44.8044V22.2951H45.7564V19.0022L48.6769 22.3353H49.1124ZM54.0684 22.1824C54.3964 22.3219 54.7649 22.3917 55.1738 22.3917C55.5609 22.3917 55.9187 22.3219 56.2467 22.1824C56.5747 22.0428 56.8569 21.8523 57.0938 21.6107C57.3302 21.3692 57.5133 21.0847 57.6422 20.7573C57.7769 20.4245 57.844 20.0676 57.844 19.6865C57.844 19.3109 57.7822 18.9593 57.6587 18.6319C57.5347 18.2991 57.3573 18.0119 57.1262 17.7704C56.8947 17.5235 56.6124 17.3303 56.2791 17.1907C55.9507 17.0512 55.5822 16.9814 55.1738 16.9814C54.7862 16.9814 54.4289 17.0512 54.1009 17.1907C53.7778 17.3303 53.4982 17.5235 53.2618 17.7704C53.0249 18.0119 52.8396 18.2991 52.7049 18.6319C52.576 18.9593 52.5116 19.3109 52.5116 19.6865C52.5116 20.0676 52.5733 20.4245 52.6969 20.7573C52.8204 21.0847 52.9982 21.3692 53.2293 21.6107C53.4604 21.8523 53.7404 22.0428 54.0684 22.1824ZM55.8596 21.3612C55.6551 21.4524 55.4267 21.498 55.1738 21.498C54.9209 21.498 54.6924 21.4524 54.488 21.3612C54.2836 21.2645 54.1089 21.1357 53.9636 20.9747C53.8182 20.8137 53.7053 20.6232 53.6249 20.4031C53.544 20.183 53.5036 19.9442 53.5036 19.6865C53.5036 19.4289 53.544 19.1901 53.6249 18.97C53.7053 18.75 53.8182 18.5594 53.9636 18.3984C54.1089 18.2374 54.2836 18.1113 54.488 18.02C54.6924 17.9234 54.9209 17.8751 55.1738 17.8751C55.4267 17.8751 55.6551 17.9234 55.8596 18.02C56.0693 18.1113 56.2467 18.2374 56.392 18.3984C56.5369 18.5594 56.6502 18.75 56.7307 18.97C56.8116 19.1901 56.8516 19.4289 56.8516 19.6865C56.8516 19.9442 56.8116 20.183 56.7307 20.4031C56.6502 20.6232 56.5369 20.8137 56.392 20.9747C56.2467 21.1357 56.0693 21.2645 55.8596 21.3612Z" fill="#00CFA6"/>
<path fill-rule="evenodd" clip-rule="evenodd" d="M9.92929 4.89618C9.92929 7.60027 7.70653 9.79236 4.96462 9.79236C4.86044 9.79236 4.75698 9.78916 4.65436 9.78293V6.31338C4.75413 6.33596 4.858 6.34791 4.96462 6.34791C5.73578 6.34791 6.36093 5.72404 6.36093 4.95444C6.36093 4.18488 5.73578 3.56102 4.96462 3.56102C4.19348 3.56102 3.56833 4.18488 3.56833 4.95444V9.59604V9.79236V13.0055H0V4.89618C0 2.19209 2.22274 0 4.96462 0C7.70653 0 9.92929 2.19209 9.92929 4.89618Z" fill="#FF2400"/>
<path fill-rule="evenodd" clip-rule="evenodd" d="M54.6111 4.89618C54.6111 7.60027 52.3884 9.79236 49.6462 9.79236C49.5422 9.79236 49.4387 9.78916 49.336 9.78293V6.31338C49.436 6.33596 49.5395 6.34791 49.6462 6.34791C50.4173 6.34791 51.0427 5.72404 51.0427 4.95444C51.0427 4.18488 50.4173 3.56102 49.6462 3.56102C48.8751 3.56102 48.2502 4.18488 48.2502 4.95444V9.59604V9.79236V13.0055H44.6818V4.89618C44.6818 2.19209 46.9044 0 49.6462 0C52.3884 0 54.6111 2.19209 54.6111 4.89618Z" fill="#FF2400"/>
<path d="M14.5836 1.78051C14.5836 2.24812 14.3931 2.71572 14.0639 3.03945C13.7348 3.38117 13.2845 3.56102 12.7994 3.56102C12.3317 3.56102 11.8814 3.38117 11.5349 3.03945C11.2058 2.69774 11.0153 2.24812 11.0153 1.78051C11.0153 1.3129 11.2058 0.845293 11.5349 0.521569C11.8641 0.179853 12.3144 0 12.7994 0C13.2671 0 13.7175 0.179853 14.0639 0.521569C14.3931 0.845293 14.5836 1.3129 14.5836 1.78051Z" fill="#FF2400"/>
<path d="M14.5836 4.48999H11.0153V13.0055H14.5836V4.48999Z" fill="#FF2400"/>
<path d="M32.5804 8.2058V4.64478H26.6849V8.2058H32.5804Z" fill="#FF2400"/>
<path fill-rule="evenodd" clip-rule="evenodd" d="M25.5989 13.0055V4.90613C25.5989 2.19624 23.3684 0 20.6522 0C17.9001 0 15.6696 2.19624 15.6696 4.90613V13.0055H19.2379V9.63511V5.03009V5.0124C19.2379 5.00293 19.2381 4.99347 19.2382 4.984C19.2381 4.97418 19.2379 4.96431 19.2379 4.95444C19.2379 4.18488 19.8631 3.56102 20.6342 3.56102C21.4054 3.56102 22.0306 4.18488 22.0306 4.95444C22.0306 4.96431 22.0305 4.97418 22.0302 4.984C22.0305 4.99347 22.0306 5.00293 22.0306 5.0124V13.0055H25.5989Z" fill="#FF2400"/>
<path fill-rule="evenodd" clip-rule="evenodd" d="M43.5957 0.154785V8.09933C43.5957 10.8092 41.3652 13.0054 38.6491 13.0054C35.8969 13.0054 33.6664 10.8092 33.6664 8.09933V0.154785H37.2348V3.37031V7.97533V7.99302C37.2348 8.00248 37.2349 8.01195 37.2351 8.02142C37.2349 8.03124 37.2348 8.0411 37.2348 8.05097C37.2348 8.82053 37.8599 9.44439 38.6311 9.44439C39.4022 9.44439 40.0274 8.82053 40.0274 8.05097C40.0274 8.0411 40.0273 8.03124 40.0271 8.02142C40.0273 8.01195 40.0274 8.00248 40.0274 7.99302V0.154785H43.5957Z" fill="#FF2400"/>
<path fill-rule="evenodd" clip-rule="evenodd" d="M75.5556 7.6676V9.90893H72.8236V7.6676H71.2796V4.95444H72.8236V3.81896C72.8236 3.81175 72.8236 3.80454 72.8231 3.79733C72.8236 3.78984 72.8236 3.78234 72.8236 3.77483C72.8236 3.18848 72.3449 2.71316 71.7547 2.71316C71.164 2.71316 70.6854 3.18848 70.6854 3.77483C70.6854 3.78234 70.6854 3.78984 70.6858 3.79733C70.6854 3.80454 70.6854 3.81175 70.6854 3.81896V3.83245V7.34102V9.90893H67.9534V3.73799C67.9534 1.67332 69.6614 0 71.7685 0C73.848 0 75.5556 1.67332 75.5556 3.73799V4.95444V7.6676Z" fill="#FF2400"/>
<path fill-rule="evenodd" clip-rule="evenodd" d="M66.8676 0.154785V6.22931C66.8676 8.26171 65.1947 9.90886 63.1574 9.90886C61.0934 9.90886 59.4205 8.26171 59.4205 6.22931V0.154785H62.0969V2.68254V6.13628V6.14957C62.0969 6.15668 62.0969 6.1638 62.0969 6.17086C62.0969 6.17824 62.0969 6.18562 62.0969 6.19304C62.0969 6.7702 62.5658 7.23811 63.144 7.23811C63.7223 7.23811 64.1911 6.7702 64.1911 6.19304C64.1911 6.18562 64.1911 6.17824 64.1911 6.17086C64.1911 6.1638 64.1911 6.15668 64.1911 6.14957V0.154785H66.8676Z" fill="#FF2400"/>
<path d="M57.016 9.90894C57.7369 9.90894 58.3347 9.32206 58.3347 8.5929C58.3347 7.86375 57.7542 7.27686 57.016 7.27686C56.2947 7.27686 55.6969 7.86375 55.6969 8.5929C55.6969 9.32206 56.2947 9.90894 57.016 9.90894Z" fill="#FF2400"/>
</g>
<defs>
<clipPath id="clip0_82_2968">
<rect width="75.5556" height="24" fill="white"/>
</clipPath>
</defs>
</svg>
