<svg width="100" height="100" viewBox="0 0 100 100" fill="none" xmlns="http://www.w3.org/2000/svg">
<path d="M38.3362 16.1197C38.3362 10.4441 42.9371 5.843 48.6128 5.843C54.2884 5.843 58.8896 10.4441 58.8896 16.1197V27.9461C58.8896 28.9547 58.8196 29.9603 58.6637 30.9657C58.6068 31.3328 58.5499 31.6994 58.5146 32.0657C58.4024 33.2232 58.5393 34.7353 59.3262 35.751L57.4471 37.5635C66.8696 42.3775 73.3262 52.2216 73.3262 63.5835C73.3262 66.6616 72.8521 69.6282 71.9737 72.4138L68.8599 92.7466H43.5428V92.7378C27.9079 92.4013 15.364 82.2057 15.364 63.5835C15.364 52.6366 20.6056 43.8241 28.5354 38.855L28.5158 38.8391C29.0559 38.4638 29.6929 38.0819 30.376 37.6725L30.3809 37.6694C32.6299 36.3213 35.3784 34.6735 36.8287 31.9788C38.0862 29.6427 38.3303 25.8509 38.3303 24.0931L38.3362 24.0958V16.1197Z" fill="url(#paint0_linear_903_3752)"/>
<path d="M38.3362 16.1197C38.3362 10.4441 42.9371 5.843 48.6128 5.843C54.2884 5.843 58.8896 10.4441 58.8896 16.1197V27.9461C58.8896 28.9547 58.8196 29.9603 58.6637 30.9657C58.6068 31.3328 58.5499 31.6994 58.5146 32.0657C58.4024 33.2232 58.5393 34.7353 59.3262 35.751L57.4471 37.5635C66.8696 42.3775 73.3262 52.2216 73.3262 63.5835C73.3262 66.6616 72.8521 69.6282 71.9737 72.4138L68.8599 92.7466H43.5428V92.7378C27.9079 92.4013 15.364 82.2057 15.364 63.5835C15.364 52.6366 20.6056 43.8241 28.5354 38.855L28.5158 38.8391C29.0559 38.4638 29.6929 38.0819 30.376 37.6725L30.3809 37.6694C32.6299 36.3213 35.3784 34.6735 36.8287 31.9788C38.0862 29.6427 38.3303 25.8509 38.3303 24.0931L38.3362 24.0958V16.1197Z" fill="url(#paint1_radial_903_3752)"/>
<path d="M38.3362 16.1197C38.3362 10.4441 42.9371 5.843 48.6128 5.843C54.2884 5.843 58.8896 10.4441 58.8896 16.1197V27.9461C58.8896 28.9547 58.8196 29.9603 58.6637 30.9657C58.6068 31.3328 58.5499 31.6994 58.5146 32.0657C58.4024 33.2232 58.5393 34.7353 59.3262 35.751L57.4471 37.5635C66.8696 42.3775 73.3262 52.2216 73.3262 63.5835C73.3262 66.6616 72.8521 69.6282 71.9737 72.4138L68.8599 92.7466H43.5428V92.7378C27.9079 92.4013 15.364 82.2057 15.364 63.5835C15.364 52.6366 20.6056 43.8241 28.5354 38.855L28.5158 38.8391C29.0559 38.4638 29.6929 38.0819 30.376 37.6725L30.3809 37.6694C32.6299 36.3213 35.3784 34.6735 36.8287 31.9788C38.0862 29.6427 38.3303 25.8509 38.3303 24.0931L38.3362 24.0958V16.1197Z" fill="url(#paint2_radial_903_3752)"/>
<path d="M38.3362 16.1197C38.3362 10.4441 42.9371 5.843 48.6128 5.843C54.2884 5.843 58.8896 10.4441 58.8896 16.1197V27.9461C58.8896 28.9547 58.8196 29.9603 58.6637 30.9657C58.6068 31.3328 58.5499 31.6994 58.5146 32.0657C58.4024 33.2232 58.5393 34.7353 59.3262 35.751L57.4471 37.5635C66.8696 42.3775 73.3262 52.2216 73.3262 63.5835C73.3262 66.6616 72.8521 69.6282 71.9737 72.4138L68.8599 92.7466H43.5428V92.7378C27.9079 92.4013 15.364 82.2057 15.364 63.5835C15.364 52.6366 20.6056 43.8241 28.5354 38.855L28.5158 38.8391C29.0559 38.4638 29.6929 38.0819 30.376 37.6725L30.3809 37.6694C32.6299 36.3213 35.3784 34.6735 36.8287 31.9788C38.0862 29.6427 38.3303 25.8509 38.3303 24.0931L38.3362 24.0958V16.1197Z" fill="url(#paint3_radial_903_3752)"/>
<path d="M38.3362 16.1197C38.3362 10.4441 42.9371 5.843 48.6128 5.843C54.2884 5.843 58.8896 10.4441 58.8896 16.1197V27.9461C58.8896 28.9547 58.8196 29.9603 58.6637 30.9657C58.6068 31.3328 58.5499 31.6994 58.5146 32.0657C58.4024 33.2232 58.5393 34.7353 59.3262 35.751L57.4471 37.5635C66.8696 42.3775 73.3262 52.2216 73.3262 63.5835C73.3262 66.6616 72.8521 69.6282 71.9737 72.4138L68.8599 92.7466H43.5428V92.7378C27.9079 92.4013 15.364 82.2057 15.364 63.5835C15.364 52.6366 20.6056 43.8241 28.5354 38.855L28.5158 38.8391C29.0559 38.4638 29.6929 38.0819 30.376 37.6725L30.3809 37.6694C32.6299 36.3213 35.3784 34.6735 36.8287 31.9788C38.0862 29.6427 38.3303 25.8509 38.3303 24.0931L38.3362 24.0958V16.1197Z" fill="url(#paint4_linear_903_3752)"/>
<path d="M73.9961 45.965C73.9961 41.5609 70.4258 37.9906 66.0218 37.9906H57.189C52.7849 37.9906 49.2146 41.5609 49.2146 45.965C49.2146 48.4209 50.3249 50.6175 52.0708 52.0803C50.1405 53.5409 48.8927 55.8594 48.8927 58.4631C48.8927 60.9009 49.9868 63.0884 51.7105 64.5563C49.9868 66.0191 48.8927 68.2013 48.8927 70.6391V71.0325C48.8927 73.2175 49.7714 75.1972 51.1946 76.6375C49.7733 78.0441 48.8927 79.9959 48.8927 82.1538C48.8927 86.4394 52.3668 89.9138 56.6524 89.9138H65.4136C69.6996 89.9138 73.1736 86.4394 73.1736 82.1538C73.1736 80.7353 72.793 79.4056 72.1283 78.2616C74.8474 76.9913 76.7318 74.2319 76.7318 71.0325V70.6391C76.7318 68.1716 75.6108 65.9659 73.8508 64.5031C75.5389 63.0359 76.6064 60.8716 76.6064 58.4631C76.6064 55.2684 74.728 52.5031 72.0155 51.225C73.2486 49.8213 73.9961 47.9803 73.9961 45.965Z" fill="url(#paint5_linear_903_3752)"/>
<path d="M81.115 42.6269V42.6269C81.115 37.6044 77.0434 33.5328 72.0209 33.5328H61.9481C56.9256 33.5328 52.8541 37.6044 52.8541 42.6269V42.6269C52.8541 47.6494 56.9256 51.721 61.9481 51.721H72.0209C77.0434 51.721 81.115 47.6494 81.115 42.6269Z" fill="url(#paint6_linear_903_3752)"/>
<path d="M81.115 42.6269V42.6269C81.115 37.6044 77.0434 33.5328 72.0209 33.5328H61.9481C56.9256 33.5328 52.8541 37.6044 52.8541 42.6269V42.6269C52.8541 47.6494 56.9256 51.721 61.9481 51.721H72.0209C77.0434 51.721 81.115 47.6494 81.115 42.6269Z" fill="url(#paint7_radial_903_3752)"/>
<path d="M71.3274 92.7466C76.2148 92.7466 80.1768 88.7846 80.1768 83.8972C80.1768 79.0098 76.2148 75.0478 71.3274 75.0478H61.336C56.4486 75.0478 52.4866 79.0098 52.4866 83.8972C52.4866 88.7846 56.4486 92.7466 61.336 92.7466H71.3274Z" fill="url(#paint8_linear_903_3752)"/>
<path d="M71.3274 92.7466C76.2148 92.7466 80.1768 88.7846 80.1768 83.8972C80.1768 79.0098 76.2148 75.0478 71.3274 75.0478H61.336C56.4486 75.0478 52.4866 79.0098 52.4866 83.8972C52.4866 88.7846 56.4486 92.7466 61.336 92.7466H71.3274Z" fill="url(#paint9_radial_903_3752)"/>
<path d="M71.3274 92.7466C76.2148 92.7466 80.1768 88.7846 80.1768 83.8972C80.1768 79.0098 76.2148 75.0478 71.3274 75.0478H61.336C56.4486 75.0478 52.4866 79.0098 52.4866 83.8972C52.4866 88.7846 56.4486 92.7466 61.336 92.7466H71.3274Z" fill="url(#paint10_radial_903_3752)"/>
<path d="M71.3274 92.7466C76.2148 92.7466 80.1768 88.7846 80.1768 83.8972C80.1768 79.0098 76.2148 75.0478 71.3274 75.0478H61.336C56.4486 75.0478 52.4866 79.0098 52.4866 83.8972C52.4866 88.7846 56.4486 92.7466 61.336 92.7466H71.3274Z" fill="url(#paint11_linear_903_3752)"/>
<path d="M71.3274 92.7466C76.2148 92.7466 80.1768 88.7846 80.1768 83.8972C80.1768 79.0098 76.2148 75.0478 71.3274 75.0478H61.336C56.4486 75.0478 52.4866 79.0098 52.4866 83.8972C52.4866 88.7846 56.4486 92.7466 61.336 92.7466H71.3274Z" fill="url(#paint12_radial_903_3752)"/>
<path d="M84.2346 70.99V70.9899C84.2346 65.8435 80.0626 61.6716 74.9162 61.6716L61.8052 61.6716C56.6588 61.6716 52.4868 65.8435 52.4868 70.9899V70.99C52.4868 76.1364 56.6588 80.3083 61.8052 80.3083H74.9162C80.0626 80.3083 84.2346 76.1364 84.2346 70.99Z" fill="#C4C4C4" fill-opacity="0.66"/>
<path d="M84.2346 71.2143V70.7656C84.2346 65.7431 80.1631 61.6716 75.1406 61.6716H61.5809C56.5584 61.6716 52.4868 65.7431 52.4868 70.7656V71.2143C52.4868 76.2368 56.5584 80.3083 61.5809 80.3083H75.1406C80.1631 80.3083 84.2346 76.2368 84.2346 71.2143Z" fill="url(#paint13_linear_903_3752)"/>
<path d="M84.2346 71.2143V70.7656C84.2346 65.7431 80.1631 61.6716 75.1406 61.6716H61.5809C56.5584 61.6716 52.4868 65.7431 52.4868 70.7656V71.2143C52.4868 76.2368 56.5584 80.3083 61.5809 80.3083H75.1406C80.1631 80.3083 84.2346 76.2368 84.2346 71.2143Z" fill="url(#paint14_radial_903_3752)"/>
<path d="M84.2346 71.2143V70.7656C84.2346 65.7431 80.1631 61.6716 75.1406 61.6716H61.5809C56.5584 61.6716 52.4868 65.7431 52.4868 70.7656V71.2143C52.4868 76.2368 56.5584 80.3083 61.5809 80.3083H75.1406C80.1631 80.3083 84.2346 76.2368 84.2346 71.2143Z" fill="url(#paint15_radial_903_3752)"/>
<path d="M84.0918 56.9002V56.8594C84.0918 51.8369 80.0202 47.7653 74.9977 47.7653H61.5809C56.5583 47.7653 52.4868 51.8369 52.4868 56.8594V56.9002C52.4868 61.9227 56.5583 65.9942 61.5809 65.9942H74.9977C80.0202 65.9942 84.0918 61.9227 84.0918 56.9002Z" fill="url(#paint16_linear_903_3752)"/>
<path d="M84.0918 56.9002V56.8594C84.0918 51.8369 80.0202 47.7653 74.9977 47.7653H61.5809C56.5583 47.7653 52.4868 51.8369 52.4868 56.8594V56.9002C52.4868 61.9227 56.5583 65.9942 61.5809 65.9942H74.9977C80.0202 65.9942 84.0918 61.9227 84.0918 56.9002Z" fill="url(#paint17_radial_903_3752)"/>
<path d="M48.6127 5.843C42.9371 5.843 38.3362 10.4441 38.3362 16.1197V24.0958L38.3302 24.0931C38.3302 25.8509 38.0862 29.6427 36.8287 31.9788C35.3784 34.6738 32.6299 36.3213 30.3809 37.6694C29.696 38.08 29.0572 38.4632 28.5157 38.8391C31.6246 41.3294 37.9909 46.305 38.1471 46.1878C38.3034 46.0707 45.4712 42.2653 49.0359 40.3772L48.884 38.2194C54.4343 38.0753 58.8896 33.531 58.8896 27.9461V16.1197C58.8896 10.4441 54.2884 5.843 48.6127 5.843Z" fill="url(#paint18_radial_903_3752)"/>
<path d="M48.6127 5.843C42.9371 5.843 38.3362 10.4441 38.3362 16.1197V24.0958L38.3302 24.0931C38.3302 25.8509 38.0862 29.6427 36.8287 31.9788C35.3784 34.6738 32.6299 36.3213 30.3809 37.6694C29.696 38.08 29.0572 38.4632 28.5157 38.8391C31.6246 41.3294 37.9909 46.305 38.1471 46.1878C38.3034 46.0707 45.4712 42.2653 49.0359 40.3772L48.884 38.2194C54.4343 38.0753 58.8896 33.531 58.8896 27.9461V16.1197C58.8896 10.4441 54.2884 5.843 48.6127 5.843Z" fill="url(#paint19_radial_903_3752)"/>
<path d="M74.1688 36.0141H62.8558C60.6851 36.0141 58.9253 37.7738 58.9253 39.9446V39.9446C58.9253 42.1154 60.6851 43.8752 62.8558 43.8752H74.1688C76.3396 43.8752 78.0993 42.1154 78.0993 39.9446V39.9446C78.0993 37.7738 76.3396 36.0141 74.1688 36.0141Z" fill="url(#paint20_linear_903_3752)"/>
<path d="M77.1843 50H62.6327C60.4619 50 58.7021 51.7598 58.7021 53.9305V53.9306C58.7021 56.1013 60.4619 57.8611 62.6327 57.8611H77.1843C79.3551 57.8611 81.1148 56.1013 81.1148 53.9306V53.9305C81.1148 51.7598 79.3551 50 77.1843 50Z" fill="url(#paint21_linear_903_3752)"/>
<path d="M56.2985 14.2033C56.2985 11.7308 54.2941 9.72639 51.8215 9.72639C49.349 9.72639 47.3446 11.7308 47.3446 14.2033V30.2413C47.3446 32.7139 49.349 34.7183 51.8215 34.7183C54.2941 34.7183 56.2985 32.7139 56.2985 30.2413V14.2033Z" fill="url(#paint22_linear_903_3752)"/>
<defs>
<linearGradient id="paint0_linear_903_3752" x1="60.1687" y1="20.7484" x2="28.7233" y2="86.9594" gradientUnits="userSpaceOnUse">
<stop stop-color="#FFCA44"/>
<stop offset="1" stop-color="#F8A528"/>
</linearGradient>
<radialGradient id="paint1_radial_903_3752" cx="0" cy="0" r="1" gradientUnits="userSpaceOnUse" gradientTransform="translate(63.8746 15.1382) rotate(141.116) scale(15.6739 46.2606)">
<stop stop-color="#FFE34C"/>
<stop offset="1" stop-color="#FFE34C" stop-opacity="0"/>
</radialGradient>
<radialGradient id="paint2_radial_903_3752" cx="0" cy="0" r="1" gradientUnits="userSpaceOnUse" gradientTransform="translate(35.3406 49.2947) rotate(125.191) scale(23.2194 16.8205)">
<stop stop-color="#FFCA2E"/>
<stop offset="1" stop-color="#FFCA2E" stop-opacity="0"/>
</radialGradient>
<radialGradient id="paint3_radial_903_3752" cx="0" cy="0" r="1" gradientUnits="userSpaceOnUse" gradientTransform="translate(60.5293 56.66) rotate(146.743) scale(50.5959 88.5447)">
<stop offset="0.681103" stop-color="#E18E3F" stop-opacity="0"/>
<stop offset="1" stop-color="#E18E3F"/>
</radialGradient>
<linearGradient id="paint4_linear_903_3752" x1="44.3449" y1="79.881" x2="44.3449" y2="95.8207" gradientUnits="userSpaceOnUse">
<stop stop-color="#D8796F" stop-opacity="0"/>
<stop offset="1" stop-color="#D8796F"/>
</linearGradient>
<linearGradient id="paint5_linear_903_3752" x1="62.8121" y1="37.9906" x2="62.8121" y2="79.5156" gradientUnits="userSpaceOnUse">
<stop stop-color="#D1730B"/>
<stop offset="1" stop-color="#E27D47"/>
</linearGradient>
<linearGradient id="paint6_linear_903_3752" x1="81.115" y1="42.6269" x2="52.8541" y2="42.6269" gradientUnits="userSpaceOnUse">
<stop stop-color="#FFDB44"/>
<stop offset="1" stop-color="#F9A928"/>
</linearGradient>
<radialGradient id="paint7_radial_903_3752" cx="0" cy="0" r="1" gradientUnits="userSpaceOnUse" gradientTransform="translate(57.4509 50.6881) rotate(-142.633) scale(7.25344 4.85525)">
<stop stop-color="#D98320"/>
<stop offset="1" stop-color="#D98320" stop-opacity="0"/>
</radialGradient>
<linearGradient id="paint8_linear_903_3752" x1="77.7511" y1="83.8972" x2="52.4868" y2="83.8972" gradientUnits="userSpaceOnUse">
<stop stop-color="#FFDB44"/>
<stop offset="1" stop-color="#F9A928"/>
</linearGradient>
<radialGradient id="paint9_radial_903_3752" cx="0" cy="0" r="1" gradientUnits="userSpaceOnUse" gradientTransform="translate(58.0961 92.7466) scale(22.8546 8.69443)">
<stop stop-color="#F29545"/>
<stop offset="1" stop-color="#F29545" stop-opacity="0"/>
</radialGradient>
<radialGradient id="paint10_radial_903_3752" cx="0" cy="0" r="1" gradientUnits="userSpaceOnUse" gradientTransform="translate(56.9993 78.155) scale(23.1778 6.22175)">
<stop stop-color="#DA810B"/>
<stop offset="1" stop-color="#FFB610" stop-opacity="0"/>
</radialGradient>
<linearGradient id="paint11_linear_903_3752" x1="66.3318" y1="94.5709" x2="66.3318" y2="88.8456" gradientUnits="userSpaceOnUse">
<stop stop-color="#DC7C6A"/>
<stop offset="1" stop-color="#DC7C6A" stop-opacity="0"/>
</linearGradient>
<radialGradient id="paint12_radial_903_3752" cx="0" cy="0" r="1" gradientUnits="userSpaceOnUse" gradientTransform="translate(48.8218 83.8972) scale(17.5101 26.3209)">
<stop stop-color="#E38811"/>
<stop offset="1" stop-color="#E38811" stop-opacity="0"/>
</radialGradient>
<linearGradient id="paint13_linear_903_3752" x1="81.4534" y1="70.99" x2="52.4868" y2="70.99" gradientUnits="userSpaceOnUse">
<stop stop-color="#FFDB44"/>
<stop offset="1" stop-color="#F9A928"/>
</linearGradient>
<radialGradient id="paint14_radial_903_3752" cx="0" cy="0" r="1" gradientUnits="userSpaceOnUse" gradientTransform="translate(58.9184 80.3081) scale(26.2037 9.15522)">
<stop stop-color="#F29545"/>
<stop offset="1" stop-color="#F29545" stop-opacity="0"/>
</radialGradient>
<radialGradient id="paint15_radial_903_3752" cx="0" cy="0" r="1" gradientUnits="userSpaceOnUse" gradientTransform="translate(57.6606 64.9431) scale(26.5742 6.5515)">
<stop stop-color="#DA810B"/>
<stop offset="1" stop-color="#FFB610" stop-opacity="0"/>
</radialGradient>
<linearGradient id="paint16_linear_903_3752" x1="84.0918" y1="56.88" x2="52.4868" y2="56.88" gradientUnits="userSpaceOnUse">
<stop stop-color="#FFDB44"/>
<stop offset="1" stop-color="#F9A928"/>
</linearGradient>
<radialGradient id="paint17_radial_903_3752" cx="0" cy="0" r="1" gradientUnits="userSpaceOnUse" gradientTransform="translate(59.0227 63.7903) scale(17.1896 7.65147)">
<stop stop-color="#F29545"/>
<stop offset="1" stop-color="#F29545" stop-opacity="0"/>
</radialGradient>
<radialGradient id="paint18_radial_903_3752" cx="0" cy="0" r="1" gradientUnits="userSpaceOnUse" gradientTransform="translate(39.1781 15.1382) rotate(90) scale(19.8754 7.37947)">
<stop stop-color="#F3A52A"/>
<stop offset="1" stop-color="#F3A52A" stop-opacity="0"/>
</radialGradient>
<radialGradient id="paint19_radial_903_3752" cx="0" cy="0" r="1" gradientUnits="userSpaceOnUse" gradientTransform="translate(33.3727 28.2244) rotate(42.9975) scale(9.95522 15.0639)">
<stop stop-color="#CDA25E"/>
<stop offset="1" stop-color="#CDA25E" stop-opacity="0"/>
</radialGradient>
<linearGradient id="paint20_linear_903_3752" x1="77.1031" y1="38.1697" x2="56.435" y2="38.1697" gradientUnits="userSpaceOnUse">
<stop stop-color="#FFF166"/>
<stop offset="1" stop-color="#FFF166" stop-opacity="0"/>
</linearGradient>
<linearGradient id="paint21_linear_903_3752" x1="79.9506" y1="52.1553" x2="55.7915" y2="52.1553" gradientUnits="userSpaceOnUse">
<stop stop-color="#FFF166"/>
<stop offset="1" stop-color="#FFF166" stop-opacity="0"/>
</linearGradient>
<linearGradient id="paint22_linear_903_3752" x1="55.8334" y1="16.5789" x2="46.1818" y2="16.5789" gradientUnits="userSpaceOnUse">
<stop stop-color="#FFF166"/>
<stop offset="1" stop-color="#FFF166" stop-opacity="0"/>
</linearGradient>
</defs>
</svg>
