<svg width="101" height="101" viewBox="0 0 101 101" fill="none" xmlns="http://www.w3.org/2000/svg">
<g clip-path="url(#clip0_554_2647)">
<g filter="url(#filter0_i_554_2647)">
<path d="M30.5969 20.7644C29.1279 15.2822 32.3813 9.64712 37.8635 8.17816C43.3457 6.7092 48.981 9.96259 50.45 15.4448L53.5109 26.8683C53.7719 27.8425 53.9646 28.832 54.0742 29.8434C54.1143 30.2128 54.1542 30.5816 54.2149 30.9445C54.4061 32.0916 54.9297 33.5168 55.9526 34.2942L54.6067 36.5313C64.9541 38.7426 73.7385 46.5801 76.6792 57.5549C77.4759 60.5281 77.7858 63.5163 77.6582 66.4343L79.9131 86.8802L55.4586 93.4328L55.4563 93.4243C40.267 97.1459 25.5118 90.5442 20.692 72.5566C17.8588 61.9827 20.6409 52.1139 27.0144 45.2617L26.9913 45.2514C27.416 44.7491 27.9324 44.2154 28.4862 43.6431L28.4902 43.6388C30.3137 41.7546 32.542 39.4516 33.2454 36.4733C33.8554 33.8913 33.1098 30.1656 32.6549 28.4677L32.6613 28.4688L30.5969 20.7644Z" fill="url(#paint0_linear_554_2647)"/>
</g>
<path d="M30.5969 20.7644C29.1279 15.2822 32.3813 9.64712 37.8635 8.17816C43.3457 6.7092 48.981 9.96259 50.45 15.4448L53.5109 26.8683C53.7719 27.8425 53.9646 28.832 54.0742 29.8434C54.1143 30.2128 54.1542 30.5816 54.2149 30.9445C54.4061 32.0916 54.9297 33.5168 55.9526 34.2942L54.6067 36.5313C64.9541 38.7426 73.7385 46.5801 76.6792 57.5549C77.4759 60.5281 77.7858 63.5163 77.6582 66.4343L79.9131 86.8802L55.4586 93.4328L55.4563 93.4243C40.267 97.1459 25.5118 90.5442 20.692 72.5566C17.8588 61.9827 20.6409 52.1139 27.0144 45.2617L26.9913 45.2514C27.416 44.7491 27.9324 44.2154 28.4862 43.6431L28.4902 43.6388C30.3137 41.7546 32.542 39.4516 33.2454 36.4733C33.8554 33.8913 33.1098 30.1656 32.6549 28.4677L32.6613 28.4688L30.5969 20.7644Z" fill="url(#paint1_radial_554_2647)"/>
<path d="M30.5969 20.7644C29.1279 15.2822 32.3813 9.64712 37.8635 8.17816C43.3457 6.7092 48.981 9.96259 50.45 15.4448L53.5109 26.8683C53.7719 27.8425 53.9646 28.832 54.0742 29.8434C54.1143 30.2128 54.1542 30.5816 54.2149 30.9445C54.4061 32.0916 54.9297 33.5168 55.9526 34.2942L54.6067 36.5313C64.9541 38.7426 73.7385 46.5801 76.6792 57.5549C77.4759 60.5281 77.7858 63.5163 77.6582 66.4343L79.9131 86.8802L55.4586 93.4328L55.4563 93.4243C40.267 97.1459 25.5118 90.5442 20.692 72.5566C17.8588 61.9827 20.6409 52.1139 27.0144 45.2617L26.9913 45.2514C27.416 44.7491 27.9324 44.2154 28.4862 43.6431L28.4902 43.6388C30.3137 41.7546 32.542 39.4516 33.2454 36.4733C33.8554 33.8913 33.1098 30.1656 32.6549 28.4677L32.6613 28.4688L30.5969 20.7644Z" fill="url(#paint2_radial_554_2647)"/>
<path d="M30.5969 20.7644C29.1279 15.2822 32.3813 9.64712 37.8635 8.17816C43.3457 6.7092 48.981 9.96259 50.45 15.4448L53.5109 26.8683C53.7719 27.8425 53.9646 28.832 54.0742 29.8434C54.1143 30.2128 54.1542 30.5816 54.2149 30.9445C54.4061 32.0916 54.9297 33.5168 55.9526 34.2942L54.6067 36.5313C64.9541 38.7426 73.7385 46.5801 76.6792 57.5549C77.4759 60.5281 77.7858 63.5163 77.6582 66.4343L79.9131 86.8802L55.4586 93.4328L55.4563 93.4243C40.267 97.1459 25.5118 90.5442 20.692 72.5566C17.8588 61.9827 20.6409 52.1139 27.0144 45.2617L26.9913 45.2514C27.416 44.7491 27.9324 44.2154 28.4862 43.6431L28.4902 43.6388C30.3137 41.7546 32.542 39.4516 33.2454 36.4733C33.8554 33.8913 33.1098 30.1656 32.6549 28.4677L32.6613 28.4688L30.5969 20.7644Z" fill="url(#paint3_radial_554_2647)"/>
<path d="M30.5969 20.7644C29.1279 15.2822 32.3813 9.64712 37.8635 8.17816C43.3457 6.7092 48.981 9.96259 50.45 15.4448L53.5109 26.8683C53.7719 27.8425 53.9646 28.832 54.0742 29.8434C54.1143 30.2128 54.1542 30.5816 54.2149 30.9445C54.4061 32.0916 54.9297 33.5168 55.9526 34.2942L54.6067 36.5313C64.9541 38.7426 73.7385 46.5801 76.6792 57.5549C77.4759 60.5281 77.7858 63.5163 77.6582 66.4343L79.9131 86.8802L55.4586 93.4328L55.4563 93.4243C40.267 97.1459 25.5118 90.5442 20.692 72.5566C17.8588 61.9827 20.6409 52.1139 27.0144 45.2617L26.9913 45.2514C27.416 44.7491 27.9324 44.2154 28.4862 43.6431L28.4902 43.6388C30.3137 41.7546 32.542 39.4516 33.2454 36.4733C33.8554 33.8913 33.1098 30.1656 32.6549 28.4677L32.6613 28.4688L30.5969 20.7644Z" fill="url(#paint4_linear_554_2647)"/>
<g filter="url(#filter1_f_554_2647)">
<path d="M72.7664 40.3634C71.6265 36.1094 67.2538 33.5848 62.9998 34.7246L54.4679 37.0107C50.2139 38.1506 47.6893 42.5233 48.8292 46.7773C49.4648 49.1496 51.1058 50.9839 53.1709 51.945C51.6844 53.8555 51.0791 56.4178 51.7531 58.9329C52.384 61.2876 54.0069 63.1174 56.0519 64.0891C54.7655 65.9482 54.2735 68.3392 54.9044 70.6939L55.0062 71.074C55.5718 73.1845 56.9329 74.8693 58.6804 75.8922C57.6716 77.6187 57.3262 79.732 57.8846 81.8163C58.9938 85.9559 63.2488 88.4127 67.3883 87.3035L75.8511 85.0359C79.991 83.9266 82.4474 79.6715 81.3382 75.5319C80.9711 74.1618 80.2593 72.9759 79.3212 72.0429C81.6188 70.1121 82.7248 66.959 81.8967 63.8687L81.7949 63.4886C81.1562 61.1052 79.5026 59.2649 77.424 58.3074C78.6749 56.4533 79.1458 54.0864 78.5225 51.76C77.6956 48.6742 75.1655 46.4893 72.2146 45.9568C73.0424 44.2817 73.288 42.31 72.7664 40.3634Z" fill="url(#paint5_linear_554_2647)"/>
</g>
<g filter="url(#filter2_i_554_2647)">
<path d="M78.7786 35.2966L78.7786 35.2965C77.4786 30.4451 72.492 27.5661 67.6406 28.866L57.9111 31.4731C53.0597 32.773 50.1807 37.7596 51.4806 42.611L51.4806 42.611C52.7805 47.4624 57.7671 50.3414 62.6185 49.0415L72.3481 46.4345C77.1995 45.1345 80.0785 40.1479 78.7786 35.2966Z" fill="url(#paint6_linear_554_2647)"/>
<path d="M78.7786 35.2966L78.7786 35.2965C77.4786 30.4451 72.492 27.5661 67.6406 28.866L57.9111 31.4731C53.0597 32.773 50.1807 37.7596 51.4806 42.611L51.4806 42.611C52.7805 47.4624 57.7671 50.3414 62.6185 49.0415L72.3481 46.4345C77.1995 45.1345 80.0785 40.1479 78.7786 35.2966Z" fill="url(#paint7_radial_554_2647)"/>
</g>
<g filter="url(#filter3_i_554_2647)">
<path d="M82.2965 86.2415C87.0173 84.9766 89.8189 80.1241 88.5539 75.4033C87.289 70.6825 82.4366 67.8809 77.7157 69.1459L68.0647 71.7318C63.3439 72.9968 60.5423 77.8492 61.8073 82.5701C63.0722 87.2909 67.9247 90.0924 72.6455 88.8275L82.2965 86.2415Z" fill="url(#paint8_linear_554_2647)"/>
<path d="M82.2965 86.2415C87.0173 84.9766 89.8189 80.1241 88.5539 75.4033C87.289 70.6825 82.4366 67.8809 77.7157 69.1459L68.0647 71.7318C63.3439 72.9968 60.5423 77.8492 61.8073 82.5701C63.0722 87.2909 67.9247 90.0924 72.6455 88.8275L82.2965 86.2415Z" fill="url(#paint9_radial_554_2647)"/>
<path d="M82.2965 86.2415C87.0173 84.9766 89.8189 80.1241 88.5539 75.4033C87.289 70.6825 82.4366 67.8809 77.7157 69.1459L68.0647 71.7318C63.3439 72.9968 60.5423 77.8492 61.8073 82.5701C63.0722 87.2909 67.9247 90.0924 72.6455 88.8275L82.2965 86.2415Z" fill="url(#paint10_radial_554_2647)"/>
</g>
<path d="M82.2965 86.2415C87.0173 84.9766 89.8189 80.1241 88.5539 75.4033C87.289 70.6825 82.4366 67.8809 77.7157 69.1459L68.0647 71.7318C63.3439 72.9968 60.5423 77.8492 61.8073 82.5701C63.0722 87.2909 67.9247 90.0924 72.6455 88.8275L82.2965 86.2415Z" fill="url(#paint11_linear_554_2647)"/>
<path d="M82.2965 86.2415C87.0173 84.9766 89.8189 80.1241 88.5539 75.4033C87.289 70.6825 82.4366 67.8809 77.7157 69.1459L68.0647 71.7318C63.3439 72.9968 60.5423 77.8492 61.8073 82.5701C63.0722 87.2909 67.9247 90.0924 72.6455 88.8275L82.2965 86.2415Z" fill="url(#paint12_radial_554_2647)"/>
<g filter="url(#filter4_f_554_2647)">
<path d="M83.3902 73.0713L71.636 76.2209C70.4055 76.5506 69.6753 77.8154 70.005 79.0458C70.3347 80.2763 71.5994 81.0065 72.8299 80.6768L84.5842 77.5273C85.8147 77.1976 86.5449 75.9328 86.2152 74.7023C85.8855 73.4719 84.6207 72.7416 83.3902 73.0713Z" fill="url(#paint13_linear_554_2647)"/>
</g>
<path d="M89.1329 61.8857L89.1329 61.8856C87.8009 56.9146 82.6913 53.9646 77.7202 55.2965L65.0559 58.6899C60.0849 60.0219 57.1349 65.1315 58.4668 70.1026L58.4669 70.1026C59.7988 75.0736 64.9084 78.0237 69.8795 76.6917L82.5438 73.2983C87.5148 71.9663 90.4649 66.8567 89.1329 61.8857Z" fill="#C4C4C4" fill-opacity="0.66"/>
<g filter="url(#filter5_i_554_2647)">
<path d="M89.1909 62.1023L89.0748 61.669C87.7749 56.8176 82.7883 53.9386 77.9369 55.2385L64.8392 58.748C59.9879 60.0479 57.1088 65.0345 58.4088 69.8859L58.5249 70.3193C59.8248 75.1706 64.8114 78.0497 69.6628 76.7497L82.7604 73.2402C87.6118 71.9403 90.4908 66.9537 89.1909 62.1023Z" fill="url(#paint14_linear_554_2647)"/>
<path d="M89.1909 62.1023L89.0748 61.669C87.7749 56.8176 82.7883 53.9386 77.9369 55.2385L64.8392 58.748C59.9879 60.0479 57.1088 65.0345 58.4088 69.8859L58.5249 70.3193C59.8248 75.1706 64.8114 78.0497 69.6628 76.7497L82.7604 73.2402C87.6118 71.9403 90.4908 66.9537 89.1909 62.1023Z" fill="url(#paint15_radial_554_2647)"/>
<path d="M89.1909 62.1023L89.0748 61.669C87.7749 56.8176 82.7883 53.9386 77.9369 55.2385L64.8392 58.748C59.9879 60.0479 57.1088 65.0345 58.4088 69.8859L58.5249 70.3193C59.8248 75.1706 64.8114 78.0497 69.6628 76.7497L82.7604 73.2402C87.6118 71.9403 90.4908 66.9537 89.1909 62.1023Z" fill="url(#paint16_radial_554_2647)"/>
</g>
<g filter="url(#filter6_f_554_2647)">
<path d="M83.173 60.6092L67.3299 64.8543C66.0994 65.184 65.3692 66.4488 65.6989 67.6793C66.0286 68.9097 67.2934 69.64 68.5238 69.3102L84.367 65.0651C85.5975 64.7354 86.3277 63.4706 85.998 62.2401C85.6683 61.0097 84.4035 60.2794 83.173 60.6092Z" fill="url(#paint17_linear_554_2647)"/>
</g>
<g filter="url(#filter7_i_554_2647)">
<path d="M85.3482 48.313L85.3376 48.2736C84.0377 43.4222 79.0511 40.5432 74.1997 41.8431L61.24 45.3156C56.3886 46.6156 53.5096 51.6022 54.8095 56.4535L54.8201 56.493C56.12 61.3443 61.1066 64.2234 65.958 62.9234L78.9177 59.4509C83.7691 58.151 86.6481 53.1644 85.3482 48.313Z" fill="url(#paint18_linear_554_2647)"/>
<path d="M85.3482 48.313L85.3376 48.2736C84.0377 43.4222 79.0511 40.5432 74.1997 41.8431L61.24 45.3156C56.3886 46.6156 53.5096 51.6022 54.8095 56.4535L54.8201 56.493C56.12 61.3443 61.1066 64.2234 65.958 62.9234L78.9177 59.4509C83.7691 58.151 86.6481 53.1644 85.3482 48.313Z" fill="url(#paint19_radial_554_2647)"/>
</g>
<path d="M37.8635 8.17815C32.3812 9.64711 29.1279 15.2822 30.5969 20.7644L32.6613 28.4688L32.6548 28.4677C33.1098 30.1656 33.8554 33.8913 33.2454 36.4733C32.542 39.4519 30.3136 41.7546 28.4902 43.6388C27.9349 44.2127 27.417 44.7481 26.9913 45.2514C30.6388 46.8522 38.0759 50.0106 38.1965 49.857C38.3171 49.7033 44.2558 44.1725 47.2103 41.4261L46.5051 39.3811C51.829 37.8055 54.9563 32.2628 53.5109 26.8683L50.45 15.4448C48.981 9.96259 43.3457 6.70919 37.8635 8.17815Z" fill="url(#paint20_radial_554_2647)"/>
<path d="M37.8635 8.17815C32.3812 9.64711 29.1279 15.2822 30.5969 20.7644L32.6613 28.4688L32.6548 28.4677C33.1098 30.1656 33.8554 33.8913 33.2454 36.4733C32.542 39.4519 30.3136 41.7546 28.4902 43.6388C27.9349 44.2127 27.417 44.7481 26.9913 45.2514C30.6388 46.8522 38.0759 50.0106 38.1965 49.857C38.3171 49.7033 44.2558 44.1725 47.2103 41.4261L46.5051 39.3811C51.829 37.8055 54.9563 32.2628 53.5109 26.8683L50.45 15.4448C48.981 9.96259 43.3457 6.70919 37.8635 8.17815Z" fill="url(#paint21_radial_554_2647)"/>
<path d="M32.1833 12.0994C30.4452 14.5161 29.7663 17.6646 30.5968 20.7642L30.7522 21.3442L35.239 20.142C35.0946 19.5403 34.6548 18.0187 34.0505 16.7449L33.9259 16.4827C33.3159 15.1998 32.6164 13.7291 32.1833 12.0994Z" fill="#FFBF71"/>
<path d="M32.1833 12.0994C30.4452 14.5161 29.7663 17.6646 30.5968 20.7642L30.7522 21.3442L35.239 20.142C35.0946 19.5403 34.6548 18.0187 34.0505 16.7449L33.9259 16.4827C33.3159 15.1998 32.6164 13.7291 32.1833 12.0994Z" fill="url(#paint22_radial_554_2647)"/>
<g filter="url(#filter8_f_554_2647)">
<path d="M70.3576 30.7068L59.4301 33.6348C57.3333 34.1966 56.0889 36.3519 56.6508 38.4487L56.6508 38.4487C57.2126 40.5455 59.3679 41.7899 61.4647 41.228L72.3922 38.3C74.489 37.7382 75.7333 35.5829 75.1715 33.4861L75.1715 33.4861C74.6096 31.3893 72.4544 30.145 70.3576 30.7068Z" fill="url(#paint23_linear_554_2647)"/>
</g>
<g filter="url(#filter9_f_554_2647)">
<path d="M76.8901 43.4357L62.8344 47.2019C60.7375 47.7638 59.4932 49.919 60.055 52.0158L60.0551 52.0159C60.6169 54.1127 62.7721 55.357 64.869 54.7952L78.9247 51.0289C81.0215 50.4671 82.2659 48.3118 81.704 46.215L81.704 46.215C81.1422 44.1182 78.9869 42.8739 76.8901 43.4357Z" fill="url(#paint24_linear_554_2647)"/>
</g>
<g filter="url(#filter10_f_554_2647)">
<path d="M47.4512 14.2644C46.8112 11.8761 44.3564 10.4588 41.9681 11.0987C39.5798 11.7387 38.1625 14.1935 38.8024 16.5818L42.9533 32.0733C43.5933 34.4616 46.0481 35.879 48.4364 35.239C50.8247 34.5991 52.2421 32.1442 51.6021 29.7559L47.4512 14.2644Z" fill="url(#paint25_linear_554_2647)"/>
</g>
</g>
<defs>
<filter id="filter0_i_554_2647" x="19.5849" y="7.82544" width="60.8282" height="86.599" filterUnits="userSpaceOnUse" color-interpolation-filters="sRGB">
<feFlood flood-opacity="0" result="BackgroundImageFix"/>
<feBlend mode="normal" in="SourceGraphic" in2="BackgroundImageFix" result="shape"/>
<feColorMatrix in="SourceAlpha" type="matrix" values="0 0 0 0 0 0 0 0 0 0 0 0 0 0 0 0 0 0 127 0" result="hardAlpha"/>
<feOffset dx="0.5"/>
<feGaussianBlur stdDeviation="1"/>
<feComposite in2="hardAlpha" operator="arithmetic" k2="-1" k3="1"/>
<feColorMatrix type="matrix" values="0 0 0 0 0.847059 0 0 0 0 0.458824 0 0 0 0 0.360784 0 0 0 1 0"/>
<feBlend mode="normal" in2="shape" result="effect1_innerShadow_554_2647"/>
</filter>
<filter id="filter1_f_554_2647" x="46.5555" y="32.4509" width="37.6149" height="57.1189" filterUnits="userSpaceOnUse" color-interpolation-filters="sRGB">
<feFlood flood-opacity="0" result="BackgroundImageFix"/>
<feBlend mode="normal" in="SourceGraphic" in2="BackgroundImageFix" result="shape"/>
<feGaussianBlur stdDeviation="1" result="effect1_foregroundBlur_554_2647"/>
</filter>
<filter id="filter2_i_554_2647" x="51.1685" y="28.554" width="28.4222" height="20.7997" filterUnits="userSpaceOnUse" color-interpolation-filters="sRGB">
<feFlood flood-opacity="0" result="BackgroundImageFix"/>
<feBlend mode="normal" in="SourceGraphic" in2="BackgroundImageFix" result="shape"/>
<feColorMatrix in="SourceAlpha" type="matrix" values="0 0 0 0 0 0 0 0 0 0 0 0 0 0 0 0 0 0 127 0" result="hardAlpha"/>
<feOffset dx="0.5"/>
<feGaussianBlur stdDeviation="0.75"/>
<feComposite in2="hardAlpha" operator="arithmetic" k2="-1" k3="1"/>
<feColorMatrix type="matrix" values="0 0 0 0 0.878431 0 0 0 0 0.541176 0 0 0 0 0.0627451 0 0 0 1 0"/>
<feBlend mode="normal" in2="shape" result="effect1_innerShadow_554_2647"/>
</filter>
<filter id="filter3_i_554_2647" x="61.5035" y="68.3422" width="27.8541" height="20.7891" filterUnits="userSpaceOnUse" color-interpolation-filters="sRGB">
<feFlood flood-opacity="0" result="BackgroundImageFix"/>
<feBlend mode="normal" in="SourceGraphic" in2="BackgroundImageFix" result="shape"/>
<feColorMatrix in="SourceAlpha" type="matrix" values="0 0 0 0 0 0 0 0 0 0 0 0 0 0 0 0 0 0 127 0" result="hardAlpha"/>
<feOffset dx="0.5" dy="-0.5"/>
<feGaussianBlur stdDeviation="0.75"/>
<feComposite in2="hardAlpha" operator="arithmetic" k2="-1" k3="1"/>
<feColorMatrix type="matrix" values="0 0 0 0 0.941176 0 0 0 0 0.643137 0 0 0 0 0.215686 0 0 0 1 0"/>
<feBlend mode="normal" in2="shape" result="effect1_innerShadow_554_2647"/>
</filter>
<filter id="filter4_f_554_2647" x="68.6758" y="71.7422" width="18.8685" height="10.2638" filterUnits="userSpaceOnUse" color-interpolation-filters="sRGB">
<feFlood flood-opacity="0" result="BackgroundImageFix"/>
<feBlend mode="normal" in="SourceGraphic" in2="BackgroundImageFix" result="shape"/>
<feGaussianBlur stdDeviation="0.625" result="effect1_foregroundBlur_554_2647"/>
</filter>
<filter id="filter5_i_554_2647" x="58.0966" y="54.4264" width="31.9064" height="22.6355" filterUnits="userSpaceOnUse" color-interpolation-filters="sRGB">
<feFlood flood-opacity="0" result="BackgroundImageFix"/>
<feBlend mode="normal" in="SourceGraphic" in2="BackgroundImageFix" result="shape"/>
<feColorMatrix in="SourceAlpha" type="matrix" values="0 0 0 0 0 0 0 0 0 0 0 0 0 0 0 0 0 0 127 0" result="hardAlpha"/>
<feOffset dx="0.5" dy="-0.5"/>
<feGaussianBlur stdDeviation="0.75"/>
<feComposite in2="hardAlpha" operator="arithmetic" k2="-1" k3="1"/>
<feColorMatrix type="matrix" values="0 0 0 0 0.941176 0 0 0 0 0.643137 0 0 0 0 0.215686 0 0 0 1 0"/>
<feBlend mode="normal" in2="shape" result="effect1_innerShadow_554_2647"/>
</filter>
<filter id="filter6_f_554_2647" x="64.3697" y="59.28" width="22.9574" height="11.3594" filterUnits="userSpaceOnUse" color-interpolation-filters="sRGB">
<feFlood flood-opacity="0" result="BackgroundImageFix"/>
<feBlend mode="normal" in="SourceGraphic" in2="BackgroundImageFix" result="shape"/>
<feGaussianBlur stdDeviation="0.625" result="effect1_foregroundBlur_554_2647"/>
</filter>
<filter id="filter7_i_554_2647" x="54.4974" y="41.031" width="31.6629" height="22.2046" filterUnits="userSpaceOnUse" color-interpolation-filters="sRGB">
<feFlood flood-opacity="0" result="BackgroundImageFix"/>
<feBlend mode="normal" in="SourceGraphic" in2="BackgroundImageFix" result="shape"/>
<feColorMatrix in="SourceAlpha" type="matrix" values="0 0 0 0 0 0 0 0 0 0 0 0 0 0 0 0 0 0 127 0" result="hardAlpha"/>
<feOffset dx="0.5" dy="-0.5"/>
<feGaussianBlur stdDeviation="0.75"/>
<feComposite in2="hardAlpha" operator="arithmetic" k2="-1" k3="1"/>
<feColorMatrix type="matrix" values="0 0 0 0 0.941176 0 0 0 0 0.643137 0 0 0 0 0.215686 0 0 0 1 0"/>
<feBlend mode="normal" in2="shape" result="effect1_innerShadow_554_2647"/>
</filter>
<filter id="filter8_f_554_2647" x="55.2659" y="29.3219" width="21.2905" height="13.291" filterUnits="userSpaceOnUse" color-interpolation-filters="sRGB">
<feFlood flood-opacity="0" result="BackgroundImageFix"/>
<feBlend mode="normal" in="SourceGraphic" in2="BackgroundImageFix" result="shape"/>
<feGaussianBlur stdDeviation="0.625" result="effect1_foregroundBlur_554_2647"/>
</filter>
<filter id="filter9_f_554_2647" x="58.6701" y="42.0508" width="24.4188" height="14.1293" filterUnits="userSpaceOnUse" color-interpolation-filters="sRGB">
<feFlood flood-opacity="0" result="BackgroundImageFix"/>
<feBlend mode="normal" in="SourceGraphic" in2="BackgroundImageFix" result="shape"/>
<feGaussianBlur stdDeviation="0.625" result="effect1_foregroundBlur_554_2647"/>
</filter>
<filter id="filter10_f_554_2647" x="37.3987" y="9.69507" width="15.607" height="26.9476" filterUnits="userSpaceOnUse" color-interpolation-filters="sRGB">
<feFlood flood-opacity="0" result="BackgroundImageFix"/>
<feBlend mode="normal" in="SourceGraphic" in2="BackgroundImageFix" result="shape"/>
<feGaussianBlur stdDeviation="0.625" result="effect1_foregroundBlur_554_2647"/>
</filter>
<linearGradient id="paint0_linear_554_2647" x1="52.8835" y1="19.5848" x2="39.6462" y2="91.6784" gradientUnits="userSpaceOnUse">
<stop stop-color="#FFCA44"/>
<stop offset="1" stop-color="#F8A528"/>
</linearGradient>
<radialGradient id="paint1_radial_554_2647" cx="0" cy="0" r="1" gradientUnits="userSpaceOnUse" gradientTransform="translate(55.0111 13.2065) rotate(126.116) scale(15.6739 46.2606)">
<stop stop-color="#FFE34C"/>
<stop offset="1" stop-color="#FFE34C" stop-opacity="0"/>
</radialGradient>
<radialGradient id="paint2_radial_554_2647" cx="0" cy="0" r="1" gradientUnits="userSpaceOnUse" gradientTransform="translate(36.2897 53.5844) rotate(110.191) scale(23.2194 16.8205)">
<stop stop-color="#FFCA2E"/>
<stop offset="1" stop-color="#FFCA2E" stop-opacity="0"/>
</radialGradient>
<radialGradient id="paint3_radial_554_2647" cx="0" cy="0" r="1" gradientUnits="userSpaceOnUse" gradientTransform="translate(62.5264 54.1794) rotate(131.743) scale(50.5959 88.5447)">
<stop offset="0.681103" stop-color="#E18E3F" stop-opacity="0"/>
<stop offset="1" stop-color="#E18E3F"/>
</radialGradient>
<linearGradient id="paint4_linear_554_2647" x1="52.9035" y1="80.7979" x2="57.029" y2="96.1945" gradientUnits="userSpaceOnUse">
<stop stop-color="#D8796F" stop-opacity="0"/>
<stop offset="1" stop-color="#D8796F"/>
</linearGradient>
<linearGradient id="paint5_linear_554_2647" x1="59.8995" y1="35.5554" x2="70.6469" y2="75.6654" gradientUnits="userSpaceOnUse">
<stop stop-color="#D1730B"/>
<stop offset="1" stop-color="#E27D47"/>
</linearGradient>
<linearGradient id="paint6_linear_554_2647" x1="78.7786" y1="35.2965" x2="51.4806" y2="42.611" gradientUnits="userSpaceOnUse">
<stop stop-color="#FFDB44"/>
<stop offset="1" stop-color="#F9A928"/>
</linearGradient>
<radialGradient id="paint7_radial_554_2647" cx="0" cy="0" r="1" gradientUnits="userSpaceOnUse" gradientTransform="translate(58.0072 49.2078) rotate(-157.633) scale(7.25344 4.85525)">
<stop stop-color="#D98320"/>
<stop offset="1" stop-color="#D98320" stop-opacity="0"/>
</radialGradient>
<linearGradient id="paint8_linear_554_2647" x1="86.211" y1="76.0311" x2="61.8075" y2="82.57" gradientUnits="userSpaceOnUse">
<stop stop-color="#FFDB44"/>
<stop offset="1" stop-color="#F9A928"/>
</linearGradient>
<radialGradient id="paint9_radial_554_2647" cx="0" cy="0" r="1" gradientUnits="userSpaceOnUse" gradientTransform="translate(69.5161 89.666) rotate(-15) scale(22.8546 8.69443)">
<stop stop-color="#F29545"/>
<stop offset="1" stop-color="#F29545" stop-opacity="0"/>
</radialGradient>
<radialGradient id="paint10_radial_554_2647" cx="0" cy="0" r="1" gradientUnits="userSpaceOnUse" gradientTransform="translate(64.68 75.8556) rotate(-15) scale(23.1778 6.22175)">
<stop stop-color="#DA810B"/>
<stop offset="1" stop-color="#FFB610" stop-opacity="0"/>
</radialGradient>
<linearGradient id="paint11_linear_554_2647" x1="77.9433" y1="89.2967" x2="76.4614" y2="83.7665" gradientUnits="userSpaceOnUse">
<stop stop-color="#DC7C6A"/>
<stop offset="1" stop-color="#DC7C6A" stop-opacity="0"/>
</linearGradient>
<radialGradient id="paint12_radial_554_2647" cx="0" cy="0" r="1" gradientUnits="userSpaceOnUse" gradientTransform="translate(58.2673 83.5186) rotate(-15) scale(17.5101 26.3209)">
<stop stop-color="#E38811"/>
<stop offset="1" stop-color="#E38811" stop-opacity="0"/>
</radialGradient>
<linearGradient id="paint13_linear_554_2647" x1="85.1036" y1="73.9219" x2="67.6303" y2="78.6038" gradientUnits="userSpaceOnUse">
<stop stop-color="#FFF166"/>
<stop offset="1" stop-color="#FFF166" stop-opacity="0"/>
</linearGradient>
<linearGradient id="paint14_linear_554_2647" x1="86.4464" y1="62.6055" x2="58.4668" y2="70.1026" gradientUnits="userSpaceOnUse">
<stop stop-color="#FFDB44"/>
<stop offset="1" stop-color="#F9A928"/>
</linearGradient>
<radialGradient id="paint15_radial_554_2647" cx="0" cy="0" r="1" gradientUnits="userSpaceOnUse" gradientTransform="translate(67.0909 77.4386) rotate(-15) scale(26.2037 9.15522)">
<stop stop-color="#F29545"/>
<stop offset="1" stop-color="#F29545" stop-opacity="0"/>
</radialGradient>
<radialGradient id="paint16_radial_554_2647" cx="0" cy="0" r="1" gradientUnits="userSpaceOnUse" gradientTransform="translate(61.8992 62.9227) rotate(-15) scale(26.5742 6.5515)">
<stop stop-color="#DA810B"/>
<stop offset="1" stop-color="#FFB610" stop-opacity="0"/>
</radialGradient>
<linearGradient id="paint17_linear_554_2647" x1="84.6739" y1="61.5166" x2="62.7932" y2="67.3795" gradientUnits="userSpaceOnUse">
<stop stop-color="#FFF166"/>
<stop offset="1" stop-color="#FFF166" stop-opacity="0"/>
</linearGradient>
<linearGradient id="paint18_linear_554_2647" x1="85.343" y1="48.2935" x2="54.8149" y2="56.4735" gradientUnits="userSpaceOnUse">
<stop stop-color="#FFDB44"/>
<stop offset="1" stop-color="#F9A928"/>
</linearGradient>
<radialGradient id="paint19_radial_554_2647" cx="0" cy="0" r="1" gradientUnits="userSpaceOnUse" gradientTransform="translate(62.9166 61.4567) rotate(-15) scale(17.1896 7.65147)">
<stop stop-color="#F29545"/>
<stop offset="1" stop-color="#F29545" stop-opacity="0"/>
</radialGradient>
<radialGradient id="paint20_radial_554_2647" cx="0" cy="0" r="1" gradientUnits="userSpaceOnUse" gradientTransform="translate(31.156 19.5985) rotate(75) scale(19.8754 7.37947)">
<stop stop-color="#F3A52A"/>
<stop offset="1" stop-color="#F3A52A" stop-opacity="0"/>
</radialGradient>
<radialGradient id="paint21_radial_554_2647" cx="0" cy="0" r="1" gradientUnits="userSpaceOnUse" gradientTransform="translate(28.9355 33.7414) rotate(27.9975) scale(9.95522 15.0639)">
<stop stop-color="#CDA25E"/>
<stop offset="1" stop-color="#CDA25E" stop-opacity="0"/>
</radialGradient>
<radialGradient id="paint22_radial_554_2647" cx="0" cy="0" r="1" gradientUnits="userSpaceOnUse" gradientTransform="translate(35.2094 17.2388) rotate(176.634) scale(5.12331 11.1828)">
<stop offset="0.549892" stop-color="#CCB28B" stop-opacity="0"/>
<stop offset="1" stop-color="#CCB28B"/>
</radialGradient>
<linearGradient id="paint23_linear_554_2647" x1="73.7498" y1="32.0295" x2="53.7859" y2="37.3788" gradientUnits="userSpaceOnUse">
<stop stop-color="#FFF166"/>
<stop offset="1" stop-color="#FFF166" stop-opacity="0"/>
</linearGradient>
<linearGradient id="paint24_linear_554_2647" x1="80.12" y1="44.8016" x2="56.7841" y2="51.0544" gradientUnits="userSpaceOnUse">
<stop stop-color="#FFF166"/>
<stop offset="1" stop-color="#FFF166" stop-opacity="0"/>
</linearGradient>
<linearGradient id="paint25_linear_554_2647" x1="47.6167" y1="16.6794" x2="38.2941" y2="19.1774" gradientUnits="userSpaceOnUse">
<stop stop-color="#FFF166"/>
<stop offset="1" stop-color="#FFF166" stop-opacity="0"/>
</linearGradient>
<clipPath id="clip0_554_2647">
<rect width="100" height="100" fill="white" transform="translate(0.45639 0.547485)"/>
</clipPath>
</defs>
</svg>
