<svg width="202" height="40" viewBox="0 0 202 40" fill="none" xmlns="http://www.w3.org/2000/svg">
<g clip-path="url(#clip0_2448_755)">
<path d="M56.0613 15.2516C56.0613 15.2516 55.8595 11.4825 53.7512 8.85637C51.643 6.23029 49.3329 5.53275 47.9729 5.33347C47.8246 3.79768 47.5691 3.05323 47.5691 3.05323L42.2422 3.62181L42.5928 6.32411C42.5928 6.32411 37.2659 8.70397 36.0604 15.0523C34.8549 21.4006 35.2052 25.9142 37.6163 30.6739C40.0273 35.4336 43.4953 36.9693 47.0584 36.9693C47.3615 38.7045 47.4622 39.3493 47.4622 39.3493C47.4622 39.3493 51.6312 38.8043 53.1753 38.5813C52.9495 36.6472 52.6112 35.2696 52.6112 35.2696C52.6112 35.2696 56.9047 33.2589 57.0947 27.6083C54.4223 27.4968 50.877 27.4205 50.877 27.4205C50.877 27.4205 51.1026 29.3197 48.9174 30.2461C46.7319 31.1781 44.6949 31.0256 42.9667 27.4205C41.2328 23.8156 41.2743 18.7159 42.5928 15.1109C43.9111 11.5059 47.1891 11.4297 47.7949 11.7638C48.4005 12.0979 49.606 13.03 49.7902 15.7029C52.427 15.5271 56.0613 15.2516 56.0613 15.2516Z" fill="#16DE7E"/>
<path fill-rule="evenodd" clip-rule="evenodd" d="M76.4297 25.3402C70.0279 12.1043 70.9304 2.39722 70.9304 2.39722H78.1221C77.8608 7.56731 79.6305 13.9977 81.1388 18.0892C83.5856 15.1876 90.5574 2.39722 90.5574 2.39722L97.0364 5.85565C97.0364 5.85565 93.4971 12.0633 91.4243 15.5979C89.3519 19.1326 83.437 27.2747 83.437 27.2747C83.437 27.2747 81.1746 36.0144 80.4974 38.5408C79.3691 38.1365 73.6563 36.8704 73.6563 36.8704C73.6563 36.8704 74.167 34.7835 76.4297 25.3402ZM2.73767 40C3.49188 36.2779 0 4.3956 0 4.3956C0 4.3956 3.56313 3.77427 7.48257 3.62771C8.01112 8.16472 10.0065 28.6752 10.1787 32.3387C12.4995 32.2581 16.5663 31.7557 19.2882 31.3907C18.4286 30.5392 17.696 29.4931 17.1514 28.2704C14.9422 23.3114 18.5232 10.099 18.5232 10.099C18.5232 10.099 21.9497 10.8376 24.4558 11.2421C23.8025 13.6688 22.698 21.1074 22.4961 23.3877C22.2942 25.6679 22.8999 28.2469 24.5567 28.6925C26.2136 29.1381 27.9238 27.6491 28.8265 24.5248C29.7293 21.4005 30.5844 15.0053 30.7862 12.0803C30.9751 12.0973 31.2052 12.1173 31.469 12.1402C32.7472 12.251 34.8162 12.4305 36.8138 12.6782C36.5169 16.5938 35.1096 24.179 34.7058 25.8672C34.3079 27.5555 33.2983 31.1251 28.981 33.2061C26.9077 34.2053 24.6073 34.2504 22.5313 33.4781C22.7806 34.8312 23.0956 36.5768 23.3861 38.2883C19.4666 39.2555 11.4792 40 2.73767 40ZM54.9192 12.0688L59.2899 34.8653L64.6406 33.8629L63.4351 27.6552C63.4351 27.6552 63.3995 27.1747 63.8865 27.544C64.3734 27.9131 71.4224 33.6051 71.4224 33.6051L74.962 29.2907L66.143 22.3738C66.143 22.3738 68.4769 17.3913 69.2727 15.3104C70.0627 13.2294 71.0424 10.8847 71.0424 10.8847L65.6561 9.13792C65.6561 9.13792 62.4909 17.8778 61.8495 18.8099C61.0598 14.6832 60.2699 10.9609 60.2699 10.9609C60.2699 10.9609 56.9919 11.7347 54.9192 12.0688Z" fill="#D583FB"/>
<path fill-rule="evenodd" clip-rule="evenodd" d="M152.157 0L127.803 3.44085L128.637 9.48243L113.766 11.591L114.191 6.64149L96.0961 5.02365L95.5319 11.9992L105.443 12.8902L104.541 25.6806C104.541 25.6806 104.689 31.3723 101.411 32.7088C98.133 34.0453 95.235 31.4075 95.4192 28.0957C89.8071 27.4275 88.0374 27.316 88.0374 27.316C88.0374 27.316 87.2833 34.3091 93.3881 38.1016C99.493 41.8941 104.956 38.7699 104.956 38.7699L104.618 37.0232L106.198 38.1368C106.198 38.1368 109.44 36.1672 110.568 33.0429C111.605 30.1725 111.629 29.8749 111.741 28.4912C111.751 28.3691 111.762 28.2371 111.774 28.0957C111.887 26.7709 112.457 19.1145 112.726 15.4922L112.896 16.8231L113.953 16.6355L114.707 21.5418H114.179L114.897 26.6005H115.461L116.893 35.6571C116.893 35.6571 126.917 35.1939 134.714 31.3251C133.17 28.3123 132.416 26.7528 132.416 26.7528C132.416 26.7528 126.875 29.2091 121.679 29.8011C121.15 26.6416 121.038 25.7095 121.038 25.7095L129.779 24.4844L129.061 19.5371L120.284 20.7622L119.529 15.8559L132.113 13.9977L131.568 10.2761L137.566 9.42573L142.079 37.1872L148.956 36.0381L144.413 8.45853L153.273 7.30963L152.157 0Z" fill="#FD9501"/>
<g clip-path="url(#clip1_2448_755)">
<g clip-path="url(#clip2_2448_755)">
<path d="M181.273 40C192.319 40 201.273 31.0457 201.273 20C201.273 8.9543 192.319 0 181.273 0C170.228 0 161.273 8.9543 161.273 20C161.273 31.0457 170.228 40 181.273 40Z" fill="#F0F0F0"/>
<path d="M181.273 0C173.344 0 166.493 4.61445 163.258 11.3044H199.289C196.054 4.61445 189.202 0 181.273 0Z" fill="#FF9811"/>
<path d="M181.273 40C189.202 40 196.054 35.3855 199.289 28.6956H163.258C166.493 35.3855 173.344 40 181.273 40Z" fill="#6DA544"/>
<path d="M181.273 26.9565C185.115 26.9565 188.229 23.842 188.229 20C188.229 16.158 185.115 13.0435 181.273 13.0435C177.431 13.0435 174.316 16.158 174.316 20C174.316 23.842 177.431 26.9565 181.273 26.9565Z" fill="#0052B4"/>
<path d="M181.274 24.3478C183.675 24.3478 185.621 22.4012 185.621 20C185.621 17.5988 183.675 15.6522 181.274 15.6522C178.872 15.6522 176.926 17.5988 176.926 20C176.926 22.4012 178.872 24.3478 181.274 24.3478Z" fill="#F0F0F0"/>
<path d="M181.273 14.6348L182.615 17.6769L185.92 17.3174L183.956 20L185.92 22.6826L182.615 22.3231L181.273 25.3652L179.932 22.3231L176.627 22.6825L178.591 20L176.627 17.3174L179.932 17.6769L181.273 14.6348Z" fill="#0052B4"/>
</g>
</g>
<rect x="162.842" y="1.56863" width="36.8627" height="36.8627" rx="18.4314" stroke="white" stroke-width="3.13725"/>
</g>
<defs>
<clipPath id="clip0_2448_755">
<rect width="202" height="40" fill="white"/>
</clipPath>
<clipPath id="clip1_2448_755">
<rect x="161.273" width="40" height="40" rx="20" fill="white"/>
</clipPath>
<clipPath id="clip2_2448_755">
<rect width="40" height="40" fill="white" transform="translate(161.273)"/>
</clipPath>
</defs>
</svg>
