<svg width="112" height="65" viewBox="0 0 112 65" fill="none" xmlns="http://www.w3.org/2000/svg">
<path d="M72.4747 0.845703H35.3848C35.3953 2.26237 35.4603 3.66849 35.5799 5.06406C36.6415 17.4116 41.9619 28.8785 50.8275 37.744C51.4374 38.3539 52.0613 38.948 52.6959 39.5245C53.7768 40.5071 54.8912 41.4404 56.0389 42.321C57.1076 41.5019 58.1463 40.6371 59.1552 39.7284C59.2308 39.6616 59.3064 39.5931 59.382 39.5245C60.0165 38.948 60.6404 38.3539 61.2503 37.744C61.5808 37.4136 61.9059 37.0797 62.2258 36.7422C65.3896 33.4114 68.07 29.7362 70.2319 25.8043C70.9877 24.4298 71.682 23.022 72.3077 21.586H49.3405C49.7465 22.3312 50.1701 23.0659 50.6148 23.7865C51.0349 24.4703 51.4708 25.1435 51.9242 25.8043H65.314C63.5001 28.7554 61.3769 31.4991 58.9882 33.9897C58.0479 34.9757 57.0619 35.9214 56.0389 36.8248C54.3604 35.3431 52.7837 33.7454 51.3249 32.0475C49.6446 30.0948 48.1189 28.0084 46.7638 25.8043C46.2734 25.0081 45.8059 24.1961 45.3612 23.37C43.4893 19.8898 42.0287 16.1583 41.0479 12.237C40.4644 9.90814 40.0496 7.51247 39.8193 5.06406H72.2585C72.0001 7.81303 71.5097 10.4952 70.8067 13.093H45.7145C46.1697 14.529 46.6917 15.9369 47.2753 17.3114H73.9581C74.4239 15.9246 74.8317 14.5185 75.1797 13.093C75.8213 10.4724 76.2642 7.79018 76.498 5.06406C76.6175 3.66849 76.6825 2.26237 76.6931 0.845703L72.4747 0.845703Z" fill="white"/>
<path d="M12.9154 60.2351C12.9154 60.8584 13.0935 61.3481 13.4497 61.7043C13.817 62.0494 14.3625 62.222 15.086 62.222C15.8096 62.222 16.3494 62.0494 16.7056 61.7043C17.073 61.3481 17.2568 60.8584 17.2568 60.2351V52.5541H19.561V60.4187C19.561 61.6543 19.1435 62.6394 18.3086 63.3741C17.4738 64.1088 16.3996 64.4762 15.086 64.4762C13.7836 64.4762 12.7151 64.1088 11.8802 63.3741C11.0453 62.6394 10.6279 61.6543 10.6279 60.4187V52.5541H12.9154V60.2351Z" fill="white"/>
<path d="M25.3605 52.3203C26.2956 52.3203 27.1248 52.5486 27.8484 53.005C28.5719 53.4614 29.1342 54.107 29.5349 54.9419L27.5979 56.0606C27.1304 55.0588 26.3846 54.5579 25.3605 54.5579C24.893 54.5579 24.52 54.6691 24.2417 54.8917C23.9635 55.1032 23.8243 55.3815 23.8243 55.7266C23.8243 56.0939 23.9745 56.3945 24.275 56.6283C24.609 56.862 25.199 57.1071 26.045 57.3631L26.8466 57.6302C26.9914 57.6747 27.2418 57.7694 27.5979 57.9141C27.9319 58.0365 28.1767 58.1534 28.3326 58.2647C28.878 58.5987 29.2455 58.9437 29.4347 59.2999C29.7241 59.7675 29.8688 60.3185 29.8688 60.953C29.8688 62.0328 29.4736 62.89 28.6832 63.5245C27.8929 64.159 26.8743 64.4762 25.6276 64.4762C24.481 64.4762 23.5125 64.2202 22.7222 63.7081C21.9318 63.1961 21.3697 62.4891 21.0357 61.5875L23.0061 60.4354C23.4625 61.6265 24.3586 62.222 25.6944 62.222C26.3178 62.222 26.7854 62.1108 27.0971 61.8882C27.4088 61.6655 27.5646 61.3648 27.5646 60.9863C27.5646 60.5745 27.3808 60.2572 27.0135 60.0346C26.6461 59.8008 25.9893 59.5504 25.0432 59.2833C24.0191 58.9716 23.2121 58.6098 22.6221 58.198C21.8874 57.6525 21.52 56.8509 21.52 55.7934C21.52 54.7248 21.8929 53.8843 22.6387 53.2721C23.3846 52.6376 24.2919 52.3203 25.3605 52.3203Z" fill="white"/>
<path d="M52.163 52.3203C53.2427 52.3203 54.2335 52.5652 55.1352 53.055C56.0369 53.5448 56.7436 54.2072 57.2557 55.0421L55.2854 56.1775C55.0071 55.6989 54.5841 55.3092 54.0164 55.0086C53.4487 54.7081 52.8253 54.5579 52.1463 54.5579C51.022 54.5579 50.1037 54.9252 49.3912 55.6598C48.6788 56.3723 48.3226 57.2906 48.3226 58.4149C48.3226 59.517 48.6843 60.4298 49.4079 61.1534C50.1315 61.8658 51.1 62.222 52.3133 62.222C53.1927 62.222 53.9273 62.0272 54.5173 61.6376C55.1072 61.248 55.5081 60.7026 55.7196 60.0013H52.1796V57.9642H58.0406V58.8658C58.0406 60.5356 57.5063 61.8881 56.4376 62.9234C55.369 63.9586 53.9885 64.4762 52.2965 64.4762C50.4932 64.4762 48.996 63.8919 47.8049 62.7231C46.6249 61.5431 46.0349 60.107 46.0349 58.4149C46.0349 56.7118 46.6194 55.2703 47.7882 54.0903C48.9682 52.9104 50.4264 52.3203 52.163 52.3203Z" fill="white"/>
<path d="M105.322 52.3203C106.401 52.3203 107.392 52.5652 108.294 53.055C109.195 53.5448 109.902 54.2072 110.414 55.0421L108.444 56.1775C108.166 55.6989 107.743 55.3092 107.175 55.0086C106.607 54.7081 105.984 54.5579 105.305 54.5579C104.181 54.5579 103.262 54.9252 102.55 55.6598C101.837 56.3723 101.481 57.2906 101.481 58.4149C101.481 59.517 101.843 60.4298 102.566 61.1534C103.29 61.8658 104.259 62.222 105.472 62.222C106.351 62.222 107.086 62.0272 107.676 61.6376C108.266 61.248 108.667 60.7026 108.878 60.0013H105.338V57.9642H111.199V58.8658C111.199 60.5356 110.665 61.8881 109.596 62.9234C108.528 63.9586 107.147 64.4762 105.455 64.4762C103.652 64.4762 102.155 63.8919 100.963 62.7231C99.7835 61.5431 99.1935 60.107 99.1935 58.4149C99.1935 56.7118 99.778 55.2703 100.947 54.0903C102.127 52.9104 103.585 52.3203 105.322 52.3203Z" fill="white"/>
<path fill-rule="evenodd" clip-rule="evenodd" d="M5.23698 52.5541C6.35016 52.5541 7.29643 52.9326 8.07566 53.6895C8.84375 54.4465 9.22774 55.376 9.22774 56.4781C9.22773 57.5801 8.84374 58.5097 8.07566 59.2666C7.29644 60.0236 6.35015 60.4021 5.23698 60.4021H3.18325V64.2425H0.878906V52.5541H5.23698ZM3.18325 58.2479H5.23698C5.72678 58.2479 6.13319 58.081 6.45601 57.7471C6.77881 57.402 6.94022 56.979 6.94022 56.4781C6.94022 55.9661 6.77879 55.543 6.45601 55.2091C6.13319 54.8752 5.72678 54.7081 5.23698 54.7081H3.18325V58.2479Z" fill="white"/>
<path d="M33.5945 57.1961H37.936V52.5541H40.2235V64.2425H37.936V59.4002H33.5945V64.2425H31.2902V52.5541H33.5945V57.1961Z" fill="white"/>
<path fill-rule="evenodd" clip-rule="evenodd" d="M69.2741 64.2425H66.7695L66.0681 62.1386H61.4095L60.7083 64.2425H58.2203L62.3112 52.5541H65.1665L69.2741 64.2425ZM62.1443 59.9846H65.3501L63.7473 55.2091L62.1443 59.9846Z" fill="white"/>
<path d="M76.1363 58.0811L79.4759 52.5541H81.847V64.2425H79.5595V56.6617L76.2699 62.0885H76.0028L72.7134 56.6784V64.2425H70.4091V52.5541H72.7802L76.1363 58.0811Z" fill="white"/>
<path d="M86.3292 64.2425H84.0248V52.5541H86.3292V64.2425Z" fill="white"/>
<path d="M95.2554 59.6841V52.5541H97.5596V64.2425H95.8064L90.7971 57.0958V64.2425H88.4928V52.5541H90.2461L95.2554 59.6841Z" fill="white"/>
</svg>
