<svg width="138" height="40" viewBox="0 0 138 40" fill="none" xmlns="http://www.w3.org/2000/svg">
<g clip-path="url(#clip0_2419_4310)">
<path d="M88.2121 7.20176L89.4036 0.431556H71.8441L71.3636 3.15833C71.273 3.01264 71.1824 2.86971 71.0809 2.73502C69.7466 0.920836 67.4844 0 64.3601 0C61.2359 0 58.765 0.88785 56.8625 2.63606C54.9791 4.37053 53.7382 6.86916 53.1754 10.0632L51.8823 17.4134L52.1596 0.431556H42.2926L39.5802 8.51017C39.6982 6.25069 39.259 4.42826 38.2597 3.08411C36.9529 1.3249 34.6687 0.434305 31.473 0.434305H22.1689L21.7324 2.90544C21.6967 2.85322 21.6638 2.79824 21.6253 2.74601C20.3295 0.923584 18.0838 0 14.954 0C11.8243 0 9.37262 0.88785 7.50575 2.64156C5.66085 4.37603 4.43915 6.87191 3.87634 10.0632C3.54415 11.9516 3.56062 13.6284 3.92301 15.0467C4.27992 16.4431 4.8235 17.7103 5.54005 18.8125C6.23738 19.8873 7.02531 20.8906 7.88187 21.7949C8.70275 22.6636 9.46597 23.5404 10.1551 24.3953C10.8167 25.2199 11.3411 26.1078 11.7144 27.0286C12.0631 27.8944 12.1372 28.9197 11.9341 30.077C11.7227 31.2727 11.3548 32.0946 10.8332 32.5261C10.3033 32.9659 9.66638 33.1776 8.89218 33.1776C8.1619 33.1776 7.64851 32.9907 7.31907 32.6086C7.00884 32.2457 6.94569 31.4321 7.14336 30.3161L7.76108 26.8114H0.765811L0.257913 29.6976C-0.313129 32.9329 0.0657355 35.4783 1.37803 37.265C2.70955 39.0792 4.97176 40 8.09876 40C11.2258 40 13.6939 39.1121 15.5964 37.3639C15.6239 37.3364 15.6513 37.309 15.6788 37.2842L15.2752 39.5684H22.5972L25.0955 25.3793H27.322C30.3996 25.3793 32.8924 24.5547 34.7373 22.9302L29.1477 39.5684H36.0441L38.2734 32.7158H44.3435L44.1595 39.5684H51.5199L51.5446 38.0594C52.9118 39.3458 54.9269 40 57.557 40C60.6319 40 63.1522 39.1121 65.0547 37.3639C65.1728 37.2567 65.2853 37.1468 65.3979 37.0341L64.9504 39.5684H82.5099L83.7014 32.7982H73.4639L75.1687 23.1143H83.3034L84.4949 16.3441H76.3575L77.969 7.19901H88.2066L88.2121 7.20176ZM28.2966 7.20176H30.5231C31.2369 7.20176 31.7394 7.37218 32.0139 7.70478C32.1402 7.85871 32.4037 8.38648 32.1292 9.95327L31.1326 15.6185C30.924 16.8004 30.5726 17.6306 30.1168 18.0181C29.6501 18.4167 29.0461 18.6091 28.2719 18.6091H26.287L28.2966 7.19901V7.20176ZM11.223 9.92303C11.4344 8.71633 11.7968 7.87795 12.2965 7.42716C12.7906 6.98461 13.4001 6.76745 14.1661 6.76745C14.8799 6.76745 15.3658 6.95162 15.6541 7.33095C15.8243 7.5536 16.0659 8.15833 15.7996 9.68389L15.3823 12.0561H20.1236L18.3034 22.3969C18.0975 21.9764 17.8696 21.5723 17.6225 21.1875C16.9252 20.1154 16.1373 19.1122 15.278 18.2051C14.4626 17.3447 13.6994 16.4706 13.0048 15.6047C12.3404 14.7773 11.816 13.8922 11.4454 12.9714C11.0967 12.1083 11.0226 11.083 11.2258 9.92303H11.223ZM67.6766 24.1149H62.7733L61.7245 30.077C61.5132 31.2727 61.1453 32.0946 60.6236 32.5261C60.0938 32.9659 59.4569 33.1776 58.6827 33.1776C57.9524 33.1776 57.439 32.9907 57.1095 32.6086C56.7993 32.2457 56.7362 31.4321 56.9338 30.3161L60.5248 9.92303C60.7362 8.72457 61.1096 7.88895 61.6367 7.4409C62.1693 6.98736 62.8035 6.76745 63.5749 6.76745C64.2997 6.76745 64.8104 6.95987 65.1343 7.35294C65.3567 7.62232 65.5681 8.24629 65.3155 9.68389L64.4617 14.5355H69.365L67.6793 24.1121L67.6766 24.1149ZM44.8404 12.5179L44.4752 26.2177H40.3791L44.8404 12.5179Z" fill="white"/>
<path d="M130.483 37.6168H87.8555L95.3724 0H138L130.483 37.6168Z" fill="#FFD014"/>
<path d="M128.162 5.1072L123.039 16.2534L122.257 5.00825L116.956 4.91754L111.739 4.82683L106.962 13.9005L105.79 4.72787L100.203 4.63167L102.229 18.6778L94.2266 33.5239L99.484 33.6146L104.654 23.7823L105.958 33.7246L111.624 33.8208L109.431 18.9692L116.681 5.43156L118.614 24.1451L116.722 33.9087L122.144 33.9995L124.003 24.4063L133.488 5.19791L128.162 5.1072Z" fill="black"/>
</g>
<defs>
<clipPath id="clip0_2419_4310">
<rect width="138" height="40" fill="white"/>
</clipPath>
</defs>
</svg>
