<?xml version="1.0" encoding="UTF-8"?>
<svg id="Layer_1" data-name="Layer 1" xmlns="http://www.w3.org/2000/svg" viewBox="0 0 512 512">
  <defs>
    <style>
      .cls-1 {
        fill: #f0f0f0;
      }

      .cls-2 {
        fill: #85c2ff;
      }

      .cls-3 {
        fill: #ff9811;
      }

      .cls-4 {
        fill: #6da544;
      }
    </style>
  </defs>
  <circle class="cls-1" cx="256" cy="256" r="256"/>
  <path class="cls-3" d="M256,0C154.51,0,66.81,59.06,25.4,144.7h461.2C445.19,59.06,357.49,0,256,0Z"/>
  <path class="cls-4" d="M256,512c101.49,0,189.19-59.07,230.6-144.7H25.4c41.41,85.63,129.1,144.7,230.6,144.7Z"/>
  <circle class="cls-2" cx="256" cy="256" r="89.04"/>
  <circle class="cls-1" cx="256" cy="256" r="55.65"/>
  <polygon class="cls-2" points="256 187.33 273.17 226.26 315.47 221.66 290.34 256 315.47 290.34 273.17 285.74 256 324.67 238.83 285.74 196.53 290.34 221.66 256 196.53 221.66 238.83 226.26 256 187.33"/>
  <g>
    <path d="M25.32,260.3c2.91,2.82,5.98,5.02,9.22,6.61,3.24,1.59,6.69,2.38,10.34,2.38,2.25,0,4.36-.54,6.35-1.62s3.73-2.58,5.25-4.5,2.72-4.21,3.6-6.87c.88-2.67,1.32-5.56,1.32-8.69s-.4-5.87-1.19-8.36c-.79-2.49-1.98-4.6-3.57-6.35-1.59-1.74-3.58-3.08-5.98-4.03-2.4-.95-5.21-1.42-8.43-1.42-1.59,0-3.18.14-4.79.43-1.61.29-3.07.67-4.4,1.16l-3.57-14.48c3.53-1.37,7.8-2.05,12.82-2.05,6.7,0,12.44,1.02,17.22,3.07,4.78,2.05,8.69,4.76,11.73,8.13,3.04,3.37,5.28,7.22,6.71,11.53,1.43,4.32,2.15,8.73,2.15,13.22,0,5.16-.8,9.91-2.41,14.28-1.61,4.36-3.92,8.14-6.94,11.34-3.02,3.2-6.67,5.68-10.94,7.47-4.27,1.78-9.06,2.68-14.34,2.68s-10.8-.87-15.86-2.61c-5.07-1.74-9.61-4.44-13.62-8.1l9.32-13.22ZM108.07,295.79l8.46-5.42,5.88,14.48c-1.37.79-2.85,1.53-4.46,2.21-1.61.68-3.27,1.28-4.99,1.78-1.72.51-3.46.9-5.22,1.19-1.76.29-3.5.43-5.22.43-3.57,0-6.41-1.21-8.53-3.64-2.12-2.42-3.17-6.01-3.17-10.77v-81.96h17.25v81.7Z"/>
    <path d="M66.5,312.84c4.54,4.98,9.3,8.74,14.28,11.27,4.98,2.53,10.31,3.8,16,3.8,1.85,0,3.53-.18,5.02-.53,1.5-.35,2.78-.83,3.83-1.42,1.06-.59,1.87-1.3,2.45-2.11.57-.82.86-1.69.86-2.61,0-1.37-.48-2.56-1.45-3.57-.97-1.01-2.29-1.52-3.97-1.52s-3.36.36-4.92,1.09c-1.56.73-3.07,1.6-4.53,2.61l-6.28-11.17c2.12-1.19,4.54-2.08,7.27-2.68,2.73-.59,5.38-.89,7.93-.89,4.05,0,7.57.47,10.54,1.42,2.97.95,5.43,2.2,7.37,3.77,1.94,1.56,3.38,3.35,4.33,5.35.95,2,1.42,4.04,1.42,6.11,0,2.64-.77,5.07-2.31,7.27-1.54,2.2-3.66,4.12-6.35,5.75-2.69,1.63-5.85,2.9-9.48,3.8-3.64.9-7.55,1.36-11.73,1.36-3.52,0-7.04-.35-10.54-1.06-3.5-.71-6.94-1.75-10.31-3.14-3.37-1.39-6.62-3.12-9.75-5.19-3.13-2.07-6.04-4.47-8.73-7.2l9.06-10.51Z"/>
    <path d="M183.82,249.32c-3.48-3.97-7.07-7.56-10.77-10.77l-.2.07c.09.48.15,1.06.2,1.72.04.66.07,1.37.07,2.11,0,2.56-.58,4.9-1.75,7.04-1.17,2.14-2.73,3.99-4.69,5.55-1.96,1.56-4.22,2.78-6.77,3.64-2.56.86-5.24,1.29-8.06,1.29-3.48,0-6.75-.61-9.82-1.82-3.06-1.21-5.74-2.88-8.03-4.99-2.29-2.11-4.1-4.62-5.42-7.5-1.32-2.89-1.98-6.03-1.98-9.42,0-3.22.63-6.26,1.88-9.12,1.26-2.86,3.02-5.38,5.29-7.53,2.27-2.16,4.99-3.88,8.16-5.16,3.17-1.28,6.65-1.92,10.44-1.92s7.73.71,11.57,2.11c3.83,1.41,7.57,3.3,11.2,5.68s7.17,5.13,10.61,8.26c3.44,3.13,6.7,6.41,9.78,9.85l28.75-26.57,12.03,13.02-29.55,26.9c1.72,2.29,3.3,4.62,4.76,6.97,1.45,2.36,2.7,4.8,3.73,7.34,1.03,2.53,1.84,5.2,2.41,8,.57,2.8.86,5.78.86,8.96,0,4.23-.68,8.04-2.05,11.43-1.37,3.39-3.25,6.27-5.65,8.63-2.4,2.36-5.24,4.18-8.53,5.45-3.28,1.28-6.82,1.92-10.61,1.92-4.05,0-7.71-.74-10.97-2.21-3.26-1.48-6.05-3.46-8.36-5.95-2.31-2.49-4.09-5.4-5.32-8.72-1.23-3.33-1.85-6.84-1.85-10.54,0-5.29,1.53-10.66,4.59-16.13,3.06-5.46,7.74-11.32,14.05-17.58ZM143.9,236.96c0,2.69.74,4.82,2.21,6.38,1.48,1.56,3.43,2.35,5.85,2.35,1.32,0,2.53-.29,3.64-.86,1.1-.57,2.07-1.38,2.91-2.41.84-1.03,1.49-2.27,1.95-3.7.46-1.43.69-2.98.69-4.66,0-.84-.03-1.61-.1-2.31-.07-.7-.14-1.41-.23-2.11-1.37-.7-2.63-1.24-3.8-1.62-1.17-.37-2.24-.56-3.21-.56-1.59,0-3,.26-4.23.79-1.23.53-2.27,1.22-3.11,2.08-.84.86-1.48,1.87-1.92,3.04-.44,1.17-.66,2.37-.66,3.6ZM200.15,281.32c0-3.44-.5-6.61-1.49-9.52-.99-2.91-2.41-5.82-4.26-8.73l-.4.33c-3.44,3.17-6.04,6.37-7.8,9.58-1.76,3.22-2.64,6.68-2.64,10.38s.73,6.71,2.18,8.89,3.35,3.27,5.68,3.27c1.28,0,2.45-.34,3.5-1.03,1.06-.68,1.97-1.64,2.74-2.88.77-1.23,1.38-2.72,1.82-4.46.44-1.74.66-3.69.66-5.85Z"/>
    <path d="M245.89,258.12c1.76.22,3.69.36,5.78.43,2.09.07,4.28.1,6.58.1,3.04,0,5.81-.39,8.3-1.16,2.49-.77,4.6-1.87,6.35-3.31,1.74-1.43,3.08-3.15,4.03-5.16.95-2,1.42-4.26,1.42-6.78,0-2.29-.41-4.36-1.22-6.21-.82-1.85-1.96-3.4-3.44-4.66s-3.28-2.23-5.42-2.91c-2.14-.68-4.53-1.03-7.17-1.03-1.85,0-3.66.07-5.42.2-1.76.13-3.33.33-4.69.59l-2.38-14.61c1.28-.35,3-.63,5.16-.83,2.16-.2,4.54-.3,7.14-.3,5.99,0,11.25.85,15.76,2.54,4.52,1.7,8.28,3.97,11.3,6.81,3.02,2.84,5.29,6.14,6.81,9.88,1.52,3.75,2.28,7.69,2.28,11.83,0,3.48-.59,6.72-1.78,9.72s-2.84,5.71-4.96,8.13c-2.11,2.42-4.65,4.52-7.6,6.28-2.95,1.76-6.19,3.13-9.72,4.1l2.64,10.24c1.06,4.14,2.5,7.43,4.33,9.85,1.83,2.42,4.13,3.64,6.91,3.64s5.52-.47,8.36-1.42c2.84-.95,5.85-2.15,9.02-3.6l5.42,15.07c-3.7,1.67-7.39,2.91-11.07,3.7-3.68.79-7.3,1.19-10.87,1.19-3.04,0-6.02-.46-8.92-1.39-2.91-.93-5.61-2.35-8.1-4.26-2.49-1.92-4.68-4.32-6.58-7.2-1.9-2.89-3.37-6.31-4.43-10.28l-3.7-13.75c-2.11-.09-4.23-.21-6.35-.36-2.12-.15-3.97-.36-5.55-.63l1.78-14.47Z"/>
    <path d="M340.54,295.79l8.46-5.42,5.88,14.48c-1.37.79-2.85,1.53-4.46,2.21-1.61.68-3.27,1.28-4.99,1.78s-3.46.9-5.22,1.19c-1.76.29-3.5.43-5.22.43-3.57,0-6.41-1.21-8.53-3.64-2.11-2.42-3.17-6.01-3.17-10.77v-81.96h17.25v81.7Z"/>
    <path d="M428.78,258.45c-5.16-1.5-10.41-2.68-15.76-3.54-5.35-.86-10.41-1.29-15.17-1.29-2.64,0-4.99.39-7.04,1.16-2.05.77-3.78,1.86-5.19,3.27s-2.48,3.1-3.21,5.06c-.73,1.96-1.09,4.13-1.09,6.51,0,2.6.37,5.1,1.12,7.5s1.78,4.75,3.11,7.04,2.86,4.51,4.63,6.64,3.64,4.24,5.62,6.31l-12.62,11.77c-2.95-2.91-5.68-5.89-8.2-8.96-2.51-3.06-4.68-6.26-6.51-9.58-1.83-3.33-3.26-6.8-4.3-10.41-1.04-3.61-1.55-7.42-1.55-11.44,0-4.54.84-8.65,2.51-12.33,1.67-3.68,3.97-6.82,6.87-9.42,2.91-2.6,6.32-4.59,10.25-5.98,3.92-1.39,8.13-2.08,12.62-2.08,2.86,0,5.85.1,8.96.3,3.11.2,6.23.49,9.39.86,3.15.38,6.29.84,9.42,1.39,3.13.55,6.17,1.2,9.12,1.95l-2.97,15.27ZM433.74,295.79l8.46-5.42,5.88,14.48c-1.37.79-2.85,1.53-4.46,2.21-1.61.68-3.27,1.28-4.99,1.78s-3.46.9-5.22,1.19c-1.76.29-3.5.43-5.22.43-3.57,0-6.41-1.21-8.53-3.64-2.12-2.42-3.17-6.01-3.17-10.77v-81.96h17.25v81.7Z"/>
    <path d="M464.41,211.19c0-4.05-.35-7.59-1.06-10.61-.71-3.02-1.71-5.54-3.01-7.57-1.3-2.03-2.86-3.54-4.69-4.53-1.83-.99-3.85-1.49-6.05-1.49-1.98,0-3.87.3-5.65.89s-3.34,1.45-4.66,2.58-2.37,2.49-3.14,4.1c-.77,1.61-1.16,3.4-1.16,5.39v1.85h-17.25v-2.51c0-4.23.73-8.03,2.18-11.4,1.45-3.37,3.53-6.23,6.21-8.59,2.69-2.36,5.96-4.15,9.82-5.39,3.86-1.23,8.16-1.85,12.92-1.85,5.95,0,11,.94,15.17,2.81,4.16,1.87,7.54,4.54,10.15,8,2.6,3.46,4.49,7.65,5.68,12.56,1.19,4.91,1.78,10.39,1.78,16.43v83.94l8.46-5.42,5.88,14.48c-1.37.79-2.85,1.53-4.46,2.21-1.61.68-3.27,1.28-4.99,1.78s-3.46.9-5.22,1.19c-1.76.29-3.5.43-5.22.43-3.57,0-6.41-1.21-8.53-3.64-2.11-2.42-3.17-6.01-3.17-10.77v-84.87Z"/>
  </g>
</svg>