<?xml version="1.0" encoding="UTF-8"?>
<svg id="Layer_1" data-name="Layer 1" xmlns="http://www.w3.org/2000/svg" viewBox="0 0 512 512">
  <defs>
    <style>
      .cls-1 {
        fill: #f0f0f0;
      }

      .cls-2 {
        fill: #85c2ff;
      }

      .cls-3 {
        fill: #ff9811;
      }

      .cls-4 {
        fill: #6da544;
      }
    </style>
  </defs>
  <circle class="cls-1" cx="256" cy="256" r="256"/>
  <path class="cls-3" d="M256,0C154.51,0,66.81,59.06,25.4,144.7h461.2C445.19,59.06,357.49,0,256,0Z"/>
  <path class="cls-4" d="M256,512c101.49,0,189.19-59.07,230.6-144.7H25.4c41.41,85.63,129.1,144.7,230.6,144.7Z"/>
  <circle class="cls-2" cx="256" cy="256" r="89.04"/>
  <circle class="cls-1" cx="256" cy="256" r="55.65"/>
  <polygon class="cls-2" points="256 187.33 273.17 226.26 315.47 221.66 290.34 256 315.47 290.34 273.17 285.74 256 324.67 238.83 285.74 196.53 290.34 221.66 256 196.53 221.66 238.83 226.26 256 187.33"/>
  <g id="layer1">
    <g id="text2138">
      <g id="text10689">
        <path id="path2186" d="M61.48,323.15c-2.98,0-5.97-.8-8.95-2.39s-5.73-3.75-8.25-6.46c-2.36-2.71-4.24-5.67-5.66-8.86-1.41-3.35-2.12-6.62-2.12-9.82,0-3.83.94-6.54,2.83-8.14,2.04-1.76,4.63-2.87,7.78-3.35,3.3-.48,6.68-.72,10.13-.72,9.74,0,19.09.4,28.04,1.2,8.95.8,16.57,1.68,22.86,2.63,6.44.8,10.37,1.36,11.78,1.68v13.65c-1.89-.16-5.11-.24-9.66-.24-4.4-.16-9.66-.32-15.79-.48-5.97-.16-12.33-.24-19.09-.24h-4.48c-1.41,0-2.83.08-4.24.24l4.48-5.98v16.28c0,3.83-.86,6.62-2.59,8.38s-4.08,2.63-7.07,2.63h0ZM53.47,290.83v-68.23h17.67v68.23h-17.67ZM134.06,363.37l-15.32-11.49v-129.27h17.67v140.76h-2.36ZM25.43,229.07l-9.43-13.65v-2.63h140.44l9.43,14.12v2.15H25.43Z"/>
        <path id="path2188" d="M226.66,364.33c-7.38-6.22-14.45-12.85-21.21-19.87-6.6-7.18-12.49-14.28-17.67-21.31-5.03-7.18-9.03-13.96-12.02-20.35-2.98-6.54-4.48-12.21-4.48-17,0-4.47,1.18-7.74,3.53-9.82,2.36-2.07,5.66-3.11,9.9-3.11,3.46,0,7.23.72,11.31,2.15,4.24,1.28,8.48,3.27,12.72,5.98l-8.95,1.2c3.14-3.19,5.26-7.1,6.36-11.73,1.1-4.63,1.65-9.5,1.65-14.6s-.39-9.82-1.18-14.6c-.79-4.95-1.81-9.5-3.06-13.65h15.55c1.73,5.75,3.14,11.65,4.24,17.71,1.1,6.06,1.65,11.97,1.65,17.71,0,11.17-2.51,20.11-7.54,26.81-5.03,6.7-12.57,10.69-22.62,11.97-1.73.16-3.3.32-4.71.48-1.41.16-2.75.24-4.01.24l1.65-3.35c4.08,6.86,9.03,13.49,14.85,19.87,5.97,6.22,12.17,11.97,18.62,17.24,6.6,5.11,12.88,9.74,18.85,13.88l-13.43,14.12ZM156.44,229.07l-9.43-13.65v-2.63h97.56l9.43,14.12v2.15h-97.56Z"/>
        <path id="path2190" d="M280.15,363.37l-15.32-11.49v-129.27h17.67v140.76h-2.36ZM244.57,229.07l-9.43-13.88v-2.39h67.39l9.43,14.12v2.15h-67.39Z"/>
        <path id="path2192" d="M371.35,356.43c-7.54,0-14.77-1.44-21.68-4.31-6.76-2.87-12.8-6.86-18.14-11.97s-9.58-11.09-12.72-17.95c-3.14-6.86-4.71-14.28-4.71-22.26,0-8.62,2.04-16.04,6.13-22.26,4.24-6.38,9.74-11.33,16.49-14.84,6.91-3.51,14.3-5.27,22.15-5.27,2.2,0,4.24.16,6.13.48,2.04.16,4.32.4,6.83.72l-4.01,4.79v-40.94h17.67v46.44c-1.26-.16-2.43-.24-3.53-.24-1.1-.16-2.43-.24-4.01-.24-10.05,0-18.54,1.92-25.45,5.75s-12.17,8.78-15.79,14.84c-3.46,6.06-5.18,12.61-5.18,19.63,0,5.9,1.26,11.41,3.77,16.52,2.51,4.95,6.13,9.02,10.84,12.21,4.71,3.03,10.37,4.55,16.97,4.55,7.07,0,13.43-1.52,19.09-4.55,5.81-3.03,10.37-7.34,13.67-12.93,3.46-5.75,5.18-12.37,5.18-19.87s-2.2-14.28-6.6-21.31c-4.24-7.18-11-12.53-20.27-16.04l9.19-6.22c6.28,2.07,12.1,5.35,17.44,9.82,5.34,4.31,9.66,9.82,12.96,16.52,3.3,6.7,4.95,14.6,4.95,23.7s-1.96,17.56-5.89,24.42c-3.93,6.7-9.5,11.89-16.73,15.56-7.07,3.51-15.32,5.27-24.74,5.27h0ZM302.54,229.07l-9.43-13.88v-2.39h135.49l9.43,14.12v2.15h-135.49Z"/>
        <path id="path2194" d="M376.29,215.66c-4.87-3.35-9.43-8.22-13.67-14.6-4.24-6.38-6.36-13.49-6.36-21.31,0-9.26,3.22-16.92,9.66-22.98,6.28-6.06,14.69-9.1,25.21-9.1,9.11,0,17.52,2.15,25.21,6.46,7.7,4.15,14.69,9.58,20.97,16.28,6.28,6.7,11.78,13.96,16.49,21.78,4.71,7.66,8.64,15,11.78,22.02h-10.6c-3.93-8.62-8.88-16.6-14.85-23.94-5.81-7.34-12.25-13.25-19.32-17.72-7.23-4.47-14.77-6.7-22.62-6.7s-13.98,1.92-18.38,5.75c-4.56,3.83-6.83,9.26-6.83,16.28,0,4.47,1.18,9.34,3.53,14.6,2.2,5.11,5.26,9.5,9.19,13.17h-9.43ZM464.19,363.37l-15.32-11.49v-129.51h17.67v141h-2.36ZM428.61,229.07l-9.43-13.88v-2.39h67.16l9.66,14.12v2.15h-67.39Z"/>
      </g>
    </g>
  </g>
</svg>