<?xml version="1.0" encoding="UTF-8"?>
<svg id="Layer_1" data-name="Layer 1" xmlns="http://www.w3.org/2000/svg" viewBox="0 0 512 512">
  <defs>
    <style>
      .cls-1 {
        fill: #f0f0f0;
      }

      .cls-2 {
        fill: #85c2ff;
      }

      .cls-3 {
        fill: #ff9811;
      }

      .cls-4 {
        fill: #6da544;
      }
    </style>
  </defs>
  <circle class="cls-1" cx="256" cy="256" r="256"/>
  <path class="cls-3" d="M256,0C154.51,0,66.81,59.06,25.4,144.7h461.2C445.19,59.06,357.49,0,256,0Z"/>
  <path class="cls-4" d="M256,512c101.49,0,189.19-59.07,230.6-144.7H25.4c41.41,85.63,129.1,144.7,230.6,144.7Z"/>
  <circle class="cls-2" cx="256" cy="256" r="89.04"/>
  <circle class="cls-1" cx="256" cy="256" r="55.65"/>
  <polygon class="cls-2" points="256 187.33 273.17 226.26 315.47 221.66 290.34 256 315.47 290.34 273.17 285.74 256 324.67 238.83 285.74 196.53 290.34 221.66 256 196.53 221.66 238.83 226.26 256 187.33"/>
  <g>
    <path d="M95.78,234.66v18.06h6.48c6.4,0,11.99.8,16.76,2.4,4.77,1.6,8.75,3.92,11.93,6.97,3.17,3.05,5.55,6.77,7.12,11.16,1.57,4.39,2.36,9.41,2.36,15.05,0,7.11-1.25,13.44-3.73,18.98-2.49,5.54-6.19,10.21-11.09,14.02-4.9,3.81-11,6.71-18.29,8.69-7.29,1.98-15.74,2.97-25.34,2.97h-8.27c-2.87,0-5.72-.01-8.53-.04-2.82-.03-5.55-.05-8.19-.08-2.64-.03-5-.05-7.09-.08-2.08-.03-3.85-.04-5.3-.04h-2.78c-1.83,0-3.28.1-4.34.31-1.07.2-1.88.5-2.44.88-.56.38-.91.81-1.07,1.3-.15.48-.23,1.03-.23,1.64,0,.86.1,1.66.3,2.4.2.74.58,1.61,1.14,2.63h-17.3c-.66-1.68-1.14-3.29-1.45-4.84-.3-1.55-.46-3.14-.46-4.76,0-3.1.51-5.7,1.52-7.81,1.02-2.11,2.46-3.81,4.34-5.11,1.88-1.3,4.11-2.24,6.71-2.82,2.59-.59,5.46-.88,8.61-.88h3.85c2.06,0,4.52.01,7.39.04,2.87.03,5.97.05,9.3.08,3.33.03,6.52.05,9.56.08,3.05.03,5.75.04,8.12.04h4.99c1.88,0,3.48-.03,4.8-.08,1.32-.05,2.48-.11,3.47-.19s1.85-.15,2.59-.23c.74-.08,1.46-.17,2.17-.27,4.67-.71,8.69-1.78,12.04-3.2,3.35-1.42,6.1-3.23,8.23-5.41s3.71-4.72,4.72-7.62c1.02-2.9,1.52-6.2,1.52-9.91,0-4.42-.61-7.86-1.83-10.33-1.22-2.46-2.72-4.29-4.5-5.49-1.78-1.19-3.68-1.92-5.72-2.17-2.03-.25-3.86-.38-5.49-.38h-6.63v2.74c0,3.66-.41,7.1-1.22,10.33-.81,3.23-1.97,6.17-3.47,8.84-1.5,2.67-3.3,5.03-5.41,7.09-2.11,2.06-4.46,3.77-7.05,5.14-3.25,1.68-6.74,2.86-10.48,3.54s-7.4,1.03-11.01,1.03c-5.94,0-11.33-.75-16.15-2.25-4.83-1.5-8.95-3.63-12.38-6.4-3.43-2.77-6.07-6.1-7.93-9.98-1.86-3.89-2.78-8.19-2.78-12.92,0-5.79,1.41-10.71,4.23-14.75s7.1-6.9,12.84-8.57v-38.02h94.03v18.21h-33.22ZM76.35,270.63h-28.27c-1.27,0-2.49.11-3.66.34-1.17.23-2.2.64-3.09,1.22-.89.58-1.6,1.36-2.13,2.32-.53.96-.8,2.18-.8,3.66,0,1.63.37,3.21,1.11,4.76.74,1.55,1.85,2.95,3.35,4.19,1.5,1.25,3.42,2.25,5.75,3.01,2.34.76,5.11,1.14,8.31,1.14,6.05,0,10.79-1.51,14.25-4.53,3.45-3.02,5.18-7.66,5.18-13.91v-2.21ZM76.35,234.66h-22.1v18.06h22.1v-18.06Z"/>
    <path d="M294.06,271.32c0,2.79-.1,5.7-.31,8.72-.2,3.02-.5,6.08-.88,9.18-.38,3.1-.85,6.21-1.41,9.33-.56,3.12-1.17,6.16-1.83,9.11h-124.06v-91.21h19.43v73h27.51v-45.87c0-4.83.85-9.08,2.55-12.76,1.7-3.68,4.08-6.77,7.12-9.26,3.05-2.49,6.67-4.37,10.86-5.64,4.19-1.27,8.78-1.9,13.75-1.9,7.87,0,14.77,1.42,20.69,4.27,5.92,2.85,10.84,6.82,14.78,11.93,3.94,5.11,6.88,11.16,8.84,18.17,1.95,7.01,2.93,14.66,2.93,22.94ZM273.34,270.1c0-6.6-.62-12.31-1.87-17.11-1.25-4.8-3-8.75-5.26-11.85-2.26-3.1-4.99-5.38-8.19-6.86-3.2-1.47-6.78-2.21-10.74-2.21-2.29,0-4.38.27-6.29.8-1.91.53-3.53,1.42-4.88,2.67-1.35,1.24-2.39,2.87-3.12,4.88-.74,2.01-1.11,4.48-1.11,7.43v41.61h39.32c.76-3.35,1.31-6.58,1.64-9.68.33-3.1.5-6.33.5-9.68Z"/>
    <path d="M318.37,307.67v-86.87c0-5.33-.19-10.11-.57-14.33-.38-4.22-1.18-7.78-2.4-10.71-1.22-2.92-2.96-5.14-5.22-6.67-2.26-1.52-5.27-2.29-9.03-2.29-2.84,0-5.26.42-7.24,1.26s-3.61,1.97-4.88,3.39c-1.27,1.42-2.18,3.05-2.74,4.88-.56,1.83-.84,3.76-.84,5.79,0,2.9.51,5.79,1.52,8.69,1.02,2.9,2.36,5.41,4.04,7.54h-18.21c-2.13-3.51-3.68-6.93-4.65-10.29-.96-3.35-1.45-6.63-1.45-9.83,0-4.11.77-7.95,2.32-11.51,1.55-3.56,3.84-6.65,6.86-9.3,3.02-2.64,6.76-4.71,11.2-6.21,4.45-1.5,9.56-2.25,15.36-2.25,6.96,0,12.73,1.12,17.3,3.35,4.57,2.24,8.19,5.37,10.86,9.41s4.53,8.92,5.6,14.63c1.07,5.72,1.6,12.03,1.6,18.94v92.36h-19.43Z"/>
    <path d="M496,265.14c0,4.98-.41,10.3-1.22,15.96-.81,5.66-1.88,11.14-3.2,16.42h-55.86v11.05h15.55v16.84h-27.36c-1.22,0-2.27.13-3.16.38-.89.25-1.66.61-2.32,1.07s-1.27,1-1.83,1.64c-.56.63-1.09,1.31-1.6,2.02-.86,1.22-1.89,2.55-3.09,4-1.19,1.45-2.72,2.81-4.57,4.08-1.86,1.27-4.15,2.32-6.9,3.16s-6.1,1.26-10.06,1.26c-4.62,0-8.68-.57-12.15-1.71-3.48-1.14-6.39-2.69-8.72-4.65-2.34-1.96-4.09-4.23-5.26-6.82-1.17-2.59-1.75-5.36-1.75-8.31,0-2.49.47-4.85,1.41-7.09.94-2.24,2.29-4.2,4.04-5.91,1.75-1.7,3.84-3.05,6.25-4.04,2.41-.99,5.12-1.49,8.12-1.49,2.34,0,4.51.32,6.52.95,2.01.64,3.73,1.5,5.18,2.59,1.45,1.09,2.58,2.37,3.39,3.85.81,1.47,1.22,3.05,1.22,4.72s-.36,3.16-1.07,4.46c-.71,1.3-1.65,2.37-2.82,3.24l-11.28-4.65c.46-.46.68-.91.68-1.37,0-.56-.2-.98-.61-1.26-.41-.28-.89-.42-1.45-.42-.41,0-.84.09-1.3.27-.46.18-.9.44-1.33.8-.43.35-.79.82-1.07,1.41-.28.58-.42,1.28-.42,2.1,0,1.27.29,2.43.88,3.47.58,1.04,1.38,1.94,2.4,2.71,1.02.76,2.22,1.36,3.62,1.79,1.4.43,2.91.65,4.53.65,2.79,0,5.27-.72,7.43-2.17,2.16-1.45,4.36-3.82,6.59-7.13l2.97-4.19c1.37-1.93,2.81-3.43,4.31-4.5,1.5-1.07,3.39-1.65,5.68-1.75v-11.05h-48.85v-81.08h19.43v62.87h29.41v-38.94c0-4.16.84-7.89,2.52-11.16,1.68-3.28,4-6.05,6.97-8.31,2.97-2.26,6.5-3.97,10.59-5.14,4.09-1.17,8.55-1.75,13.37-1.75,7.72,0,14.47,1.27,20.23,3.81,5.77,2.54,10.58,6.08,14.44,10.63,3.86,4.55,6.74,9.94,8.65,16.19,1.9,6.25,2.86,13.08,2.86,20.5ZM475.27,263.39c0-5.44-.58-10.12-1.75-14.06-1.17-3.94-2.85-7.19-5.03-9.75-2.18-2.57-4.8-4.46-7.85-5.68-3.05-1.22-6.45-1.83-10.21-1.83-4.42,0-7.98,1.09-10.67,3.28-2.69,2.18-4.04,5.66-4.04,10.44v33.53h37.49c.71-2.74,1.23-5.4,1.56-7.96.33-2.56.5-5.22.5-7.96Z"/>
    <path d="M431.61,187.27c0-2.08.39-4.04,1.18-5.87.79-1.83,1.84-3.42,3.16-4.76s2.88-2.41,4.69-3.2c1.8-.79,3.75-1.18,5.83-1.18s4.04.39,5.87,1.18c1.83.79,3.42,1.86,4.76,3.2s2.41,2.93,3.2,4.76c.79,1.83,1.18,3.79,1.18,5.87s-.39,3.95-1.18,5.75c-.79,1.8-1.85,3.38-3.2,4.72-1.35,1.35-2.93,2.41-4.76,3.2-1.83.79-3.78,1.18-5.87,1.18s-4.03-.39-5.83-1.18c-1.8-.79-3.37-1.85-4.69-3.2-1.32-1.35-2.37-2.92-3.16-4.72-.79-1.8-1.18-3.72-1.18-5.75Z"/>
  </g>
</svg>