<svg width="72" height="25" viewBox="0 0 72 25" fill="none" xmlns="http://www.w3.org/2000/svg">
<g clip-path="url(#clip0_2342_2187)">
<mask id="mask0_2342_2187" style="mask-type:luminance" maskUnits="userSpaceOnUse" x="0" y="0" width="71" height="24">
<path d="M70.6647 0.11377H0.5V23.4721H70.6647V0.11377Z" fill="white"/>
</mask>
<g mask="url(#mask0_2342_2187)">
<path d="M28.0973 0.11377C28.8486 0.413734 29.6713 0.410299 30.4352 0.698814C31.3111 1.02969 32.1237 1.45216 32.8954 1.97538C33.2614 2.22383 33.284 2.41846 32.977 2.7562C32.3877 3.40536 31.8483 4.09918 31.2873 4.77467C29.821 3.64236 28.2514 2.91649 26.3431 3.39621C24.4256 3.8782 23.0397 5.97109 23.3265 7.97237C23.6505 10.2347 25.3889 11.8021 27.5013 11.7357C27.6044 11.7323 27.7064 11.7219 27.8095 11.714C29.7371 11.5662 30.0068 11.272 30.0215 9.38633C30.0272 8.74289 29.7451 7.91055 30.1314 7.50297C30.5564 7.05646 31.4041 7.361 32.0647 7.35528C33.3407 7.34382 33.1549 7.17438 33.1651 8.46582C33.1752 9.76415 33.1674 11.0637 33.1662 12.362C33.1662 12.6424 33.2093 12.9183 32.8977 13.1106C30.1858 14.7914 26.1425 15.6592 22.9457 13.6019C20.3801 11.9509 19.2899 9.51341 19.6899 6.50346C20.1001 3.4191 21.979 1.52886 24.871 0.57173C25.4705 0.373662 26.1255 0.414879 26.6978 0.11377H28.0962H28.0973Z" fill="white"/>
<path d="M7.59117 0.11377C8.32889 0.426328 9.14481 0.493877 9.85874 0.904897C10.8401 1.47048 11.5326 2.25359 11.9246 3.31491C12.0323 3.60801 12.022 3.79348 11.6561 3.86103C11.2515 3.9366 10.848 4.03392 10.4582 4.16558C9.66156 4.43578 9.04396 4.564 8.44901 3.6229C7.87787 2.72072 5.76327 2.59477 4.86462 3.18096C4.43627 3.46032 4.23569 3.84386 4.27081 4.36365C4.30255 4.84222 4.58132 5.10898 4.98021 5.29445C5.85393 5.69975 6.79904 5.83599 7.72828 6.02833C8.56801 6.20236 9.37145 6.47027 10.1296 6.8664C11.5699 7.61746 12.1229 8.86311 12.1411 10.4442C12.1603 12.023 11.5598 13.3202 10.1534 13.9442C7.46651 15.1372 4.74337 15.1097 2.15282 13.5629C1.29497 13.05 0.850745 12.2028 0.545908 11.264C0.433719 10.9171 0.52551 10.806 0.839413 10.727C1.58961 10.5392 2.3364 10.3389 3.07979 10.1248C3.42204 10.0263 3.56029 10.134 3.70873 10.4637C4.35808 11.9097 6.59053 12.5554 7.9606 11.7265C8.90457 11.1552 8.92837 9.85574 7.96286 9.31191C6.91462 8.72114 5.70321 8.66276 4.56092 8.37881C3.24978 8.05252 1.91937 7.7102 1.20431 6.39928C-0.246216 3.73968 1.24624 0.840782 4.32747 0.271766C4.48727 0.241998 4.70257 0.355344 4.79437 0.11377H7.59117Z" fill="white"/>
<path d="M70.6646 12.2804C69.5404 12.2712 68.4162 12.2621 67.2921 12.2529C66.5668 11.2797 66.0512 10.1818 65.4461 9.13762C63.7473 6.20095 62.0611 3.25626 60.3691 0.315007C63.4391 0.300123 66.5101 0.28524 69.58 0.271501C69.9416 0.270356 70.303 0.269211 70.6646 0.268066V12.2792V12.2804Z" fill="#2F9137"/>
<path d="M47.7235 5.76534C46.7603 7.89714 45.7858 10.0232 44.8406 12.163C44.5981 12.7126 44.3148 12.9885 43.644 12.961C42.0586 12.897 42.0722 12.9347 41.4353 11.4818C40.616 9.61334 39.7683 7.7586 38.9297 5.89814C38.8991 5.83059 38.8379 5.77678 38.719 5.62222C38.6996 5.91417 38.6747 6.12369 38.6747 6.3332C38.6725 8.9058 38.6623 11.4783 38.6827 14.051C38.6861 14.5044 38.6124 14.7059 38.1002 14.667C37.4316 14.6166 36.7528 14.62 36.083 14.6658C35.5447 14.7024 35.3884 14.5376 35.3929 13.9834C35.419 10.4491 35.4066 6.91596 35.4066 3.38164C35.4066 2.57564 35.4439 1.76847 35.3941 0.965902C35.36 0.419784 35.5754 0.299569 36.0604 0.316742C36.8876 0.345366 37.7194 0.367118 38.5433 0.309873C39.0986 0.272091 39.3683 0.488478 39.5892 0.967047C40.7157 3.40683 41.867 5.83402 43.0104 8.2658C43.083 8.41921 43.1612 8.56919 43.2983 8.84511C43.9375 7.53535 44.5256 6.33778 45.1058 5.13678C45.8254 3.6484 46.5484 2.16232 47.2476 0.664792C47.3824 0.376278 47.5513 0.313308 47.8403 0.319032C48.7718 0.336206 49.7033 0.331627 50.6348 0.321322C50.9373 0.317888 51.1549 0.363684 51.3215 0.679677C51.7328 1.45477 52.1941 2.20239 52.6406 2.95918C52.8332 3.28547 52.9239 3.48697 52.3732 3.50186C51.0994 3.53391 51.1005 3.56025 51.1005 4.87345C51.1005 7.91431 51.0859 10.954 51.1142 13.9938C51.1198 14.5467 50.9702 14.7059 50.4308 14.667C49.6364 14.6086 48.6177 14.9176 48.1009 14.5272C47.608 14.1552 47.9615 13.0732 47.9536 12.305C47.931 10.1308 47.9457 7.95553 47.9457 5.78022C47.872 5.77563 47.7973 5.76991 47.7235 5.76534Z" fill="white"/>
<path d="M60.3699 0.316087C62.0607 3.25734 63.7469 6.20203 65.4468 9.1387C66.0507 10.1828 66.5675 11.2808 67.2928 12.254C67.4752 13.1184 68.1631 13.7286 68.4758 14.6549C67.3539 14.6549 66.2661 14.6503 65.1771 14.6572C64.8393 14.6594 64.7714 14.3778 64.641 14.1728C64.2319 13.5306 63.9803 12.7886 63.4285 12.2345C62.4641 10.5275 61.4997 8.82157 60.5387 7.11451C60.3914 6.85233 60.2588 6.73212 60.0684 7.08589C59.7035 7.76711 59.3239 8.4403 58.9511 9.11694C57.9935 10.3317 57.2898 11.7125 56.6076 13.0806C56.0058 14.2861 55.2953 14.9285 53.9015 14.672C53.3552 14.5713 52.775 14.656 52.0645 14.656C52.7263 13.4904 53.3234 12.4223 53.9355 11.3621C54.9168 9.66421 55.9095 7.97204 56.8909 6.27415C56.9656 6.14478 56.9951 5.98793 57.0461 5.84481C57.1775 5.62729 57.3204 5.41548 57.4394 5.19108C58.3119 3.54471 59.3693 2.00252 60.1671 0.314941C60.235 0.314941 60.3031 0.314941 60.371 0.314941L60.3699 0.316087Z" fill="white"/>
<path d="M16.1282 3.52533C16.4795 4.50077 17.1164 5.31938 17.6082 6.21698C17.7646 6.50321 17.8428 6.76883 17.8417 7.09055C17.8327 9.40439 17.827 11.7171 17.8462 14.0309C17.8496 14.4751 17.7884 14.6939 17.2683 14.6675C16.3901 14.624 15.5073 14.6274 14.629 14.6675C14.1519 14.6893 14.0952 14.4878 14.0964 14.0825C14.11 10.729 14.1157 7.37563 14.0918 4.02336C14.0885 3.51273 14.2675 3.41084 14.7197 3.43373C15.0993 3.4532 15.4936 3.52304 15.8699 3.37305C15.8982 3.52418 15.9934 3.55738 16.1271 3.52418L16.1282 3.52533Z" fill="white"/>
<path d="M60.1643 0.314941C59.3664 2.00367 58.3092 3.54471 57.4365 5.19108C57.3176 5.41548 57.1748 5.62729 57.0433 5.84481C56.1198 4.19387 55.1939 2.54521 54.2794 0.889682C54.1876 0.723672 54.0301 0.563385 54.0891 0.314941H60.1643Z" fill="#2F9137"/>
<path d="M58.9504 9.11676C59.3232 8.44012 59.7029 7.76691 60.0677 7.0857C60.2581 6.73192 60.3907 6.85214 60.5381 7.11432C61.5002 8.82252 62.4645 10.5284 63.4278 12.2344C62.6538 12.2481 61.8787 12.2584 61.1047 12.2801C60.8814 12.2858 60.7012 12.2389 60.5856 12.0329C60.0405 11.0608 59.4955 10.0899 58.9492 9.1179L58.9504 9.11676Z" fill="#2F9137"/>
<path d="M16.1287 3.52583C15.9938 3.55902 15.8986 3.52583 15.8714 3.3747C15.3026 2.36718 14.7325 1.36196 14.1172 0.274303C15.264 0.274303 16.3123 0.286898 17.3594 0.267434C17.7174 0.260564 17.8772 0.354447 17.8488 0.740279C17.8195 1.12611 17.8433 1.51652 17.8433 1.90579C17.8433 3.02703 17.2721 3.56742 16.1298 3.52697L16.1287 3.52583Z" fill="#2F9137"/>
<path d="M69.0597 16.2271H2.10425C1.7619 16.2271 1.48438 16.5074 1.48438 16.8533V22.8457C1.48438 23.1916 1.7619 23.472 2.10425 23.472H69.0597C69.402 23.472 69.6796 23.1916 69.6796 22.8457V16.8533C69.6796 16.5074 69.402 16.2271 69.0597 16.2271Z" fill="#2F9137"/>
<path d="M21.0371 17.4808H24.0402C24.5411 17.4808 24.9253 17.5942 25.1927 17.8196C25.4601 18.0463 25.595 18.3257 25.595 18.6601C25.595 18.9406 25.4997 19.1798 25.3083 19.3802C25.1813 19.5142 24.9943 19.6194 24.7484 19.6973C25.1212 19.7798 25.3955 19.9194 25.5723 20.1186C25.7479 20.3178 25.8364 20.5686 25.8364 20.8697C25.8364 21.1158 25.774 21.3356 25.6483 21.5326C25.5235 21.7284 25.3513 21.884 25.1349 21.9974C25 22.0684 24.7972 22.1199 24.5252 22.152C24.1637 22.1955 23.9246 22.2161 23.8068 22.2161H21.0371V17.4785V17.4808ZM22.6554 19.339H23.3535C23.6039 19.339 23.7773 19.3 23.8759 19.221C23.9733 19.142 24.0232 19.0287 24.0232 18.8799C24.0232 18.7424 23.9744 18.6337 23.8759 18.557C23.7773 18.4791 23.6073 18.4403 23.3636 18.4403H22.6554V19.339ZM22.6554 21.2006H23.4736C23.7501 21.2006 23.9451 21.156 24.0583 21.0666C24.1716 20.9773 24.2283 20.8571 24.2283 20.706C24.2283 20.5663 24.1716 20.453 24.0606 20.3682C23.9484 20.2835 23.7524 20.24 23.4713 20.24H22.6566V21.1994L22.6554 21.2006Z" fill="white"/>
<path d="M26.6948 22.2181V17.4805H29.3681C29.8645 17.4805 30.2429 17.5194 30.5047 17.5973C30.7665 17.6751 30.9784 17.8182 31.1382 18.0289C31.2991 18.2384 31.3784 18.4949 31.3784 18.796C31.3784 19.0593 31.3172 19.286 31.1937 19.4761C31.0701 19.6661 30.9014 19.8218 30.6872 19.9397C30.55 20.0153 30.3619 20.0772 30.124 20.1276C30.3155 20.1859 30.4538 20.2443 30.5409 20.3026C30.5999 20.3416 30.6849 20.4241 30.7971 20.5523C30.9092 20.6793 30.9841 20.7779 31.0214 20.8465L31.7988 22.2193H29.9857L29.1278 20.771C29.019 20.5832 28.9227 20.4618 28.8377 20.4057C28.7221 20.3324 28.5907 20.2958 28.4445 20.2958H28.3029V22.2193H26.6914L26.6948 22.2181ZM28.3063 19.4005H28.9827C29.0565 19.4005 29.1981 19.3788 29.4078 19.3364C29.5143 19.3169 29.6003 19.2677 29.6684 19.1875C29.7352 19.1074 29.7692 19.0158 29.7692 18.9127C29.7692 18.7593 29.716 18.6426 29.6094 18.5601C29.5029 18.4789 29.3034 18.4376 29.0111 18.4376H28.3063V19.4005Z" fill="white"/>
<path d="M35.5082 21.4361H33.6871L33.4345 22.2181H31.7969L33.7483 17.4805H35.498L37.4483 22.2181H35.7688L35.5094 21.4361H35.5082ZM35.1761 20.4114L34.6028 18.7079L34.0362 20.4114H35.1761Z" fill="white"/>
<path d="M37.6777 20.6508L39.2042 20.5637C39.2371 20.7904 39.304 20.9622 39.4059 21.0812C39.5714 21.2736 39.8071 21.3686 40.1141 21.3686C40.3431 21.3686 40.5199 21.3194 40.6433 21.2221C40.7669 21.1236 40.8293 21.0102 40.8293 20.8809C40.8293 20.7516 40.7703 20.6485 40.6524 20.5512C40.5346 20.4538 40.2604 20.3622 39.8309 20.2764C39.1271 20.1321 38.6251 19.9398 38.3259 19.7017C38.0233 19.4623 37.8727 19.1578 37.8727 18.7868C37.8727 18.543 37.9497 18.3128 38.1049 18.0965C38.2591 17.8801 38.4925 17.7096 38.803 17.5858C39.1136 17.4622 39.5385 17.4004 40.0802 17.4004C40.7431 17.4004 41.2497 17.5125 41.5976 17.7381C41.9455 17.9636 42.1528 18.322 42.2186 18.8132L40.7068 18.8945C40.6672 18.6816 40.5822 18.5258 40.4542 18.4297C40.3249 18.3324 40.1482 18.2842 39.9216 18.2842C39.7345 18.2842 39.5941 18.3209 39.4999 18.393C39.4059 18.4651 39.3584 18.5533 39.3584 18.6564C39.3584 18.732 39.3968 18.7995 39.475 18.8601C39.5509 18.9231 39.73 18.9804 40.0133 19.0341C40.7148 19.1716 41.2168 19.3112 41.5205 19.4532C41.8242 19.594 42.044 19.7692 42.1823 19.9786C42.3206 20.1882 42.3897 20.4218 42.3897 20.6805C42.3897 20.9839 42.2979 21.2644 42.1132 21.5209C41.9296 21.7773 41.6712 21.972 41.3414 22.1048C41.0106 22.2376 40.5946 22.304 40.0915 22.304C39.2087 22.304 38.5968 22.1494 38.2569 21.8392C37.9168 21.5289 37.7242 21.135 37.68 20.6564L37.6777 20.6508Z" fill="white"/>
<path d="M43.2598 17.4805H44.8678V22.2181H43.2598V17.4805Z" fill="white"/>
<path d="M46.0176 17.481H47.6222V21.0519H50.1255V22.2186H46.0176V17.481Z" fill="white"/>
</g>
</g>
<defs>
<clipPath id="clip0_2342_2187">
<rect width="71" height="24" fill="white" transform="translate(0.5 0.11377)"/>
</clipPath>
</defs>
</svg>
