<?xml version="1.0" encoding="UTF-8"?>
<svg id="Layer_1" data-name="Layer 1" xmlns="http://www.w3.org/2000/svg" viewBox="0 0 512 512">
  <defs>
    <style>
      .cls-1 {
        fill: #ffda44;
      }

      .cls-2 {
        fill: #f0f0f0;
      }

      .cls-3 {
        fill: #d80027;
      }

      .cls-4 {
        fill: #338af3;
      }

      .cls-5 {
        fill: #ff9811;
      }

      .cls-6 {
        fill: #6da544;
      }

      .cls-7 {
        fill: #005f3b;
      }
    </style>
  </defs>
  <g>
    <g>
      <path class="cls-1" d="M256,144.7v222.6l-240.07-22.26c-10.29-27.73-15.93-57.73-15.93-89.04s5.64-61.31,15.93-89.04l240.07-22.26Z"/>
      <g>
        <path class="cls-3" d="M256,0v166.96H15.93C52.1,69.47,145.93,0,256,0Z"/>
        <path class="cls-3" d="M256,345.04v166.96c-110.07,0-203.9-69.47-240.07-166.96h240.07Z"/>
      </g>
    </g>
    <g>
      <path class="cls-2" d="M256,367.3v-222.6l240.07,22.26c10.29,27.73,15.93,57.73,15.93,89.04s-5.64,61.31-15.93,89.04l-240.07,22.26Z"/>
      <g>
        <path class="cls-4" d="M256,512v-166.96h240.07c-36.17,97.49-130,166.96-240.07,166.96Z"/>
        <path class="cls-4" d="M256,166.96V0c110.07,0,203.9,69.47,240.07,166.96h-240.07Z"/>
      </g>
    </g>
  </g>
  <g>
    <g>
      <circle class="cls-7" cx="256" cy="256" r="128"/>
      <circle class="cls-2" cx="256" cy="256" r="112"/>
      <circle class="cls-3" cx="256" cy="256" r="96"/>
      <circle class="cls-2" cx="256" cy="256" r="80"/>
    </g>
    <g>
      <path class="cls-6" d="M189.22,256c0,36.88,29.9,66.78,66.78,66.78s66.78-29.9,66.78-66.78v-22.26h-133.57v22.26Z"/>
      <path class="cls-5" d="M345.04,211.48h-66.78c0-12.29-9.97-22.26-22.26-22.26s-22.26,9.97-22.26,22.26h-66.78c0,12.29,10.71,22.26,23,22.26h-.74c0,12.29,9.97,22.26,22.26,22.26,0,12.3,9.97,22.26,22.26,22.26h44.52c12.3,0,22.26-9.97,22.26-22.26,12.3,0,22.26-9.97,22.26-22.26h-.74c12.3,0,23-9.97,23-22.26Z"/>
    </g>
  </g>
</svg>