<?xml version="1.0" encoding="UTF-8"?>
<svg id="Layer_1" data-name="Layer 1" xmlns="http://www.w3.org/2000/svg" viewBox="0 0 512 512">
  <defs>
    <style>
      .cls-1 {
        fill: #ffda44;
      }

      .cls-2 {
        fill: #f0f0f0;
      }

      .cls-3 {
        fill: #d80027;
      }

      .cls-4 {
        fill: #0052b4;
      }
    </style>
  </defs>
  <path class="cls-1" d="M367.3,256l-22.26,240.07c-4.33,1.61-8.72,3.1-13.16,4.48-8,2.48-16.16,4.58-24.46,6.27-5.43,1.11-10.93,2.05-16.48,2.81-.52.07-1.05.14-1.58.2-.52.08-1.05.14-1.58.21-1.12.14-2.25.27-3.39.4-1.2.13-2.41.26-3.62.37-1.7.17-3.42.32-5.14.44-.72.06-1.44.11-2.17.16-.2.02-.41.03-.62.04-.51.04-1.02.07-1.53.09-.97.07-1.94.12-2.91.16-.68.04-1.35.07-2.03.09-.2,0-.41.02-.61.02-.24.02-.49.02-.73.03-1.06.04-2.11.07-3.18.09-.1.01-.21.01-.32.01-.63.01-1.27.03-1.91.03-1.2.02-2.41.03-3.62.03-1.65,0-3.29-.02-4.93-.05-.31,0-.62-.01-.93-.02-.97-.02-1.94-.05-2.91-.08-1.01-.03-2.02-.07-3.02-.12-3.35-.15-6.68-.37-9.99-.65-.67-.05-1.34-.11-2.01-.17-.43-.04-.87-.09-1.3-.13-.33-.03-.67-.06-1-.1-.74-.07-1.47-.15-2.21-.23-2.11-.23-4.22-.49-6.33-.78-1.88-.25-3.77-.53-5.64-.83-.94-.15-1.87-.3-2.8-.46-.94-.16-1.87-.32-2.8-.49-6.51-1.18-12.93-2.6-19.26-4.26-3.62-.95-7.2-1.98-10.76-3.08-4.44-1.38-8.83-2.87-13.16-4.48l-12.81-138.21,12.81-12.81,22.27-22.27,168.64-168.64,9.44,101.86Z"/>
  <path d="M166.95,345.05v151.02c-5.33-1.98-10.58-4.13-15.73-6.44-2.21-1-4.41-2.02-6.58-3.07-2.18-1.05-4.34-2.14-6.48-3.25-.71-.37-1.43-.74-2.14-1.12-1.42-.76-2.83-1.53-4.23-2.3-.7-.39-1.4-.79-2.1-1.18-.7-.4-1.39-.8-2.09-1.2-2.08-1.21-4.14-2.45-6.18-3.71-.1-.06-.19-.12-.28-.17-1.95-1.22-3.88-2.45-5.8-3.71-.3-.2-.61-.4-.91-.6-1.03-.69-2.05-1.38-3.07-2.08-.66-.45-1.31-.9-1.97-1.36-.59-.42-1.19-.84-1.78-1.26-.06-.05-.12-.09-.18-.13-.18-.13-.37-.26-.56-.4-1.11-.8-2.21-1.6-3.31-2.42-.64-.48-1.28-.96-1.92-1.43-.22-.17-.44-.34-.66-.51-.65-.49-1.29-.99-1.93-1.48-.81-.63-1.61-1.26-2.41-1.9-.22-.18-.44-.35-.66-.53-.63-.5-1.25-1-1.86-1.5s-1.22-1-1.82-1.5c-1.29-1.08-2.56-2.16-3.83-3.25-.55-.48-1.1-.96-1.65-1.44-2.99-2.64-5.92-5.35-8.78-8.11-.58-.56-1.15-1.11-1.71-1.67-.2-.2-.4-.39-.59-.58-.25-.25-.5-.5-.75-.76l79.15-79.15,12.81-12.81Z"/>
  <path class="cls-2" d="M437.02,74.98h-.01s-79.15,79.16-79.15,79.16l-35.08,35.08-155.82,155.82-12.82,12.82-79.15,79.15h0s-.37-.36-.37-.36c-1.05-1.05-2.09-2.12-3.12-3.19-.07-.07-.14-.14-.21-.21-.57-.6-1.13-1.2-1.7-1.8-.34-.35-.67-.7-1.01-1.06-.19-.2-.38-.41-.57-.62-.29-.31-.58-.63-.87-.95-.25-.27-.5-.54-.74-.81-.17-.19-.35-.38-.52-.57-.36-.4-.73-.81-1.08-1.21-.53-.6-1.06-1.19-1.58-1.79-.27-.3-.53-.6-.79-.9h0c-.21-.26-.42-.5-.63-.74-.26-.3-.51-.6-.77-.9-.03-.03-.06-.07-.08-.1-.67-.79-1.33-1.58-2-2.37-.3-.36-.59-.72-.89-1.08-.71-.87-1.42-1.74-2.12-2.62-1.64-2.05-3.25-4.13-4.82-6.23-.04-.05-.08-.1-.12-.15-.33-.44-.67-.89-.99-1.33-1.05-1.41-2.07-2.83-3.09-4.26-.31-.44-.62-.88-.92-1.32-.07-.09-.14-.19-.2-.28-.2-.3-.41-.6-.61-.89-.14-.2-.28-.4-.42-.6-.2-.28-.39-.57-.58-.85-.45-.66-.9-1.33-1.34-1.99-.44-.67-.88-1.34-1.33-2,0-.01-.01-.03-.02-.05-.23-.34-.45-.68-.67-1.02-.09-.14-.18-.29-.28-.43-.1-.18-.22-.35-.33-.52-.24-.38-.48-.77-.73-1.15-.27-.43-.53-.85-.81-1.28-.34-.54-.68-1.09-1.01-1.64-.34-.55-.67-1.1-1-1.65-.05-.07-.09-.14-.13-.22-.36-.59-.71-1.18-1.06-1.77-.36-.6-.71-1.2-1.05-1.81-.03-.05-.06-.1-.09-.15-.04-.05-.06-.1-.09-.15-.1-.15-.18-.3-.27-.45-.4-.7-.79-1.4-1.19-2.09-.29-.52-.58-1.04-.86-1.56-.11-.19-.21-.37-.31-.55-.02-.04-.04-.07-.05-.1-.29-.53-.59-1.06-.87-1.6-.43-.78-.85-1.55-1.26-2.34h0c-.04-.08-.07-.14-.11-.2-.37-.72-.75-1.43-1.11-2.14-.07-.14-.14-.28-.21-.41-.29-.58-.59-1.16-.89-1.75-.27-.54-.54-1.08-.8-1.62-.09-.18-.18-.36-.27-.54-.07-.14-.14-.28-.2-.43-.21-.4-.41-.81-.6-1.22-.06-.12-.12-.24-.17-.37-.04-.06-.07-.12-.09-.19-.03-.06-.06-.13-.09-.19-.03-.03-.05-.07-.06-.11-.08-.16-.16-.32-.23-.49-.02-.05-.04-.09-.06-.14-.07-.13-.13-.27-.2-.4-.13-.27-.26-.55-.39-.82-.02-.04-.03-.07-.04-.1-.38-.8-.75-1.61-1.11-2.42-.07-.14-.13-.27-.19-.4h0c-.16-.34-.31-.67-.45-1.01-.07-.15-.12-.29-.19-.44-.01-.01-.02-.01-.02-.02s-.01-.01-.01-.02c-.28-.64-.57-1.3-.84-1.94-.05-.09-.08-.17-.12-.26l-.15-.36c-.28-.63-.55-1.26-.82-1.89-.31-.73-.61-1.47-.91-2.21-.01-.01-.02-.02-.02-.03-.01-.02-.02-.04-.02-.06-.14-.33-.27-.67-.41-1-.36-.87-.7-1.75-1.05-2.63-.13-.34-.27-.68-.4-1.03-.2-.5-.39-1.01-.58-1.51-.1-.26-.2-.53-.3-.79-.17-.45-.34-.89-.5-1.34-.1-.26-.2-.53-.29-.79-.06-.16-.12-.32-.17-.47-.25-.69-.5-1.38-.74-2.07-.28-.78-.55-1.56-.82-2.34-.06-.18-.12-.35-.18-.52-.29-.87-.58-1.73-.87-2.61-.26-.8-.52-1.6-.78-2.41-.12-.36-.23-.72-.34-1.08-.25-.78-.49-1.56-.72-2.34h0c-.11-.36-.22-.72-.33-1.07-.1-.35-.2-.7-.3-1.04-.03-.09-.05-.17-.07-.25-.18-.58-.34-1.16-.51-1.75-.02-.08-.05-.17-.07-.26-.03-.11-.07-.23-.1-.35-.16-.55-.31-1.1-.46-1.66-.07-.25-.14-.51-.21-.77-.21-.77-.42-1.54-.62-2.32-.08-.33-.17-.66-.25-1-.12-.46-.24-.92-.36-1.39-.09-.36-.18-.73-.27-1.1-.03-.14-.07-.28-.1-.42-.15-.59-.29-1.18-.42-1.76-.01-.02-.02-.04-.02-.07-.3-1.28-.59-2.58-.88-3.87h0s-.02-.08-.02-.11c-.03-.1-.05-.19-.07-.29-.02-.11-.05-.22-.07-.33-.07-.3-.13-.6-.19-.9-.06-.27-.12-.53-.17-.79-.01-.03-.02-.06-.02-.09-.14-.66-.27-1.31-.4-1.97-.06-.28-.12-.56-.17-.85-.13-.65-.26-1.31-.38-1.97-.21-1.08-.41-2.17-.59-3.26-.15-.79-.28-1.59-.41-2.39-.08-.48-.16-.96-.23-1.44-.05-.24-.08-.47-.12-.71-.11-.68-.21-1.36-.31-2.05-.13-.82-.25-1.65-.36-2.48-.05-.36-.1-.72-.14-1.08-.13-.89-.24-1.79-.35-2.69-.05-.34-.09-.68-.12-1.02,0-.01,0-.03,0-.05-.01-.05-.01-.09-.02-.14l-.18-1.53c-.07-.66-.15-1.32-.21-1.98-.08-.73-.15-1.46-.22-2.2-.03-.28-.06-.56-.08-.84-.07-.72-.14-1.45-.19-2.18-.02-.11-.03-.21-.03-.32-.01-.03-.01-.06-.01-.09-.05-.55-.09-1.11-.13-1.66-.09-1.09-.16-2.17-.23-3.26,0-.06-.01-.13-.01-.19-.04-.64-.08-1.29-.11-1.93-.02-.19-.03-.38-.04-.56,0-.1-.01-.2-.01-.3-.01-.19-.02-.38-.03-.58-.02-.3-.03-.6-.04-.91-.01-.12-.02-.25-.02-.38-.03-.57-.05-1.13-.07-1.69-.02-.48-.04-.96-.05-1.44v-.13c-.02-.3-.03-.6-.03-.9-.01-.13-.01-.27-.02-.4v-.18c0-.08,0-.16-.01-.24v-.34c0-.15,0-.31,0-.46-.02-.88-.04-1.76-.05-2.64v-.2c-.01-.99-.02-1.98-.02-2.97,0-.47,0-.95.01-1.42,0-.58,0-1.17.01-1.75,0-.18,0-.36.01-.54,0-.7.02-1.4.04-2.1,0-.6.02-1.21.04-1.81,0-.08.01-.16.01-.24,0-.2.01-.4.02-.61.01-.48.03-.95.05-1.43.01-.3.02-.6.04-.91.02-.7.05-1.39.09-2.08,0-.1,0-.19,0-.28.02-.37.04-.74.06-1.1.03-.61.07-1.22.11-1.82.01-.26.03-.53.05-.8.02-.34.04-.68.07-1.02.01-.17.02-.35.04-.53.01-.27.03-.54.06-.82,0-.15.02-.29.03-.44.01-.23.03-.46.06-.69.01-.23.03-.46.05-.69s.04-.46.06-.69c.06-.76.12-1.52.2-2.27.07-.81.15-1.62.23-2.42.05-.51.11-1.02.17-1.53.01-.19.03-.38.06-.57l.06-.57c.02-.18.04-.37.07-.55,0-.09.01-.19.03-.28.07-.66.15-1.31.24-1.96.14-1.19.3-2.38.46-3.56.03-.23.06-.46.1-.68,0-.06.01-.11.02-.16.08-.55.15-1.09.24-1.64.03-.21.06-.42.09-.63.02-.13.04-.26.06-.4.02-.1.03-.2.05-.31.03-.24.07-.47.11-.71.13-.81.26-1.63.4-2.45.02-.16.05-.32.08-.48.01-.06.02-.12.03-.18.1-.61.21-1.22.32-1.82.02-.14.05-.28.07-.42.15-.83.3-1.66.46-2.49.08-.45.17-.9.26-1.35.01-.07.02-.14.04-.21.07-.32.12-.64.19-.96.21-1.06.43-2.13.66-3.19.11-.52.22-1.03.33-1.55.2-.9.4-1.8.61-2.7.23-1.04.48-2.06.73-3.09.02-.1.05-.21.08-.31.2-.85.42-1.7.64-2.55.08-.32.16-.64.24-.96,0-.01.01-.02.01-.03s.01-.03.02-.04c.13-.5.26-.99.39-1.49.06-.25.13-.51.2-.76.06-.24.13-.49.2-.73.07-.26.14-.52.22-.78.1-.35.19-.69.29-1.04.16-.58.33-1.16.49-1.73.05-.17.1-.34.15-.51.22-.79.46-1.57.7-2.35.47-1.57.96-3.14,1.47-4.71.11-.34.22-.69.33-1.03.23-.69.46-1.37.69-2.06.04-.12.08-.24.13-.37.36-1.04.72-2.09,1.09-3.13.03-.11.07-.22.12-.33.4-1.15.81-2.29,1.25-3.43.2-.57.41-1.14.63-1.71.1-.27.21-.55.32-.82.24-.65.49-1.29.75-1.93.1-.25.2-.51.3-.76.55-1.38,1.11-2.77,1.69-4.14.14-.35.28-.69.43-1.04.28-.67.57-1.34.86-2,.26-.62.54-1.25.81-1.86.05-.12.11-.24.16-.36s.11-.24.17-.36c.16-.38.33-.76.5-1.13.2-.44.4-.88.61-1.32.22-.5.45-1.01.69-1.51.01-.03.02-.06.04-.09.42-.91.85-1.81,1.29-2.71.47-.99.96-1.97,1.45-2.96.42-.86.85-1.71,1.29-2.56.48-.93.96-1.86,1.45-2.79.17-.32.34-.64.52-.96.03-.07.07-.14.12-.21h0s.02-.06.04-.09c.25-.49.52-.98.78-1.47.28-.52.58-1.03.86-1.55.06-.1.12-.21.18-.32.04-.07.08-.14.12-.21.06-.11.12-.22.19-.33.34-.61.68-1.23,1.03-1.84.22-.42.46-.84.7-1.26.11-.19.22-.39.34-.58.06-.1.12-.21.19-.31.11-.2.22-.39.34-.59.2-.36.41-.72.63-1.08.01-.03.03-.05.05-.08.05-.1.11-.2.18-.3.18-.31.37-.63.56-.94.09-.15.18-.3.27-.45.37-.63.75-1.25,1.13-1.87.2-.33.41-.67.62-1,.36-.58.72-1.16,1.09-1.74.03-.06.07-.12.11-.17.13-.22.27-.44.42-.66.1-.17.2-.33.31-.5.25-.39.5-.78.76-1.17.03-.05.06-.11.1-.16.19-.3.39-.6.58-.9.31-.47.63-.95.95-1.42.07-.12.15-.25.24-.37.44-.67.89-1.33,1.34-1.99.09-.14.19-.27.28-.41.07-.1.14-.2.21-.3.04-.05.07-.09.1-.14.17-.24.33-.48.49-.72.12-.16.23-.33.34-.49.35-.5.7-.99,1.05-1.48.16-.23.32-.45.47-.67.01-.02.03-.04.04-.06.14-.21.28-.41.43-.62.08-.11.15-.21.23-.32.03-.04.06-.08.09-.12.12-.19.26-.38.39-.56.12-.15.23-.31.34-.46.13-.18.26-.36.38-.53.04-.05.08-.1.12-.15.07-.11.15-.22.23-.32.12-.16.24-.32.35-.47.37-.52.75-1.03,1.13-1.54.03-.04.06-.08.1-.12.07-.09.13-.18.2-.27.3-.4.61-.81.92-1.21.47-.62.94-1.24,1.42-1.85.19-.25.38-.49.57-.74.49-.63.98-1.25,1.48-1.88.04-.04.07-.09.11-.13.46-.58.92-1.16,1.39-1.73.25-.31.5-.62.75-.92.72-.88,1.45-1.75,2.17-2.62.08-.09.15-.17.21-.25.42-.52.86-1.03,1.31-1.54.02-.02.05-.05.06-.08.04-.03.07-.07.1-.11.24-.27.48-.55.71-.82.06-.07.13-.15.19-.22,0-.01,0-.02,0-.02.33-.38.66-.76,1-1.14.27-.31.55-.62.82-.92.67-.76,1.34-1.51,2.02-2.25.49-.55.98-1.09,1.49-1.63.06-.08.13-.15.22-.23.23-.25.46-.49.68-.74.03-.03.06-.07.1-.1.33-.35.67-.71,1-1.06.64-.68,1.28-1.36,1.93-2.04.05-.05.1-.09.14-.14.62-.65,1.23-1.27,1.85-1.91.2-.2.4-.41.61-.61.19-.19.38-.38.57-.56,1-1.02,2.02-2.03,3.05-3.01.19-.18.38-.37.58-.55.39-.37.77-.73,1.15-1.09.37-.36.74-.71,1.11-1.06.18-.18.37-.34.55-.51.03-.02.05-.05.08-.07.58-.55,1.17-1.09,1.76-1.62.54-.5,1.08-.99,1.63-1.48.09-.08.17-.16.26-.24.51-.47,1.03-.93,1.55-1.39.94-.83,1.89-1.66,2.84-2.47.15-.13.3-.25.45-.38.15-.13.3-.25.45-.37.6-.51,1.21-1.02,1.82-1.54.84-.69,1.68-1.39,2.53-2.08.25-.21.5-.41.74-.61,1.09-.88,2.19-1.75,3.3-2.6.28-.23.56-.45.84-.65.68-.54,1.36-1.06,2.05-1.57.26-.2.53-.4.79-.59.29-.21.58-.43.88-.66.08-.05.16-.11.24-.17,1.26-.93,2.52-1.85,3.8-2.77.06-.05.11-.09.17-.13.09-.07.19-.14.29-.21,1.11-.79,2.24-1.58,3.37-2.34.08-.05.16-.11.24-.17.61-.42,1.23-.83,1.84-1.25.6-.41,1.2-.81,1.8-1.21,1.14-.75,2.28-1.49,3.43-2.22.26-.17.53-.34.8-.5.68-.42,1.36-.85,2.05-1.27.68-.42,1.36-.84,2.05-1.26.4-.25.81-.49,1.22-.74.4-.25.81-.49,1.21-.73.25-.16.51-.31.76-.44.93-.56,1.87-1.1,2.81-1.63,1.49-.86,2.99-1.69,4.5-2.51.68-.37,1.36-.74,2.05-1.09.27-.14.53-.28.8-.42.18-.11.37-.21.56-.3.47-.26.94-.5,1.42-.74.95-.5,1.91-.98,2.87-1.46.54-.28,1.09-.55,1.64-.81.44-.23.88-.44,1.32-.64.76-.37,1.52-.74,2.28-1.09.3-.15.6-.29.9-.43.76-.36,1.52-.71,2.28-1.05.67-.31,1.34-.61,2.01-.9.55-.25,1.1-.49,1.65-.73,1.33-.59,2.67-1.16,4.02-1.71.56-.24,1.12-.47,1.69-.7.75-.31,1.51-.61,2.27-.91.11-.04.21-.08.32-.12,3.61-1.44,7.25-2.78,10.93-4.03.55-.19,1.09-.38,1.64-.56,1.42-.48,2.85-.95,4.28-1.39,1.43-.46,2.87-.9,4.31-1.32.72-.22,1.44-.43,2.17-.63.72-.21,1.45-.41,2.17-.61,1.45-.41,2.91-.8,4.37-1.17.55-.14,1.1-.28,1.65-.42,1.21-.31,2.42-.6,3.64-.88.37-.09.73-.17,1.1-.25.81-.2,1.63-.38,2.45-.56l1.11-.24c.37-.09.74-.17,1.12-.24.74-.16,1.48-.31,2.23-.46,1.49-.3,2.98-.59,4.49-.86,1.65-.31,3.31-.6,4.98-.86,1.36-.23,2.72-.43,4.08-.63.76-.11,1.52-.22,2.28-.32.78-.11,1.56-.21,2.34-.31.31-.04.62-.08.93-.11,1.04-.13,2.08-.25,3.14-.37,1.25-.15,2.5-.28,3.76-.39.81-.08,1.63-.16,2.45-.23.21-.02.42-.04.63-.05.69-.06,1.37-.11,2.06-.16,1.25-.1,2.5-.19,3.75-.26.66-.05,1.33-.08,2-.12h.03c.49-.03.97-.05,1.45-.07.13-.01.27-.02.41-.02.25-.02.5-.03.75-.03.29-.02.58-.03.87-.04.21-.01.41-.02.61-.02.24-.02.47-.02.7-.03.54-.02,1.08-.04,1.62-.05.52-.02,1.06-.03,1.59-.04.42,0,.83-.02,1.25-.03.25,0,.49-.01.74-.01h.24c1.2-.02,2.41-.03,3.62-.03,1.96,0,3.91.02,5.86.07.85.02,1.69.04,2.54.07,1.15.03,2.31.08,3.46.13.81.04,1.63.08,2.44.13.83.04,1.67.09,2.5.15,1.67.1,3.33.22,4.98.37.63.05,1.26.1,1.89.16.47.04.95.09,1.42.14.33.03.67.06,1,.1.71.07,1.41.14,2.12.22.04,0,.09.01.14.02,1.02.11,2.04.22,3.05.35.03,0,.06,0,.1.01,1.05.13,2.09.27,3.13.41,1.88.25,3.76.52,5.64.83.94.15,1.87.3,2.8.46.6.09,1.19.19,1.78.3,1.08.19,2.15.38,3.23.59,3.14.59,6.26,1.25,9.37,1.97.91.2,1.81.42,2.72.64,1.15.28,2.3.56,3.44.85.51.13,1.02.26,1.52.4,1.34.34,2.68.7,4.01,1.08.7.19,1.4.39,2.1.6.7.19,1.4.4,2.1.61.77.23,1.55.47,2.32.71.19.06.36.11.54.17h.01c.27.08.54.17.81.25.07.02.15.04.22.07,1.23.39,2.46.79,3.68,1.19,1.54.51,3.07,1.04,4.6,1.59.68.23,1.37.48,2.05.74.5.18.99.38,1.48.56h0c.38.13.76.28,1.14.43.79.3,1.59.6,2.38.9.79.3,1.58.61,2.37.93,1.58.62,3.15,1.26,4.71,1.92.46.2.91.4,1.37.6.81.34,1.61.69,2.4,1.05.46.2.91.4,1.36.6.1.05.19.09.28.13.1.04.2.08.29.12.15.06.3.13.45.2.8.36,1.59.73,2.38,1.1.05.02.1.04.14.06.29.13.57.27.86.42.22.09.44.19.66.3.14.06.28.13.42.2,1.09.52,2.17,1.04,3.25,1.58,1.01.5,2.03,1.01,3.04,1.53.22.11.43.22.65.34.69.35,1.39.71,2.08,1.08.23.12.46.24.7.38,1.42.75,2.83,1.51,4.23,2.3.18.09.35.18.52.28.53.29,1.05.59,1.58.9.7.4,1.39.8,2.09,1.2,1.2.69,2.4,1.4,3.59,2.12.43.25.85.51,1.27.77.45.27.88.54,1.32.82.1.06.19.12.28.17.58.35,1.16.71,1.73,1.08.2.12.4.25.6.38.59.37,1.17.75,1.76,1.13.05.04.1.07.15.1.24.17.49.33.73.48.28.17.55.36.83.54.3.2.61.4.91.6.07.04.13.09.19.13.07.05.14.1.2.14.6.38,1.2.79,1.8,1.2.46.31.93.63,1.39.95,1.02.7,2.04,1.41,3.05,2.13.04.03.08.06.12.08.27.2.54.4.81.6.1.07.21.15.31.22.42.29.84.59,1.25.9.38.27.76.55,1.14.84.2.15.41.3.61.46.64.48,1.28.96,1.92,1.43.87.65,1.73,1.31,2.59,1.99.3.24.6.47.89.7.51.4,1.02.8,1.52,1.2.22.18.44.36.66.53.15.11.29.23.44.34,1.09.87,2.17,1.76,3.24,2.66.01.02.02.02.03.03,1.23,1.01,2.44,2.03,3.65,3.1.03,0,.05.04.08.06.02.02.05.04.07.06.55.47,1.1.95,1.65,1.44.6.53,1.2,1.06,1.79,1.6.15.12.29.26.44.39.74.66,1.48,1.34,2.21,2.02.22.2.43.4.65.61.66.61,1.31,1.22,1.97,1.85.58.54,1.15,1.09,1.72,1.64.23.22.45.44.68.67.08.08.16.16.24.23.72.69,1.43,1.39,2.14,2.1Z"/>
  <path class="cls-4" d="M166.96,15.93v329.11l-12.82,12.82-79.15,79.15h0s-.37-.36-.37-.36c-1.05-1.05-2.09-2.12-3.12-3.19-.07-.07-.14-.14-.21-.21-.9-.95-1.8-1.9-2.71-2.86-.05-.06-.11-.12-.16-.19-.14-.14-.27-.29-.41-.43-.54-.58-1.08-1.17-1.61-1.76-.34-.37-.68-.75-1-1.12-.21-.22-.41-.44-.6-.66-.53-.6-1.06-1.19-1.58-1.79-.26-.29-.51-.58-.75-.87-.02,0-.03-.02-.04-.03h0c-.21-.26-.42-.5-.63-.74-.26-.3-.51-.6-.77-.9-.03-.03-.06-.07-.08-.1-.67-.79-1.33-1.58-2-2.37-.3-.36-.59-.72-.89-1.08-.71-.87-1.42-1.74-2.12-2.62-1.68-2.1-3.33-4.23-4.94-6.38-.33-.44-.67-.89-.99-1.33-1.05-1.41-2.07-2.83-3.09-4.26-.38-.53-.75-1.07-1.12-1.6-.34-.5-.69-1-1.03-1.49-.2-.28-.39-.57-.58-.85-.45-.66-.9-1.33-1.34-1.99-.44-.67-.88-1.34-1.33-2-.23-.36-.46-.71-.69-1.07-.2-.32-.4-.64-.61-.95-.24-.38-.48-.77-.73-1.15-.27-.43-.53-.85-.81-1.28-.34-.54-.68-1.09-1.01-1.64-.34-.55-.67-1.1-1-1.65-.05-.07-.09-.14-.13-.22-.36-.59-.71-1.18-1.06-1.77-.51-.85-1.01-1.71-1.5-2.56-.4-.7-.79-1.4-1.19-2.09-.29-.52-.58-1.04-.86-1.56-.11-.19-.21-.37-.31-.55-.02-.04-.04-.07-.05-.1-.29-.53-.59-1.06-.87-1.6-.43-.78-.85-1.55-1.26-2.34-.04-.07-.07-.14-.11-.2-.37-.72-.75-1.43-1.11-2.14-.07-.14-.14-.28-.21-.41-.29-.58-.59-1.16-.89-1.75-.27-.54-.54-1.08-.8-1.62-.09-.18-.18-.36-.27-.54-.27-.55-.54-1.1-.8-1.65-.14-.28-.28-.57-.41-.86-.3-.61-.59-1.23-.88-1.85-.02-.04-.03-.07-.04-.1-.45-.94-.88-1.88-1.3-2.82h0c-.23-.5-.45-.99-.67-1.49-.32-.73-.65-1.47-.96-2.2l-.15-.36c-.28-.63-.55-1.26-.82-1.89-.31-.75-.62-1.49-.93-2.24-.01-.02-.02-.04-.02-.06-.14-.33-.27-.67-.41-1-.36-.87-.7-1.75-1.05-2.63-.13-.34-.27-.68-.4-1.03-.2-.5-.39-1.01-.58-1.51-.1-.26-.2-.53-.3-.79-.17-.45-.34-.89-.5-1.34-.1-.26-.2-.53-.29-.79-.06-.16-.12-.32-.17-.47-.25-.69-.5-1.38-.74-2.07-.28-.78-.55-1.56-.82-2.34-.06-.18-.12-.35-.18-.52-.29-.87-.58-1.73-.87-2.61-.26-.8-.52-1.6-.78-2.41-.12-.36-.23-.72-.34-1.08-.25-.78-.49-1.56-.72-2.34-.01,0,0-.01,0-.01-.11-.35-.22-.7-.32-1.05-.11-.35-.21-.7-.31-1.05-.03-.09-.05-.17-.07-.25-.18-.58-.34-1.16-.51-1.75-.02-.08-.05-.17-.07-.26-.03-.11-.07-.23-.1-.35-.16-.55-.31-1.1-.46-1.66-.07-.25-.14-.51-.21-.77-.21-.77-.42-1.54-.62-2.32-.08-.33-.17-.66-.25-1-.12-.46-.24-.92-.36-1.39-.09-.36-.18-.73-.27-1.1-.03-.14-.07-.28-.1-.42-.15-.59-.29-1.18-.42-1.76-.01-.02-.02-.04-.02-.07-.3-1.28-.59-2.58-.88-3.87h0s-.02-.08-.02-.11c-.03-.1-.05-.19-.07-.29-.02-.11-.05-.22-.07-.33-.07-.3-.13-.6-.19-.9-.06-.27-.12-.53-.17-.79-.01-.03-.02-.06-.02-.09-.14-.66-.27-1.31-.4-1.97-.06-.28-.12-.56-.17-.85-.13-.65-.26-1.31-.38-1.97-.21-1.08-.41-2.17-.59-3.26-.15-.79-.28-1.59-.41-2.39-.08-.48-.16-.96-.23-1.44-.05-.24-.08-.47-.12-.71-.11-.68-.21-1.36-.31-2.05-.13-.82-.25-1.65-.36-2.48-.05-.36-.1-.72-.14-1.08-.13-.89-.24-1.79-.35-2.69-.06-.4-.1-.81-.15-1.21l-.18-1.53c-.07-.66-.15-1.32-.21-1.98-.08-.73-.15-1.46-.22-2.2-.03-.28-.06-.56-.08-.84-.07-.72-.14-1.45-.19-2.18-.02-.11-.03-.21-.03-.32-.01-.03-.01-.06-.01-.09-.05-.55-.09-1.11-.13-1.66-.09-1.09-.16-2.17-.23-3.26,0-.06-.01-.13-.01-.19,0-.02-.01-.04-.01-.06-.03-.51-.06-1.01-.09-1.52,0-.12-.01-.23-.01-.35-.02-.28-.04-.57-.05-.86-.01-.19-.02-.38-.03-.58-.02-.3-.03-.6-.04-.91-.01-.12-.02-.25-.02-.38-.03-.57-.05-1.13-.07-1.69-.02-.48-.04-.96-.05-1.44-.02-.47-.03-.95-.05-1.43v-.18c0-.08,0-.16-.01-.24v-.34c0-.15,0-.31,0-.46-.02-.88-.04-1.76-.05-2.64v-.2c-.01-.99-.02-1.98-.02-2.97,0-.47,0-.95.01-1.42,0-.58,0-1.17.01-1.75,0-.18,0-.36.01-.54,0-.7.02-1.4.04-2.1,0-.6.02-1.21.04-1.81,0-.08.01-.16.01-.24,0-.2.01-.4.02-.61.01-.48.03-.95.05-1.43.01-.3.02-.6.04-.91.02-.7.05-1.39.09-2.08,0-.23.02-.46.04-.69,0-.12.01-.24.02-.35,0-.11,0-.23.01-.34.03-.61.07-1.22.11-1.82.01-.26.03-.53.05-.8.02-.34.04-.68.07-1.02.01-.17.02-.35.04-.53.01-.27.03-.54.06-.82,0-.15.02-.29.03-.44.05-.69.1-1.38.17-2.07.06-.76.12-1.52.2-2.27.07-.81.15-1.62.23-2.42.09-.89.19-1.78.29-2.67.02-.18.04-.37.07-.55,0-.09.01-.19.03-.28.07-.66.15-1.31.24-1.96.14-1.19.3-2.38.46-3.56.03-.23.06-.46.1-.68,0-.06.01-.11.02-.16.08-.55.15-1.09.24-1.64,0-.12.03-.24.06-.36.04-.33.09-.65.14-.98.03-.24.07-.47.11-.71.13-.81.26-1.63.4-2.45.02-.16.05-.32.08-.48.01-.06.02-.12.03-.18.1-.61.2-1.21.32-1.82.02-.14.05-.28.07-.42.15-.83.3-1.66.46-2.49.08-.45.17-.9.26-1.35.01-.07.02-.14.04-.21.07-.32.12-.64.19-.96.21-1.06.43-2.13.66-3.19.11-.52.22-1.03.33-1.55.2-.9.4-1.8.61-2.7.23-1.04.48-2.06.73-3.09.02-.1.05-.21.08-.31.2-.85.42-1.7.64-2.55.08-.32.16-.64.24-.96.2-.77.41-1.55.62-2.32.06-.24.13-.49.2-.73.07-.26.14-.52.22-.78.1-.35.19-.69.29-1.04.16-.58.33-1.16.49-1.73.05-.17.1-.34.15-.51.22-.79.46-1.57.7-2.35.47-1.57.96-3.14,1.47-4.71.11-.34.22-.69.33-1.03.23-.69.46-1.37.69-2.06.04-.12.08-.24.13-.37.35-1.05.71-2.09,1.09-3.13.03-.11.07-.22.12-.33.4-1.15.81-2.29,1.25-3.43.2-.57.41-1.14.63-1.71.35-.92.7-1.84,1.07-2.75.1-.25.2-.51.3-.76.55-1.38,1.11-2.77,1.69-4.14.14-.35.28-.69.43-1.04.28-.67.57-1.34.86-2,.26-.62.54-1.25.81-1.86.05-.12.11-.24.16-.36.22-.5.44-1,.67-1.49.42-.95.86-1.89,1.3-2.83.01-.03.02-.06.04-.09.42-.91.85-1.81,1.29-2.71.47-.99.96-1.97,1.45-2.96.42-.86.85-1.71,1.29-2.56.48-.93.96-1.86,1.45-2.79.48-.91.97-1.82,1.46-2.73.28-.52.58-1.03.86-1.55.06-.11.12-.22.18-.32.04-.07.08-.14.12-.21.06-.11.12-.22.19-.33.58-1.03,1.14-2.07,1.73-3.1.49-.86.99-1.71,1.5-2.56.01-.03.03-.05.05-.08.05-.1.11-.2.18-.3.18-.31.37-.63.56-.94.09-.15.18-.3.27-.45.37-.63.75-1.25,1.13-1.87.2-.33.41-.67.62-1,.36-.58.72-1.16,1.09-1.74.03-.06.07-.12.11-.17.13-.22.27-.44.42-.66.1-.17.2-.33.31-.5.25-.39.5-.78.76-1.17.03-.05.06-.11.1-.16.19-.3.39-.6.58-.9.31-.47.63-.95.95-1.42.07-.12.15-.25.24-.37.44-.67.89-1.33,1.34-1.99.19-.29.4-.57.59-.85.16-.24.32-.48.49-.72.12-.16.23-.33.34-.49.35-.5.7-.99,1.05-1.48.31-.45.62-.9.94-1.35.24-.33.47-.67.71-1,.12-.15.23-.31.34-.46.13-.18.26-.36.38-.53.04-.05.08-.1.12-.15.07-.11.15-.22.23-.32.12-.16.24-.32.35-.47.4-.56.81-1.11,1.23-1.66.07-.09.13-.18.2-.27.3-.4.61-.81.92-1.21.47-.62.94-1.24,1.42-1.85.19-.25.38-.49.57-.74.49-.63.98-1.25,1.48-1.88.04-.04.07-.09.11-.13.46-.58.92-1.16,1.39-1.73.25-.31.5-.62.75-.92.72-.88,1.45-1.75,2.17-2.62.08-.09.15-.17.21-.25.12-.14.24-.28.36-.42.31-.37.63-.75.95-1.12.02-.02.05-.05.06-.08.04-.03.07-.07.1-.11.24-.27.48-.55.71-.82.06-.07.13-.15.19-.22l.06-.06c.2-.24.4-.47.61-.7.38-.44.77-.88,1.16-1.32.67-.76,1.34-1.51,2.02-2.25.76-.85,1.53-1.69,2.31-2.52.03-.03.06-.06.08-.08,1-1.08,2.01-2.14,3.03-3.2.05-.05.1-.09.14-.14,1.24-1.28,2.49-2.55,3.76-3.8.77-.77,1.54-1.53,2.32-2.28.58-.55,1.15-1.11,1.73-1.65.58-.55,1.16-1.1,1.74-1.64.58-.55,1.17-1.09,1.76-1.62.54-.5,1.08-.99,1.63-1.48.09-.08.17-.16.26-.24,1.74-1.56,3.5-3.09,5.29-4.61.6-.51,1.21-1.02,1.82-1.54.84-.69,1.68-1.39,2.53-2.08.4-.31.79-.63,1.18-.95.63-.49,1.25-.99,1.88-1.48.6-.48,1.21-.95,1.82-1.43.65-.5,1.31-1,1.97-1.5.58-.44,1.16-.87,1.75-1.32.08-.05.16-.11.24-.17,1.26-.93,2.52-1.85,3.8-2.77.65-.46,1.31-.92,1.96-1.38.62-.43,1.25-.87,1.87-1.3.08-.05.16-.11.24-.17,2.59-1.76,5.21-3.49,7.87-5.18.68-.42,1.36-.85,2.05-1.27.68-.42,1.36-.84,2.05-1.26,2.74-1.66,5.51-3.27,8.32-4.83,1.66-.93,3.34-1.84,5.03-2.73,1.15-.6,2.31-1.2,3.48-1.8h.01c5.02-2.55,10.14-4.94,15.35-7.16.51-.22,1.03-.44,1.55-.66,3.21-1.34,6.46-2.62,9.74-3.84Z"/>
  <path class="cls-3" d="M512,255.99c0-110.07-69.47-203.91-166.96-240.08v480.15c97.49-36.17,166.96-130.01,166.96-240.08Z"/>
  <polygon class="cls-3" points="300.52 283.83 345.04 261.57 322.78 250.43 322.78 228.17 278.26 250.43 300.52 205.91 278.26 205.91 256 172.52 233.74 205.91 211.48 205.91 233.74 250.43 189.22 228.17 189.22 250.43 166.96 261.57 211.48 283.83 200.35 306.09 244.87 306.09 244.87 339.48 267.13 339.48 267.13 306.09 311.65 306.09 300.52 283.83"/>
</svg>