<?xml version="1.0" encoding="UTF-8"?>
<svg id="Layer_1" data-name="Layer 1" xmlns="http://www.w3.org/2000/svg" viewBox="0 0 512 512">
  <defs>
    <style>
      .cls-1 {
        fill: #f0f0f0;
      }

      .cls-2 {
        fill: #85c2ff;
      }

      .cls-3 {
        fill: #ff9811;
      }

      .cls-4 {
        fill: #6da544;
      }
    </style>
  </defs>
  <circle class="cls-1" cx="256" cy="256" r="256"/>
  <path class="cls-3" d="M256,0C154.51,0,66.81,59.06,25.4,144.7h461.2C445.19,59.06,357.49,0,256,0Z"/>
  <path class="cls-4" d="M256,512c101.49,0,189.19-59.07,230.6-144.7H25.4c41.41,85.63,129.1,144.7,230.6,144.7Z"/>
  <circle class="cls-2" cx="256" cy="256" r="89.04"/>
  <circle class="cls-1" cx="256" cy="256" r="55.65"/>
  <polygon class="cls-2" points="256 187.33 273.17 226.26 315.47 221.66 290.34 256 315.47 290.34 273.17 285.74 256 324.67 238.83 285.74 196.53 290.34 221.66 256 196.53 221.66 238.83 226.26 256 187.33"/>
  <g>
    <path d="M107.56,212.88c-.43-2-1.17-4.02-2.24-6.04-1.07-2.03-2.51-4.02-4.34-5.98-1.82-1.96-4.14-3.78-6.94-5.47l-9.41,11.88c.84.62,1.65,1.28,2.43,1.97.78.69,1.47,1.45,2.07,2.27.6.82,1.08,1.73,1.44,2.7.35.98.53,2.07.53,3.28,0,1.06-.2,2.16-.6,3.27-.4,1.11-1.02,2.12-1.87,3.03-.84.92-1.92,1.66-3.24,2.24-1.31.58-2.88.87-4.7.87h-31.18v15.29h34.18c4.41,0,8.17-.76,11.28-2.27,3.12-1.52,5.65-3.43,7.61-5.74,1.96-2.32,3.39-4.87,4.28-7.65.89-2.78,1.33-5.44,1.33-7.98,0-1.78-.21-3.67-.63-5.67ZM107.26,252.66h-34.72c.62-1.03,1.13-2.17,1.5-3.44.38-1.27.55-2.59.5-3.97-.04-1.09-.16-2.11-.37-3.07-.25-1.19-.64-2.28-1.16-3.27-.94-1.78-2.36-3.59-4.27-5.41h-19.36v1s.09.04.13.06c2.47,1.01,4.47,2.41,5.98,4.18.31.37.59.75.83,1.15.46.71.8,1.48,1.03,2.29.3.95.44,1.98.44,3.07,0,1.56-.3,2.93-.9,4.14-.6,1.2-1.42,2.29-2.44,3.27H16v15.35h18.89c-1.34,2.27-2.37,4.67-3.1,7.18-.74,2.51-1.11,5.15-1.11,7.91,0,4.14.81,8.02,2.41,11.65,1.6,3.63,3.8,6.78,6.61,9.45,2.8,2.67,6.08,4.78,9.84,6.34,3.76,1.56,7.8,2.33,12.12,2.33s8.36-.77,12.12-2.33,7.03-3.67,9.81-6.34c2.78-2.67,4.97-5.82,6.58-9.45,1.6-3.63,2.4-7.51,2.4-11.65,0-2.76-.37-5.4-1.1-7.91-.74-2.51-1.77-4.91-3.11-7.18h18.9v-15.35ZM75.08,288.78c-.76,1.74-1.78,3.24-3.07,4.51-1.29,1.27-2.83,2.26-4.61,2.97-1.78.71-3.69,1.07-5.74,1.07s-4.03-.36-5.81-1.07c-1.78-.71-3.31-1.7-4.6-2.97-1.3-1.27-2.32-2.77-3.08-4.51-.75-1.73-1.13-3.62-1.13-5.67s.38-3.95,1.13-5.71c.76-1.76,1.78-3.28,3.08-4.57,1.29-1.29,2.82-2.29,4.6-3.01,1.78-.71,3.72-1.06,5.81-1.06s3.96.35,5.74,1.06c1.78.72,3.32,1.72,4.61,3.01,1.29,1.29,2.31,2.81,3.07,4.57s1.13,3.66,1.13,5.71-.37,3.94-1.13,5.67ZM16,226.9v15.29h40.32v-15.29H16Z"/>
    <path d="M232.38,217.09c-.08-1.34-.27-2.75-.58-4.21-.43-2-1.17-4.02-2.24-6.04-1.07-2.03-2.51-4.02-4.34-5.98-1.82-1.96-4.14-3.78-6.94-5.47l-9.42,11.88c.85.62,1.66,1.28,2.44,1.97.78.69,1.47,1.45,2.07,2.27.31.42.59.87.84,1.34.23.44.43.89.6,1.36.35.98.53,2.07.53,3.28,0,1.06-.2,2.16-.6,3.27-.4,1.11-1.03,2.12-1.87,3.03-.85.92-1.93,1.66-3.24,2.24-1.31.58-2.88.87-4.7.87h-31.18v15.29h34.18c3.37,0,6.37-.44,8.98-1.33.8-.27,1.57-.59,2.3-.94,1.77-.86,3.35-1.85,4.74-2.97,1.06-.84,2.02-1.77,2.87-2.77,1.96-2.32,3.38-4.87,4.28-7.65.78-2.42,1.21-4.75,1.31-6.99.01-.33.02-.66.02-.99,0-.48-.02-.97-.05-1.46ZM122.88,226.9v15.29h69.76v-15.29h-69.76ZM230.56,262.84c-.91-3.23-2.09-6.23-3.5-8.99-.51-.98-1.04-1.94-1.61-2.86-2.15-3.52-4.68-6.61-7.57-9.28-.32-.29-.64-.58-.97-.86-2.61-2.31-5.36-4.34-8.25-6.08-3.24-1.96-6.58-3.59-10.01-4.88-2.03-.76-4.03-1.42-6.01-1.98-1.37-.39-2.73-.73-4.07-1.02l-2.47,15.15c.18.04.37.09.55.14.74.17,1.47.38,2.21.61,2.55.81,5.09,1.92,7.62,3.33,2.58,1.43,4.97,3.15,7.15,5.15-.17-.22-.33-.46-.47-.72-.38-.68-.57-1.54-.57-2.56s.24-2.09.73-3.18c.46-1.02.98-1.9,1.57-2.63h1.62c.5.08,1,.18,1.49.3.98.24,1.86.61,2.63,1.1.78.49,1.41,1.11,1.87,1.87.47.75.7,1.67.7,2.73,0,1.34-.5,2.53-1.5,3.58-1,1.04-2.26,1.57-3.77,1.57-.44,0-.98-.09-1.6-.27-.59-.17-1.13-.43-1.66-.79.37.36.73.74,1.09,1.12,2.74,2.94,4.95,6.34,6.64,10.22.5,1.14.92,2.31,1.26,3.52.86,2.9,1.28,5.99,1.28,9.29,0,2.45-.32,4.86-.97,7.21-.64,2.36-1.61,4.48-2.9,6.35s-2.88,3.37-4.78,4.5c-1.89,1.14-4.08,1.7-6.57,1.7s-4.75-.57-6.64-1.73c-1.9-1.16-3.6-2.68-5.11-4.57-1.51-1.9-2.92-4.04-4.21-6.45-1.29-2.4-2.63-4.87-4.04-7.41-1.4-2.53-2.93-5-4.6-7.41-1.67-2.4-3.61-4.55-5.81-6.44s-4.77-3.41-7.71-4.57c-2.94-1.16-6.37-1.74-10.28-1.74-4.85,0-9.06.83-12.62,2.47-3.56,1.65-6.51,3.82-8.85,6.51-2.33,2.7-4.08,5.74-5.24,9.15-1.15,3.4-1.73,6.86-1.73,10.38,0,2.53.28,5.18.83,7.94.56,2.76,1.55,5.53,2.97,8.31,1.43,2.79,3.35,5.53,5.78,8.25,2.42,2.71,5.51,5.3,9.24,7.74l10.29-13.15c-2.27-1.73-4.15-3.4-5.65-5.01-1.49-1.6-2.68-3.17-3.57-4.7-.89-1.54-1.51-3.07-1.87-4.61-.35-1.53-.53-3.12-.53-4.77,0-1.11.18-2.35.53-3.71.36-1.35.96-2.63,1.81-3.84.84-1.2,1.95-2.21,3.33-3.03,1.38-.83,3.12-1.24,5.21-1.24s4.07.58,5.68,1.74c1.6,1.16,3.07,2.68,4.4,4.57,1.34,1.89,2.62,4.04,3.84,6.44,1.22,2.41,2.54,4.88,3.94,7.41,1.4,2.54,2.97,5.01,4.71,7.41,1.73,2.41,3.8,4.55,6.2,6.45,2.41,1.89,5.21,3.41,8.42,4.57,3.2,1.16,6.96,1.73,11.28,1.73,4.63,0,8.93-.71,12.92-2.13,3.98-1.43,7.44-3.6,10.38-6.51,2.94-2.92,5.24-6.6,6.91-11.05,1.67-4.45,2.5-9.7,2.5-15.75,0-5.35-.62-10.21-1.87-14.59Z"/>
    <path d="M232.38,217.09l-4.49-10.42c-4.97,1.81-9.53,3.86-13.68,6.18-1.57.87-3.09,1.78-4.54,2.73-5.3,3.45-9.62,7.22-12.96,11.32h-20.56v15.29h12.89c-.06.21-.12.41-.18.61-.14.51-.27.97-.39,1.39-.16.58-.29,1.15-.4,1.7-.11.56-.19,1.13-.23,1.7-.05.58-.07,1.27-.07,2.07,0,3.03.58,5.69,1.73,7.98,1.16,2.29,2.68,4.2,4.54,5.71,1.87,1.51,4,2.65,6.38,3.4,2.38.76,4.8,1.14,7.24,1.14,2.14,0,4.14-.25,6-.75.81-.21,1.59-.48,2.35-.79,2.49-1.02,4.6-2.41,6.34-4.17,1.74-1.76,3.07-3.81,4.01-6.17.28-.7.51-1.42.7-2.15.47-1.72.7-3.52.7-5.4,0-1.64-.25-3.38-.74-5.21-.49-1.82-1.26-3.57-2.33-5.24-.23-.36-.48-.71-.74-1.06-.94-1.26-2.06-2.44-3.37-3.54-1.67-1.4-3.66-2.53-5.97-3.37v-.34c.93-.98,2.1-1.96,3.5-2.93,1.4-.98,2.94-1.93,4.61-2.84,1.67-.91,3.4-1.77,5.2-2.57,1.51-.67,3.01-1.28,4.49-1.82.3-.11.59-.22.89-.32l-.92-2.13ZM204.56,252.2c-.35-.25-.66-.55-.92-.91h-.01c-.17-.23-.33-.47-.47-.73-.38-.68-.57-1.54-.57-2.56s.24-2.09.73-3.18c.46-1.02.98-1.9,1.57-2.63.03-.05.06-.09.1-.14.52.02,1.02.07,1.52.14.5.08,1,.18,1.49.3.98.24,1.86.61,2.63,1.1.78.49,1.41,1.11,1.87,1.87.47.75.7,1.67.7,2.73,0,1.34-.5,2.53-1.5,3.58-1,1.04-2.26,1.57-3.77,1.57-.44,0-.98-.09-1.6-.27-.59-.17-1.13-.43-1.66-.79-.04-.03-.07-.05-.11-.08Z"/>
    <path d="M360.44,212.88c-.42-2-1.17-4.02-2.23-6.04-1.07-2.03-2.52-4.02-4.34-5.98-1.83-1.96-4.14-3.78-6.95-5.47l-9.41,11.88c.85.62,1.66,1.28,2.44,1.97.78.69,1.47,1.45,2.07,2.27s1.08,1.73,1.43,2.7c.36.98.54,2.07.54,3.28,0,1.06-.2,2.16-.6,3.27-.41,1.11-1.03,2.12-1.87,3.03-.85.92-1.93,1.66-3.24,2.24-1.31.58-2.88.87-4.71.87h-31.17v15.29h34.18c3.37,0,6.36-.45,8.98-1.34.8-.26,1.57-.58,2.3-.93,3.11-1.52,5.65-3.43,7.61-5.74,1.96-2.32,3.38-4.87,4.27-7.65.89-2.78,1.34-5.44,1.34-7.98,0-1.78-.21-3.67-.64-5.67ZM251.52,226.9v15.29h69.77v-15.29h-69.77ZM359.21,262.84c-1.25-4.38-2.95-8.33-5.11-11.85-2.16-3.52-4.68-6.61-7.58-9.28-.32-.29-.64-.58-.96-.87-2.61-2.3-5.36-4.33-8.25-6.07-3.25-1.96-6.59-3.59-10.01-4.88-2.03-.76-4.03-1.42-6.01-1.98-1.37-.39-2.73-.73-4.07-1.02l-2.47,15.15c.18.04.37.09.55.14,3.29.81,6.56,2.12,9.83,3.94,3.44,1.91,6.54,4.33,9.28,7.27,2.73,2.94,4.95,6.34,6.64,10.22,1.69,3.87,2.54,8.14,2.54,12.81,0,2.45-.33,4.86-.97,7.21-.65,2.36-1.62,4.48-2.91,6.35s-2.88,3.37-4.77,4.5c-1.89,1.14-4.08,1.7-6.58,1.7s-4.75-.57-6.64-1.73c-1.89-1.16-3.59-2.68-5.11-4.57-1.51-1.9-2.91-4.04-4.2-6.45-1.29-2.4-2.64-4.87-4.04-7.41-1.4-2.53-2.94-5-4.61-7.41-1.67-2.4-3.6-4.55-5.8-6.44-2.21-1.89-4.78-3.41-7.72-4.57-2.93-1.16-6.36-1.74-10.28-1.74-4.85,0-9.05.83-12.61,2.47-3.57,1.65-6.51,3.82-8.85,6.51-2.34,2.7-4.08,5.74-5.24,9.15-1.16,3.4-1.74,6.86-1.74,10.38,0,2.53.28,5.18.84,7.94.55,2.76,1.54,5.53,2.97,8.31,1.42,2.79,3.35,5.53,5.77,8.25,2.43,2.71,5.51,5.3,9.25,7.74l10.28-13.15c-2.27-1.73-4.15-3.4-5.64-5.01-1.49-1.6-2.68-3.17-3.57-4.7-.89-1.54-1.51-3.07-1.87-4.61-.36-1.53-.54-3.12-.54-4.77,0-1.11.18-2.35.54-3.71.36-1.35.96-2.63,1.8-3.84.85-1.2,1.96-2.21,3.34-3.03,1.38-.83,3.11-1.24,5.21-1.24s4.07.58,5.67,1.74c1.6,1.16,3.07,2.68,4.41,4.57,1.33,1.89,2.61,4.04,3.84,6.44,1.22,2.41,2.53,4.88,3.93,7.41,1.41,2.54,2.98,5.01,4.71,7.41,1.74,2.41,3.81,4.55,6.21,6.45,2.4,1.89,5.21,3.41,8.41,4.57,3.21,1.16,6.97,1.73,11.28,1.73,4.63,0,8.94-.71,12.92-2.13,3.98-1.43,7.45-3.6,10.38-6.51,2.94-2.92,5.24-6.6,6.91-11.05s2.51-9.7,2.51-15.75c0-5.35-.63-10.21-1.87-14.59Z"/>
    <path d="M489.02,212.88c-.42-2-1.17-4.02-2.24-6.04-1.06-2.03-2.51-4.02-4.33-5.98-1.83-1.96-4.14-3.78-6.95-5.47l-9.41,11.88c.84.62,1.66,1.28,2.44,1.97.77.69,1.46,1.45,2.07,2.27.6.82,1.07,1.73,1.43,2.7.36.98.53,2.07.53,3.28,0,1.06-.2,2.16-.6,3.27-.4,1.11-1.02,2.12-1.87,3.03-.84.92-1.92,1.66-3.23,2.24-1.32.58-2.89.87-4.71.87h-31.18v15.29h34.18c2.57,0,4.91-.26,7.04-.78,1.53-.36,2.95-.86,4.25-1.49,3.11-1.52,5.65-3.43,7.61-5.74,1.95-2.32,3.38-4.87,4.27-7.65.89-2.78,1.34-5.44,1.34-7.98,0-1.78-.22-3.67-.64-5.67ZM438.05,242.04c-1.23,0-2.46.05-3.67.14h7.54c-1.23-.09-2.52-.14-3.87-.14ZM380.17,226.9v15.29h69.76v-15.29h-69.76ZM494.9,274.55c-.74-2.71-1.73-5.26-2.98-7.64-1.24-2.38-2.69-4.56-4.33-6.54-1.65-1.98-3.37-3.71-5.14-5.18-2.81-5.38-6.11-9.88-9.92-13.48-.11-.11-.23-.21-.34-.31-3.7-3.47-7.57-6.27-11.61-8.4-3.52-1.87-7.07-3.27-10.65-4.22-.65-.18-1.31-.34-1.97-.49-4.25-.93-8.2-1.4-11.85-1.4-1.73,0-3.45.06-5.14.19-3.23.24-6.39.71-9.48,1.41-4.71,1.07-9.14,2.63-13.28,4.67-4.14,2.05-7.94,4.56-11.38,7.51-.57.49-1.13.99-1.67,1.51-2.75,2.59-5.15,5.46-7.21,8.61-2.47,3.78-4.39,7.95-5.74,12.52-1.36,4.56-2.04,9.47-2.04,14.72,0,4.76.69,9.24,2.07,13.45,1.38,4.2,3.39,7.9,6.04,11.08,2.65,3.18,5.92,5.7,9.81,7.54,3.9,1.85,8.36,2.77,13.39,2.77,4.23,0,7.81-.62,10.75-1.86,2.94-1.25,5.42-2.8,7.44-4.64,2.03-1.85,3.67-3.81,4.94-5.88,1.27-2.07,2.35-3.93,3.24-5.57h.4c.89,1.64,2.09,3.5,3.61,5.57,1.51,2.07,3.39,4.03,5.64,5.88,2.24,1.84,4.88,3.39,7.91,4.64,3.02,1.24,6.47,1.86,10.35,1.86,4.71,0,8.94-.81,12.68-2.43,3.74-1.63,6.91-3.81,9.51-6.54,2.61-2.74,4.6-5.9,5.98-9.48,1.38-3.59,2.07-7.36,2.07-11.32,0-2.98-.37-5.83-1.1-8.55ZM473.03,269.16c0,1.29-.22,2.4-.67,3.34-.44.93-1,1.71-1.66,2.33-.67.63-1.41,1.09-2.21,1.4-.8.32-1.56.47-2.27.47-2,0-3.55-.63-4.64-1.9-1.09-1.27-1.63-2.75-1.63-4.44,0-.76.16-1.54.5-2.34.33-.8.83-1.53,1.5-2.2s1.5-1.22,2.5-1.67c1-.44,2.17-.67,3.51-.67,1.24,0,2.47.23,3.67.67.93,1.69,1.4,3.36,1.4,5.01ZM482.91,285.78c-1.11,2.4-2.58,4.38-4.4,5.94-1.83,1.56-3.93,2.71-6.31,3.44-2.38.73-4.87,1.1-7.45,1.1-3.07,0-5.87-.58-8.41-1.73-2.53-1.16-4.76-2.71-6.67-4.64-1.92-1.94-3.51-4.14-4.78-6.61-1.27-2.47-2.19-5.02-2.77-7.65h-8.54c-.94,2.63-2.12,5.1-3.54,7.41-1.43,2.32-3.02,4.34-4.77,6.08-1.76,1.73-3.64,3.11-5.65,4.14-2,1.02-4.07,1.53-6.2,1.53-2.63,0-4.92-.52-6.88-1.57-1.96-1.04-3.59-2.39-4.91-4.03-1.31-1.65-2.3-3.51-2.97-5.58-.67-2.07-1-4.1-1-6.11,0-5.61,1.14-10.6,3.41-14.99,2.27-4.38,5.29-8.08,9.08-11.11,3.78-3.03,8.08-5.34,12.91-6.94,3.68-1.23,7.45-1.98,11.32-2.27h7.54c2.2.16,4.22.46,6.08.9,2.89.69,5.42,1.51,7.57,2.47,2.16.96,3.94,1.97,5.35,3.03,1.4,1.07,2.45,1.99,3.17,2.74v.47c-2.59.4-4.96,1.16-7.11,2.27-2.16,1.11-4.03,2.5-5.61,4.17-1.58,1.67-2.82,3.59-3.71,5.74-.89,2.16-1.33,4.51-1.33,7.05,0,2.85.48,5.45,1.43,7.81.96,2.36,2.29,4.38,4.01,6.07,1.71,1.69,3.75,3.01,6.11,3.94,2.36.94,4.94,1.4,7.74,1.4,3.96,0,7.58-1.09,10.85-3.27,3.27-2.18,5.8-5.52,7.58-10.01l.53.13c0,3.38-.56,6.28-1.67,8.68Z"/>
  </g>
</svg>