<?xml version="1.0" encoding="UTF-8"?>
<svg id="Layer_1" data-name="Layer 1" xmlns="http://www.w3.org/2000/svg" viewBox="0 0 512 512">
  <defs>
    <style>
      .cls-1 {
        fill: #496e2d;
      }

      .cls-2 {
        fill: #ffda44;
      }

      .cls-3 {
        fill: #a2001d;
      }

      .cls-4 {
        fill: #f0f0f0;
      }

      .cls-5 {
        fill: #d80027;
      }
    </style>
  </defs>
  <g>
    <path class="cls-2" d="M512,256c0,.47,0,.95-.01,1.42,0,.55,0,1.1,0,1.65v.1c0,.18,0,.36-.01.54,0,.21,0,.42,0,.63s-.01.41-.01.61c0,.25,0,.5,0,.76-.01.36-.02.71-.03,1.06,0,.28-.01.57-.02.85,0,.08-.01.16-.01.24,0,.2-.01.4-.02.61-.01.45-.03.89-.05,1.34v.09c-.01.3-.02.6-.04.91-.01.17-.01.33-.02.49-.01.3-.02.59-.04.88,0,.13-.01.27-.02.4,0,.1,0,.21-.01.31-.01.23-.02.46-.04.69,0,.12-.01.24-.02.35-.01.38-.03.76-.06,1.14,0,.07-.01.13-.01.19,0,.08-.01.16-.02.23-.01.12-.01.25-.02.37,0,.08-.01.15-.01.23-.01.2-.02.4-.04.61,0,.06-.01.13-.01.19-.02.34-.04.68-.07,1.02-.01.17-.02.35-.04.53v.05c-.01.25-.03.51-.06.77-.01.15-.02.29-.03.44-.01.11-.01.21-.02.31-.01.04-.01.09-.01.13v.04c-.05.64-.11,1.28-.16,1.92-.06.65-.12,1.3-.18,1.94-.12,1.32-.25,2.64-.4,3.95-.01.19-.03.38-.06.57-.01.14-.03.28-.05.42-.02.23-.05.46-.08.7,0,.09-.01.19-.03.28-.02.15-.03.3-.05.44-.05.43-.1.86-.16,1.29-.01.08-.02.15-.03.23-.05.38-.1.77-.15,1.15-.01.11-.02.21-.04.32-.08.59-.16,1.17-.23,1.75-.03.23-.07.45-.09.68-.02.11-.04.23-.05.34v.04c-.01.05-.01.08-.02.12-.08.55-.15,1.09-.24,1.64,0,.06,0,.12-.03.18,0,.06-.02.12-.03.18-.01.06-.01.12-.02.18,0,.03-.01.06-.01.09-.02.13-.04.26-.06.4-.02.1-.03.2-.05.31-.03.24-.07.47-.11.71-.06.39-.13.79-.19,1.19-.03.18-.06.37-.09.56-.04.23-.08.47-.12.7-.02.16-.05.32-.08.48l-.03.18c-.09.56-.19,1.13-.29,1.68-.01.05-.02.09-.03.14-.02.14-.05.28-.07.42-.07.4-.14.79-.22,1.19-.08.43-.16.87-.24,1.3-.08.45-.17.9-.26,1.35-.01.07-.02.14-.04.21-.02.11-.04.21-.07.32-.04.21-.07.43-.12.64-.07.33-.13.65-.2.98-.01.02-.01.05-.02.07-.02.15-.05.29-.08.43-.1.43-.19.86-.27,1.29-.03.14-.06.28-.09.42-.07.31-.13.62-.2.93-.04.21-.09.41-.13.62-.04.18-.08.36-.12.54-.11.49-.22.98-.34,1.47-.03.19-.08.39-.13.58,0,.04-.01.07-.02.11-.13.57-.26,1.14-.4,1.71-.01.04-.02.07-.03.11-.01.04-.02.07-.03.11-.09.39-.18.77-.27,1.16-.02.1-.05.21-.08.31-.15.6-.29,1.19-.45,1.79-.06.25-.12.51-.19.76-.09.35-.18.69-.27,1.03-.03.11-.06.23-.09.34-.1.38-.2.76-.3,1.15-.06.25-.13.51-.2.76-.06.24-.13.49-.2.73-.07.26-.14.52-.22.78-.09.31-.17.61-.26.92,0,.04-.02.08-.03.12-.16.58-.33,1.16-.49,1.73-.05.17-.1.34-.15.51-.08.28-.17.57-.26.85-.09.34-.19.67-.29,1-.05.17-.1.33-.15.5-.08.27-.17.54-.25.81-.03.08-.05.16-.08.24-.06.2-.12.39-.18.58-.02.06-.03.11-.05.16-.15.48-.3.97-.45,1.46s-.3.98-.46,1.46c-.38,1.16-.76,2.31-1.15,3.46-.36,1.04-.72,2.09-1.09,3.13-.03.11-.07.22-.12.33-.07.21-.15.42-.23.62-.17.49-.35.98-.53,1.46-.14.38-.27.77-.42,1.15-.02.07-.04.13-.07.2-.3.81-.6,1.61-.9,2.41-.02.04-.03.08-.05.12-.24.65-.49,1.29-.75,1.93-.1.25-.2.51-.3.76-.37.92-.74,1.84-1.12,2.76-.19.46-.38.92-.57,1.38-.13.33-.27.66-.42.99,0,.02,0,.04-.01.05-.28.67-.57,1.34-.86,2-.12.28-.24.55-.37.83-.25.59-.51,1.17-.77,1.75-.22.49-.44.98-.66,1.46-.15.33-.3.66-.45.99-.05.1-.1.21-.15.31-.16.36-.32.7-.49,1.05-.16.36-.33.72-.5,1.08h-.01c-.45.95-.91,1.91-1.37,2.86-.47.95-.94,1.9-1.41,2.85-.51,1.01-1.02,2.02-1.53,3.01-.01.02-.02.03-.03.05-.35.68-.71,1.35-1.07,2.03-.09.18-.19.37-.29.55h0s-.02.06-.04.09c-.02.04-.04.08-.06.12-.52.97-1.04,1.94-1.58,2.9-.06.1-.12.21-.18.32-.04.07-.08.14-.12.21-.02.03-.04.07-.05.1,0,.01-.01.01-.01.02-.38.69-.76,1.37-1.16,2.05-.2.36-.41.72-.61,1.08-.21.35-.42.71-.62,1.07-.11.2-.22.39-.34.59-.2.36-.41.72-.63,1.08-.01.03-.03.05-.05.08-.05.1-.11.19-.18.29h0c-.18.32-.37.64-.56.95-.09.15-.18.3-.27.45-.17.28-.34.56-.51.84-.04.06-.08.11-.11.17-.17.29-.34.57-.51.86-.2.33-.41.67-.62,1-.16.26-.33.51-.49.77,0,0,0,0,0,0,0,.01-.01.01-.01.02-.19.31-.38.63-.58.94-.03.06-.07.12-.11.17-.13.22-.27.44-.42.66-.12.19-.24.37-.36.56-.06.09-.12.18-.18.27-.17.28-.35.56-.53.84-.03.05-.06.11-.1.16-.17.27-.35.53-.53.8-.18.27-.36.53-.53.8-.15.24-.31.48-.47.72-.09.14-.18.27-.27.4-.13.19-.25.38-.38.56-.13.21-.27.41-.41.61-.16.23-.31.47-.46.7-.12.17-.23.33-.34.5-.07.1-.14.2-.21.3-.04.05-.07.09-.1.14-.17.24-.33.48-.49.72-.12.16-.23.33-.34.49-.05.07-.09.13-.14.2-.38.54-.75,1.08-1.13,1.61-.09.11-.17.23-.25.34-.01.02-.03.04-.04.06-.17.25-.35.49-.53.74-.01.01-.01.02-.02.03-.01.03-.03.06-.05.08-.02.03-.04.06-.06.09-.03.04-.06.08-.09.12-.31.44-.63.87-.94,1.3-.07.09-.13.19-.21.28-.02.04-.05.08-.08.12-.07.11-.15.22-.23.32-.12.16-.24.32-.35.47-.41.56-.82,1.11-1.23,1.66-.07.09-.13.18-.2.27l-.57.75c-.11.15-.23.31-.35.46-.47.62-.94,1.24-1.42,1.85-.39.51-.79,1.02-1.19,1.52-.28.37-.57.73-.86,1.1-.04.04-.07.09-.11.13-.46.58-.92,1.16-1.39,1.73-.25.31-.5.62-.75.92-.47.57-.94,1.14-1.41,1.7-.25.31-.51.61-.76.92-.08.09-.15.17-.21.25l-.36.42c-.28.33-.56.66-.85.99,0,.01-.01.01-.01.02-.03.04-.06.08-.09.11-.01.01-.02.02-.03.04-.01.01-.03.02-.03.04-.04.03-.07.07-.1.11-.22.25-.44.5-.65.75-.02.02-.04.05-.06.07-.06.07-.13.15-.19.22,0,.01,0,.02,0,.02-.01.01-.02.01-.03.03t-.02.01c-.2.24-.4.47-.61.7-.11.13-.22.27-.34.4-.27.31-.55.62-.82.92-.27.31-.55.62-.83.93h-.01l-190.78,18.55-172.45-16.77,172.45-172.45,73.62-73.62,11.71-11.71,87.12-87.12,18.34,1.78c1.59,1.77,3.15,3.57,4.7,5.39.14.17.28.34.43.51.29.35.58.7.87,1.04.64.78,1.28,1.55,1.91,2.33.64.79,1.27,1.57,1.9,2.36.39.49.78.99,1.17,1.49.25.3.48.61.72.92.1.12.19.25.29.37.25.32.49.64.73.96.11.14.22.28.32.42,1.02,1.34,2.03,2.69,3.03,4.06.02.03.05.07.07.1,1.16,1.59,2.31,3.2,3.44,4.83.01.01.02.01.02.02.6.87,1.2,1.75,1.81,2.64.13.19.27.38.39.58.29.43.58.87.87,1.3.11.16.21.32.32.48.07.11.14.21.21.32.41.62.81,1.24,1.22,1.87,0,.01.02.03.02.04,1.99,3.1,3.93,6.25,5.8,9.44.1.15.18.3.27.45.24.4.48.81.71,1.23.32.54.63,1.08.93,1.62.03.04.05.08.07.12.29.51.58,1.04.87,1.56.01,0,.01.01.01.01.06.11.12.21.18.32.4.72.8,1.46,1.19,2.18.02.02.03.05.04.07,1.35,2.51,2.67,5.03,3.94,7.59.09.17.18.35.26.52.03.06.07.12.09.18.03.05.06.11.09.17.15.32.31.65.47.97.04.08.08.17.12.25.2.4.39.8.59,1.21.02.04.04.09.06.13.04.06.07.12.09.19.03.06.06.13.09.19.03.03.05.07.06.11.08.16.16.32.23.49.02.05.04.09.06.14,0,0,.01.02.02.03.39.84.79,1.68,1.17,2.52.06.12.11.25.17.37.05.11.1.22.15.33.08.16.15.33.23.49.15.33.29.65.44.98.13.29.26.58.39.87.12.25.23.51.34.77.09.22.19.45.29.68.05.11.1.22.15.33.03.06.06.13.09.2.05.09.08.17.12.26l.15.36c.19.44.38.87.55,1.31.06.14.12.28.18.42.21.49.42.98.62,1.47.03.06.05.12.07.18.35.82.69,1.66,1.03,2.49.34.83.66,1.67.99,2.5.07.16.13.32.19.48.2.5.39,1.01.58,1.51.1.26.2.53.3.79.17.45.34.89.5,1.34.1.26.2.53.29.79.06.16.12.32.17.47.25.69.5,1.38.74,2.07.09.24.17.48.25.72.2.54.38,1.08.57,1.62.13.38.25.75.38,1.13.23.66.45,1.33.67,2,.26.8.52,1.6.78,2.41.12.36.23.72.34,1.08.25.78.49,1.56.72,2.34h0c.05.18.1.34.15.51.1.33.2.66.29,1,.06.2.13.4.19.6.03.09.05.17.07.25.09.32.18.64.28.96.08.26.15.53.23.79.02.08.05.17.07.26.03.11.07.23.1.35.13.47.26.94.39,1.41.02.08.05.17.07.25.14.5.27,1,.39,1.5.24.86.47,1.72.69,2.59.21.83.42,1.66.63,2.49.03.14.07.28.1.42.08.32.16.63.22.94.02.05.03.09.03.13.07.23.12.46.17.69.01.02.02.04.02.07.06.24.11.48.16.72.1.4.19.8.28,1.21.01.04.02.07.02.11.08.31.14.61.21.91.04.17.08.34.11.5.04.14.07.28.1.42h0s.02.08.02.11c.03.17.07.34.11.51.01.04.02.07.03.11.05.21.09.41.13.62.02.09.04.19.06.28.06.27.12.53.17.79.01.02.02.05.01.07t.01.02c.04.24.09.5.15.75.09.41.17.81.25,1.22.03.14.06.28.08.43.04.14.07.28.09.42.04.19.08.38.11.57.08.41.17.83.24,1.25.01.05.02.1.03.15.08.42.16.84.23,1.26.03.13.05.27.07.4.07.35.13.7.19,1.05.01.05.02.1.03.15.01.08.03.15.04.23.01.06.02.11.03.17.03.15.06.3.08.45.12.64.22,1.29.33,1.94,0,.02.01.03.01.05.02.11.04.23.06.35.05.35.11.69.16,1.04.03.15.05.3.07.45.02.08.04.17.05.26.05.28.09.56.13.85.04.21.07.43.1.65.03.18.05.36.08.55v.03c.03.16.05.32.07.48.03.15.05.31.07.46.03.17.06.35.08.52.03.22.06.43.09.65.02.11.03.23.05.34.04.28.08.57.11.85.01.08.02.15.03.23.04.33.08.67.13,1.01v.03c.03.25.07.5.1.75.06.5.13.99.19,1.48.02.15.03.29.05.44.01,0,.01.03.01.05.01.08.02.16.03.24h0c.09.8.18,1.59.27,2.38.04.33.07.67.11,1.01v.02c.08.73.15,1.46.22,2.2.03.28.06.56.08.84.04.38.07.76.1,1.14.03.23.05.47.07.71.02.22.04.43.05.65.01.03.01.06.01.09.05.55.09,1.11.13,1.66.01.08.01.17.02.25.05.67.1,1.32.14,1.98.01.06.01.13.01.19.02.19.03.39.04.58,0,.09,0,.17.02.26,0,.06,0,.13,0,.19.02.33.04.66.06.99.01.22.03.45.04.68.02.32.04.65.05.97.01.05.01.1.01.15.01.19.02.38.03.58.02.3.03.6.04.91.01.12.02.25.02.38.03.57.05,1.13.07,1.69v.09c.02.45.04.9.05,1.35v.13c.02.3.03.6.03.9.01.11.01.22.01.33,0,.08.01.16.01.25v.1c0,.14.01.28.01.42v.06c.01.19.01.37.02.56,0,.26,0,.51,0,.76.01.38.02.77.02,1.15,0,.21.01.42.01.63v.2c0,.99.02,1.98.02,2.97Z"/>
    <path d="M446.79,85.33h-20.12l10.33-10.33c3.29,3.27,6.49,6.65,9.6,10.11.07.07.14.15.19.22Z"/>
    <path class="cls-5" d="M512,256l-256,22.26-20.48-1.78,20.48-20.48,73.62-73.62,11.71-11.71h156.08c1.48,4.17,2.85,8.39,4.11,12.65,1.25,4.23,2.39,8.5,3.43,12.81.02.05.03.09.03.13.12.49.23.98.35,1.48.1.4.19.8.28,1.21.01.04.02.07.02.11.08.31.14.61.21.91.04.17.08.34.11.5.04.17.08.35.12.53.03.17.07.34.11.51.05.24.1.48.16.73.02.09.04.19.06.28.06.28.12.57.18.86.05.25.1.51.16.77.09.41.17.81.25,1.22.03.14.06.28.08.43.04.14.07.28.09.42.04.19.08.38.11.57.08.41.17.83.24,1.25.09.47.18.94.26,1.41.03.13.05.27.07.4.07.35.13.7.19,1.05.01.05.02.1.03.15.01.08.03.15.04.23.01.06.02.11.03.17.03.15.06.3.08.45.12.64.22,1.29.33,1.94,0,.02.01.03.01.05,0,.03.01.07.01.1.02.08.03.16.05.25.05.35.11.69.16,1.04.03.15.05.3.07.45.02.08.04.17.05.26.05.28.09.56.13.85.03.22.06.43.1.65.03.18.05.36.08.55v.03c.03.16.05.32.07.48.03.15.05.31.07.46.03.17.06.35.08.52.03.22.06.44.09.65.02.11.03.23.05.34.04.28.08.57.11.85.01.08.02.15.03.23.04.33.08.67.13,1.01.12.9.24,1.8.34,2.7.01,0,.01.03.01.05.01.08.02.16.03.24h0c.09.8.18,1.59.27,2.38.04.33.07.67.11,1.01v.02c.08.73.15,1.46.22,2.2.03.28.06.56.08.84.04.38.07.76.1,1.14.03.23.05.47.07.71.01.11.01.22.02.33.02.11.03.21.03.32.01.03.01.06.01.09.04.55.09,1.1.13,1.66.01.08.01.17.02.25.05.67.1,1.32.14,1.98.01.06.01.13.01.19.02.19.03.39.04.58,0,.09,0,.17.02.26,0,.06,0,.13,0,.19.02.33.04.66.06.99.01.22.03.45.04.68.02.27.03.54.05.82v.15c.01.05.01.1.01.15.01.19.02.38.03.58.02.3.03.6.04.91.01.12.02.25.02.38.03.57.05,1.13.07,1.69v.09c.02.45.04.9.05,1.35v.13c.02.3.03.6.03.9.01.11.01.22.01.33.01.12.01.23.01.35,0,.14.01.28.01.42v.06c.01.15.01.31.01.46.01.04.01.07.01.1,0,.26,0,.51,0,.76.01.38.02.77.02,1.15.01.24.01.49.01.73v.1c0,.99.02,1.98.02,2.97Z"/>
    <path d="M512,256c0,.47,0,.95-.01,1.42,0,.55,0,1.1,0,1.65,0,.21,0,.43-.01.64,0,.21,0,.42,0,.63,0,.2-.01.41-.01.61,0,.25,0,.5,0,.76,0,.03,0,.06-.01.1,0,.32-.01.64-.02.96-.01.36-.02.73-.03,1.09,0,.2-.01.4-.02.61-.01.45-.03.9-.05,1.34v.09c-.01.3-.02.6-.04.91-.01.17-.01.33-.02.49-.01.3-.02.59-.04.88,0,.13-.01.27-.02.4,0,.1,0,.21-.01.31,0,.1-.01.19-.01.28-.01.11-.02.22-.02.33-.03.53-.06,1.05-.09,1.57,0,.07-.01.13-.01.19,0,.08-.01.16-.02.23-.01.12-.01.25-.02.37,0,.08-.01.15-.01.23-.01.2-.02.41-.04.61,0,.06-.01.13-.01.19-.02.34-.04.68-.07,1.02-.01.17-.02.35-.04.53v.05c-.01.25-.03.51-.06.77-.01.15-.02.29-.03.44,0,.06-.01.13-.02.19v.12s-.01.09-.01.13c0,.05,0,.09-.02.13,0,.04,0,.08,0,.12-.04.57-.09,1.14-.13,1.71-.06.65-.12,1.3-.18,1.94-.12,1.32-.25,2.64-.4,3.95-.01.19-.03.38-.06.57-.01.14-.03.28-.05.42-.02.23-.05.46-.08.7,0,.09-.01.19-.03.28-.02.15-.03.3-.05.44-.05.43-.1.86-.16,1.29-.01.08-.02.15-.03.23-.05.38-.1.77-.15,1.15-.01.11-.02.21-.04.32-.08.59-.16,1.17-.23,1.75-.03.23-.07.45-.09.68-.02.11-.04.23-.05.34v.04c-.01.05-.01.08-.02.12-.08.55-.15,1.09-.24,1.64,0,.06,0,.12-.03.18-.01.12-.03.24-.05.36,0,.03-.01.06-.01.09-.02.13-.04.26-.06.4-.02.1-.03.2-.05.31-.03.24-.07.47-.11.71-.06.39-.13.79-.19,1.19-.03.19-.06.38-.09.56-.04.23-.08.47-.12.7-.02.16-.05.32-.08.48l-.03.18c-.09.56-.19,1.13-.29,1.68-.01.05-.02.09-.03.14-.09.54-.19,1.07-.29,1.61-.08.43-.16.87-.24,1.3-.08.45-.17.9-.26,1.35-.01.07-.02.14-.04.21-.02.11-.04.21-.07.32-.04.21-.07.43-.12.64-.07.33-.13.65-.2.98-.03.17-.07.34-.1.5-.1.43-.19.86-.27,1.29-.03.14-.06.28-.09.42-.07.31-.13.62-.2.93-.19.88-.39,1.76-.59,2.63-.03.19-.08.39-.13.58-.16.68-.32,1.36-.48,2.04-1.04,4.36-2.2,8.67-3.46,12.94-.25.85-.51,1.7-.77,2.55-.06.2-.12.39-.18.58-.02.06-.03.11-.05.16-.98,3.15-2.02,6.27-3.11,9.36H170.67l85.33-85.33h256Z"/>
    <path class="cls-5" d="M446.79,426.67c-.1.1-.19.21-.28.31-.09.1-.18.21-.28.31-.2.23-.42.47-.63.7-.49.55-.98,1.09-1.49,1.63h-.01c-.07.09-.14.16-.21.23-.23.25-.46.49-.68.74-.03.03-.06.07-.1.1-.33.35-.67.71-1,1.06-.03.03-.05.05-.08.08-.61.65-1.23,1.31-1.85,1.96-.05.05-.1.09-.14.14-1.25,1.28-2.5,2.55-3.76,3.8-.41.41-.83.83-1.25,1.23-.65.64-1.31,1.28-1.97,1.91-.28.27-.56.53-.83.79-.55.52-1.1,1.04-1.66,1.57-.03.02-.05.05-.08.07-.58.55-1.17,1.09-1.76,1.62-.54.5-1.08.99-1.63,1.48-1.83,1.64-3.68,3.26-5.55,4.85-.36.31-.74.62-1.11.94-.23.19-.46.38-.69.58-.49.4-.98.81-1.48,1.22-.85.69-1.7,1.39-2.56,2.07-.52.41-1.04.83-1.57,1.24-.16.13-.32.26-.49.39-.16.13-.33.26-.49.39-.28.21-.56.43-.84.65-.53.41-1.06.81-1.6,1.22-.12.09-.25.19-.37.28-.29.22-.58.44-.87.66-.29.21-.58.43-.88.66-.08.05-.16.11-.24.17-.53.39-1.05.78-1.58,1.16-.74.54-1.48,1.07-2.22,1.61-.65.46-1.3.93-1.96,1.38-.62.43-1.25.87-1.87,1.3-.08.05-.16.11-.24.17-.24.16-.47.32-.71.48-1.82,1.24-3.66,2.46-5.51,3.65-.55.35-1.1.7-1.65,1.05-.07.05-.15.09-.22.13-.61.38-1.21.77-1.83,1.14-.68.42-1.36.84-2.05,1.26-.4.25-.81.49-1.22.74-.4.25-.81.49-1.21.73-.25.14-.51.29-.76.44-.79.47-1.58.93-2.38,1.38-.14.09-.29.17-.43.25-.31.18-.63.35-.94.52-.23.14-.46.26-.69.39-.51.29-1.02.57-1.53.85-.04.02-.08.04-.12.07-1.08.6-2.17,1.19-3.27,1.77-.27.14-.53.28-.8.42-.18.11-.37.21-.56.3-.13.07-.27.14-.4.21-.05.03-.09.05-.14.08-.29.15-.58.3-.88.45-.5.25-1,.51-1.5.76h-.01c-.3.16-.6.32-.91.47-.15.08-.3.15-.45.23-.11.06-.22.11-.33.16,0,0-.02.01-.03.01-.43.21-.85.42-1.28.64-.14.07-.27.14-.41.2-.3.15-.6.3-.91.44-.76.37-1.52.74-2.28,1.09-.3.15-.6.29-.9.43-.58.27-1.16.54-1.74.8-.18.09-.36.17-.54.25-.67.31-1.34.61-2.01.9-.55.25-1.1.49-1.65.73-.2.09-.4.17-.6.26-.95.41-1.91.82-2.86,1.21-.18.08-.37.16-.56.24-.56.24-1.12.47-1.69.7-.75.31-1.51.61-2.27.91-.11.04-.21.08-.32.12-.9.36-1.81.71-2.71,1.06-.91.35-1.82.69-2.73,1.03-.11.04-.23.08-.34.12-1.09.4-2.18.79-3.28,1.17-.62.22-1.24.44-1.87.65-.55.19-1.09.38-1.64.56-.61.21-1.23.41-1.85.61-.81.27-1.62.53-2.43.78-.4.13-.8.25-1.21.37-.51.17-1.03.33-1.55.48-.42.13-.85.26-1.28.39-.09.02-.18.05-.27.08-.72.22-1.44.43-2.17.63-.72.21-1.45.41-2.17.61-.58.16-1.15.32-1.72.47-.15.05-.31.09-.46.13-.73.2-1.46.38-2.19.57-.55.14-1.1.28-1.65.42-.61.15-1.21.31-1.82.45-.02,0-.04.01-.06.01-.58.15-1.17.28-1.76.42-.37.09-.73.17-1.1.25-.05.01-.1.02-.16.03-.76.18-1.52.36-2.29.53l-1.11.24c-.37.09-.74.17-1.12.24-.74.16-1.48.31-2.23.46-.07.01-.15.03-.22.04-1.4.29-2.8.56-4.21.81-.02,0-.04,0-.06,0-.46.09-.92.17-1.38.25-.6.11-1.19.21-1.78.31-.61.11-1.21.21-1.82.3-.27.04-.53.08-.78.12-.85.15-1.7.28-2.56.4-.25.03-.49.07-.74.11-.18.03-.36.05-.54.08-.13.02-.27.04-.4.06-.45.06-.89.12-1.34.18-.52.07-1.05.14-1.58.2-.11.02-.23.04-.34.05-.11.02-.23.03-.34.05-.03,0-.05.01-.08.01-.08,0-.16.02-.24.03-.23.03-.46.06-.69.08-.52.07-1.04.13-1.56.19s-1.05.12-1.58.18c-.4.05-.8.09-1.2.13-.18.02-.35.04-.53.06-.1.01-.2.02-.3.03-.57.06-1.15.12-1.73.17-.22.02-.44.04-.67.06-.59.06-1.18.12-1.78.17-.21.02-.42.04-.63.05-.69.06-1.37.11-2.06.16-.58.05-1.15.09-1.73.13-.05,0-.1,0-.15,0-.62.05-1.24.09-1.87.12-.33.03-.66.05-1,.06-.33.02-.67.04-1,.06h-.03c-.49.03-.97.05-1.45.07-.13.01-.27.02-.41.02h-.1c-.11,0-.2.01-.31.01-.12.01-.23.02-.34.02-.29.02-.58.03-.87.04-.21.01-.41.02-.61.02-.14,0-.28,0-.41,0-.02,0-.05,0-.08.01-.07,0-.14,0-.21.01-.54.02-1.08.04-1.62.05-.26.01-.53.02-.79.02-.27.01-.54.01-.8.02-.42.01-.83.02-1.25.03-.25,0-.49.01-.74.01h-.24c-1.2.02-2.41.03-3.62.03-.98,0-1.96,0-2.93-.02-.49-.01-.98-.01-1.47-.02s-.97-.01-1.46-.03c-.85-.02-1.69-.04-2.54-.07-.57-.02-1.15-.04-1.73-.06-.33-.01-.67-.02-1-.04-.55-.02-1.1-.05-1.64-.08-.51-.02-1.02-.05-1.53-.08-.83-.04-1.67-.09-2.5-.15-.57-.03-1.14-.07-1.71-.12-.26-.01-.53-.03-.79-.05-.59-.04-1.18-.09-1.77-.14-.24-.02-.47-.04-.71-.06h-.03c-.62-.05-1.24-.1-1.86-.16-.3-.03-.61-.06-.91-.09-.17-.01-.34-.03-.51-.05-.33-.03-.67-.06-1-.1-.71-.07-1.41-.14-2.12-.22-.04,0-.09-.01-.14-.02-.51-.06-1.02-.11-1.53-.17-.51-.05-1.01-.11-1.52-.18-.03,0-.06,0-.1-.01-.16-.02-.32-.04-.47-.06-.89-.11-1.78-.23-2.66-.35-.65-.09-1.3-.18-1.95-.27-.46-.06-.92-.13-1.38-.2-.05,0-.1,0-.15-.02-.72-.11-1.44-.22-2.16-.34-.94-.15-1.87-.3-2.8-.46-.09-.01-.18-.03-.27-.04-.4-.06-.8-.13-1.19-.21l-.18-.03c-.05,0-.09-.01-.14-.02-.17-.03-.34-.06-.51-.09-.17-.03-.34-.07-.51-.1-.65-.11-1.3-.23-1.94-.35-.09-.02-.18-.03-.27-.05-1.51-.29-3.02-.59-4.52-.91-1.01-.2-2.03-.42-3.04-.65-.6-.13-1.21-.27-1.81-.41-.46-.1-.91-.2-1.36-.31-.45-.11-.9-.22-1.36-.33-1.07-.26-2.15-.52-3.21-.79-.08-.02-.15-.04-.23-.06l-.24-.06c-.43-.11-.86-.22-1.28-.34-.35-.09-.69-.18-1.04-.27-.59-.15-1.17-.31-1.76-.47-.4-.11-.81-.23-1.21-.34-.7-.19-1.4-.39-2.1-.6-.14-.04-.28-.07-.42-.12-.21-.05-.42-.11-.63-.18-.35-.1-.7-.21-1.05-.31-.16-.04-.31-.09-.46-.14-.12-.04-.25-.08-.37-.12-.5-.14-1-.3-1.49-.45-.02-.01-.04-.01-.06-.02-.16-.05-.32-.1-.48-.15h-.01c-.27-.08-.54-.17-.81-.25-.07-.02-.15-.04-.22-.07-.21-.07-.43-.14-.64-.21-.45-.14-.89-.28-1.34-.43-.45-.14-.89-.29-1.33-.43-.12-.04-.25-.08-.37-.12-.14-.05-.27-.09-.41-.14-.91-.31-1.82-.62-2.72-.93-.49-.17-.98-.34-1.47-.52-.45-.15-.91-.32-1.37-.49-.23-.08-.45-.16-.68-.25-.5-.18-.99-.38-1.48-.56h0c-.38-.13-.76-.28-1.14-.43-.7-.26-1.4-.53-2.1-.8-.09-.03-.19-.06-.28-.1-.79-.3-1.58-.61-2.37-.93-.61-.24-1.23-.48-1.83-.73-.14-.05-.27-.11-.41-.16-.83-.34-1.65-.68-2.47-1.03-.05-.02-.1-.05-.15-.07-.13-.06-.25-.11-.38-.17-.28-.12-.56-.24-.84-.36-.81-.34-1.61-.69-2.4-1.05-.46-.2-.91-.4-1.36-.6-.1-.05-.19-.09-.28-.13-.1-.04-.2-.08-.29-.12-.15-.06-.3-.13-.45-.2-.15-.07-.3-.14-.45-.21-.65-.29-1.29-.59-1.93-.89-1.07-.5-2.13-1-3.18-1.52-.35-.17-.69-.33-1.04-.5-1.83-.9-3.64-1.81-5.44-2.75-.12-.06-.25-.12-.37-.19-.36-.19-.71-.37-1.07-.55-.05-.02-.09-.05-.14-.08-.19-.1-.37-.2-.56-.3-.21-.11-.43-.23-.64-.35-.34-.18-.68-.37-1.03-.56-.3-.15-.6-.32-.9-.49-.55-.29-1.11-.6-1.66-.9-.92-.51-1.83-1.03-2.74-1.55-1.92-1.1-3.82-2.22-5.71-3.36-.2-.11-.4-.24-.6-.36-.23-.13-.45-.27-.66-.41-.22-.13-.44-.27-.66-.41-.1-.06-.19-.12-.28-.17-.21-.13-.42-.25-.62-.39-.93-.58-1.86-1.18-2.79-1.77-1.24-.8-2.47-1.61-3.69-2.42-.89-.6-1.78-1.2-2.66-1.8-.01,0-.01-.01-.02-.01-2.63-1.81-5.23-3.67-7.8-5.57-.64-.48-1.28-.96-1.92-1.44-.05-.04-.1-.08-.15-.12-1.75-1.32-3.48-2.68-5.2-4.05-1.35-1.07-2.68-2.16-4-3.26-.01,0-.02-.01-.02-.01-.31-.26-.62-.51-.92-.77-.05-.04-.11-.09-.16-.14-2.52-2.12-5-4.29-7.43-6.51-.81-.74-1.62-1.48-2.42-2.23-.2-.18-.4-.36-.59-.55-.61-.57-1.21-1.14-1.81-1.72-1.33-1.27-2.64-2.55-3.94-3.87l10.33-10.33h361.46Z"/>
  </g>
  <g>
    <path class="cls-4" d="M437.02,74.98l-79.16,79.16-23.95,23.95-57.31,57.31-3.9,3.9-33.39,33.39-3.9,3.9-12.55,12.55-22.51,22.51-22.26,22.26-33.39,33.39-69.71,69.71c-.44-.43-.88-.87-1.32-1.32-1-1.01-1.99-2.03-2.98-3.06-.02-.04-.06-.07-.09-.1-1.01-1.07-2.02-2.14-3.01-3.22-1-1.08-1.98-2.18-2.96-3.27-.06-.07-.12-.14-.18-.2-.91-1.04-1.82-2.08-2.72-3.13-.96-1.11-1.91-2.23-2.85-3.37-1.88-2.26-3.72-4.56-5.51-6.89-.85-1.08-1.68-2.18-2.51-3.28-.06-.09-.13-.19-.2-.27-.87-1.17-1.73-2.35-2.58-3.53-.86-1.19-1.71-2.4-2.55-3.61-.84-1.21-1.67-2.43-2.49-3.66-.82-1.22-1.63-2.46-2.43-3.7-.8-1.24-1.58-2.49-2.36-3.74-.78-1.26-1.55-2.52-2.3-3.79-.76-1.27-1.51-2.55-2.24-3.83-.74-1.29-1.46-2.58-2.18-3.88-1.42-2.59-2.81-5.22-4.15-7.87-.66-1.32-1.32-2.65-1.97-3.99-5.2-10.73-9.64-21.89-13.31-33.39h0c-.27-.86-.54-1.72-.8-2.58-.51-1.68-1.01-3.36-1.49-5.05-.03-.1-.05-.2-.08-.3-.18-.63-.36-1.26-.53-1.89-.04-.14-.08-.28-.12-.42-.27-.99-.54-1.98-.8-2.98-.17-.64-.33-1.28-.5-1.92-.1-.4-.2-.81-.3-1.21-.2-.79-.39-1.58-.58-2.37-.18-.79-.37-1.58-.55-2.38-.36-1.59-.7-3.19-1.04-4.79-.33-1.6-.64-3.2-.95-4.81-.45-2.46-.88-4.93-1.27-7.41-.12-.77-.24-1.54-.35-2.31-.12-.81-.23-1.62-.35-2.43-.22-1.65-.43-3.29-.62-4.95-.1-.82-.19-1.65-.28-2.47-.08-.71-.15-1.42-.22-2.13-.11-1.08-.21-2.16-.3-3.25-.08-.85-.15-1.71-.21-2.56-.08-1.04-.16-2.08-.22-3.12-.01-.1-.01-.2-.02-.31-.04-.69-.09-1.38-.12-2.08-.03-.51-.06-1.02-.08-1.53-.09-1.79-.16-3.59-.21-5.4-.02-.59-.03-1.19-.04-1.79-.02-.79-.03-1.58-.04-2.38-.01-1.03-.02-2.06-.02-3.09s.01-2.06.02-3.09c.01-.8.02-1.59.04-2.38.01-.6.02-1.2.04-1.79.05-1.81.12-3.61.21-5.4.02-.51.05-1.02.08-1.53.03-.7.08-1.39.12-2.08.01-.11.01-.21.02-.31.06-1.04.14-2.08.22-3.12.06-.85.13-1.71.21-2.56.09-1.09.19-2.17.3-3.25.07-.71.14-1.42.22-2.13.09-.82.18-1.65.28-2.47.19-1.66.4-3.3.62-4.95.12-.81.23-1.62.35-2.43.11-.77.23-1.54.35-2.31.39-2.48.82-4.95,1.27-7.41.31-1.61.62-3.21.95-4.81.34-1.6.68-3.2,1.04-4.79.18-.8.37-1.59.55-2.38.19-.79.38-1.58.58-2.37.11-.44.21-.87.33-1.31.15-.61.31-1.22.47-1.83.26-.99.53-1.98.8-2.97.09-.33.18-.65.27-.98.62-2.23,1.26-4.46,1.95-6.67.26-.87.53-1.73.8-2.59h0c3.67-11.5,8.11-22.66,13.31-33.39.65-1.34,1.31-2.67,1.97-3.99,1.34-2.65,2.73-5.28,4.15-7.87.72-1.3,1.44-2.59,2.18-3.88.73-1.28,1.48-2.56,2.24-3.83.75-1.27,1.52-2.53,2.3-3.79.78-1.25,1.56-2.5,2.36-3.74.8-1.25,1.61-2.48,2.43-3.71.82-1.22,1.65-2.44,2.49-3.65.84-1.21,1.69-2.42,2.55-3.61.85-1.19,1.71-2.36,2.58-3.53.07-.09.14-.18.2-.27.83-1.1,1.66-2.2,2.51-3.29.9-1.16,1.81-2.32,2.73-3.47.78-.97,1.57-1.94,2.36-2.91.29-.34.57-.69.86-1.03.69-.83,1.39-1.66,2.09-2.48,1.07-1.24,2.14-2.47,3.22-3.69.98-1.1,1.96-2.19,2.96-3.27.99-1.08,2-2.16,3.01-3.22.03-.03.07-.07.09-.1.96-1,1.92-1.99,2.89-2.98.09-.08.18-.17.26-.26.98-.99,1.96-1.97,2.95-2.94,1.05-1.03,2.11-2.05,3.18-3.06.93-.89,1.87-1.76,2.82-2.63.22-.2.43-.4.64-.6.91-.82,1.81-1.64,2.73-2.45,1.36-1.2,2.72-2.39,4.1-3.56.77-.65,1.54-1.3,2.32-1.94,1.52-1.27,3.06-2.52,4.62-3.75.56-.45,1.12-.89,1.69-1.33.49-.39.99-.77,1.49-1.15,1.22-.94,2.45-1.87,3.69-2.78.89-.65,1.78-1.3,2.68-1.94.35-.27.71-.52,1.06-.77.99-.7,1.99-1.4,2.99-2.09,1.21-.84,2.43-1.67,3.66-2.48,1.18-.79,2.37-1.56,3.56-2.33,6.26-4.01,12.71-7.77,19.34-11.23.69-.37,1.39-.73,2.1-1.09.92-.47,1.84-.94,2.77-1.4.92-.46,1.85-.91,2.79-1.36.93-.45,1.86-.9,2.8-1.33.94-.44,1.88-.88,2.83-1.3.75-.34,1.5-.68,2.25-1.01,2.1-.93,4.21-1.82,6.34-2.69.81-.33,1.64-.66,2.46-.99.22-.09.44-.18.67-.26.89-.35,1.78-.7,2.68-1.04.97-.37,1.95-.74,2.93-1.09h.01c.98-.37,1.96-.72,2.94-1.06.97-.34,1.94-.68,2.91-1.01,4.02-1.36,8.09-2.63,12.2-3.79.93-.26,1.86-.52,2.79-.78,3.15-.85,6.33-1.65,9.53-2.38.97-.23,1.95-.45,2.93-.66.85-.18,1.7-.37,2.56-.54,1.22-.26,2.45-.5,3.69-.74,1.01-.19,2.02-.38,3.04-.56.41-.08.83-.15,1.25-.22,1.51-.27,3.02-.52,4.54-.75.31-.05.61-.1.92-.14.82-.13,1.64-.25,2.46-.36,1.21-.18,2.43-.34,3.65-.49,1.06-.14,2.13-.27,3.21-.39,1.95-.22,3.91-.43,5.87-.6.46-.05.91-.09,1.36-.12.82-.07,1.64-.14,2.46-.2,1.09-.09,2.17-.16,3.26-.23.75-.05,1.51-.09,2.26-.13.68-.04,1.36-.08,2.03-.1.75-.04,1.5-.07,2.25-.1.64-.03,1.28-.05,1.92-.06.29-.02.58-.03.87-.03.5-.02,1.01-.03,1.51-.04.66-.01,1.31-.03,1.97-.03,1.21-.02,2.42-.03,3.63-.03s2.42.01,3.63.03c.66,0,1.31.02,1.97.03.51.01,1.01.02,1.51.04.29,0,.58.01.87.03.64.01,1.28.03,1.92.06.74.03,1.48.06,2.21.09.69.03,1.38.07,2.07.11.75.04,1.51.08,2.26.13,1.09.07,2.18.14,3.26.23.82.06,1.64.13,2.46.2.46.03.91.07,1.36.12,1.97.18,3.94.38,5.9.6,1.06.12,2.13.25,3.19.39,1.27.16,2.54.33,3.8.51.76.11,1.51.22,2.27.33.32.05.64.1.95.15,1.52.24,3.04.49,4.55.75.46.08.93.16,1.39.25.97.17,1.93.35,2.9.53,1.23.24,2.46.48,3.69.74.85.17,1.7.36,2.56.54.98.21,1.95.43,2.93.66,3.2.73,6.38,1.53,9.53,2.39.89.24,1.77.48,2.65.73,5.15,1.46,10.24,3.07,15.25,4.84.98.34,1.95.69,2.93,1.05.01,0,.02,0,.02.01.98.35,1.95.72,2.93,1.09.97.37,1.95.75,2.91,1.13.14.05.29.11.44.17.82.33,1.64.66,2.46.99,2.89,1.18,5.76,2.41,8.59,3.7,1.89.85,3.77,1.73,5.63,2.63.93.45,1.86.9,2.79,1.36.93.46,1.85.93,2.77,1.4,1.4.71,2.79,1.44,4.16,2.18.62.33,1.24.67,1.86,1.01.65.35,1.3.71,1.94,1.07.52.29,1.04.58,1.56.88,2.06,1.16,4.1,2.35,6.12,3.58.63.38,1.26.77,1.89,1.15.63.39,1.25.78,1.88,1.17,1.88,1.18,3.74,2.38,5.58,3.61,2.46,1.63,4.88,3.31,7.28,5.02,1.14.82,2.28,1.64,3.4,2.48,1.5,1.11,2.99,2.23,4.46,3.37.71.55,1.42,1.11,2.12,1.67,1.56,1.23,3.1,2.48,4.62,3.75.83.68,1.65,1.37,2.46,2.06.21.17.41.35.61.52,2.06,1.76,4.08,3.55,6.08,5.37.25.24.5.47.75.69.77.71,1.54,1.43,2.3,2.15.34.32.67.64,1.01.95.87.83,1.73,1.66,2.58,2.5.3.29.6.59.9.89.31.3.61.6.91.9Z"/>
    <path d="M435.21,73.19c.6.59,1.2,1.18,1.8,1.8l-69.71,69.71H25.41c.65-1.34,1.31-2.67,1.97-3.99,1.34-2.65,2.73-5.28,4.15-7.87.72-1.3,1.44-2.59,2.18-3.88.73-1.28,1.48-2.56,2.24-3.83.75-1.27,1.52-2.53,2.3-3.79.78-1.25,1.56-2.5,2.36-3.74.8-1.25,1.61-2.48,2.43-3.71.82-1.22,1.65-2.44,2.49-3.65.84-1.21,1.69-2.42,2.55-3.61.85-1.19,1.71-2.36,2.58-3.53.07-.09.14-.18.2-.27.83-1.1,1.66-2.2,2.51-3.29.9-1.16,1.81-2.32,2.73-3.47.78-.97,1.57-1.94,2.36-2.91.29-.34.57-.69.86-1.03.69-.83,1.39-1.66,2.09-2.48,1.07-1.24,2.14-2.47,3.22-3.69.98-1.1,1.96-2.19,2.96-3.27.99-1.08,2-2.16,3.01-3.22.03-.03.07-.07.09-.1.96-1,1.92-1.99,2.89-2.98.09-.08.18-.17.26-.26.98-.99,1.96-1.97,2.95-2.94,1.05-1.03,2.11-2.05,3.18-3.06.93-.89,1.87-1.76,2.82-2.63.22-.2.43-.4.64-.6.91-.82,1.81-1.64,2.73-2.45,1.36-1.2,2.72-2.39,4.1-3.56.77-.65,1.54-1.3,2.32-1.94,1.52-1.27,3.06-2.52,4.62-3.75.56-.45,1.12-.89,1.69-1.33.49-.39.99-.77,1.49-1.15,1.22-.94,2.45-1.87,3.69-2.78.89-.65,1.78-1.3,2.68-1.94.35-.27.71-.52,1.06-.77.99-.7,1.99-1.4,2.99-2.09,1.21-.84,2.43-1.67,3.66-2.48,1.18-.79,2.37-1.56,3.56-2.33,6.26-4.01,12.71-7.77,19.34-11.23.69-.37,1.39-.73,2.1-1.09.92-.47,1.84-.94,2.77-1.4.92-.46,1.85-.91,2.79-1.36.93-.45,1.86-.9,2.8-1.33.94-.44,1.88-.88,2.83-1.3.75-.34,1.5-.68,2.25-1.01,2.1-.93,4.21-1.82,6.34-2.69.81-.33,1.64-.66,2.46-.99.22-.09.44-.18.67-.26.89-.35,1.78-.7,2.68-1.04.97-.37,1.95-.74,2.93-1.09h.01c.98-.37,1.96-.72,2.94-1.06.97-.34,1.94-.68,2.91-1.01,4.02-1.36,8.09-2.63,12.2-3.79.93-.26,1.86-.52,2.79-.78,3.15-.85,6.33-1.65,9.53-2.38.97-.23,1.95-.45,2.93-.66.85-.18,1.7-.37,2.56-.54,1.22-.26,2.45-.5,3.69-.74,1.01-.19,2.02-.38,3.04-.56.41-.08.83-.15,1.25-.22,1.51-.27,3.02-.52,4.54-.75.31-.05.61-.1.92-.14.82-.13,1.64-.25,2.46-.36,1.21-.18,2.43-.34,3.65-.49,1.06-.14,2.13-.27,3.21-.39,1.95-.22,3.91-.43,5.87-.6.46-.05.91-.09,1.36-.12.82-.07,1.64-.14,2.46-.2,1.09-.09,2.17-.16,3.26-.23.75-.05,1.51-.09,2.26-.13.68-.04,1.36-.08,2.03-.1.75-.04,1.5-.07,2.25-.1.64-.03,1.28-.05,1.92-.06.29-.02.58-.03.87-.03.5-.02,1.01-.03,1.51-.04.66-.01,1.31-.03,1.97-.03,1.21-.02,2.42-.03,3.63-.03s2.42.01,3.63.03c.66,0,1.31.02,1.97.03.51.01,1.01.02,1.51.04.29,0,.58.01.87.03.64.01,1.28.03,1.92.06.74.03,1.48.06,2.21.09.69.03,1.38.07,2.07.11.75.04,1.51.08,2.26.13,1.09.07,2.18.14,3.26.23.82.06,1.64.13,2.46.2.46.03.91.07,1.36.12,1.97.18,3.94.38,5.9.6,1.06.12,2.13.25,3.19.39,1.27.16,2.54.33,3.8.51.76.11,1.51.22,2.27.33.32.05.64.1.95.15,1.52.24,3.04.49,4.55.75.46.08.93.16,1.39.25.97.17,1.93.35,2.9.53,1.23.24,2.46.48,3.69.74.85.17,1.7.36,2.56.54.98.21,1.95.43,2.93.66,3.2.73,6.38,1.53,9.53,2.39.89.24,1.77.48,2.65.73,5.15,1.46,10.24,3.07,15.25,4.84.98.34,1.95.69,2.93,1.05.01,0,.02,0,.02.01.98.35,1.95.72,2.93,1.09.97.37,1.95.75,2.91,1.13.14.05.29.11.44.17.82.33,1.64.66,2.46.99,2.89,1.18,5.76,2.41,8.59,3.7,1.89.85,3.77,1.73,5.63,2.63.93.45,1.86.9,2.79,1.36.93.46,1.85.93,2.77,1.4,1.4.71,2.79,1.44,4.16,2.18.62.33,1.24.67,1.86,1.01.65.35,1.3.71,1.94,1.07.52.29,1.04.58,1.56.88,2.06,1.16,4.1,2.35,6.12,3.58.63.38,1.26.77,1.89,1.15.63.39,1.25.78,1.88,1.17,1.88,1.18,3.74,2.38,5.58,3.61,2.46,1.63,4.88,3.31,7.28,5.02,1.14.82,2.28,1.64,3.4,2.48,1.5,1.11,2.99,2.23,4.46,3.37.71.55,1.42,1.11,2.12,1.67,1.56,1.23,3.1,2.48,4.62,3.75.83.68,1.65,1.37,2.46,2.06.21.17.41.35.61.52,2.06,1.76,4.08,3.55,6.08,5.37.25.24.5.47.75.69.77.71,1.54,1.43,2.3,2.15.34.32.67.64,1.01.95.87.83,1.73,1.66,2.58,2.5Z"/>
    <path class="cls-1" d="M144.7,367.3l-69.71,69.71c-.44-.43-.88-.87-1.32-1.32-1-1.01-1.99-2.03-2.98-3.06-.02-.04-.06-.07-.09-.1-1.01-1.07-2.02-2.14-3.01-3.22-1-1.08-1.98-2.18-2.96-3.27-.06-.07-.12-.14-.18-.2-.91-1.04-1.82-2.08-2.72-3.13-.96-1.11-1.91-2.23-2.85-3.37-1.87-2.26-3.71-4.56-5.51-6.89-.85-1.08-1.68-2.18-2.51-3.28-.06-.09-.13-.19-.2-.27-.87-1.17-1.73-2.35-2.58-3.53-.86-1.19-1.71-2.4-2.55-3.61-.84-1.21-1.67-2.43-2.49-3.66-.82-1.22-1.63-2.46-2.43-3.7-.8-1.24-1.58-2.49-2.36-3.74-.78-1.26-1.55-2.52-2.3-3.79-.76-1.27-1.51-2.55-2.24-3.83-.74-1.29-1.46-2.58-2.18-3.88-1.42-2.59-2.81-5.22-4.15-7.87-.66-1.32-1.32-2.65-1.97-3.99h119.29Z"/>
    <path class="cls-3" d="M333.91,178.09l-57.31,57.31-3.9,3.9-33.39,33.39-3.9,3.9-12.55,12.55-22.51,22.51-22.26,22.26H12.09c-.27-.86-.54-1.72-.8-2.58-.51-1.68-1.01-3.36-1.49-5.05-.03-.1-.05-.2-.08-.3-.18-.63-.36-1.26-.53-1.9-.04-.14-.08-.28-.12-.42-.27-.99-.54-1.98-.8-2.98-.17-.64-.33-1.28-.5-1.92-.1-.4-.2-.81-.3-1.21-.2-.79-.39-1.58-.58-2.37-.18-.79-.37-1.58-.55-2.38-.36-1.59-.7-3.19-1.04-4.79-.33-1.6-.64-3.2-.95-4.81-.45-2.46-.88-4.93-1.27-7.41-.12-.77-.24-1.54-.35-2.31-.12-.81-.23-1.62-.35-2.43-.22-1.65-.43-3.29-.62-4.95-.1-.82-.19-1.65-.28-2.47-.08-.71-.15-1.42-.22-2.13-.11-1.08-.21-2.16-.3-3.25-.08-.85-.15-1.71-.21-2.56-.08-1.04-.16-2.08-.22-3.12-.01-.1-.01-.2-.02-.31-.04-.69-.09-1.38-.12-2.08-.03-.51-.06-1.02-.08-1.53-.09-1.79-.16-3.59-.21-5.4-.02-.59-.03-1.19-.04-1.79-.02-.79-.03-1.58-.04-2.38-.01-1.03-.02-2.06-.02-3.09s.01-2.06.02-3.09c.01-.8.02-1.59.04-2.38.01-.6.02-1.2.04-1.79.05-1.81.12-3.61.21-5.4.02-.51.05-1.02.08-1.53.03-.7.08-1.39.12-2.08.01-.11.01-.21.02-.31.06-1.04.14-2.08.22-3.12.06-.85.13-1.71.21-2.56.09-1.09.19-2.17.3-3.25.07-.71.14-1.42.22-2.13.09-.82.18-1.65.28-2.47.19-1.66.4-3.3.62-4.95.12-.81.23-1.62.35-2.43.11-.77.23-1.54.35-2.31.39-2.48.82-4.95,1.27-7.41.31-1.61.62-3.21.95-4.81.34-1.6.68-3.2,1.04-4.79.18-.8.37-1.59.55-2.38.19-.79.38-1.58.58-2.37.11-.44.21-.87.33-1.31.15-.61.31-1.22.47-1.83.26-.99.53-1.98.8-2.97.09-.33.18-.65.27-.98.62-2.23,1.26-4.46,1.95-6.67.26-.87.53-1.73.8-2.59h321.82Z"/>
    <g>
      <polygon class="cls-4" points="335.72 118.3 323.96 144.7 309.92 176.22 309.09 178.09 289.16 222.84 276.6 235.4 272.7 239.3 239.31 272.69 235.41 276.59 222.86 289.14 235.41 260.96 237.62 256 235.41 251.04 202.92 178.09 202.09 176.22 188.05 144.7 176.29 118.3 206.61 104.31 224.3 144.37 224.45 144.7 235.41 169.53 239.19 178.09 239.31 178.36 256 216.16 272.7 178.35 272.81 178.09 276.6 169.52 287.56 144.7 287.71 144.37 305.4 104.31 335.72 118.3"/>
      <path class="cls-4" d="M276.6,131.49v103.91l-3.9,3.9-33.39,33.39-3.9,3.9v-145.09c.2-.22.4-.44.6-.66.38-.41.75-.81,1.12-1.21.74-.79,1.47-1.56,2.18-2.31,9.74-10.24,16.69-16.02,16.69-16.02,0,0,6.95,5.78,16.7,16.01h0c1.26,1.33,2.57,2.72,3.9,4.18Z"/>
    </g>
    <g>
      <path class="cls-3" d="M239.31,127.32v145.37l-3.9,3.9-12.55,12.55-22.51,22.51v-132.41c.22-.38.44-.77.66-1.15.35-.63.71-1.25,1.08-1.87,6.93-11.85,14.61-22.47,21.94-31.52.09-.11.18-.22.27-.33,3.85-4.74,7.61-9.05,11.11-12.87.2-.22.4-.44.6-.66.38-.41.75-.81,1.12-1.21.74-.79,1.47-1.56,2.18-2.31Z"/>
      <path class="cls-3" d="M311.66,179.24v21.1l-35.06,35.06-3.9,3.9v-111.98c1.26,1.32,2.57,2.71,3.9,4.17,3.5,3.82,7.26,8.13,11.11,12.88.08.11.17.22.27.33,7.33,9.05,15,19.67,21.94,31.52.37.62.73,1.24,1.08,1.87.22.38.44.77.66,1.15Z"/>
    </g>
    <path d="M318.84,193.16l-7.18,7.18v-21.1c2.53,4.48,4.94,9.13,7.18,13.92Z"/>
    <path d="M200.35,179.24v132.41l-7.18,7.18c-8.89-19-15.08-40.31-15.08-62.83,0-28.2,9.71-54.51,22.26-76.76Z"/>
  </g>
  <g>
    <path class="cls-2" d="M465.75,109.21c6.57,9.36,12.52,19.18,17.81,29.41L138.62,483.56c-10.22-5.28-20.06-11.23-29.42-17.8-1.31-.92-2.61-1.85-3.9-2.79-.83-.6-1.66-1.22-2.48-1.83-.82-.61-1.64-1.23-2.45-1.85-1.62-1.25-3.23-2.52-4.83-3.8-2.26-1.83-4.5-3.69-6.7-5.59-.96-.82-1.9-1.65-2.85-2.49-.71-.63-1.42-1.27-2.12-1.91-.76-.69-1.51-1.38-2.26-2.08-.53-.49-1.06-.99-1.58-1.49-1.7-1.6-3.38-3.24-5.05-4.91-3.01-3.01-5.94-6.09-8.77-9.21-.59-.65-1.18-1.31-1.76-1.97-1.37-1.53-2.71-3.08-4.02-4.64-.66-.78-1.32-1.57-1.97-2.36-.77-.92-1.52-1.84-2.26-2.76-1.17-1.47-2.34-2.96-3.49-4.46-2.22-2.89-4.38-5.84-6.47-8.83-6.57-9.36-12.52-19.18-17.81-29.41L373.38,28.44c10.22,5.28,20.06,11.23,29.42,17.8,1.31.92,2.61,1.85,3.9,2.79.83.6,1.66,1.21,2.48,1.83.82.61,1.64,1.23,2.45,1.85.75.58,1.5,1.15,2.24,1.73,1.92,1.51,3.83,3.06,5.71,4.63.99.82,1.97,1.64,2.94,2.48,4,3.43,7.91,7,11.74,10.72.93.89,1.85,1.79,2.76,2.71.78.78,1.55,1.56,2.3,2.34.51.51,1,1.02,1.49,1.53,2.68,2.79,5.28,5.63,7.8,8.51.61.68,1.2,1.37,1.8,2.07.04.04.07.08.11.13.58.68,1.16,1.36,1.74,2.05.6.71,1.19,1.43,1.78,2.15.48.58.95,1.16,1.42,1.74.7.86,1.39,1.73,2.07,2.6.59.76,1.18,1.52,1.76,2.28,1.37,1.78,2.71,3.57,4.01,5.37.49.68.98,1.36,1.48,2.06.33.46.66.93.98,1.4Z"/>
    <path d="M74.98,437.02c10.74,10.74,22.2,20.32,34.22,28.75L465.77,109.2c-8.43-12.02-18.01-23.48-28.75-34.22-10.74-10.74-22.2-20.32-34.22-28.75L46.23,402.8c8.43,12.02,18.01,23.48,28.75,34.21Z"/>
  </g>
</svg>