<?xml version="1.0" encoding="UTF-8"?>
<svg id="Layer_1" data-name="Layer 1" xmlns="http://www.w3.org/2000/svg" viewBox="0 0 512 512">
  <defs>
    <style>
      .cls-1 {
        fill: #ffda44;
      }

      .cls-2 {
        fill: #f0f0f0;
      }

      .cls-3 {
        fill: #d80027;
      }

      .cls-4 {
        fill: #00785e;
      }

      .cls-5 {
        fill: #0052b4;
      }
    </style>
  </defs>
  <g>
    <path class="cls-3" d="M256,0v256H0C0,114.61,114.61,0,256,0Z"/>
    <path class="cls-5" d="M512,256h-256V0c141.38,0,256,114.61,256,256Z"/>
    <path class="cls-4" d="M256,256v256C114.61,512,0,397.38,0,256h256Z"/>
    <path class="cls-3" d="M512,256c0,141.38-114.62,256-256,256v-256h256Z"/>
  </g>
  <g>
    <polygon class="cls-2" points="447.91 133.17 418.87 146.83 434.33 174.96 402.8 168.93 398.8 200.78 376.84 177.35 354.87 200.78 350.88 168.93 319.34 174.96 334.8 146.83 305.76 133.17 334.81 119.51 319.34 91.39 350.88 97.42 354.87 65.56 376.84 88.99 398.8 65.56 402.8 97.42 434.34 91.39 418.87 119.51 447.91 133.17"/>
    <circle class="cls-5" cx="376.84" cy="133.17" r="44.26"/>
    <path class="cls-2" d="M376.84,156.76c-13.01,0-23.59-10.58-23.59-23.59s10.58-23.59,23.59-23.59,23.59,10.58,23.59,23.59c0,13.01-10.58,23.59-23.59,23.59Z"/>
  </g>
  <g>
    <circle class="cls-2" cx="256" cy="256" r="100"/>
    <path class="cls-3" d="M156,256c0-55.23,44.77-100,100-100s100,44.77,100,100"/>
    <g>
      <path class="cls-2" d="M216.87,208.17c0-14.57,10.24-26.74,23.91-29.73-2.1-.46-4.28-.71-6.52-.71-16.81,0-30.43,13.63-30.43,30.43s13.63,30.43,30.43,30.43c2.24,0,4.42-.25,6.52-.71-13.67-2.99-23.91-15.16-23.91-29.73Z"/>
      <polygon class="cls-2" points="256 179.91 258.16 186.56 265.14 186.56 259.49 190.66 261.65 197.3 256 193.2 250.35 197.3 252.51 190.66 246.86 186.56 253.84 186.56 256 179.91"/>
      <polygon class="cls-2" points="239.06 192.96 241.21 199.6 248.2 199.6 242.55 203.7 244.71 210.35 239.06 206.24 233.41 210.35 235.56 203.7 229.91 199.6 236.9 199.6 239.06 192.96"/>
      <polygon class="cls-2" points="272.94 192.96 275.1 199.6 282.09 199.6 276.44 203.7 278.59 210.35 272.94 206.24 267.29 210.35 269.45 203.7 263.8 199.6 270.79 199.6 272.94 192.96"/>
      <polygon class="cls-2" points="266.42 212.52 268.58 219.16 275.57 219.16 269.91 223.27 272.07 229.91 266.42 225.81 260.77 229.91 262.93 223.27 257.28 219.16 264.26 219.16 266.42 212.52"/>
      <polygon class="cls-2" points="245.58 212.52 247.74 219.16 254.72 219.16 249.07 223.27 251.23 229.91 245.58 225.81 239.93 229.91 242.09 223.27 236.43 219.16 243.42 219.16 245.58 212.52"/>
    </g>
  </g>
  <g>
    <polygon class="cls-1" points="95.43 84.29 105.55 115.44 138.3 115.44 111.82 134.72 121.95 165.87 95.43 146.63 68.91 165.87 79.07 134.72 52.55 115.44 85.3 115.44 95.43 84.29"/>
    <polygon class="cls-1" points="170.27 194.54 162.53 185.02 151.08 189.46 157.72 179.15 149.98 169.58 161.84 172.74 168.53 162.44 169.17 174.71 181.08 177.87 169.58 182.27 170.27 194.54"/>
    <polygon class="cls-1" points="185.66 166.6 189.32 154.88 179.29 147.78 191.57 147.6 195.19 135.87 199.17 147.5 211.45 147.37 201.6 154.7 205.54 166.33 195.51 159.23 185.66 166.6"/>
    <polygon class="cls-1" points="206.41 99 201 110.04 209.8 118.6 197.66 116.86 192.25 127.85 190.15 115.76 177.96 114.02 188.87 108.3 186.76 96.16 195.55 104.72 206.41 99"/>
    <polygon class="cls-1" points="170.59 65.56 169.67 77.79 181.08 82.42 169.12 85.35 168.25 97.62 161.8 87.18 149.84 90.11 157.76 80.72 151.26 70.32 162.67 74.95 170.59 65.56"/>
  </g>
  <g>
    <path class="cls-2" d="M154.58,373.1c-3.19,0-6.21.64-9.02,1.65,1.54-3.43,2.57-7.25,2.57-11.32,0-16.13-16.13-28.22-16.13-28.22,0,0-16.13,12.1-16.13,28.22,0,4.08,1.03,7.89,2.57,11.32-2.81-1.01-5.84-1.65-9.02-1.65-16.13,0-28.22,16.13-28.22,16.13,0,0,12.1,16.13,28.22,16.13,9.46,0,17.52-5.54,22.58-10.13,5.06,4.59,13.12,10.13,22.58,10.13,16.13,0,28.22-16.13,28.22-16.13,0,0-12.1-16.13-28.22-16.13Z"/>
    <g>
      <polygon class="cls-1" points="132 299.49 135.33 309.74 146.11 309.74 137.39 316.08 140.72 326.33 132 319.99 123.28 326.33 126.61 316.08 117.89 309.74 128.67 309.74 132 299.49"/>
      <polygon class="cls-1" points="91.01 317.42 97.42 323.19 104.89 318.88 101.38 326.76 107.79 332.53 99.21 331.63 95.7 339.51 93.91 331.07 85.33 330.17 92.8 325.86 91.01 317.42"/>
      <polygon class="cls-1" points="61 347.43 69.44 349.22 73.75 341.75 74.65 350.33 83.08 352.12 75.21 355.63 76.11 364.21 70.34 357.8 62.46 361.31 66.77 353.84 61 347.43"/>
      <polygon class="cls-1" points="172.99 317.42 166.58 323.19 159.11 318.88 162.62 326.76 156.21 332.53 164.79 331.63 168.3 339.51 170.09 331.07 178.67 330.17 171.2 325.86 172.99 317.42"/>
      <polygon class="cls-1" points="203 347.43 194.56 349.22 190.25 341.75 189.35 350.33 180.92 352.12 188.79 355.63 187.89 364.21 193.66 357.8 201.54 361.31 197.23 353.84 203 347.43"/>
    </g>
    <g>
      <path class="cls-2" d="M132,450.51c12.81,0,24.62-4.27,34.09-11.47h-68.18c9.47,7.19,21.28,11.47,34.09,11.47Z"/>
      <path class="cls-2" d="M80.26,416.64c1.79,4.1,4.06,7.94,6.73,11.47h90.02c2.67-3.52,4.94-7.36,6.73-11.47h-103.49Z"/>
    </g>
  </g>
  <g>
    <path class="cls-2" d="M403.62,337.93c-3.24,13.46-8.99,10.9-11.81,22.64-16.63-4-26.86-20.72-22.87-37.34,4-16.63,20.72-26.86,37.34-22.87-5.65,23.48.23,25.53-2.66,37.57Z"/>
    <path class="cls-2" d="M360.48,347.9c11.8,7.24,7.58,11.92,17.88,18.23-8.94,14.58-28,19.15-42.58,10.21-14.58-8.94-19.15-28-10.21-42.58,20.59,12.62,24.35,7.67,34.91,14.14Z"/>
    <path class="cls-2" d="M356.64,392.02c10.53-8.99,13.67-3.53,22.86-11.37,11.1,13.01,9.56,32.55-3.45,43.65-13.01,11.1-32.55,9.56-43.65-3.45,18.37-15.68,14.82-20.79,24.24-28.83Z"/>
    <path class="cls-2" d="M397.41,409.3c-5.3-12.79.87-14.1-3.75-25.25,15.8-6.54,33.91.97,40.45,16.77,6.54,15.8-.97,33.91-16.77,40.45-9.23-22.31-15.19-20.52-19.93-31.96Z"/>
    <path class="cls-2" d="M426.44,375.87c-13.8,1.08-13.14-5.18-25.18-4.24-1.34-17.05,11.4-31.95,28.45-33.29,17.05-1.33,31.95,11.4,33.29,28.45-24.08,1.89-24.21,8.11-36.56,9.08Z"/>
  </g>
</svg>