<svg width="304" height="41" viewBox="0 0 304 41" fill="none" xmlns="http://www.w3.org/2000/svg">
<path d="M21.0706 18.2518V18.8504C24.8439 19.177 27.7826 20.084 29.887 21.5715C31.9913 23.0228 33.0434 25.0364 33.0434 27.6123C33.0434 29.7892 32.5718 31.6214 31.6285 33.1089C30.7214 34.5602 29.4879 35.7212 27.9278 36.5919C26.404 37.4627 24.6806 38.0795 22.7577 38.4423C20.8711 38.8051 18.93 38.9865 16.9346 38.9865H3.65567V38.1157C4.67154 37.4627 5.25204 36.864 5.39716 36.3198C5.54229 35.7756 5.61485 35.1044 5.61485 34.3062V8.07492C5.61485 7.31302 5.61485 6.65996 5.61485 6.11574C5.65113 5.57152 5.54229 5.08172 5.28832 4.64635C5.07063 4.21098 4.58084 3.79374 3.81893 3.39465C3.05703 2.95928 1.89603 2.5239 0.335938 2.08853V0.94567L0.662468 0.619141H17.4244C22.0321 0.619141 25.5695 1.29034 28.0366 2.63275C30.5037 3.97515 31.7373 6.07946 31.7373 8.94567C31.7373 10.7597 31.1931 12.3017 30.1046 13.5715C29.0162 14.8414 27.6557 15.8572 26.023 16.6191C24.3904 17.3448 22.7396 17.889 21.0706 18.2518ZM12.4176 17.9253C16.3359 17.9253 19.2929 17.1815 21.2883 15.694C23.3201 14.1702 24.3359 12.0659 24.3359 9.38104C24.3359 7.63955 23.9006 6.31528 23.0298 5.40826C22.1953 4.46494 21.0888 3.81188 19.7101 3.44907C18.3677 3.08626 16.9164 2.90485 15.3563 2.90485C14.5944 2.90485 13.8507 2.99556 13.1251 3.17696C12.7622 3.28581 12.5446 3.57605 12.472 4.04771C12.4357 4.51937 12.4176 5.17243 12.4176 6.00689V17.9253ZM12.4176 32.5103C12.4176 33.8527 12.5083 34.8867 12.6897 35.6123C12.8711 36.338 13.5241 36.7008 14.6489 36.7008C16.6806 36.7008 18.4765 36.338 20.0366 35.6123C21.633 34.8504 22.8847 33.7801 23.7917 32.4015C24.6988 31.0228 25.1523 29.3901 25.1523 27.5035C25.1523 26.5239 24.9164 25.5987 24.4448 24.728C24.0094 23.8572 23.4108 23.059 22.6489 22.3334C21.9232 21.6441 20.9799 21.1543 19.8189 20.864C18.6579 20.5375 17.4244 20.3198 16.1183 20.211C14.8121 20.1021 13.5786 20.0296 12.4176 19.9933V32.5103Z" fill="#1F82EC"/>
<path d="M36.4296 26.9049C36.4296 24.9457 36.7682 22.9986 37.4455 21.0636C38.1469 19.1044 39.2716 17.4234 40.8196 16.0205C42.2225 14.7386 43.8189 13.8799 45.6088 13.4445C47.4228 12.985 49.4062 12.7552 51.5589 12.7552C53.1069 12.7552 54.6186 12.9729 56.094 13.4083C57.5936 13.8194 58.8998 14.5209 60.0124 15.5126C61.3427 16.7219 62.2739 18.1369 62.806 19.7575C63.3623 21.378 63.6405 23.0228 63.6405 24.6917C63.6405 27.3281 63.2172 29.5897 62.3707 31.4763C61.5241 33.3387 60.3631 34.8625 58.8877 36.0477C57.4122 37.2087 55.7312 38.0674 53.8446 38.6237C51.9822 39.1558 50.0109 39.4219 47.9308 39.4219C46.4795 39.4219 45.0645 39.2163 43.6859 38.8051C42.3072 38.3697 41.0978 37.6804 40.0577 36.7371C38.7274 35.5035 37.7841 34.0039 37.2278 32.2382C36.6957 30.4483 36.4296 28.6705 36.4296 26.9049ZM41.4364 25.5987C41.4364 26.8323 41.5815 28.1626 41.8718 29.5897C42.1862 30.9925 42.6821 32.3108 43.3593 33.5443C44.0608 34.7779 44.9678 35.7937 46.0804 36.5919C47.2172 37.3659 48.6201 37.7529 50.289 37.7529C51.8854 37.7529 53.2036 37.4385 54.2437 36.8096C55.3079 36.1807 56.1424 35.3463 56.7471 34.3062C57.376 33.2662 57.8113 32.1172 58.0532 30.8595C58.3193 29.6018 58.4523 28.344 58.4523 27.0863C58.4523 26.0704 58.3676 24.982 58.1983 23.821C58.0532 22.66 57.7992 21.5111 57.4364 20.3742C57.0736 19.2374 56.5657 18.2095 55.9126 17.2903C55.2837 16.347 54.4855 15.5972 53.5181 15.0409C52.5506 14.4846 51.3896 14.2064 50.0351 14.2064C48.5596 14.2064 47.2777 14.5572 46.1893 15.2586C45.125 15.96 44.2422 16.8792 43.5407 18.016C42.8393 19.1286 42.3072 20.3501 41.9444 21.6804C41.6057 23.0107 41.4364 24.3168 41.4364 25.5987Z" fill="#1F82EC"/>
<path d="M66.5458 26.9049C66.5458 24.9457 66.8845 22.9986 67.5617 21.0636C68.2631 19.1044 69.3879 17.4234 70.9359 16.0205C72.3387 14.7386 73.9351 13.8799 75.725 13.4445C77.539 12.985 79.5224 12.7552 81.6751 12.7552C83.2231 12.7552 84.7348 12.9729 86.2102 13.4083C87.7099 13.8194 89.016 14.5209 90.1286 15.5126C91.4589 16.7219 92.3901 18.1369 92.9222 19.7575C93.4786 21.378 93.7567 23.0228 93.7567 24.6917C93.7567 27.3281 93.3334 29.5897 92.4869 31.4763C91.6403 33.3387 90.4793 34.8625 89.0039 36.0477C87.5284 37.2087 85.8474 38.0674 83.9608 38.6237C82.0984 39.1558 80.1271 39.4219 78.047 39.4219C76.5957 39.4219 75.1807 39.2163 73.8021 38.8051C72.4234 38.3697 71.214 37.6804 70.1739 36.7371C68.8436 35.5035 67.9003 34.0039 67.344 32.2382C66.8119 30.4483 66.5458 28.6705 66.5458 26.9049ZM71.5526 25.5987C71.5526 26.8323 71.6978 28.1626 71.988 29.5897C72.3024 30.9925 72.7983 32.3108 73.4755 33.5443C74.177 34.7779 75.084 35.7937 76.1966 36.5919C77.3334 37.3659 78.7363 37.7529 80.4052 37.7529C82.0016 37.7529 83.3198 37.4385 84.3599 36.8096C85.4241 36.1807 86.2586 35.3463 86.8633 34.3062C87.4922 33.2662 87.9275 32.1172 88.1694 30.8595C88.4355 29.6018 88.5685 28.344 88.5685 27.0863C88.5685 26.0704 88.4839 24.982 88.3145 23.821C88.1694 22.66 87.9154 21.5111 87.5526 20.3742C87.1898 19.2374 86.6819 18.2095 86.0288 17.2903C85.3999 16.347 84.6018 15.5972 83.6343 15.0409C82.6668 14.4846 81.5058 14.2064 80.1513 14.2064C78.6758 14.2064 77.3939 14.5572 76.3055 15.2586C75.2412 15.96 74.3584 16.8792 73.6569 18.016C72.9555 19.1286 72.4234 20.3501 72.0606 21.6804C71.7219 23.0107 71.5526 24.3168 71.5526 25.5987Z" fill="#1F82EC"/>
<path d="M108.326 17.8164L124.435 0.673562H130.204V1.48989L113.823 16.728C113.75 16.7643 113.678 16.855 113.605 17.0001C113.569 17.1089 113.551 17.1996 113.551 17.2722C113.551 17.5987 113.605 17.762 113.714 17.762L132.707 35.0681V35.9389L125.197 39.1498C122.512 36.0659 119.755 33.0364 116.925 30.0613C114.131 27.05 111.229 24.1112 108.218 21.245H107.673C107.673 23.8935 107.71 26.5602 107.782 29.245C107.855 31.8935 108.018 34.5602 108.272 37.245L101.197 39.5307L100.653 38.9865C100.762 35.9026 100.834 32.8187 100.871 29.7348C100.907 26.6509 100.925 23.567 100.925 20.4831C100.925 19.2132 100.925 17.8164 100.925 16.2926C100.925 14.7325 100.925 13.2087 100.925 11.7212C100.925 10.1974 100.907 8.87311 100.871 7.74839C100.871 6.62367 100.853 5.86177 100.816 5.46268C100.78 4.8459 100.49 4.37424 99.9455 4.04771C99.4013 3.6849 98.7301 3.41279 97.9319 3.23138C97.17 3.04998 96.3899 2.86857 95.5917 2.68717V1.2722L95.8094 0.727983H108.109L108.49 1.10894C107.945 6.69624 107.673 12.2654 107.673 17.8164H108.326Z" fill="#1F82EC"/>
<path d="M127.781 20.5524C127.781 19.4067 127.979 18.2681 128.375 17.1365C128.785 15.9908 129.443 15.0078 130.348 14.1874C131.168 13.4378 132.102 12.9356 133.148 12.681C134.209 12.4123 135.369 12.2779 136.628 12.2779C137.533 12.2779 138.417 12.4052 139.28 12.6598C140.157 12.9003 140.921 13.3105 141.571 13.8904C142.349 14.5976 142.894 15.425 143.205 16.3727C143.53 17.3204 143.693 18.2822 143.693 19.2582C143.693 20.7999 143.446 22.1224 142.951 23.2257C142.455 24.3148 141.777 25.2059 140.914 25.8989C140.051 26.5779 139.068 27.08 137.965 27.4053C136.876 27.7165 135.723 27.8721 134.506 27.8721C133.658 27.8721 132.83 27.7519 132.024 27.5114C131.218 27.2568 130.511 26.8537 129.902 26.3021C129.124 25.5807 128.573 24.7037 128.247 23.6712C127.936 22.6245 127.781 21.5849 127.781 20.5524ZM130.709 19.7886C130.709 20.5099 130.793 21.2879 130.963 22.1224C131.147 22.9428 131.437 23.7136 131.833 24.435C132.243 25.1564 132.774 25.7504 133.424 26.2172C134.089 26.6698 134.909 26.8961 135.885 26.8961C136.819 26.8961 137.59 26.7122 138.198 26.3445C138.82 25.9767 139.308 25.4888 139.662 24.8805C140.03 24.2723 140.284 23.6005 140.426 22.865C140.581 22.1295 140.659 21.394 140.659 20.6585C140.659 20.0644 140.61 19.4279 140.511 18.749C140.426 18.07 140.277 17.3982 140.065 16.7334C139.853 16.0686 139.556 15.4675 139.174 14.93C138.806 14.3784 138.339 13.9399 137.774 13.6146C137.208 13.2892 136.529 13.1266 135.737 13.1266C134.874 13.1266 134.124 13.3317 133.488 13.7419C132.866 14.152 132.349 14.6895 131.939 15.3543C131.529 16.005 131.218 16.7192 131.006 17.4972C130.808 18.2751 130.709 19.0389 130.709 19.7886Z" fill="#E0B343"/>
<path d="M149.466 27.0659L146.75 27.8084L146.495 27.6387C146.566 25.8424 146.63 24.0531 146.686 22.2709C146.743 20.4887 146.771 18.7065 146.771 16.9243C146.771 16.3869 146.764 15.8706 146.75 15.3755C146.75 14.8663 146.722 14.5198 146.665 14.3359C146.594 14.0672 146.446 13.8692 146.22 13.7419C146.007 13.6004 145.76 13.5085 145.477 13.466C145.208 13.4095 144.939 13.367 144.671 13.3387V12.9144L144.84 12.7447C145.689 12.7447 146.608 12.7447 147.599 12.7447C148.603 12.7447 149.586 12.7376 150.548 12.7235C151.51 12.7093 152.372 12.6952 153.136 12.681C153.914 12.6527 154.501 12.6174 154.897 12.5749V14.0177L154.749 14.1874C154.013 14.145 153.299 14.1025 152.606 14.0601C151.913 14.0035 151.326 13.9611 150.845 13.9328C150.364 13.9045 150.067 13.8904 149.954 13.8904C149.77 13.8904 149.621 13.9328 149.508 14.0177C149.395 14.0884 149.338 14.2935 149.338 14.633V18.749C149.338 18.8904 149.367 19.0177 149.423 19.1309C149.494 19.244 149.586 19.3006 149.699 19.3006C150.491 19.3006 151.29 19.2582 152.096 19.1733C152.903 19.0743 153.695 18.9965 154.473 18.9399L154.749 19.1945V20.3402C154.338 20.3119 153.85 20.2978 153.285 20.2978C152.733 20.2836 152.16 20.2766 151.566 20.2766C150.972 20.2766 150.406 20.2766 149.869 20.2766C149.685 20.2766 149.551 20.3119 149.466 20.3826C149.381 20.4534 149.338 20.6089 149.338 20.8494C149.338 20.8494 149.338 20.9979 149.338 21.2949C149.352 21.592 149.367 21.981 149.381 22.4619C149.395 22.9286 149.402 23.4378 149.402 23.9895C149.416 24.5411 149.43 25.0927 149.444 25.6443C149.459 26.1818 149.466 26.6557 149.466 27.0659Z" fill="#E0B343"/>
<path d="M159.496 12.8096V5.57152C159.496 5.17243 159.369 4.90032 159.115 4.75519C158.861 4.61007 158.534 4.55565 158.135 4.59193L147.196 5.13615L146.707 4.64635V1.48989L147.142 1.05452C149.754 1.0908 152.367 1.1815 154.979 1.32662C157.591 1.47175 160.203 1.54431 162.815 1.54431C165.537 1.54431 168.258 1.47175 170.979 1.32662C173.7 1.1815 176.421 1.05451 179.142 0.94567L179.686 1.48989V4.21098L179.088 4.70077C178.942 4.70077 178.435 4.70077 177.564 4.70077C176.729 4.66449 175.713 4.62821 174.516 4.59193C173.319 4.55565 172.103 4.53751 170.87 4.53751C169.636 4.50123 168.548 4.48308 167.605 4.48308C167.206 4.48308 166.915 4.53751 166.734 4.64635C166.552 4.71891 166.462 4.9366 166.462 5.29941V12.8096C166.462 17.0182 166.552 21.245 166.734 25.4899C166.915 29.7348 167.133 33.9615 167.387 38.1702L159.55 40.4015L159.06 39.7484C159.206 35.2495 159.314 30.7688 159.387 26.3062C159.459 21.8074 159.496 17.3085 159.496 12.8096Z" fill="#C60D0A"/>
<path d="M182.353 21.8436C182.353 18.9049 182.861 15.9842 183.877 13.0817C184.929 10.143 186.616 7.62141 188.938 5.5171C191.042 3.5942 193.437 2.30622 196.122 1.65315C198.843 0.963812 201.818 0.619141 205.047 0.619141C207.369 0.619141 209.636 0.945671 211.85 1.59873C214.099 2.21551 216.058 3.26766 217.727 4.75519C219.723 6.56925 221.119 8.6917 221.918 11.1225C222.752 13.5534 223.169 16.0205 223.169 18.5239C223.169 22.4786 222.534 25.8708 221.264 28.7008C219.995 31.4944 218.253 33.7801 216.04 35.5579C213.827 37.2994 211.305 38.5874 208.475 39.4219C205.682 40.22 202.725 40.6191 199.605 40.6191C197.428 40.6191 195.305 40.3108 193.237 39.694C191.169 39.0409 189.355 38.0069 187.795 36.5919C185.8 34.7416 184.385 32.4922 183.55 29.8436C182.752 27.1588 182.353 24.4922 182.353 21.8436ZM189.863 19.8844C189.863 21.7348 190.081 23.7303 190.516 25.8708C190.988 27.9752 191.732 29.9525 192.747 31.8028C193.8 33.6532 195.16 35.177 196.829 36.3742C198.534 37.5352 200.639 38.1157 203.142 38.1157C205.537 38.1157 207.514 37.6441 209.074 36.7008C210.67 35.7575 211.922 34.5058 212.829 32.9457C213.772 31.3856 214.425 29.6622 214.788 27.7756C215.187 25.889 215.387 24.0024 215.387 22.1157C215.387 20.5919 215.26 18.9593 215.006 17.2178C214.788 15.4763 214.407 13.7529 213.863 12.0477C213.319 10.3425 212.557 8.80055 211.577 7.42186C210.634 6.0069 209.437 4.88218 207.986 4.04771C206.534 3.21325 204.793 2.79601 202.761 2.79601C200.548 2.79601 198.625 3.32209 196.992 4.37424C195.396 5.4264 194.072 6.80508 193.02 8.5103C191.967 10.1792 191.169 12.0114 190.625 14.0069C190.117 16.0024 189.863 17.9615 189.863 19.8844Z" fill="#C60D0A"/>
<path d="M237.486 22.1157L238.085 37.5715L230.629 40.2382L230.139 39.7484C230.393 35.5398 230.575 31.3312 230.684 27.1225C230.793 22.8776 230.847 18.6509 230.847 14.4423C230.847 13.4627 230.847 12.3924 230.847 11.2314C230.847 10.0341 230.829 8.94567 230.793 7.96608C230.793 6.95021 230.756 6.24272 230.684 5.84363C230.611 5.11801 230.285 4.59193 229.704 4.2654C229.124 3.90259 228.471 3.66676 227.745 3.55792C227.019 3.44907 226.348 3.37651 225.731 3.34023V1.92526L226.003 1.65315H243.473C247.645 1.65315 250.838 2.30622 253.051 3.61234C255.3 4.91846 256.425 6.96835 256.425 9.762C256.425 11.0681 256.226 12.3924 255.827 13.7348C255.427 15.0409 254.702 16.1656 253.65 17.1089C252.525 18.1248 251.273 18.8867 249.895 19.3947C248.552 19.8663 247.137 20.3017 245.65 20.7008L245.432 21.2994C246.593 22.6781 247.808 24.1293 249.078 25.6532C250.384 27.1407 251.654 28.6101 252.888 30.0613C254.158 31.5126 255.319 32.8187 256.371 33.9797C257.459 35.1407 258.366 36.0477 259.092 36.7008L259.255 37.5715L252.888 40.347L251.745 40.2382L238.194 22.2246C238.121 22.152 237.886 22.1157 237.486 22.1157ZM237.486 19.8844C238.321 19.8844 239.3 19.7937 240.425 19.6123C241.586 19.4309 242.675 19.1588 243.691 18.796C244.743 18.3969 245.541 17.9253 246.085 17.381C246.992 16.4377 247.645 15.3856 248.044 14.2246C248.48 13.0636 248.697 11.8663 248.697 10.6327C248.697 8.27447 247.917 6.55111 246.357 5.46268C244.797 4.33796 242.856 3.7756 240.534 3.7756C240.026 3.7756 239.446 3.81188 238.793 3.88445C238.139 3.92073 237.777 4.30168 237.704 5.0273C237.704 5.06359 237.686 5.62594 237.65 6.71438C237.613 7.76653 237.577 9.0908 237.541 10.6872C237.541 12.2473 237.523 13.8618 237.486 15.5307C237.486 17.1634 237.486 18.6146 237.486 19.8844Z" fill="#C60D0A"/>
<path d="M262.285 21.8436C262.285 18.9049 262.793 15.9842 263.809 13.0817C264.861 10.143 266.548 7.62141 268.87 5.5171C270.974 3.5942 273.369 2.30622 276.054 1.65315C278.775 0.963812 281.75 0.619141 284.979 0.619141C287.301 0.619141 289.568 0.945671 291.781 1.59873C294.031 2.21551 295.99 3.26766 297.659 4.75519C299.654 6.56925 301.051 8.6917 301.849 11.1225C302.684 13.5534 303.101 16.0205 303.101 18.5239C303.101 22.4786 302.466 25.8708 301.196 28.7008C299.927 31.4944 298.185 33.7801 295.972 35.5579C293.759 37.2994 291.237 38.5874 288.407 39.4219C285.614 40.22 282.657 40.6191 279.537 40.6191C277.36 40.6191 275.237 40.3108 273.169 39.694C271.101 39.0409 269.287 38.0069 267.727 36.5919C265.732 34.7416 264.317 32.4922 263.482 29.8436C262.684 27.1588 262.285 24.4922 262.285 21.8436ZM269.795 19.8844C269.795 21.7348 270.013 23.7303 270.448 25.8708C270.92 27.9752 271.664 29.9525 272.679 31.8028C273.732 33.6532 275.092 35.177 276.761 36.3742C278.466 37.5352 280.571 38.1157 283.074 38.1157C285.469 38.1157 287.446 37.6441 289.006 36.7008C290.602 35.7575 291.854 34.5058 292.761 32.9457C293.704 31.3856 294.357 29.6622 294.72 27.7756C295.119 25.889 295.319 24.0024 295.319 22.1157C295.319 20.5919 295.192 18.9593 294.938 17.2178C294.72 15.4763 294.339 13.7529 293.795 12.0477C293.251 10.3425 292.489 8.80055 291.509 7.42186C290.566 6.0069 289.369 4.88218 287.918 4.04771C286.466 3.21325 284.725 2.79601 282.693 2.79601C280.48 2.79601 278.557 3.32209 276.924 4.37424C275.328 5.4264 274.004 6.80508 272.952 8.5103C271.899 10.1792 271.101 12.0114 270.557 14.0069C270.049 16.0024 269.795 17.9615 269.795 19.8844Z" fill="#C60D0A"/>
</svg>
