<svg width="49" height="45" viewBox="0 0 49 45" fill="none" xmlns="http://www.w3.org/2000/svg">
<path d="M34.6624 10.6146L25.2617 6.56689L21.2104 15.976L30.6111 20.0237L34.6624 10.6146Z" fill="white"/>
<path d="M45.7288 24.4032L36.3281 20.3555L32.2768 29.7645L41.6776 33.8122L45.7288 24.4032Z" fill="white"/>
<path d="M11.8437 30.7323L4.05664 27.3794L0.700764 35.1734L8.48785 38.5263L11.8437 30.7323Z" fill="white"/>
<path d="M27.4726 36.4271L19.6855 33.0742L16.3297 40.8682L24.1168 44.2211L27.4726 36.4271Z" fill="white"/>
<path d="M18.5546 17.1846L12.4727 14.5659L9.85163 20.6532L15.9335 23.2719L18.5546 17.1846Z" fill="white"/>
<path d="M45.0035 10.9626L39.2637 8.49121L36.79 14.2362L42.5299 16.7076L45.0035 10.9626Z" fill="#FF2C68"/>
<path d="M19.1962 7.27395L13.2051 4.69434L10.6232 10.6908L16.6143 13.2704L19.1962 7.27395Z" fill="#FF2C68"/>
<path d="M37.3388 38.6909L31.3477 36.1113L28.7658 42.1078L34.7569 44.6874L37.3388 38.6909Z" fill="#FF2C68"/>
<path d="M48.6307 17.7162L44.6211 15.9897L42.8931 20.0029L46.9028 21.7294L48.6307 17.7162Z" fill="white"/>
<path d="M30.5389 24.1133L24.457 21.4946L21.836 27.5819L27.9179 30.2006L30.5389 24.1133Z" fill="white"/>
<path d="M20.6021 1.38099L17.7168 0.138672L16.4734 3.0265L19.3586 4.26881L20.6021 1.38099Z" fill="white"/>
<path d="M8.50457 22.2543L5.41797 20.9253L4.08778 24.0146L7.17438 25.3436L8.50457 22.2543Z" fill="#FF2C68"/>
<path d="M19.6039 27.0962L15.1914 25.1963L13.2898 29.6126L17.7023 31.5125L19.6039 27.0962Z" fill="#FF2C68"/>
<path d="M28.6507 2.3538L26.5918 1.46729L25.7045 3.52801L27.7634 4.41452L28.6507 2.3538Z" fill="#FF2C68"/>
</svg>
