<svg width="191" height="49" viewBox="0 0 191 49" fill="none" xmlns="http://www.w3.org/2000/svg">
<path fill-rule="evenodd" clip-rule="evenodd" d="M55.6631 10.1527C59.3881 9.82694 62.7006 10.2245 65.5996 11.3434C68.4986 12.4624 70.8337 14.1766 72.6045 16.4866C74.3755 18.797 75.4028 21.5791 75.6874 24.8319C75.972 28.0847 75.4434 31.0029 74.1005 33.5857C72.7578 36.1681 70.7558 38.2618 68.0952 39.8672C65.4344 41.4725 62.2413 42.4392 58.5163 42.7653C54.8187 43.0887 51.5042 42.6914 48.577 41.5748C45.6782 40.4557 43.3429 38.7416 41.5721 36.4316C39.829 34.1188 38.8146 31.3355 38.53 28.0827C38.2454 24.83 38.7611 21.9128 40.0762 19.3325C41.4189 16.7501 43.421 14.6564 46.0815 13.051C48.7703 11.4431 51.9655 10.4762 55.6631 10.1527ZM56.3382 17.8687C54.3368 18.0438 52.6291 18.5436 51.2166 19.3673C49.8041 20.1911 48.7489 21.2769 48.0546 22.626C47.3602 23.9754 47.0922 25.5407 47.2478 27.32C47.4035 29.0993 47.9393 30.5943 48.8574 31.8027C49.7755 33.0107 51.0032 33.8967 52.5372 34.4627C54.0714 35.0286 55.8399 35.2243 57.8413 35.0492C59.8703 34.8716 61.5911 34.3708 63.0036 33.547C64.4158 32.7233 65.4556 31.6387 66.1221 30.2922C66.8165 28.9428 67.0872 27.3772 66.9316 25.5979C66.7759 23.8186 66.2374 22.3238 65.3192 21.1155C64.429 19.9053 63.2167 19.0177 61.6829 18.4517C60.1489 17.8856 58.3672 17.6913 56.3382 17.8687Z" fill="#259BFF"/>
<path d="M129.025 21.8452C129.15 23.2626 129.523 24.4772 130.143 25.4872C130.789 26.4672 131.665 27.1903 132.77 27.6539C133.903 28.115 135.248 28.277 136.804 28.1409C138.389 28.0023 139.685 27.609 140.692 26.9608C141.7 26.3123 142.425 25.4493 142.863 24.3744C143.298 23.272 143.455 22.011 143.331 20.5936L141.817 3.28823L150.491 2.52932L152.042 20.2528C152.292 23.1164 151.842 25.6776 150.695 27.9351C149.573 30.1619 147.884 31.9775 145.626 33.3796C143.365 34.754 140.649 35.5796 137.479 35.8569C134.338 36.1317 131.519 35.7903 129.026 34.8318C126.559 33.8433 124.567 32.3494 123.048 30.3539C121.554 28.3275 120.682 25.882 120.431 23.0184L118.881 5.2949L127.511 4.53978L129.025 21.8452Z" fill="#259BFF"/>
<path d="M170.03 0.146926C173.032 -0.11565 175.739 0.0813141 178.149 0.738785C180.557 1.3685 182.511 2.40241 184.01 3.84002C185.536 5.27518 186.444 7.01757 186.735 9.06496L177.979 9.83099C177.802 9.09031 177.383 8.48385 176.725 8.00922C176.093 7.50427 175.25 7.15726 174.197 6.96925C173.141 6.75353 171.891 6.70866 170.445 6.83512C168.499 7.00541 166.979 7.405 165.885 8.03289C164.79 8.63292 164.287 9.43261 164.375 10.433C164.438 11.1556 164.821 11.7104 165.527 12.0968C166.261 12.4808 167.525 12.6786 169.319 12.6898L175.588 12.7732C178.586 12.791 181.005 13.0683 182.845 13.6074C184.683 14.1189 186.059 14.937 186.969 16.0617C187.88 17.1866 188.412 18.6402 188.568 20.4195C188.76 22.6154 188.274 24.5896 187.111 26.344C185.946 28.0707 184.223 29.4969 181.94 30.6211C179.655 31.7173 176.942 32.4043 173.801 32.6792C170.576 32.9613 167.686 32.7645 165.134 32.0914C162.607 31.388 160.576 30.2773 159.043 28.7587C157.507 27.2123 156.602 25.3573 156.329 23.1962L165.128 22.4264C165.343 23.2759 165.811 23.9931 166.534 24.5741C167.257 25.155 168.191 25.5779 169.334 25.842C170.503 26.0759 171.853 26.125 173.382 25.9912C175.495 25.8064 177.14 25.3959 178.317 24.7607C179.491 24.0976 180.033 23.2375 179.94 22.1811C179.87 21.3754 179.467 20.78 178.734 20.3962C178 20.0124 176.638 19.8099 174.648 19.7879L168.76 19.7559C164.417 19.7436 161.204 19.0447 159.122 17.6581C157.038 16.2437 155.879 14.2021 155.645 11.5332C155.456 9.36474 155.92 7.47383 157.04 5.8631C158.187 4.25029 159.868 2.96861 162.082 2.01866C164.321 1.03833 166.971 0.414482 170.03 0.146926Z" fill="#259BFF"/>
<path fill-rule="evenodd" clip-rule="evenodd" d="M23.1551 13.6698C26.0465 13.4168 28.3599 13.9018 30.0916 15.123C31.8201 16.3164 32.7877 18.1087 32.9968 20.499C33.111 21.8052 32.9168 23.0827 32.4101 24.3312C31.9031 25.5802 31.0039 26.6833 29.7146 27.6366C29.4974 27.7951 29.2616 27.9397 29.015 28.0835C29.7549 28.1927 30.4363 28.3551 31.0574 28.5696C32.6997 29.0982 33.9632 29.9394 34.8484 31.0941C35.7315 32.2214 36.2421 33.5776 36.3807 35.1622C36.5291 36.858 36.2726 38.4067 35.6109 39.8092C34.9468 41.184 33.871 42.3287 32.3822 43.2433C30.9188 44.1278 29.0325 44.6717 26.725 44.8736L3.62308 46.8948L4.63738 30.6266L0.886719 15.618L23.1551 13.6698ZM12.2545 40.0471L23.8611 39.0316C25.1117 38.9222 26.0579 38.5305 26.6994 37.8586C27.3409 37.1862 27.6143 36.3076 27.5194 35.2234C27.4246 34.1396 26.9753 33.3108 26.1693 32.7371C25.3603 32.1355 24.2184 31.8983 22.7449 32.0272L12.7049 32.9056L12.2545 40.0471ZM12.1597 26.9865L21.0594 26.2079C22.0599 26.1203 22.8672 25.7541 23.4832 25.1122C24.1247 24.4398 24.4006 23.5899 24.3106 22.5612C24.2376 21.7272 23.8875 21.0704 23.2575 20.5933C22.625 20.0886 21.7653 19.884 20.6813 19.9788L10.6168 20.8593L12.1597 26.9865Z" fill="#259BFF"/>
<path d="M106.965 27.95L105.088 6.50156L113.472 5.76806L116.209 37.0448L105.324 37.9971L87.9713 17.3609L89.8948 39.347L81.5109 40.0805L78.7746 8.80371L89.9522 7.82579L106.965 27.95Z" fill="#259BFF"/>
<path fill-rule="evenodd" clip-rule="evenodd" d="M57.8967 11.2923C61.6217 10.9666 64.9342 11.3641 67.8333 12.4831C70.7322 13.602 73.0674 15.3163 74.8382 17.6263C76.6091 19.9366 77.6365 22.7188 77.921 25.9715C78.2056 29.2243 77.677 32.1426 76.3341 34.7253C74.9914 37.3078 72.9894 39.4014 70.3288 41.0068C67.6681 42.6122 64.4749 43.5789 60.7499 43.9049C57.0523 44.2284 53.7378 43.831 50.8106 42.7144C47.9118 41.5954 45.5765 39.8812 43.8058 37.5712C42.0626 35.2584 41.0482 32.4752 40.7636 29.2224C40.479 25.9696 40.9947 23.0525 42.3098 20.4721C43.6525 17.8898 45.6547 15.7961 48.3151 14.1907C51.0039 12.5827 54.1991 11.6158 57.8967 11.2923ZM58.5718 19.0084C56.5704 19.1835 54.8627 19.6833 53.4502 20.507C52.0378 21.3308 50.9826 22.4166 50.2882 23.7656C49.5938 25.115 49.3258 26.6804 49.4814 28.4597C49.6371 30.239 50.1729 31.734 51.091 32.9423C52.0091 34.1503 53.2368 35.0363 54.7709 35.6024C56.305 36.1683 58.0735 36.364 60.0749 36.1889C62.1039 36.0112 63.8247 35.5105 65.2372 34.6867C66.6494 33.863 67.6892 32.7783 68.3557 31.4319C69.0501 30.0824 69.3208 28.5169 69.1652 26.7376C69.0095 24.9583 68.471 23.4635 67.5529 22.2552C66.6626 21.0449 65.4503 20.1573 63.9165 19.5913C62.3825 19.0253 60.6008 18.831 58.5718 19.0084Z" fill="white"/>
<path d="M131.259 22.9848C131.383 24.4022 131.756 25.6168 132.377 26.6269C133.023 27.6069 133.899 28.33 135.004 28.7936C136.137 29.2546 137.481 29.4167 139.038 29.2805C140.622 29.1419 141.918 28.7486 142.926 28.1004C143.934 27.452 144.658 26.5889 145.096 25.514C145.532 24.4116 145.688 23.1506 145.564 21.7333L144.05 4.42788L152.725 3.66896L154.275 21.3925C154.526 24.256 154.076 26.8173 152.929 29.0747C151.807 31.3016 150.118 33.1172 147.859 34.5192C145.598 35.8936 142.882 36.7192 139.713 36.9965C136.571 37.2713 133.753 36.9299 131.26 35.9715C128.793 34.9829 126.801 33.4891 125.282 31.4935C123.788 29.4671 122.915 27.0216 122.665 24.158L121.114 6.43454L129.745 5.67943L131.259 22.9848Z" fill="white"/>
<path d="M172.263 1.28657C175.265 1.02399 177.972 1.22096 180.383 1.87843C182.791 2.50814 184.745 3.54205 186.243 4.97966C187.77 6.41482 188.677 8.15722 188.968 10.2046L180.213 10.9706C180.036 10.23 179.616 9.6235 178.959 9.14886C178.326 8.64391 177.483 8.29691 176.43 8.10889C175.375 7.89317 174.124 7.8483 172.679 7.97476C170.733 8.14506 169.213 8.54465 168.119 9.17253C167.024 9.77256 166.521 10.5723 166.608 11.5727C166.671 12.2953 167.055 12.85 167.761 13.2364C168.494 13.6204 169.759 13.8182 171.552 13.8294L177.822 13.9129C180.82 13.9306 183.239 14.2079 185.079 14.747C186.916 15.2586 188.292 16.0766 189.203 17.2013C190.114 18.3263 190.646 19.7798 190.802 21.5591C190.994 23.7551 190.508 25.7293 189.345 27.4837C188.179 29.2104 186.456 30.6366 184.174 31.7607C181.889 32.857 179.175 33.5439 176.034 33.8188C172.809 34.101 169.92 33.9042 167.368 33.231C164.841 32.5276 162.81 31.417 161.276 29.8983C159.741 28.3519 158.836 26.4969 158.563 24.3359L167.362 23.566C167.576 24.4155 168.044 25.1328 168.767 25.7138C169.49 26.2947 170.424 26.7175 171.568 26.9817C172.737 27.2156 174.087 27.2646 175.616 27.1309C177.729 26.946 179.373 26.5355 180.55 25.9003C181.725 25.2373 182.266 24.3772 182.174 23.3207C182.103 22.5151 181.701 21.9197 180.967 21.5358C180.233 21.1521 178.871 20.9496 176.882 20.9276L170.994 20.8955C166.651 20.8832 163.438 20.1844 161.356 18.7978C159.271 17.3834 158.112 15.3417 157.879 12.6729C157.689 10.5044 158.154 8.61347 159.273 7.00274C160.421 5.38993 162.102 4.10826 164.315 3.1583C166.555 2.17797 169.205 1.55413 172.263 1.28657Z" fill="white"/>
<path fill-rule="evenodd" clip-rule="evenodd" d="M25.3887 14.8094C28.2801 14.5565 30.5936 15.0414 32.3252 16.2626C34.0537 17.456 35.0213 19.2483 35.2304 21.6387C35.3446 22.9448 35.1504 24.2223 34.6437 25.4708C34.1367 26.7198 33.2375 27.823 31.9482 28.7762C31.731 28.9348 31.4952 29.0794 31.2486 29.2232C31.9885 29.3323 32.6699 29.4947 33.291 29.7093C34.9333 30.2378 36.1968 31.0791 37.0821 32.2337C37.9651 33.3611 38.4757 34.7172 38.6144 36.3018C38.7627 37.9977 38.5062 39.5464 37.8445 40.9489C37.1804 42.3237 36.1046 43.4683 34.6158 44.383C33.1524 45.2674 31.2661 45.8114 28.9586 46.0133L5.85669 48.0344L6.871 31.7663L3.12033 16.7577L25.3887 14.8094ZM14.4881 41.1867L26.0947 40.1713C27.3453 40.0618 28.2915 39.6702 28.9331 38.9982C29.5746 38.3258 29.8479 37.4472 29.7531 36.3631C29.6582 35.2792 29.2089 34.4505 28.4029 33.8767C27.5939 33.2752 26.452 33.0379 24.9785 33.1668L14.9385 34.0452L14.4881 41.1867ZM14.3933 28.1262L23.293 27.3476C24.2936 27.26 25.1008 26.8938 25.7168 26.2518C26.3583 25.5794 26.6342 24.7295 26.5442 23.7008C26.4712 22.8669 26.1211 22.2101 25.4911 21.7329C24.8587 21.2283 23.9989 21.0236 22.9149 21.1184L12.8504 21.999L14.3933 28.1262Z" fill="white"/>
<path d="M109.198 29.0897L107.322 7.6412L115.706 6.9077L118.442 38.1845L107.558 39.1367L90.2049 18.5006L92.1284 40.4866L83.7445 41.2201L81.0082 9.94336L92.1858 8.96544L109.198 29.0897Z" fill="white"/>
</svg>
