<svg width="1169" height="122" viewBox="0 0 1169 122" fill="none" xmlns="http://www.w3.org/2000/svg">
<g clip-path="url(#clip0_3932_1178)">
<mask id="mask0_3932_1178" style="mask-type:luminance" maskUnits="userSpaceOnUse" x="0" y="0" width="145" height="121">
<path d="M0.53125 0.2854H144.434V120.974H0.53125V0.2854Z" fill="white"/>
</mask>
<g mask="url(#mask0_3932_1178)">
<path fill-rule="evenodd" clip-rule="evenodd" d="M144.434 114.988L0.53125 121.034V0.2854H144.434V114.988Z" fill="#259BFF"/>
</g>
<path fill-rule="evenodd" clip-rule="evenodd" d="M20.4422 101.104C22.6672 101.104 23.4832 99.8684 23.4832 98.6814C23.4832 95.6044 18.6002 96.6664 18.6002 94.8124C18.6002 94.0344 19.3172 93.5024 20.2942 93.5024C21.1962 93.5024 22.0612 93.7994 22.6792 94.4914L23.2972 93.7374C22.6052 93.0084 21.6292 92.5754 20.3802 92.5754C18.7492 92.5754 17.5372 93.5154 17.5372 94.8744C17.5372 97.8164 22.4202 96.6294 22.4202 98.7554C22.4202 99.3984 21.9502 100.189 20.4792 100.189C19.9886 100.19 19.5037 100.084 19.0579 99.8791C18.612 99.6744 18.2157 99.3757 17.8962 99.0034L17.2772 99.7944C17.9572 100.56 19.0202 101.104 20.4422 101.104ZM37.8942 100.955V93.6264H40.5142V92.7114H34.2602V93.6264H36.8682V100.955H37.8942ZM55.1242 101.104C57.3612 101.104 58.4982 99.7944 58.4982 97.7424V92.7114H57.4602V97.7294C57.4602 99.2374 56.6442 100.189 55.1242 100.189C53.6042 100.189 52.8002 99.2374 52.8002 97.7294V92.7114H51.7622V97.7544C51.7622 99.7814 52.8992 101.104 55.1242 101.104ZM73.1322 100.041H71.3402V93.6264H73.1322C75.1722 93.6264 76.2962 95.0604 76.2962 96.8404C76.2962 98.6074 75.1352 100.041 73.1322 100.041ZM73.1322 100.955C75.7032 100.955 77.3592 99.1884 77.3592 96.8404C77.3592 94.5044 75.7032 92.7114 73.1322 92.7114H70.3142V100.955H73.1322ZM88.8542 100.955H89.8802V92.7114H88.8542V100.955ZM105.453 100.189C103.599 100.189 102.425 98.7554 102.425 96.8404C102.425 94.9114 103.599 93.4904 105.453 93.4904C107.295 93.4904 108.494 94.9114 108.494 96.8404C108.494 98.7554 107.295 100.189 105.453 100.189ZM105.453 101.104C107.888 101.104 109.557 99.2754 109.557 96.8404C109.557 94.4044 107.888 92.5754 105.453 92.5754C103.018 92.5754 101.362 94.4044 101.362 96.8404C101.362 99.2754 103.018 101.104 105.453 101.104ZM123.709 101.104C125.934 101.104 126.749 99.8684 126.749 98.6814C126.749 95.6044 121.867 96.6664 121.867 94.8124C121.867 94.0344 122.584 93.5024 123.56 93.5024C124.463 93.5024 125.328 93.7994 125.946 94.4914L126.564 93.7374C125.872 93.0084 124.895 92.5754 123.647 92.5754C122.015 92.5754 120.804 93.5154 120.804 94.8744C120.804 97.8164 125.686 96.6294 125.686 98.7554C125.686 99.3984 125.217 100.189 123.746 100.189C123.256 100.19 122.771 100.084 122.325 99.8791C121.879 99.6744 121.483 99.3757 121.163 99.0034L120.545 99.7944C121.224 100.56 122.287 101.104 123.709 101.104ZM98.6352 75.4764L98.6172 84.6084H88.9622L53.2852 84.6994V84.7014H24.3832C24.2796 84.7061 24.1759 84.7084 24.0722 84.7084C22.9972 84.7084 20.2852 84.4864 18.3442 82.4354C16.1942 80.1624 16.1422 77.4034 16.1482 76.9824L16.1522 65.3394C16.1252 64.7494 16.1162 61.8404 18.3232 59.4444C20.1412 57.4714 22.9842 57.3184 23.8112 57.3184L63.5102 57.2804V74.5844H86.8582V57.4184H98.6302L98.5912 65.5154L109.89 57.4184H125.452L109.217 70.8404L125.623 84.6084H109.538L98.6352 75.4764ZM112.077 70.8514L130.538 55.5884H109.302L100.438 61.9394L100.469 55.5884H85.0272V72.7544H65.3402V55.4504L23.8112 55.4874C22.7952 55.4874 19.2992 55.6834 16.9772 58.2044C14.3802 61.0234 14.2822 64.3514 14.3222 65.3774L14.3182 76.9714C14.3112 77.6424 14.4192 80.9494 17.0152 83.6934C19.4442 86.2614 22.7602 86.5384 24.0722 86.5384L55.1152 86.5314L90.7922 86.4384H100.444L100.457 79.3904L108.873 86.4384H130.651L112.077 70.8514Z" fill="white"/>
<path fill-rule="evenodd" clip-rule="evenodd" d="M51.4539 59.1584V65.5673H27.8279C27.8279 65.5673 27.1189 65.5233 26.6899 65.9993C26.2839 66.4493 26.3179 67.0683 26.3179 67.0683L26.3169 67.9474H51.4079V74.2193H26.3069L26.3139 75.0784C26.3139 75.0784 26.3359 75.7124 26.7139 76.0474C27.2369 76.5114 27.7179 76.4624 27.7179 76.4624H51.4539V82.8713H24.3309C24.3309 82.8713 21.4749 83.0823 19.6729 81.1773C17.9249 79.3293 17.9769 76.9963 17.9769 76.9963L17.9809 65.2914C17.9809 65.2914 17.8059 62.7064 19.6679 60.6854C21.1649 59.0604 23.8859 59.1494 23.8859 59.1494L51.4539 59.1584ZM53.3929 59.1104H61.6779V76.4153H87.1299V82.8694H53.3929V59.1104ZM110.477 59.2484H120.365L106.357 70.8303L120.594 82.7784H110.202L96.8109 71.5624L96.7899 82.7784H88.6869V59.2484H96.7899L96.7419 69.0904L110.477 59.2484Z" fill="white"/>
</g>
<path fill-rule="evenodd" clip-rule="evenodd" d="M206.605 14.5781C212.607 14.5781 217.854 15.6668 222.344 17.8452C226.878 20.0235 230.39 23.0687 232.88 26.9808C235.414 30.8929 236.68 35.4722 236.68 40.718C236.68 45.9637 235.414 50.543 232.88 54.4552C230.39 58.3672 226.878 61.4124 222.344 63.5907C217.854 65.7691 212.607 66.8586 206.605 66.8586C200.604 66.8586 195.336 65.769 190.801 63.5907C186.311 61.4124 182.799 58.3672 180.265 54.4552C177.776 50.543 176.531 45.9637 176.531 40.718C176.531 35.4722 177.776 30.8929 180.265 26.9808C182.799 23.0687 186.311 20.0235 190.801 17.8452C195.336 15.6669 200.604 14.5782 206.605 14.5781ZM206.605 28.3813C203.627 28.3813 201.049 28.893 198.87 29.9154C196.737 30.8935 195.091 32.3159 193.936 34.183C192.78 36.0056 192.202 38.1841 192.202 40.718C192.202 43.2519 192.78 45.4526 193.936 47.3197C195.091 49.1424 196.737 50.5648 198.87 51.5873C201.049 52.5653 203.627 53.0546 206.605 53.0546C209.584 53.0546 212.141 52.5653 214.275 51.5873C216.453 50.5648 218.12 49.1424 219.276 47.3197C220.432 45.4526 221.01 43.2519 221.01 40.718C221.01 38.1841 220.432 36.0056 219.276 34.183C218.12 32.3159 216.453 30.8935 214.275 29.9154C212.141 28.893 209.584 28.3813 206.605 28.3813Z" fill="white"/>
<path d="M258.134 43.0522C258.134 45.1416 258.512 46.92 259.268 48.387C260.024 49.854 261.157 51.0099 262.669 51.8545C264.18 52.6547 266.07 53.0546 268.337 53.0546C270.693 53.0546 272.627 52.6547 274.139 51.8545C275.65 51.0544 276.761 49.9207 277.473 48.4539C278.228 46.9424 278.607 45.1416 278.607 43.0522V15.7114H294.144V43.919C294.144 48.4978 293.077 52.521 290.943 55.9885C288.809 59.4116 285.808 62.0792 281.941 63.9908C278.073 65.9024 273.538 66.8586 268.337 66.8586C263.225 66.8586 258.735 65.9023 254.867 63.9908C250.999 62.0792 247.977 59.4116 245.798 55.9885C243.664 52.5209 242.597 48.498 242.597 43.919V15.7114H258.134V43.0522Z" fill="white"/>
<path d="M511.462 14.5781C516.353 14.5781 520.687 15.267 524.466 16.6451C528.289 18.0232 531.312 19.9796 533.534 22.5136C535.802 25.0032 537.047 27.915 537.269 31.2492H521.532C521.354 30.2711 520.842 29.4266 519.998 28.7154C519.197 27.9596 518.042 27.3809 516.53 26.9808C515.019 26.5807 513.218 26.3812 511.129 26.3811C508.373 26.3811 506.172 26.7148 504.527 27.3816C502.927 28.0485 502.126 29.0486 502.126 30.3823C502.127 31.3602 502.593 32.1601 503.527 32.7825C504.505 33.4049 506.283 33.8271 508.862 34.0494L518.531 34.8503C523.332 35.2059 527.2 35.9611 530.134 37.1168C533.112 38.2282 535.268 39.7624 536.602 41.7185C537.935 43.63 538.603 46.0527 538.603 48.9867C538.603 52.5432 537.536 55.6777 535.402 58.3895C533.268 61.0568 530.267 63.1466 526.4 64.658C522.577 66.1251 518.086 66.8586 512.929 66.8586C507.639 66.8586 502.993 66.1251 498.992 64.658C494.991 63.1911 491.857 61.1458 489.59 58.5231C487.323 55.8559 486.145 52.7881 486.056 49.3207H501.793C501.971 50.4764 502.527 51.4992 503.46 52.3882C504.438 53.2328 505.75 53.8994 507.395 54.3883C509.039 54.8329 510.973 55.0548 513.196 55.0548C516.264 55.0548 518.642 54.6996 520.332 53.9883C522.065 53.277 522.932 52.1874 522.932 50.7204C522.932 49.6981 522.443 48.8757 521.465 48.2534C520.487 47.5866 518.553 47.142 515.663 46.9197L506.861 46.1865C499.659 45.653 494.436 44.0964 491.19 41.518C487.99 38.8951 486.389 35.383 486.389 30.9819C486.389 27.3811 487.434 24.3805 489.523 21.98C491.613 19.5349 494.525 17.6894 498.259 16.4447C501.993 15.1999 506.395 14.5781 511.462 14.5781Z" fill="white"/>
<path d="M568.639 14.5781C573.529 14.5781 577.863 15.267 581.642 16.6451C585.465 18.0232 588.488 19.9796 590.711 22.5136C592.978 25.0032 594.223 27.915 594.446 31.2492H578.708C578.53 30.2711 578.019 29.4266 577.174 28.7154C576.374 27.9596 575.218 27.3809 573.707 26.9808C572.195 26.5807 570.395 26.3812 568.306 26.3811C565.549 26.3811 563.349 26.7148 561.704 27.3816C560.104 28.0485 559.303 29.0486 559.303 30.3823C559.303 31.3602 559.77 32.1601 560.703 32.7825C561.681 33.4049 563.46 33.8271 566.038 34.0494L575.708 34.8503C580.509 35.2059 584.376 35.9611 587.31 37.1168C590.289 38.2282 592.445 39.7624 593.778 41.7185C595.112 43.63 595.779 46.0527 595.779 48.9867C595.779 52.5432 594.712 55.6777 592.578 58.3895C590.444 61.0568 587.444 63.1466 583.576 64.658C579.753 66.1251 575.262 66.8586 570.105 66.8586C564.815 66.8586 560.17 66.1251 556.169 64.658C552.168 63.1911 549.034 61.1458 546.767 58.5231C544.499 55.8559 543.321 52.7881 543.232 49.3207H558.97C559.148 50.4764 559.703 51.4992 560.637 52.3882C561.615 53.2328 562.926 53.8994 564.571 54.3883C566.216 54.8329 568.15 55.0548 570.373 55.0548C573.44 55.0548 575.819 54.6996 577.508 53.9883C579.242 53.277 580.109 52.1874 580.109 50.7204C580.109 49.6981 579.619 48.8757 578.641 48.2534C577.663 47.5866 575.729 47.142 572.84 46.9197L564.037 46.1865C556.836 45.653 551.612 44.0964 548.367 41.518C545.166 38.8951 543.566 35.383 543.566 30.9819C543.566 27.3811 544.61 24.3805 546.7 21.98C548.789 19.5349 551.701 17.6894 555.435 16.4447C559.17 15.1999 563.571 14.5781 568.639 14.5781Z" fill="white"/>
<path fill-rule="evenodd" clip-rule="evenodd" d="M654.509 14.5781C660.511 14.5781 665.757 15.6668 670.247 17.8452C674.782 20.0235 678.294 23.0687 680.784 26.9808C683.318 30.8929 684.584 35.4722 684.584 40.718C684.584 45.9637 683.318 50.543 680.784 54.4552C678.294 58.3672 674.782 61.4124 670.247 63.5907C665.757 65.7691 660.511 66.8586 654.509 66.8586C648.508 66.8586 643.24 65.7689 638.706 63.5907C634.216 61.4124 630.704 58.3672 628.17 54.4552C625.68 50.543 624.435 45.9638 624.435 40.718C624.435 35.4722 625.68 30.8929 628.17 26.9808C630.704 23.0689 634.216 20.0234 638.706 17.8452C643.24 15.667 648.508 14.5782 654.509 14.5781ZM654.509 28.3813C651.531 28.3813 648.953 28.893 646.774 29.9154C644.64 30.8935 642.995 32.3159 641.839 34.183C640.684 36.0057 640.106 38.1841 640.106 40.718C640.106 43.2519 640.684 45.4526 641.839 47.3197C642.995 49.1424 644.64 50.5648 646.774 51.5873C648.953 52.5653 651.531 53.0546 654.509 53.0546C657.488 53.0546 660.044 52.5653 662.178 51.5873C664.357 50.5648 666.024 49.1424 667.18 47.3197C668.336 45.4526 668.914 43.2519 668.914 40.718C668.914 38.1841 668.336 36.0056 667.18 34.183C666.024 32.3159 664.357 30.8935 662.178 29.9154C660.044 28.893 657.488 28.3813 654.509 28.3813Z" fill="white"/>
<path d="M820.528 14.5781C825.418 14.5781 829.752 15.267 833.531 16.6451C837.354 18.0232 840.378 19.9796 842.601 22.5136C844.868 25.0031 846.112 27.9151 846.334 31.2492H830.597C830.419 30.2711 829.908 29.4266 829.063 28.7154C828.263 27.9596 827.107 27.3809 825.595 26.9808C824.084 26.5807 822.284 26.3812 820.195 26.3811C817.438 26.3811 815.238 26.7148 813.593 27.3816C811.992 28.0485 811.192 29.0486 811.192 30.3823C811.192 31.3602 811.659 32.1601 812.592 32.7825C813.57 33.4049 815.349 33.8271 817.927 34.0494L827.596 34.8503C832.397 35.2059 836.265 35.9611 839.199 37.1168C842.178 38.2282 844.334 39.7624 845.668 41.7185C847.002 43.63 847.668 46.0528 847.668 48.9867C847.668 52.5432 846.601 55.6777 844.467 58.3895C842.333 61.0568 839.333 63.1466 835.465 64.658C831.642 66.1251 827.151 66.8586 821.994 66.8586C816.704 66.8586 812.059 66.1251 808.058 64.658C804.057 63.1911 800.923 61.1459 798.656 58.5231C796.388 55.8559 795.21 52.7881 795.121 49.3207H810.859C811.036 50.4764 811.592 51.4992 812.526 52.3882C813.504 53.2328 814.815 53.8994 816.46 54.3883C818.105 54.8329 820.039 55.0548 822.262 55.0548C825.329 55.0548 827.708 54.6996 829.397 53.9883C831.131 53.277 831.998 52.1874 831.998 50.7204C831.998 49.6981 831.508 48.8757 830.53 48.2534C829.552 47.5866 827.618 47.142 824.729 46.9197L815.926 46.1865C808.724 45.653 803.501 44.0965 800.256 41.518C797.055 38.8951 795.454 35.383 795.454 30.9819C795.455 27.3811 796.499 24.3805 798.589 21.98C800.678 19.5349 803.59 17.6894 807.324 16.4447C811.059 15.1999 815.46 14.5781 820.528 14.5781Z" fill="white"/>
<path d="M893.854 14.5781C898.744 14.5781 903.079 15.267 906.857 16.6451C910.681 18.0232 913.704 19.9796 915.927 22.5136C918.194 25.0031 919.439 27.9151 919.661 31.2492H903.924C903.746 30.2711 903.234 29.4266 902.389 28.7154C901.589 27.9596 900.433 27.3809 898.922 26.9808C897.411 26.5807 895.61 26.3812 893.521 26.3811C890.765 26.3811 888.564 26.7148 886.919 27.3816C885.319 28.0485 884.518 29.0486 884.518 30.3823C884.518 31.3602 884.985 32.1601 885.919 32.7825C886.897 33.4049 888.675 33.8271 891.254 34.0494L900.923 34.8503C905.724 35.2059 909.592 35.9611 912.526 37.1168C915.504 38.2282 917.661 39.7624 918.995 41.7185C920.328 43.63 920.995 46.0528 920.995 48.9867C920.995 52.5432 919.927 55.6777 917.794 58.3895C915.66 61.0568 912.659 63.1466 908.792 64.658C904.968 66.1251 900.478 66.8586 895.321 66.8586C890.031 66.8586 885.385 66.1251 881.384 64.658C877.383 63.1911 874.249 61.1459 871.982 58.5231C869.715 55.8559 868.537 52.7881 868.448 49.3207H884.185C884.363 50.4764 884.919 51.4992 885.852 52.3882C886.83 53.2328 888.142 53.8994 889.786 54.3883C891.431 54.8329 893.365 55.0548 895.588 55.0548C898.656 55.0548 901.034 54.6996 902.724 53.9883C904.457 53.277 905.324 52.1874 905.324 50.7204C905.324 49.6981 904.835 48.8757 903.857 48.2534C902.879 47.5866 900.945 47.142 898.055 46.9197L889.253 46.1865C882.051 45.653 876.827 44.0965 873.582 41.518C870.381 38.8951 868.781 35.383 868.781 30.9819C868.781 27.3811 869.826 24.3805 871.915 21.98C874.005 19.5349 876.917 17.6894 880.651 16.4447C884.385 15.1999 888.786 14.5781 893.854 14.5781Z" fill="white"/>
<path fill-rule="evenodd" clip-rule="evenodd" d="M1005.06 14.5781C1011.06 14.5781 1016.31 15.6668 1020.8 17.8452C1025.33 20.0235 1028.84 23.0687 1031.33 26.9808C1033.87 30.8929 1035.13 35.4722 1035.13 40.718C1035.13 45.9637 1033.87 50.543 1031.33 54.4552C1028.84 58.3672 1025.33 61.4124 1020.8 63.5907C1016.31 65.7691 1011.06 66.8586 1005.06 66.8586C999.056 66.8586 993.788 65.7689 989.254 63.5907C984.764 61.4124 981.251 58.3672 978.717 54.4552C976.228 50.543 974.983 45.9638 974.983 40.718C974.983 35.4722 976.228 30.8929 978.717 26.9808C981.251 23.0689 984.764 20.0234 989.254 17.8452C993.788 15.667 999.056 14.5782 1005.06 14.5781ZM1005.06 28.3813C1002.08 28.3813 999.5 28.893 997.322 29.9154C995.188 30.8935 993.543 32.3159 992.387 34.183C991.231 36.0057 990.653 38.1841 990.653 40.718C990.653 43.2519 991.231 45.4526 992.387 47.3197C993.543 49.1424 995.188 50.5648 997.322 51.5873C999.5 52.5653 1002.08 53.0546 1005.06 53.0546C1008.04 53.0546 1010.59 52.5653 1012.73 51.5873C1014.9 50.5648 1016.57 49.1424 1017.73 47.3197C1018.88 45.4526 1019.46 43.2519 1019.46 40.718C1019.46 38.1841 1018.88 36.0056 1017.73 34.183C1016.57 32.3159 1014.9 30.8935 1012.73 29.9154C1010.59 28.893 1008.04 28.3813 1005.06 28.3813Z" fill="white"/>
<path d="M1117.48 14.5781C1122.37 14.5781 1126.71 15.267 1130.48 16.6451C1134.31 18.0232 1137.33 19.9796 1139.55 22.5136C1141.82 25.0031 1143.07 27.9151 1143.29 31.2492H1127.55C1127.37 30.2711 1126.86 29.4266 1126.02 28.7154C1125.22 27.9596 1124.06 27.3809 1122.55 26.9808C1121.04 26.5807 1119.24 26.3812 1117.15 26.3811C1114.39 26.3811 1112.19 26.7148 1110.55 27.3816C1108.95 28.0485 1108.14 29.0486 1108.14 30.3823C1108.14 31.3602 1108.61 32.1601 1109.55 32.7825C1110.52 33.4049 1112.3 33.8271 1114.88 34.0494L1124.55 34.8503C1129.35 35.2059 1133.22 35.9611 1136.15 37.1168C1139.13 38.2282 1141.29 39.7624 1142.62 41.7185C1143.95 43.63 1144.62 46.0528 1144.62 48.9867C1144.62 52.5432 1143.55 55.6777 1141.42 58.3895C1139.29 61.0568 1136.29 63.1466 1132.42 64.658C1128.59 66.1251 1124.1 66.8586 1118.95 66.8586C1113.66 66.8586 1109.01 66.1251 1105.01 64.658C1101.01 63.1911 1097.88 61.1458 1095.61 58.5231C1093.34 55.8559 1092.16 52.7881 1092.07 49.3207H1107.81C1107.99 50.4764 1108.54 51.4992 1109.48 52.3882C1110.46 53.2328 1111.77 53.8994 1113.41 54.3883C1115.06 54.8329 1116.99 55.0548 1119.21 55.0548C1122.28 55.0548 1124.66 54.6996 1126.35 53.9883C1128.08 53.277 1128.95 52.1874 1128.95 50.7204C1128.95 49.6981 1128.46 48.8757 1127.48 48.2534C1126.51 47.5866 1124.57 47.142 1121.68 46.9197L1112.88 46.1865C1105.68 45.653 1100.45 44.0965 1097.21 41.518C1094.01 38.8951 1092.41 35.383 1092.41 30.9819C1092.41 27.3811 1093.45 24.3805 1095.54 21.98C1097.63 19.5349 1100.54 17.6894 1104.28 16.4447C1108.01 15.1999 1112.41 14.5781 1117.48 14.5781Z" fill="white"/>
<path fill-rule="evenodd" clip-rule="evenodd" d="M332.74 15.7114C336.608 15.7114 340.008 16.4004 342.942 17.7784C345.876 19.1565 348.166 21.0682 349.811 23.5133C351.456 25.9584 352.278 28.8263 352.278 32.116C352.278 35.3167 351.456 38.1617 349.811 40.6511C348.166 43.0962 345.876 45.0079 342.942 46.386C342.172 46.7363 341.368 47.0386 340.534 47.2969L354.079 65.7245H336.274L323.926 48.387H317.736V65.7245H302.198V15.7114H332.74ZM317.736 37.3173H330.406C332.362 37.3173 333.874 36.8727 334.941 35.9836C336.052 35.0945 336.608 33.8052 336.608 32.116C336.608 30.4269 336.052 29.1376 334.941 28.2485C333.874 27.3594 332.362 26.9148 330.406 26.9148H317.736V37.3173Z" fill="white"/>
<path fill-rule="evenodd" clip-rule="evenodd" d="M404.523 15.7114C408.88 15.7114 412.615 16.4449 415.727 17.912C418.883 19.379 421.283 21.4465 422.928 24.1137C424.573 26.7366 425.396 29.8488 425.396 33.4498C425.396 37.006 424.573 40.1177 422.928 42.7849C421.283 45.4522 418.883 47.5196 415.727 48.9867C412.615 50.4537 408.88 51.1873 404.523 51.1873H391.453V65.7245H375.916V15.7114H404.523ZM391.453 38.9174H403.523C405.479 38.9174 406.991 38.4288 408.058 37.4509C409.169 36.4729 409.724 35.139 409.724 33.4498C409.724 31.6715 409.169 30.3154 408.058 29.3818C406.991 28.4482 405.479 27.9813 403.523 27.9813H391.453V38.9174Z" fill="white"/>
<path fill-rule="evenodd" clip-rule="evenodd" d="M486.291 65.7245H469.686L465.913 56.7226H441.331L437.545 65.7245H421.007L443.346 15.7114H463.885L486.291 65.7245ZM446.548 44.3191H460.715L453.644 27.4485L446.548 44.3191Z" fill="white"/>
<path d="M617.88 65.7245H602.342V15.7114H617.88V65.7245Z" fill="white"/>
<path d="M733.046 48.0318V15.7114H748.116V65.7245H728.644L706.172 32.3774V65.7245H691.167V15.7114H711.24L733.046 48.0318Z" fill="white"/>
<path d="M788.432 65.7245H772.895V15.7114H788.432V65.7245Z" fill="white"/>
<path d="M943.095 51.9213H973.37V65.7245H927.558V15.7114H943.095V51.9213Z" fill="white"/>
<path d="M1089.44 29.5154H1070.9V65.7245H1055.36V29.5154H1036.83V15.7114H1089.44V29.5154Z" fill="white"/>
<path d="M320.944 106.334C320.022 106.568 315.663 106.5 317.514 106.387C317.996 106.356 320.152 106.36 320.944 106.334Z" fill="#259BFF"/>
<path d="M324.78 105.699C323.67 105.911 321.062 105.827 319.449 105.914C317.153 106.037 313.526 106.838 315.086 106.079C318.294 105.954 321.553 105.826 324.78 105.699Z" fill="#259BFF"/>
<path d="M958.385 89.2461C958.507 89.2694 958.446 89.2875 958.244 89.3077C958.235 89.2884 958.286 89.269 958.385 89.2461Z" fill="#259BFF"/>
<path d="M1047.47 77.0889C1048.88 77.1799 1044.94 77.287 1043.99 77.2637C1041.87 77.2111 1047.29 77.0785 1047.47 77.0889Z" fill="#259BFF"/>
<path fill-rule="evenodd" clip-rule="evenodd" d="M1066.04 74.8614C1067.09 74.9158 1063.36 75.0997 1063.05 75.2295C1063.07 75.252 1066.18 75.4142 1066.24 75.4346C1066.43 75.6575 1062.89 75.5772 1063.3 75.7725C1064.18 75.7952 1065.05 75.8182 1065.93 75.8409C1062.56 76.1277 1056.32 76.1676 1054.72 76.4414C1059.71 76.2537 1064.94 76.1391 1064.95 76.6709C1064.94 76.8943 1062.8 77.0758 1062.88 77.1309C1063.2 77.3269 1066.19 77.0359 1066.3 77.044C1066.39 77.0542 1066.43 77.0654 1066.43 77.0772C1066.43 77.1965 1062.17 77.383 1061.96 77.4424C1061.6 77.5477 1063.51 77.9012 1063.51 77.9893C1063.43 78.0093 1060.41 78.1746 1061.44 78.3038C1062.48 78.4344 1065.13 78.375 1065.23 78.3887C1065.74 78.4696 1061.09 78.6636 1060.95 78.7217C1060.89 78.7513 1063.38 78.8629 1063.46 78.9102C1063.52 78.958 1061.62 79.1098 1060.88 79.2823C1060.33 79.4106 1061.95 79.4606 1061.67 79.4854C1061.46 79.5022 1057.07 79.6036 1056.85 79.6289C1056.53 79.6665 1057.56 79.7805 1057.41 79.8184C1057.2 79.8728 1055.78 79.8568 1055.97 79.9034C1056.11 79.9382 1061.62 80.2836 1061.59 80.4112C1061.52 80.6276 1055.7 80.269 1061.13 80.9942C1061.17 80.9989 1062.49 80.907 1062.53 80.9112C1063.35 81.049 1059.12 81.3906 1064.29 81.2266C1054.67 81.7258 1063.1 81.58 1061.69 81.9776C1061.14 82.13 1057.44 82.2747 1057.39 82.2969C1057.76 82.4658 1058.95 82.3004 1059.35 82.378C1059.58 82.4215 1056.24 82.6878 1057 82.792C1057.39 82.8456 1060.93 82.7403 1061.08 82.7491C1062.48 82.8317 1060.76 82.9965 1061.07 83.0713C1061.28 83.1214 1063.41 83.0756 1063.47 83.084C1063.56 83.1026 1060.67 83.393 1060.06 83.4854C1059.61 83.5563 1061.33 83.6108 1061.01 83.6446C1059.08 83.8469 1054.96 83.5436 1058.94 84.0108C1059.18 84.0393 1060.68 83.9904 1060.72 83.9961C1061.65 84.1332 1058.89 84.2119 1058.4 84.3536C1057.56 84.5973 1061.52 84.3792 1058.23 84.6143C1060.71 84.7026 1062.09 84.6637 1064.98 84.5547C1056.97 84.8574 1054.15 85.5044 1063.05 85.2803C1060.22 85.3379 1060.54 85.6579 1059.7 85.6836C1059.17 85.6992 1055.06 85.4702 1056.96 86.1563C1057.2 86.2419 1059.69 86.0675 1058.91 86.2725C1052.94 86.3655 1058.77 86.3945 1058.79 86.419C1058.71 86.8505 1044.1 86.8423 1041.59 86.9502C1038.68 87.0758 1036.09 87.4758 1035.46 87.4913C1033.37 87.5405 1035.1 87.3277 1034.63 87.2754C1034.15 87.2239 1028.24 87.6936 1027.94 87.6827C1026.79 87.6369 1027.95 87.405 1027.83 87.3975C1026.4 87.3061 1018.45 87.6533 1016.22 87.6582C1016.31 87.7883 1020.76 87.6938 1017.98 87.9717C1014.74 88.2957 1014.53 87.7179 1014.45 87.6934C999.528 88.05 984.615 88.407 969.727 88.7627C969.928 89.0677 979.648 88.6051 979.873 88.6407C981.169 88.8522 964.749 89.2343 962.7 89.1729C964.238 89.2038 965.78 89.2348 967.317 89.2657C964.7 89.6842 958.88 89.357 955.095 89.6036C953.899 89.6817 956.125 89.7631 956.177 89.7764C954.804 89.9473 952.595 89.8928 954.24 89.668C950.887 89.9252 951.373 89.717 948.799 89.7627C948.667 89.7653 949.774 89.8837 947.739 89.9913C946.783 90.0416 941.71 90.1615 941.018 90.3038C940.739 90.3635 943.34 90.8594 943.645 90.3721C949.179 90.4763 945.407 90.1118 947.556 90.0723C947.886 90.0671 947.132 90.3534 952.547 90.0997C951.524 90.6076 945.281 90.3929 944.216 90.4766C942.018 90.6488 951.099 90.6849 952.762 90.2686C951.992 90.6642 953.407 90.3037 955.436 90.2715C957.656 90.2361 956.691 90.3714 957.893 90.3438C961.18 90.2693 959.811 90.0356 962.528 90.212C959.863 89.5307 967.183 90.0042 969.292 90.1495C965.857 90.268 962.384 90.387 958.936 90.5059C959.134 90.5403 959.332 90.575 959.53 90.6094C958.621 90.6253 957.712 90.6414 956.803 90.6573C956.947 90.6165 957.092 90.575 957.236 90.5342C952.555 90.8878 951.409 90.6416 951.026 90.6475C946.115 90.7313 940.442 90.867 935.455 90.9834C934.709 91.0009 935.224 91.2316 929.781 91.169C928.046 91.1491 929.678 90.9215 927.714 90.9961C925.269 91.5683 925.307 91.1573 924.576 91.1739C922.483 91.2232 921.208 91.3797 921.013 91.3858C918.438 91.4662 914.618 91.5351 911.768 91.6211C911.813 91.6319 913.138 91.7473 911.349 91.7442C910.697 91.7428 904.846 91.2055 899.77 91.545C901.093 91.5594 902.417 91.5735 903.742 91.5879C902.179 91.561 891.303 91.9874 893.967 92.1055C895.598 92.1776 899.571 91.649 900.02 92.0567C896.427 92.0159 876.299 92.6765 874.767 92.6153C874.553 92.6063 875.873 92.4392 875.576 92.4288C875.344 92.421 870.764 92.5613 870.156 92.5235C869.795 92.501 871.813 92.3703 871.648 92.3252C871.504 92.2938 865.756 92.3702 865.432 92.5479C866.843 92.4464 870.823 92.4131 868.74 92.6055C868.472 92.6296 867.079 92.5528 866.754 92.583C863.742 92.8623 872.76 92.6 874.136 92.5694C868.535 92.9179 859.7 92.8696 853.182 93.1641C850.536 93.0846 857.095 92.8557 854.102 92.8086C847.896 92.7112 852.456 93.0429 852.264 93.0655C850.724 93.2445 845.477 92.6027 845.482 93.1856C843.218 93.151 843.947 93.0598 840.76 93.211C841.18 93.2415 841.6 93.2723 842.021 93.3028C838.483 93.7234 830.998 93.047 831.556 92.9688C833.054 92.7597 836.951 92.9401 837.286 92.9258C837.78 92.9046 839.122 92.281 844.539 92.6827C846.74 92.2342 835.975 92.6159 840.867 92.2305C837.548 92.3529 823.997 92.3958 822.066 92.6153C821.834 92.6436 822.931 93.0126 819.559 92.8907C817.959 92.8324 821.813 92.7369 821.079 92.6641C818.784 92.4417 788.339 93.334 782.55 93.4844C782.175 93.4936 782.309 93.3673 781.941 93.377C780.805 93.4071 776.714 93.6862 774.67 93.6778C778.903 93.8055 770.689 94.0162 768.608 94.0401C765.447 94.0762 765.639 93.8557 764.274 93.8418C759.015 93.7882 750.947 94.4897 746.812 94.1075C747.04 94.5771 739.732 94.0403 736.439 94.1133C733.853 94.1706 730.124 94.5726 733.607 94.6827C729.188 94.7644 724.381 94.9658 720.196 95.0928C719.502 95.1139 720.454 94.9518 719.27 94.9922C719.162 94.9974 719.015 95.1377 718.001 95.1758C709.628 95.4922 713.699 95.1041 712.132 95.0547C711.256 95.027 710.611 95.0183 710.138 95.0215C714.995 94.8808 720.642 94.6938 722.156 94.6543C720.85 94.3807 711.318 94.9673 708.549 94.9502C708.453 94.9494 708.783 94.7737 708.687 94.7745C708.684 94.7745 708.682 94.7754 708.68 94.7754C707.628 94.7873 700.906 95.0064 702.296 95.1739C702.664 95.2186 705.776 95.1455 709.418 95.042C708.44 95.1025 709.174 95.2729 709.003 95.2852C706.894 95.4275 701.67 95.3666 699.836 95.3848C699.415 95.3892 699.448 95.5089 699.379 95.5108C697.707 95.5226 698.384 95.1633 696.68 95.5577C693.645 95.2003 702.347 95.3605 701.733 95.0967C701.209 94.895 682.026 95.4595 682.028 95.7969C681.961 95.7624 681.692 95.7237 681.144 95.6856C679.923 95.6009 674.546 95.762 673.625 95.8457C673.47 95.8622 673.539 96.1878 673.346 96.1954C672.847 96.2145 666.345 96.11 663.874 96.3614C665.222 96.3757 666.523 96.3912 667.842 96.4063C659.864 96.5958 661.055 96.6655 663.757 96.7002C663.891 96.698 664.022 96.7068 664.15 96.7051C666.24 96.7287 668.843 96.738 668.891 96.7627C669.075 96.8569 655.44 97.2303 658.059 96.8653C658.418 96.8153 664.742 96.8027 661.607 96.6592C661.057 96.6341 657.009 96.7915 656.798 96.7725C655.368 96.647 664.211 96.2288 663.128 96.0284C660.978 96.2936 658.219 96.2446 655.768 96.3575C654.652 96.4087 654.382 96.5797 654.244 96.586C652.191 96.6769 653.34 96.4778 652.654 96.4981C652.284 96.5097 648.26 96.9699 649.01 96.4473C635.717 97.1298 645.345 96.9038 653.5 96.6846C650.911 96.9292 645.887 96.9578 643.609 97.0538C642.785 97.0885 643.277 97.2463 641.886 97.3125C638.985 97.4497 625.498 97.5713 621.951 97.6084C624.141 97.4977 623.495 97.3287 621.805 97.3809C620.115 97.4331 621.54 97.6447 621.211 97.6788C620.843 97.7145 612.959 97.7838 611.665 97.8457C617.576 97.6189 616.233 97.4666 611.219 97.5645C611.941 97.4949 612.665 97.4252 613.39 97.3555C610.434 97.4986 604.328 97.3619 602.601 97.4854C602.332 97.5051 603.302 97.6362 603.153 97.6475C601.641 97.7482 596.53 97.7107 596.297 97.7686C596.098 97.817 598.273 97.8952 597.468 97.9776C597.295 97.9945 595.196 97.8357 593.146 97.9346C592.384 97.9712 592.846 98.1063 592.654 98.1192C591.058 98.2264 591.992 97.9592 589.081 98.0664C586.937 98.1456 585.421 98.4203 582.405 98.4112C592.107 98.4907 584.022 98.5519 579.87 98.7413C579.216 98.7714 579.776 99.023 575.866 98.9854C584.183 98.3136 573.476 98.7881 571.322 98.833C571.203 98.8341 571.157 98.6607 570.095 98.6827C570.005 98.685 570.136 98.8001 569.15 98.8321C559.811 99.1347 565.771 98.8628 563.987 98.7881C563.209 98.7568 558.594 99.0308 557.361 99.0635C557.077 99.0704 557.204 98.9443 556.105 98.9746C554.162 99.0287 552.432 99.1994 551.159 99.2393C551.012 99.2429 550.995 99.0506 548.594 99.169C547.918 99.2022 547.162 99.2891 548.122 99.3223C551.301 99.4311 557.385 98.9727 561.064 99.0694C564.404 99.1577 553.887 99.4185 553.362 99.4317C553.164 99.4369 555.197 99.2931 553.128 99.3223C551.351 99.3478 548.186 99.756 545.527 99.7452C545.321 99.7444 543.184 99.5112 543.28 99.4922C543.377 99.4778 546.647 99.3402 546.17 99.2696C546.105 99.2618 544.025 99.3124 543.753 99.2579C543.418 99.191 542.505 98.4845 542.062 98.4766C540.924 98.458 541.667 98.6068 540.933 98.6123C539.349 98.6248 533.923 98.5349 533.759 98.7911C534.651 98.7853 535.545 98.7793 536.441 98.7735C531.468 98.915 533.594 98.9735 532.891 99.0371C532.137 99.1058 532.342 98.8787 530.678 98.8965C530.363 98.8993 523.237 99.1114 523.374 99.2012C527.295 98.9622 525.853 99.2694 526.031 99.2705C526.721 99.2724 527.605 99.0985 528.529 99.0801C534.885 98.9566 528.479 99.3475 529.981 99.375C530.498 99.384 531.525 99.229 531.746 99.2305C532.461 99.2356 532.477 99.4078 532.954 99.3829C534.068 99.3247 532.763 99.1116 532.85 99.0967C533.839 98.9216 537.763 99.0197 535.329 99.3409C536.796 99.4022 536.962 99.0763 538.131 99.1778C540.457 99.3783 536.977 99.3941 536.043 99.458C532.672 99.6889 531.737 99.5877 526.943 99.7413C525.201 99.7966 523.152 100 522.352 100.027C521.84 100.044 517.087 99.6115 516.973 100.465C515.127 100.425 512.282 99.9302 510.375 100C508.645 100.064 509.201 100.351 509.041 100.367C508.793 100.391 506.707 100.416 506.006 100.475C505.184 100.544 505.596 100.649 504.294 100.726C501.061 100.917 501.147 100.608 500.814 100.596C496.977 100.454 498.666 100.852 497.819 100.906C497.113 100.955 485.802 101.048 483.508 101.212C484.456 101.129 485.408 101.045 486.362 100.961C484.647 100.809 482.856 101.162 482.815 100.82C482.479 101.382 478.984 101.093 477.949 101.131C477.534 101.146 477.562 101.241 477.031 101.257C474.945 101.322 470.313 101.354 469.215 101.427C464.43 101.744 476.694 101.804 477.727 101.801C475.717 101.841 464.806 102.216 469.828 102.367C470.604 102.39 471.978 102.111 472.417 102.091C475.389 101.958 473.056 102.235 473.289 102.251C473.686 102.276 475.645 102.016 476.167 102.029C476.338 102.034 475.234 102.26 478.081 102.198C476.67 102.426 468.693 102.452 467.687 102.521C467.331 102.546 469.601 102.91 462.927 102.658C463.005 102.695 463.082 102.733 463.16 102.77C459.388 102.872 455.529 102.978 451.807 103.079C452.21 102.981 454.309 102.753 451.663 102.852C450.146 102.909 451.273 103.081 451.135 103.09C449.918 103.173 425.266 103.673 420.704 103.799C419.204 103.84 414.54 104.106 414.233 104.116C412.808 104.16 408.94 104.202 406.281 104.24C405.015 104.259 403.996 104.277 403.543 104.294C402.63 104.329 403.501 104.476 402.687 104.486C401.93 104.496 402.709 104.318 402.484 104.316C400.637 104.3 386.604 104.829 383.407 104.749C385.281 104.752 395.651 104.197 395.332 104.091C395.306 104.076 392.843 104.009 392.31 104.081C391.445 103.962 388.544 104.451 386.993 104.402C386.822 104.396 387.491 104.144 384.742 104.163C383.823 104.169 381.284 104.411 378.7 104.262C375.109 104.443 355.687 104.569 354.418 104.852C354.452 104.866 357.046 104.896 355.254 105.039C352.855 105.232 354.988 104.715 352.218 104.736C351.729 104.741 343.797 104.964 343.605 104.997C341.273 105.312 348.029 105.269 347.974 105.301C347.687 105.384 342.118 105.554 341.787 105.543C341.557 105.529 346.363 105.075 340.593 105.334C341.248 105.361 341.908 105.388 342.573 105.415C339.857 105.556 339.621 105.32 338.974 105.319C336.972 105.317 334.919 105.728 331.623 105.347C330.772 105.245 332.179 105.081 332.073 105.065C331.044 104.926 329.76 105.387 328.266 105.097C328.125 105.076 331.708 104.805 325.473 104.939C325.909 104.961 326.349 104.983 326.791 105.004C325.799 105.095 319.709 105.267 318.756 105.271C316.246 105.276 318.412 105.008 315.93 105.088C317.53 105.358 309.992 105.557 310.403 105.286C309.379 105.637 302.971 105.518 299.926 105.572C298.02 105.607 294.137 105.829 293.533 105.824C292.808 105.818 293.014 105.59 291.733 105.565C291.288 105.56 287.36 105.803 283.892 105.637C283.266 105.604 281.744 105.252 283.048 105.132C285.123 104.93 289.245 105.155 289.164 104.933C289.118 104.693 283.689 104.942 282.174 104.939C275.397 104.919 279.283 104.591 279.133 104.517C278.645 104.338 274.971 104.409 274.801 104.395C274.14 104.331 276.828 104.135 276.847 104.02C276.897 103.869 273.29 103.663 274.114 103.598C275.244 103.507 278.546 103.673 278.762 103.658C281.573 103.461 277.676 103.188 276.746 103.034C276.447 102.987 277.637 102.88 277.39 102.869C273.458 102.707 276.535 103.37 273.97 103.367C271.612 103.365 274.639 103.086 274.527 103.075C274.46 103.063 271.586 103.099 271.207 103.024C270.918 102.991 278.266 102.422 277.897 102.23C275.653 102.314 273.229 102.4 270.996 102.48C270.763 102.226 274.174 102.358 274.456 102.326C275.122 102.261 273.277 102.162 273.312 102.08C273.411 102.027 275.554 101.804 273.582 101.762C272.822 101.748 271.383 101.955 268.83 101.81C277.722 101.429 271.518 101.385 271.294 101.298C271.009 101.211 275.265 100.925 270.104 101.048C269.852 100.55 270.265 100.887 271.684 100.775C273.465 100.637 269.313 100.543 275.9 100.555C275.464 100.328 270.319 100.432 269.949 100.418C269.702 100.405 270.901 100.27 270.471 100.237C265.511 99.8602 268.908 100.014 267.469 99.7461C267.376 99.7227 262.677 99.6793 266.234 99.5889C272.729 99.4177 275.384 99.6965 276.541 98.9649C271.665 98.7441 265.925 99.29 264.449 99.3145C262.204 99.3534 264.514 99.1801 264.245 99.1426C264.133 99.1314 262.242 99.1647 262.197 99.1534C260.868 98.6313 270.751 99.0341 273.905 98.878C273.082 98.8108 272.176 98.7451 271.379 98.6768C272.465 98.6557 273.697 98.6315 274.776 98.6094C269.357 98.5383 274.579 98.5517 275.943 98.087C276.238 97.9829 272.641 98.2158 276.755 97.8682C273.674 97.8593 274.777 97.7496 271.977 97.9209C272.082 97.7439 278.119 97.4399 280.557 97.3028C272.096 97.258 276.925 97.822 269.547 97.6016C268.178 97.8417 271.749 97.7423 271.421 97.7832C270.394 97.9295 267.973 97.7634 265.09 98.2559C264.617 98.3365 266.629 98.5408 263.656 98.5674C263.364 98.5699 261.452 98.3947 261.483 98.3789C261.71 98.2244 263.595 98.2598 263.657 98.1954C263.747 98.1348 261.689 98.1923 261.659 98.1768C261.564 97.9857 263.408 98.0837 263.132 98.0264C262.546 97.9029 255.089 97.5663 264.843 97.5821C256.729 97.8902 263.786 97.8144 266.956 97.6817C267.726 97.6495 268.002 97.5307 269.111 97.4737C270.587 97.3992 272.288 97.4254 273.087 97.3907C273.904 97.3532 269.211 97.1625 275.994 97.126C272.544 96.9179 266.456 97.3055 263.11 97.1524C256.26 96.842 267.871 96.6353 269.043 96.5684C269.351 96.5536 268.317 96.4141 268.515 96.4014C268.813 96.3843 275.387 96.3462 276.067 96.2041C276.709 96.0646 273.639 96.2521 273.47 96.1211C273.274 96.0359 281.201 95.7339 276.943 95.7491C273.956 95.7618 268.564 96.2114 267.612 95.835C272.034 95.7368 276.273 95.6282 280.648 95.5147C278.291 95.4105 275.834 95.3071 273.534 95.1983C278.363 95.0683 282.6 95.1556 287.267 94.8526C276.149 94.5922 290.773 94.4065 291.023 94.3418C291.004 94.3079 286.766 94.0063 285.956 93.9512C289.807 93.7299 301.701 93.4142 294.723 93.0801C296.069 93.1599 298.935 92.8394 298.96 92.8164C298.593 92.6142 291.944 92.8848 293.033 92.6729C294.238 92.4284 296.134 92.6892 297.964 92.628C307.842 92.3 305.091 91.2601 315.023 91.2237C314.828 91.1888 314.634 91.1531 314.44 91.1182C325.172 90.9522 335.964 90.7791 346.733 90.6036C351.051 90.1734 362.202 89.7212 367.666 89.6358C368.812 89.6174 374.258 89.6712 374.644 89.6934C375.389 89.7358 371.286 89.8508 373.141 89.92C373.47 89.9354 382.776 89.7993 382.146 89.626C381.071 89.6285 377.794 89.797 377.268 89.7647C373.611 89.5323 401.931 89.1441 403.413 88.9825C402.771 88.9362 402.132 88.8902 401.495 88.8438C402.958 88.8348 404.437 88.8252 405.931 88.8155C406.265 88.8136 406.601 88.8115 406.937 88.8096C406.601 88.8424 406.266 88.8755 405.933 88.9082C405.54 88.9451 405.149 88.9818 404.759 89.0186C405.13 89.0162 405.525 89.0109 405.935 89.0039C407.747 88.974 409.876 88.9065 411.45 88.9122C411.762 88.9135 410.957 89.0862 411.695 89.0762C412.435 89.0661 412.287 88.8587 413.367 88.8116C414.566 88.7597 420.231 88.7767 422.054 88.7315C429.193 88.5542 436.41 88.2693 443.64 88.1905C436.174 88.5172 443.683 88.5031 445.815 88.3868C446.297 88.3601 446.189 87.972 453.576 87.9004C458.323 87.8536 453.909 88.5138 461.915 88.0498C455.719 87.8021 461.865 87.6881 466.496 87.5684C467.297 87.5477 473.922 87.4527 476.919 87.3663C477.947 87.3365 479.409 87.0984 480.73 87.0625C481.633 87.0382 482.319 87.1346 483.669 87.0977C489.99 86.9264 496.256 86.772 502.546 86.6641C498.857 87.2749 505.454 86.8213 505.768 86.8389C507.285 86.9465 500.435 87.1454 503.145 87.1719C506.911 87.0684 510.802 86.962 514.484 86.8604C511.415 86.867 518.537 86.3241 519.88 86.4649C519.308 86.0139 537.076 86.4702 539.794 86.252C540.367 86.2059 536.623 86.0629 545.273 85.9668C546.211 85.9567 545.867 86.1052 546.349 86.0811C546.635 86.0666 548.363 85.5806 550.231 85.7832C550.922 85.857 546.542 86.2513 556.149 85.9102C552.282 85.547 569.566 85.3523 572.668 85.3936C572.036 85.3474 571.405 85.3021 570.774 85.2559C573.891 85.3475 574.458 85.18 575.162 85.1719C577.996 85.1396 581.964 85.2027 584.605 85.127C587.666 85.0393 587.669 84.7575 591.264 84.7832C590.409 84.741 589.556 84.6986 588.704 84.6563C591.18 84.6135 593.668 84.5697 596.168 84.5264C590.398 85.0341 597.412 84.5152 597.883 84.4961C598.623 84.4653 597.562 84.6437 598.802 84.5957C598.93 84.5895 598.741 84.4495 600.655 84.3887C604.674 84.2617 604.012 84.4578 605.672 84.417C605.824 84.4125 605.288 84.2956 608.146 84.1983C617.257 83.888 608.101 84.2992 607.755 84.3252C607.297 84.3596 610.429 84.8281 602.7 84.8164C605.314 84.8166 605.559 85.0497 605.855 85.0489C606.11 85.0478 610.603 84.9097 610.855 84.8955C613.07 84.7625 611.118 84.644 611.547 84.6045C611.896 84.5727 617.354 84.6591 618.632 84.1368C621.268 84.5295 617.122 84.5842 612.758 84.7559C612.122 84.8639 616.922 84.8422 617.184 84.836C623.41 84.6897 619.958 84.3976 621.314 84.127C622.027 83.9853 624.583 84.1804 622.222 83.9004C627.836 83.7339 624.432 84.0072 624.8 84.0274C625.342 84.0569 627.289 83.916 627.536 83.9229C627.895 83.9334 626.651 84.0782 628.067 84.086C628.304 84.0862 630.579 83.8333 627.636 83.8067C631.567 83.7432 631.244 83.581 632.59 83.8926C635.296 83.1803 634.575 84.23 635.649 84.2413C638.509 84.2702 637.671 83.7806 637.82 83.752C638.862 83.5684 646.797 83.5577 648.712 83.4395C647.951 83.8242 642.503 83.5888 641.242 83.6895C637.13 84.0225 647.047 83.7369 644.075 84.2676C645.305 84.1122 646.537 83.9563 647.772 83.8008C650.05 84.0441 646.823 84.2496 652.946 83.9981C653.941 83.7189 648.617 84.1396 649.682 83.9131C650.306 83.7803 653.854 83.6715 653.932 83.6075C653.995 83.5311 650.79 83.6944 651.291 83.5674C652.377 83.2928 664.161 83.255 655.202 83.6006C657.698 83.538 659 84.0031 661.172 83.7979C662.571 83.6649 654.664 83.1653 666.507 83.0137C666.776 83.2411 661.784 83.193 661.648 83.2139C661.467 83.2443 662.384 83.7511 662.542 83.7735C663.166 83.8447 675.076 83.2827 677.665 83.4873C676.633 83.2064 686.843 83.2185 687.905 83.1006C688.196 83.0682 687.105 82.9071 687.414 82.8799C689.349 82.7168 694.625 82.9269 697.083 82.878C699.83 82.8234 699.481 82.6704 699.634 82.667C700.845 82.6477 699.88 82.7794 700.621 82.7618C701.73 82.7353 709.474 82.5759 709.821 82.545C709.929 82.5348 708.687 82.3805 710.345 82.3067C710.634 82.2938 710.45 82.5168 715.383 82.3067C721.33 82.0536 711.247 82.1316 713.713 81.8448C717.538 82.0813 717.411 81.7608 718.448 81.7618C718.808 81.7626 721.491 81.9745 724.409 81.8887C722.316 81.9824 720.227 82.0755 718.143 82.169C720.192 82.1691 724.184 82.0167 725.885 82.0313C726.714 82.0383 726.036 82.2798 727.838 82.2315C728.222 82.2196 729.72 81.6352 725.013 81.9922C724.631 81.8048 726.876 81.8798 727.918 81.7998C728.076 81.7874 728.689 81.4448 730.026 81.6172C730.336 81.6602 726.929 82.6971 735.779 81.7969C736.065 81.7679 735.068 81.6711 735.347 81.6397C735.537 81.6184 737.807 81.6137 738.059 81.5909C738.313 81.5665 737.215 81.4616 737.52 81.4288C739.083 81.2594 741.153 81.7304 737.92 81.7666C739.001 81.8054 740.084 81.8441 741.167 81.8829C740 81.5191 742.863 81.7328 744.363 81.6856C753.99 81.3828 747.538 81.2798 749.189 81.1094C751.848 80.8357 749.847 81.552 753.774 81.2588C754.139 81.2315 749.39 81.0588 758.648 81.002C757.281 81.0451 755.915 81.0878 754.551 81.1309C755.345 81.4905 759.483 80.9895 759.804 80.9766C763.447 80.8392 760.982 81.033 766.401 80.711C766.886 80.6822 767.944 80.7516 768.982 80.6807C773.28 80.388 763.305 80.6965 763.033 80.5498C762.895 80.478 773.627 80.2458 774.006 80.2725C775.577 80.3936 769.131 80.4559 770.364 80.6231C770.857 80.6811 786.04 80.1826 789.119 80.1866C792.656 80.1923 794.268 80.666 794.278 80.0909C795.292 80.6322 796.167 80.2258 796.622 80.2188C802.099 80.1426 802.079 80.1485 806.758 79.9844C807.79 79.9484 808.667 80.1001 809.032 80.0625C809.244 80.04 808.843 79.8653 809.884 79.7842C811.326 79.6728 820.061 79.6571 820.72 79.7432C821.372 79.8294 817.027 79.8739 817.81 80.0225C820.961 79.9654 823.95 79.8541 827.09 79.7979C828.395 79.7751 827.727 79.9074 828.291 79.8965C828.53 79.8924 833.034 79.6834 832.851 79.6446C832.389 79.5552 818.49 79.9486 822.145 79.6582C822.848 79.6022 825.349 79.8129 824.945 79.4952C837.377 79.2774 849.882 79.0576 862.345 78.8389C855.154 79.2528 847.185 79.2212 839.618 79.4219C838.586 79.449 835.105 79.4998 835.532 79.6553C841.932 79.5478 849.858 79.2752 855.975 79.2393C856.171 79.2383 855.455 79.4039 856.19 79.4102C857.562 79.4219 862.031 79.0769 862.786 79.1211C862.914 79.1326 860.372 79.3879 861.149 79.4942C863.146 79.7669 863.635 79.0477 865.347 79.0157C866.688 78.9909 875.541 79.1256 877.744 78.8575C880.083 78.572 871.22 78.8765 871.868 78.6729C877.857 78.3427 883.951 78.4017 889.649 78.2442C889.75 78.2412 888.875 78.1141 890.146 78.0635C892.357 77.9756 892.95 78.1713 894.02 78.1797C895.173 78.1883 899.257 78.0626 899.807 78.126C899.877 78.1344 899.053 78.3614 898.928 78.3702C897.15 78.4976 896.512 78.2429 896.35 78.2432C895.741 78.2473 895.146 78.3643 894.592 78.3711C893.68 78.3823 893.172 78.2993 891.958 78.3194C891.121 78.3329 891.933 78.4973 891.126 78.5079C890.829 78.5109 887.627 78.167 887.34 78.6016C887.367 78.7358 913.267 78.2996 915.902 78.1299C913.662 78.1312 911.424 78.1327 909.188 78.1338C913.727 78.1523 919.188 77.6822 919.573 78.1788C936.355 77.8255 953.179 77.4707 970.003 77.1163C973.001 77.0888 971.364 77.4528 976.296 77.2422C975.018 77.1688 973.741 77.095 972.464 77.0215C974.99 77.0347 986.21 76.9126 988.031 76.8028C988.267 76.7884 988.587 76.4869 991.395 76.3955C993.877 76.3148 994.281 76.5262 995.609 76.5371C996.725 76.5457 997.975 76.4586 998.307 76.4629C998.561 76.4667 998.665 76.5983 999.276 76.6075C1001.21 76.6347 999.635 76.2922 1001.56 76.6827C1001.09 76.7102 1000.63 76.7381 1000.16 76.7657C1002.49 76.7739 1005.68 76.8969 1002.25 77.0752C1001.66 77.1059 1002.17 76.9631 1001.73 76.9737C984.509 77.4029 998.258 77.3328 1004.29 76.9883C1005.85 77.1449 1014.55 76.8224 1014.84 76.8536C1015.24 76.8992 1013.76 77.0895 1015.71 77.1768C1016.13 77.1951 1027.73 76.8141 1023.56 77.169C1022.7 77.2423 1017.13 77.3173 1015.79 77.3565C1018.96 77.6913 1026.34 76.9308 1027.18 76.9258C1030.54 76.9105 1020.73 77.4324 1028.3 77.3018C1034.13 77.2013 1028.66 77.0571 1030.89 76.8877C1032.15 76.7927 1038.74 76.9378 1038.56 76.5528C1040.83 76.4579 1039.51 76.6959 1039.79 76.7041C1040.06 76.7107 1044.5 76.4889 1045.95 76.5371C1046.12 76.5433 1045.58 76.7592 1045.76 76.7715C1046.11 76.7915 1050.39 76.6503 1050.57 76.6289C1050.68 76.6144 1049.65 76.4612 1050.07 76.4082C1050.56 76.3472 1054.68 76.2914 1054.91 76.2354C1055.23 76.1512 1050.14 76.3217 1050.98 76.1036C1053.33 76.0983 1057.15 75.8759 1058.7 75.6797C1058.32 75.7343 1056.04 75.7944 1055.25 75.7969C1055.62 75.4976 1060.51 75.386 1058.84 75.6553C1059.9 75.5068 1059.18 75.4588 1059.77 75.3282C1059.93 75.295 1061.44 75.2535 1061.73 75.1963C1061.76 75.1853 1060.21 75.1122 1060.52 75.0459C1061.08 74.926 1065.66 74.8422 1066.04 74.8614ZM315.335 104.924C315.178 104.911 310.667 105.036 311.16 105.101C312.147 105.223 315.991 104.966 315.335 104.924ZM307.308 104.931C305.95 104.758 300.396 105.023 301.78 105.127C301.944 105.141 306.433 104.942 307.308 104.931ZM322.715 104.926C321.286 104.945 318.37 104.949 319.269 105.094C319.438 105.104 322.677 105.018 322.715 104.926ZM323.486 104.797C322.748 104.61 320.475 104.787 318.804 104.813C319.424 104.982 321.95 104.785 323.486 104.797ZM321.701 104.536C321.195 104.366 318.508 104.564 316.972 104.554C317.396 104.688 320.562 104.58 321.701 104.536ZM295.559 104.468C295.798 104.376 293.418 104.344 292.922 104.391C292.114 104.465 295.131 104.615 295.559 104.468ZM399.963 104.013C402.596 103.773 397.244 103.902 397.293 104.029C397.318 104.077 399.847 104.022 399.963 104.013ZM421.113 103.629C421.291 103.525 413.351 103.712 412.853 103.855C414.053 103.772 421.084 103.718 421.113 103.629ZM441.022 103.033C440.82 103.021 438.139 103.109 438.22 103.194C439.524 103.28 441.914 103.091 441.022 103.033ZM457.508 102.58C455.623 102.293 451.912 103.048 454.878 102.912C455.164 102.899 457.593 102.594 457.508 102.58ZM459.228 102.551C456.81 102.624 458.565 102.952 460.071 102.766C460.166 102.754 459.388 102.547 459.228 102.551ZM462.343 102.496C462.083 102.484 465.846 101.855 460.371 102.389C463.327 102.385 460.221 102.515 460.259 102.562C460.424 102.694 465.246 102.452 466.314 102.486C467.04 102.255 464.05 102.467 462.774 102.496H462.343ZM487.198 100.69C487.032 100.552 483.668 100.802 484.386 100.853C484.838 100.885 487.29 100.777 487.198 100.69ZM494.554 100.793C496.877 100.581 492.028 100.644 490.462 100.835C491.154 100.809 494.423 100.806 494.554 100.793ZM475.953 100.536C476.577 100.436 474.789 100.338 474.028 100.398C473.825 100.415 475.146 100.665 475.953 100.536ZM500.219 100.352C499.814 100.303 488.797 100.524 495.078 100.556C495.43 100.558 501.445 100.498 500.219 100.352ZM276.95 100.323C276.438 100.278 275.975 100.107 274.749 100.222C276.019 100.332 277.257 100.443 278.513 100.552C279.496 100.231 277.53 100.373 276.95 100.323ZM480.079 100.408C481.434 100.282 478.329 100.06 476.824 100.321C476.085 100.454 479.856 100.429 480.079 100.408ZM499.867 99.9541C498.592 99.9024 495.401 100.128 496.368 100.187C496.956 100.223 501.331 100.014 499.867 99.9541ZM476.578 99.7774C475.828 99.733 468.401 99.9727 469.544 100.128C469.942 100.183 474.205 99.9213 474.415 99.9288C474.716 99.9404 473.347 100.173 475.644 100.08C475.508 100.015 476.828 99.7923 476.578 99.7774ZM484.782 99.8438C482.207 99.56 483.429 99.9655 485.712 100.023C486.399 99.8535 485.205 99.8899 484.782 99.8438ZM482.653 99.6739C480.107 99.4717 479.555 99.9655 481.458 99.9229C482.203 99.9065 483.017 99.7031 482.653 99.6739ZM493.17 99.4717C492.23 99.4478 489.741 99.4384 488.045 99.6377C490.312 99.599 492.651 99.5589 494.899 99.5205C495.15 99.4242 494.005 99.4924 493.163 99.4717C493.165 99.4717 493.168 99.4718 493.17 99.4717ZM555.716 98.0684C555.134 98.0589 545.85 98.2678 544.243 98.211C548.387 98.7045 547.873 98.2611 548.241 98.2549C548.995 98.2437 550.755 98.3632 552.185 98.3038C550.548 98.4082 548.918 98.5121 547.295 98.6163C548.554 98.6296 559.833 98.5841 560.098 98.4825C560.432 98.3386 556.867 98.4646 556.761 98.4551C556.611 98.4415 556.046 98.0753 555.716 98.0684ZM564.245 98.3829C563.39 98.3911 561.521 98.3402 560.866 98.3838C559.022 98.5069 563.602 98.5427 564.245 98.3829ZM568.894 98.3887C567.98 98.2638 565.442 98.3335 566.201 98.4629C566.274 98.4749 568.521 98.5052 568.894 98.3887ZM575.754 98.1836C575.038 98.1788 574.132 98.4313 574.216 98.4395C574.943 98.507 576.96 98.2844 575.754 98.1836ZM584.568 98.1465C583.433 98.0295 580.201 98.2844 581.042 98.3213C581.629 98.3464 585.718 98.2641 584.568 98.1465ZM586.671 97.9932C588.878 97.7526 584.368 97.902 582.705 97.9473C582.642 98.0575 586.514 98.0096 586.671 97.9932ZM580.731 97.8663C580.538 97.8605 576.555 97.899 576.592 97.9952C577.639 98.0447 582.979 97.9416 580.731 97.8663ZM628.348 97.0391C628.005 97.0217 624.931 97.194 624.846 97.2715C626.619 97.3097 629.892 97.122 628.348 97.0391ZM611.107 97.1319C612.034 97.1553 612.301 97.2988 612.73 97.253C612.877 97.2373 612.897 97.0937 613.397 97.045C612.633 97.0739 611.87 97.103 611.107 97.1319ZM623.225 96.7832C617.39 96.5017 620.58 97.1896 621.61 97.0987C621.755 97.0857 623.366 96.7899 623.225 96.7832ZM634.504 96.875C633.875 96.8483 631.896 96.9337 631.693 97.0371C632.674 97.0627 635.961 96.9378 634.504 96.875ZM614.018 97.0205C615.409 97.0048 618.052 97.0871 617.745 96.8789H617.739C616.496 96.9262 615.255 96.9734 614.018 97.0205ZM861.2 92.7393C860.282 92.7416 857.993 92.7903 857.742 92.8858C857.433 93.0048 860.785 92.8872 861.2 92.7393ZM852.587 92.6006C852.27 92.589 844.254 92.7647 847.026 92.8711C847.86 92.9033 855.167 92.7095 852.587 92.6006ZM877.663 92.2774C876.642 92.2822 875.959 92.5198 876.135 92.5342C876.925 92.6002 878.83 92.3761 877.663 92.2774ZM883.252 92.0069C882.833 91.9825 872.289 92.1007 872.932 92.3594C873.819 92.3063 885.814 92.1656 883.252 92.0069ZM884.674 91.9239C884.365 92.0031 882.288 92.2783 884.088 92.2198C884.92 92.1923 886.256 91.9093 884.674 91.9239ZM890.613 91.8877C889.963 91.8608 888.25 91.9286 887.343 91.9356C890.242 92.0782 887.024 91.9502 887.156 92.169C889.103 92.1312 893.953 92.0274 890.613 91.8877ZM903.328 90.9834C897.795 91.0283 887.838 91.2531 882.022 91.3887C880.531 91.4233 881.257 91.5161 880.615 91.5352C880.108 91.55 880.706 91.3322 879.009 91.4483C878.203 91.5033 880.689 91.66 880.137 91.7149C879.781 91.7493 877.975 91.7113 877.401 91.792C877.24 91.8173 879.083 91.9763 879.615 91.9551C880.371 91.9257 879.635 91.7842 880.46 91.7637C883.201 91.6959 885.637 91.7517 888.213 91.6885C888.446 91.6825 886.639 91.6125 888.623 91.5674C888.93 91.5602 890.777 91.6843 893.154 91.6036C898.363 90.9626 902.2 91.3812 908.84 91.0381C908.586 90.9953 903.621 90.9814 903.328 90.9834ZM867.49 91.5928C867.157 91.5789 862.708 91.8288 864.551 91.9307C865.829 92.0015 866.028 91.792 866.328 91.7842C866.665 91.777 873.82 91.8607 867.49 91.5928ZM894.299 91.6407C893.631 91.6548 890.878 91.7481 890.822 91.7862C890.642 91.9172 894.012 91.769 894.299 91.6407ZM916.225 90.6231C914.649 90.6168 914.977 90.809 915.075 90.8135C916.263 90.8508 918.012 90.6301 916.225 90.6231ZM940.238 90.3731C939.452 90.3994 937.02 90.3963 936.818 90.462C936.563 90.5477 940.07 90.5146 940.238 90.3731ZM939.168 90.0459C939.772 89.9281 936.716 89.9726 935.815 90.0489C935.543 90.1815 939.07 90.0628 939.168 90.0459ZM963.577 88.8702C962.509 88.8291 959.119 89.0761 958.385 89.2461C958.247 89.2199 957.875 89.1904 957.195 89.1602C957.197 89.1601 957.199 89.1593 957.201 89.1592C956.271 89.1194 928.913 89.6963 947.274 89.5586C947.849 89.5545 947.061 89.4352 949.399 89.4043C949.554 89.4025 949.634 89.5126 950.111 89.5069C951.21 89.4929 957.067 89.4254 958.244 89.3077C958.255 89.328 958.332 89.3462 958.493 89.3604C959.941 89.4878 964.405 88.9018 963.577 88.8702ZM966.945 88.8682C966.843 88.8622 963.731 88.8736 964.158 89.002C964.784 89.1904 967.824 88.9229 966.945 88.8682ZM420.957 88.8038C420.074 89.0214 426.688 88.9194 424.942 88.795C424.55 88.7675 421.776 88.7865 420.957 88.8038ZM450.913 88.2373C451.792 88.1625 448.24 88.1024 448.255 88.2549C448.288 88.3024 450.797 88.2471 450.913 88.2373ZM490.756 87.0957C490.608 87.0911 487.483 87.1446 487.336 87.1543C484.208 87.3561 493.643 87.194 490.756 87.0957ZM500.353 86.8174C499.606 86.8416 496.323 86.8529 496.284 86.9141C496.233 87.0122 499.977 86.9923 500.353 86.8174ZM652.15 84.0713C649.942 84.1507 647.635 84.7724 650.374 84.6202C650.665 84.6037 652.403 84.1446 652.15 84.0713ZM643.453 84.1065C644.818 83.8699 637.784 84.0807 637.202 84.3311C638.123 84.3424 643.271 84.134 643.453 84.1065ZM661.575 84.0791C659.469 84.2699 663.991 84.2798 663.574 84.1026C663.513 84.0938 661.66 84.0712 661.575 84.0791ZM671.117 83.8545C669.293 83.6731 666.199 83.7682 666.971 84.043C670.392 83.9433 666.538 83.7893 671.117 83.8545ZM682.458 83.9454C684.329 83.7652 679.983 83.7063 679.184 83.8311C678.787 83.8933 681.635 84.0244 682.458 83.9454ZM709.338 83.0733C709.115 83.0653 706.435 83.1519 706.532 83.2364C707.545 83.2647 710.823 83.1289 709.338 83.0733ZM734.01 82.3829C733.951 82.264 730.897 82.3903 731.307 82.458C731.444 82.4808 734.045 82.4784 734.01 82.3829ZM782.525 81.2754C781.332 81.3292 778.244 81.3529 777.702 81.4737C779.156 81.4172 782.921 81.4816 782.525 81.2754ZM797.565 80.9551C795.237 80.8066 795.384 81.1802 797.09 81.1348C797.691 81.1188 797.639 80.9602 797.565 80.9551ZM798.303 80.8838C796.928 80.9841 799.3 81.2012 800.956 80.8955C800.109 80.9373 798.45 80.8736 798.303 80.8838ZM805.971 80.4629C805.014 80.4684 804.288 80.7664 804.396 80.7774C805.435 80.8791 806.924 80.55 805.971 80.4629ZM832.568 79.9082C832.706 79.7267 827.91 79.9396 829.804 80.043C830.277 80.0688 832.513 79.9691 832.568 79.9082ZM965.047 79.5137C964.941 79.5084 962.444 79.5533 962.328 79.5625C960.043 79.756 967.089 79.6312 965.047 79.5137ZM1042.86 79.126C1041.24 78.8477 1039.8 79.563 1042.29 79.3672C1042.41 79.358 1042.93 79.14 1042.86 79.126ZM995.423 79.1631C992.191 79.0247 994.242 79.439 996.065 79.3135C996.141 79.3051 995.503 79.1665 995.423 79.1631ZM1019.68 79.1319C1018.61 79.1297 1015.42 79.1386 1014.88 79.2715C1016.06 79.2221 1019.23 79.2661 1019.68 79.1319ZM872.136 79.1289C870.62 79.2844 875.445 79.3316 874.113 79.1524C874.041 79.1453 872.221 79.1204 872.136 79.1289ZM1035.87 79.0205C1034.88 79.0541 1032.36 79.0549 1031.79 79.0918C1029.8 79.2203 1034.9 79.2563 1035.87 79.0205ZM1007.81 78.878C1006.7 78.7148 1005.46 79.2053 1007.24 79.1758C1007.77 79.1662 1007.92 78.897 1007.81 78.878ZM1017.25 78.8282C1015.57 78.7043 1015.18 79.1901 1017.11 79.003C1017.18 78.9957 1017.31 78.8358 1017.25 78.8282ZM1041.71 78.3995C1039.55 78.2225 1040.32 78.9682 1040.59 78.9932C1041.71 79.0887 1045.49 78.6994 1046.26 78.6065C1040.59 78.8547 1042.72 78.483 1041.71 78.3995ZM893.268 78.7012C892.105 78.6882 887.164 78.8171 889.09 78.8887C889.39 78.8996 893.176 78.8128 893.268 78.7012ZM885.333 78.5528C885.071 78.54 878.854 78.5888 878.574 78.6133C875.355 78.9017 888.897 78.7341 885.333 78.5528ZM1025.62 77.5567C1027.88 77.9552 1023.19 77.93 1021.59 77.5996C1020.94 77.7068 1020.29 77.8138 1019.64 77.9209C1018.55 77.3848 1018.15 78.2858 1016.02 77.8702C1013.21 78.6125 1023.8 77.6878 1025.1 78.2286C1013.58 78.4333 1032.73 78.6148 1024.67 77.9493C1031.3 78.1035 1026.84 77.7922 1027.86 77.6592C1028.95 77.5175 1032.7 77.5551 1032.51 77.3506H1032.5C1030.21 77.4193 1027.91 77.4881 1025.62 77.5567ZM992.871 78.2774C991.824 78.3197 988.914 78.2818 988.752 78.4063C989.808 78.3639 992.706 78.4014 992.871 78.2774ZM1014.45 78.128C1012.12 78.0111 1013.23 78.5316 1014.95 78.3487C1015.05 78.3379 1014.55 78.1333 1014.45 78.128ZM1032.63 78.0391C1032.39 78.0344 1027.41 78.2149 1027.74 78.2979C1028.4 78.3399 1035.48 78.1039 1032.63 78.0391ZM1038.99 77.6407C1037.41 77.5965 1035.39 77.9746 1038.76 77.9317C1037.57 78.0099 1036.39 78.0878 1035.21 78.1661C1039.63 78.2473 1039.29 77.7971 1040.56 77.7862C1042.33 77.7714 1042.2 78.1534 1041.84 78.2803C1043.29 78.0148 1049.44 77.8661 1052.99 77.7383C1049.86 77.7148 1044.79 77.6658 1041.71 77.6768C1040.83 77.6797 1039.97 77.8035 1039.22 77.8096C1038.01 77.8188 1039.08 77.6442 1039 77.6407C1039 77.6407 1038.99 77.6406 1038.99 77.6407ZM1054.59 77.4239C1052.79 77.4649 1050.02 77.4426 1049.05 77.6358C1050.84 77.5948 1053.61 77.6171 1054.59 77.4239ZM994.836 77.4942C994.759 77.4846 992.396 77.4778 991.95 77.4952C987.63 77.6627 995.93 77.6542 994.836 77.4942ZM978.104 77.4414C980.716 77.2188 972.499 77.3816 972.083 77.4327C972.349 77.5268 977.84 77.4634 978.104 77.4414ZM1057.73 76.8487C1054.15 76.4513 1049.33 77.1218 1048.8 77.1221C1048.27 77.1221 1049.09 76.8921 1048.97 76.8887C1048.7 76.8834 1043.08 77.0337 1042.81 77.0547C1042.62 77.0708 1043.64 77.3426 1042.48 77.4629C1044.74 77.2418 1055 77.105 1055.54 77.0596C1055.95 77.0237 1052.83 76.787 1057.72 76.8496L1057.73 76.8487ZM1014.02 76.9844C1013.4 76.9625 1000.67 77.3538 998.887 77.4522C1000.63 77.5024 1013.24 77.2125 1013.82 77.1543C1013.99 77.1371 1014.1 76.9883 1014.02 76.9844ZM1038 77.1973C1037.55 77.1802 1033.49 77.2505 1033.15 77.3965C1035.08 77.5304 1039.03 77.2381 1038 77.1973ZM992.403 77.1914C992.193 77.1873 987.678 77.2324 987.601 77.3321C988.258 77.3546 994.824 77.234 992.403 77.1914ZM989.095 77.1338C991.882 77.4012 1000.17 76.5684 994.728 76.8057C994.62 76.8107 995.677 76.9743 993.568 77C993.391 77.0019 993.065 76.7974 990.407 76.9375C989.868 76.9662 989.036 77.1262 989.095 77.1338Z" fill="#259BFF"/>
<path d="M331.038 105.429C332.165 105.5 328.822 105.695 327.608 105.596C327.573 105.496 330.845 105.418 331.038 105.429Z" fill="#259BFF"/>
<path d="M351.401 105.217C353.122 105.342 347.354 105.436 349.326 105.251C349.421 105.244 351.33 105.212 351.401 105.217Z" fill="#259BFF"/>
<path d="M367.766 104.837C367.725 104.952 365.256 104.914 364.341 104.948C364.575 104.817 366.797 104.828 367.766 104.837Z" fill="#259BFF"/>
<path d="M372.133 104.935C369.934 104.883 371.674 104.439 373.385 104.569C373.581 104.584 374.998 105.006 372.133 104.935Z" fill="#259BFF"/>
<path d="M392.31 104.081C392.452 104.101 392.543 104.135 392.556 104.193C392.181 104.137 392.147 104.104 392.31 104.081Z" fill="#259BFF"/>
<path d="M480.713 102.125C480.855 102.099 478.85 101.588 483.584 101.846C484.281 101.883 481.801 102.087 482.049 102.102C482.566 102.129 482.976 102.137 483.305 102.133C481.098 102.23 478.832 102.304 478.609 102.275C477.575 102.139 480.643 102.136 480.713 102.125Z" fill="#259BFF"/>
<path d="M485.951 101.806C489.261 101.807 486.82 101.97 483.901 102.106C484.827 102.026 484.843 101.805 485.951 101.806Z" fill="#259BFF"/>
<path d="M478.333 101.792C478.196 101.694 482.055 101.508 482.336 101.752C481.502 101.753 478.431 101.853 478.333 101.792Z" fill="#259BFF"/>
<path d="M472.988 101.682C471.046 101.868 471.436 101.383 473.128 101.507C473.194 101.512 473.065 101.674 472.988 101.682Z" fill="#259BFF"/>
<path d="M508.037 101.08C510.143 101.071 507.337 101.31 507.52 101.318C507.763 101.329 511.024 101.143 510.928 101.288C510.845 101.395 507.355 101.405 506.5 101.447C505.401 101.502 506.737 101.647 504.901 101.651C503.75 101.654 504.38 101.33 504.137 101.32C503.924 101.313 499.934 101.583 501.499 101.23C501.497 101.229 501.494 101.229 501.492 101.229C501.945 101.127 504.874 101.108 505.547 101.13C505.661 101.135 505.167 101.386 506.491 101.337C507.557 101.297 505.957 101.089 508.037 101.08Z" fill="#259BFF"/>
<path d="M493.351 101.448C492.383 101.61 489.198 101.621 487.816 101.6C488.775 101.408 491.762 101.459 493.351 101.448Z" fill="#259BFF"/>
<path d="M517.184 100.521C518.958 100.528 517.221 100.75 516.045 100.712C515.949 100.708 515.621 100.514 517.184 100.521Z" fill="#259BFF"/>
<path d="M539.022 100.49C538.361 100.649 536.26 100.652 534.852 100.676C535.507 100.517 537.601 100.515 539.022 100.49Z" fill="#259BFF"/>
<path d="M539.844 100.302C539.761 100.411 536.744 100.5 536.348 100.476C535.74 100.438 538.884 100.273 539.844 100.302Z" fill="#259BFF"/>
<path d="M523.661 100.006C524.037 99.9914 524.54 100.149 524.671 100.148C524.996 100.142 531.843 99.9181 529.242 100.195C528.829 100.241 518.868 100.389 517.625 100.397C517.124 100.176 521.328 100.3 522.36 100.252C522.541 100.243 522.653 100.047 523.658 100.007L523.661 100.006Z" fill="#259BFF"/>
<path d="M272.132 99.2998C272.319 99.2893 271.3 98.8415 273.657 99.1123C275.183 99.2976 266.777 99.6411 265.272 99.4502C266.958 99.3328 270.65 99.3849 272.132 99.2998Z" fill="#259BFF"/>
<path d="M564.315 99.1299C566.023 99.2531 560.305 99.3528 562.261 99.1661C562.343 99.1587 564.236 99.1254 564.315 99.1299Z" fill="#259BFF"/>
<path d="M541.122 98.7246C542.01 98.8226 537.88 99.0321 536.94 98.9112C535.784 98.7631 540.95 98.7091 541.122 98.7246Z" fill="#259BFF"/>
<path d="M592.49 98.2393C593.376 98.0882 599.285 98.0549 600.626 98.1543C599.338 98.3752 591.378 98.4282 592.49 98.2393Z" fill="#259BFF"/>
<path d="M607.348 98.1543C608.765 98.0962 610.2 97.9992 610.683 98.1524C609.774 98.1484 607.191 98.2721 607.348 98.1543Z" fill="#259BFF"/>
<path d="M260.883 97.3731C262.826 97.4941 257.957 97.6622 257.441 97.46C257.345 97.4252 260.543 97.3521 260.883 97.3731Z" fill="#259BFF"/>
<path d="M270.386 97.3047C270.451 97.3904 267.836 97.4541 267.577 97.4444C266.089 97.3759 269.387 97.2695 270.386 97.3047Z" fill="#259BFF"/>
<path d="M260.543 96.9717C262.017 97.0493 258.737 97.1367 257.751 97.086C257.685 97.0013 260.31 96.962 260.543 96.9717Z" fill="#259BFF"/>
<path d="M657.304 96.8809C659.348 96.9987 652.304 97.121 654.59 96.9278C654.702 96.9187 657.19 96.8758 657.304 96.8809Z" fill="#259BFF"/>
<path d="M674.356 96.5264C674.055 96.6292 669.776 96.8451 669.555 96.6954C669.255 96.4867 673.542 96.5261 674.356 96.5264Z" fill="#259BFF"/>
<path d="M677.523 96.0079C679.531 96.0181 682.009 95.933 682.051 95.8145C682.093 95.8319 682.191 95.8495 682.354 95.8653C682.518 95.8809 684.68 95.7758 685.623 95.794C691.226 95.9018 663.974 96.4404 679.748 95.7383C679.006 95.828 678.264 95.9182 677.523 96.0079Z" fill="#259BFF"/>
<path d="M266.447 95.5557C262.666 95.8829 266.209 95.7579 265.48 95.8789C264.932 95.9749 262.66 95.9295 263.962 96.0909C262.275 95.9302 254.939 96.0198 254.606 95.9786H254.616C254.418 95.9598 254.914 95.5259 256.282 95.586C260.553 95.7597 257.446 96.0582 266.447 95.5557Z" fill="#259BFF"/>
<path d="M267.236 95.376C266.605 95.5145 259.583 95.6656 259.744 95.5049C259.893 95.3756 266.122 95.3977 267.236 95.376Z" fill="#259BFF"/>
<path d="M748.363 94.6006C747.646 94.7055 743.61 94.8238 742.895 94.7237C744.57 94.6297 746.602 94.6459 748.363 94.6006Z" fill="#259BFF"/>
<path d="M752.612 94.3536C752.398 94.4548 748.933 94.5407 748.493 94.4532C749.506 94.3701 751.352 94.39 752.612 94.3536Z" fill="#259BFF"/>
<path d="M284.52 93.9688C284.61 94.0475 281.178 94.1351 281.036 94.1289C279.265 94.0612 283.438 93.9415 284.52 93.9688Z" fill="#259BFF"/>
<path d="M803.565 93.5186C800.299 93.8352 796.05 93.8981 801.838 94.0079C793.361 94.2544 796.868 93.9412 796.536 93.9297C796.132 93.9177 794.83 94.0265 794.565 94.0079C788.338 93.5729 800.228 93.6726 803.565 93.5186Z" fill="#259BFF"/>
<path d="M804.353 93.794C806.209 93.7526 804.19 94.0584 803.198 93.9854C802.831 93.9582 803.885 93.8046 804.353 93.794Z" fill="#259BFF"/>
<path d="M795.688 93.3106C795.792 93.4299 788.21 93.812 787.919 93.792C785.936 93.6416 793.978 93.2238 795.688 93.3106Z" fill="#259BFF"/>
<path d="M814.89 93.6084C813.533 93.8388 808.493 93.7921 810.862 93.6211C811.219 93.5958 813.917 93.6506 814.89 93.6084Z" fill="#259BFF"/>
<path d="M830.376 93.3516C830.825 93.3647 832.492 93.5838 830.598 93.6788C830.651 93.3687 827.717 93.3192 826.293 93.6377C825.377 93.4046 828.39 93.2931 830.376 93.3516Z" fill="#259BFF"/>
<path d="M822.69 93.126C822.43 93.1685 822.173 93.2104 821.91 93.253C831.504 93.1504 822.589 93.2956 820.203 93.3975C819.303 93.4361 820.061 93.5549 819.245 93.5938L819.239 93.5928C812.8 93.9005 814.305 93.0466 822.69 93.126Z" fill="#259BFF"/>
<path d="M799.742 93.2979C800.492 93.2368 802.248 93.3365 801.633 93.4366C800.843 93.5647 799.55 93.3151 799.742 93.2979Z" fill="#259BFF"/>
<path d="M290.224 92.7393C291.865 92.6291 291.536 93.0044 294.188 92.7979C289.86 93.111 293.782 92.9379 293.922 93.0664C294.421 93.5924 288.104 92.9316 285.907 93.086C285.594 93.1078 287.907 93.2338 287.114 93.2979C284.493 93.5072 276.675 92.8274 285.099 92.8067C287.323 92.8002 285.95 92.9606 286.051 92.9629C290.73 93.0686 289.482 92.7897 290.224 92.7393Z" fill="#259BFF"/>
<path d="M828.198 92.9141C827.883 93.0274 825.043 93.067 824.043 93.1006C824.706 92.9425 826.789 92.9358 828.198 92.9141Z" fill="#259BFF"/>
<path d="M290.354 92.5918C289.745 92.3977 293.328 92.3749 293.844 92.4004C294.008 92.4128 291.259 92.8421 290.354 92.5918Z" fill="#259BFF"/>
<path d="M907.462 91.6612C907.635 91.6619 910.138 91.76 909.551 91.833C899.849 92.1939 898.584 91.6389 907.462 91.6612Z" fill="#259BFF"/>
<path d="M284.064 91.21C284.884 91.2756 283.924 91.3266 282.979 91.3389C281.976 91.3523 281.053 91.3263 282.029 91.2373C282.123 91.2302 284.019 91.2045 284.064 91.21Z" fill="#259BFF"/>
<path d="M972.262 89.7539C971.608 89.8475 970.254 89.9468 969.369 90.0342C969.589 89.8735 970.138 89.7458 972.262 89.7539Z" fill="#259BFF"/>
<path d="M963.603 89.6758C963.237 89.794 958.414 89.7893 958.213 89.712C960.09 89.661 961.874 89.6601 963.603 89.6758Z" fill="#259BFF"/>
<path d="M979.828 89.5069C979.828 89.6054 976.595 89.691 976.344 89.6817C974.626 89.6178 978.642 89.4888 979.828 89.5069Z" fill="#259BFF"/>
<path d="M989.977 89.4141C992.941 89.0545 993.466 89.5349 993.214 89.5567C990.002 89.8337 992.088 89.4225 991.992 89.4073C991.767 89.3843 989.476 89.6064 989.986 89.4141C989.983 89.4142 989.98 89.414 989.977 89.4141Z" fill="#259BFF"/>
<path d="M972.779 89.1104C973.053 89.1295 973.946 89.7883 971.055 89.6016C970.534 89.568 972.562 89.3584 969.045 89.3643C971.67 89.3153 971.109 89.0019 972.779 89.1104Z" fill="#259BFF"/>
<path d="M1008.31 89.1211C1010.36 89.2387 1003.32 89.3615 1005.6 89.168C1005.72 89.1587 1008.21 89.1158 1008.31 89.1211Z" fill="#259BFF"/>
<path d="M1019.62 88.9122C1020.06 88.8397 1022.3 88.7755 1022.56 88.9268C1021.89 88.9296 1020.05 88.9871 1019.84 88.9747C1019.75 88.9694 1019.68 88.964 1019.63 88.958C1018.85 89.1131 1010.13 89.1799 1009.63 89.1543C1007.04 89.019 1018.93 88.8445 1019.26 88.8711C1019.44 88.8851 1019.56 88.8992 1019.62 88.9122Z" fill="#259BFF"/>
<path d="M1031.58 88.5391C1031.69 88.5771 1028.16 88.9494 1026.59 88.9131C1023.59 88.8431 1031.46 88.5137 1031.58 88.5391Z" fill="#259BFF"/>
<path d="M412.963 88.6807C414.1 88.4747 419.322 88.5775 418.401 88.6729C418.167 88.6943 412.529 88.7896 412.963 88.6807Z" fill="#259BFF"/>
<path d="M997.465 88.4473C996.298 88.4414 997.661 88.1233 998.949 88.2481C999.353 88.2878 998.118 88.45 997.465 88.4473Z" fill="#259BFF"/>
<path d="M1013.34 87.8809C1012.55 88.072 1012.03 88.1044 1009.8 88.1143C1013.11 87.9879 1010.03 87.9078 1013.34 87.8809Z" fill="#259BFF"/>
<path d="M1020.92 87.6329C1022.15 87.604 1023.89 87.5625 1024.22 87.6885C1023.39 87.6875 1020.91 87.7305 1020.92 87.6329Z" fill="#259BFF"/>
<path d="M1048.26 86.9795C1046.8 87.1711 1043.47 87.2492 1041.33 87.2735C1041.29 87.0675 1046.89 87.0605 1048.26 86.9795Z" fill="#259BFF"/>
<path d="M1050.17 87.1182C1049.17 86.8883 1054.04 86.9223 1052.15 87.1407C1052.06 87.1486 1050.24 87.1262 1050.17 87.1182Z" fill="#259BFF"/>
<path d="M1066.49 85.1612C1067.08 85.2586 1064.55 85.4233 1063.63 85.3838C1061.59 85.2953 1066.29 85.1323 1066.49 85.1612Z" fill="#259BFF"/>
<path d="M675.591 82.8555C676.239 82.805 676.841 82.3908 680.257 82.5137C680.26 82.5136 680.263 82.5138 680.266 82.5137C681.265 82.5496 680.131 82.6737 680.314 82.7041C680.393 82.7172 683.495 82.8423 680.914 82.9346C676.975 83.0759 680.535 82.6465 678.436 82.6914C678.176 82.6973 674.222 83.0057 674.452 83.0479C674.477 83.0528 675.664 82.9792 675.863 82.9942C676.609 83.051 676.251 83.185 676.355 83.1885C676.699 83.1955 682.976 82.8359 683.902 83C684.186 83.0534 673.883 83.4322 673.492 83.4102C673.239 83.3965 673.337 83.0475 673.074 83.0196C672.928 83.0064 668.822 83.2323 668.29 83.2129C668.135 83.2073 668.017 83.2005 667.93 83.1944C668.551 83.287 664.843 83.3655 664.949 83.2422C665.019 83.1933 667.568 83.1609 667.661 83.167C667.701 83.1696 667.736 83.1732 667.769 83.1758C667.234 83.0577 675.925 82.8605 674.045 82.71C676.57 82.5443 673.693 83.0037 675.591 82.8555Z" fill="#259BFF"/>
<path d="M703.124 82.0293C704.491 82.0462 706.01 82.2168 705.268 82.2803C705.085 82.2961 702.299 82.2271 700.911 82.2735C696.813 82.4104 697.855 82.5771 697.615 82.5879C697.35 82.5995 694.774 82.5257 693.374 82.5645C689.837 82.6628 688.305 82.8154 683.416 82.7764C686.212 82.5849 684.705 82.3471 687.783 82.3565C687.525 82.399 687.267 82.441 687.009 82.4834C691.399 82.2914 696.498 82.3479 701.619 82.2266C702.918 82.1961 701.418 82.0084 703.124 82.0293Z" fill="#259BFF"/>
<path d="M747.722 81.1934C749.357 81.3648 741.251 81.4336 745.011 81.209C745.179 81.1989 747.639 81.1852 747.722 81.1934Z" fill="#259BFF"/>
<path d="M746.554 80.9825C746.116 80.7762 751.674 80.7345 752.104 80.7725C753.823 80.9255 747.001 80.9243 746.554 80.9825Z" fill="#259BFF"/>
<path d="M779.044 80.1846C797.424 79.5777 793.366 80.1484 777.955 80.3184C777.93 80.1762 777.888 80.2228 779.044 80.1846Z" fill="#259BFF"/>
<path d="M802.618 79.6573C801.955 79.8154 799.872 79.8223 798.468 79.8438C798.718 79.7388 801.603 79.7067 802.618 79.6573Z" fill="#259BFF"/>
<path d="M812.121 79.4893C812.485 79.7034 808.112 79.6376 806.6 79.7012C806.237 79.4873 810.6 79.553 812.121 79.4893Z" fill="#259BFF"/>
<path d="M822.586 79.0196C824.631 79.1372 817.58 79.26 819.869 79.0664C819.981 79.0573 822.478 79.0143 822.586 79.0196Z" fill="#259BFF"/>
<path d="M838.259 78.6875C837.448 78.8515 834.236 78.865 832.724 78.8975C833.695 78.7051 836.472 78.7273 838.259 78.6875Z" fill="#259BFF"/>
<path d="M856.974 78.7627C856.807 78.887 853.908 78.8483 852.858 78.8907C853.023 78.7664 855.921 78.8052 856.974 78.7627Z" fill="#259BFF"/>
<path d="M919.458 77.5801C926.85 77.405 938.226 77.0027 944.117 77.2032C938.885 77.1901 933.873 77.4524 928.67 77.6192C930.184 77.25 921.02 78.0561 926.379 77.545C923.93 77.6861 902.498 78.2564 900.694 78.2256H900.688C900.132 78.215 900.395 77.6102 902.699 77.7871C903 77.8102 901.593 78.0019 901.841 78.0323C901.987 78.0495 906.989 78.0156 907.222 77.9961C907.469 77.9743 907.173 77.7892 907.424 77.7618C907.708 77.7311 910.794 77.8272 912.411 77.7911C915.458 77.7226 915.786 77.5553 916.035 77.5489C916.764 77.5307 917.993 77.6147 919.458 77.5801Z" fill="#259BFF"/>
<path d="M1031.16 76.5098C1029.34 76.8175 1027.86 76.6514 1025.4 76.7227C1024.74 76.7423 1024.92 76.8478 1024.85 76.8496C1023.7 76.8818 1024.56 76.7343 1023.85 76.7491C1023.39 76.759 1014.12 77.1329 1015.45 76.8995C1016.4 76.7335 1029.12 76.5578 1031.16 76.5098Z" fill="#259BFF"/>
<path d="M969.208 76.8487C967.799 76.7721 972.091 76.5641 973.365 76.6621C973.987 76.832 969.388 76.8571 969.208 76.8487Z" fill="#259BFF"/>
<path d="M1014.27 76.6914C1015.64 76.3516 1021.95 76.4092 1017.64 76.6641C1017.23 76.6877 1015.47 76.5956 1014.27 76.6914Z" fill="#259BFF"/>
<path d="M1041.55 76.2813C1042.71 76.0763 1043.47 76.2713 1043.62 76.2705C1045.06 76.2638 1048.05 76.1535 1047.4 76.3399C1044.85 76.3308 1039.23 76.6885 1041.55 76.2813Z" fill="#259BFF"/>
<path d="M1009.47 75.9707C1008.33 76.1527 1005.07 76.1815 1003.21 76.252C1003.01 76.0563 1008.14 76.0385 1009.47 75.9707Z" fill="#259BFF"/>
<path d="M1051.18 75.8135C1053.57 75.9585 1042.83 76.1636 1042.21 76.1426C1042.92 76.0241 1050.86 75.794 1051.18 75.8135Z" fill="#259BFF"/>
<path d="M1042.35 75.9678C1041.92 75.8884 1042.95 75.5984 1043.88 75.711C1044.28 75.7597 1043.54 75.9367 1042.35 75.9678Z" fill="#259BFF"/>
<path d="M1044.6 75.67C1045.62 75.4886 1053.37 75.4597 1051.31 75.6377C1050.98 75.6666 1043.1 75.9346 1044.6 75.67Z" fill="#259BFF"/>
<defs>
<clipPath id="clip0_3932_1178">
<rect width="144" height="121" fill="white" transform="translate(0.53125 0.0344238)"/>
</clipPath>
</defs>
</svg>
