<svg width="79" height="49" viewBox="0 0 79 49" fill="none" xmlns="http://www.w3.org/2000/svg">
<path d="M11.6198 24.0344L16.78 27.0137L5.26576 46.957L0.105509 43.9777L11.6198 24.0344Z" fill="#259BFF"/>
<path d="M0.105469 27.0137L5.26572 24.0344L16.78 43.9777L11.6197 46.957L0.105469 27.0137Z" fill="#259BFF"/>
<path d="M13.1407 25.1119L18.3009 28.0911L6.78665 48.0344L1.6264 45.0551L13.1407 25.1119Z" fill="white"/>
<path d="M1.62636 28.0911L6.78661 25.1119L18.3009 45.0551L13.1406 48.0344L1.62636 28.0911Z" fill="white"/>
<path d="M41.3295 0.0344238L51.65 5.99297L28.6215 45.8796L18.301 39.921L41.3295 0.0344238Z" fill="#259BFF"/>
<path d="M18.3009 5.99297L28.6214 0.0344238L51.65 39.921L41.3295 45.8796L18.3009 5.99297Z" fill="#259BFF"/>
<path d="M44.3713 2.18929L54.6918 8.14783L31.6633 48.0344L21.3428 42.0759L44.3713 2.18929Z" fill="white"/>
<path d="M21.3427 8.14783L31.6632 2.18929L54.6917 42.0759L44.3712 48.0344L21.3427 8.14783Z" fill="white"/>
<path d="M70.0442 16.0344L76.9246 20.0068L61.5722 46.5978L54.6919 42.6255L70.0442 16.0344Z" fill="#259BFF"/>
<path d="M54.6918 20.0068L61.5722 16.0344L76.9245 42.6255L70.0442 46.5978L54.6918 20.0068Z" fill="#259BFF"/>
<path d="M72.0721 17.471L78.9524 21.4434L63.6001 48.0344L56.7197 44.0621L72.0721 17.471Z" fill="white"/>
<path d="M56.7197 21.4434L63.6 17.471L78.9524 44.0621L72.072 48.0344L56.7197 21.4434Z" fill="white"/>
</svg>
