<svg width="40" height="41" viewBox="0 0 40 41" fill="none" xmlns="http://www.w3.org/2000/svg">
<g clip-path="url(#clip0_70_2923)">
<path d="M30 0.631348H10C4.47715 0.631348 0 5.1085 0 10.6313V30.6313C0 36.1542 4.47715 40.6313 10 40.6313H30C35.5228 40.6313 40 36.1542 40 30.6313V10.6313C40 5.1085 35.5228 0.631348 30 0.631348Z" fill="url(#paint0_linear_70_2923)"/>
<path d="M14.687 17.5845C14.927 16.4125 14.495 15.5775 13.712 15.0275C12.996 14.5505 12.093 14.4775 11.142 14.9555L7.164 16.7515C6.165 17.2045 5.738 18.3765 6.165 19.3565C6.37648 19.8331 6.76834 20.2063 7.25463 20.3943C7.74092 20.5824 8.28193 20.5698 8.759 20.3595L9.283 20.1195L8.428 24.7835C8.188 26.1925 9.096 27.3405 10.335 27.5815C11.646 27.8235 12.929 26.9595 13.145 25.6425L14.687 17.5855V17.5845ZM15.11 14.6315C15.634 15.2545 16.253 16.0215 15.941 17.8845L15.134 22.2645L15.278 25.7815C15.302 27.0505 15.922 27.6005 16.969 27.6005H19.635C20.466 27.6005 20.827 26.9535 21.158 26.1435L23.181 21.1455L23.397 25.9255C23.421 26.9775 23.944 27.6245 24.92 27.6245H27.946C28.801 27.6245 29.161 27.0985 29.541 26.1675L33.422 16.6005C33.85 15.6205 33.591 14.6425 32.543 14.6425H30.613C29.897 14.6425 29.397 14.8825 29.113 15.5725L26.491 21.9745L26.251 16.2585C26.202 15.0385 25.631 14.6325 24.939 14.6325H22.964C22.177 14.6325 21.725 14.9415 21.49 15.5395L18.872 21.9995L18.632 16.1135C18.607 15.0135 18.228 14.6325 17.344 14.6325H15.11V14.6315Z" fill="white"/>
</g>
<defs>
<linearGradient id="paint0_linear_70_2923" x1="-2.07795e-07" y1="2.77435" x2="23.909" y2="47.2353" gradientUnits="userSpaceOnUse">
<stop stop-color="#1BF1FF"/>
<stop offset="1" stop-color="#0855C4"/>
</linearGradient>
<clipPath id="clip0_70_2923">
<rect width="40" height="40" fill="white" transform="translate(0 0.631348)"/>
</clipPath>
</defs>
</svg>
