<svg width="100" height="24" viewBox="0 0 100 24" fill="none" xmlns="http://www.w3.org/2000/svg">
<g clip-path="url(#clip0_82_2932)">
<path d="M33.0167 10.5132C33.8922 6.93093 31.641 4 27.9725 4H24.6375H22.5114H20.3853L16.4249 19.998H20.6771L21.4275 17.0264H24.7208C24.9293 17.0264 25.096 17.0264 25.3045 16.9857L26.7218 19.998H31.5993L29.4316 15.4388C31.1408 14.2583 32.5164 12.5078 33.0167 10.5132ZM22.2196 13.7698L23.8037 7.33801H26.5134C28.6812 7.33801 29.3482 8.80347 28.8896 10.5539C28.4311 12.345 27.1387 13.7698 24.9293 13.7698H22.2196Z" fill="white"/>
<path d="M62.7161 12.8335C62.4245 12.3857 62.0491 12.0601 61.549 11.7751C62.2576 11.4087 62.8414 10.961 63.3415 10.3504C63.9253 9.65833 64.2169 8.76279 64.2585 7.78579C64.3001 6.56457 63.8416 5.6283 62.883 4.97698C61.9659 4.32566 60.5899 4 58.8391 4H50.9602L47 19.998H55.629C57.8389 19.998 59.6313 19.5502 61.0069 18.7361C62.4245 17.8812 63.1746 16.5786 63.2162 14.8689C63.2583 14.0954 63.0914 13.4034 62.7161 12.8335ZM52.7527 13.4848H57.005C59.1728 13.4848 59.0891 14.5025 59.0891 14.8689C59.0475 15.5202 58.7975 16.0087 58.2553 16.3344C57.7136 16.7007 56.9214 16.8635 55.9627 16.8635H51.9189L52.7527 13.4848ZM59.0891 9.86185C58.589 10.2282 57.8389 10.3911 56.963 10.3911H53.5033L54.2951 7.17518H57.8389C59.923 7.17518 59.923 8.11145 59.8814 8.3964C59.8398 9.04772 59.5897 9.53623 59.0891 9.86185Z" fill="#3486E3"/>
<path d="M77.4976 7.37854L78.3315 4.04053H66.4087L62.4485 19.9978H74.6629L75.5383 16.6598H67.4094L68.1596 13.5254H74.9966L75.8304 10.2688H68.9934L69.702 7.37854H77.4976Z" fill="#3486E3"/>
<path d="M79.3737 4.04053L78.5399 7.41924H83.2924L80.166 19.9978H84.3347L87.4611 7.41924H92.8805L93.7143 4.04053H79.3737Z" fill="#3486E3"/>
<path d="M14.7158 13.7717L15.4662 10.7594H11.2557L10.5053 13.7717H7.25372H6.00306L15.4245 4.08337H10.547L0.667008 14.2602L0 17.0283H2.20946H2.83477H6.41993H9.67159L8.96288 20H13.1733L13.9237 17.0283H17.1754L18.0092 13.7717H14.7158Z" fill="white"/>
<path d="M44.3976 19.9978H48.7333L45.7317 4.04053H44.7728H41.4378H40.479L29.5568 19.9978H33.8923L35.935 17.0262H43.8974L44.3976 19.9978ZM38.1445 13.7696L42.1465 7.94844L43.2304 13.7696H38.1445Z" fill="white"/>
</g>
<defs>
<clipPath id="clip0_82_2932">
<rect width="93.7143" height="16" fill="white" transform="translate(0 4)"/>
</clipPath>
</defs>
</svg>
