<svg width="59" height="24" viewBox="0 0 59 24" fill="none" xmlns="http://www.w3.org/2000/svg">
<path d="M2.54004 10.332V7.18301L4.11404 8.75701L2.54004 10.332Z" fill="#FB1C0A"/>
<path d="M8.993 14.753L0 23.746V-0.253998L8.975 8.722L8.03 9.666L6.527 11.17L2.54 15.157V13.268L4.094 11.713L5.023 10.784L7.086 8.722L1.26 2.896V20.597L2.54 19.317L7.119 14.738L5.968 13.588L6.898 12.658L8.048 13.809L8.993 14.753Z" fill="#FB1C0A"/>
<path d="M16 2.3615H19.4247C20.5939 2.3615 21.4443 2.56412 21.9824 2.96937C22.5172 3.37462 22.7862 3.99577 22.7862 4.83616V5.26466C22.7862 5.81939 22.6667 6.26782 22.4242 6.6166C22.185 6.96537 21.8163 7.2145 21.3214 7.37062V7.40052C22.4474 7.68618 23.0121 8.43357 23.0121 9.64267V10.5661C23.0121 11.3965 22.7198 12.0276 22.1352 12.4628C21.5506 12.8979 20.6936 13.1172 19.5675 13.1172H16V2.3615ZM19.1556 6.7395C19.6107 6.7395 19.9495 6.65314 20.1754 6.47709C20.4013 6.30436 20.5175 6.01205 20.5175 5.60016V5.00225C20.5175 4.61361 20.4245 4.33127 20.2385 4.15854C20.0525 3.98581 19.7602 3.89612 19.3616 3.89612H18.2687V6.7395H19.1556ZM19.5675 11.5792C19.9661 11.5792 20.2617 11.4995 20.4544 11.3401C20.6471 11.1806 20.7434 10.9082 20.7434 10.5196V9.58287C20.7434 9.09126 20.6304 8.75245 20.4046 8.55979C20.1787 8.37045 19.8033 8.27412 19.2818 8.27412H18.272V11.5759H19.5675V11.5792Z" fill="white"/>
<path d="M24.3341 2.3615H30.5224V3.89612H26.6028V6.7395H29.7186V8.27412H26.6028V11.5759H30.5224V13.1105H24.3341V2.3615Z" fill="white"/>
<path d="M32.5289 12.5789C31.9575 12.1172 31.6719 11.4694 31.6719 10.629V4.84928C31.6719 4.00889 31.9575 3.35783 32.5289 2.89944C33.1002 2.43772 33.9273 2.20853 35.0135 2.20853C36.0997 2.20853 36.9268 2.43772 37.4981 2.89944C38.0695 3.36115 38.3551 4.01221 38.3551 4.84928V5.9853H36.2126V4.74298C36.2126 4.07864 35.834 3.74315 35.0799 3.74315C34.3226 3.74315 33.9439 4.07532 33.9439 4.74298V10.7486C33.9439 11.403 34.3226 11.7318 35.0799 11.7318C35.8373 11.7318 36.2126 11.403 36.2126 10.7486V9.10438H38.3585V10.6257C38.3585 11.4661 38.0728 12.1172 37.5015 12.5756C36.9301 13.0373 36.103 13.2665 35.0168 13.2665C33.9306 13.2665 33.1002 13.0373 32.5289 12.5789Z" fill="white"/>
<path d="M39.717 2.3615H43.0786C44.2478 2.3615 45.0982 2.56412 45.6363 2.96937C46.1711 3.37462 46.4402 3.99577 46.4402 4.83616V5.49718C46.4402 6.61327 45.9452 7.3208 44.9554 7.61643V7.64633C45.5068 7.76923 45.8921 8.02167 46.1213 8.40035C46.3472 8.77902 46.4601 9.28724 46.4601 9.92169V11.8117C46.4601 12.1207 46.4734 12.3665 46.5 12.5558C46.5265 12.7451 46.5963 12.9311 46.7059 13.1172H44.3973C44.3143 12.9444 44.2611 12.7784 44.2312 12.6256C44.2047 12.4728 44.1914 12.1937 44.1914 11.7951V9.82868C44.1914 9.33707 44.0851 8.99493 43.8725 8.79895C43.6599 8.60297 43.2912 8.50665 42.7697 8.50665H41.9858V13.1138H39.717V2.3615ZM42.8095 6.97202C43.2646 6.97202 43.6034 6.88565 43.8293 6.7096C44.0552 6.53355 44.1681 6.24457 44.1681 5.83267V5.00225C44.1681 4.61361 44.0751 4.33127 43.8891 4.15854C43.7031 3.98581 43.4108 3.89612 43.0122 3.89612H41.9824V6.9687H42.8095V6.97202Z" fill="white"/>
<path d="M48.028 2.3615H50.2967V13.1138H48.028V2.3615Z" fill="white"/>
<path d="M52.6981 12.5789C52.1267 12.1172 51.8411 11.4694 51.8411 10.629V4.84928C51.8411 4.00889 52.1267 3.35783 52.6981 2.89944C53.2694 2.43772 54.0965 2.20853 55.1827 2.20853C56.2689 2.20853 57.096 2.43772 57.6673 2.89944C58.2387 3.36115 58.5243 4.01221 58.5243 4.84928V5.9853H56.3785V4.74298C56.3785 4.07864 55.9998 3.74315 55.2458 3.74315C54.4885 3.74315 54.1098 4.07532 54.1098 4.74298V10.7486C54.1098 11.403 54.4885 11.7318 55.2458 11.7318C56.0032 11.7318 56.3785 11.403 56.3785 10.7486V9.10438H58.5243V10.6257C58.5243 11.4661 58.2387 12.1172 57.6673 12.5756C57.096 13.0373 56.2689 13.2665 55.1827 13.2665C54.0965 13.2698 53.2694 13.0373 52.6981 12.5789Z" fill="white"/>
<path d="M16.485 22.1189V16.7776H17.3885V18.7008C17.6675 18.3421 17.9964 18.1627 18.3784 18.1627C18.7936 18.1627 19.139 18.3321 19.4081 18.6742C19.6805 19.0164 19.8167 19.5047 19.8167 20.1458C19.8167 20.8068 19.6771 21.315 19.4014 21.6737C19.1257 22.0292 18.7869 22.2085 18.3916 22.2085C18.1957 22.2085 18.0063 22.1521 17.8137 22.0425C17.6243 21.9328 17.4616 21.7668 17.3254 21.5508V22.1189H16.485ZM17.3818 20.0993C17.3818 20.5012 17.4383 20.7968 17.5479 20.9895C17.704 21.2619 17.9133 21.398 18.1724 21.398C18.3717 21.398 18.5411 21.3017 18.6806 21.1091C18.8201 20.9164 18.8899 20.6108 18.8899 20.1956C18.8899 19.7538 18.8201 19.4349 18.6773 19.2389C18.5345 19.043 18.3551 18.9466 18.1359 18.9466C17.92 18.9466 17.7406 19.043 17.5978 19.2323C17.4516 19.4216 17.3818 19.7106 17.3818 20.0993Z" fill="white"/>
<path d="M22.5173 20.8865L23.4174 21.0592C23.3012 21.4346 23.1185 21.7169 22.8694 21.9129C22.6202 22.1089 22.308 22.2052 21.9326 22.2052C21.3381 22.2052 20.8996 21.986 20.6173 21.5475C20.3914 21.1954 20.2784 20.7503 20.2784 20.2122C20.2784 19.5711 20.4246 19.0695 20.7202 18.7042C21.0159 18.3421 21.3879 18.1594 21.843 18.1594C22.3512 18.1594 22.7498 18.3487 23.0454 18.7307C23.3377 19.1094 23.4806 19.694 23.4673 20.4779H21.2052C21.2118 20.7802 21.2849 21.0194 21.4244 21.1855C21.5639 21.3515 21.7367 21.4379 21.9459 21.4379C22.0888 21.4379 22.205 21.3947 22.3014 21.305C22.3944 21.222 22.4674 21.0792 22.5173 20.8865ZM22.5671 19.8501C22.5604 19.5545 22.494 19.3286 22.3645 19.1758C22.2349 19.023 22.0788 18.9433 21.8961 18.9433C21.7001 18.9433 21.5374 19.023 21.4078 19.1858C21.2783 19.3486 21.2152 19.5711 21.2185 19.8501H22.5671Z" fill="white"/>
<path d="M27.5926 18.2491V19.0663H26.9748V20.6241C26.9748 20.9397 26.9814 21.1257 26.9914 21.1755C27.0047 21.2287 27.0312 21.2719 27.0711 21.3051C27.1143 21.3383 27.1641 21.3549 27.2239 21.3549C27.3069 21.3549 27.4298 21.3217 27.586 21.2553L27.6624 22.0492C27.4531 22.1521 27.2139 22.202 26.9482 22.202C26.7854 22.202 26.6393 22.1721 26.5097 22.1089C26.3802 22.0458 26.2839 21.9661 26.2207 21.8698C26.161 21.7701 26.1178 21.6373 26.0945 21.4712C26.0746 21.3516 26.0646 21.1124 26.0646 20.7504V19.0629H25.6494V18.2458H26.0646V16.8806H26.9715V18.2458L27.5926 18.2491Z" fill="white"/>
<path d="M29.1175 16.7743V18.7374C29.4098 18.3521 29.7553 18.1594 30.1605 18.1594C30.3698 18.1594 30.5558 18.2026 30.7219 18.2923C30.888 18.3786 31.0142 18.4916 31.1006 18.6278C31.1836 18.764 31.2434 18.9134 31.2733 19.0795C31.3032 19.2456 31.3198 19.5014 31.3198 19.8468V22.1156H30.4163V20.0727C30.4163 19.6675 30.3997 19.4084 30.3665 19.2988C30.3333 19.1891 30.2701 19.1028 30.1838 19.0397C30.0974 18.9766 29.9878 18.9433 29.8583 18.9433C29.7088 18.9433 29.5759 18.9832 29.4563 19.0662C29.3368 19.1493 29.2537 19.2722 29.1972 19.4383C29.1408 19.6044 29.1142 19.8502 29.1142 20.1757V22.1156H28.2107V16.7743H29.1175Z" fill="white"/>
<path d="M34.2129 20.8865L35.1131 21.0592C34.9969 21.4346 34.8142 21.7169 34.5651 21.9129C34.3159 22.1089 34.0037 22.2052 33.6283 22.2052C33.0337 22.2052 32.5953 21.986 32.3129 21.5475C32.0871 21.1954 31.9741 20.7503 31.9741 20.2122C31.9741 19.5711 32.1203 19.0695 32.4159 18.7042C32.7115 18.3421 33.0836 18.1594 33.5386 18.1594C34.0469 18.1594 34.4455 18.3487 34.7411 18.7307C35.0334 19.1094 35.1762 19.694 35.163 20.4779H32.9009C32.9075 20.7802 32.9806 21.0194 33.1201 21.1855C33.2596 21.3549 33.4324 21.4379 33.6416 21.4379C33.7845 21.4379 33.9007 21.3947 33.997 21.305C34.09 21.222 34.1631 21.0792 34.2129 20.8865ZM34.2628 19.8501C34.2561 19.5545 34.1897 19.3286 34.0602 19.1758C33.9306 19.023 33.7745 18.9433 33.5918 18.9433C33.3958 18.9433 33.233 19.023 33.1035 19.1858C32.974 19.3486 32.9108 19.5711 32.9142 19.8501H34.2628Z" fill="white"/>
<path d="M38.3584 22.1188L37.2788 18.249H38.1557L38.7935 20.7868L39.3814 18.249H40.2517L40.8197 20.7868L41.4708 18.249H42.361L41.2649 22.1188H40.3979L39.8099 19.6308L39.232 22.1188H38.3584Z" fill="white"/>
<path d="M42.8394 17.7242V16.7776H43.7429V17.7242H42.8394ZM42.8394 22.1189V18.2491H43.7429V22.1189H42.8394Z" fill="white"/>
<path d="M47.7688 22.1189H46.8653V20.1424C46.8653 19.7239 46.8454 19.4549 46.8088 19.332C46.769 19.209 46.7092 19.1127 46.6195 19.0463C46.5331 18.9765 46.4268 18.9433 46.3073 18.9433C46.1511 18.9433 46.0116 18.9931 45.8854 19.0895C45.7625 19.1858 45.6761 19.3153 45.6296 19.4748C45.5831 19.6342 45.5599 19.9332 45.5599 20.365V22.1189H44.6564V18.2491H45.4934V18.8171C45.7924 18.3786 46.1644 18.1594 46.6162 18.1594C46.8155 18.1594 46.9982 18.1993 47.1609 18.2823C47.327 18.3653 47.4499 18.4683 47.5363 18.5945C47.6193 18.7208 47.6791 18.8636 47.7123 19.023C47.7456 19.1825 47.7622 19.4117 47.7622 19.7106V22.1189H47.7688Z" fill="white"/>
<path d="M51.788 22.1189H50.8845V20.1424C50.8845 19.7239 50.8645 19.4549 50.828 19.332C50.7881 19.209 50.7284 19.1127 50.6387 19.0463C50.5523 18.9765 50.446 18.9433 50.3264 18.9433C50.1703 18.9433 50.0308 18.9931 49.9046 19.0895C49.7817 19.1858 49.6953 19.3153 49.6488 19.4748C49.6023 19.6342 49.579 19.9332 49.579 20.365V22.1189H48.6755V18.2491H49.5126V18.8171C49.8116 18.3786 50.1836 18.1594 50.6353 18.1594C50.8346 18.1594 51.0173 18.1993 51.1801 18.2823C51.3462 18.3653 51.4691 18.4683 51.5555 18.5945C51.6385 18.7208 51.6983 18.8636 51.7315 19.023C51.7647 19.1825 51.7813 19.4117 51.7813 19.7106V22.1189H51.788Z" fill="white"/>
<path d="M54.6778 20.8865L55.578 21.0592C55.4617 21.4346 55.279 21.7169 55.0299 21.9129C54.7808 22.1089 54.4685 22.2052 54.0932 22.2052C53.4986 22.2052 53.0601 21.986 52.7778 21.5475C52.5519 21.1954 52.439 20.7503 52.439 20.2122C52.439 19.5711 52.5851 19.0695 52.8807 18.7042C53.1764 18.3421 53.5484 18.1594 54.0035 18.1594C54.5117 18.1594 54.9103 18.3487 55.2059 18.7307C55.4983 19.1094 55.6411 19.694 55.6278 20.4779H53.3657C53.3724 20.7802 53.4454 21.0194 53.5849 21.1855C53.7245 21.3549 53.8972 21.4379 54.1065 21.4379C54.2493 21.4379 54.3655 21.3947 54.4619 21.305C54.5582 21.222 54.6313 21.0792 54.6778 20.8865ZM54.7309 19.8501C54.7243 19.5545 54.6579 19.3286 54.5283 19.1758C54.3988 19.023 54.2426 18.9433 54.06 18.9433C53.864 18.9433 53.7012 19.023 53.5717 19.1858C53.4421 19.3486 53.379 19.5711 53.3823 19.8501H54.7309Z" fill="white"/>
<path d="M57.2255 22.1188H56.322V18.2491H57.1591V18.8005C57.3019 18.5414 57.4315 18.3686 57.5444 18.2856C57.6573 18.2026 57.7902 18.1627 57.9364 18.1627C58.1423 18.1627 58.3383 18.2258 58.531 18.3553L58.2519 19.2489C58.0991 19.1359 57.9596 19.0828 57.8268 19.0828C57.7005 19.0828 57.5942 19.1227 57.5046 19.2024C57.4182 19.2821 57.3484 19.4249 57.2986 19.6309C57.2488 19.8368 57.2222 20.2686 57.2222 20.9297V22.1188H57.2255Z" fill="white"/>
</svg>
