<svg width="291" height="73" viewBox="0 0 291 73" fill="none" xmlns="http://www.w3.org/2000/svg">
<path d="M5.22949 28.561L0.102539 7.08643H4.54102L7.77832 21.8374L11.7041 7.08643H16.8604L20.625 22.0864L23.9209 7.08643H28.2861L23.0713 28.561H18.4717L14.1943 12.5063L9.93164 28.561H5.22949ZM38.9355 23.6099L43.0371 24.2983C42.5098 25.8022 41.6748 26.9497 40.5322 27.7407C39.3994 28.522 37.9785 28.9126 36.2695 28.9126C33.5645 28.9126 31.5625 28.0288 30.2637 26.2612C29.2383 24.8452 28.7256 23.0581 28.7256 20.8999C28.7256 18.3218 29.3994 16.3052 30.7471 14.8501C32.0947 13.3853 33.7988 12.6528 35.8594 12.6528C38.1738 12.6528 40 13.4194 41.3379 14.9526C42.6758 16.4761 43.3154 18.8149 43.2568 21.9692H32.9443C32.9736 23.1899 33.3057 24.1421 33.9404 24.8257C34.5752 25.4995 35.3662 25.8364 36.3135 25.8364C36.958 25.8364 37.5 25.6606 37.9395 25.3091C38.3789 24.9575 38.7109 24.3911 38.9355 23.6099ZM39.1699 19.4497C39.1406 18.2583 38.833 17.355 38.2471 16.7397C37.6611 16.1147 36.9482 15.8022 36.1084 15.8022C35.21 15.8022 34.4678 16.1294 33.8818 16.7837C33.2959 17.438 33.0078 18.3267 33.0176 19.4497H39.1699ZM53.5254 24.1226L57.6562 23.4927C57.832 24.2935 58.1885 24.9038 58.7256 25.3237C59.2627 25.7339 60.0146 25.939 60.9814 25.939C62.0459 25.939 62.8467 25.7437 63.3838 25.353C63.7451 25.0796 63.9258 24.7134 63.9258 24.2544C63.9258 23.9419 63.8281 23.6831 63.6328 23.478C63.4277 23.2827 62.9688 23.1021 62.2559 22.936C58.9355 22.2036 56.8311 21.5347 55.9424 20.9292C54.7119 20.0894 54.0967 18.9224 54.0967 17.4282C54.0967 16.0806 54.6289 14.9478 55.6934 14.0298C56.7578 13.1118 58.4082 12.6528 60.6445 12.6528C62.7734 12.6528 64.3555 12.9995 65.3906 13.6929C66.4258 14.3862 67.1387 15.4116 67.5293 16.769L63.6475 17.4868C63.4814 16.8813 63.1641 16.4175 62.6953 16.0952C62.2363 15.7729 61.5771 15.6118 60.7178 15.6118C59.6338 15.6118 58.8574 15.7632 58.3887 16.0659C58.0762 16.2808 57.9199 16.5591 57.9199 16.9009C57.9199 17.1938 58.0566 17.4429 58.3301 17.6479C58.7012 17.9214 59.9805 18.3071 62.168 18.8052C64.3652 19.3032 65.8984 19.9136 66.7676 20.6362C67.627 21.3687 68.0566 22.3892 68.0566 23.6978C68.0566 25.1235 67.4609 26.3491 66.2695 27.3745C65.0781 28.3999 63.3154 28.9126 60.9814 28.9126C58.8623 28.9126 57.1826 28.4829 55.9424 27.6235C54.7119 26.7642 53.9062 25.5972 53.5254 24.1226ZM81.9141 28.561V26.2319C81.3477 27.062 80.6006 27.7163 79.6729 28.1948C78.7549 28.6733 77.7832 28.9126 76.7578 28.9126C75.7129 28.9126 74.7754 28.6831 73.9453 28.2241C73.1152 27.7651 72.5146 27.1206 72.1436 26.2905C71.7725 25.4604 71.5869 24.313 71.5869 22.8481V13.0044H75.7031V20.1528C75.7031 22.3403 75.7764 23.6831 75.9229 24.1812C76.0791 24.6694 76.3574 25.0601 76.7578 25.353C77.1582 25.6362 77.666 25.7778 78.2812 25.7778C78.9844 25.7778 79.6143 25.5874 80.1709 25.2065C80.7275 24.8159 81.1084 24.3374 81.3135 23.771C81.5186 23.1948 81.6211 21.7935 81.6211 19.5669V13.0044H85.7373V28.561H81.9141ZM89.8975 13.0044H93.7354V15.2896C94.2334 14.5083 94.9072 13.8735 95.7568 13.3853C96.6064 12.897 97.5488 12.6528 98.584 12.6528C100.391 12.6528 101.924 13.3608 103.184 14.7769C104.443 16.1929 105.073 18.1655 105.073 20.6948C105.073 23.2925 104.438 25.314 103.169 26.7593C101.899 28.1948 100.361 28.9126 98.5547 28.9126C97.6953 28.9126 96.9141 28.7417 96.2109 28.3999C95.5176 28.0581 94.7852 27.4722 94.0137 26.6421V34.479H89.8975V13.0044ZM93.9697 20.519C93.9697 22.2671 94.3164 23.561 95.0098 24.4009C95.7031 25.231 96.5479 25.646 97.5439 25.646C98.501 25.646 99.2969 25.2651 99.9316 24.5034C100.566 23.7319 100.884 22.4722 100.884 20.7241C100.884 19.0933 100.557 17.8823 99.9023 17.0913C99.248 16.3003 98.4375 15.9048 97.4707 15.9048C96.4648 15.9048 95.6299 16.2954 94.9658 17.0767C94.3018 17.8481 93.9697 18.9956 93.9697 20.519ZM108.237 13.0044H112.075V15.2896C112.573 14.5083 113.247 13.8735 114.097 13.3853C114.946 12.897 115.889 12.6528 116.924 12.6528C118.73 12.6528 120.264 13.3608 121.523 14.7769C122.783 16.1929 123.413 18.1655 123.413 20.6948C123.413 23.2925 122.778 25.314 121.509 26.7593C120.239 28.1948 118.701 28.9126 116.895 28.9126C116.035 28.9126 115.254 28.7417 114.551 28.3999C113.857 28.0581 113.125 27.4722 112.354 26.6421V34.479H108.237V13.0044ZM112.31 20.519C112.31 22.2671 112.656 23.561 113.35 24.4009C114.043 25.231 114.888 25.646 115.884 25.646C116.841 25.646 117.637 25.2651 118.271 24.5034C118.906 23.7319 119.224 22.4722 119.224 20.7241C119.224 19.0933 118.896 17.8823 118.242 17.0913C117.588 16.3003 116.777 15.9048 115.811 15.9048C114.805 15.9048 113.97 16.2954 113.306 17.0767C112.642 17.8481 112.31 18.9956 112.31 20.519ZM125.742 20.563C125.742 19.1958 126.079 17.8726 126.753 16.5933C127.427 15.314 128.379 14.3374 129.609 13.6636C130.85 12.9897 132.231 12.6528 133.755 12.6528C136.108 12.6528 138.037 13.4194 139.541 14.9526C141.045 16.4761 141.797 18.4048 141.797 20.7388C141.797 23.0923 141.035 25.0454 139.512 26.5981C137.998 28.1411 136.089 28.9126 133.784 28.9126C132.358 28.9126 130.996 28.5903 129.697 27.9458C128.408 27.3013 127.427 26.3589 126.753 25.1187C126.079 23.8687 125.742 22.3501 125.742 20.563ZM129.961 20.7827C129.961 22.3257 130.327 23.5073 131.06 24.3276C131.792 25.1479 132.695 25.5581 133.77 25.5581C134.844 25.5581 135.742 25.1479 136.465 24.3276C137.197 23.5073 137.563 22.3159 137.563 20.7534C137.563 19.23 137.197 18.0581 136.465 17.2378C135.742 16.4175 134.844 16.0073 133.77 16.0073C132.695 16.0073 131.792 16.4175 131.06 17.2378C130.327 18.0581 129.961 19.2397 129.961 20.7827ZM148.975 28.561H144.858V13.0044H148.682V15.2163C149.336 14.1714 149.922 13.4829 150.439 13.1509C150.967 12.8188 151.562 12.6528 152.227 12.6528C153.164 12.6528 154.067 12.9116 154.937 13.4292L153.662 17.0181C152.969 16.5688 152.324 16.3442 151.729 16.3442C151.152 16.3442 150.664 16.5054 150.264 16.8276C149.863 17.1401 149.546 17.7114 149.312 18.5415C149.087 19.3716 148.975 21.1099 148.975 23.7563V28.561ZM163.857 13.0044V16.2856H161.045V22.5552C161.045 23.8247 161.069 24.5669 161.118 24.7817C161.177 24.9868 161.299 25.1577 161.484 25.2944C161.68 25.4312 161.914 25.4995 162.188 25.4995C162.568 25.4995 163.12 25.3677 163.843 25.104L164.194 28.2974C163.237 28.7075 162.153 28.9126 160.942 28.9126C160.2 28.9126 159.531 28.7905 158.936 28.5464C158.34 28.2925 157.9 27.9702 157.617 27.5796C157.344 27.1792 157.153 26.6421 157.046 25.9683C156.958 25.4897 156.914 24.5229 156.914 23.0679V16.2856H155.024V13.0044H156.914V9.91357L161.045 7.51123V13.0044H163.857Z" fill="white"/>
<rect x="177" y="2.56104" width="46" height="32" rx="10" fill="white"/>
<rect x="177" y="2.56104" width="46" height="32" rx="10" stroke="white" stroke-width="4"/>
<path d="M184.362 23.5952L188.347 23.1558C188.444 23.9663 188.698 24.5669 189.108 24.9575C189.519 25.3481 190.061 25.5435 190.734 25.5435C191.584 25.5435 192.307 25.1528 192.902 24.3716C193.498 23.5903 193.879 21.9692 194.045 19.5083C193.01 20.7095 191.716 21.3101 190.163 21.3101C188.474 21.3101 187.014 20.6606 185.783 19.3618C184.562 18.0532 183.952 16.354 183.952 14.2642C183.952 12.0864 184.597 10.3335 185.886 9.00537C187.185 7.66748 188.835 6.99854 190.837 6.99854C193.015 6.99854 194.802 7.84326 196.198 9.53271C197.595 11.2124 198.293 13.981 198.293 17.8384C198.293 21.7642 197.565 24.5962 196.11 26.3345C194.655 28.0728 192.761 28.9419 190.427 28.9419C188.747 28.9419 187.39 28.4976 186.354 27.6089C185.319 26.7104 184.655 25.3726 184.362 23.5952ZM193.679 14.6011C193.679 13.2729 193.371 12.2427 192.756 11.5103C192.15 10.7778 191.447 10.4116 190.646 10.4116C189.885 10.4116 189.25 10.7144 188.742 11.3198C188.244 11.9155 187.995 12.897 187.995 14.2642C187.995 15.6509 188.269 16.6714 188.815 17.3257C189.362 17.9702 190.046 18.2925 190.866 18.2925C191.657 18.2925 192.321 17.98 192.858 17.355C193.405 16.73 193.679 15.812 193.679 14.6011ZM207.932 6.99854C210.012 6.99854 211.638 7.74072 212.81 9.2251C214.206 10.9829 214.904 13.8979 214.904 17.9702C214.904 22.0327 214.201 24.9526 212.795 26.73C211.633 28.1948 210.012 28.9272 207.932 28.9272C205.842 28.9272 204.157 28.1265 202.878 26.5249C201.599 24.9136 200.959 22.0474 200.959 17.9263C200.959 13.8833 201.662 10.9731 203.068 9.1958C204.23 7.73096 205.852 6.99854 207.932 6.99854ZM207.932 10.4116C207.434 10.4116 206.989 10.5728 206.599 10.895C206.208 11.2075 205.905 11.7739 205.69 12.5942C205.407 13.6587 205.266 15.4507 205.266 17.9702C205.266 20.4897 205.393 22.2231 205.646 23.1704C205.9 24.1079 206.218 24.7329 206.599 25.0454C206.989 25.3579 207.434 25.5142 207.932 25.5142C208.43 25.5142 208.874 25.3579 209.265 25.0454C209.655 24.7231 209.958 24.1519 210.173 23.3315C210.456 22.2769 210.598 20.4897 210.598 17.9702C210.598 15.4507 210.471 13.7222 210.217 12.7847C209.963 11.8374 209.641 11.2075 209.25 10.895C208.869 10.5728 208.43 10.4116 207.932 10.4116Z" fill="#FE346E"/>
<mask id="path-4-outside-1_2625_2513" maskUnits="userSpaceOnUse" x="210.617" y="5.44199" width="28.5969" height="28.5969" fill="black">
<rect fill="white" x="210.617" y="5.44199" width="28.5969" height="28.5969"/>
<path d="M222.365 10.0624C224.089 9.68292 225.796 10.7731 226.175 12.4977L226.863 15.6212L229.99 14.9331C231.715 14.5535 233.421 15.6437 233.801 17.3683C234.18 19.0931 233.089 20.7996 231.364 21.1791L228.237 21.8673L228.924 24.9898C229.304 26.7146 228.213 28.4211 226.488 28.8007C224.763 29.18 223.058 28.0889 222.678 26.3642L221.991 23.2417L218.872 23.9279C217.148 24.3071 215.442 23.2161 215.062 21.4915C214.683 19.7669 215.773 18.0615 217.498 17.6818L220.617 16.9956L219.929 13.8721C219.55 12.1475 220.64 10.442 222.365 10.0624Z"/>
</mask>
<path d="M222.365 10.0624C224.089 9.68292 225.796 10.7731 226.175 12.4977L226.863 15.6212L229.99 14.9331C231.715 14.5535 233.421 15.6437 233.801 17.3683C234.18 19.0931 233.089 20.7996 231.364 21.1791L228.237 21.8673L228.924 24.9898C229.304 26.7146 228.213 28.4211 226.488 28.8007C224.763 29.18 223.058 28.0889 222.678 26.3642L221.991 23.2417L218.872 23.9279C217.148 24.3071 215.442 23.2161 215.062 21.4915C214.683 19.7669 215.773 18.0615 217.498 17.6818L220.617 16.9956L219.929 13.8721C219.55 12.1475 220.64 10.442 222.365 10.0624Z" fill="white"/>
<path d="M222.365 10.0624L221.935 8.10913L221.935 8.10918L222.365 10.0624ZM226.175 12.4977L228.129 12.0679L228.129 12.0676L226.175 12.4977ZM226.863 15.6212L224.909 16.051L225.339 18.0043L227.293 17.5745L226.863 15.6212ZM229.99 14.9331L229.56 12.9798L229.99 14.9331ZM233.801 17.3683L235.754 16.9385L235.754 16.9384L233.801 17.3683ZM231.364 21.1791L230.935 19.2259L231.364 21.1791ZM228.237 21.8673L227.807 19.914L225.854 20.3438L226.284 22.2971L228.237 21.8673ZM226.488 28.8007L226.918 30.754L226.918 30.7539L226.488 28.8007ZM221.991 23.2417L223.944 22.8119L223.515 20.8586L221.561 21.2884L221.991 23.2417ZM218.872 23.9279L219.302 25.8813L219.302 25.8812L218.872 23.9279ZM215.062 21.4915L213.109 21.9212L213.109 21.9213L215.062 21.4915ZM217.498 17.6818L217.068 15.7286L217.068 15.7286L217.498 17.6818ZM220.617 16.9956L221.046 18.9489L223 18.5191L222.57 16.5658L220.617 16.9956ZM219.929 13.8721L217.976 14.3016L217.976 14.3019L219.929 13.8721ZM222.365 10.0624L222.795 12.0157C223.441 11.8734 224.08 12.2822 224.222 12.9277L226.175 12.4977L228.129 12.0676C227.511 9.26403 224.738 7.49239 221.935 8.10913L222.365 10.0624ZM226.175 12.4977L224.222 12.9275L224.909 16.051L226.863 15.6212L228.816 15.1914L228.129 12.0679L226.175 12.4977ZM226.863 15.6212L227.293 17.5745L230.42 16.8863L229.99 14.9331L229.56 12.9798L226.433 13.6679L226.863 15.6212ZM229.99 14.9331L230.42 16.8863C231.066 16.744 231.705 17.1529 231.847 17.7982L233.801 17.3683L235.754 16.9384C235.137 14.1344 232.363 12.363 229.56 12.9798L229.99 14.9331ZM233.801 17.3683L231.847 17.7981C231.99 18.4441 231.581 19.0837 230.935 19.2259L231.364 21.1791L231.794 23.1324C234.598 22.5155 236.371 19.7421 235.754 16.9385L233.801 17.3683ZM231.364 21.1791L230.935 19.2259L227.807 19.914L228.237 21.8673L228.667 23.8205L231.794 23.1324L231.364 21.1791ZM228.237 21.8673L226.284 22.2971L226.971 25.4196L228.924 24.9898L230.877 24.56L230.19 21.4375L228.237 21.8673ZM228.924 24.9898L226.971 25.4196C227.113 26.0657 226.704 26.7052 226.058 26.8474L226.488 28.8007L226.918 30.7539C229.721 30.137 231.494 27.3636 230.877 24.56L228.924 24.9898ZM226.488 28.8007L226.058 26.8473C225.413 26.9893 224.774 26.5809 224.631 25.9344L222.678 26.3642L220.725 26.794C221.342 29.5969 224.114 31.3706 226.918 30.754L226.488 28.8007ZM222.678 26.3642L224.631 25.9344L223.944 22.8119L221.991 23.2417L220.038 23.6715L220.725 26.794L222.678 26.3642ZM221.991 23.2417L221.561 21.2884L218.443 21.9746L218.872 23.9279L219.302 25.8812L222.421 25.1949L221.991 23.2417ZM218.872 23.9279L218.443 21.9746C217.797 22.1165 217.158 21.708 217.016 21.0617L215.062 21.4915L213.109 21.9213C213.726 24.7242 216.498 26.4977 219.302 25.8813L218.872 23.9279ZM215.062 21.4915L217.016 21.0618C216.874 20.4161 217.282 19.7773 217.928 19.635L217.498 17.6818L217.068 15.7286C214.265 16.3458 212.492 19.1178 213.109 21.9212L215.062 21.4915ZM217.498 17.6818L217.928 19.6351L221.046 18.9489L220.617 16.9956L220.187 15.0423L217.068 15.7286L217.498 17.6818ZM220.617 16.9956L222.57 16.5658L221.883 13.4423L219.929 13.8721L217.976 14.3019L218.663 17.4254L220.617 16.9956ZM219.929 13.8721L221.883 13.4425C221.741 12.7965 222.149 12.1578 222.795 12.0156L222.365 10.0624L221.935 8.10918C219.132 8.72628 217.36 11.4985 217.976 14.3016L219.929 13.8721Z" fill="#FE346E" mask="url(#path-4-outside-1_2625_2513)"/>
<path d="M15.7178 53.604L11.6602 54.3364C11.5234 53.5259 11.2109 52.9155 10.7227 52.5054C10.2441 52.0952 9.61914 51.8901 8.84766 51.8901C7.82227 51.8901 7.00195 52.2466 6.38672 52.9595C5.78125 53.6626 5.47852 54.8442 5.47852 56.5044C5.47852 58.3501 5.78613 59.6538 6.40137 60.4155C7.02637 61.1772 7.86133 61.5581 8.90625 61.5581C9.6875 61.5581 10.3271 61.3384 10.8252 60.8989C11.3232 60.4497 11.6748 59.6831 11.8799 58.5991L15.9229 59.2876C15.5029 61.1431 14.6973 62.5444 13.5059 63.4917C12.3145 64.439 10.7178 64.9126 8.71582 64.9126C6.44043 64.9126 4.62402 64.1948 3.2666 62.7593C1.91895 61.3237 1.24512 59.3364 1.24512 56.7974C1.24512 54.229 1.92383 52.2319 3.28125 50.8062C4.63867 49.3706 6.47461 48.6528 8.78906 48.6528C10.6836 48.6528 12.1875 49.063 13.3008 49.8833C14.4238 50.6938 15.2295 51.9341 15.7178 53.604ZM29.0918 64.561V62.2319C28.5254 63.062 27.7783 63.7163 26.8506 64.1948C25.9326 64.6733 24.9609 64.9126 23.9355 64.9126C22.8906 64.9126 21.9531 64.6831 21.123 64.2241C20.293 63.7651 19.6924 63.1206 19.3213 62.2905C18.9502 61.4604 18.7646 60.313 18.7646 58.8481V49.0044H22.8809V56.1528C22.8809 58.3403 22.9541 59.6831 23.1006 60.1812C23.2568 60.6694 23.5352 61.0601 23.9355 61.353C24.3359 61.6362 24.8438 61.7778 25.459 61.7778C26.1621 61.7778 26.792 61.5874 27.3486 61.2065C27.9053 60.8159 28.2861 60.3374 28.4912 59.771C28.6963 59.1948 28.7988 57.7935 28.7988 55.5669V49.0044H32.915V64.561H29.0918ZM41.1328 64.561H37.0166V49.0044H40.8398V51.2163C41.4941 50.1714 42.0801 49.4829 42.5977 49.1509C43.125 48.8188 43.7207 48.6528 44.3848 48.6528C45.3223 48.6528 46.2256 48.9116 47.0947 49.4292L45.8203 53.0181C45.127 52.5688 44.4824 52.3442 43.8867 52.3442C43.3105 52.3442 42.8223 52.5054 42.4219 52.8276C42.0215 53.1401 41.7041 53.7114 41.4697 54.5415C41.2451 55.3716 41.1328 57.1099 41.1328 59.7563V64.561ZM52.8223 64.561H48.7061V49.0044H52.5293V51.2163C53.1836 50.1714 53.7695 49.4829 54.2871 49.1509C54.8145 48.8188 55.4102 48.6528 56.0742 48.6528C57.0117 48.6528 57.915 48.9116 58.7842 49.4292L57.5098 53.0181C56.8164 52.5688 56.1719 52.3442 55.5762 52.3442C55 52.3442 54.5117 52.5054 54.1113 52.8276C53.7109 53.1401 53.3936 53.7114 53.1592 54.5415C52.9346 55.3716 52.8223 57.1099 52.8223 59.7563V64.561ZM69.5801 59.6099L73.6816 60.2983C73.1543 61.8022 72.3193 62.9497 71.1768 63.7407C70.0439 64.522 68.623 64.9126 66.9141 64.9126C64.209 64.9126 62.207 64.0288 60.9082 62.2612C59.8828 60.8452 59.3701 59.0581 59.3701 56.8999C59.3701 54.3218 60.0439 52.3052 61.3916 50.8501C62.7393 49.3853 64.4434 48.6528 66.5039 48.6528C68.8184 48.6528 70.6445 49.4194 71.9824 50.9526C73.3203 52.4761 73.96 54.8149 73.9014 57.9692H63.5889C63.6182 59.1899 63.9502 60.1421 64.585 60.8257C65.2197 61.4995 66.0107 61.8364 66.958 61.8364C67.6025 61.8364 68.1445 61.6606 68.584 61.3091C69.0234 60.9575 69.3555 60.3911 69.5801 59.6099ZM69.8145 55.4497C69.7852 54.2583 69.4775 53.355 68.8916 52.7397C68.3057 52.1147 67.5928 51.8022 66.7529 51.8022C65.8545 51.8022 65.1123 52.1294 64.5264 52.7837C63.9404 53.438 63.6523 54.3267 63.6621 55.4497H69.8145ZM91.4209 64.561H87.3047V56.6216C87.3047 54.9419 87.2168 53.8579 87.041 53.3696C86.8652 52.8716 86.5771 52.4858 86.1768 52.2124C85.7861 51.939 85.3125 51.8022 84.7559 51.8022C84.043 51.8022 83.4033 51.9976 82.8369 52.3882C82.2705 52.7788 81.8799 53.2964 81.665 53.9409C81.46 54.5854 81.3574 55.7769 81.3574 57.5151V64.561H77.2412V49.0044H81.0645V51.2896C82.4219 49.5317 84.1309 48.6528 86.1914 48.6528C87.0996 48.6528 87.9297 48.8188 88.6816 49.1509C89.4336 49.4731 90 49.8882 90.3809 50.396C90.7715 50.9038 91.04 51.48 91.1865 52.1245C91.3428 52.769 91.4209 53.6919 91.4209 54.8931V64.561ZM109.175 53.604L105.117 54.3364C104.98 53.5259 104.668 52.9155 104.18 52.5054C103.701 52.0952 103.076 51.8901 102.305 51.8901C101.279 51.8901 100.459 52.2466 99.8438 52.9595C99.2383 53.6626 98.9355 54.8442 98.9355 56.5044C98.9355 58.3501 99.2432 59.6538 99.8584 60.4155C100.483 61.1772 101.318 61.5581 102.363 61.5581C103.145 61.5581 103.784 61.3384 104.282 60.8989C104.78 60.4497 105.132 59.6831 105.337 58.5991L109.38 59.2876C108.96 61.1431 108.154 62.5444 106.963 63.4917C105.771 64.439 104.175 64.9126 102.173 64.9126C99.8975 64.9126 98.0811 64.1948 96.7236 62.7593C95.376 61.3237 94.7021 59.3364 94.7021 56.7974C94.7021 54.229 95.3809 52.2319 96.7383 50.8062C98.0957 49.3706 99.9316 48.6528 102.246 48.6528C104.141 48.6528 105.645 49.063 106.758 49.8833C107.881 50.6938 108.687 51.9341 109.175 53.604ZM112.31 46.895V43.0864H116.426V46.895H112.31ZM112.31 64.561V49.0044H116.426V64.561H112.31ZM129.668 59.6099L133.77 60.2983C133.242 61.8022 132.407 62.9497 131.265 63.7407C130.132 64.522 128.711 64.9126 127.002 64.9126C124.297 64.9126 122.295 64.0288 120.996 62.2612C119.971 60.8452 119.458 59.0581 119.458 56.8999C119.458 54.3218 120.132 52.3052 121.479 50.8501C122.827 49.3853 124.531 48.6528 126.592 48.6528C128.906 48.6528 130.732 49.4194 132.07 50.9526C133.408 52.4761 134.048 54.8149 133.989 57.9692H123.677C123.706 59.1899 124.038 60.1421 124.673 60.8257C125.308 61.4995 126.099 61.8364 127.046 61.8364C127.69 61.8364 128.232 61.6606 128.672 61.3091C129.111 60.9575 129.443 60.3911 129.668 59.6099ZM129.902 55.4497C129.873 54.2583 129.565 53.355 128.979 52.7397C128.394 52.1147 127.681 51.8022 126.841 51.8022C125.942 51.8022 125.2 52.1294 124.614 52.7837C124.028 53.438 123.74 54.3267 123.75 55.4497H129.902ZM135.908 60.1226L140.039 59.4927C140.215 60.2935 140.571 60.9038 141.108 61.3237C141.646 61.7339 142.397 61.939 143.364 61.939C144.429 61.939 145.229 61.7437 145.767 61.353C146.128 61.0796 146.309 60.7134 146.309 60.2544C146.309 59.9419 146.211 59.6831 146.016 59.478C145.811 59.2827 145.352 59.1021 144.639 58.936C141.318 58.2036 139.214 57.5347 138.325 56.9292C137.095 56.0894 136.479 54.9224 136.479 53.4282C136.479 52.0806 137.012 50.9478 138.076 50.0298C139.141 49.1118 140.791 48.6528 143.027 48.6528C145.156 48.6528 146.738 48.9995 147.773 49.6929C148.809 50.3862 149.521 51.4116 149.912 52.769L146.03 53.4868C145.864 52.8813 145.547 52.4175 145.078 52.0952C144.619 51.7729 143.96 51.6118 143.101 51.6118C142.017 51.6118 141.24 51.7632 140.771 52.0659C140.459 52.2808 140.303 52.5591 140.303 52.9009C140.303 53.1938 140.439 53.4429 140.713 53.6479C141.084 53.9214 142.363 54.3071 144.551 54.8052C146.748 55.3032 148.281 55.9136 149.15 56.6362C150.01 57.3687 150.439 58.3892 150.439 59.6978C150.439 61.1235 149.844 62.3491 148.652 63.3745C147.461 64.3999 145.698 64.9126 143.364 64.9126C141.245 64.9126 139.565 64.4829 138.325 63.6235C137.095 62.7642 136.289 61.5972 135.908 60.1226ZM162.026 65.5864L166.729 66.1577C166.807 66.7046 166.987 67.0806 167.271 67.2856C167.661 67.5786 168.276 67.7251 169.116 67.7251C170.19 67.7251 170.996 67.564 171.533 67.2417C171.895 67.0269 172.168 66.6802 172.354 66.2017C172.48 65.8599 172.544 65.23 172.544 64.312V62.0415C171.313 63.7212 169.761 64.561 167.886 64.561C165.796 64.561 164.141 63.6772 162.92 61.9097C161.963 60.5132 161.484 58.7749 161.484 56.6948C161.484 54.0874 162.109 52.0952 163.359 50.7183C164.619 49.3413 166.182 48.6528 168.047 48.6528C169.971 48.6528 171.558 49.4976 172.808 51.187V49.0044H176.66V62.9644C176.66 64.8003 176.509 66.1724 176.206 67.0806C175.903 67.9888 175.479 68.7017 174.932 69.2192C174.385 69.7368 173.652 70.1421 172.734 70.4351C171.826 70.728 170.674 70.8745 169.277 70.8745C166.641 70.8745 164.771 70.4204 163.667 69.5122C162.563 68.6138 162.012 67.4712 162.012 66.0845C162.012 65.9478 162.017 65.7817 162.026 65.5864ZM165.703 56.4604C165.703 58.1108 166.021 59.3218 166.655 60.0933C167.3 60.855 168.091 61.2358 169.028 61.2358C170.034 61.2358 170.884 60.8452 171.577 60.064C172.271 59.2729 172.617 58.106 172.617 56.563C172.617 54.9517 172.285 53.7554 171.621 52.9741C170.957 52.1929 170.117 51.8022 169.102 51.8022C168.115 51.8022 167.3 52.188 166.655 52.9595C166.021 53.7212 165.703 54.8882 165.703 56.4604ZM180.747 64.561V43.0864H184.863V64.561H180.747ZM188.145 56.563C188.145 55.1958 188.481 53.8726 189.155 52.5933C189.829 51.314 190.781 50.3374 192.012 49.6636C193.252 48.9897 194.634 48.6528 196.157 48.6528C198.511 48.6528 200.439 49.4194 201.943 50.9526C203.447 52.4761 204.199 54.4048 204.199 56.7388C204.199 59.0923 203.438 61.0454 201.914 62.5981C200.4 64.1411 198.491 64.9126 196.187 64.9126C194.761 64.9126 193.398 64.5903 192.1 63.9458C190.811 63.3013 189.829 62.3589 189.155 61.1187C188.481 59.8687 188.145 58.3501 188.145 56.563ZM192.363 56.7827C192.363 58.3257 192.729 59.5073 193.462 60.3276C194.194 61.1479 195.098 61.5581 196.172 61.5581C197.246 61.5581 198.145 61.1479 198.867 60.3276C199.6 59.5073 199.966 58.3159 199.966 56.7534C199.966 55.23 199.6 54.0581 198.867 53.2378C198.145 52.4175 197.246 52.0073 196.172 52.0073C195.098 52.0073 194.194 52.4175 193.462 53.2378C192.729 54.0581 192.363 55.2397 192.363 56.7827ZM207.261 64.561V43.0864H211.377V50.8208C212.646 49.3755 214.15 48.6528 215.889 48.6528C217.783 48.6528 219.351 49.3413 220.591 50.7183C221.831 52.0854 222.451 54.0532 222.451 56.6216C222.451 59.2778 221.816 61.3237 220.547 62.7593C219.287 64.1948 217.754 64.9126 215.947 64.9126C215.059 64.9126 214.18 64.6929 213.311 64.2534C212.451 63.8042 211.709 63.145 211.084 62.2759V64.561H207.261ZM211.348 56.4458C211.348 58.0571 211.602 59.2485 212.109 60.02C212.822 61.1138 213.77 61.6606 214.951 61.6606C215.859 61.6606 216.631 61.2749 217.266 60.5034C217.91 59.7222 218.232 58.4966 218.232 56.8267C218.232 55.0493 217.91 53.77 217.266 52.9888C216.621 52.1978 215.796 51.8022 214.79 51.8022C213.804 51.8022 212.983 52.188 212.329 52.9595C211.675 53.7212 211.348 54.8833 211.348 56.4458ZM228.853 53.7505L225.117 53.0767C225.537 51.5728 226.26 50.4595 227.285 49.7368C228.311 49.0142 229.834 48.6528 231.855 48.6528C233.691 48.6528 235.059 48.8726 235.957 49.312C236.855 49.7417 237.485 50.2935 237.847 50.9673C238.218 51.6313 238.403 52.8569 238.403 54.644L238.359 59.4487C238.359 60.8159 238.423 61.8267 238.55 62.481C238.687 63.1255 238.936 63.8188 239.297 64.561H235.225C235.117 64.2876 234.985 63.8823 234.829 63.3452C234.761 63.1011 234.712 62.9399 234.683 62.8618C233.979 63.5454 233.228 64.0581 232.427 64.3999C231.626 64.7417 230.771 64.9126 229.863 64.9126C228.262 64.9126 226.997 64.478 226.069 63.6089C225.151 62.7397 224.692 61.6411 224.692 60.313C224.692 59.4341 224.902 58.6528 225.322 57.9692C225.742 57.2759 226.328 56.7485 227.08 56.3872C227.842 56.0161 228.936 55.6938 230.361 55.4204C232.285 55.0591 233.618 54.7222 234.36 54.4097V53.9995C234.36 53.2085 234.165 52.647 233.774 52.3149C233.384 51.9731 232.646 51.8022 231.562 51.8022C230.83 51.8022 230.259 51.9487 229.849 52.2417C229.438 52.5249 229.106 53.0278 228.853 53.7505ZM234.36 57.0903C233.833 57.2661 232.998 57.4761 231.855 57.7202C230.713 57.9644 229.966 58.2036 229.614 58.438C229.077 58.8188 228.809 59.3022 228.809 59.8882C228.809 60.4644 229.023 60.9624 229.453 61.3823C229.883 61.8022 230.43 62.0122 231.094 62.0122C231.836 62.0122 232.544 61.7681 233.218 61.2798C233.716 60.9087 234.043 60.4546 234.199 59.9175C234.307 59.5659 234.36 58.897 234.36 57.9106V57.0903ZM242.476 64.561V43.0864H246.592V64.561H242.476ZM250.825 64.561V43.0864H254.941V64.561H250.825ZM257.227 49.0044H261.606L265.327 60.0493L268.96 49.0044H273.223L267.729 63.9751L266.748 66.6851C266.387 67.5933 266.04 68.2866 265.708 68.7651C265.386 69.2437 265.01 69.6294 264.58 69.9224C264.16 70.2251 263.638 70.4595 263.013 70.6255C262.397 70.7915 261.699 70.8745 260.918 70.8745C260.127 70.8745 259.351 70.7915 258.589 70.6255L258.223 67.4028C258.867 67.5298 259.448 67.5933 259.966 67.5933C260.923 67.5933 261.631 67.3101 262.09 66.7437C262.549 66.187 262.9 65.4741 263.145 64.605L257.227 49.0044Z" fill="white"/>
</svg>
