<svg width="30" height="24" viewBox="0 0 30 24" fill="none" xmlns="http://www.w3.org/2000/svg">
<path d="M2.87791 19.846C1.90956 19.846 0.91304 20.6036 0.91304 21.9298C0.91304 23.1423 1.78956 23.998 2.87791 23.998C3.77634 23.998 4.17704 23.4095 4.17704 23.4095V23.6662C4.17704 23.7872 4.29495 23.9229 4.44 23.9229H5.09008V19.9368H4.17704V20.4429C4.17704 20.4429 3.77321 19.846 2.87791 19.846ZM3.04069 20.661C3.83791 20.661 4.25634 21.3455 4.25634 21.9288C4.25634 22.5799 3.75965 23.1966 3.04174 23.1976C2.44278 23.1976 1.84174 22.7229 1.84174 21.9204C1.84174 21.1963 2.35826 20.661 3.04069 20.661ZM6.35791 23.9239C6.21704 23.9239 6.09495 23.8258 6.09495 23.6672V19.9378H7.008V20.4314C7.21461 20.1277 7.61843 19.846 8.2393 19.846C9.25252 19.846 9.792 20.6349 9.792 21.3726V23.9239H9.15861C9.0858 23.9245 9.01571 23.8963 8.96355 23.8455C8.91139 23.7947 8.88137 23.7254 8.88 23.6526V21.5688C8.88 21.1597 8.6233 20.663 8.02956 20.663C7.38887 20.663 7.00695 21.2536 7.00695 21.8109V23.9239H6.35791ZM12.456 19.8491C11.4876 19.8491 10.4911 20.6067 10.4911 21.9319C10.4911 23.1444 11.3676 24.0011 12.456 24.0011C13.3544 24.0011 13.7551 23.4116 13.7551 23.4116V23.6683C13.7551 23.7903 13.873 23.925 14.0181 23.925H14.6682V17.9458H13.7551V20.445C13.7551 20.445 13.3513 19.8491 12.456 19.8491ZM12.6188 20.663C13.416 20.663 13.8344 21.3486 13.8344 21.9319C13.8344 22.582 13.3377 23.1997 12.6198 23.1997C12.0209 23.1997 11.4198 22.726 11.4198 21.9236C11.4198 21.1994 11.9363 20.663 12.6188 20.663ZM15.935 23.9208C15.7941 23.9208 15.672 23.8227 15.672 23.6641V19.9347H16.584V20.5994C16.7405 20.2269 17.0807 19.8898 17.6828 19.8898C17.8497 19.8898 18.0073 19.9201 18.0073 19.9201V20.8404C18.0073 20.8404 17.8111 20.7653 17.5743 20.7653C16.9336 20.7653 16.584 21.3559 16.584 21.9121V23.9208H15.935ZM23.5461 23.925C23.4052 23.925 23.2821 23.8269 23.2821 23.6683V19.9389H24.1951V23.925H23.5461ZM26.8748 19.8491C25.9054 19.8491 24.9099 20.6067 24.9099 21.9319C24.9099 23.1444 25.7864 24.0011 26.8748 24.0011C27.7732 24.0011 28.1739 23.4116 28.1739 23.4116V23.6683C28.1739 23.7903 28.2918 23.925 28.4369 23.925H29.087V17.9458H28.1739V20.445C28.1739 20.445 27.7701 19.8491 26.8748 19.8491ZM27.0376 20.663C27.8348 20.663 28.2532 21.3486 28.2532 21.9319C28.2532 22.582 27.7565 23.1997 27.0386 23.1997C26.4386 23.1997 25.8386 22.726 25.8386 21.9236C25.8386 21.1994 26.3551 20.663 27.0376 20.663ZM23.7339 19.077C24.0668 19.077 24.337 18.814 24.337 18.4884C24.3361 18.41 24.3197 18.3326 24.2888 18.2606C24.2579 18.1885 24.2132 18.1233 24.1571 18.0685C24.101 18.0138 24.0346 17.9706 23.9618 17.9415C23.8891 17.9124 23.8112 17.8979 23.7329 17.8989C23.5747 17.8972 23.4224 17.9583 23.3093 18.0689C23.1963 18.1794 23.1317 18.3303 23.1297 18.4884C23.1297 18.814 23.4 19.077 23.7329 19.077H23.7339ZM20.4156 19.846C19.4024 19.846 18.287 20.5848 18.287 21.9236C18.287 23.1444 19.2365 24.0001 20.4146 24.0001C21.865 24.0001 22.5746 22.8616 22.5746 21.9319C22.5746 20.7914 21.6605 19.846 20.4156 19.846ZM20.4198 20.6776C21.121 20.6776 21.6449 21.2307 21.6449 21.9267C21.6449 22.6352 21.0897 23.182 20.4219 23.182C19.8021 23.182 19.201 22.6905 19.201 21.9382C19.201 21.1743 19.7729 20.6776 20.4198 20.6776ZM21.8723 4.64252L24.2087 0.693995C24.2396 0.641432 24.2597 0.583215 24.2677 0.522772C24.2758 0.46233 24.2717 0.400884 24.2557 0.342054C24.2396 0.283224 24.212 0.2282 24.1743 0.180222C24.1367 0.132244 24.0898 0.0922822 24.0365 0.0626905C23.9287 0.00064156 23.8009 -0.0166291 23.6805 0.0145921C23.5601 0.0458132 23.4568 0.123033 23.3927 0.229647L21.0271 4.2293C19.2219 3.42582 17.1892 2.97713 15.0042 2.97713C12.8191 2.97713 10.7864 3.42582 8.98121 4.2293L6.61565 0.230691C6.551 0.123858 6.4471 0.0465726 6.32619 0.0153701C6.20529 -0.0158323 6.07696 0.00152712 5.96869 0.063734C5.91539 0.0932069 5.86855 0.133082 5.83095 0.180995C5.79335 0.228907 5.76575 0.283882 5.74979 0.34266C5.73383 0.401438 5.72984 0.462822 5.73804 0.523173C5.74625 0.583524 5.76649 0.641612 5.79756 0.693995L8.13287 4.64356C6.13123 5.69671 4.42393 7.23256 3.16562 9.11201C1.90731 10.9915 1.13774 13.1551 0.926605 15.407H29.0817C28.8707 13.1547 28.1008 10.9907 26.8418 9.11115C25.5829 7.23162 23.8748 5.69497 21.8723 4.64252ZM8.54087 11.5493C7.88869 11.5493 7.36174 11.0317 7.36174 10.3973C7.36174 9.76078 7.89182 9.2453 8.54087 9.2453C9.19408 9.2453 9.72104 9.76286 9.72104 10.3973C9.72417 11.0317 9.19304 11.5493 8.54087 11.5493ZM21.4664 11.5493C20.8132 11.5493 20.2863 11.0317 20.2863 10.3973C20.2863 9.76078 20.8163 9.2453 21.4654 9.2453C22.1186 9.2453 22.6466 9.76286 22.6466 10.3973C22.6487 11.0317 22.1186 11.5493 21.4664 11.5493Z" fill="white"/>
</svg>
