<svg width="29" height="25" viewBox="0 0 29 25" fill="none" xmlns="http://www.w3.org/2000/svg">
<g clip-path="url(#clip0_55_3719)">
<path d="M1.96487 20.2068C0.996522 20.2068 0 20.9644 0 22.2907C0 23.5032 0.876522 24.3588 1.96487 24.3588C2.8633 24.3588 3.264 23.7703 3.264 23.7703V24.027C3.264 24.1481 3.38191 24.2837 3.52696 24.2837H4.17704V20.2976H3.264V20.8037C3.264 20.8037 2.86017 20.2068 1.96487 20.2068ZM2.12765 21.0218C2.92487 21.0218 3.3433 21.7063 3.3433 22.2896C3.3433 22.9407 2.84661 23.5574 2.1287 23.5585C1.52974 23.5585 0.928696 23.0837 0.928696 22.2813C0.928696 21.5571 1.44522 21.0218 2.12765 21.0218ZM5.44487 24.2847C5.304 24.2847 5.18191 24.1867 5.18191 24.0281V20.2987H6.09496V20.7922C6.30157 20.4886 6.70539 20.2068 7.32626 20.2068C8.33948 20.2068 8.87896 20.9957 8.87896 21.7334V24.2847H8.24557C8.17276 24.2853 8.10267 24.2571 8.05051 24.2063C7.99835 24.1556 7.96833 24.0862 7.96696 24.0134V21.9296C7.96696 21.5206 7.71026 21.0239 7.11652 21.0239C6.47583 21.0239 6.09391 21.6145 6.09391 22.1717V24.2847H5.44487ZM11.543 20.21C10.5746 20.21 9.57809 20.9675 9.57809 22.2927C9.57809 23.5053 10.4546 24.362 11.543 24.362C12.4414 24.362 12.8421 23.7724 12.8421 23.7724V24.0291C12.8421 24.1512 12.96 24.2858 13.105 24.2858H13.7551V18.3067H12.8421V20.8058C12.8421 20.8058 12.4383 20.21 11.543 20.21ZM11.7057 21.0239C12.503 21.0239 12.9214 21.7094 12.9214 22.2927C12.9214 22.9428 12.4247 23.5606 11.7068 23.5606C11.1078 23.5606 10.5068 23.0868 10.5068 22.2844C10.5068 21.5602 11.0233 21.0239 11.7057 21.0239ZM15.0219 24.2816C14.881 24.2816 14.759 24.1835 14.759 24.0249V20.2955H15.671V20.9602C15.8275 20.5877 16.1677 20.2507 16.7697 20.2507C16.9367 20.2507 17.0943 20.2809 17.0943 20.2809V21.2013C17.0943 21.2013 16.8981 21.1261 16.6612 21.1261C16.0205 21.1261 15.671 21.7167 15.671 22.2729V24.2816H15.0219ZM22.633 24.2858C22.4922 24.2858 22.369 24.1877 22.369 24.0291V20.2997H23.2821V24.2858H22.633ZM25.9617 20.21C24.9923 20.21 23.9969 20.9675 23.9969 22.2927C23.9969 23.5053 24.8734 24.362 25.9617 24.362C26.8602 24.362 27.2609 23.7724 27.2609 23.7724V24.0291C27.2609 24.1512 27.3788 24.2858 27.5238 24.2858H28.1739V18.3067H27.2609V20.8058C27.2609 20.8058 26.857 20.21 25.9617 20.21ZM26.1245 21.0239C26.9217 21.0239 27.3402 21.7094 27.3402 22.2927C27.3402 22.9428 26.8435 23.5606 26.1256 23.5606C25.5256 23.5606 24.9256 23.0868 24.9256 22.2844C24.9256 21.5602 25.4421 21.0239 26.1245 21.0239ZM22.8209 19.4378C23.1537 19.4378 23.424 19.1748 23.424 18.8493C23.423 18.7709 23.4067 18.6935 23.3758 18.6214C23.3449 18.5494 23.3001 18.4841 23.244 18.4293C23.1879 18.3746 23.1216 18.3314 23.0488 18.3023C22.976 18.2732 22.8982 18.2587 22.8198 18.2597C22.6617 18.258 22.5094 18.3192 22.3963 18.4297C22.2832 18.5403 22.2186 18.6911 22.2167 18.8493C22.2167 19.1748 22.487 19.4378 22.8198 19.4378H22.8209ZM19.5026 20.2068C18.4894 20.2068 17.3739 20.9456 17.3739 22.2844C17.3739 23.5053 18.3235 24.3609 19.5016 24.3609C20.952 24.3609 21.6616 23.2225 21.6616 22.2927C21.6616 21.1522 20.7475 20.2068 19.5026 20.2068ZM19.5068 21.0385C20.208 21.0385 20.7318 21.5915 20.7318 22.2875C20.7318 22.9961 20.1767 23.5428 19.5089 23.5428C18.889 23.5428 18.288 23.0514 18.288 22.299C18.288 21.5352 18.8598 21.0385 19.5068 21.0385ZM20.9593 5.00336L23.2957 1.05483C23.3266 1.00227 23.3466 0.944055 23.3547 0.883612C23.3628 0.82317 23.3587 0.761724 23.3426 0.702894C23.3266 0.644064 23.2989 0.58904 23.2613 0.541062C23.2236 0.493084 23.1768 0.453122 23.1235 0.42353C23.0157 0.361481 22.8878 0.344211 22.7674 0.375432C22.647 0.406653 22.5437 0.483873 22.4797 0.590487L20.1141 4.59014C18.3089 3.78666 16.2762 3.33797 14.0911 3.33797C11.9061 3.33797 9.87339 3.78666 8.06817 4.59014L5.70261 0.59153C5.63796 0.484698 5.53406 0.407412 5.41315 0.37621C5.29224 0.345008 5.16392 0.362367 5.05565 0.424574C5.00235 0.454047 4.95551 0.493922 4.91791 0.541834C4.88031 0.589747 4.85271 0.644722 4.83675 0.7035C4.82079 0.762278 4.81679 0.823662 4.825 0.884013C4.83321 0.944363 4.85345 1.00245 4.88452 1.05483L7.21983 5.0044C5.21819 6.05755 3.51089 7.5934 2.25258 9.47285C0.994269 11.3523 0.224696 13.516 0.0135652 15.7679H28.1687C27.9576 13.5156 27.1877 11.3515 25.9288 9.47199C24.6699 7.59246 22.9618 6.05581 20.9593 5.00336ZM7.62783 11.9101C6.97565 11.9101 6.4487 11.3926 6.4487 10.7581C6.4487 10.1216 6.97878 9.60614 7.62783 9.60614C8.28104 9.60614 8.808 10.1237 8.808 10.7581C8.81113 11.3926 8.28 11.9101 7.62783 11.9101ZM20.5534 11.9101C19.9002 11.9101 19.3732 11.3926 19.3732 10.7581C19.3732 10.1216 19.9033 9.60614 20.5523 9.60614C21.2056 9.60614 21.7336 10.1237 21.7336 10.7581C21.7357 11.3926 21.2056 11.9101 20.5534 11.9101Z" fill="#61DA84"/>
</g>
<defs>
<clipPath id="clip0_55_3719">
<rect width="28.1739" height="24" fill="white" transform="translate(0 0.36084)"/>
</clipPath>
</defs>
</svg>
