<svg width="22" height="24" viewBox="0 0 22 24" fill="none" xmlns="http://www.w3.org/2000/svg">
<path d="M17.7777 12.6837C17.7671 10.7168 18.657 9.23259 20.4569 8.13859C19.4501 6.69799 17.9276 5.90486 15.9182 5.74964C14.0162 5.59973 11.9377 6.85853 11.1765 6.85853C10.3727 6.85853 8.52918 5.8028 7.08327 5.8028C4.09362 5.85064 0.915802 8.18749 0.915802 12.9399C0.915802 14.3433 1.17309 15.7956 1.68767 17.2904C2.37341 19.2572 4.84848 24.0798 7.43092 23.999C8.78115 23.9671 9.73482 23.04 11.4922 23.04C13.1965 23.04 14.0811 23.999 15.5855 23.999C18.1902 23.9618 20.4303 19.5783 21.0842 17.6072C17.5906 15.9625 17.7777 12.7847 17.7777 12.6826V12.6837ZM14.7456 3.88483C16.2085 2.14761 16.0745 0.567734 16.032 0C14.7402 0.0744221 13.2454 0.879244 12.3927 1.87012C11.455 2.93117 10.9043 4.24419 11.0213 5.722C12.4193 5.82938 13.6951 5.11173 14.7456 3.88483Z" fill="white"/>
</svg>
