<svg width="24" height="25" viewBox="0 0 24 25" xmlns="http://www.w3.org/2000/svg">
<path fill-rule="evenodd" clip-rule="evenodd" d="M18.5 19.7205H5.5C4.672 19.7205 4 19.0485 4 18.2205C4 17.9345 4.08 17.6675 4.219 17.4405L10.902 6.36452C11.118 5.98052 11.529 5.72052 12 5.72052C12.52 5.72052 12.966 6.03652 13.158 6.48652L19.776 17.4315C19.918 17.6605 20 17.9315 20 18.2205C20 19.0485 19.328 19.7205 18.5 19.7205ZM13 16.7205C13 16.1685 12.552 15.7205 12 15.7205C11.448 15.7205 11 16.1685 11 16.7205C11 17.2725 11.448 17.7205 12 17.7205C12.552 17.7205 13 17.2725 13 16.7205ZM13 10.7205C13 10.1685 12.552 9.72052 12 9.72052C11.448 9.72052 11 10.1685 11 10.7205V13.7205C11 14.2725 11.448 14.7205 12 14.7205C12.552 14.7205 13 14.2725 13 13.7205V10.7205Z"/>
</svg>
