<svg width="24" height="25" viewBox="0 0 24 25" fill="none" xmlns="http://www.w3.org/2000/svg">
<path d="M5 13.616L13.7 13.616V15.616C13.7 16.016 13.9 16.316 14.2 16.516C14.6 16.716 15 16.616 15.3 16.416L19.6 13.416C19.8 13.216 20 12.916 20 12.616C20 12.316 19.8 12.016 19.6 11.816L15.3 8.81601C15.1 8.71601 14.9 8.61601 14.7 8.61601C14.5 8.61601 14.4 8.61601 14.2 8.71601C13.9 8.91601 13.7 9.21601 13.7 9.61601V11.616L5 11.616C4.4 11.616 4 12.016 4 12.616C4 13.216 4.4 13.616 5 13.616Z" fill="white"/>
</svg>
