<svg width="16" height="17" viewBox="0 0 16 17" xmlns="http://www.w3.org/2000/svg">
<path fill-rule="evenodd" clip-rule="evenodd" d="M14 2.5C15.104 2.5 16 3.396 16 4.5V12.5C16 13.604 15.104 14.5 14 14.5H3C1.896 14.5 1 13.604 1 12.5V4.5C1 3.396 1.896 2.5 3 2.5H14ZM8 12C8 11.724 7.776 11.5 7.5 11.5H3.5C3.224 11.5 3 11.724 3 12C3 12.276 3.224 12.5 3.5 12.5H7.5C7.776 12.5 8 12.276 8 12ZM6 10C6 9.724 5.776 9.5 5.5 9.5H3.5C3.224 9.5 3 9.724 3 10C3 10.276 3.224 10.5 3.5 10.5H5.5C5.776 10.5 6 10.276 6 10ZM9.5 9.5H7.5C7.224 9.5 7 9.724 7 10C7 10.276 7.224 10.5 7.5 10.5H9.5C9.776 10.5 10 10.276 10 10C10 9.724 9.776 9.5 9.5 9.5ZM13.5 9.5H11.5C11.224 9.5 11 9.724 11 10C11 10.276 11.224 10.5 11.5 10.5H13.5C13.776 10.5 14 10.276 14 10C14 9.724 13.776 9.5 13.5 9.5ZM6.25 4.5H3.75C3.336 4.5 3 4.836 3 5.25V6.75C3 7.164 3.336 7.5 3.75 7.5H6.25C6.664 7.5 7 7.164 7 6.75V5.25C7 4.836 6.664 4.5 6.25 4.5Z"/>
</svg>
