<svg width="24" height="25" viewBox="0 0 24 25" fill="none" xmlns="http://www.w3.org/2000/svg">
<path d="M18.2364 7.59792C18.5878 7.24645 18.5878 6.6766 18.2364 6.32513C17.8849 5.97366 17.3151 5.97366 16.9636 6.32513L6.5 16.7887L2.0364 12.3251C1.68492 11.9737 1.11508 11.9737 0.763604 12.3251C0.412132 12.6766 0.412132 13.2464 0.763604 13.5979L5.8636 18.6979C6.03239 18.8667 6.26131 18.9615 6.5 18.9615C6.7387 18.9615 6.96761 18.8667 7.1364 18.6979L18.2364 7.59792Z" fill="#34C759"/>
<path d="M23.2363 7.59792C23.5878 7.24645 23.5878 6.6766 23.2363 6.32513C22.8849 5.97366 22.315 5.97366 21.9636 6.32513L10.8636 17.4251C10.5121 17.7766 10.5121 18.3464 10.8636 18.6979C11.2151 19.0494 11.7849 19.0494 12.1364 18.6979L23.2363 7.59792Z" fill="#34C759"/>
</svg>
