<svg width="24" height="25" viewBox="0 0 24 25" fill="none" xmlns="http://www.w3.org/2000/svg">
<path d="M12 0.569092C18.6289 0.569092 24 5.94167 24 12.5691L23.9962 12.8741C23.8344 19.362 18.5255 24.5691 12 24.5691L11.695 24.5653C5.20713 24.4035 0 19.0945 0 12.5691L0.00379986 12.2641C0.165607 5.77622 5.47454 0.569092 12 0.569092ZM18.2918 8.23428C17.9107 7.86785 17.292 7.86521 16.9121 8.23049L10 14.8768L7.09412 12.0827C6.70693 11.7104 6.09027 11.7131 5.7082 12.0804L5.6918 12.0962C5.31071 12.4626 5.31126 13.0607 5.69523 13.4299L9.30477 16.9006C9.68723 17.2683 10.3095 17.2715 10.6913 16.9044L18.3087 9.57993C18.6902 9.21313 18.6903 8.61743 18.3082 8.25006L18.2918 8.23428Z" fill="#34C759"/>
</svg>
