<svg width="24" height="24" viewBox="0 0 24 24" xmlns="http://www.w3.org/2000/svg">
<path fill-rule="evenodd" clip-rule="evenodd" d="M12 20C16.4183 20 20 16.4182 20 12C20 7.5818 16.4183 4 12 4C7.58172 4 4 7.5818 4 12C4 16.4182 7.58172 20 12 20ZM15.5442 8.45588C15.8382 8.74977 15.8382 9.22656 15.5442 9.52068L13.0648 12L15.5442 14.4793C15.8382 14.7734 15.8382 15.2502 15.5442 15.5441C15.2501 15.8382 14.7734 15.8382 14.4793 15.5441L12 13.0648L9.52065 15.5441C9.22662 15.8382 8.74989 15.8382 8.45582 15.5441C8.16179 15.2502 8.16179 14.7734 8.45582 14.4793L10.9352 12L8.45582 9.52068C8.16179 9.22656 8.16179 8.74977 8.45582 8.45588C8.74986 8.16176 9.22659 8.16176 9.52065 8.45588L12 10.9352L14.4793 8.45588C14.7734 8.16176 15.2501 8.16176 15.5442 8.45588Z"/>
</svg>
