<svg width="17" height="17" viewBox="0 0 17 17" xmlns="http://www.w3.org/2000/svg">
<path fill-rule="evenodd" clip-rule="evenodd" d="M8.33945 0.748047C12.6691 0.748047 16.1789 3.9069 16.1789 7.80355C16.1789 11.7002 12.6691 14.859 8.33945 14.859C7.54706 14.859 6.78214 14.7532 6.06117 14.5565C5.31489 15.2071 4.50346 15.787 3.63994 16.2868C3.50588 16.3644 3.35282 16.447 3.18075 16.5345L2.90844 16.6696C2.51867 16.8582 2.04978 16.6951 1.86116 16.3054C1.7652 16.107 1.75709 15.8775 1.83883 15.6729C1.96187 15.365 2.05977 15.0953 2.13253 14.8639C2.35719 14.1494 2.53207 13.4129 2.65312 12.6584C1.31727 11.3924 0.5 9.68385 0.5 7.80355C0.5 3.9069 4.00984 0.748047 8.33945 0.748047Z"/>
</svg>
