<svg width="24" height="25" viewBox="0 0 24 25" fill="none" xmlns="http://www.w3.org/2000/svg">
<path fill-rule="evenodd" clip-rule="evenodd" d="M13.497 19.8608C14.601 19.8608 15.497 18.9648 15.497 17.8608H10.497C8.554 17.8608 7.497 16.6718 7.497 14.8758V7.86084C6.393 7.86084 5.497 8.75684 5.497 9.86084V17.8608C5.497 18.9648 6.393 19.8608 7.497 19.8608H13.497ZM16.503 16.8608H10.497C9.393 16.8608 8.497 15.9648 8.497 14.8608V6.86084C8.497 5.75684 9.393 4.86084 10.497 4.86084H16.503C17.607 4.86084 18.503 5.75684 18.503 6.86084V14.8608C18.503 15.9648 17.607 16.8608 16.503 16.8608Z" fill="white"/>
</svg>
