<svg width="17" height="17" viewBox="0 0 17 17" xmlns="http://www.w3.org/2000/svg">
<path d="M11.5 15.748H5.5C4.948 15.748 4.5 15.3 4.5 14.748C4.5 14.196 4.948 13.748 5.5 13.748H6.136C6.136 13.073 6.684 12.524 7.36 12.524H7.5V11.648C5.873 11.317 4.533 10.196 3.897 8.70305C1.975 8.41205 0.5 6.75105 0.5 4.74805V4.64805C0.5 3.59905 1.351 2.74805 2.4 2.74805H3.5C3.5 1.64405 4.396 0.748047 5.5 0.748047H11.5C12.604 0.748047 13.5 1.64405 13.5 2.74805H14.6C15.649 2.74805 16.5 3.59905 16.5 4.64805V4.74805C16.5 6.75105 15.025 8.41205 13.103 8.70305C12.467 10.196 11.127 11.317 9.5 11.648V12.524H9.64C10.316 12.524 10.864 13.073 10.864 13.748H11.5C12.052 13.748 12.5 14.196 12.5 14.748C12.5 15.3 12.052 15.748 11.5 15.748ZM3.883 4.74805H2.864C2.663 4.74805 2.5 4.91105 2.5 5.11205C2.5 5.91705 3.153 6.57005 3.957 6.57005C4.098 6.57005 4.211 6.45605 4.211 6.31605V5.07705C4.211 4.89505 4.064 4.74805 3.883 4.74805ZM12.786 5.07705C12.786 4.89505 12.933 4.74805 13.114 4.74805H14.133C14.334 4.74805 14.497 4.91105 14.497 5.11205C14.497 5.91705 13.844 6.57005 13.04 6.57005C12.9 6.57005 12.786 6.45605 12.786 6.31605V5.07705Z"/>
</svg>
