<svg width="16" height="17" viewBox="0 0 16 17" xmlns="http://www.w3.org/2000/svg">
<path fill-rule="evenodd" clip-rule="evenodd" d="M6.99709 1.879V1.5C6.99709 0.948 7.44509 0.5 7.99709 0.5C8.54909 0.5 8.99709 0.948 8.99709 1.5V1.919C9.31009 1.965 9.62009 2.031 9.92309 2.122C10.4331 2.274 10.9221 2.496 11.3671 2.789C11.8961 3.137 12.3571 3.584 12.7181 4.104C12.9201 4.396 13.0951 4.711 13.2261 5.041C13.2701 5.152 13.3171 5.266 13.3421 5.384C13.3691 5.515 13.3701 5.651 13.3441 5.782C13.3181 5.914 13.2661 6.039 13.1911 6.15C12.9611 6.489 12.5351 6.656 12.1371 6.563C12.0281 6.538 11.9241 6.494 11.8301 6.435C11.7171 6.364 11.6181 6.27 11.5421 6.16C11.5031 6.104 11.4731 6.046 11.4451 5.985C11.4101 5.896 11.3791 5.807 11.3421 5.719C11.2461 5.505 11.1251 5.303 10.9811 5.118C10.8621 4.964 10.7281 4.823 10.5801 4.696C10.4641 4.595 10.3391 4.503 10.2091 4.422C9.83509 4.187 9.42409 4.038 8.99709 3.95V7.384C9.05909 7.393 9.11009 7.401 9.23009 7.419C10.2701 7.588 11.3491 7.84 12.1811 8.528C12.3021 8.628 12.4161 8.737 12.5221 8.853C12.8451 9.208 13.0831 9.633 13.2261 10.091C13.3331 10.436 13.3881 10.797 13.4031 11.158C13.4141 11.421 13.4041 11.685 13.3651 11.946C13.2971 12.39 13.1441 12.818 12.9091 13.201C12.4811 13.9 11.8051 14.404 11.0581 14.723C10.4061 15.002 9.70209 15.149 8.99709 15.216V15.5C8.99709 16.052 8.54909 16.5 7.99709 16.5C7.44509 16.5 6.99709 16.052 6.99709 15.5V15.199C5.99809 15.08 5.01909 14.775 4.19709 14.185C4.03409 14.069 3.88009 13.942 3.73409 13.806C3.56009 13.642 3.39809 13.463 3.25309 13.272C3.05709 13.015 2.89109 12.734 2.75809 12.439C2.58709 12.057 2.47109 11.652 2.40709 11.239C2.39309 11.154 2.38209 11.068 2.37309 10.982C2.36209 10.876 2.35209 10.77 2.36409 10.663C2.37809 10.53 2.41909 10.4 2.48409 10.283C2.53909 10.186 2.60909 10.098 2.69209 10.024C2.98009 9.767 3.40109 9.7 3.75509 9.853C3.85709 9.897 3.95209 9.958 4.03409 10.034C4.14909 10.139 4.23909 10.272 4.29409 10.418C4.31709 10.481 4.33209 10.545 4.34509 10.611C4.35509 10.691 4.36209 10.772 4.37209 10.852C4.41009 11.116 4.47309 11.375 4.58309 11.619C4.64509 11.756 4.72009 11.888 4.80809 12.011C5.25909 12.641 6.00409 12.977 6.74309 13.133C6.82709 13.151 6.91209 13.167 6.99709 13.18V9.148C6.83409 9.126 6.67009 9.102 6.50709 9.077C5.59909 8.926 4.66009 8.701 3.91709 8.128C3.82709 8.059 3.74009 7.984 3.65809 7.905C3.30909 7.57 3.04909 7.152 2.89909 6.693C2.79809 6.386 2.74609 6.064 2.73109 5.741C2.71109 5.297 2.76809 4.854 2.91709 4.433C3.12309 3.854 3.49109 3.344 3.96609 2.955C4.78009 2.287 5.83509 1.995 6.86609 1.891C6.91009 1.886 6.95309 1.882 6.99709 1.879ZM8.99709 9.407V13.204C9.38609 13.157 9.77309 13.076 10.1401 12.937C10.4111 12.835 10.6741 12.699 10.8961 12.51C10.9931 12.428 11.0811 12.334 11.1551 12.23C11.2681 12.07 11.3431 11.886 11.3791 11.693C11.4191 11.48 11.4141 11.257 11.3891 11.041C11.3621 10.811 11.3021 10.581 11.1801 10.382C11.1251 10.29 11.0561 10.207 10.9781 10.133C10.8161 9.979 10.6181 9.867 10.4141 9.778C10.1091 9.644 9.78309 9.559 9.45709 9.491C9.30409 9.459 9.15109 9.432 8.99709 9.407ZM6.99709 3.888C6.73609 3.917 6.47609 3.962 6.22309 4.03C5.95709 4.102 5.69609 4.2 5.46009 4.343C5.22609 4.484 5.01909 4.672 4.88709 4.913C4.79909 5.073 4.74609 5.252 4.73109 5.434C4.72209 5.539 4.72609 5.645 4.73609 5.75C4.75309 5.932 4.79609 6.116 4.89209 6.274C4.93409 6.344 4.98509 6.407 5.04409 6.463C5.20209 6.616 5.40509 6.719 5.60809 6.799C5.94209 6.932 6.29609 7.009 6.64909 7.072C6.76509 7.093 6.88109 7.112 6.99709 7.13V3.888Z"/>
</svg>
