<svg width="24" height="24" viewBox="0 0 24 24" xmlns="http://www.w3.org/2000/svg">
<path fill-rule="evenodd" clip-rule="evenodd" d="M6.74954 12.5682L11.0204 7.96896C11.2487 7.74475 11.5912 7.52055 12.0478 7.52055C12.3792 7.52055 12.637 7.69773 12.8408 7.83775C12.9178 7.89064 12.987 7.93822 13.0496 7.96896L17.3899 12.6277L17.504 12.7398C17.6182 12.964 17.7323 13.1882 17.7323 13.4124C17.7323 13.9729 17.2757 14.4213 16.705 14.4213H14.3079L14.3228 18.85C14.3228 19.4105 13.752 19.971 13.1813 19.971L10.8252 20C10.2544 20 9.68367 19.4395 9.68367 18.879V14.4213L7.32028 14.3618C6.74954 14.3618 6.29294 13.9134 6.29294 13.3529C6.29294 13.1287 6.52124 12.7924 6.74954 12.5682ZM17.7143 6.28571C18.3454 6.28571 18.8571 5.77404 18.8571 5.14286C18.8571 4.51167 18.3454 4 17.7143 4H6.28569C5.65451 4 5.14283 4.51167 5.14283 5.14286C5.14283 5.77404 5.6545 6.28571 6.28569 6.28571L17.7143 6.28571Z"/>
</svg>
