<svg width="24" height="25" viewBox="0 0 24 25" fill="none" xmlns="http://www.w3.org/2000/svg">
<g clip-path="url(#clip0_1120_4045)">
<path d="M13.454 24.2073C19.396 23.4879 24 18.4286 24 12.2939C24 5.66661 18.6273 0.293945 12 0.293945C5.37267 0.293945 0 5.66661 0 12.2939C0 17.9219 3.874 22.6446 9.10133 23.9413L9.33333 22.9606H13L13.454 24.2073Z" fill="#0866FF"/>
<path d="M9.10069 23.9416V15.9616H6.62402V12.2943H9.10069V10.7143C9.10069 6.62962 10.9487 4.73828 14.9567 4.73828C15.7154 4.73828 17.0254 4.88695 17.5634 5.03561V8.35762C17.28 8.32895 16.7854 8.31428 16.176 8.31428C14.208 8.31428 13.4494 9.05828 13.4494 10.9976V12.2943H17.3714L16.6994 15.9609H13.4547V24.2076C11.9994 24.3829 10.5245 24.2928 9.10136 23.9416H9.10069Z" fill="white"/>
</g>
<defs>
<clipPath id="clip0_1120_4045">
<rect width="24" height="24" fill="white" transform="translate(0 0.293945)"/>
</clipPath>
</defs>
</svg>
