<svg width="24" height="25" viewBox="0 0 24 25" xmlns="http://www.w3.org/2000/svg">
<path fill-rule="evenodd" clip-rule="evenodd" d="M14 5.62052C14 5.12346 14.4029 4.72052 14.9 4.72052H19.1C19.5971 4.72052 20 5.12346 20 5.62052V9.82053C20 10.3176 19.5971 10.7205 19.1 10.7205C18.6029 10.7205 18.2 10.3176 18.2 9.82053V7.79331L14.5364 11.4569C14.1849 11.8084 13.6151 11.8084 13.2636 11.4569C12.9121 11.1055 12.9121 10.5356 13.2636 10.1841L16.9272 6.52052H14.9C14.4029 6.52052 14 6.11758 14 5.62052Z"/>
<path fill-rule="evenodd" clip-rule="evenodd" d="M10.7364 13.9841C11.0879 14.3356 11.0879 14.9054 10.7364 15.2569L7.07279 18.9205H9.09818C9.59524 18.9205 9.99818 19.3235 9.99818 19.8205C9.99818 20.3176 9.59524 20.7205 9.09818 20.7205H4.9C4.40294 20.7205 4 20.3176 4 19.8205V15.6205C4 15.1235 4.40294 14.7205 4.9 14.7205C5.39706 14.7205 5.8 15.1235 5.8 15.6205V17.6477L9.46361 13.9841C9.81508 13.6327 10.3849 13.6327 10.7364 13.9841Z"/>
</svg>
