<svg width="24" height="24" viewBox="0 0 24 24" fill="none" xmlns="http://www.w3.org/2000/svg">
<mask id="mask0_61_2740" style="mask-type:luminance" maskUnits="userSpaceOnUse" x="4" y="4" width="16" height="16">
<path d="M4 4H20V20H4V4Z" fill="white"/>
</mask>
<g mask="url(#mask0_61_2740)">
<path fill-rule="evenodd" clip-rule="evenodd" d="M6.91429 4.78057C7.16195 4.53301 7.45595 4.33665 7.7795 4.20272C8.10306 4.06879 8.44982 3.9999 8.8 4C9.44418 3.99969 10.0775 4.16615 10.6382 4.48318C11.199 4.80021 11.6681 5.25702 12 5.80914C12.3319 5.25702 12.801 4.80021 13.3618 4.48318C13.9225 4.16615 14.5558 3.99969 15.2 4C15.9071 4 16.5853 4.28091 17.0853 4.78094C17.5854 5.28096 17.8663 5.95914 17.8663 6.66629V6.97143C17.8663 7.44914 17.7246 7.89486 17.4811 8.26629H18.4C18.8243 8.26629 19.2313 8.43486 19.5314 8.73492C19.8314 9.03497 20 9.44194 20 9.86629V10.9337C20 11.3581 19.8314 11.765 19.5314 12.0651C19.2313 12.3651 18.8243 12.5337 18.4 12.5337H12.5337V8.26629H15.5051C16.2194 8.26629 16.8 7.68686 16.8 6.97143V6.66629C16.8 6.45617 16.7586 6.24811 16.6782 6.05399C16.5978 5.85987 16.4799 5.68349 16.3314 5.53492C16.1828 5.38634 16.0064 5.26849 15.8123 5.18808C15.6182 5.10767 15.4101 5.06629 15.2 5.06629C14.8498 5.06629 14.503 5.13529 14.1794 5.26935C13.8558 5.40342 13.5618 5.59992 13.3142 5.84763C13.0666 6.09534 12.8703 6.3894 12.7363 6.71302C12.6024 7.03664 12.5336 7.38348 12.5337 7.73372V8.26629H11.4663V7.73372C11.4664 7.38348 11.3976 7.03664 11.2637 6.71302C11.1297 6.3894 10.9334 6.09534 10.6858 5.84763C10.4382 5.59992 10.1442 5.40342 9.82061 5.26935C9.49704 5.13529 9.15024 5.06629 8.8 5.06629C8.37565 5.06629 7.96869 5.23486 7.66863 5.53492C7.36857 5.83497 7.2 6.24194 7.2 6.66629V6.97143C7.2 7.68686 7.78057 8.26629 8.49486 8.26629H11.4663V12.5337H5.6C5.17565 12.5337 4.76869 12.3651 4.46863 12.0651C4.16857 11.765 4 11.3581 4 10.9337V9.86629C4 9.44194 4.16857 9.03497 4.46863 8.73492C4.76869 8.43486 5.17565 8.26629 5.6 8.26629H6.52C6.26736 7.88174 6.13305 7.43154 6.13371 6.97143V6.66629C6.13371 5.95886 6.41371 5.28114 6.91429 4.78057ZM5.06629 13.6H11.4663V20H7.73371C7.38348 20.0002 7.03664 19.9313 6.71302 19.7974C6.3894 19.6634 6.09534 19.4671 5.84763 19.2195C5.59992 18.9719 5.40342 18.6779 5.26935 18.3543C5.13529 18.0308 5.06629 17.684 5.06629 17.3337V13.6ZM16.2663 20H12.5337V13.6H18.9337V17.3337C18.9337 17.684 18.8647 18.0308 18.7306 18.3543C18.5966 18.6779 18.4001 18.9719 18.1524 19.2195C17.9047 19.4671 17.6106 19.6634 17.287 19.7974C16.9634 19.9313 16.6165 20.0002 16.2663 20Z" fill="white"/>
</g>
</svg>
