<svg width="24" height="25" viewBox="0 0 24 25" xmlns="http://www.w3.org/2000/svg">
<path fill-rule="evenodd" clip-rule="evenodd" d="M12 4.92188C16.415 4.92188 20 8.50688 20 12.9219C20 17.3369 16.415 20.9219 12 20.9219C7.585 20.9219 4 17.3369 4 12.9219C4 8.50688 7.585 4.92188 12 4.92188ZM13.331 16.9219C13.881 16.9219 14.327 16.4759 14.327 15.9259C14.327 15.3759 13.881 14.9289 13.331 14.9289H12.998V11.6789C12.998 11.2359 12.759 10.9219 12.318 10.9219C12.315 10.9219 10.683 10.9219 10.683 10.9219C10.129 10.9219 9.678 11.3719 9.678 11.9269C9.678 12.4819 10.129 12.9319 10.683 12.9319H10.995V14.9289H10.654C10.104 14.9289 9.657 15.3759 9.657 15.9259C9.657 16.4759 10.104 16.9219 10.654 16.9219H13.331ZM12 7.57987C12.741 7.57987 13.342 8.18088 13.342 8.92188C13.342 9.66288 12.741 10.2639 12 10.2639C11.259 10.2639 10.658 9.66288 10.658 8.92188C10.658 8.18088 11.259 7.57987 12 7.57987Z"/>
</svg>
