<svg width="17" height="17" viewBox="0 0 17 17" fill="none" xmlns="http://www.w3.org/2000/svg">
<g clip-path="url(#clip0_45_7374)">
<path fill-rule="evenodd" clip-rule="evenodd" d="M5.53509 0.40884C6.38842 0.369221 6.66042 0.36084 8.83337 0.36084C11.0063 0.36084 11.2791 0.369983 12.1309 0.40884C12.9835 0.446935 13.5648 0.584078 14.0738 0.780649C14.6071 0.981792 15.0909 1.29646 15.4909 1.70408C15.8978 2.10331 16.2125 2.58674 16.4128 3.12046C16.6109 3.62941 16.7465 4.21074 16.7854 5.06179C16.8242 5.91665 16.8334 6.18865 16.8334 8.36084C16.8334 10.5338 16.8242 10.8066 16.7854 11.6591C16.7473 12.5102 16.6101 13.0915 16.4128 13.6012C16.2121 14.135 15.8975 14.6186 15.4909 15.0184C15.0911 15.425 14.6075 15.7396 14.0738 15.9403C13.5648 16.1384 12.9835 16.274 12.1324 16.3128C11.2791 16.3517 11.0063 16.3608 8.83337 16.3608C6.66042 16.3608 6.38766 16.3517 5.53509 16.3128C4.68404 16.2747 4.10271 16.1376 3.59299 15.9403C3.05926 15.7395 2.57566 15.425 2.17585 15.0184C1.76889 14.6187 1.45402 14.1351 1.25318 13.6012C1.05585 13.0923 0.920993 12.5109 0.881374 11.6599C0.841755 10.805 0.833374 10.5323 0.833374 8.36084C0.833374 6.18789 0.842517 5.91513 0.881374 5.06332C0.919469 4.21074 1.05661 3.62941 1.25318 3.12046C1.45431 2.58656 1.76944 2.10295 2.17661 1.70332C2.57605 1.29645 3.05941 0.981581 3.59299 0.780649C4.10195 0.583316 4.68404 0.448459 5.53509 0.40884ZM12.0661 1.84884C11.2227 1.81074 10.969 1.80236 8.83337 1.80236C6.69776 1.80236 6.44404 1.80998 5.60061 1.84884C4.82042 1.88465 4.3968 2.01494 4.1149 2.12465C3.74156 2.26941 3.4749 2.44236 3.19452 2.72198C2.92922 2.98036 2.72513 3.29484 2.59718 3.64236C2.48747 3.92427 2.35718 4.34789 2.32137 5.12808C2.28328 5.97151 2.2749 6.22522 2.2749 8.36084C2.2749 10.4965 2.28252 10.7502 2.32137 11.5936C2.35718 12.3738 2.48747 12.7974 2.59718 13.0793C2.72518 13.426 2.92937 13.7414 3.19452 13.9997C3.45295 14.2649 3.76741 14.469 4.1149 14.597C4.3968 14.7067 4.82042 14.837 5.60061 14.8728C6.44404 14.9109 6.69699 14.9193 8.83337 14.9193C10.9705 14.9193 11.2227 14.9117 12.0661 14.8728C12.8463 14.837 13.2699 14.7067 13.5519 14.597C13.9252 14.4523 14.1918 14.2793 14.4722 13.9997C14.7375 13.7413 14.9416 13.4268 15.0696 13.0793C15.1793 12.7974 15.3096 12.3738 15.3454 11.5936C15.3835 10.7502 15.3919 10.4965 15.3919 8.36084C15.3919 6.22522 15.3842 5.97151 15.3454 5.12808C15.3096 4.34789 15.1793 3.92427 15.0696 3.64236C14.9416 3.29488 14.7375 2.98041 14.4722 2.72198C14.2138 2.45671 13.8994 2.25261 13.5519 2.12465C13.2699 2.01494 12.8463 1.88465 12.0661 1.84884ZM7.81166 10.8271C8.14033 10.962 8.49263 11.03 8.84791 11.027C9.20318 11.0239 9.55428 10.95 9.88061 10.8095C10.2069 10.669 10.5019 10.4648 10.7483 10.2088C10.9946 9.9528 11.1874 9.65019 11.3153 9.31871C11.4432 8.98723 11.5036 8.63356 11.493 8.27843C11.4824 7.9233 11.401 7.57387 11.2535 7.25061C11.1061 6.92736 10.8956 6.63679 10.6344 6.39595C10.3732 6.15511 10.0666 5.96885 9.73242 5.84808C9.076 5.61082 8.35276 5.64015 7.7177 5.92979C7.08265 6.21942 6.58632 6.7463 6.33511 7.39751C6.08389 8.04872 6.09778 8.77242 6.37379 9.41352C6.6498 10.0546 7.16596 10.5621 7.81166 10.8271ZM5.92595 5.45341C6.30614 5.06432 6.75975 4.75454 7.26051 4.54201C7.76128 4.32948 8.29924 4.21842 8.84322 4.21528C9.38721 4.21213 9.92642 4.31696 10.4296 4.52368C10.9328 4.73041 11.39 5.03492 11.7746 5.41958C12.1593 5.80425 12.4638 6.26142 12.6705 6.76461C12.8773 7.2678 12.9821 7.807 12.9789 8.35099C12.9758 8.89498 12.8647 9.43294 12.6522 9.9337C12.4397 10.4345 12.1299 10.8881 11.7408 11.2683C10.9667 12.0247 9.92554 12.4454 8.84322 12.4391C7.76091 12.4329 6.72471 12.0002 5.95938 11.2348C5.19406 10.4695 4.76133 9.4333 4.75507 8.35099C4.74882 7.26868 5.16953 6.22754 5.92595 5.45341ZM13.8574 4.86141C13.9544 4.77482 14.033 4.66967 14.0887 4.55216C14.1444 4.43466 14.176 4.30718 14.1815 4.17727C14.1871 4.04736 14.1666 3.91765 14.1212 3.79581C14.0758 3.67397 14.0064 3.56246 13.9172 3.46788C13.8279 3.3733 13.7206 3.29757 13.6017 3.24516C13.4827 3.19274 13.3544 3.16472 13.2243 3.16273C13.0943 3.16074 12.9652 3.18483 12.8447 3.23358C12.7241 3.28233 12.6146 3.35475 12.5225 3.44655C12.3431 3.62546 12.2405 3.86732 12.2366 4.12069C12.2328 4.37405 12.3279 4.61894 12.5018 4.80325C12.6757 4.98756 12.9146 5.09676 13.1678 5.10762C13.4209 5.11849 13.6683 5.03015 13.8574 4.86141Z" fill="white"/>
</g>
<defs>
<clipPath id="clip0_45_7374">
<rect width="16" height="16" fill="white" transform="translate(0.833374 0.36084)"/>
</clipPath>
</defs>
</svg>
