<svg width="17" height="17" viewBox="0 0 17 17" xmlns="http://www.w3.org/2000/svg">
<path fill-rule="evenodd" clip-rule="evenodd" d="M9.4995 16.748H7.4965C3.63543 16.748 0.5 13.163 0.5 8.74805C0.5 4.33305 3.63543 0.748047 7.4965 0.748047H9.4995C13.3636 0.748047 16.5 4.33305 16.5 8.74805C16.5 13.163 13.3636 16.748 9.4995 16.748ZM7.4965 2.48905C10.3931 2.48905 12.7439 5.29305 12.7439 8.74805C12.7439 12.203 10.3931 15.007 7.4965 15.007C4.59995 15.007 2.24913 12.203 2.24913 8.74805C2.24913 5.29305 4.59995 2.48905 7.4965 2.48905ZM8.5 12.748H6.499C5.94728 12.748 5.4995 12.3 5.4995 11.748C5.4995 11.196 5.94728 10.748 6.499 10.748V7.99705C6.15717 8.10105 5.76937 8.01805 5.4995 7.74805C5.1097 7.35805 5.1097 6.72405 5.4995 6.33405L6.79185 5.04105C6.9088 4.92405 7.04773 4.84205 7.19565 4.79505L7.19665 4.79405H7.19865C7.2916 4.76505 7.39055 4.74905 7.4925 4.74805H7.4985L7.54848 4.74905L7.56447 4.75005C7.59945 4.75205 7.63243 4.75605 7.66542 4.76205L7.68241 4.76505C7.87431 4.80005 8.05722 4.89205 8.20515 5.04105C8.35407 5.18905 8.44603 5.37205 8.48101 5.56405L8.48401 5.58105C8.49001 5.61405 8.494 5.64705 8.496 5.68205L8.498 5.71805V10.748H8.5C9.05172 10.748 9.4995 11.196 9.4995 11.748C9.4995 12.3 9.05172 12.748 8.5 12.748Z"/>
</svg>
