<svg width="17" height="17" viewBox="0 0 17 17" xmlns="http://www.w3.org/2000/svg">
<path fill-rule="evenodd" clip-rule="evenodd" d="M7.10109 1.44095C7.75709 1.26395 8.43209 1.65595 8.60809 2.31495L9.27109 4.79895C9.44709 5.45795 9.05709 6.13595 8.40109 6.31295C8.35209 6.32595 8.30309 6.33595 8.25409 6.34295L7.08309 6.58295C7.08309 6.58295 6.38109 6.68595 6.39909 7.38895C6.42009 8.27895 7.90209 10.8569 8.65909 11.3209C9.25709 11.6869 9.69609 11.1279 9.69609 11.1279L10.4891 10.2299C10.5201 10.1909 10.5531 10.1539 10.5881 10.1179C11.0691 9.63595 11.8481 9.63595 12.3291 10.1179L14.1401 11.9369C14.6201 12.4189 14.6201 13.2019 14.1401 13.6839C14.1401 13.6839 13.0581 14.8169 11.7151 15.6399C10.1011 16.6299 8.56009 15.7419 8.07209 15.4959C6.92409 14.9149 5.34509 13.0649 4.30109 11.2829L4.25209 11.1979C3.23709 9.39895 2.43209 7.09995 2.50509 5.81295C2.53609 5.26495 2.54109 3.48095 4.20109 2.57195C5.58309 1.81495 7.10109 1.44095 7.10109 1.44095Z"/>
</svg>
