<svg width="24" height="24" viewBox="0 0 24 24" fill="none" xmlns="http://www.w3.org/2000/svg">
<path fill-rule="evenodd" clip-rule="evenodd" d="M6.78199 14.5821C6.90799 14.3361 7.14399 14.1661 7.41699 14.1231C7.68899 14.0811 7.96599 14.1711 8.16099 14.3661C8.61599 14.8211 9.17899 15.3841 9.63399 15.8391C9.82899 16.0341 9.91899 16.3111 9.87699 16.5831C9.83399 16.8561 9.66399 17.0921 9.41799 17.2181C8.24399 17.8211 6.35199 18.7921 5.14299 19.4131C4.98299 19.4951 4.78899 19.4651 4.66199 19.3381C4.53499 19.2111 4.50499 19.0171 4.58699 18.8571C5.20799 17.6481 6.17899 15.7561 6.78199 14.5821ZM13.303 7.02311L13.119 6.83911C12.709 6.43011 12.709 5.76511 13.119 5.35511C13.528 4.94511 14.193 4.94511 14.603 5.35511L18.693 9.44511C19.102 9.85511 19.102 10.5201 18.693 10.9291C18.283 11.3391 17.618 11.3391 17.209 10.9291L16.998 10.7191C16.471 11.7501 15.611 13.2051 14.306 14.8331L14.493 15.0201C15.273 15.8001 15.273 17.0671 14.493 17.8481L14.405 17.9361C14.21 18.1311 13.893 18.1311 13.698 17.9361L6.09199 10.3301C5.89599 10.1351 5.89599 9.81811 6.09199 9.62311L6.17999 9.53511C6.95999 8.75411 8.22699 8.75411 9.00799 9.53511L9.17299 9.70011C10.817 8.40611 12.273 7.55011 13.303 7.02311Z" fill="white"/>
</svg>
