<svg width="24" height="25" viewBox="0 0 24 25" xmlns="http://www.w3.org/2000/svg">
<path fill-rule="evenodd" clip-rule="evenodd" d="M12 4C16.415 4 20 7.585 20 12C20 16.415 16.415 20 12 20C7.585 20 4 16.415 4 12C4 7.585 7.585 4 12 4ZM10.964 15.478C10.964 16.041 11.422 16.499 11.985 16.499C12.548 16.499 13.006 16.041 13.006 15.478C13.006 14.915 12.548 14.457 11.985 14.457C11.422 14.457 10.964 14.915 10.964 15.478ZM12.116 7.521C10.388 7.521 9.392 8.974 9.392 9.681C9.392 9.995 9.563 10.493 10.126 10.493C10.558 10.493 10.846 10.179 10.859 9.904C10.898 9.629 11.186 9 12.064 9C12.692 9 13.268 9.445 13.268 9.995C13.268 11.095 11.121 11.183 11.121 12.807C11.121 13.357 11.501 13.75 11.972 13.75C12.469 13.75 12.849 13.357 12.849 12.859C12.849 11.979 14.918 11.841 14.918 9.956C14.918 8.581 13.648 7.521 12.116 7.521Z"/>
</svg>
