<svg width="24" height="24" viewBox="0 0 24 24" fill="none" xmlns="http://www.w3.org/2000/svg">
<path fill-rule="evenodd" clip-rule="evenodd" d="M15.245 17.15C14.128 17.904 12.783 18.344 11.335 18.344C7.47202 18.344 4.33502 15.207 4.33502 11.344C4.33502 7.48099 7.47202 4.34399 11.335 4.34399C15.198 4.34399 18.335 7.48099 18.335 11.344C18.335 12.782 17.9 14.12 17.155 15.233L19.269 17.346C19.797 17.874 19.797 18.732 19.269 19.26C18.741 19.788 17.883 19.788 17.355 19.26L15.245 17.15ZM11.335 6.82099C13.832 6.82099 15.858 8.84699 15.858 11.344C15.858 13.841 13.832 15.867 11.335 15.867C8.83802 15.867 6.81202 13.841 6.81202 11.344C6.81202 8.84699 8.83802 6.82099 11.335 6.82099Z" fill="white" fill-opacity="0.3"/>
</svg>
