<svg width="21" height="17" viewBox="0 0 21 17" fill="none" xmlns="http://www.w3.org/2000/svg">
<path fill-rule="evenodd" clip-rule="evenodd" d="M2.1664 7.26151C7.34931 5.01065 10.7996 3.51501 12.5322 2.7894C17.4634 0.731048 18.5 0.375648 19.1663 0.36084C19.3144 0.36084 19.6402 0.390457 19.8623 0.568156C20.04 0.716239 20.0844 0.908748 20.1141 1.05683C20.1437 1.20491 20.1733 1.51589 20.1437 1.75282C19.8771 4.5664 18.7221 11.393 18.1297 14.5324C17.878 15.8651 17.3893 16.3094 16.9155 16.3538C15.8789 16.4427 15.094 15.6726 14.1019 15.0211C12.5322 13.9993 11.6585 13.3625 10.1333 12.3556C8.37108 11.2005 9.51132 10.5638 10.5183 9.52718C10.7848 9.26063 15.331 5.11431 15.4198 4.7441C15.4346 4.69967 15.4346 4.52197 15.331 4.43312C15.2273 4.34427 15.0792 4.37389 14.9608 4.40351C14.7979 4.43312 12.3101 6.09165 7.46777 9.36429C6.75697 9.85296 6.12022 10.0899 5.54269 10.0751C4.90594 10.0603 3.69166 9.71969 2.77354 9.42352C1.66292 9.06812 0.77442 8.87561 0.848461 8.25366C0.892886 7.92788 1.33714 7.6021 2.1664 7.26151Z" fill="white"/>
</svg>
