<svg width="24" height="25" viewBox="0 0 24 25" xmlns="http://www.w3.org/2000/svg">
<path d="M20 12.9219C19.9847 12.3719 19.8169 11.8363 19.5147 11.3757C19.2133 10.9159 18.7893 10.5481 18.2903 10.3148C18.4802 9.79799 18.5202 9.23861 18.4095 8.69965C18.298 8.15985 18.0375 7.66262 17.6586 7.2633C17.2584 6.88441 16.762 6.62473 16.2222 6.51234C15.6833 6.40165 15.1239 6.44167 14.6071 6.63154C14.3746 6.13175 14.0077 5.70689 13.547 5.40549C13.0864 5.10408 12.5509 4.9355 12 4.92188C11.45 4.93635 10.9161 5.10323 10.4564 5.40549C9.99659 5.70774 9.63133 6.1326 9.4006 6.63154C8.88293 6.44167 8.32184 6.39995 7.78118 6.51234C7.24053 6.62302 6.74244 6.88356 6.34227 7.2633C5.96339 7.66347 5.70456 8.16155 5.59472 8.7005C5.48404 9.23946 5.52661 9.79884 5.71733 10.3148C5.21754 10.5481 4.79183 10.9151 4.48872 11.3748C4.18561 11.8346 4.01618 12.371 4 12.9219C4.01703 13.4727 4.18561 14.0083 4.48872 14.4689C4.79183 14.9287 5.21754 15.2965 5.71733 15.5289C5.52661 16.0449 5.48404 16.6043 5.59472 17.1432C5.70541 17.6831 5.96339 18.1803 6.34142 18.5805C6.74159 18.9576 7.23882 19.2165 7.77778 19.328C8.31673 19.4404 8.87612 19.3995 9.39293 19.2122C9.62622 19.7111 9.99319 20.1352 10.4538 20.4374C10.9136 20.7388 11.45 20.9065 12 20.9219C12.5509 20.9083 13.0864 20.7405 13.547 20.4391C14.0077 20.1377 14.3746 19.712 14.6071 19.2131C15.1213 19.4166 15.685 19.4651 16.2273 19.3527C16.7688 19.2403 17.2661 18.9721 17.6577 18.5805C18.0494 18.1888 18.3184 17.6916 18.4308 17.1492C18.5432 16.6068 18.4947 16.0432 18.2903 15.5289C18.7893 15.2957 19.2133 14.9287 19.5155 14.4681C19.8169 14.0083 19.9847 13.4719 20 12.9219ZM10.8608 16.1999L7.94125 13.2812L9.04215 12.1726L10.8063 13.9368L14.5526 9.85504L15.6994 10.9159L10.8608 16.1999Z"/>
</svg>
