<svg width="24" height="18" viewBox="0 0 24 18" fill="none" xmlns="http://www.w3.org/2000/svg">
<path d="M23.4962 3.5172C23.2196 2.48394 22.4076 1.67195 21.3744 1.39537C19.5034 0.893555 11.998 0.893555 11.998 0.893555C11.998 0.893555 4.49259 0.893555 2.62166 1.39537C1.59039 1.67195 0.776424 2.48394 0.499835 3.5172C-2.50351e-07 5.38812 0 9.29395 0 9.29395C0 9.29395 -1.30183e-06 13.1998 0.501809 15.0707C0.778398 16.104 1.59039 16.916 2.62364 17.1925C4.49456 17.6943 12 17.6943 12 17.6943C12 17.6943 19.5055 17.6943 21.3763 17.1925C22.4096 16.916 23.2216 16.104 23.4982 15.0707C24 13.1998 24 9.29395 24 9.29395C24 9.29395 23.998 5.38812 23.4962 3.5172Z" fill="#FF0000"/>
<path d="M9.59949 12.8935L15.8326 9.29396L9.59949 5.69434V12.8935Z" fill="white"/>
</svg>
