<svg width="41" height="17" viewBox="0 0 41 17" fill="none" xmlns="http://www.w3.org/2000/svg">
<g clip-path="url(#clip0_45_7662)">
<path fill-rule="evenodd" clip-rule="evenodd" d="M9.02507 2.38751C8.57618 2.91728 7.85885 3.33595 7.14063 3.2764C7.05174 2.55906 7.40285 1.7964 7.81352 1.32528C8.26241 0.778618 9.04729 0.391062 9.68285 0.36084C9.75752 1.1084 9.46596 1.84084 9.02507 2.38751ZM9.67485 3.41862C9.04374 3.38217 8.46596 3.60884 8.00018 3.79195C7.69974 3.90928 7.44641 4.00884 7.25352 4.00884C7.03663 4.00884 6.77174 3.90395 6.47485 3.78662C6.08552 3.63106 5.64107 3.45506 5.17441 3.46306C4.10596 3.47817 3.11218 4.08351 2.56552 5.04795C1.44463 6.97684 2.27396 9.83284 3.35841 11.4026C3.88907 12.1804 4.52463 13.032 5.36196 13.0026C5.72996 12.9884 5.99485 12.8764 6.26863 12.76C6.58507 12.6266 6.91307 12.4871 7.42418 12.4871C7.91929 12.4871 8.23307 12.6222 8.53441 12.752C8.82063 12.8764 9.09441 12.9946 9.50329 12.9875C10.3709 12.9724 10.9166 12.2097 11.4473 11.432C12.0197 10.5982 12.2713 9.78395 12.3095 9.6604L12.314 9.64617C12.3073 9.64255 12.3005 9.63929 12.2935 9.6364C12.1024 9.54751 10.6384 8.87817 10.6251 7.08173C10.6109 5.57328 11.786 4.80973 11.9709 4.68884L11.9931 4.67462C11.2455 3.56795 10.0793 3.44795 9.67485 3.41862ZM15.6784 12.9057V1.24973H20.0517C22.3095 1.24973 23.8864 2.80528 23.8864 5.07728C23.8864 7.35017 22.2793 8.91995 19.9922 8.91995H17.4873V12.9048L15.6784 12.9057ZM17.4873 2.77595H19.5735C21.1433 2.77595 22.0402 3.61328 22.0402 5.08528C22.0402 6.55817 21.1433 7.40351 19.5655 7.40351H17.4873V2.77595ZM29.8606 11.5075C29.3815 12.4195 28.3273 12.9955 27.1913 12.9955C25.5095 12.9955 24.3353 11.9928 24.3353 10.4835C24.3353 8.98839 25.4713 8.12795 27.5726 8.00084L29.8304 7.86662V7.22395C29.8304 6.27462 29.21 5.75817 28.1033 5.75817C27.1913 5.75817 26.5255 6.22928 26.3913 6.94751H24.7611C24.8144 5.4364 26.234 4.33773 28.1557 4.33773C30.2269 4.33773 31.5717 5.42217 31.5717 7.10395V12.9057H29.8971V11.5075H29.8606ZM27.6775 11.6124C26.7131 11.6124 26.0997 11.1484 26.0997 10.4391C26.0997 9.70573 26.69 9.27995 27.8189 9.2124L29.8304 9.08528V9.74306C29.8304 10.8346 28.9033 11.6124 27.6775 11.6124ZM37.1264 13.3617C36.4011 15.4026 35.5717 16.0755 33.8073 16.0755C33.6731 16.0755 33.2242 16.0604 33.1193 16.0311V14.632C33.2322 14.6471 33.5086 14.6622 33.65 14.6622C34.45 14.6622 34.8988 14.3262 35.1753 13.4515L35.3397 12.936L32.2749 4.44973H34.1664L36.2971 11.3351H36.3344L38.4651 4.44973H40.3042L37.1264 13.3617Z" fill="white" fill-opacity="0.3"/>
</g>
<defs>
<clipPath id="clip0_45_7662">
<rect width="40" height="16" fill="white" transform="translate(0.718399 0.36084)"/>
</clipPath>
</defs>
</svg>
