<svg width="84" height="17" viewBox="0 0 84 17" fill="none" xmlns="http://www.w3.org/2000/svg">
<g clip-path="url(#clip0_45_7712)">
<mask id="mask0_45_7712" style="mask-type:luminance" maskUnits="userSpaceOnUse" x="0" y="0" width="84" height="17">
<path d="M0.654968 0.36084H83.4363V16.3608H0.654968V0.36084Z" fill="white"/>
</mask>
<g mask="url(#mask0_45_7712)">
<path d="M4.85584 0.859526H1.17584V13.7137H4.84162C6.50784 13.8121 8.15022 13.2811 9.4434 12.2257C10.1645 11.6223 10.7442 10.8678 11.1415 10.0157C11.5389 9.1635 11.7442 8.23445 11.743 7.29419C11.7598 3.53597 8.92073 0.859526 4.85584 0.859526ZM7.78562 10.5155C6.99629 11.2062 5.97584 11.536 4.35718 11.536H3.67451V3.03819H4.35006C5.96784 3.03819 6.95006 3.32886 7.77851 4.08086C8.21972 4.48796 8.57105 4.98272 8.80999 5.53346C9.04893 6.08419 9.17021 6.67876 9.16606 7.27908C9.17037 7.8844 9.05003 8.48412 8.81254 9.04092C8.57505 9.59771 8.22549 10.0997 7.78562 10.5155ZM15.4167 0.859526H12.9092V13.7137H15.4176L15.4167 0.859526ZM21.5456 5.79197C20.0114 5.23908 19.5972 4.87108 19.5972 4.1733C19.5972 3.47553 20.3874 2.76886 21.4683 2.76886C21.8613 2.77676 22.2473 2.87422 22.597 3.05383C22.9466 3.23343 23.2507 3.49045 23.4861 3.8053L24.7972 2.08708C23.7618 1.15651 22.4168 0.64503 21.0247 0.652415C20.5196 0.620231 20.0132 0.689988 19.5356 0.857537C19.0581 1.02509 18.6191 1.287 18.2448 1.62769C17.8705 1.96839 17.5686 2.3809 17.357 2.84067C17.1454 3.30044 17.0285 3.79808 17.0132 4.30397C17.0132 6.07553 17.8265 6.97953 20.1812 7.82397C20.7812 8.01953 21.359 8.2773 21.9065 8.59108C22.1395 8.72561 22.333 8.91903 22.4677 9.15197C22.6023 9.3849 22.6733 9.64915 22.6736 9.91819C22.6719 10.1666 22.6196 10.412 22.5198 10.6394C22.42 10.8669 22.2748 11.0716 22.0932 11.241C21.9115 11.4104 21.6972 11.541 21.4634 11.6247C21.2295 11.7084 20.9811 11.7436 20.7332 11.728C20.1605 11.7374 19.5973 11.5809 19.1115 11.2775C18.6258 10.974 18.2381 10.5365 17.9954 10.0177L16.3776 11.5511C16.8318 12.32 17.4843 12.9528 18.2668 13.3833C19.0492 13.8138 19.933 14.0261 20.8256 13.9982C23.4327 13.9982 25.2585 12.2649 25.2585 9.77953C25.2434 7.76264 24.3838 6.83464 21.5465 5.79108L21.5456 5.79197ZM26.0318 7.29419C26.0244 8.18412 26.1955 9.0665 26.535 9.88916C26.8745 10.7118 27.3755 11.4581 28.0084 12.0837C28.6413 12.7094 29.3932 13.2018 30.2197 13.5319C31.0462 13.8619 31.9305 14.0229 32.8203 14.0053C33.914 14.0011 34.9913 13.7386 35.9643 13.2391V10.3013C35.5862 10.7453 35.1159 11.1015 34.5861 11.3451C34.0564 11.5887 33.4798 11.7139 32.8967 11.712C32.3156 11.7289 31.7372 11.6249 31.1984 11.4065C30.6595 11.1881 30.172 10.8601 29.7666 10.4433C29.3613 10.0265 29.047 9.52999 28.8437 8.98528C28.6404 8.44057 28.5525 7.85955 28.5856 7.27908C28.5661 6.70906 28.661 6.1409 28.8646 5.60813C29.0682 5.07535 29.3764 4.58874 29.7711 4.17699C30.1658 3.76525 30.6389 3.4367 31.1626 3.21073C31.6863 2.98477 32.2499 2.86596 32.8203 2.8613C33.4154 2.86581 34.0028 2.99667 34.5436 3.24522C35.0844 3.49377 35.5662 3.85435 35.9572 4.30308V1.35819C35.0141 0.851216 33.9594 0.58755 32.8887 0.591082C31.9975 0.577804 31.1125 0.740995 30.2846 1.07125C29.4567 1.40151 28.7024 1.89231 28.065 2.51538C27.4277 3.13845 26.9199 3.88147 26.5709 4.70163C26.222 5.5218 26.0388 6.40291 26.0318 7.29419ZM55.8292 9.48797L52.4007 0.859526H49.6701L55.1234 14.0435H56.4656L62.0185 0.859526H59.3038L55.8292 9.48797ZM63.1536 13.7137H70.2638V11.536H65.6621V8.0693H70.095V5.89153H65.6621V3.03819H70.2638V0.858637H63.1536V13.7129V13.7137ZM80.1883 4.65597C80.1883 2.24708 78.5314 0.859526 75.6398 0.859526H71.9358V13.7137H74.4434V8.55197H74.7661L78.2398 13.7137H81.3083L77.2585 8.29953C78.1181 8.17744 78.8991 7.73305 79.4431 7.05646C79.9871 6.37987 80.2535 5.52171 80.1883 4.65597ZM75.1572 6.78042H74.3901V2.8853H75.1572C76.6905 2.8853 77.5732 3.54486 77.5732 4.79464C77.5732 6.0453 76.7598 6.78042 75.1572 6.78042ZM82.1821 1.53419C82.1821 1.31197 82.0292 1.1893 81.7527 1.1893H81.3918V2.3173H81.6603V1.87997L81.983 2.3173H82.3118L81.9065 1.84886C81.9844 1.84271 82.0568 1.80637 82.1083 1.74758C82.1598 1.6888 82.1862 1.61222 82.1821 1.53419ZM81.7065 1.68797H81.6603V1.39642H81.7136C81.8452 1.39642 81.9136 1.44264 81.9136 1.54219C81.9136 1.64175 81.8452 1.68797 81.7065 1.68797Z" fill="white" fill-opacity="0.3"/>
<path d="M81.8141 0.759881C81.6841 0.757897 81.5551 0.781521 81.4343 0.829407C81.3135 0.877292 81.2034 0.9485 81.1101 1.03896C80.9217 1.22167 80.8136 1.47172 80.8096 1.7341C80.8056 1.99649 80.906 2.24972 81.0887 2.43809C81.2714 2.62646 81.5215 2.73454 81.7838 2.73855C82.0462 2.74256 82.2995 2.64217 82.4878 2.45946C82.6762 2.27676 82.7843 2.02671 82.7883 1.76433C82.7923 1.50194 82.6919 1.24871 82.5092 1.06034C82.3265 0.871965 82.0765 0.763889 81.8141 0.759881ZM81.8141 2.56255C81.7093 2.56274 81.6056 2.54147 81.5094 2.50006C81.4132 2.45866 81.3265 2.39798 81.2546 2.32178C81.1827 2.24558 81.1272 2.15546 81.0915 2.05699C81.0558 1.95852 81.0406 1.85377 81.047 1.74921C81.047 1.54576 81.1278 1.35065 81.2716 1.20678C81.4155 1.06292 81.6106 0.982103 81.8141 0.982103C82.0175 0.982103 82.2126 1.06292 82.3565 1.20678C82.5004 1.35065 82.5812 1.54576 82.5812 1.74921C82.5875 1.85445 82.5721 1.95987 82.5359 2.05889C82.4997 2.1579 82.4435 2.2484 82.3708 2.32472C82.2981 2.40104 82.2104 2.46155 82.1132 2.50247C82.016 2.54339 81.9115 2.56384 81.8061 2.56255H81.8141Z" fill="white" fill-opacity="0.3"/>
<path d="M50.3838 7.27194C50.3951 8.17277 50.2275 9.06689 49.8908 9.9025C49.554 10.7381 49.0549 11.4986 48.4222 12.14C47.7895 12.7813 47.0358 13.2908 46.2049 13.6388C45.3739 13.9869 44.4822 14.1666 43.5813 14.1676C42.6803 14.1686 41.7882 13.9908 40.9565 13.6446C40.1247 13.2984 39.37 12.7907 38.7358 12.1507C38.1017 11.5108 37.6009 10.7514 37.2623 9.91651C36.9237 9.08165 36.7541 8.18791 36.7634 7.28705C36.7818 5.49426 37.5064 3.78103 38.7799 2.51908C40.0535 1.25713 41.7733 0.548258 43.5661 0.546269C45.359 0.54428 47.0804 1.24933 48.3567 2.50845C49.6331 3.76757 50.3615 5.47919 50.3838 7.27194Z" fill="white" fill-opacity="0.3"/>
</g>
</g>
<defs>
<clipPath id="clip0_45_7712">
<rect width="83.5556" height="16" fill="white" transform="translate(0.429199 0.36084)"/>
</clipPath>
</defs>
</svg>
