<svg width="25" height="19" viewBox="0 0 25 19" fill="none" xmlns="http://www.w3.org/2000/svg">
<g clip-path="url(#clip0_45_7703)">
<mask id="mask0_45_7703" style="mask-type:luminance" maskUnits="userSpaceOnUse" x="0" y="0" width="24" height="19">
<path d="M0.329559 0.36084H23.6546V18.3608H0.329559V0.36084Z" fill="white"/>
</mask>
<g mask="url(#mask0_45_7703)">
<path d="M23.5766 14.6858C23.5752 15.6394 23.1958 16.5536 22.5216 17.2278C21.8473 17.9021 20.9331 18.2815 19.9796 18.2828H0.407562V4.03584C0.408885 3.08227 0.788278 2.16812 1.46256 1.49384C2.13684 0.819559 3.05098 0.440166 4.00456 0.438843H23.5766V14.6858Z" fill="#232325"/>
<path d="M17.2036 11.0309H18.6906C18.7336 11.0309 18.8326 11.0169 18.8746 11.0169C19.0258 10.9845 19.161 10.9004 19.2569 10.779C19.3527 10.6576 19.4032 10.5065 19.3996 10.3519C19.3996 10.0119 19.1586 9.75687 18.8756 9.68587C18.8326 9.67187 18.7476 9.67188 18.6906 9.67188H17.2036V11.0309Z" fill="white" fill-opacity="0.3"/>
<path d="M18.5216 1.64187C17.8378 1.64187 17.1821 1.91348 16.6986 2.39695C16.2152 2.88042 15.9436 3.53614 15.9436 4.21987V6.89587H19.5836C19.6686 6.89587 19.7676 6.89587 19.8386 6.91087C20.6596 6.95287 21.2686 7.37787 21.2686 8.11387C21.2686 8.69487 20.8586 9.19087 20.0936 9.28987V9.31787C20.9286 9.37487 21.5656 9.84187 21.5656 10.5639C21.5656 11.3439 20.8576 11.8539 19.9236 11.8539H15.9296V17.0939H19.7106C20.3943 17.0939 21.05 16.8223 21.5335 16.3388C22.017 15.8553 22.2886 15.1996 22.2886 14.5159V1.64087H18.5216V1.64187Z" fill="white" fill-opacity="0.3"/>
<path d="M19.2146 8.28387C19.2146 7.94387 18.9746 7.71787 18.6906 7.67487C18.6626 7.67487 18.5916 7.66087 18.5496 7.66087H17.2036V8.90787H18.5496C18.5916 8.90787 18.6766 8.90787 18.6906 8.89287C18.8375 8.87348 18.9721 8.80067 19.0687 8.68834C19.1654 8.57602 19.2173 8.43203 19.2146 8.28387ZM4.27356 1.64187C3.93501 1.642 3.5998 1.70881 3.28707 1.83849C2.97435 1.96817 2.69022 2.15817 2.45093 2.39766C2.21163 2.63714 2.02185 2.92141 1.89241 3.23424C1.76298 3.54706 1.69642 3.88232 1.69656 4.22087V10.5799C2.41856 10.9339 3.16956 11.1599 3.91956 11.1599C4.81156 11.1599 5.29356 10.6219 5.29356 9.88587V6.88087H7.50356V9.87087C7.50356 11.0309 6.78056 11.9809 4.33056 11.9809C2.84356 11.9809 1.68256 11.6549 1.68256 11.6549V17.0789H5.46356C6.14711 17.0789 6.80268 16.8074 7.28612 16.3241C7.76956 15.8409 8.04129 15.1854 8.04156 14.5019V1.64087H4.27356V1.64187ZM11.3976 1.64187C11.0589 1.64187 10.7236 1.70858 10.4108 1.8382C10.0979 1.96782 9.81368 2.15781 9.57428 2.3973C9.33488 2.6368 9.14501 2.92111 9.01551 3.234C8.88601 3.5469 8.81943 3.88224 8.81956 4.22087V7.59087C9.47156 7.03887 10.6046 6.68487 12.4316 6.76987C13.4086 6.81187 14.4566 7.08187 14.4566 7.08187V8.17187C13.852 7.84867 13.1863 7.65585 12.5026 7.60587C11.1146 7.50587 10.2786 8.18587 10.2786 9.37587C10.2786 10.5799 11.1146 11.2599 12.5026 11.1459C13.3096 11.0889 13.9326 10.8349 14.4566 10.5799V11.6699C14.4566 11.6699 13.4226 11.9399 12.4316 11.9819C10.6046 12.0669 9.47156 11.7119 8.81956 11.1599V17.1089H12.6016C13.2851 17.1086 13.9406 16.8369 14.4238 16.3534C14.9071 15.87 15.1786 15.2144 15.1786 14.5309V1.64087H11.3976V1.64187Z" fill="white" fill-opacity="0.3"/>
</g>
</g>
<defs>
<clipPath id="clip0_45_7703">
<rect width="24" height="18" fill="white" transform="translate(0.0415649 0.36084)"/>
</clipPath>
</defs>
</svg>
