<svg width="28" height="17" viewBox="0 0 28 17" fill="none" xmlns="http://www.w3.org/2000/svg">
<g clip-path="url(#clip0_45_7643)">
<path d="M9.83209 2.0719H16.8321V14.6497H9.83209V2.0719Z" fill="#525257"/>
<path d="M10.2765 8.36084C10.2768 7.15085 10.5508 5.95659 11.078 4.8675C11.6053 3.77841 12.372 2.8227 13.321 2.07195C11.916 0.962479 10.1778 0.359582 8.38763 0.360842C3.96541 0.360842 0.387634 3.93862 0.387634 8.36084C0.387634 12.7831 3.96541 16.3608 8.38763 16.3608C10.2543 16.3608 11.9654 15.7164 13.321 14.6497C12.3702 13.9007 11.602 12.9453 11.0746 11.8558C10.5472 10.7664 10.2743 9.57126 10.2765 8.36084Z" fill="#1A1A1F"/>
<path d="M26.2765 8.36084C26.2765 12.7831 22.6988 16.3608 18.2765 16.3608C16.4099 16.3608 14.6988 15.7164 13.3432 14.6497C14.2958 13.9023 15.0653 12.9473 15.5929 11.8574C16.1205 10.7676 16.3923 9.57167 16.3876 8.36084C16.3874 7.15085 16.1134 5.95659 15.5861 4.8675C15.0589 3.77841 14.2921 2.8227 13.3432 2.07195C14.7481 0.962479 16.4864 0.359582 18.2765 0.360842C22.6988 0.360842 26.2765 3.96084 26.2765 8.36084Z" fill="#39393B"/>
</g>
<defs>
<clipPath id="clip0_45_7643">
<rect width="26.6667" height="16" fill="white" transform="translate(0.387634 0.36084)"/>
</clipPath>
</defs>
</svg>
