<svg width="76" height="17" viewBox="0 0 76 17" fill="none" xmlns="http://www.w3.org/2000/svg">
<g clip-path="url(#clip0_45_7691)">
<g opacity="0.3">
<mask id="mask0_45_7691" style="mask-type:luminance" maskUnits="userSpaceOnUse" x="1" y="0" width="75" height="17">
<path d="M1.05841 0.36084H75.1046V16.3608H1.05841V0.36084Z" fill="white"/>
</mask>
<g mask="url(#mask0_45_7691)">
<path d="M6.30554 13.2728C6.13388 13.2698 5.96568 13.224 5.81619 13.1396C5.66671 13.0551 5.54068 12.9347 5.44954 12.7892L1.28243 5.60698C1.15447 5.37399 1.12179 5.10047 1.19124 4.84389C1.26069 4.58731 1.42687 4.36763 1.65487 4.23098C1.88776 4.10295 2.16119 4.07013 2.41776 4.13941C2.67433 4.20869 2.89408 4.37468 3.03087 4.60253L7.19887 11.7465C7.32736 11.9797 7.36035 12.2536 7.29088 12.5106C7.2214 12.7676 7.05489 12.9876 6.82642 13.1243C6.63976 13.2354 6.49131 13.2728 6.30554 13.2728Z" fill="white"/>
<path d="M16.7989 9.36525C16.7989 8.84436 16.6122 8.36081 16.3153 7.83992C15.8682 7.02214 15.3473 6.50036 14.6407 6.16525C14.0451 5.86836 13.3758 5.71903 12.7055 5.7937C12.9287 5.31014 13.078 4.8257 13.1144 4.30481C13.1891 3.56081 12.9287 2.89148 12.4824 2.07281C12.2134 1.6022 11.8452 1.19576 11.4033 0.881698C10.9571 0.621253 10.51 0.435475 9.98999 0.398142C9.45404 0.362498 8.91574 0.400179 8.38999 0.510142C8.20332 0.547475 8.01665 0.621253 7.83088 0.658587L7.60865 0.770587C7.27354 0.881698 6.41754 1.36614 6.11977 1.55192L4.66821 2.40792H4.63177C4.37844 2.56823 4.19536 2.81867 4.11947 3.1087C4.04358 3.39873 4.08053 3.70674 4.22288 3.97059C4.37172 4.22623 4.61559 4.41266 4.90131 4.48925C5.18704 4.56585 5.49146 4.52639 5.74821 4.37948H5.78554L8.12954 3.03992C8.34052 2.93241 8.56645 2.8572 8.79977 2.81681C9.02199 2.77948 9.24599 2.81681 9.4691 2.85414C9.69221 2.92881 9.87799 3.04081 10.102 3.18925C10.2887 3.3377 10.4371 3.52348 10.5855 3.74748C10.6975 3.9697 10.8087 4.1937 10.846 4.45414C10.8833 4.71459 10.8833 4.9377 10.846 5.16081C10.8087 5.38392 10.734 5.5697 10.5855 5.75636C10.4735 5.94303 10.2878 6.09148 10.102 6.20259L8.68865 7.05859L8.0931 7.3937L7.71977 7.61681C7.19977 7.91459 7.05043 8.54747 7.34821 9.06836C7.53488 9.40259 7.90643 9.58925 8.27888 9.58925C8.46465 9.58925 8.65043 9.55192 8.79977 9.43992L9.5811 8.9937L11.59 7.91459C11.814 7.80259 11.9989 7.72792 12.2229 7.72792C12.446 7.72792 12.6691 7.76525 12.8558 7.83992C13.078 7.91459 13.2647 8.02659 13.4513 8.17503C13.6371 8.32348 13.7855 8.51014 13.934 8.73325C14.046 8.95636 14.1207 9.17947 14.158 9.40259C14.1953 9.62659 14.1953 9.88614 14.1207 10.1101C14.0833 10.3324 13.9713 10.519 13.8229 10.7421C13.6735 10.9288 13.4878 11.0773 13.2647 11.2257L9.80421 13.199H9.61754L8.98643 13.5706L7.75799 14.2399C7.2371 14.5377 7.0131 15.207 7.31088 15.7288C7.49754 16.1004 7.8691 16.3244 8.27888 16.3244C8.46465 16.3244 8.65043 16.2861 8.79977 16.175L11.7767 14.575L14.1944 13.2728C14.7113 12.9769 15.1868 12.6141 15.6087 12.1937C15.9884 11.8219 16.2919 11.3796 16.502 10.8915C16.7251 10.3706 16.8362 9.88703 16.7989 9.36525ZM47.6078 11.3004C47.3855 11.3004 47.1242 11.3004 46.9384 11.1137C46.7518 10.9288 46.7518 10.6684 46.7518 10.4444V4.86303C46.7518 4.64081 46.7518 4.37948 46.9384 4.1937C47.1251 4.00703 47.3847 4.00703 47.6078 4.00703H49.6913C51.1429 4.00703 51.9615 4.8257 51.9615 6.05414C51.9615 6.87192 51.4407 7.3937 51.0309 7.57948C51.478 7.80259 52.0353 8.2497 52.0353 9.21681C52.0353 10.5937 51.1055 11.3377 49.8033 11.3377H47.6078V11.3004ZM48.2033 5.27281V6.94748H49.6167C50.2122 6.94748 50.5473 6.61236 50.5473 6.09148C50.5473 5.57059 50.2122 5.23548 49.6175 5.23548H48.2033V5.27281ZM49.6913 10.0355C50.3242 10.0355 50.6593 9.62659 50.6593 9.14214C50.6593 8.65859 50.3615 8.2497 49.6913 8.2497H48.2033V10.0355H49.6913ZM54.3055 9.03103C54.3055 9.7377 54.7144 10.2221 55.4967 10.2221C55.8318 10.2221 56.166 10.1475 56.4264 9.92436C56.6495 9.77503 56.7615 9.7377 56.91 9.7377C57.1704 9.7377 57.4318 9.99814 57.4318 10.2959C57.4318 10.5564 57.2078 10.7795 56.91 10.9661C56.5384 11.2266 56.0549 11.3377 55.4593 11.3377C54.1944 11.3377 52.966 10.7795 52.966 8.58392C52.966 6.83548 53.8967 5.83103 55.31 5.83103C56.7615 5.83103 57.5802 6.87281 57.6549 8.21236C57.6549 8.43548 57.6175 8.65859 57.4682 8.80792C57.2824 8.9937 57.0967 8.9937 56.8727 8.9937H54.3055V9.03103ZM56.2407 7.54214C56.0922 7.20792 55.7944 6.98392 55.3473 6.98392C54.9011 6.98392 54.6033 7.20792 54.4549 7.54214C54.3802 7.72881 54.3429 7.87725 54.3429 8.1377H56.3891C56.3663 7.93347 56.3163 7.7332 56.2407 7.54214ZM58.9571 7.13325H58.8078C58.5473 7.13325 58.4727 7.13325 58.3615 7.05859C58.2796 7.0174 58.2114 6.95331 58.1651 6.8741C58.1189 6.79489 58.0967 6.70397 58.1011 6.61236C58.1011 6.4257 58.1758 6.23992 58.3615 6.16614C58.4727 6.09148 58.5482 6.09148 58.8078 6.09148H58.9571V5.38303C58.9571 5.04881 58.9571 4.93681 59.0309 4.78748C59.09 4.68259 59.1769 4.59595 59.2819 4.53702C59.3869 4.47808 59.5061 4.44911 59.6264 4.45325C59.8869 4.45325 60.11 4.56525 60.222 4.78836C60.2967 4.93681 60.2967 5.04881 60.2967 5.38392V6.09059H60.7055C60.966 6.09059 61.0407 6.09059 61.1518 6.16525C61.2337 6.20644 61.3019 6.27053 61.3482 6.34974C61.3944 6.42895 61.4166 6.51987 61.4122 6.61148C61.4122 6.79814 61.3384 6.98303 61.1527 7.0577C61.0407 7.13236 60.966 7.13236 60.7055 7.13236H60.2967V9.69948C60.2967 9.95992 60.3704 10.1466 60.7429 10.1839C60.9295 10.1839 61.0407 10.2204 61.1518 10.2577C61.3011 10.3324 61.4122 10.4808 61.4122 10.7413C61.4122 10.9653 61.3011 11.1501 61.1527 11.2257C61.0407 11.2995 60.8549 11.2995 60.5944 11.2995H60.5198C59.4033 11.2995 58.9571 10.5555 58.9571 9.77414V7.13325ZM62.566 7.13325H62.4175C62.1571 7.13325 62.0824 7.13325 61.9704 7.05859C61.8885 7.0174 61.8203 6.95331 61.774 6.8741C61.7278 6.79489 61.7056 6.70397 61.71 6.61236C61.71 6.4257 61.7847 6.23992 61.9704 6.16614C62.0824 6.09148 62.1571 6.09148 62.4175 6.09148H62.566V5.38303C62.566 5.04881 62.566 4.93681 62.6407 4.78748C62.6998 4.68259 62.7866 4.59595 62.8917 4.53702C62.9967 4.47808 63.1159 4.44911 63.2362 4.45325C63.4967 4.45325 63.7198 4.56525 63.8318 4.78836C63.9055 4.93681 63.9055 5.04881 63.9055 5.38392V6.09059H64.3144C64.5758 6.09059 64.6495 6.09059 64.7615 6.16525C64.8435 6.20644 64.9117 6.27053 64.9579 6.34974C65.0042 6.42895 65.0264 6.51987 65.022 6.61148C65.022 6.79814 64.9473 6.98303 64.7615 7.0577C64.6495 7.13236 64.5749 7.13236 64.3153 7.13236H63.9064V9.69948C63.9064 9.95992 63.9802 10.1466 64.3518 10.1839C64.5384 10.1839 64.6495 10.2204 64.7607 10.2577C64.91 10.3324 65.022 10.4808 65.022 10.7413C65.022 10.9653 64.91 11.1501 64.7615 11.2257C64.6495 11.2995 64.4638 11.2995 64.2033 11.2995H64.1287C63.0122 11.2995 62.566 10.5555 62.566 9.77414V7.13325ZM66.8824 9.03103C66.8824 9.7377 67.2913 10.2221 68.0735 10.2221C68.4078 10.2221 68.7429 10.1475 69.0033 9.92436C69.2264 9.77503 69.3384 9.7377 69.4869 9.7377C69.7473 9.7377 70.0078 9.99814 70.0078 10.2959C70.0078 10.5564 69.7855 10.7795 69.4869 10.9661C69.1153 11.2266 68.6309 11.3377 68.0362 11.3377C66.7704 11.3377 65.5429 10.7795 65.5429 8.58392C65.5429 6.83548 66.4727 5.83103 67.8869 5.83103C69.3384 5.83103 70.1571 6.87281 70.2309 8.21236C70.2309 8.43548 70.1944 8.65859 70.0451 8.80792C69.8584 8.9937 69.6735 8.9937 69.4495 8.9937H66.8824V9.03103ZM68.8175 7.54214C68.6682 7.20792 68.3704 6.98392 67.9242 6.98392C67.478 6.98392 67.1802 7.20792 67.0309 7.54214C66.9571 7.72881 66.9198 7.87725 66.9198 8.1377H68.966C68.8913 7.87725 68.8913 7.72881 68.8175 7.54214ZM73.8407 5.86748C74.2495 5.86748 74.51 5.94214 74.7704 6.12792C74.9571 6.27725 75.1055 6.46303 75.1055 6.68614C75.1055 6.87281 75.0309 7.05859 74.9189 7.1697C74.7977 7.28402 74.6391 7.35036 74.4727 7.35636C74.3242 7.35636 74.2122 7.31903 74.0264 7.20703C73.878 7.13325 73.6922 7.05859 73.5055 7.05859C73.0593 7.05859 72.6131 7.35636 72.6131 8.0257V10.4079C72.6131 10.7421 72.6131 10.8541 72.5384 11.0035C72.4793 11.1084 72.3924 11.195 72.2874 11.2539C72.1824 11.3129 72.0632 11.3418 71.9429 11.3377C71.6451 11.3377 71.4593 11.2257 71.3473 11.0026C71.2727 10.8541 71.2727 10.7421 71.2727 10.407V6.79814C71.2727 6.46303 71.2727 6.35103 71.3847 6.20259C71.445 6.10991 71.5279 6.03402 71.6255 5.98195C71.7231 5.92989 71.8323 5.90335 71.9429 5.90481C72.0931 5.90121 72.2392 5.95455 72.3518 6.05414C72.4638 6.16525 72.5384 6.27636 72.5384 6.46303C72.8362 6.16525 73.3198 5.86748 73.8407 5.86748Z" fill="white"/>
<path d="M24.6122 9.3653L23.4229 7.0213V10.296C23.4229 10.6311 23.4229 10.7422 23.3109 10.9289C23.2436 11.0346 23.1499 11.121 23.0391 11.1796C22.9283 11.2382 22.8042 11.267 22.6789 11.2631C22.5533 11.2671 22.4289 11.2383 22.3179 11.1796C22.2069 11.1208 22.1132 11.0341 22.046 10.928C21.9713 10.7422 21.9349 10.6311 21.9349 10.296V4.82575C21.9349 4.52797 21.9713 4.30486 22.1571 4.15642C22.2891 4.03506 22.4622 3.96834 22.6415 3.96975C22.8282 3.96975 22.9393 4.00708 23.0504 4.08175C23.1998 4.15642 23.3109 4.34219 23.4229 4.52797L25.246 7.98842L27.0691 4.52797C27.1438 4.34219 27.2931 4.19375 27.4415 4.08175C27.5643 4.00619 27.7063 3.96762 27.8504 3.97064C28.0371 3.97064 28.1855 4.04442 28.3349 4.15642C28.5207 4.34308 28.5571 4.52797 28.5571 4.82575V10.3333C28.5571 10.6675 28.5571 10.7795 28.446 10.9653C28.3787 11.0713 28.285 11.158 28.174 11.2168C28.063 11.2755 27.9386 11.3044 27.8131 11.3004C27.6877 11.3042 27.5635 11.2753 27.4527 11.2165C27.3419 11.1578 27.2483 11.0712 27.1811 10.9653C27.1064 10.7795 27.0691 10.6675 27.0691 10.3333V7.05864L25.99 9.3653C25.8042 9.70042 25.6558 9.84886 25.3207 9.84886C24.9855 9.84886 24.7998 9.73775 24.6131 9.3653H24.6122Z" fill="white"/>
<path d="M27.8869 11.3377C27.5891 11.3377 27.3286 11.1892 27.2175 10.9652C27.1055 10.7794 27.1055 10.6674 27.1055 10.3332V7.28165L26.0264 9.40254C25.8398 9.73765 25.6913 9.92343 25.2824 9.92343C24.91 9.92343 24.7242 9.73765 24.5384 9.40254L23.4584 7.28165V10.3332C23.4584 10.6683 23.4584 10.7794 23.3464 10.9652C23.2353 11.1892 22.9749 11.3377 22.6771 11.3377C22.3793 11.3377 22.1189 11.1892 22.0069 10.9652C21.8958 10.7794 21.8958 10.631 21.8958 10.3332V4.82565C21.8958 4.52877 21.9331 4.30477 22.118 4.08165C22.1836 4.00901 22.2643 3.95151 22.3544 3.91314C22.4445 3.87477 22.5419 3.85644 22.6398 3.85943C22.8264 3.85943 22.9749 3.89499 23.086 3.97054C23.2726 4.08165 23.3838 4.30477 23.4584 4.41677L25.2069 7.76521L26.9562 4.41677C27.03 4.30477 27.142 4.08165 27.3278 3.97054C27.4398 3.89588 27.5882 3.85854 27.7749 3.85854C27.8727 3.85579 27.9699 3.87432 28.0598 3.91284C28.1498 3.95137 28.2303 4.00896 28.2958 4.08165C28.4815 4.26832 28.518 4.49054 28.518 4.82565V10.3332C28.518 10.6683 28.518 10.7794 28.4069 10.9652C28.4442 11.1892 28.1855 11.3377 27.8869 11.3377ZM27.2175 6.7981V10.3332C27.2175 10.6683 27.2175 10.7794 27.2922 10.9288C27.4033 11.1145 27.6264 11.2257 27.8495 11.2257C28.11 11.2257 28.2966 11.1145 28.4078 10.9279C28.4824 10.7794 28.4824 10.6674 28.4824 10.3323V4.82654C28.4824 4.52965 28.4451 4.34299 28.2958 4.19454C28.2378 4.13493 28.1684 4.08766 28.0917 4.05558C28.015 4.0235 27.9327 4.00727 27.8495 4.00788C27.7059 4.00999 27.5653 4.04853 27.4406 4.11988C27.3286 4.19454 27.2175 4.34299 27.1055 4.52877L25.2451 8.06388L23.3846 4.52965C23.2735 4.34299 23.1615 4.19454 23.0495 4.12077C22.9291 4.03974 22.7856 4.00012 22.6406 4.00788C22.5575 4.00727 22.4751 4.0235 22.3984 4.05558C22.3218 4.08766 22.2524 4.13493 22.1944 4.19454C22.0451 4.34299 22.0078 4.5661 22.0078 4.82654V10.3341C22.0078 10.6692 22.0078 10.7803 22.0824 10.9297C22.1944 11.1154 22.4175 11.2265 22.6406 11.2265C22.9011 11.2265 23.0869 11.1154 23.1989 10.9288C23.3855 10.7803 23.3855 10.6683 23.3855 10.3332V6.79899L24.6869 9.32876C24.8735 9.7021 25.022 9.81321 25.3198 9.81321C25.6175 9.81321 25.766 9.70121 25.9526 9.32965L27.2175 6.7981ZM31.7571 11.3003C31.2362 11.3003 30.7891 11.1145 30.4922 10.8168C30.0451 10.3705 29.934 9.88699 29.934 9.29143V6.76077C29.934 6.42654 29.934 6.31454 30.0078 6.16521C30.1198 5.97943 30.3055 5.86832 30.566 5.86832C30.8264 5.86832 31.0495 5.97943 31.1242 6.1661C31.1989 6.31454 31.1989 6.42654 31.1989 6.76165V9.10565C31.1989 9.81232 31.6451 10.0728 32.0922 10.0728C32.5011 10.0728 32.9846 9.84965 32.9846 9.10565V6.76077C32.9846 6.42654 32.9846 6.31454 33.0593 6.16521C33.1704 5.97943 33.3571 5.86832 33.6175 5.86832C33.878 5.86832 34.1011 5.97943 34.1758 6.1661C34.2495 6.31454 34.2495 6.42654 34.2495 6.76165V10.3332C34.2495 10.6683 34.2495 10.7794 34.1384 10.9288C34.078 11.0214 33.9952 11.0973 33.8976 11.1494C33.8 11.2015 33.6908 11.228 33.5802 11.2265C33.4299 11.2301 33.2839 11.1768 33.1713 11.0772C33.0593 10.9661 33.022 10.855 32.9846 10.7057C32.7615 11.1145 32.2406 11.3003 31.7571 11.3003Z" fill="white"/>
<path d="M31.7571 11.3751C31.2362 11.3751 30.7891 11.1884 30.4549 10.8915C30.0824 10.5191 29.8966 10.0355 29.8966 9.32883V6.79817C29.8966 6.46305 29.8966 6.35194 29.9704 6.16617C30.0824 5.94217 30.3055 5.83105 30.6033 5.83105C30.9011 5.83105 31.1242 5.94217 31.2362 6.16617C31.31 6.31461 31.31 6.46305 31.31 6.79817V9.14305C31.31 9.96172 31.9429 10.0364 32.1286 10.0364C32.3153 10.0364 32.9473 9.96172 32.9473 9.14305V6.79817C32.9473 6.46305 32.9473 6.35194 33.022 6.16617C33.134 5.94217 33.3571 5.83105 33.6549 5.83105C33.9526 5.83105 34.1758 5.94217 34.2869 6.16617C34.3615 6.31461 34.3615 6.46305 34.3615 6.79817V10.3706C34.3615 10.7057 34.3615 10.8168 34.2495 11.0026C34.1823 11.1085 34.0887 11.1951 33.9779 11.2538C33.8671 11.3126 33.7429 11.3415 33.6175 11.3377C33.5343 11.3384 33.4517 11.3222 33.3749 11.2901C33.298 11.258 33.2285 11.2107 33.1704 11.1511C33.0593 11.0773 33.022 10.9662 32.9846 10.8542C32.7242 11.1893 32.2406 11.3751 31.7571 11.3751ZM30.6406 5.94217C30.3802 5.94217 30.1944 6.05417 30.1197 6.23994C30.0451 6.35194 30.0451 6.50039 30.0451 6.79817V9.32883C30.0451 9.99817 30.1944 10.4444 30.566 10.7795C30.8637 11.0773 31.2726 11.2266 31.7944 11.2266C32.278 11.2266 32.7615 11.0399 33.0966 10.6684L33.1704 10.5937L33.2077 10.7048C33.2451 10.8915 33.2824 10.9662 33.3944 11.0782C33.5055 11.1519 33.6166 11.2266 33.766 11.2266C33.9891 11.2266 34.2131 11.1146 34.2869 10.9662C34.3615 10.8168 34.3615 10.7422 34.3615 10.4079V6.8355C34.3615 6.50039 34.3615 6.38928 34.2869 6.27728C34.2122 6.09061 33.9891 5.9795 33.766 5.9795C33.5429 5.9795 33.3197 6.0915 33.2451 6.27728C33.1704 6.38928 33.1704 6.53772 33.1704 6.8355V9.1795C33.1704 9.92439 32.6869 10.1839 32.2406 10.1839C31.7944 10.1839 31.31 9.9235 31.31 9.1795V6.8355C31.31 6.50039 31.31 6.38928 31.2362 6.27728C31.0495 6.05417 30.8637 5.94217 30.6406 5.94217ZM38.8637 6.12794C39.1615 6.27728 39.4966 6.53683 39.4966 6.87194C39.4966 7.05861 39.422 7.16972 39.31 7.31905C39.2362 7.43017 39.0495 7.50483 38.9011 7.50483C38.7526 7.50483 38.6406 7.4675 38.4549 7.31817C38.2309 7.16972 38.0824 7.09594 37.822 7.09594C37.5242 7.09594 37.2637 7.20705 37.078 7.43017C36.8913 7.69061 36.7802 8.02572 36.7802 8.58394C36.7802 9.14217 36.8549 9.51372 37.078 9.77505C37.2646 9.99728 37.5242 10.1093 37.822 10.1093C38.0824 10.1093 38.2309 10.0346 38.4549 9.88705C38.6406 9.73772 38.7517 9.70039 38.9011 9.70039C39.0495 9.70039 39.1989 9.77505 39.31 9.88705C39.422 9.99817 39.4966 10.1466 39.4966 10.3324C39.4966 10.6675 39.1615 10.9279 38.8637 11.0773C38.566 11.2631 38.2309 11.3377 37.822 11.3377C36.7802 11.3377 35.4397 10.7795 35.4397 8.62128C35.4397 6.46306 36.7429 5.90483 37.822 5.90483C38.1843 5.86289 38.5504 5.94129 38.8637 6.12794Z" fill="white"/>
<path d="M37.7846 11.3741C37.1916 11.3787 36.6144 11.1822 36.1473 10.8168C35.6264 10.3332 35.3295 9.58832 35.3295 8.62121C35.3295 7.61677 35.5891 6.90921 36.1473 6.42566C36.6682 5.9421 37.3384 5.86744 37.7846 5.86744C38.1935 5.86744 38.5286 5.9421 38.8638 6.12788C39.1615 6.27721 39.534 6.53677 39.534 6.9101C39.534 7.09588 39.4593 7.24432 39.3473 7.39366C39.226 7.50765 39.0674 7.57368 38.9011 7.57944C38.7518 7.57944 38.6033 7.5421 38.4175 7.39277C38.1935 7.24432 38.0451 7.17055 37.822 7.17055C37.6862 7.16679 37.5515 7.1951 37.4287 7.25317C37.3059 7.31124 37.1985 7.39744 37.1153 7.50477C36.9286 7.76521 36.8175 8.10032 36.8175 8.62121C36.8175 9.17944 36.8913 9.51455 37.1153 9.77499C37.3011 9.99721 37.5242 10.1092 37.822 10.1092C38.0451 10.1092 38.2309 10.0354 38.4175 9.88699C38.6033 9.77499 38.7153 9.66299 38.9011 9.66299C39.0495 9.66299 39.2362 9.73766 39.3473 9.84966C39.4966 9.9981 39.534 10.1465 39.534 10.3332C39.534 10.631 39.31 10.8914 38.8638 11.151C38.526 11.3073 38.1568 11.3831 37.7846 11.3741ZM37.822 5.9421C37.1153 5.9421 35.5153 6.20255 35.5153 8.58388C35.5153 11.0025 37.1153 11.263 37.822 11.263C38.2309 11.263 38.5286 11.1883 38.8264 11.0025C39.2353 10.7794 39.422 10.5563 39.422 10.2959C39.422 10.1465 39.3473 10.0354 39.2353 9.88699C39.1336 9.79383 39.0016 9.74076 38.8638 9.73766C38.7153 9.73766 38.6033 9.77499 38.4549 9.92432C38.2309 10.1092 38.046 10.1465 37.7846 10.1465C37.4495 10.1465 37.1891 10.0354 37.0033 9.77499C36.7802 9.51455 36.7055 9.1421 36.7055 8.58388C36.7055 8.02566 36.8175 7.6541 37.0033 7.39277C37.19 7.17055 37.4495 7.02121 37.7855 7.02121C38.0824 7.02121 38.2309 7.09588 38.4549 7.24432C38.6406 7.35632 38.7518 7.43099 38.8638 7.43099C39.0131 7.43099 39.1242 7.35632 39.2362 7.28166C39.349 7.17472 39.4156 7.02804 39.422 6.87277C39.422 6.53766 39.0495 6.27721 38.8264 6.16521C38.5286 6.01677 38.2309 5.9421 37.822 5.9421ZM44.7429 10.9652C44.6309 11.1519 44.4451 11.263 44.1846 11.263C43.9242 11.263 43.7011 11.1519 43.6264 10.9652C43.5526 10.8168 43.5526 10.7048 43.5526 10.3697V8.02566C43.5526 7.31899 43.1055 7.05855 42.6593 7.05855C42.2131 7.05855 41.766 7.28166 41.766 8.02566V10.3705C41.766 10.7048 41.766 10.8168 41.6913 10.9661C41.5802 11.1519 41.3944 11.263 41.134 11.263C40.8735 11.263 40.6495 11.1519 40.5758 10.9652C40.5011 10.8168 40.5011 10.7048 40.5011 10.3697V4.86388C40.5011 4.52877 40.5011 4.41766 40.5758 4.26832C40.6869 4.08255 40.8735 3.97144 41.134 3.97144C41.3944 3.97144 41.6175 4.08255 41.6913 4.26832C41.766 4.41766 41.766 4.52877 41.766 4.86388V6.42655C42.1011 6.09232 42.4735 5.86832 43.0682 5.86832C43.5891 5.86832 44.0362 6.05499 44.334 6.35277C44.7802 6.79899 44.8913 7.28255 44.8913 7.8781V10.4079C44.8549 10.7057 44.8175 10.8159 44.7429 10.9652Z" fill="white"/>
<path d="M44.1846 11.3385C43.8869 11.3385 43.6638 11.2265 43.5518 11.0025C43.478 10.8541 43.478 10.7048 43.478 10.3705V8.02654C43.478 7.20787 42.8451 7.13321 42.6593 7.13321C42.4726 7.13321 41.8406 7.20787 41.8406 8.02654V10.3705C41.8406 10.7057 41.8406 10.8168 41.766 11.0025C41.6549 11.2265 41.4309 11.3377 41.134 11.3377C40.8362 11.3377 40.6131 11.2265 40.5011 11.0025C40.4264 10.8541 40.4264 10.7048 40.4264 10.3705V4.86299C40.4264 4.52876 40.4264 4.41676 40.5011 4.23099C40.6131 4.00787 40.8362 3.89587 41.134 3.89587C41.4309 3.89587 41.6549 4.00787 41.766 4.23099C41.8406 4.37943 41.8406 4.52876 41.8406 4.86299V6.31454C42.2131 5.97943 42.5846 5.83098 43.0682 5.83098C43.5891 5.83098 44.0362 6.01765 44.3704 6.31454C44.7438 6.68699 44.9286 7.17054 44.9286 7.87721V10.4079C44.9286 10.7421 44.9286 10.8541 44.8549 11.0399C44.7055 11.2265 44.4824 11.3377 44.1846 11.3377V11.3385ZM42.6593 7.02121C43.1055 7.02121 43.5891 7.28165 43.5891 8.02565V10.3705C43.5891 10.7057 43.5891 10.8168 43.6638 10.9288C43.7384 11.1145 43.9615 11.2265 44.1846 11.2265C44.4078 11.2265 44.6309 11.1145 44.7055 10.9288C44.7802 10.8168 44.7802 10.6683 44.7802 10.3705V7.83987C44.7802 7.17054 44.6309 6.72343 44.2593 6.38921C43.9615 6.09143 43.5526 5.9421 43.0318 5.9421C42.51 5.9421 42.1384 6.09143 41.766 6.46299L41.6549 6.57499V4.86299C41.6549 4.52876 41.6549 4.41676 41.5802 4.30565C41.5055 4.11899 41.2824 4.00787 41.0593 4.00787C40.7989 4.00787 40.6131 4.11899 40.5384 4.30565C40.4638 4.41676 40.4638 4.5661 40.4638 4.86299V10.4079C40.4638 10.7421 40.4638 10.8541 40.5384 10.9652C40.6131 11.1519 40.8362 11.263 41.0593 11.263C41.2824 11.263 41.5055 11.1519 41.5802 10.9652C41.6549 10.8541 41.6549 10.7048 41.6549 10.4079V8.06298C41.6913 7.28165 42.1758 7.02121 42.6593 7.02121Z" fill="white"/>
</g>
</g>
</g>
<defs>
<clipPath id="clip0_45_7691">
<rect width="74.6667" height="16" fill="white" transform="translate(0.987305 0.36084)"/>
</clipPath>
</defs>
</svg>
