<svg width="60" height="19" viewBox="0 0 60 19" fill="none" xmlns="http://www.w3.org/2000/svg">
<g clip-path="url(#clip0_45_7682)">
<mask id="mask0_45_7682" style="mask-type:luminance" maskUnits="userSpaceOnUse" x="0" y="0" width="53" height="17">
<path d="M0.809181 0.36084H52.3647V16.3608H0.809181V0.36084Z" fill="white"/>
</mask>
<g mask="url(#mask0_45_7682)">
<path fill-rule="evenodd" clip-rule="evenodd" d="M37.771 4.50834C38.9381 4.50834 39.883 3.70212 39.883 2.70745C39.883 1.7119 38.9372 0.904785 37.771 0.904785C36.6065 0.904785 35.6607 1.7119 35.6607 2.70745C35.6607 3.70212 36.6056 4.50834 37.771 4.50834ZM21.595 5.48167C21.4999 5.68612 20.8136 7.33945 19.155 9.05323V1.72523L14.7345 2.47012V15.7537H19.155V11.647C20.435 13.287 21.067 15.7537 21.067 15.7537H26.3621C25.8376 13.8959 23.547 10.4692 23.547 10.4692C25.603 8.24434 26.507 5.87367 26.6501 5.48167H21.595ZM33.2154 5.34301C29.2563 5.45145 27.2465 6.96701 27.2465 9.98034V15.7537H31.5665V11.0461C31.5665 9.24167 31.843 8.46834 34.3523 8.39456V5.39545C33.9301 5.31901 33.2154 5.34301 33.2154 5.34301ZM7.32296 6.9439C6.78074 6.91367 5.52741 6.84434 5.52741 5.88167C5.52741 4.71901 7.33185 4.71901 8.00919 4.71901C9.19941 4.71901 10.7407 5.01945 11.8412 5.30034C11.8412 5.30034 12.4545 5.48523 12.9781 5.67367L13.0261 5.68523V2.50301L12.9594 2.48523C11.6607 2.09767 10.1505 1.72523 7.34963 1.72523C2.52118 1.72523 0.810074 4.12523 0.810074 6.18212C0.810074 7.3679 1.40563 10.1581 6.93541 10.4799C7.40385 10.5048 8.6483 10.5661 8.6483 11.5608C8.6483 12.383 7.62963 12.8675 5.91674 12.8675C4.03941 12.8675 2.21807 12.4586 1.11141 12.071V15.3492C2.76741 15.7199 4.63496 15.9048 6.82252 15.9048C11.5443 15.9048 13.6581 13.6337 13.6581 11.3821C13.6581 8.82923 11.2927 7.17056 7.32296 6.9439ZM35.6305 15.7537H39.915V5.49323H35.6305V15.7537ZM47.9816 2.37945V15.7537H52.2661V1.72523L47.9816 2.37945ZM41.7292 2.37945L46.0101 1.72523V15.7537H41.7292V2.37945Z" fill="white" fill-opacity="0.2"/>
</g>
</g>
<defs>
<clipPath id="clip0_45_7682">
<rect width="59" height="18" fill="white" transform="translate(0.323181 0.36084)"/>
</clipPath>
</defs>
</svg>
