<svg width="48" height="17" viewBox="0 0 48 17" fill="none" xmlns="http://www.w3.org/2000/svg">
<g clip-path="url(#clip0_45_7639)">
<path fill-rule="evenodd" clip-rule="evenodd" d="M47.544 15.2514H47.6364L47.5858 15.0052L47.5182 14.6799C47.3458 13.8514 47.1715 13.0239 46.9982 12.1954L46.4791 9.7101C46.3298 9.00077 46.1822 8.28877 46.0347 7.57766L45.5884 5.44521L44.6018 0.707435C44.5858 0.640768 44.5653 0.61499 44.4933 0.61499H41.3707C41.2827 0.61499 41.1902 0.620324 41.1031 0.635435C40.4391 0.743879 39.9867 1.11366 39.7289 1.73143L36.9182 8.44432L34.1067 15.1581C34.0962 15.1897 34.0843 15.2209 34.0711 15.2514H37.9476C38.0098 15.2514 38.0364 15.2301 38.0569 15.1741C38.3031 14.495 38.5502 13.8159 38.792 13.1368C38.8071 13.0852 38.8329 13.0648 38.8898 13.0648H43.6018C43.664 13.0648 43.6898 13.0852 43.6995 13.1421L43.8862 14.0292C43.9653 14.4052 44.0444 14.7821 44.1218 15.1581C44.1369 15.2354 44.168 15.2514 44.24 15.2514H47.544ZM41.92 4.59188C42.3004 6.41232 42.6818 8.23366 43.0622 10.071C42.0071 10.071 40.9635 10.071 39.9084 10.0754C40.5724 8.23899 41.2302 6.41766 41.8942 4.59099H41.92V4.59188Z" fill="white" fill-opacity="0.3"/>
<path d="M0.77512 1.03637C0.806231 0.892373 0.832009 0.75904 0.862231 0.620373H7.24712C8.15734 0.620373 8.8569 1.18571 9.03734 2.07548C9.21245 2.9706 9.3769 3.8666 9.54667 4.76171C9.72623 5.72882 9.91112 6.69593 10.0916 7.66304C10.2667 8.60437 10.4471 9.54571 10.6213 10.4817L10.6427 10.5848C10.704 10.4248 10.7609 10.2862 10.8169 10.1475C12.0613 7.00437 13.3022 3.86126 14.5413 0.722595C14.5725 0.646151 14.6089 0.620373 14.6907 0.620373C15.9413 0.624817 17.1911 0.620373 18.4418 0.624817H18.5493C18.5342 0.660373 18.5289 0.68704 18.5182 0.712817C16.4969 5.53771 14.4747 10.3582 12.4533 15.1839C12.4329 15.2408 12.4071 15.2666 12.3449 15.2613H8.49779C8.47201 15.2613 8.45156 15.2613 8.42045 15.2559C8.33334 14.911 8.2409 14.5715 8.15379 14.2275L5.76001 4.96704L5.3129 3.26393C5.19379 2.8266 4.93156 2.51815 4.53601 2.30748C3.93999 1.99569 3.31438 1.74407 2.66845 1.55637C2.06134 1.37593 1.44356 1.22748 0.837342 1.06215C0.820453 1.04704 0.800898 1.04171 0.77512 1.03637ZM34.2809 4.09237C33.8755 3.90922 33.4557 3.75968 33.0258 3.64526C32.3551 3.4664 31.6618 3.38645 30.968 3.40793C30.5058 3.42393 30.0525 3.49593 29.6356 3.71726C29.3627 3.86126 29.1369 4.05148 29.0187 4.34482C28.8747 4.69415 28.9467 5.00259 29.1831 5.28615C29.3991 5.54393 29.6773 5.73326 29.9653 5.89326C30.4951 6.19104 31.0302 6.46926 31.5653 6.7626C32.1618 7.09148 32.7325 7.46215 33.2116 7.95637C33.7253 8.48082 34.0702 9.09326 34.1938 9.82304C34.256 10.199 34.2605 10.575 34.2196 10.9555C34.1637 11.5692 33.9815 12.1648 33.6845 12.7048C33.2267 13.5226 32.5627 14.119 31.7502 14.567C31.0605 14.9475 30.32 15.1786 29.5431 15.3226C28.8382 15.4515 28.1289 15.503 27.4133 15.4826C26.2711 15.447 25.1502 15.2924 24.0596 14.9422C23.8533 14.8755 23.6578 14.7982 23.4462 14.7208C23.6782 13.6506 23.9049 12.5857 24.1307 11.5164C24.1725 11.5315 24.2036 11.5466 24.2338 11.5626C24.7742 11.8204 25.3191 12.0515 25.9005 12.1999C26.3769 12.3242 26.8647 12.4001 27.3565 12.4266C27.7378 12.447 28.1129 12.4577 28.4889 12.4062C28.9876 12.3395 29.4613 12.2106 29.8578 11.8817C30.2427 11.567 30.3867 11.079 30.2329 10.6417C30.1609 10.4493 30.0424 10.2776 29.888 10.1422C29.6175 9.89628 29.3145 9.68871 28.9876 9.52526C28.5449 9.28882 28.0925 9.06748 27.6498 8.82571C27.0071 8.47548 26.4098 8.05415 25.9165 7.50304C25.4791 7.01415 25.1698 6.4586 25.0569 5.8106C24.9547 5.22926 25.0053 4.65326 25.1547 4.08704C25.4276 3.08437 26.0196 2.29682 26.8427 1.68526C27.5982 1.12437 28.4525 0.779484 29.368 0.574151C30.1853 0.396481 31.0226 0.328623 31.8578 0.372373C32.8871 0.418595 33.8845 0.634595 34.8525 0.979484C34.9191 1.00526 34.9298 1.02571 34.9191 1.09771C34.7085 2.07548 34.4978 3.05326 34.2916 4.03015C34.2969 4.03993 34.2916 4.06037 34.2809 4.09237ZM17.0676 15.2462L17.2222 14.5102C17.52 13.1208 17.8133 11.7368 18.112 10.3484C18.4151 8.9386 18.7138 7.52437 19.0178 6.1146L19.928 1.8746C20.0107 1.48348 20.0925 1.09326 20.1805 0.702151C20.1902 0.655928 20.1956 0.61504 20.2676 0.61504C21.4818 0.620373 22.696 0.61504 23.9102 0.61504H23.9725C23.9481 0.747597 23.9202 0.879494 23.8889 1.0106C23.4 3.30037 22.9111 5.5946 22.4178 7.88437C21.9342 10.1377 21.4507 12.391 20.9725 14.6435C20.9316 14.8293 20.8951 15.0097 20.8542 15.1946C20.8436 15.2355 20.8276 15.2515 20.7876 15.2515H17.104C17.0933 15.2559 17.0818 15.2515 17.0676 15.2462Z" fill="white" fill-opacity="0.3"/>
</g>
<defs>
<clipPath id="clip0_45_7639">
<rect width="48" height="16" fill="white" transform="translate(0 0.36084)"/>
</clipPath>
</defs>
</svg>
