<svg width="93" height="40" viewBox="0 0 93 40" fill="none" xmlns="http://www.w3.org/2000/svg">
<path d="M73.3549 30.0449C73.3549 27.4694 72.5141 25.3042 70.8275 23.5644C69.1586 21.8094 67.0643 20.9307 64.5673 20.9307H57.2738V39.1643H64.5673C67.0643 39.1643 69.1586 38.2855 70.8275 36.528C72.5141 34.7882 73.3549 32.623 73.3549 30.0475V30.0449ZM68.1304 33.874C67.2213 34.8287 66.0412 35.3124 64.5673 35.3124H61.2751V24.7774H64.5673C66.0412 24.7774 67.2213 25.2687 68.1304 26.2412C69.0396 27.201 69.503 28.4596 69.503 30.0449C69.503 31.6303 69.0396 32.8813 68.1279 33.874H68.1304Z" fill="#0F39B3"/>
<path d="M17.0434 20.9281H16.9016L16.8281 21.0497L11.9785 29.075L7.10605 21.0497L7.03261 20.9281H6.88826H3.29218H3.03894V21.1813V38.9085V39.1617H3.29218H6.78696H7.0402V38.9085V28.3406L11.5606 35.7733L11.6341 35.8949H11.7759H12.1811H12.3254L12.3989 35.7733L16.9167 28.3178V38.9085V39.1617H17.17H20.6394H20.8927V38.9085V21.1813V20.9281H20.6394H17.0434Z" fill="#0F39B3"/>
<path d="M33.8462 20.9281H33.5929V32.8306C33.5929 33.7246 33.3321 34.3957 32.8332 34.8768C32.3571 35.3377 31.6151 35.591 30.554 35.591C29.4929 35.591 28.7407 35.3377 28.2469 34.8768C27.7683 34.3957 27.515 33.7246 27.515 32.8306V20.9281H23.5391V33.1092C23.5391 35.0465 24.1975 36.6141 25.5245 37.7815C26.8439 38.9439 28.528 39.5163 30.554 39.5163C32.5799 39.5163 34.2893 38.9439 35.6087 37.7815C36.9357 36.6141 37.5942 35.0465 37.5942 33.1092V20.9281H33.8462Z" fill="#0F39B3"/>
<path d="M90.3729 38.8249L84.1431 21.0978L84.0823 20.9281H79.3922L79.334 21.0978L73.1295 38.8249L73.0104 39.1617H77.3232L77.3814 38.9895L78.3868 35.9708H85.0877L86.0931 38.9895L86.1513 39.1617H90.4894L90.3704 38.8249H90.3729ZM83.8291 32.1975H79.6708L81.7499 26.0031L83.8291 32.1975Z" fill="#0F39B3"/>
<path d="M50.7452 20.9281H50.4919V21.1813V31.1946L43.3555 21.037L43.2795 20.9281H43.1478H40.4888H40.2355V21.1813V38.9085V39.1617H40.4888H43.9835H44.2368V38.9085V28.8724L51.3732 39.0528L51.4492 39.1617H51.5809H54.2399H54.4932V38.9085V21.1813V20.9281H54.2399H50.7452Z" fill="#0F39B3"/>
<path d="M80.6838 17.7271H80.937V17.4739V3.29219V3.03894H80.6838H77.8879H77.6347V3.29219V17.4739V17.7271H77.8879H80.6838Z" fill="#B1440A"/>
<path d="M44.3634 15.1744L45.1561 17.5549L45.2143 17.7271H48.7927L48.6736 17.3903L43.6898 3.20861L43.629 3.03894H39.805L39.7468 3.20861L34.7832 17.3903L34.6641 17.7271H38.2222L38.2805 17.5549L39.0731 15.1744H44.3609H44.3634ZM40.1368 12.0545L41.7297 7.30865L43.3226 12.0545H40.1368Z" fill="#B1440A"/>
<path d="M52.6091 17.7271H52.8623V17.4739V9.60558L58.4793 17.6182L58.5552 17.7271H58.6869H60.8142H61.0674V17.4739V3.29219V3.03894H60.8142H58.0184H57.7651V3.29219V11.1428L52.1481 3.14784L52.0722 3.03894H51.9405H49.8132H49.56V3.29219V17.4739V17.7271H49.8132H52.6091Z" fill="#B1440A"/>
<path d="M25.8563 17.7271V17.4739V11.8519H30.6173V17.4739V17.7271H30.8705H33.6461H33.8993V17.4739V3.29219V3.03894H33.6461H30.8705H30.6173V3.29219V8.6711H25.8563V3.29219V3.03894H25.603H22.8072H22.554V3.29219V17.4739V17.7271H22.8072H25.603H25.8563Z" fill="#B1440A"/>
<path d="M12.3356 17.3042C13.1611 17.7803 14.1564 18.0108 15.3036 18.0108C16.8256 18.0108 18.0842 17.5828 19.0567 16.7116C20.0519 15.8303 20.5381 14.6021 20.5381 13.0598V3.03894H17.2561V13.0573C17.2561 13.6246 17.0864 14.0374 16.7699 14.3311C16.471 14.6097 15.9949 14.7692 15.301 14.7692C14.8022 14.7692 14.3944 14.6654 14.0627 14.4704C13.7309 14.2754 13.4625 13.9816 13.2599 13.5714L13.1409 13.3308L12.9079 13.4625L10.497 14.8401L10.2893 14.9592L10.3957 15.1719C10.8617 16.1089 11.5074 16.823 12.3356 17.2991V17.3042Z" fill="#B1440A"/>
<path d="M69.0776 17.7271C71.0883 17.7271 72.7749 17.018 74.1222 15.6049C75.4796 14.2044 76.1583 12.4571 76.1583 10.3855C76.1583 8.31397 75.4821 6.56658 74.1222 5.16614C72.7775 3.7505 71.0883 3.04395 69.0776 3.04395H63.1922V17.7321H69.0776V17.7271ZM71.8911 7.37696C72.6078 8.13163 72.975 9.12688 72.975 10.383C72.975 11.6391 72.6078 12.6267 71.8886 13.4118C71.1719 14.1639 70.2425 14.5463 69.075 14.5463H66.4919V6.21963H69.075C70.24 6.21963 71.1719 6.6071 71.8886 7.37443L71.8911 7.37696Z" fill="#B1440A"/>
<path d="M16.0304 20.1685H19.6265V37.8956H16.157V26.3983L11.1681 34.6287H10.7629L5.77398 26.4236V37.8956H2.27921V20.1685H5.87528L10.9655 28.5509L16.0304 20.1685ZM29.541 38.2501C27.5657 38.2501 25.9449 37.693 24.6787 36.5787C23.4125 35.4644 22.7794 33.9703 22.7794 32.0963V20.1685H26.2488V31.8177C26.2488 32.7623 26.5198 33.5069 27.0592 34.0463C27.6163 34.5705 28.4444 34.8313 29.541 34.8313C30.6375 34.8313 31.4581 34.5705 31.9975 34.0463C32.5546 33.5069 32.8332 32.7623 32.8332 31.8177V20.1685H36.328V32.0963C36.328 33.9703 35.6948 35.4644 34.4286 36.5787C33.1624 37.693 31.534 38.2501 29.541 38.2501ZM49.7322 30.982V20.1685H53.227V37.8956H50.5679L42.9706 27.0567V37.8956H39.4758V20.1685H42.1349L49.7322 30.982ZM56.5141 20.1685H63.5543C65.9854 20.1685 68.0114 21.0219 69.6322 22.7262C71.2707 24.4154 72.0886 26.5173 72.0886 29.032C72.0886 31.5467 71.2707 33.6487 69.6322 35.3378C68.0114 37.0422 65.9854 37.8956 63.5543 37.8956H56.5141V20.1685ZM60.0089 34.5528H63.5543C65.0915 34.5528 66.34 34.0463 67.3023 33.0333C68.2646 31.9874 68.7458 30.6528 68.7458 29.032C68.7458 27.4113 68.2646 26.0691 67.3023 25.0561C66.34 24.0254 65.0915 23.5113 63.5543 23.5113H60.0089V34.5528ZM89.1193 37.8956H85.3207L84.257 34.7047H77.1915L76.1279 37.8956H72.3545L78.559 20.1685H82.8895L89.1193 37.8956ZM80.7369 24.195L78.3058 31.4378H83.1681L80.7369 24.195Z" fill="url(#paint0_linear_3571_1528)"/>
<path d="M16.0304 20.1684V19.9152H15.8886L15.8151 20.0367L16.0329 20.1684H16.0304ZM19.6265 20.1684H19.8797V19.9152H19.6265V20.1684ZM19.6265 37.8955V38.1488H19.8797V37.8955H19.6265ZM16.157 37.8955H15.9038V38.1488H16.157V37.8955ZM16.157 26.3982H16.4103V25.4916L15.9392 26.2665L16.157 26.3982ZM11.1681 34.6287V34.8819H11.3099L11.3834 34.7604L11.1656 34.6287H11.1681ZM10.7629 34.6287L10.5476 34.7604L10.6211 34.8819H10.7629V34.6287ZM5.77398 26.4235L5.98924 26.2919L5.52074 25.5195V26.4235H5.77398ZM5.77398 37.8955V38.1488H6.02723V37.8955H5.77398ZM2.2792 37.8955H2.02596V38.1488H2.2792V37.8955ZM2.2792 20.1684V19.9152H2.02596V20.1684H2.2792ZM5.87528 20.1684L6.09054 20.0367L6.0171 19.9152H5.87528V20.1684ZM10.9655 28.5508L10.7502 28.6825L10.968 29.0396L11.1833 28.6825L10.9655 28.5508ZM16.0304 20.1684V20.4217H19.6265V19.9152H16.0304V20.1684ZM19.6265 20.1684H19.3732V37.8955H19.8797V20.1684H19.6265ZM19.6265 37.8955V37.6423H16.157V38.1488H19.6265V37.8955ZM16.157 37.8955H16.4103V26.3982H15.9038V37.8955H16.157ZM16.157 26.3982L15.9392 26.2665L10.9503 34.497L11.1681 34.6287L11.3859 34.7604L16.3748 26.5299L16.157 26.3982ZM11.1681 34.6287V34.3754H10.7629V34.8819H11.1681V34.6287ZM10.7629 34.6287L10.9782 34.497L5.98924 26.2919L5.77398 26.4235L5.55872 26.5552L10.5476 34.7604L10.7629 34.6287ZM5.77398 26.4235H5.52074V37.8955H6.02723V26.4235H5.77398ZM5.77398 37.8955V37.6423H2.2792V38.1488H5.77398V37.8955ZM2.2792 37.8955H2.53245V20.1684H2.02596V37.8955H2.2792ZM2.2792 20.1684V20.4217H5.87528V19.9152H2.2792V20.1684ZM5.87528 20.1684L5.66002 20.3001L10.7502 28.6825L10.9655 28.5508L11.1808 28.4191L6.09054 20.0367L5.87528 20.1684ZM10.9655 28.5508L11.1833 28.6825L16.2482 20.3001L16.0304 20.1684L15.8126 20.0367L10.7477 28.4191L10.9655 28.5508ZM22.7794 20.1684V19.9152H22.5261V20.1684H22.7794ZM26.2488 20.1684H26.5021V19.9152H26.2488V20.1684ZM27.0592 34.0462L26.8794 34.226H26.8819L26.8845 34.2311L27.0567 34.0462H27.0592ZM32.8332 20.1684V19.9152H32.5799V20.1684H32.8332ZM36.328 20.1684H36.5812V19.9152H36.328V20.1684ZM29.541 38.2501V37.9968C27.6163 37.9968 26.0589 37.4549 24.8458 36.3887L24.6787 36.5787L24.5116 36.7686C25.831 37.931 27.515 38.5033 29.541 38.5033V38.2501ZM24.6787 36.5787L24.8458 36.3887C23.6404 35.3276 23.0326 33.9069 23.0326 32.0962H22.5261C22.5261 34.0336 23.1846 35.6011 24.5116 36.7686L24.6787 36.5787ZM22.7794 32.0962H23.0326V20.1684H22.5261V32.0962H22.7794ZM22.7794 20.1684V20.4217H26.2488V19.9152H22.7794V20.1684ZM26.2488 20.1684H25.9956V31.8177H26.5021V20.1684H26.2488ZM26.2488 31.8177H25.9956C25.9956 32.8129 26.2817 33.6258 26.8794 34.226L27.0592 34.0462L27.239 33.8664C26.7578 33.3852 26.5021 32.7116 26.5021 31.8177H26.2488ZM27.0592 34.0462L26.887 34.2311C27.5074 34.8135 28.409 35.0845 29.541 35.0845V34.578C28.4799 34.578 27.7252 34.3248 27.2314 33.8613L27.0592 34.0462ZM29.541 34.8313V35.0845C30.673 35.0845 31.5695 34.8135 32.1747 34.2286L31.9975 34.0462L31.8227 33.8639C31.3466 34.3248 30.6046 34.578 29.5435 34.578V34.8313H29.541ZM31.9975 34.0462L32.1747 34.2286C32.7927 33.6309 33.0864 32.8154 33.0864 31.8177H32.5799C32.5799 32.7116 32.3191 33.3827 31.8202 33.8639L31.9975 34.0462ZM32.8332 31.8177H33.0864V20.1684H32.5799V31.8177H32.8332ZM32.8332 20.1684V20.4217H36.328V19.9152H32.8332V20.1684ZM36.328 20.1684H36.0747V32.0962H36.5812V20.1684H36.328ZM36.328 32.0962H36.0747C36.0747 33.9069 35.4669 35.3276 34.2615 36.3887L34.4286 36.5787L34.5958 36.7686C35.9228 35.6011 36.5812 34.0336 36.5812 32.0962H36.328ZM34.4286 36.5787L34.2615 36.3887C33.0484 37.4549 31.4834 37.9968 29.541 37.9968V38.5033C31.5821 38.5033 33.2764 37.931 34.5958 36.7686L34.4286 36.5787ZM49.7322 30.982L49.5245 31.1263L49.9854 31.7822V30.982H49.7322ZM49.7322 20.1684V19.9152H49.479V20.1684H49.7322ZM53.227 20.1684H53.4802V19.9152H53.227V20.1684ZM53.227 37.8955V38.1488H53.4802V37.8955H53.227ZM50.5679 37.8955L50.3602 38.0399L50.4362 38.1488H50.5679V37.8955ZM42.9706 27.0567L43.1782 26.9123L42.7173 26.2564V27.0592H42.9706V27.0567ZM42.9706 37.8955V38.1488H43.2238V37.8955H42.9706ZM39.4758 37.8955H39.2225V38.1488H39.4758V37.8955ZM39.4758 20.1684V19.9152H39.2225V20.1684H39.4758ZM42.1349 20.1684L42.3425 20.0241L42.2665 19.9152H42.1349V20.1684ZM49.7322 30.982H49.9854V20.1684H49.479V30.982H49.7322ZM49.7322 20.1684V20.4217H53.227V19.9152H49.7322V20.1684ZM53.227 20.1684H52.9737V37.8955H53.4802V20.1684H53.227ZM53.227 37.8955V37.6423H50.5679V38.1488H53.227V37.8955ZM50.5679 37.8955L50.7756 37.7512L43.1782 26.9123L42.9706 27.0567L42.7629 27.201L50.3602 38.0399L50.5679 37.8955ZM42.9706 27.0567H42.7173V37.8955H43.2238V27.0567H42.9706ZM42.9706 37.8955V37.6423H39.4758V38.1488H42.9706V37.8955ZM39.4758 37.8955H39.729V20.1684H39.2225V37.8955H39.4758ZM39.4758 20.1684V20.4217H42.1349V19.9152H39.4758V20.1684ZM42.1349 20.1684L41.9272 20.3128L49.5245 31.1263L49.7322 30.982L49.9399 30.8376L42.3425 20.0241L42.1349 20.1684ZM56.5141 20.1684V19.9152H56.2608V20.1684H56.5141ZM69.6322 22.7262L69.4473 22.9009L69.6296 22.7262H69.6322ZM69.6322 35.3378L69.4498 35.1605L69.6347 35.3378H69.6322ZM56.5141 37.8955H56.2608V38.1488H56.5141V37.8955ZM60.0089 34.5527H59.7556V34.806H60.0089V34.5527ZM67.3023 33.0332L67.4872 33.208V33.2054L67.2998 33.0332H67.3023ZM60.0089 23.5112V23.258H59.7556V23.5112H60.0089ZM56.5141 20.1684V20.4217H63.5543V19.9152H56.5141V20.1684ZM63.5543 20.1684V20.4217C65.9196 20.4217 67.8772 21.2472 69.4498 22.9009L69.6347 22.7262L69.817 22.5514C68.1456 20.7939 66.0538 19.9152 63.5568 19.9152V20.1684H63.5543ZM69.6322 22.7262L69.4498 22.9034C71.0377 24.5419 71.8354 26.578 71.8354 29.032H72.3419C72.3419 26.4565 71.5011 24.2887 69.8145 22.5489L69.6322 22.7262ZM72.0886 29.032H71.8354C71.8354 31.4859 71.0377 33.5245 69.4498 35.1605L69.6322 35.3378L69.8145 35.515C71.5011 33.7752 72.3419 31.61 72.3419 29.032H72.0886ZM69.6322 35.3378L69.4473 35.163C67.8746 36.8167 65.9171 37.6423 63.5518 37.6423V38.1488C66.0487 38.1488 68.1431 37.27 69.812 35.5125L69.6296 35.3378H69.6322ZM63.5543 37.8955V37.6423H56.5141V38.1488H63.5543V37.8955ZM56.5141 37.8955H56.7673V20.1684H56.2608V37.8955H56.5141ZM60.0089 34.5527V34.806H63.5543V34.2995H60.0089V34.5527ZM63.5543 34.5527V34.806C65.1523 34.806 66.4717 34.2767 67.4872 33.208L67.3023 33.0332L67.1174 32.8585C66.2083 33.8158 65.0282 34.2995 63.5543 34.2995V34.5527ZM67.3023 33.0332L67.4897 33.2054C68.5002 32.1064 68.9991 30.7085 68.9991 29.032H68.4926C68.4926 30.5996 68.0291 31.8683 67.1149 32.861L67.3023 33.0332ZM68.7458 29.032H68.9991C68.9991 27.3403 68.5002 25.95 67.4847 24.8813L67.2998 25.056L67.1149 25.2308C68.0241 26.188 68.49 27.4467 68.49 29.032H68.7433H68.7458ZM67.3023 25.056L67.4872 24.8838C66.4717 23.7974 65.1523 23.258 63.5543 23.258V23.7645C65.0282 23.7645 66.2083 24.2558 67.1174 25.2282L67.3023 25.056ZM63.5543 23.5112V23.258H60.0089V23.7645H63.5543V23.5112ZM60.0089 23.5112H59.7556V34.5527H60.2621V23.5112H60.0089ZM89.1193 37.8955V38.1488H89.4764L89.3574 37.812L89.1193 37.8955ZM85.3207 37.8955L85.0801 37.9766L85.1383 38.1488H85.3207V37.8955ZM84.257 34.7046L84.4976 34.6236L84.4394 34.4514H84.257V34.7046ZM77.1915 34.7046V34.4514H77.0092L76.9509 34.6236L77.1915 34.7046ZM76.1279 37.8955V38.1488H76.3102L76.3685 37.9766L76.1279 37.8955ZM72.3545 37.8955L72.1165 37.812L71.9975 38.1488H72.3545V37.8955ZM78.559 20.1684V19.9152H78.3792L78.321 20.0848L78.559 20.1684ZM82.8895 20.1684L83.1276 20.0848L83.0668 19.9152H82.887V20.1684H82.8895ZM80.7369 24.195L80.9775 24.114L80.7369 23.3998L80.4964 24.114L80.7369 24.195ZM78.3058 31.4378L78.0652 31.3568L77.9538 31.691H78.3058V31.4378ZM83.1681 31.4378V31.691H83.5201L83.4087 31.3568L83.1681 31.4378ZM89.1193 37.8955V37.6423H85.3207V38.1488H89.1193V37.8955ZM85.3207 37.8955L85.5613 37.8145L84.4976 34.6236L84.257 34.7046L84.0165 34.7857L85.0801 37.9766L85.3207 37.8955ZM84.257 34.7046V34.4514H77.1915V34.9579H84.257V34.7046ZM77.1915 34.7046L76.9509 34.6236L75.8873 37.8145L76.1279 37.8955L76.3685 37.9766L77.4321 34.7857L77.1915 34.7046ZM76.1279 37.8955V37.6423H72.3545V38.1488H76.1279V37.8955ZM72.3545 37.8955L72.5926 37.9791L78.7971 20.252L78.559 20.1684L78.321 20.0848L72.1165 37.812L72.3545 37.8955ZM78.559 20.1684V20.4217H82.8895V19.9152H78.559V20.1684ZM82.8895 20.1684L82.6515 20.252L88.8813 37.9791L89.1193 37.8955L89.3574 37.812L83.1276 20.0848L82.8895 20.1684ZM80.7369 24.195L80.4964 24.114L78.0652 31.3568L78.3058 31.4378L78.5464 31.5188L80.9775 24.276L80.7369 24.195ZM78.3058 31.4378V31.691H83.1681V31.1846H78.3058V31.4378ZM83.1681 31.4378L83.4087 31.3568L80.9775 24.114L80.7369 24.195L80.4964 24.276L82.9275 31.5188L83.1681 31.4378Z" fill="url(#paint1_linear_3571_1528)"/>
<path d="M14.2906 16.7446C12.062 16.7446 10.5021 15.8456 9.61064 14.0501L12.0215 12.6725C12.4672 13.5639 13.2244 14.0096 14.2906 14.0096C15.0199 14.0096 15.567 13.8399 15.9316 13.5031C16.309 13.1511 16.4989 12.6649 16.4989 12.0444V2.2793H19.2745V12.0444C19.2745 13.531 18.8085 14.6858 17.8765 15.5088C16.9573 16.3318 15.762 16.7446 14.2906 16.7446ZM29.8575 7.91146V2.2793H32.6331V16.461H29.8575V10.5857H24.5901V16.461H21.7942V2.2793H24.5901V7.91146H29.8575ZM47.4226 16.461H44.3837L43.5328 13.9083H37.8803L37.0294 16.461H34.0108L38.9744 2.2793H42.4387L47.4226 16.461ZM40.7167 5.50057L38.7718 11.2948H42.6616L40.7167 5.50057ZM57.0054 10.9301V2.2793H59.8012V16.461H57.674L51.5961 7.7899V16.461H48.8003V2.2793H50.9275L57.0054 10.9301ZM62.4324 2.2793H68.0646C70.0095 2.2793 71.6303 2.96053 72.9269 4.32551C74.2362 5.67531 74.8921 7.35685 74.8921 9.37015C74.8921 11.3834 74.2362 13.065 72.9269 14.4148C71.6303 15.7798 70.0095 16.461 68.0646 16.461H62.4324V2.2793ZM65.2282 13.7867H68.0646C69.2928 13.7867 70.2931 13.3815 71.063 12.5712C71.8329 11.7329 72.2178 10.6668 72.2178 9.37015C72.2178 8.07354 71.8329 6.99978 71.063 6.1894C70.2931 5.36635 69.2928 4.95356 68.0646 4.95356H65.2282V13.7867ZM76.875 16.461V2.2793H79.6708V16.461H76.875Z" fill="url(#paint2_linear_3571_1528)"/>
<path d="M9.61064 14.0501L9.48402 13.8297L9.27636 13.9488L9.38272 14.1615L9.61064 14.0501ZM12.0215 12.6724L12.2469 12.5584L12.1279 12.3179L11.8949 12.4496L12.0215 12.6699V12.6724ZM16.4989 2.27925V2.026H16.2456V2.27925H16.4989ZM19.2745 2.27925H19.5277V2.026H19.2745V2.27925ZM17.8765 15.5087L17.7094 15.3188L17.8791 15.5087H17.8765ZM14.2906 16.7446V16.4913C13.2092 16.4913 12.3102 16.2735 11.5758 15.8506C10.8439 15.4302 10.264 14.7946 9.83856 13.9361L9.61064 14.0475L9.38272 14.159C9.84869 15.096 10.4945 15.8101 11.3226 16.2862C12.1482 16.7623 13.1434 16.9928 14.2906 16.9928V16.7395V16.7446ZM9.61064 14.0501L9.73726 14.2704L12.1482 12.8927L12.0215 12.6724L11.8949 12.4521L9.48402 13.8297L9.61064 14.0501ZM12.0215 12.6724L11.7961 12.7864C12.0367 13.2701 12.371 13.6423 12.7965 13.893C13.2219 14.1438 13.7233 14.2628 14.2931 14.2628V13.7563C13.7942 13.7563 13.3865 13.6525 13.0548 13.4575C12.723 13.2625 12.4546 12.9687 12.252 12.5584L12.0266 12.6724H12.0215ZM14.2906 14.0095V14.2628C15.0554 14.2628 15.6733 14.0855 16.1038 13.6879L15.9316 13.5031L15.7594 13.3182C15.4606 13.5968 14.9845 13.7563 14.2906 13.7563V14.0095ZM15.9316 13.5031L16.1038 13.6879C16.5445 13.2802 16.7521 12.7205 16.7521 12.0444H16.2456C16.2456 12.6116 16.076 13.0244 15.7594 13.3182L15.9316 13.5031ZM16.4989 12.0444H16.7521V2.27925H16.2456V12.0444H16.4989ZM16.4989 2.27925V2.53249H19.2745V2.026H16.4989V2.27925ZM19.2745 2.27925H19.0212V12.0444H19.5277V2.27925H19.2745ZM19.2745 12.0444H19.0212C19.0212 13.4727 18.5755 14.5515 17.7094 15.3188L17.8765 15.5087L18.0437 15.6987C19.0415 14.8174 19.5277 13.5866 19.5277 12.0444H19.2745ZM17.8765 15.5087L17.7069 15.3213C16.8433 16.0963 15.7113 16.4913 14.2906 16.4913V16.9978C15.8126 16.9978 17.0712 16.5698 18.0462 15.6961L17.8765 15.5087ZM29.8576 7.91141V8.16465H30.1108V7.91141H29.8576ZM29.8576 2.27925V2.026H29.6043V2.27925H29.8576ZM32.6331 2.27925H32.8864V2.026H32.6331V2.27925ZM32.6331 16.4609V16.7142H32.8864V16.4609H32.6331ZM29.8576 16.4609H29.6043V16.7142H29.8576V16.4609ZM29.8576 10.5857H30.1108V10.3324H29.8576V10.5857ZM24.5901 10.5857V10.3324H24.3368V10.5857H24.5901ZM24.5901 16.4609V16.7142H24.8433V16.4609H24.5901ZM21.7942 16.4609H21.541V16.7142H21.7942V16.4609ZM21.7942 2.27925V2.026H21.541V2.27925H21.7942ZM24.5901 2.27925H24.8433V2.026H24.5901V2.27925ZM24.5901 7.91141H24.3368V8.16465H24.5901V7.91141ZM29.8576 7.91141H30.1108V2.27925H29.6043V7.91141H29.8576ZM29.8576 2.27925V2.53249H32.6331V2.026H29.8576V2.27925ZM32.6331 2.27925H32.3799V16.4609H32.8864V2.27925H32.6331ZM32.6331 16.4609V16.2077H29.8576V16.7142H32.6331V16.4609ZM29.8576 16.4609H30.1108V10.5857H29.6043V16.4609H29.8576ZM29.8576 10.5857V10.3324H24.5901V10.8389H29.8576V10.5857ZM24.5901 10.5857H24.3368V16.4609H24.8433V10.5857H24.5901ZM24.5901 16.4609V16.2077H21.7942V16.7142H24.5901V16.4609ZM21.7942 16.4609H22.0475V2.27925H21.541V16.4609H21.7942ZM21.7942 2.27925V2.53249H24.5901V2.026H21.7942V2.27925ZM24.5901 2.27925H24.3368V7.91141H24.8433V2.27925H24.5901ZM24.5901 7.91141V8.16465H29.8576V7.65816H24.5901V7.91141ZM47.4226 16.4609V16.7142H47.7797L47.6607 16.3774L47.4226 16.4609ZM44.3837 16.4609L44.1431 16.542L44.2013 16.7142H44.3837V16.4609ZM43.5328 13.9082L43.7733 13.8272L43.7151 13.655H43.5328V13.9082ZM37.8803 13.9082V13.655H37.698L37.6398 13.8272L37.8803 13.9082ZM37.0294 16.4609V16.7142H37.2118L37.27 16.542L37.0294 16.4609ZM34.0108 16.4609L33.7727 16.3774L33.6537 16.7142H34.0108V16.4609ZM38.9744 2.27925V2.026H38.7946L38.7363 2.19567L38.9744 2.27925ZM42.4387 2.27925L42.6768 2.19567L42.616 2.026H42.4362V2.27925H42.4387ZM40.7167 5.50052L40.9573 5.41948L40.7167 4.70533L40.4761 5.41948L40.7167 5.50052ZM38.7718 11.2948L38.5312 11.2137L38.4198 11.548H38.7718V11.2948ZM42.6616 11.2948V11.548H43.0136L42.9022 11.2137L42.6616 11.2948ZM47.4226 16.4609V16.2077H44.3837V16.7142H47.4226V16.4609ZM44.3837 16.4609L44.6243 16.3799L43.7733 13.8272L43.5328 13.9082L43.2922 13.9893L44.1431 16.542L44.3837 16.4609ZM43.5328 13.9082V13.655H37.8803V14.1615H43.5328V13.9082ZM37.8803 13.9082L37.6398 13.8272L36.7889 16.3799L37.0294 16.4609L37.27 16.542L38.1209 13.9893L37.8803 13.9082ZM37.0294 16.4609V16.2077H34.0108V16.7142H37.0294V16.4609ZM34.0108 16.4609L34.2488 16.5445L39.2124 2.36282L38.9744 2.27925L38.7363 2.19567L33.7727 16.3774L34.0108 16.4609ZM38.9744 2.27925V2.53249H42.4387V2.026H38.9744V2.27925ZM42.4387 2.27925L42.2007 2.36282L47.1846 16.5445L47.4226 16.4609L47.6607 16.3774L42.6768 2.19567L42.4387 2.27925ZM40.7167 5.50052L40.4761 5.41948L38.5312 11.2137L38.7718 11.2948L39.0123 11.3758L40.9573 5.58156L40.7167 5.50052ZM38.7718 11.2948V11.548H42.6616V11.0415H38.7718V11.2948ZM42.6616 11.2948L42.9022 11.2137L40.9573 5.41948L40.7167 5.50052L40.4761 5.58156L42.421 11.3758L42.6616 11.2948ZM57.0054 10.9301L56.7977 11.0744L57.2586 11.7303V10.9301H57.0054ZM57.0054 2.27925V2.026H56.7521V2.27925H57.0054ZM59.8012 2.27925H60.0544V2.026H59.8012V2.27925ZM59.8012 16.4609V16.7142H60.0544V16.4609H59.8012ZM57.674 16.4609L57.4663 16.6053L57.5423 16.7142H57.674V16.4609ZM51.5961 7.78985L51.8037 7.6455L51.3428 6.9896V7.79238H51.5961V7.78985ZM51.5961 16.4609V16.7142H51.8493V16.4609H51.5961ZM48.8003 16.4609H48.547V16.7142H48.8003V16.4609ZM48.8003 2.27925V2.026H48.547V2.27925H48.8003ZM50.9275 2.27925L51.1352 2.1349L51.0592 2.026H50.9275V2.27925ZM57.0054 10.9301H57.2586V2.27925H56.7521V10.9301H57.0054ZM57.0054 2.27925V2.53249H59.8012V2.026H57.0054V2.27925ZM59.8012 2.27925H59.548V16.4609H60.0544V2.27925H59.8012ZM59.8012 16.4609V16.2077H57.674V16.7142H59.8012V16.4609ZM57.674 16.4609L57.8816 16.3166L51.8037 7.6455L51.5961 7.78985L51.3884 7.9342L57.4663 16.6053L57.674 16.4609ZM51.5961 7.78985H51.3428V16.4609H51.8493V7.78985H51.5961ZM51.5961 16.4609V16.2077H48.8003V16.7142H51.5961V16.4609ZM48.8003 16.4609H49.0535V2.27925H48.547V16.4609H48.8003ZM48.8003 2.27925V2.53249H50.9275V2.026H48.8003V2.27925ZM50.9275 2.27925L50.7198 2.4236L56.7977 11.0744L57.0054 10.9301L57.213 10.7857L51.1352 2.1349L50.9275 2.27925ZM62.4324 2.27925V2.026H62.1792V2.27925H62.4324ZM72.9269 4.32546L72.742 4.5002L72.9243 4.32546H72.9269ZM72.9269 14.4147L72.7445 14.2375L72.9294 14.4147H72.9269ZM62.4324 16.4609H62.1792V16.7142H62.4324V16.4609ZM65.2282 13.7867H64.975V14.0399H65.2282V13.7867ZM71.063 12.5711L71.2479 12.7458V12.7433L71.0605 12.5711H71.063ZM65.2282 4.95351V4.70026H64.975V4.95351H65.2282ZM62.4324 2.27925V2.53249H68.0646V2.026H62.4324V2.27925ZM68.0646 2.27925V2.53249C69.9437 2.53249 71.496 3.18839 72.7445 4.5002L72.9294 4.32546L73.1117 4.15072C71.7645 2.73509 70.0779 2.026 68.0671 2.026V2.27925H68.0646ZM72.9269 4.32546L72.7445 4.50273C74.0057 5.80188 74.6388 7.42011 74.6388 9.3701H75.1453C75.1453 7.29602 74.4691 5.55117 73.1092 4.14819L72.9269 4.32546ZM74.8921 9.3701H74.6388C74.6388 11.3226 74.0057 12.9383 72.7445 14.2375L72.9269 14.4147L73.1092 14.592C74.4691 13.1916 75.1453 11.4442 75.1453 9.3701H74.8921ZM72.9269 14.4147L72.742 14.24C71.496 15.5518 69.9411 16.2077 68.062 16.2077V16.7142C70.0728 16.7142 71.7619 16.0051 73.1067 14.5895L72.9243 14.4147H72.9269ZM68.0646 16.4609V16.2077H62.4324V16.7142H68.0646V16.4609ZM62.4324 16.4609H62.6857V2.27925H62.1792V16.4609H62.4324ZM65.2282 13.7867V14.0399H68.0646V13.5334H65.2282V13.7867ZM68.0646 13.7867V14.0399C69.3561 14.0399 70.4248 13.6119 71.2479 12.7458L71.063 12.5711L70.8781 12.3964C70.1614 13.151 69.2295 13.5334 68.0646 13.5334V13.7867ZM71.063 12.5711L71.2504 12.7433C72.0684 11.8519 72.471 10.7224 72.471 9.3701H71.9646C71.9646 10.6135 71.5973 11.6164 70.8756 12.3989L71.063 12.5711ZM72.2178 9.3701H72.471C72.471 8.00764 72.0684 6.8807 71.2479 6.01461L71.063 6.18934L70.8781 6.36408C71.5948 7.11875 71.9646 8.114 71.9646 9.3701H72.2178ZM71.063 6.18934L71.2479 6.01714C70.4248 5.13585 69.3561 4.70026 68.0646 4.70026V5.20675C69.2295 5.20675 70.1614 5.59422 70.8781 6.36155L71.063 6.18934ZM68.0646 4.95351V4.70026H65.2282V5.20675H68.0646V4.95351ZM65.2282 4.95351H64.975V13.7867H65.4815V4.95351H65.2282ZM76.875 16.4609H76.6217V16.7142H76.875V16.4609ZM76.875 2.27925V2.026H76.6217V2.27925H76.875ZM79.6708 2.27925H79.924V2.026H79.6708V2.27925ZM79.6708 16.4609V16.7142H79.924V16.4609H79.6708ZM76.875 16.4609H77.1282V2.27925H76.6217V16.4609H76.875ZM76.875 2.27925V2.53249H79.6708V2.026H76.875V2.27925ZM79.6708 2.27925H79.4175V16.4609H79.924V2.27925H79.6708ZM79.6708 16.4609V16.2077H76.875V16.7142H79.6708V16.4609Z" fill="url(#paint3_linear_3571_1528)"/>
<defs>
<linearGradient id="paint0_linear_3571_1528" x1="45.7005" y1="21.1814" x2="45.7005" y2="40.9345" gradientUnits="userSpaceOnUse">
<stop stop-color="#50B6FC"/>
<stop offset="1" stop-color="#00FFF2"/>
</linearGradient>
<linearGradient id="paint1_linear_3571_1528" x1="45.579" y1="19.7936" x2="45.7689" y2="39.9696" gradientUnits="userSpaceOnUse">
<stop stop-color="#98DAFF"/>
<stop offset="1" stop-color="#4AF4FF"/>
</linearGradient>
<linearGradient id="paint2_linear_3571_1528" x1="44.642" y1="3.03903" x2="44.642" y2="18.7402" gradientUnits="userSpaceOnUse">
<stop stop-color="#FAE993"/>
<stop offset="1" stop-color="#FFC606"/>
</linearGradient>
<linearGradient id="paint3_linear_3571_1528" x1="44.2596" y1="3.02379" x2="45.2903" y2="17.9576" gradientUnits="userSpaceOnUse">
<stop stop-color="#FFF8E1"/>
<stop offset="1" stop-color="#FFDE1C"/>
</linearGradient>
</defs>
</svg>
