<?xml version="1.0" encoding="UTF-8"?>
<svg id="Layer_1" data-name="Layer 1" xmlns="http://www.w3.org/2000/svg" viewBox="0 0 512 512">
  <defs>
    <style>
      .cls-1 {
        fill: #f0f0f0;
      }

      .cls-2 {
        fill: #85c2ff;
      }

      .cls-3 {
        fill: #ff9811;
      }

      .cls-4 {
        fill: #6da544;
      }
    </style>
  </defs>
  <circle class="cls-1" cx="256" cy="256" r="256"/>
  <path class="cls-3" d="M256,0C154.51,0,66.81,59.06,25.4,144.7h461.2C445.19,59.06,357.49,0,256,0Z"/>
  <path class="cls-4" d="M256,512c101.49,0,189.19-59.07,230.6-144.7H25.4c41.41,85.63,129.1,144.7,230.6,144.7Z"/>
  <circle class="cls-2" cx="256" cy="256" r="89.04"/>
  <circle class="cls-1" cx="256" cy="256" r="55.65"/>
  <polygon class="cls-2" points="256 187.33 273.17 226.26 315.47 221.66 290.34 256 315.47 290.34 273.17 285.74 256 324.67 238.83 285.74 196.53 290.34 221.66 256 196.53 221.66 238.83 226.26 256 187.33"/>
  <g>
    <path d="M25.39,194.88l1.18-1.62h29.38c-5.9-7.38-9.45-15.95-9.45-25.69,0-20.82,16.98-41.04,49.31-41.04s65.4,18.9,95.82,53.59l-5.32,7.38h-1.18c-24.21-27.02-50.2-44.14-79.13-44.14-27.16,0-42.67,15.5-42.67,33.81,0,7.38,1.77,12.55,4.58,16.09h23.33l7.09,14.32-1.18,1.62h-26.72l.59,135.24-1.48,1.62-16.53-4.43.44-132.43h-20.96l-7.08-14.32Z"/>
    <path d="M84.15,194.88l1.18-1.62h131.25l7.09,14.32-1.18,1.62h-27.16l.3,37.65-1.77,2.07c-8.41-.3-16.83-.44-26.13-.44-19.04,0-33.81,2.95-40.01,8.41-4.73,3.99-6.5,8.86-6.5,13.58,0,6.64,2.51,11.96,7.24,16.09,11.96-10.19,25.69-16.68,42.81-16.68,12.4,0,20.82,4.73,27.76,11.52,6.94,6.79,11.22,16.53,11.22,25.84,0,13.73-11.22,23.77-28.2,31.59h-1.03c-4.28-3.99-8.86-8.71-14.32-15.5,16.98-7.38,29.82-15.5,29.82-25.25,0-6.05-4.87-10.63-16.98-10.63-14.91,0-45.92,11.96-45.92,35.73,0,27.9,35.14,40.01,81.05,44.73l-10.93,17.57h-1.03c-53.59-13.58-86.81-35.14-86.81-69.54,0-7.38,1.92-14.62,6.2-21.11-11.96-10.78-18.6-22-18.6-33.22,0-10.19,4.13-18.01,12.4-23.18,7.82-4.73,21.55-6.79,40.9-6.79h17.86c2.66,0,3.99-1.48,3.99-3.84v-18.6h-87.4l-7.09-14.32Z"/>
    <path d="M209.49,194.88l1.18-1.62h210.09l7.09,14.32-1.18,1.62h-32.92l.15,43.85-1.48,1.48h-21.7c-34.25,0-50.35,10.78-50.35,30.12,0,17.13,13.14,30.27,33.37,30.27,7.97,0,15.21-2.07,22.74-5.76-3.84-3.84-5.76-8.56-5.76-14.47,0-8.71,7.53-17.13,17.86-17.13,5.9,0,10.63,2.21,14.76,6.35,4.43,4.58,6.79,9.89,6.79,15.95,0,7.97-4.28,14.62-12.55,20.23,15.35,14.03,21.26,25.54,21.26,34.69,0,12.11-7.09,20.67-17.42,27.76h-1.18l-17.57-14.03c10.19-6.79,16.83-14.17,16.83-23.33,0-6.35-3.25-12.99-10.33-20.08-8.86,4.43-17.72,5.9-26.87,5.9-35.43,0-60.09-27.16-60.09-54.48,0-4.13.59-7.97,1.62-11.52-5.32-.44-10.63-.59-15.5-.59-9.74,0-18.16.89-24.36,2.81v12.11c0,6.5-.59,10.93-1.48,12.7-2.21,3.84-5.61,5.61-9.89,5.61-6.64,0-25.84-19.49-25.84-32.33,0-5.17,3.4-9.89,10.48-13.14,7.97-3.54,17.42-4.43,27.02-4.43s32.48,1.33,47.83,3.1c8.86-8.86,23.03-13.44,40.16-13.44h20.52c2.95,0,4.43-1.48,4.43-4.13v-24.06h-160.63l-7.08-14.32Z"/>
    <path d="M413.68,194.88l1.18-1.62h26.87c-2.36-34.1-15.95-50.93-36.02-50.93-14.03,0-21.7,9.6-21.7,20.08,0,8.86,3.99,17.13,9.89,24.8l-1.33,1.62-15.65-7.24c-6.79-8.12-11.22-16.83-11.22-26.13,0-15.5,11.07-28.05,31.74-28.05,28.35,0,55.81,27.16,60.83,65.85h21.26l7.09,14.32-1.18,1.62h-26.72l.59,135.24-1.48,1.62-16.53-4.43.44-132.43h-20.96l-7.08-14.32Z"/>
  </g>
</svg>