<svg width="86" height="87" viewBox="0 0 86 87" fill="none" xmlns="http://www.w3.org/2000/svg">
<path d="M42.9339 74.0108C59.0505 74.0108 72.1155 60.9457 72.1155 44.8292C72.1155 28.7126 59.0505 15.6476 42.9339 15.6476C26.8174 15.6476 13.7523 28.7126 13.7523 44.8292C13.7523 60.9457 26.8174 74.0108 42.9339 74.0108Z" fill="url(#paint0_linear_903_3703)"/>
<path fill-rule="evenodd" clip-rule="evenodd" d="M26.6003 31.1475C26.1361 31.4432 25.8549 31.9554 25.8549 32.5058V33.2571C25.8549 33.9414 26.3671 34.506 27.0288 34.5886L27.0288 54.9758H26.74C25.8852 54.9758 25.1382 55.553 24.9224 56.38L24.092 59.5635C23.8703 60.4136 24.5116 61.2439 25.3901 61.2439L58.8004 61.2439C59.6634 61.2439 60.3018 60.4413 60.1078 59.6006L59.3765 56.4318C59.1798 55.5795 58.421 54.9758 57.5462 54.9758H57.2588L57.2588 34.5827C57.9001 34.4821 58.3907 33.9269 58.3907 33.2571V32.5058C58.3907 31.9554 58.1095 31.4432 57.6455 31.1475L43.2036 21.954C42.5443 21.5342 41.7015 21.5342 41.0422 21.954L26.6003 31.1475ZM52.9402 54.9758L52.9402 34.5988H48.6216L48.6216 54.9758H52.9402ZM44.303 54.9758L44.303 34.5988L39.9847 34.5988L39.9847 54.9758L44.303 54.9758ZM35.666 54.9758L35.666 34.5988H31.3474L31.3474 54.9758H35.666Z" fill="#DC7B3C"/>
<path fill-rule="evenodd" clip-rule="evenodd" d="M42.9338 82.3123C63.6352 82.3123 80.4172 65.5305 80.4172 44.8292C80.4172 24.1276 63.6352 7.34579 42.9338 7.34579C22.2324 7.34579 5.45056 24.1276 5.45056 44.8292C5.45056 65.5305 22.2324 82.3123 42.9338 82.3123ZM42.9338 74.0108C59.0504 74.0108 72.1154 60.9457 72.1154 44.8292C72.1154 28.7126 59.0504 15.6475 42.9338 15.6475C26.8173 15.6475 13.7522 28.7126 13.7522 44.8292C13.7522 60.9457 26.8173 74.0108 42.9338 74.0108Z" fill="url(#paint1_linear_903_3703)"/>
<path fill-rule="evenodd" clip-rule="evenodd" d="M42.9338 82.3123C63.6352 82.3123 80.4172 65.5305 80.4172 44.8292C80.4172 24.1276 63.6352 7.34579 42.9338 7.34579C22.2324 7.34579 5.45056 24.1276 5.45056 44.8292C5.45056 65.5305 22.2324 82.3123 42.9338 82.3123ZM42.9338 74.0108C59.0504 74.0108 72.1154 60.9457 72.1154 44.8292C72.1154 28.7126 59.0504 15.6475 42.9338 15.6475C26.8173 15.6475 13.7522 28.7126 13.7522 44.8292C13.7522 60.9457 26.8173 74.0108 42.9338 74.0108Z" fill="url(#paint2_linear_903_3703)"/>
<path fill-rule="evenodd" clip-rule="evenodd" d="M42.9338 82.3123C63.6352 82.3123 80.4172 65.5305 80.4172 44.8292C80.4172 24.1276 63.6352 7.34579 42.9338 7.34579C22.2324 7.34579 5.45056 24.1276 5.45056 44.8292C5.45056 65.5305 22.2324 82.3123 42.9338 82.3123ZM42.9338 74.0108C59.0504 74.0108 72.1154 60.9457 72.1154 44.8292C72.1154 28.7126 59.0504 15.6475 42.9338 15.6475C26.8173 15.6475 13.7522 28.7126 13.7522 44.8292C13.7522 60.9457 26.8173 74.0108 42.9338 74.0108Z" fill="url(#paint3_linear_903_3703)"/>
<path d="M27.8676 33.299C27.8676 32.9284 28.1678 32.6282 28.5384 32.6282H31.5151C31.8856 32.6282 32.1859 32.9284 32.1859 33.299V54.8078H27.8676L27.8676 33.299Z" fill="url(#paint4_linear_903_3703)"/>
<path d="M27.8676 33.299C27.8676 32.9284 28.1678 32.6282 28.5384 32.6282H31.5151C31.8856 32.6282 32.1859 32.9284 32.1859 33.299V54.8078H27.8676L27.8676 33.299Z" fill="url(#paint5_linear_903_3703)"/>
<path d="M40.8231 32.6282H36.5045L36.5045 54.8079H40.8231V32.6282Z" fill="url(#paint6_linear_903_3703)"/>
<path d="M40.8231 32.6282H36.5045L36.5045 54.8079H40.8231V32.6282Z" fill="url(#paint7_linear_903_3703)"/>
<path d="M49.4604 32.6281H45.1418L45.1418 54.8078H49.4604V32.6281Z" fill="url(#paint8_linear_903_3703)"/>
<path d="M49.4604 32.6281H45.1418L45.1418 54.8078H49.4604V32.6281Z" fill="url(#paint9_linear_903_3703)"/>
<path d="M58.0972 32.6282H53.7787L53.7787 54.8079H58.0972V32.6282Z" fill="url(#paint10_linear_903_3703)"/>
<path d="M58.0972 32.6282H53.7787L53.7787 54.8079H58.0972V32.6282Z" fill="url(#paint11_linear_903_3703)"/>
<path d="M25.761 55.6251C25.9768 54.7978 26.7237 54.2209 27.5786 54.2209L58.3847 54.2209C59.2595 54.2209 60.0183 54.8244 60.215 55.6769L60.9463 58.8457C61.1403 59.6864 60.5019 60.489 59.6389 60.489L26.2287 60.489C25.3502 60.489 24.7088 59.6588 24.9305 58.8087L25.761 55.6251Z" fill="#FFC248"/>
<path d="M26.6935 31.751C26.6935 31.2006 26.9746 30.6884 27.4388 30.3929L41.8807 21.1993C42.54 20.7796 43.3828 20.7796 44.0421 21.1993L58.484 30.3929C58.9482 30.6884 59.2294 31.2006 59.2294 31.751V32.5026C59.2294 33.2435 58.6286 33.8443 57.8877 33.8443L28.0353 33.8443C27.2942 33.8443 26.6935 33.2435 26.6935 32.5026V31.751Z" fill="#FFC546"/>
<path d="M26.6935 31.751C26.6935 31.2006 26.9746 30.6884 27.4388 30.3929L41.8807 21.1993C42.54 20.7796 43.3828 20.7796 44.0421 21.1993L58.484 30.3929C58.9482 30.6884 59.2294 31.2006 59.2294 31.751V32.5026C59.2294 33.2435 58.6286 33.8443 57.8877 33.8443L28.0353 33.8443C27.2942 33.8443 26.6935 33.2435 26.6935 32.5026V31.751Z" fill="url(#paint12_linear_903_3703)"/>
<defs>
<linearGradient id="paint0_linear_903_3703" x1="31.0265" y1="59.42" x2="62.556" y2="19.6725" gradientUnits="userSpaceOnUse">
<stop stop-color="#F19D48"/>
<stop offset="1" stop-color="#E89A44"/>
</linearGradient>
<linearGradient id="paint1_linear_903_3703" x1="42.9338" y1="7.34579" x2="42.9338" y2="82.3123" gradientUnits="userSpaceOnUse">
<stop stop-color="#FFC444"/>
<stop offset="1" stop-color="#FFC24B"/>
</linearGradient>
<linearGradient id="paint2_linear_903_3703" x1="80.4135" y1="51.0517" x2="62.4705" y2="51.0517" gradientUnits="userSpaceOnUse">
<stop offset="0.0671736" stop-color="#FFC34C"/>
<stop offset="1" stop-color="#FFC34C" stop-opacity="0"/>
</linearGradient>
<linearGradient id="paint3_linear_903_3703" x1="80.4172" y1="51.0518" x2="62.4733" y2="51.0518" gradientUnits="userSpaceOnUse">
<stop offset="0.0671736" stop-color="#FFC34C"/>
<stop offset="1" stop-color="#FFC34C" stop-opacity="0"/>
</linearGradient>
<linearGradient id="paint4_linear_903_3703" x1="28.2593" y1="41.1916" x2="30.3556" y2="41.1916" gradientUnits="userSpaceOnUse">
<stop offset="0.166667" stop-color="#FFB33B"/>
<stop offset="1" stop-color="#FFC047"/>
</linearGradient>
<linearGradient id="paint5_linear_903_3703" x1="32.1859" y1="45.559" x2="31.1523" y2="45.559" gradientUnits="userSpaceOnUse">
<stop offset="0.0671736" stop-color="#FFC34C"/>
<stop offset="1" stop-color="#FFC34C" stop-opacity="0"/>
</linearGradient>
<linearGradient id="paint6_linear_903_3703" x1="36.8963" y1="41.1916" x2="38.9928" y2="41.1916" gradientUnits="userSpaceOnUse">
<stop offset="0.166667" stop-color="#FFB33B"/>
<stop offset="1" stop-color="#FFC047"/>
</linearGradient>
<linearGradient id="paint7_linear_903_3703" x1="40.8231" y1="45.559" x2="39.7892" y2="45.559" gradientUnits="userSpaceOnUse">
<stop offset="0.0671736" stop-color="#FFC34C"/>
<stop offset="1" stop-color="#FFC34C" stop-opacity="0"/>
</linearGradient>
<linearGradient id="paint8_linear_903_3703" x1="45.5336" y1="41.1916" x2="47.6299" y2="41.1916" gradientUnits="userSpaceOnUse">
<stop offset="0.166667" stop-color="#FFB33B"/>
<stop offset="1" stop-color="#FFC047"/>
</linearGradient>
<linearGradient id="paint9_linear_903_3703" x1="49.4602" y1="45.559" x2="48.4266" y2="45.559" gradientUnits="userSpaceOnUse">
<stop offset="0.0671736" stop-color="#FFC34C"/>
<stop offset="1" stop-color="#FFC34C" stop-opacity="0"/>
</linearGradient>
<linearGradient id="paint10_linear_903_3703" x1="54.1705" y1="41.1917" x2="56.267" y2="41.1917" gradientUnits="userSpaceOnUse">
<stop offset="0.166667" stop-color="#FFB33B"/>
<stop offset="1" stop-color="#FFC047"/>
</linearGradient>
<linearGradient id="paint11_linear_903_3703" x1="58.0973" y1="45.5591" x2="57.0634" y2="45.5591" gradientUnits="userSpaceOnUse">
<stop offset="0.0671736" stop-color="#FFC34C"/>
<stop offset="1" stop-color="#FFC34C" stop-opacity="0"/>
</linearGradient>
<linearGradient id="paint12_linear_903_3703" x1="51.8225" y1="25.7103" x2="50.7323" y2="27.3644" gradientUnits="userSpaceOnUse">
<stop offset="0.458872" stop-color="#FFCA3F"/>
<stop offset="1" stop-color="#FFCA3F" stop-opacity="0"/>
</linearGradient>
</defs>
</svg>
