<svg width="93" height="24" viewBox="0 0 93 24" fill="none" xmlns="http://www.w3.org/2000/svg">
<g clip-path="url(#clip0_82_3004)">
<path fill-rule="evenodd" clip-rule="evenodd" d="M7.22413 17.2115C9.71774 17.2115 11.7392 15.1837 11.7392 12.6822C11.7392 10.1807 9.71774 8.1528 7.22413 8.1528C4.73052 8.1528 2.70904 10.1807 2.70904 12.6822C2.70904 15.1837 4.73052 17.2115 7.22413 17.2115ZM7.22413 19.9292C11.2139 19.9292 14.4482 16.6845 14.4482 12.6822C14.4482 8.67977 11.2139 5.43518 7.22413 5.43518C3.23435 5.43518 0 8.67977 0 12.6822C0 16.6845 3.23435 19.9292 7.22413 19.9292Z" fill="white"/>
<path fill-rule="evenodd" clip-rule="evenodd" d="M29.3481 0C28.5999 0 27.9935 0.608361 27.9935 1.35881V7.02471C26.7567 6.03015 25.1868 5.43525 23.4784 5.43525C19.4887 5.43525 16.2543 8.67983 16.2543 12.6823C16.2543 16.6847 19.4887 19.9293 23.4784 19.9293C25.1868 19.9293 26.7567 19.3343 27.9935 18.3397V18.5704C27.9935 19.3209 28.5999 19.9293 29.3481 19.9293C30.0961 19.9293 30.7025 19.3209 30.7025 18.5704V12.6823V1.35881C30.7025 0.608361 30.0961 0 29.3481 0ZM27.9935 12.6823C27.9935 10.1807 25.972 8.15287 23.4784 8.15287C20.9848 8.15287 18.9634 10.1807 18.9634 12.6823C18.9634 15.1837 20.9848 17.2116 23.4784 17.2116C25.972 17.2116 27.9935 15.1837 27.9935 12.6823Z" fill="white"/>
<path fill-rule="evenodd" clip-rule="evenodd" d="M45.6023 0C44.8543 0 44.2478 0.608361 44.2478 1.35881V7.02471C43.0111 6.03015 41.4411 5.43525 39.7328 5.43525C35.743 5.43525 32.5087 8.67983 32.5087 12.6823C32.5087 16.6847 35.743 19.9293 39.7328 19.9293C41.4411 19.9293 43.0111 19.3343 44.2478 18.3397V18.5704C44.2478 19.3209 44.8543 19.9293 45.6023 19.9293C46.3504 19.9293 46.9569 19.3209 46.9569 18.5704V12.6823V1.35881C46.9569 0.608361 46.3504 0 45.6023 0ZM44.2478 12.6823C44.2478 10.1807 42.2264 8.15287 39.7328 8.15287C37.2392 8.15287 35.2177 10.1807 35.2177 12.6823C35.2177 15.1837 37.2392 17.2116 39.7328 17.2116C42.2264 17.2116 44.2478 15.1837 44.2478 12.6823Z" fill="white"/>
<path fill-rule="evenodd" clip-rule="evenodd" d="M81.463 11.5375C82.291 10.5743 83.5163 9.96459 84.8837 9.96459C87.3773 9.96459 89.3987 11.9924 89.3987 14.494C89.3987 16.9954 87.3773 19.0233 84.8837 19.0233C82.3901 19.0233 80.3686 16.9954 80.3686 14.494C80.3686 13.5128 80.6796 12.6045 81.2081 11.8628C81.2213 11.8473 81.2341 11.8315 81.2468 11.8154L81.463 11.5375ZM84.8018 7.24743C84.8291 7.24712 84.8564 7.24697 84.8837 7.24697C88.8734 7.24697 92.1078 10.4916 92.1078 14.494C92.1078 18.4964 88.8734 21.741 84.8837 21.741C80.8939 21.741 77.6595 18.4964 77.6595 14.494C77.6595 12.7118 78.3008 11.0799 79.3645 9.81773L85.5434 1.87839C86.0038 1.28686 86.855 1.18172 87.4447 1.64354C88.0343 2.10536 88.1391 2.95926 87.6788 3.55078L84.8018 7.24743Z" fill="#F2BF54"/>
<path fill-rule="evenodd" clip-rule="evenodd" d="M72.9528 13.8182C72.1249 14.7814 70.8995 15.3911 69.5322 15.3911C67.0386 15.3911 65.0171 13.3633 65.0171 10.8617C65.0171 8.36023 67.0386 6.33236 69.5322 6.33236C72.0259 6.33236 74.0473 8.36023 74.0473 10.8617C74.0473 11.8429 73.7363 12.7512 73.2078 13.4929C73.1946 13.5084 73.1817 13.5242 73.1691 13.5403L72.9528 13.8182ZM69.6141 18.1083C69.5868 18.1085 69.5595 18.1087 69.5322 18.1087C65.5424 18.1087 62.308 14.8642 62.308 10.8617C62.308 6.85933 65.5424 3.61475 69.5322 3.61475C73.5219 3.61475 76.7564 6.85933 76.7564 10.8617C76.7564 12.6439 76.115 14.2758 75.0514 15.538L68.8724 23.4773C68.412 24.0688 67.5608 24.174 66.9711 23.7122C66.3815 23.2503 66.2767 22.3964 66.737 21.805L69.6141 18.1083Z" fill="#F2BF54"/>
<path d="M49.5188 17.5004C49.1169 16.928 49.1909 16.029 49.804 15.598C50.4171 15.167 51.2237 15.3175 51.7266 15.829C52.589 16.7063 53.6429 17.2583 55.0551 17.2528C55.7678 17.2501 56.7995 17.0984 57.3533 16.4744C57.9073 15.8503 57.7967 15.2234 57.3848 14.8602C56.9728 14.497 56.1601 14.3126 55.5481 14.1404C54.6553 13.8893 53.6636 13.6828 52.9076 13.4264C52.3599 13.235 51.855 12.9913 51.3929 12.6952C50.9308 12.3819 50.4934 12.0289 50.2024 11.524C49.9115 11.0191 49.6057 10.4814 49.6057 9.61362C49.6057 8.60868 49.979 7.85712 50.4582 7.24777C50.9375 6.63841 51.6108 6.20785 52.3638 5.87706C53.134 5.54627 53.9687 5.43518 54.8074 5.43518C55.3379 5.43518 55.8941 5.50482 56.476 5.6441C57.058 5.76598 57.6143 5.9749 58.1448 6.27087C58.6754 6.54944 59.1204 6.92375 59.4797 7.39383C59.9292 8.01719 59.9409 8.81985 59.3257 9.32635C59.069 9.53529 58.8183 9.62112 58.4761 9.60371C58.3367 9.59663 57.9466 9.47003 57.6625 9.20643C57.4793 9.03636 57.0465 8.71765 56.5501 8.49132C56.0709 8.26499 55.3013 8.0894 54.6682 8.0894C53.5838 8.0894 52.4679 8.57045 52.4679 9.45902C52.4679 10.2276 53.3727 10.768 54.1912 10.9717C55.6937 11.4419 57.1235 11.7363 58.6481 12.5406C59.8102 13.1536 60.4993 14.3939 60.4428 15.6964C60.3535 17.7514 58.952 18.8036 57.426 19.4591C56.6558 19.7725 55.8685 19.9292 55.0641 19.9292C52.9565 19.9292 50.8113 19.2534 49.5188 17.5004Z" fill="white"/>
</g>
<defs>
<clipPath id="clip0_82_3004">
<rect width="92.7273" height="24" fill="white"/>
</clipPath>
</defs>
</svg>
