<svg width="72" height="73" viewBox="0 0 72 73" fill="none" xmlns="http://www.w3.org/2000/svg">
<g opacity="0.05">
<path fill-rule="evenodd" clip-rule="evenodd" d="M36 4.90625C53.66 4.90625 68 19.2463 68 36.9062C68 54.5662 53.66 68.9062 36 68.9062C18.34 68.9062 4 54.5662 4 36.9062C4 19.2463 18.34 4.90625 36 4.90625ZM21.6484 32.7061C19.4393 32.7061 17.6484 34.4969 17.6484 36.7061C17.6506 38.9137 19.4408 40.7021 21.6484 40.7021H31.8048V50.85L31.8008 50.854C31.8008 53.0632 33.5916 54.854 35.8008 54.854C38.0083 54.8518 39.7968 53.0616 39.7968 50.854V40.7021H49.9524C52.16 40.6999 53.9484 38.9097 53.9484 36.7021C53.944 34.4961 52.1544 32.7101 49.9484 32.7101H39.7968V22.55C39.7946 20.3425 38.0043 18.554 35.7968 18.554C33.5907 18.5585 31.8048 20.348 31.8048 22.554V32.7101H21.6524L21.6484 32.7061Z" fill="white"/>
</g>
</svg>
