<svg width="72" height="72" viewBox="0 0 72 72" fill="none" xmlns="http://www.w3.org/2000/svg">
<g opacity="0.3">
<path fill-rule="evenodd" clip-rule="evenodd" d="M36 4C53.66 4 68 18.34 68 36C68 53.66 53.66 68 36 68C18.34 68 4 53.66 4 36C4 18.34 18.34 4 36 4ZM21.6484 31.7998C19.4393 31.7998 17.6484 33.5907 17.6484 35.7998C17.6506 38.0074 19.4408 39.7958 21.6484 39.7958H31.8048V49.9438L31.8008 49.9478C31.8008 52.1569 33.5916 53.9478 35.8008 53.9478C38.0083 53.9456 39.7968 52.1554 39.7968 49.9478V39.7958H49.9524C52.16 39.7936 53.9484 38.0034 53.9484 35.7958C53.944 33.5898 52.1544 31.8038 49.9484 31.8038H39.7968V21.6438C39.7946 19.4362 38.0043 17.6478 35.7968 17.6478C33.5907 17.6522 31.8048 19.4418 31.8048 21.6478V31.8038H21.6524L21.6484 31.7998Z" fill="#34C759"/>
</g>
</svg>
