<svg width="121" height="51" viewBox="0 0 121 51" fill="none" xmlns="http://www.w3.org/2000/svg">
<g clip-path="url(#clip0_903_3687)">
<path fill-rule="evenodd" clip-rule="evenodd" d="M0 9.27503L0 12.3865C0.0428409 12.3846 0.0859332 12.3836 0.129256 12.3836C1.67163 12.3836 2.92198 13.5961 2.92198 15.0917C2.92198 16.5874 1.67163 17.7998 0.129256 17.7998C0.0859334 17.7998 0.0428414 17.7989 0 17.797L0 21.9071C0.0428531 21.9052 0.0859573 21.9042 0.129292 21.9042C1.67167 21.9042 2.92201 23.1167 2.92201 24.6123C2.92201 26.108 1.67167 27.3204 0.129292 27.3204C0.0859575 27.3204 0.0428536 27.3195 0 27.3176L0 31.4278C0.0428369 31.4259 0.0859243 31.425 0.129242 31.425C1.67162 31.425 2.92196 32.6374 2.92196 34.1331C2.92196 35.6287 1.67162 36.8412 0.129242 36.8412C0.0859248 36.8412 0.0428379 36.8402 2.51259e-06 36.8383L3.8147e-06 41.7723C5.04776 41.7723 9.13979 45.8643 9.13982 50.912L111.709 50.912C111.709 45.8643 115.801 41.7722 120.849 41.7722L120.849 36.8385C120.807 36.8402 120.766 36.8411 120.724 36.8411C119.182 36.8411 117.931 35.6287 117.931 34.133C117.931 32.6374 119.182 31.4249 120.724 31.4249C120.766 31.4249 120.807 31.4258 120.849 31.4276L120.849 27.3178C120.807 27.3195 120.766 27.3204 120.724 27.3204C119.182 27.3204 117.931 26.1079 117.931 24.6123C117.931 23.1167 119.182 21.9042 120.724 21.9042C120.766 21.9042 120.807 21.9051 120.849 21.9069L120.849 17.7972C120.807 17.7989 120.766 17.7998 120.724 17.7998C119.182 17.7998 117.931 16.5874 117.931 15.0917C117.931 13.5961 119.182 12.3836 120.724 12.3836C120.766 12.3836 120.807 12.3845 120.849 12.3863V9.2751C115.801 9.2751 111.709 5.18306 111.709 0.13528L9.13984 0.135254C9.13982 5.18302 5.04779 9.27503 2.19345e-05 9.27503H0Z" fill="url(#paint0_linear_903_3687)"/>
</g>
<defs>
<linearGradient id="paint0_linear_903_3687" x1="60.4243" y1="0.135254" x2="60.4243" y2="50.912" gradientUnits="userSpaceOnUse">
<stop stop-color="#FF4444"/>
<stop offset="1" stop-color="#E00E0E"/>
</linearGradient>
<clipPath id="clip0_903_3687">
<rect width="120.849" height="50.7768" fill="white" transform="translate(0 0.135254)"/>
</clipPath>
</defs>
</svg>
