<svg width="121" height="51" viewBox="0 0 121 51" fill="none" xmlns="http://www.w3.org/2000/svg">
<g filter="url(#filter0_i_424_2494)">
<path fill-rule="evenodd" clip-rule="evenodd" d="M0.0393066 9.27503L0.0393066 12.3865C0.0821476 12.3846 0.12524 12.3836 0.168562 12.3836C1.71094 12.3836 2.96129 13.5961 2.96129 15.0917C2.96129 16.5874 1.71094 17.7998 0.168562 17.7998C0.12524 17.7998 0.082148 17.7989 0.0393066 17.797L0.0393066 21.9071C0.0821597 21.9052 0.125264 21.9042 0.168599 21.9042C1.71098 21.9042 2.96132 23.1167 2.96132 24.6123C2.96132 26.108 1.71098 27.3204 0.168599 27.3204C0.125264 27.3204 0.0821603 27.3195 0.0393066 27.3176L0.0393066 31.4278C0.0821436 31.4259 0.125231 31.425 0.168549 31.425C1.71093 31.425 2.96127 32.6374 2.96127 34.1331C2.96127 35.6287 1.71093 36.8412 0.168549 36.8412C0.125231 36.8412 0.0821445 36.8402 0.0393092 36.8383L0.0393105 41.7723C5.08707 41.7723 9.17909 45.8643 9.17913 50.912L111.748 50.912C111.748 45.8643 115.84 41.7722 120.888 41.7722L120.888 36.8385C120.847 36.8402 120.805 36.8411 120.763 36.8411C119.221 36.8411 117.971 35.6287 117.971 34.133C117.971 32.6374 119.221 31.4249 120.763 31.4249C120.805 31.4249 120.847 31.4258 120.888 31.4276L120.888 27.3178C120.847 27.3195 120.805 27.3204 120.763 27.3204C119.221 27.3204 117.971 26.1079 117.971 24.6123C117.971 23.1167 119.221 21.9042 120.763 21.9042C120.805 21.9042 120.847 21.9051 120.888 21.9069L120.888 17.7972C120.847 17.7989 120.805 17.7998 120.763 17.7998C119.221 17.7998 117.971 16.5874 117.971 15.0917C117.971 13.5961 119.221 12.3836 120.763 12.3836C120.805 12.3836 120.847 12.3845 120.888 12.3863V9.2751C115.84 9.2751 111.748 5.18306 111.748 0.13528L9.17915 0.135254C9.17913 5.18302 5.0871 9.27503 0.0393286 9.27503H0.0393066Z" fill="url(#paint0_linear_424_2494)"/>
</g>
<defs>
<filter id="filter0_i_424_2494" x="0.0393066" y="0.135254" width="121.378" height="51.8346" filterUnits="userSpaceOnUse" color-interpolation-filters="sRGB">
<feFlood flood-opacity="0" result="BackgroundImageFix"/>
<feBlend mode="normal" in="SourceGraphic" in2="BackgroundImageFix" result="shape"/>
<feColorMatrix in="SourceAlpha" type="matrix" values="0 0 0 0 0 0 0 0 0 0 0 0 0 0 0 0 0 0 127 0" result="hardAlpha"/>
<feOffset dx="0.528925" dy="1.05785"/>
<feGaussianBlur stdDeviation="2.1157"/>
<feComposite in2="hardAlpha" operator="arithmetic" k2="-1" k3="1"/>
<feColorMatrix type="matrix" values="0 0 0 0 1 0 0 0 0 1 0 0 0 0 1 0 0 0 0.5 0"/>
<feBlend mode="normal" in2="shape" result="effect1_innerShadow_424_2494"/>
</filter>
<linearGradient id="paint0_linear_424_2494" x1="60.4636" y1="0.135254" x2="60.4636" y2="50.912" gradientUnits="userSpaceOnUse">
<stop stop-color="#FF4444"/>
<stop offset="1" stop-color="#E00E0E"/>
</linearGradient>
</defs>
</svg>
