<svg width="25" height="26" viewBox="0 0 25 26" fill="none" xmlns="http://www.w3.org/2000/svg">
<g clip-path="url(#clip0_55_3727)">
<path d="M25 12.8608C25 19.7648 19.404 25.3608 12.5 25.3608C5.596 25.3608 0 19.7648 0 12.8608C0 5.95684 5.596 0.36084 12.5 0.36084C19.404 0.36084 25 5.95684 25 12.8608Z" fill="url(#paint0_linear_55_3727)"/>
<path d="M6 9.08584L10.875 8.41184V13.1368H6V9.08584ZM11.475 8.33584L18 7.36084V13.0598H11.475V8.33584ZM6 13.6608H10.875V18.3858L6 17.7108V13.6608ZM11.475 13.6608H18V19.3608L11.551 18.4608L11.475 13.6608Z" fill="white"/>
</g>
<defs>
<linearGradient id="paint0_linear_55_3727" x1="0" y1="0.36084" x2="26.517" y2="2.08984" gradientUnits="userSpaceOnUse">
<stop stop-color="#108DE7"/>
<stop offset="1" stop-color="#0855C4"/>
</linearGradient>
<clipPath id="clip0_55_3727">
<rect width="25" height="25" fill="white" transform="translate(0 0.36084)"/>
</clipPath>
</defs>
</svg>
