<svg width="96" height="24" viewBox="0 0 96 24" fill="none" xmlns="http://www.w3.org/2000/svg">
<path d="M27.7232 7.328L24.1552 21.7936C25.0512 21.7936 25.904 21.4704 26.712 20.8288C27.52 20.1888 28.0352 19.4176 28.2656 18.5216L31.0208 7.3296H35.3136L35.2832 7.4512H42.6288L39.4288 19.9152C39.424 19.9408 39.4096 19.9808 39.3872 20.048C39.368 20.104 39.3552 20.152 39.3456 20.192L39.3408 20.2112C39.1872 21.1344 39.5456 21.664 40.4128 21.8L40.4448 21.8048L39.8768 23.9872H39.2112C37.672 23.9872 36.5152 23.6544 35.7376 22.9952C34.9584 22.3312 34.6624 21.4368 34.8528 20.3104C34.8688 20.1952 34.896 20.0816 34.9328 19.9712L34.9504 19.9152L37.616 9.6336H34.7488L33.1808 16.0352C32.672 18.1488 31.4944 19.9904 29.6448 21.56L29.5792 21.6144C27.6912 23.1952 25.7024 23.9872 23.6112 23.9872H19.3232L22.8576 9.5232L23.3136 7.3296L27.7232 7.328ZM58.6352 7.328L55.4864 20.3168C55.48 20.36 55.4672 20.4032 55.4512 20.4448C55.4336 20.4864 55.4192 20.5312 55.4112 20.576C55.2912 21.3408 55.64 21.744 56.4592 21.7888L55.9216 23.9872H54.424C52.9408 23.9872 51.9328 23.5392 51.3936 22.6416C50.3168 23.5376 49.1552 23.9856 47.904 23.9856H47.2384C45.7936 23.9856 44.6272 23.5856 43.7376 22.7888C42.8448 21.992 42.5008 20.9808 42.6976 19.7568C42.7136 19.6128 42.7456 19.4688 42.7936 19.3312L44.568 11.984C44.8848 10.656 45.7008 9.5456 47.0192 8.6592C48.336 7.7744 49.7584 7.3296 51.288 7.3296H58.6336L58.6352 7.328ZM76.0304 7.328C77.4816 7.328 78.6464 7.7296 79.5344 8.528C80.4064 9.312 80.7536 10.3072 80.5776 11.5104L80.5696 11.5632L80.5008 11.9856L78.6864 19.3296C78.3712 20.6208 77.5568 21.72 76.2384 22.6272C74.9408 23.5168 73.5312 23.9712 72 23.9872H71.2848C69.816 23.9872 68.6288 23.5936 67.7328 22.808C66.832 22.0176 66.4848 21.0032 66.6848 19.7568C66.7008 19.6336 66.728 19.5104 66.7632 19.3904L66.7808 19.3312L68.6 11.9856C68.9152 10.6768 69.7248 9.5712 71.032 8.6736C72.3152 7.7936 73.7312 7.3456 75.2816 7.3296L76.0304 7.328ZM16.1152 0C17.7952 0 19.1264 0.4128 20.1168 1.2352C21.0992 2.064 21.4832 3.1584 21.2608 4.5216C21.2528 4.5696 21.2384 4.6544 21.2048 4.7872C21.1696 4.9152 21.1568 4.9984 21.1488 5.0464L17.224 20.8C17.1184 21.424 17.3776 21.76 17.9984 21.8032L17.4464 23.9872H15.7312C14.68 23.9872 13.8912 23.728 13.376 23.208C12.8528 22.688 12.672 21.9584 12.8256 21.024C12.8432 20.88 12.8768 20.7392 12.9232 20.6032L14.3104 15.072H10.4L8.1696 23.9872H3.8752L6.0992 15.072H0C0 13.512 1.24 12.2432 2.7872 12.2432C3.8304 12.2432 5.1568 12.2368 6.5936 12.2352H6.8096L8.608 5.0464C8.9856 3.5248 9.872 2.3024 11.272 1.3824C12.672 0.4624 14.2832 0 16.1152 0ZM67.7472 3.3312L66.7808 7.096H68.6288L68.0848 9.2368H66.272L63.728 19.3584C63.7264 19.384 63.712 19.4224 63.6944 19.4864C63.672 19.5504 63.6576 19.6048 63.6512 19.648C63.5008 20.5648 63.8656 21.0656 64.7424 21.1488L64.1968 23.32H62.6992C61.4912 23.32 60.5888 23.0048 59.9888 22.3792C59.3936 21.7488 59.184 20.8944 59.3616 19.8096C59.3744 19.7328 59.3904 19.6576 59.4112 19.5856C59.44 19.4768 59.4592 19.4016 59.4656 19.3584L62.0096 9.2368H59.9136L60.4576 7.096H62.5488L63.4832 3.3312H67.7472ZM88.72 6.896L88.3872 8.2816C89.6832 7.3584 91.2256 6.896 93.0064 6.896H94.488L93.3088 11.3744H90.9008L91.424 9.2496C90.3488 9.6144 89.3888 10.2736 88.5344 11.2304C87.6816 12.1824 87.1104 13.2064 86.8176 14.3024L84.5216 23.2512H80.1024L84.3232 6.896H88.72ZM53.832 9.5264H50.7776C49.8864 9.5264 49.3024 10.0752 49.024 11.1664L46.9808 19.592C46.9744 19.6352 46.96 19.7024 46.9344 19.7904L46.8912 19.9504C46.6992 21.1792 47.216 21.7904 48.4464 21.7904C49.1024 21.7904 49.7264 21.5504 50.3104 21.0704C50.8944 20.5872 51.2736 20.0064 51.4448 19.3312L53.832 9.5264ZM75.1296 9.5584C74.6176 9.5584 74.1536 9.784 73.7424 10.232C73.3424 10.6672 73.0496 11.2304 72.8688 11.92L72.8528 11.984L71.0704 19.3312C71.0592 19.392 71.0448 19.4512 71.0272 19.5104C71.0032 19.5872 70.9872 19.6464 70.9792 19.6912C70.8832 20.304 70.9456 20.8048 71.1712 21.1968C71.3968 21.5936 71.7232 21.7888 72.1504 21.7888C72.6192 21.7888 73.0688 21.576 73.4976 21.1488C73.9168 20.7344 74.2224 20.1488 74.4144 19.3936L74.4304 19.3296L76.2128 11.9856L76.2704 11.6256C76.3776 10.9712 76.3168 10.464 76.0976 10.1008C75.8784 9.7392 75.5568 9.5584 75.1296 9.5584ZM15.5648 2.184C14.9856 2.184 14.456 2.3952 13.9888 2.816C13.5232 3.2384 13.216 3.7776 13.0688 4.432L11.0832 12.2336L11.0752 12.2816H14.9792L14.9936 12.2336L16.9792 4.4272L17.0288 4.1328C17.1184 3.5712 17.0288 3.1008 16.7712 2.736C16.5056 2.3632 16.1088 2.1808 15.5648 2.1808V2.184ZM42.0448 0C42.6656 0 43.1648 0.2192 43.5392 0.6528C43.9104 1.0864 44.0448 1.608 43.9424 2.2144C43.8416 2.8224 43.5264 3.3488 43.0112 3.7936C42.4912 4.2384 41.9184 4.4608 41.2928 4.4608C40.6704 4.4608 40.1728 4.2416 39.8032 3.808C39.4288 3.3728 39.2928 2.8448 39.4032 2.2144C39.504 1.608 39.8144 1.0864 40.3312 0.6528C40.8512 0.2192 41.4208 0 42.0448 0Z" fill="#E50539"/>
</svg>
