<svg width="97" height="17" viewBox="0 0 97 17" fill="none" xmlns="http://www.w3.org/2000/svg">
<mask id="mask0_2412_2210" style="mask-type:luminance" maskUnits="userSpaceOnUse" x="0" y="0" width="97" height="17">
<path d="M96.6083 0.413086H0.0566406V16.4131H96.6083V0.413086Z" fill="white"/>
</mask>
<g mask="url(#mask0_2412_2210)">
<path d="M46.4705 11.2189L42.1666 0.57666H37.543V16.258H41.446V7.27387L44.8794 16.258H48.0663L51.4951 7.27387V16.258H55.4027V0.57666H50.779L46.4705 11.2189Z" fill="white"/>
<path d="M62.514 0.57666L56.7695 16.258H60.8062L61.9061 13.1226H69.2463L70.3632 16.258H74.4006L68.7033 0.57666H62.5101H62.514ZM63.0531 9.84933L65.1147 3.97049H65.9906L68.0823 9.84933H63.0531Z" fill="white"/>
<path d="M10.5757 8.33732C10.0236 7.98849 9.42416 7.69992 8.78151 7.47592C8.13894 7.252 7.50927 7.04098 6.89682 6.84718C6.44828 6.6964 6.03859 6.54138 5.66335 6.37771C5.28812 6.21403 4.99483 6.02881 4.77917 5.81779C4.56359 5.60676 4.45576 5.33974 4.45576 5.01239C4.45576 4.71524 4.55062 4.45254 4.73607 4.22854C4.92153 4.00462 5.16739 3.83237 5.46492 3.71172C5.76254 3.59115 6.0946 3.5309 6.45261 3.5309C6.73724 3.5309 7.0262 3.57825 7.31516 3.67727C7.47907 3.73327 7.63 3.8065 7.77235 3.89695C7.77235 3.89695 7.78093 3.90127 7.7939 3.90985C7.85423 3.94862 7.91031 3.99172 7.96206 4.03907C8.11732 4.18119 8.32865 4.45254 8.471 4.93491C8.471 4.93491 8.471 4.93924 8.471 4.94349C8.53573 5.16316 8.58748 5.42586 8.60903 5.74031L12.2577 5.73166C12.1412 3.19065 10.9725 2.17423 10.9725 2.17423C10.4549 1.60141 9.80365 1.16206 9.01007 0.864917C8.21224 0.567769 7.31084 0.416992 6.29303 0.416992C5.17164 0.416992 4.17538 0.593564 3.3085 0.942463C2.44162 1.29561 1.75162 1.81243 1.24268 2.5015C0.733738 3.19065 0.479305 4.02617 0.479305 5.01239C0.466328 5.81778 0.613009 6.4897 0.927845 7.028C1.24268 7.56637 1.66102 8.00139 2.18286 8.33732C2.70471 8.67324 3.27405 8.94891 3.88642 9.16426C4.49887 9.37961 5.10699 9.57341 5.70213 9.73709C6.24128 9.90068 6.71569 10.06 7.12538 10.2195C7.53514 10.3745 7.85855 10.5683 8.09144 10.7922C8.3244 11.0162 8.4408 11.3134 8.4408 11.688C8.4408 12.1532 8.25102 12.5279 7.86721 12.8208C7.48339 13.1136 6.94425 13.2557 6.24127 13.2557C5.83583 13.2557 5.46925 13.1997 5.13286 13.0878C4.79648 12.9758 4.51184 12.7906 4.27888 12.5279C4.20558 12.4461 4.14093 12.3513 4.08486 12.2523C3.95115 11.9723 3.839 11.5804 3.80022 11.0463L0.0566406 11.055C0.078191 11.477 0.125617 11.8604 0.190345 12.2005C0.371476 13.1136 0.74239 13.8802 1.31166 14.5091C1.881 15.1379 2.60986 15.6116 3.49829 15.9303C4.38671 16.2533 5.39594 16.4127 6.51726 16.4127C7.84998 16.4127 8.94974 16.2016 9.81662 15.7839C10.6835 15.3661 11.3347 14.8062 11.7704 14.1042C12.2059 13.4022 12.4216 12.6097 12.4216 11.7311C12.4216 10.9085 12.2534 10.228 11.917 9.68108C11.5806 9.13406 11.1364 8.68614 10.58 8.33732H10.5757ZM4.08918 12.2523C4.02878 12.1446 3.97702 12.0326 3.93392 11.9034C3.97702 12.0283 4.02878 12.1446 4.08918 12.2523Z" fill="white"/>
<path d="M26.133 4.34529C26.7628 3.93606 27.4787 3.72937 28.2852 3.72937C29.0615 3.72937 29.7429 3.88871 30.3252 4.21174C30.9074 4.53476 31.3863 5.03868 31.7617 5.72343H35.5736L35.5048 5.27983C35.4662 5.0257 35.4013 4.77166 35.3063 4.53043C34.9788 3.74659 34.5045 3.07042 33.8835 2.48902C33.1713 1.82575 32.3263 1.31326 31.3477 0.955782C30.3683 0.593984 29.303 0.413086 28.1515 0.413086C26.9568 0.413086 25.87 0.606885 24.8996 0.994482C23.9292 1.38216 23.0839 1.93343 22.3766 2.65262C21.6649 3.36757 21.1216 4.21606 20.7377 5.19371C20.3582 6.17135 20.1641 7.24377 20.1641 8.40664C20.1641 9.5695 20.3538 10.6418 20.7377 11.6196C21.1172 12.5972 21.6693 13.4456 22.3852 14.1606C23.1012 14.8755 23.9507 15.4311 24.9298 15.8187C25.9088 16.2063 26.9957 16.4002 28.1946 16.4002C29.4669 16.4002 30.5882 16.1805 31.5585 15.7412C32.5287 15.3019 33.3529 14.7334 34.0256 14.04C34.0341 14.0313 34.0426 14.0228 34.0473 14.0184C35.0344 12.9935 35.5736 11.6196 35.5736 10.194V7.48067H28.2162V10.5256H31.9857V11.176C31.3261 12.1406 30.4934 12.6144 29.8378 12.847C29.5877 12.9417 29.3246 13.0107 29.0443 13.0451C28.8502 13.0753 28.7338 13.0753 28.7338 13.0753C28.6518 13.0753 28.5699 13.0839 28.4879 13.0839C27.5736 13.0839 26.7929 12.89 26.1417 12.5024C25.4905 12.1148 24.9945 11.5679 24.6495 10.8658C24.3044 10.1638 24.132 9.34118 24.132 8.40231C24.132 7.51944 24.3088 6.72695 24.6581 6.01633C25.0074 5.30571 25.4991 4.74578 26.1288 4.33663L26.133 4.34529Z" fill="white"/>
<path d="M18.2957 0.57666H14.3926V3.97906H18.2957V0.57666Z" fill="white"/>
<path d="M18.2957 5.73193H14.3926V16.2579H18.2957V5.73193Z" fill="white"/>
<path d="M76.786 16.1631H80.034V0.641113H71.2617L76.786 16.1631Z" fill="#FD0100"/>
<path d="M96.6091 8.35927C96.6091 9.27659 96.4492 10.1509 96.1603 10.9692H81.6304C81.3369 10.1552 81.1816 9.27659 81.1816 8.35927C81.1816 4.09114 84.6366 0.628418 88.8973 0.628418C93.1587 0.628418 96.6129 4.09114 96.6129 8.35927H96.6091Z" fill="#FD0100"/>
<path d="M82.7176 14.8971L81.627 12.8857H82.3515L82.8474 13.8548C82.9462 14.0529 83.0629 14.32 83.0629 14.32H83.0714C83.0714 14.32 83.1965 14.0486 83.2915 13.8548L83.7789 12.8857H84.4772L83.3865 14.8971V16.1632H82.7222V14.8971H82.7176Z" fill="white"/>
<path d="M84.7441 12.8857H87.1556V13.4457H85.4084V14.1778H86.9393V14.7248H85.4084V15.6077H87.1679V16.1632H84.7402V12.8901L84.7441 12.8857Z" fill="white"/>
<path d="M88.5077 12.8857H89.1982L90.3537 16.159H89.6593L89.4392 15.4613H88.2574L88.0419 16.159H87.3691L88.5123 12.8857H88.5077ZM88.4127 14.9574H89.2801L88.9866 14.0142C88.9302 13.8419 88.853 13.5102 88.853 13.5102H88.8445C88.8445 13.5102 88.7626 13.8419 88.7062 14.0142L88.4127 14.9574Z" fill="white"/>
<path d="M90.6309 12.8857H92.1355C92.7697 12.8857 93.1922 13.2519 93.1922 13.7988C93.1922 14.1822 93.0153 14.475 92.5928 14.5913V14.6042C92.8948 14.6903 93.0501 14.8669 93.0933 15.2632C93.1404 15.724 93.1188 16.0771 93.2354 16.1288V16.159H92.5974C92.5156 16.1202 92.5071 15.7541 92.4762 15.4053C92.4507 15.0478 92.2483 14.8454 91.8343 14.8454H91.299V16.159H90.6347V12.8857H90.6309ZM91.2951 14.3329H92.0019C92.3642 14.3329 92.5457 14.1434 92.5457 13.8849C92.5457 13.6266 92.3773 13.4241 92.0235 13.4241H91.299V14.3372L91.2951 14.3329Z" fill="white"/>
<path d="M93.4687 15.151H94.1199C94.1677 15.5429 94.3917 15.7023 94.8575 15.7023C95.1981 15.7023 95.4963 15.5817 95.4963 15.2802C95.4963 14.9615 95.1858 14.8969 94.6853 14.7806C94.0982 14.6471 93.5599 14.4921 93.5599 13.8116C93.5599 13.1655 94.0859 12.8296 94.8143 12.8296C95.5434 12.8296 96.0308 13.1914 96.0826 13.8503H95.4445C95.4098 13.5187 95.151 13.3551 94.8104 13.3551C94.452 13.3551 94.2195 13.5058 94.2195 13.7383C94.2195 14.0054 94.4481 14.0829 94.9355 14.1863C95.6083 14.3327 96.1598 14.4921 96.1598 15.1983C96.1598 15.8616 95.6253 16.232 94.8838 16.232C93.9947 16.232 93.4903 15.8401 93.4648 15.1467L93.4687 15.151Z" fill="white"/>
</g>
</svg>
